<?xml version="1.0" encoding="UTF-8" standalone="no"?>
<!-- Created with Inkscape (http://www.inkscape.org/) -->

<svg
   xmlns:ns0="http://www.iki.fi/pav/software/textext/"
   xmlns:dc="http://purl.org/dc/elements/1.1/"
   xmlns:cc="http://creativecommons.org/ns#"
   xmlns:rdf="http://www.w3.org/1999/02/22-rdf-syntax-ns#"
   xmlns:svg="http://www.w3.org/2000/svg"
   xmlns="http://www.w3.org/2000/svg"
   xmlns:xlink="http://www.w3.org/1999/xlink"
   xmlns:sodipodi="http://sodipodi.sourceforge.net/DTD/sodipodi-0.dtd"
   xmlns:inkscape="http://www.inkscape.org/namespaces/inkscape"
   width="210mm"
   height="297mm"
   viewBox="0 0 210 297"
   version="1.1"
   id="svg8"
   inkscape:version="0.92.2 (5c3e80d, 2017-08-06)"
   sodipodi:docname="icon.svg"
   inkscape:export-filename="/Users/gabrielnuetzi/Desktop/ExecutionGraph/gui/executionGraphGui/cefapp/mac/resources/icon2.png"
   inkscape:export-xdpi="500"
   inkscape:export-ydpi="500">
  <sodipodi:namedview
     id="base"
     pagecolor="#ffffff"
     bordercolor="#666666"
     borderopacity="1.0"
     inkscape:pageopacity="0.0"
     inkscape:pageshadow="2"
     inkscape:zoom="3.959798"
     inkscape:cx="211.8967"
     inkscape:cy="846.51462"
     inkscape:document-units="mm"
     inkscape:current-layer="g12070"
     showgrid="false"
     showguides="false"
     inkscape:guide-bbox="true"
     inkscape:snap-bbox="true"
     inkscape:bbox-paths="true"
     inkscape:bbox-nodes="true"
     inkscape:snap-bbox-edge-midpoints="true"
     inkscape:snap-bbox-midpoints="true"
     inkscape:snap-center="true"
     inkscape:snap-object-midpoints="true"
     inkscape:snap-intersection-paths="true"
     inkscape:snap-smooth-nodes="true"
     inkscape:snap-page="true"
     inkscape:object-paths="true"
     inkscape:snap-global="true"
     inkscape:window-width="1920"
     inkscape:window-height="1095"
     inkscape:window-x="0"
     inkscape:window-y="23"
     inkscape:window-maximized="0">
    <sodipodi:guide
       position="51.217819,228.55884"
       orientation="0,1"
       id="guide4542"
       inkscape:locked="false" />
    <sodipodi:guide
       position="53.253454,237.30193"
       orientation="1,0"
       id="guide4546"
       inkscape:locked="false" />
    <sodipodi:guide
       position="58.341141,232.40252"
       orientation="0,1"
       id="guide4569"
       inkscape:locked="false" />
    <sodipodi:guide
       position="57.192522,233.63653"
       orientation="1,0"
       id="guide4573"
       inkscape:locked="false" />
    <sodipodi:guide
       position="55.792304,230.86876"
       orientation="0,1"
       id="guide4575"
       inkscape:locked="false" />
    <sodipodi:guide
       position="43.776802,220.14072"
       orientation="0,1"
       id="guide7095"
       inkscape:locked="false" />
    <sodipodi:guide
       position="51.217819,224.85362"
       orientation="0,1"
       id="guide9201"
       inkscape:locked="false" />
    <sodipodi:guide
       position="58.34114,221.13622"
       orientation="0,1"
       id="guide10607"
       inkscape:locked="false" />
    <sodipodi:guide
       position="58.34114,216.87344"
       orientation="0,1"
       id="guide10609"
       inkscape:locked="false" />
    <sodipodi:guide
       inkscape:locked="false"
       id="guide3351"
       orientation="1,0"
       position="69.446423,235.30803" />
    <sodipodi:guide
       position="40,241.6449"
       orientation="1,0"
       id="guide15980"
       inkscape:locked="false"
       inkscape:label=""
       inkscape:color="rgb(0,0,255)" />
    <sodipodi:guide
       position="47.70761,242.48028"
       orientation="0,1"
       id="guide15982"
       inkscape:locked="false"
       inkscape:label=""
       inkscape:color="rgb(0,0,255)" />
  </sodipodi:namedview>
  <defs
     id="defs2">
    <linearGradient
       id="linearGradient16250"
       inkscape:collect="always">
      <stop
         id="stop16246"
         offset="0"
         style="stop-color:#003380;stop-opacity:1" />
      <stop
         id="stop16248"
         offset="1"
         style="stop-color:#0044aa;stop-opacity:1" />
    </linearGradient>
    <inkscape:path-effect
       nr_y="9"
       nr_x="9"
       is_visible="true"
       id="path-effect16163"
       effect="construct_grid" />
    <inkscape:path-effect
       effect="construct_grid"
       id="path-effect15978"
       is_visible="true"
       nr_x="9"
       nr_y="9" />
    <linearGradient
       inkscape:collect="always"
       id="linearGradient10983">
      <stop
         style="stop-color:#808080;stop-opacity:1"
         offset="0"
         id="stop10979" />
      <stop
         style="stop-color:#ffffff;stop-opacity:1"
         offset="1"
         id="stop10981" />
    </linearGradient>
    <marker
       inkscape:stockid="Arrow2Mend"
       orient="auto"
       refY="0.0"
       refX="0.0"
       id="marker8827"
       style="overflow:visible;"
       inkscape:isstock="true">
      <path
         id="path8825"
         style="fill-rule:evenodd;stroke-width:0.625;stroke-linejoin:round;stroke:#ffffff;stroke-opacity:1;fill:#ffffff;fill-opacity:1"
         d="M 8.7185878,4.0337352 L -2.2072895,0.016013256 L 8.7185884,-4.0017078 C 6.9730900,-1.6296469 6.9831476,1.6157441 8.7185878,4.0337352 z "
         transform="scale(0.6) rotate(180) translate(0,0)" />
    </marker>
    <marker
       inkscape:stockid="Arrow2Mend"
       orient="auto"
       refY="0.0"
       refX="0.0"
       id="marker8823"
       style="overflow:visible;"
       inkscape:isstock="true">
      <path
         id="path8821"
         style="fill-rule:evenodd;stroke-width:0.625;stroke-linejoin:round;stroke:#ffffff;stroke-opacity:1;fill:#ffffff;fill-opacity:1"
         d="M 8.7185878,4.0337352 L -2.2072895,0.016013256 L 8.7185884,-4.0017078 C 6.9730900,-1.6296469 6.9831476,1.6157441 8.7185878,4.0337352 z "
         transform="scale(0.6) rotate(180) translate(0,0)" />
    </marker>
    <marker
       inkscape:isstock="true"
       style="overflow:visible;"
       id="marker8795"
       refX="0.0"
       refY="0.0"
       orient="auto"
       inkscape:stockid="Arrow1Send">
      <path
         transform="scale(0.2) rotate(180) translate(6,0)"
         style="fill-rule:evenodd;stroke:#ffffff;stroke-width:1pt;stroke-opacity:1;fill:#ffffff;fill-opacity:1"
         d="M 0.0,0.0 L 5.0,-5.0 L -12.5,0.0 L 5.0,5.0 L 0.0,0.0 z "
         id="path8793" />
    </marker>
    <marker
       inkscape:isstock="true"
       style="overflow:visible;"
       id="marker8743"
       refX="0.0"
       refY="0.0"
       orient="auto"
       inkscape:stockid="Arrow1Send">
      <path
         transform="scale(0.2) rotate(180) translate(6,0)"
         style="fill-rule:evenodd;stroke:#ffffff;stroke-width:1pt;stroke-opacity:1;fill:#ffffff;fill-opacity:1"
         d="M 0.0,0.0 L 5.0,-5.0 L -12.5,0.0 L 5.0,5.0 L 0.0,0.0 z "
         id="path8741" />
    </marker>
    <marker
       inkscape:stockid="Arrow1Mend"
       orient="auto"
       refY="0.0"
       refX="0.0"
       id="marker4973"
       style="overflow:visible;"
       inkscape:isstock="true">
      <path
         id="path4971"
         d="M 0.0,0.0 L 5.0,-5.0 L -12.5,0.0 L 5.0,5.0 L 0.0,0.0 z "
         style="fill-rule:evenodd;stroke:#000000;stroke-width:1pt;stroke-opacity:1;fill:#000000;fill-opacity:1"
         transform="scale(0.4) rotate(180) translate(10,0)" />
    </marker>
    <marker
       inkscape:stockid="Arrow1Mend"
       orient="auto"
       refY="0.0"
       refX="0.0"
       id="Arrow1Mend"
       style="overflow:visible;"
       inkscape:isstock="true">
      <path
         id="path4586"
         d="M 0.0,0.0 L 5.0,-5.0 L -12.5,0.0 L 5.0,5.0 L 0.0,0.0 z "
         style="fill-rule:evenodd;stroke:#000000;stroke-width:1pt;stroke-opacity:1;fill:#000000;fill-opacity:1"
         transform="scale(0.4) rotate(180) translate(10,0)" />
    </marker>
    <marker
       inkscape:stockid="Arrow2Lend"
       orient="auto"
       refY="0.0"
       refX="0.0"
       id="marker4913"
       style="overflow:visible;"
       inkscape:isstock="true">
      <path
         id="path4911"
         style="fill-rule:evenodd;stroke-width:0.625;stroke-linejoin:round;stroke:#000000;stroke-opacity:1;fill:#000000;fill-opacity:1"
         d="M 8.7185878,4.0337352 L -2.2072895,0.016013256 L 8.7185884,-4.0017078 C 6.9730900,-1.6296469 6.9831476,1.6157441 8.7185878,4.0337352 z "
         transform="scale(1.1) rotate(180) translate(1,0)" />
    </marker>
    <marker
       inkscape:isstock="true"
       style="overflow:visible"
       id="marker7363-5"
       refX="0"
       refY="0"
       orient="auto"
       inkscape:stockid="Arrow2Mend">
      <path
         inkscape:connector-curvature="0"
         transform="scale(-0.6)"
         d="M 8.7185878,4.0337352 -2.2072895,0.01601326 8.7185884,-4.0017078 c -1.7454984,2.3720609 -1.7354408,5.6174519 -6e-7,8.035443 z"
         style="fill:#ffffff;fill-opacity:1;fill-rule:evenodd;stroke:#ffffff;stroke-width:0.625;stroke-linejoin:round;stroke-opacity:1"
         id="path7361-2" />
    </marker>
    <linearGradient
       inkscape:collect="always"
       xlink:href="#linearGradient10983"
       id="linearGradient8185"
       x1="58.341141"
       y1="-71.402687"
       x2="69.446426"
       y2="-61.691963"
       gradientUnits="userSpaceOnUse"
       gradientTransform="translate(8.3605147,7.5623447)" />
    <marker
       inkscape:stockid="Arrow2Mend"
       orient="auto"
       refY="0"
       refX="0"
       id="marker8823-3"
       style="overflow:visible"
       inkscape:isstock="true">
      <path
         inkscape:connector-curvature="0"
         id="path8821-6"
         style="fill:#ffffff;fill-opacity:1;fill-rule:evenodd;stroke:#ffffff;stroke-width:0.625;stroke-linejoin:round;stroke-opacity:1"
         d="M 8.7185878,4.0337352 -2.2072895,0.01601326 8.7185884,-4.0017078 c -1.7454984,2.3720609 -1.7354408,5.6174519 -6e-7,8.035443 z"
         transform="scale(-0.6)" />
    </marker>
    <filter
       style="color-interpolation-filters:sRGB;"
       inkscape:label="Drop Shadow"
       id="filter15918">
      <feFlood
         flood-opacity="0.81000000000000005"
         flood-color="rgb(0,0,0)"
         result="flood"
         id="feFlood15908" />
      <feComposite
         in="flood"
         in2="SourceGraphic"
         operator="in"
         result="composite1"
         id="feComposite15910" />
      <feOffset
         dx="0.5"
         dy="0.5"
         result="offset"
         id="feOffset15914" />
      <feComposite
         in="SourceGraphic"
         in2="offset"
         operator="over"
         result="composite2"
         id="feComposite15916" />
    </filter>
    <inkscape:path-effect
       effect="construct_grid"
       id="path-effect15978-8"
       is_visible="true"
       nr_x="9"
       nr_y="9" />
    <filter
       style="color-interpolation-filters:sRGB"
       inkscape:label="Drop Shadow"
       id="filter15918-3">
      <feFlood
         flood-opacity="0.81000000000000005"
         flood-color="rgb(0,0,0)"
         result="flood"
         id="feFlood15908-4" />
      <feComposite
         in="flood"
         in2="SourceGraphic"
         operator="in"
         result="composite1"
         id="feComposite15910-0" />
      <feOffset
         dx="0.90000000000000002"
         dy="0.90000000000000002"
         result="offset"
         id="feOffset15914-6" />
      <feComposite
         in="SourceGraphic"
         in2="offset"
         operator="over"
         result="composite2"
         id="feComposite15916-0" />
    </filter>
    <mask
       maskUnits="userSpaceOnUse"
       id="mask16159">
      <path
         style="fill:none;fill-rule:evenodd;stroke:#e6e6e6;stroke-width:0.26458332px;stroke-linecap:butt;stroke-linejoin:miter;stroke-opacity:1"
         d="m 52.553935,51.359896 v 27 m 2.999999,-27 v 27 m 2.999999,-27 v 27 m 2.999999,-27 v 27 m 2.999999,-27 v 27 m 2.999999,-27 v 27 m 2.999999,-27 v 27 m 2.999999,-27 v 27 m 2.999999,-27 v 27 m 2.999999,-27 v 27 m -26.999991,-27 h 26.999991 m -26.999991,3 h 26.999991 m -26.999991,3 h 26.999991 m -26.999991,3 h 26.999991 m -26.999991,3 h 26.999991 m -26.999991,3 h 26.999991 m -26.999991,3 h 26.999991 m -26.999991,3 h 26.999991 m -26.999991,3 h 26.999991 m -26.999991,3 h 26.999991"
         id="path16161"
         inkscape:connector-curvature="0"
         inkscape:path-effect="#path-effect16163"
         inkscape:original-d="m 52.553935,54.359896 v -3 h 2.999999"
         sodipodi:nodetypes="ccc" />
    </mask>
    <linearGradient
       inkscape:collect="always"
       xlink:href="#linearGradient10983"
       id="linearGradient16216"
       x1="54.66087"
       y1="75.692108"
       x2="77.205574"
       y2="55.863174"
       gradientUnits="userSpaceOnUse"
       gradientTransform="translate(37.892114,1.7953856)" />
    <filter
       style="color-interpolation-filters:sRGB;"
       inkscape:label="Drop Shadow"
       id="filter16228">
      <feFlood
         flood-opacity="0.498039"
         flood-color="rgb(0,0,0)"
         result="flood"
         id="feFlood16218" />
      <feComposite
         in="flood"
         in2="SourceGraphic"
         operator="in"
         result="composite1"
         id="feComposite16220" />
      <feGaussianBlur
         in="composite1"
         stdDeviation="1.38778e-16"
         result="blur"
         id="feGaussianBlur16222" />
      <feOffset
         dx="0.2"
         dy="-0.2"
         result="offset"
         id="feOffset16224" />
      <feComposite
         in="SourceGraphic"
         in2="offset"
         operator="over"
         result="composite2"
         id="feComposite16226" />
    </filter>
    <linearGradient
       inkscape:collect="always"
       xlink:href="#linearGradient16250"
       id="linearGradient16244"
       x1="55.74456"
       y1="78.869743"
       x2="75.952499"
       y2="49.962044"
       gradientUnits="userSpaceOnUse"
       gradientTransform="rotate(9,66.17386,64.565433)" />
  </defs>
  <metadata
     id="metadata5">
    <rdf:RDF>
      <cc:Work
         rdf:about="">
        <dc:format>image/svg+xml</dc:format>
        <dc:type
           rdf:resource="http://purl.org/dc/dcmitype/StillImage" />
        <dc:title></dc:title>
      </cc:Work>
    </rdf:RDF>
  </metadata>
  <g
     inkscape:label="Ebene 1"
     inkscape:groupmode="layer"
     id="layer1">
    <circle
       style="fill:#ff0000;fill-rule:evenodd;stroke:#000000;stroke-width:0.26458332px;stroke-linecap:butt;stroke-linejoin:miter;stroke-opacity:1"
       id="path8156-7"
       cx="49.179485"
       cy="-71.290878"
       transform="scale(1,-1)"
       r="0" />
    <g
       style="font-style:normal;font-variant:normal;font-weight:normal;font-stretch:normal;letter-spacing:normal;word-spacing:normal;text-anchor:start;fill:#000000;fill-opacity:1;fill-rule:evenodd;stroke:none;stroke-width:3.85506892;stroke-linecap:butt;stroke-linejoin:miter;stroke-miterlimit:10.43299961;stroke-dasharray:none;stroke-dashoffset:0;stroke-opacity:1"
       ns0:preamble=""
       ns0:text="$g$\n\n\n\n\n\n\n\n\n\n\n\n\n\n"
       word-spacing="normal"
       letter-spacing="normal"
       font-size-adjust="none"
       font-stretch="normal"
       font-weight="normal"
       font-variant="normal"
       font-style="normal"
       stroke-miterlimit="10.433"
       xml:space="preserve"
       transform="matrix(0.5,0,0,-0.5,-32.278197,425.49088)"
       id="g7344" />    <g
       id="g12070"
       transform="rotate(-7,56.342216,92.962799)">
      <rect
         ry="2.9399705"
         rx="2.9399705"
         y="51.359898"
         x="52.613964"
         height="26.411085"
         width="27.119791"
         id="rect8349-4"
         style="fill:url(#linearGradient16244);fill-opacity:1;stroke:#808080;stroke-width:1.10000002;stroke-linecap:round;stroke-linejoin:round;stroke-miterlimit:4;stroke-dasharray:none;stroke-opacity:1;paint-order:fill markers stroke;filter:url(#filter15918-3)"
         transform="rotate(-2,279.21656,307.88059)"
         inkscape:export-xdpi="500"
         inkscape:export-ydpi="500" />
      <rect
         rx="2.9399648"
         ry="2.9399645"
         y="63.555347"
         x="55.989388"
         height="9.0668192"
         width="10.502578"
         id="rect4504-0-9"
         style="fill:#ffa113;fill-opacity:1;stroke:#666666;stroke-width:0.80000001;stroke-linecap:butt;stroke-linejoin:round;stroke-miterlimit:4;stroke-dasharray:none;paint-order:fill markers stroke"
         transform="rotate(-2.0000003)"
         inkscape:export-xdpi="500"
         inkscape:export-ydpi="500" />
      <rect
         rx="2.9399648"
         ry="2.9399645"
         y="75.456383"
         x="55.786682"
         height="9.0668182"
         width="10.805282"
         id="rect4504-0"
         style="fill:#ffa113;fill-opacity:1;stroke:#666666;stroke-width:0.80000001;stroke-linecap:butt;stroke-linejoin:round;stroke-miterlimit:4;stroke-dasharray:none;paint-order:fill markers stroke"
         transform="rotate(-2.0000002)"
         inkscape:export-xdpi="500"
         inkscape:export-ydpi="500" />
      <rect
         rx="1.3601902"
         ry="1.46998"
         y="68.078896"
         x="43.837791"
         height="11.889964"
         width="4.825572"
         id="rect4504"
         style="fill:#ffa113;fill-opacity:1;stroke:#666666;stroke-width:0.80000001;stroke-linecap:round;stroke-linejoin:miter;stroke-miterlimit:4;stroke-dasharray:none;stroke-opacity:1;paint-order:fill markers stroke"
         transform="rotate(-2)"
         inkscape:export-xdpi="500"
         inkscape:export-ydpi="500" />
      <path
         sodipodi:nodetypes="cc"
         inkscape:connector-curvature="0"
         id="path4548"
         d="m 51.074791,68.695183 c 2.232238,-0.07795 0.627265,-2.330238 5.473762,-2.499483"
         style="fill:none;fill-rule:evenodd;stroke:#ffff00;stroke-width:0.89999998;stroke-linecap:round;stroke-linejoin:miter;stroke-miterlimit:4;stroke-dasharray:none;stroke-opacity:1"
         inkscape:export-xdpi="500"
         inkscape:export-ydpi="500" />
      <path
         sodipodi:nodetypes="cc"
         inkscape:connector-curvature="0"
         id="path4548-4"
         d="m 51.316676,76.10156 c 0,0 2.076497,-0.137676 5.028108,-0.195347"
         style="fill:none;fill-rule:evenodd;stroke:#ffff00;stroke-width:0.89999998;stroke-linecap:round;stroke-linejoin:miter;stroke-miterlimit:4;stroke-dasharray:none;stroke-opacity:1"
         inkscape:export-xdpi="500"
         inkscape:export-ydpi="500" />
      <path
         sodipodi:nodetypes="czc"
         inkscape:connector-curvature="0"
         id="path4548-4-2"
         d="m 51.204063,72.398082 c 2.501145,-0.08735 2.084585,0.874779 2.216014,4.638402 0.131429,3.763629 1.496619,3.217011 3.074593,3.161907"
         style="fill:none;fill-rule:evenodd;stroke:#ffff00;stroke-width:0.89999998;stroke-linecap:round;stroke-linejoin:miter;stroke-miterlimit:4;stroke-dasharray:none;stroke-opacity:1"
         inkscape:export-xdpi="500"
         inkscape:export-ydpi="500" />
      <circle
         inkscape:transform-center-y="1.0496468e-05"
         r="1.1858493"
         cy="70.435822"
         cx="48.646252"
         id="path8156"
         style="fill:#ffff00;fill-rule:evenodd;stroke:#d4aa00;stroke-width:0.26458335px;stroke-linecap:butt;stroke-linejoin:miter;stroke-opacity:1"
         transform="rotate(-2)"
         inkscape:export-xdpi="500"
         inkscape:export-ydpi="500" />
      <circle
         r="1.0013045"
         cy="68.128891"
         cx="55.786682"
         id="path8156-2"
         style="fill:#55ddff;fill-rule:evenodd;stroke:#5555ff;stroke-width:0.26458338px;stroke-linecap:butt;stroke-linejoin:miter;stroke-opacity:1"
         transform="rotate(-2)"
         inkscape:export-xdpi="500"
         inkscape:export-ydpi="500" />
      <g
         id="g9765"
         transform="matrix(0.69957358,-0.02442965,-0.02442965,-0.69957358,-26.252792,566.54609)"
         xml:space="preserve"
         stroke-miterlimit="10.433"
         font-style="normal"
         font-variant="normal"
         font-weight="normal"
         font-stretch="normal"
         font-size-adjust="none"
         letter-spacing="normal"
         word-spacing="normal"
         ns0:text="$x^2$\n\n\n\n\n\n\n\n\n\n\n"
         ns0:preamble=""
         style="font-style:normal;font-variant:normal;font-weight:normal;font-stretch:normal;letter-spacing:normal;word-spacing:normal;text-anchor:start;fill:#000000;fill-opacity:1;fill-rule:evenodd;stroke:none;stroke-width:3.85506892;stroke-linecap:butt;stroke-linejoin:miter;stroke-miterlimit:10.43299961;stroke-dasharray:none;stroke-dashoffset:0;stroke-opacity:1"
         inkscape:export-xdpi="500"
         inkscape:export-ydpi="500"><path
           inkscape:connector-curvature="0"
           d="m 152.04,710.12 0.01,0.03 0.01,0.03 v 0.03 l 0.01,0.04 0.01,0.04 0.02,0.04 0.01,0.04 0.01,0.05 0.02,0.04 0.02,0.05 0.02,0.05 0.02,0.05 0.02,0.05 0.02,0.05 0.03,0.05 0.03,0.05 0.03,0.05 0.03,0.04 0.03,0.05 0.04,0.04 0.03,0.05 0.04,0.04 0.05,0.04 0.04,0.03 0.05,0.03 0.04,0.03 0.03,0.01 0.03,0.02 0.02,0.01 0.03,0.01 0.03,0.01 h 0.03 l 0.02,0.01 0.03,0.01 h 0.03 0.04 l 0.03,0.01 h 0.03 c 0.05,0 0.29,0 0.5,-0.13 -0.28,-0.05 -0.48,-0.3 -0.48,-0.54 0,-0.16 0.11,-0.35 0.38,-0.35 0.22,0 0.54,0.18 0.54,0.58 0,0.52 -0.59,0.66 -0.93,0.66 -0.58,0 -0.93,-0.53 -1.05,-0.76 -0.25,0.66 -0.78,0.76 -1.07,0.76 -1.04,0 -1.61,-1.29 -1.61,-1.53 0,-0.1 0.1,-0.1 0.12,-0.1 0.08,0 0.11,0.02 0.13,0.11 0.34,1.05 1,1.3 1.34,1.3 0.19,0 0.53,-0.09 0.53,-0.67 0,-0.31 -0.17,-0.97 -0.53,-2.36 -0.16,-0.62 -0.51,-1.04 -0.95,-1.04 -0.06,0 -0.29,0 -0.5,0.13 0.25,0.05 0.47,0.26 0.47,0.54 0,0.27 -0.22,0.35 -0.37,0.35 -0.3,0 -0.55,-0.26 -0.55,-0.58 0,-0.46 0.5,-0.65 0.94,-0.65 0.66,0 1.02,0.69 1.05,0.75 0.11,-0.37 0.47,-0.75 1.07,-0.75 1.03,0 1.6,1.28 1.6,1.53 0,0.1 -0.09,0.1 -0.12,0.1 -0.09,0 -0.11,-0.05 -0.13,-0.11 -0.33,-1.07 -1.01,-1.31 -1.33,-1.31 -0.39,0 -0.55,0.32 -0.55,0.66 0,0.22 0.06,0.44 0.17,0.87 z"
           font-size-adjust="none"
           font-stretch="normal"
           font-style="normal"
           font-variant="normal"
           font-weight="normal"
           letter-spacing="normal"
           stroke-miterlimit="10.433"
           word-spacing="normal"
           style="font-style:normal;font-variant:normal;font-weight:normal;font-stretch:normal;letter-spacing:normal;word-spacing:normal;text-anchor:start;fill:#000000;fill-opacity:1;fill-rule:evenodd;stroke:none;stroke-width:3.85506892;stroke-linecap:butt;stroke-linejoin:miter;stroke-miterlimit:10.43299961;stroke-dasharray:none;stroke-dashoffset:0;stroke-opacity:1"
           id="path9761" /><path
           inkscape:connector-curvature="0"
           d="m 157.94,712.01 h -0.24 c -0.02,-0.16 -0.09,-0.57 -0.18,-0.64 -0.06,-0.04 -0.6,-0.04 -0.7,-0.04 h -1.28 c 0.73,0.65 0.98,0.84 1.4,1.17 0.52,0.41 1,0.84 1,1.5 0,0.84 -0.74,1.36 -1.64,1.36 -0.87,0 -1.45,-0.61 -1.45,-1.25 0,-0.35 0.3,-0.39 0.37,-0.39 0.16,0 0.37,0.12 0.37,0.37 0,0.13 -0.05,0.37 -0.41,0.37 0.21,0.49 0.69,0.65 1.02,0.65 0.7,0 1.06,-0.54 1.06,-1.11 0,-0.6 -0.44,-1.08 -0.66,-1.33 l -1.68,-1.66 c -0.07,-0.06 -0.07,-0.08 -0.07,-0.27 h 2.88 z"
           font-size-adjust="none"
           font-stretch="normal"
           font-style="normal"
           font-variant="normal"
           font-weight="normal"
           letter-spacing="normal"
           stroke-miterlimit="10.433"
           word-spacing="normal"
           style="font-style:normal;font-variant:normal;font-weight:normal;font-stretch:normal;letter-spacing:normal;word-spacing:normal;text-anchor:start;fill:#000000;fill-opacity:1;fill-rule:evenodd;stroke:none;stroke-width:3.85506892;stroke-linecap:butt;stroke-linejoin:miter;stroke-miterlimit:10.43299961;stroke-dasharray:none;stroke-dashoffset:0;stroke-opacity:1"
           id="path9763" /></g>      <g
         id="g10077"
         transform="matrix(0.69957358,-0.02442965,-0.02442965,-0.69957358,-27.355078,577.6369)"
         xml:space="preserve"
         stroke-miterlimit="10.433"
         font-style="normal"
         font-variant="normal"
         font-weight="normal"
         font-stretch="normal"
         font-size-adjust="none"
         letter-spacing="normal"
         word-spacing="normal"
         ns0:text="$y\\!\\cdot\\!z$\n\n\n\n\n\n\n\n\n\n\n\n\n\n\n\n\n\n\n\n\n"
         ns0:preamble=""
         style="font-style:normal;font-variant:normal;font-weight:normal;font-stretch:normal;letter-spacing:normal;word-spacing:normal;text-anchor:start;fill:#000000;fill-opacity:1;fill-rule:evenodd;stroke:none;stroke-width:3.85506892;stroke-linecap:butt;stroke-linejoin:miter;stroke-miterlimit:10.43299961;stroke-dasharray:none;stroke-dashoffset:0;stroke-opacity:1"
         inkscape:export-xdpi="500"
         inkscape:export-ydpi="500"><path
           inkscape:connector-curvature="0"
           d="m 154.32363,711.19636 v 0.01 0 0.01 h 0.01 v 0.02 0.01 0.01 l 0.01,0.01 v 0.01 0 0.01 l 0.01,0.01 v 0.01 0.01 0 0.01 0 0.01 0.01 0 l 0.01,0.01 v 0 0.01 0.01 0.01 0.01 0.01 0.01 0 0.01 c 0,0.18 -0.14,0.27 -0.29,0.27 -0.1,0 -0.26,-0.06 -0.35,-0.21 -0.02,-0.05 -0.1,-0.36 -0.14,-0.54 -0.07,-0.26 -0.14,-0.52 -0.2,-0.79 l -0.45,-1.79 c -0.04,-0.15 -0.47,-0.85 -1.13,-0.85 -0.5,0 -0.61,0.44 -0.61,0.81 0,0.46 0.17,1.07 0.51,1.95 0.16,0.4 0.19,0.51 0.19,0.71 0,0.45 -0.31,0.82 -0.81,0.82 -0.95,0 -1.32,-1.44 -1.32,-1.53 0,-0.1 0.1,-0.1 0.12,-0.1 0.1,0 0.11,0.02 0.16,0.18 0.27,0.93 0.67,1.23 1.01,1.23 0.08,0 0.25,0 0.25,-0.32 0,-0.25 -0.1,-0.51 -0.17,-0.7 -0.4,-1.05 -0.58,-1.62 -0.58,-2.08 0,-0.89 0.63,-1.18 1.22,-1.18 0.39,0 0.72,0.16 1,0.44 -0.13,-0.51 -0.25,-1 -0.64,-1.53 -0.27,-0.34 -0.64,-0.62 -1.1,-0.62 -0.14,0 -0.59,0.03 -0.76,0.41 0.16,0 0.29,0 0.43,0.12 0.1,0.09 0.2,0.22 0.2,0.41 0,0.31 -0.27,0.35 -0.37,0.35 -0.23,0 -0.56,-0.16 -0.56,-0.65 0,-0.49 0.44,-0.86 1.06,-0.86 1.02,0 2.05,0.9 2.33,2.02 z"
           font-size-adjust="none"
           font-stretch="normal"
           font-style="normal"
           font-variant="normal"
           font-weight="normal"
           letter-spacing="normal"
           stroke-miterlimit="10.433"
           word-spacing="normal"
           style="font-style:normal;font-variant:normal;font-weight:normal;font-stretch:normal;letter-spacing:normal;word-spacing:normal;text-anchor:start;fill:#000000;fill-opacity:1;fill-rule:evenodd;stroke:none;stroke-width:3.85506892;stroke-linecap:butt;stroke-linejoin:miter;stroke-miterlimit:10.43299961;stroke-dasharray:none;stroke-dashoffset:0;stroke-opacity:1"
           id="path10071" /><path
           inkscape:connector-curvature="0"
           d="m 156.42,709.61 v 0.02 0.03 0.03 l -0.01,0.02 v 0.03 l -0.01,0.02 -0.01,0.03 -0.01,0.02 -0.01,0.03 -0.01,0.02 -0.01,0.02 -0.02,0.02 -0.01,0.02 -0.02,0.02 -0.02,0.02 -0.01,0.02 -0.02,0.02 -0.02,0.01 -0.02,0.02 -0.02,0.01 -0.02,0.02 -0.03,0.01 -0.02,0.01 -0.02,0.01 -0.03,0.01 -0.02,0.01 -0.02,0.01 H 156 l -0.03,0.01 h -0.02 -0.03 l -0.03,0.01 c -0.29,0 -0.52,-0.24 -0.52,-0.53 0,-0.29 0.23,-0.53 0.52,-0.53 0.29,0 0.53,0.24 0.53,0.53 z"
           font-size-adjust="none"
           font-stretch="normal"
           font-style="normal"
           font-variant="normal"
           font-weight="normal"
           letter-spacing="normal"
           stroke-miterlimit="10.433"
           word-spacing="normal"
           style="font-style:normal;font-variant:normal;font-weight:normal;font-stretch:normal;letter-spacing:normal;word-spacing:normal;text-anchor:start;fill:#000000;fill-opacity:1;fill-rule:evenodd;stroke:none;stroke-width:3.85506892;stroke-linecap:butt;stroke-linejoin:miter;stroke-miterlimit:10.43299961;stroke-dasharray:none;stroke-dashoffset:0;stroke-opacity:1"
           id="path10073" /><path
           inkscape:connector-curvature="0"
           d="m 158.29092,707.95 0.05,0.05 0.05,0.05 0.05,0.05 0.05,0.05 0.04,0.05 0.04,0.04 0.05,0.04 0.04,0.05 0.04,0.04 0.04,0.04 0.04,0.03 0.03,0.04 0.04,0.04 0.04,0.03 0.07,0.07 0.06,0.06 0.07,0.06 0.07,0.06 0.06,0.06 0.13,0.11 0.07,0.05 0.06,0.06 c 0,0.01 0.62,0.54 0.98,0.9 0.95,0.92 1.17,1.4 1.17,1.44 0,0.1 -0.09,0.1 -0.11,0.1 -0.07,0 -0.1,-0.02 -0.15,-0.11 -0.3,-0.48 -0.51,-0.64 -0.75,-0.64 -0.24,0 -0.36,0.15 -0.51,0.32 -0.19,0.23 -0.36,0.43 -0.69,0.43 -0.75,0 -1.2,-0.93 -1.2,-1.14 0,-0.05 0.02,-0.11 0.12,-0.11 0.09,0 0.1,0.05 0.12,0.11 0.19,0.46 0.77,0.47 0.85,0.47 0.21,0 0.4,-0.07 0.63,-0.15 0.4,-0.15 0.51,-0.15 0.77,-0.15 -0.36,-0.43 -1.2,-1.14 -1.39,-1.3 l -0.89,-0.83 c -0.68,-0.67 -1.03,-1.24 -1.03,-1.31 0,-0.09 0.1,-0.09 0.12,-0.09 0.08,0 0.1,0.02 0.16,0.13 0.23,0.34 0.53,0.61 0.84,0.61 0.23,0 0.33,-0.09 0.58,-0.38 0.17,-0.21 0.35,-0.36 0.64,-0.36 0.99,0 1.57,1.26 1.57,1.53 0,0.04 -0.04,0.1 -0.12,0.1 -0.09,0 -0.11,-0.06 -0.14,-0.13 -0.23,-0.65 -0.87,-0.84 -1.2,-0.84 -0.2,0 -0.38,0.06 -0.59,0.13 -0.34,0.13 -0.49,0.17 -0.69,0.17 -0.03,0 -0.19,0 -0.28,-0.03 z"
           font-size-adjust="none"
           font-stretch="normal"
           font-style="normal"
           font-variant="normal"
           font-weight="normal"
           letter-spacing="normal"
           stroke-miterlimit="10.433"
           word-spacing="normal"
           style="font-style:normal;font-variant:normal;font-weight:normal;font-stretch:normal;letter-spacing:normal;word-spacing:normal;text-anchor:start;fill:#000000;fill-opacity:1;fill-rule:evenodd;stroke:none;stroke-width:3.85506892;stroke-linecap:butt;stroke-linejoin:miter;stroke-miterlimit:10.43299961;stroke-dasharray:none;stroke-dashoffset:0;stroke-opacity:1"
           id="path10075" /></g>      <circle
         inkscape:transform-center-y="2.9610036e-06"
         r="1.1858493"
         cy="74.140984"
         cx="48.663364"
         id="path8156-37"
         style="fill:#ffff00;fill-rule:evenodd;stroke:#d4aa00;stroke-width:0.26458338px;stroke-linecap:butt;stroke-linejoin:miter;stroke-opacity:1"
         transform="rotate(-2)"
         inkscape:export-xdpi="500"
         inkscape:export-ydpi="500" />
      <circle
         inkscape:transform-center-y="2.9610036e-06"
         r="1.1858493"
         cy="77.84613"
         cx="48.629509"
         id="path8156-8"
         style="fill:#ffff00;fill-rule:evenodd;stroke:#d4aa00;stroke-width:0.26458338px;stroke-linecap:butt;stroke-linejoin:miter;stroke-opacity:1"
         transform="rotate(-2)"
         inkscape:export-xdpi="500"
         inkscape:export-ydpi="500" />
      <circle
         r="1.0013045"
         cy="77.858383"
         cx="55.786682"
         id="path8156-2-6"
         style="fill:#55ddff;fill-rule:evenodd;stroke:#5555ff;stroke-width:0.26458341px;stroke-linecap:butt;stroke-linejoin:miter;stroke-opacity:1"
         transform="rotate(-2)"
         inkscape:export-xdpi="500"
         inkscape:export-ydpi="500" />
      <circle
         r="1.0013045"
         cy="82.121162"
         cx="55.786682"
         id="path8156-2-5"
         style="fill:#55ddff;fill-rule:evenodd;stroke:#5555ff;stroke-width:0.26458341px;stroke-linecap:butt;stroke-linejoin:miter;stroke-opacity:1"
         transform="rotate(-2)"
         inkscape:export-xdpi="500"
         inkscape:export-ydpi="500" />
      <g
         style="fill:#ffff00;stroke:#ffff00"
         transform="rotate(-2,336.33499,67.323841)"
         id="g9010"
         inkscape:export-xdpi="500"
         inkscape:export-ydpi="500">
        <path
           d="m 54.576945,64.924151 3.277763,1.205317 -3.277764,1.205316 c 0.52365,-0.711618 0.520633,-1.685235 1e-6,-2.410633 z"
           style="fill:#ffff00;fill-opacity:1;fill-rule:evenodd;stroke:#ffff00;stroke-width:0.1875;stroke-linejoin:round;stroke-opacity:1"
           id="path9008"
           inkscape:connector-curvature="0" />
      </g>
      <g
         style="fill:#ffff00;stroke:#ffff00"
         id="g9014"
         transform="rotate(-2,58.550685,72.172581)"
         inkscape:export-xdpi="500"
         inkscape:export-ydpi="500">
        <path
           d="m 54.576945,64.924151 3.277763,1.205317 -3.277764,1.205316 c 0.52365,-0.711618 0.520633,-1.685235 1e-6,-2.410633 z"
           style="fill:#ffff00;fill-opacity:1;fill-rule:evenodd;stroke:#ffff00;stroke-width:0.1875;stroke-linejoin:round;stroke-opacity:1"
           id="path9012"
           inkscape:connector-curvature="0" />
      </g>
      <g
         style="fill:#3771c8;stroke:#3771c8"
         id="g9018"
         transform="rotate(-2,459.35929,65.17644)"
         inkscape:export-xdpi="500"
         inkscape:export-ydpi="500">
        <path
           d="m 54.576945,64.924151 3.277763,1.205317 -3.277764,1.205316 c 0.52365,-0.711618 0.520633,-1.685235 1e-6,-2.410633 z"
           style="fill:#ffff00;fill-opacity:1;fill-rule:evenodd;stroke:#ffff00;stroke-width:0.1875;stroke-linejoin:round;stroke-opacity:1"
           id="path9016"
           inkscape:connector-curvature="0" />
      </g>
    </g>
  </g>
</svg>
