<?xml version="1.0" encoding="UTF-8" standalone="no"?><svg xmlns="http://www.w3.org/2000/svg" xmlns:xlink="http://www.w3.org/1999/xlink" contentScriptType="application/ecmascript" contentStyleType="text/css" height="526px" preserveAspectRatio="none" style="width:746px;height:526px;" version="1.1" viewBox="0 0 746 526" width="746px" zoomAndPan="magnify"><defs/><g><!--cluster common--><polygon fill="#FFFFFF" points="14,16,87,16,94,38.2969,359,38.2969,359,514,14,514,14,16" style="stroke: #000000; stroke-width: 1.5;"/><line style="stroke: #000000; stroke-width: 1.5;" x1="14" x2="94" y1="38.2969" y2="38.2969"/><text fill="#000000" font-family="sans-serif" font-size="14" font-weight="bold" lengthAdjust="spacingAndGlyphs" textLength="67" x="18" y="30.9951">common</text><!--cluster std--><polygon fill="#FFFFFF" points="367,276,398,276,405,298.2969,724,298.2969,724,359,367,359,367,276" style="stroke: #000000; stroke-width: 1.5;"/><line style="stroke: #000000; stroke-width: 1.5;" x1="367" x2="405" y1="298.2969" y2="298.2969"/><text fill="#000000" font-family="sans-serif" font-size="14" font-weight="bold" lengthAdjust="spacingAndGlyphs" textLength="25" x="371" y="290.9951">std</text><!--class common::BinaryBuffer--><rect fill="#FEFECE" height="124.8281" id="common::BinaryBuffer" style="stroke: #A80036; stroke-width: 1.5;" width="174" x="177" y="381"/><ellipse cx="192" cy="397" fill="#ADD1B2" rx="11" ry="11" style="stroke: #A80036; stroke-width: 1.0;"/><path d="M195.3438,402.4219 Q194.4844,402.8906 193.7656,403.0625 Q193.0625,403.2344 192.2656,403.2344 Q189.7031,403.2344 188.2969,401.4531 Q186.9063,399.6563 186.9063,396.4688 Q186.9063,393.3125 188.3125,391.5 Q189.7188,389.6875 192.2656,389.6875 Q193.0625,389.6875 193.7656,389.875 Q194.4844,390.0469 195.3438,390.5156 L195.3438,393.1719 Q194.2188,392.2344 193.5625,392 Q192.9063,391.75 192.2656,391.75 Q190.8125,391.75 190.0781,392.8906 Q189.3438,394.0156 189.3438,396.4688 Q189.3438,398.9219 190.0781,400.0625 Q190.8125,401.1875 192.2656,401.1875 Q192.9219,401.1875 193.5625,400.9531 Q194.2188,400.7031 195.3438,399.7656 L195.3438,402.4219 Z "/><text fill="#000000" font-family="sans-serif" font-size="12" lengthAdjust="spacingAndGlyphs" textLength="75" x="206" y="401.1543">BinaryBuffer</text><rect fill="#FFFFFF" height="15.9688" style="stroke: #000000; stroke-width: 1.0; stroke-dasharray: 2.0,2.0;" width="65" x="289" y="378"/><text fill="#000000" font-family="sans-serif" font-size="12" font-style="italic" lengthAdjust="spacingAndGlyphs" textLength="63" x="290" y="390.1387">BufferPool</text><line style="stroke: #A80036; stroke-width: 1.5;" x1="178" x2="350" y1="413" y2="413"/><line style="stroke: #A80036; stroke-width: 1.5;" x1="178" x2="350" y1="421" y2="421"/><ellipse cx="188" cy="432.9023" fill="#84BE84" rx="3" ry="3" style="stroke: #038048; stroke-width: 1.0;"/><text fill="#000000" font-family="sans-serif" font-size="11" lengthAdjust="spacingAndGlyphs" textLength="42" x="197" y="435.2104">resize()</text><ellipse cx="188" cy="445.707" fill="#84BE84" rx="3" ry="3" style="stroke: #038048; stroke-width: 1.0;"/><text fill="#000000" font-family="sans-serif" font-size="11" lengthAdjust="spacingAndGlyphs" textLength="52" x="197" y="448.0151">reserve()</text><ellipse cx="188" cy="458.5117" fill="#84BE84" rx="3" ry="3" style="stroke: #038048; stroke-width: 1.0;"/><text fill="#000000" font-family="sans-serif" font-size="11" lengthAdjust="spacingAndGlyphs" textLength="36" x="197" y="460.8198">clear()</text><ellipse cx="188" cy="471.3164" fill="#84BE84" rx="3" ry="3" style="stroke: #038048; stroke-width: 1.0;"/><text fill="#000000" font-family="sans-serif" font-size="11" lengthAdjust="spacingAndGlyphs" textLength="33" x="197" y="473.6245">data()</text><ellipse cx="188" cy="484.1211" fill="#84BE84" rx="3" ry="3" style="stroke: #038048; stroke-width: 1.0;"/><text fill="#000000" font-family="sans-serif" font-size="11" lengthAdjust="spacingAndGlyphs" textLength="53" x="197" y="486.4292">isEmpty()</text><ellipse cx="188" cy="496.9258" fill="#84BE84" rx="3" ry="3" style="stroke: #038048; stroke-width: 1.0;"/><text fill="#000000" font-family="sans-serif" font-size="11" lengthAdjust="spacingAndGlyphs" textLength="82" x="197" y="499.2339">allocatedSize()</text><!--class common::BinaryPayload--><rect fill="#FEFECE" height="73.6094" id="common::BinaryPayload" style="stroke: #A80036; stroke-width: 1.5;" width="119" x="22.5" y="406.5"/><ellipse cx="37.5" cy="422.5" fill="#ADD1B2" rx="11" ry="11" style="stroke: #A80036; stroke-width: 1.0;"/><path d="M40.8438,427.9219 Q39.9844,428.3906 39.2656,428.5625 Q38.5625,428.7344 37.7656,428.7344 Q35.2031,428.7344 33.7969,426.9531 Q32.4063,425.1563 32.4063,421.9688 Q32.4063,418.8125 33.8125,417 Q35.2188,415.1875 37.7656,415.1875 Q38.5625,415.1875 39.2656,415.375 Q39.9844,415.5469 40.8438,416.0156 L40.8438,418.6719 Q39.7188,417.7344 39.0625,417.5 Q38.4063,417.25 37.7656,417.25 Q36.3125,417.25 35.5781,418.3906 Q34.8438,419.5156 34.8438,421.9688 Q34.8438,424.4219 35.5781,425.5625 Q36.3125,426.6875 37.7656,426.6875 Q38.4219,426.6875 39.0625,426.4531 Q39.7188,426.2031 40.8438,425.2656 L40.8438,427.9219 Z "/><text fill="#000000" font-family="sans-serif" font-size="12" lengthAdjust="spacingAndGlyphs" textLength="87" x="51.5" y="426.6543">BinaryPayload</text><line style="stroke: #A80036; stroke-width: 1.5;" x1="23.5" x2="140.5" y1="438.5" y2="438.5"/><line style="stroke: #A80036; stroke-width: 1.5;" x1="23.5" x2="140.5" y1="446.5" y2="446.5"/><ellipse cx="33.5" cy="458.4023" fill="#84BE84" rx="3" ry="3" style="stroke: #038048; stroke-width: 1.0;"/><text fill="#000000" font-family="sans-serif" font-size="11" lengthAdjust="spacingAndGlyphs" textLength="42" x="42.5" y="460.7104">buffer()</text><ellipse cx="33.5" cy="471.207" fill="#84BE84" rx="3" ry="3" style="stroke: #038048; stroke-width: 1.0;"/><text fill="#000000" font-family="sans-serif" font-size="11" lengthAdjust="spacingAndGlyphs" textLength="67" x="42.5" y="473.5151">mimeType()</text><!--class common::Request--><rect fill="#33CC33" height="73.6094" id="common::Request" style="stroke: #A80036; stroke-width: 1.5;" width="84" x="40" y="43"/><rect fill="#33CC33" height="32" style="stroke: #A80036; stroke-width: 1.5;" width="84" x="40" y="43"/><ellipse cx="55" cy="59" fill="#ADD1B2" rx="11" ry="11" style="stroke: #A80036; stroke-width: 1.0;"/><path d="M58.3438,64.4219 Q57.4844,64.8906 56.7656,65.0625 Q56.0625,65.2344 55.2656,65.2344 Q52.7031,65.2344 51.2969,63.4531 Q49.9063,61.6563 49.9063,58.4688 Q49.9063,55.3125 51.3125,53.5 Q52.7188,51.6875 55.2656,51.6875 Q56.0625,51.6875 56.7656,51.875 Q57.4844,52.0469 58.3438,52.5156 L58.3438,55.1719 Q57.2188,54.2344 56.5625,54 Q55.9063,53.75 55.2656,53.75 Q53.8125,53.75 53.0781,54.8906 Q52.3438,56.0156 52.3438,58.4688 Q52.3438,60.9219 53.0781,62.0625 Q53.8125,63.1875 55.2656,63.1875 Q55.9219,63.1875 56.5625,62.9531 Q57.2188,62.7031 58.3438,61.7656 L58.3438,64.4219 Z "/><text fill="#000000" font-family="sans-serif" font-size="12" lengthAdjust="spacingAndGlyphs" textLength="52" x="69" y="63.1543">Request</text><line style="stroke: #A80036; stroke-width: 1.5;" x1="41" x2="123" y1="75" y2="75"/><line style="stroke: #A80036; stroke-width: 1.5;" x1="41" x2="123" y1="83" y2="83"/><ellipse cx="51" cy="94.9023" fill="#84BE84" rx="3" ry="3" style="stroke: #038048; stroke-width: 1.0;"/><text fill="#000000" font-family="sans-serif" font-size="11" lengthAdjust="spacingAndGlyphs" textLength="42" x="60" y="97.2104">target()</text><ellipse cx="51" cy="107.707" fill="#84BE84" rx="3" ry="3" style="stroke: #038048; stroke-width: 1.0;"/><text fill="#000000" font-family="sans-serif" font-size="11" lengthAdjust="spacingAndGlyphs" textLength="52" x="60" y="110.0151">payload()</text><!--class common::ResponsePromise--><rect fill="#FF6600" height="73.6094" id="common::ResponsePromise" style="stroke: #A80036; stroke-width: 1.5;" width="144" x="204" y="147"/><rect fill="#FF6600" height="32" style="stroke: #A80036; stroke-width: 1.5;" width="144" x="204" y="147"/><ellipse cx="219" cy="163" fill="#ADD1B2" rx="11" ry="11" style="stroke: #A80036; stroke-width: 1.0;"/><path d="M222.3438,168.4219 Q221.4844,168.8906 220.7656,169.0625 Q220.0625,169.2344 219.2656,169.2344 Q216.7031,169.2344 215.2969,167.4531 Q213.9063,165.6563 213.9063,162.4688 Q213.9063,159.3125 215.3125,157.5 Q216.7188,155.6875 219.2656,155.6875 Q220.0625,155.6875 220.7656,155.875 Q221.4844,156.0469 222.3438,156.5156 L222.3438,159.1719 Q221.2188,158.2344 220.5625,158 Q219.9063,157.75 219.2656,157.75 Q217.8125,157.75 217.0781,158.8906 Q216.3438,160.0156 216.3438,162.4688 Q216.3438,164.9219 217.0781,166.0625 Q217.8125,167.1875 219.2656,167.1875 Q219.9219,167.1875 220.5625,166.9531 Q221.2188,166.7031 222.3438,165.7656 L222.3438,168.4219 Z "/><text fill="#000000" font-family="sans-serif" font-size="12" lengthAdjust="spacingAndGlyphs" textLength="112" x="233" y="167.1543">ResponsePromise</text><line style="stroke: #A80036; stroke-width: 1.5;" x1="205" x2="347" y1="179" y2="179"/><line style="stroke: #A80036; stroke-width: 1.5;" x1="205" x2="347" y1="187" y2="187"/><ellipse cx="215" cy="198.9023" fill="#84BE84" rx="3" ry="3" style="stroke: #038048; stroke-width: 1.0;"/><text fill="#000000" font-family="sans-serif" font-size="11" lengthAdjust="spacingAndGlyphs" textLength="91" x="224" y="201.2104">setCancel(what)</text><ellipse cx="215" cy="211.707" fill="#84BE84" rx="3" ry="3" style="stroke: #038048; stroke-width: 1.0;"/><text fill="#000000" font-family="sans-serif" font-size="11" lengthAdjust="spacingAndGlyphs" textLength="104" x="224" y="214.0151">setReady(payload)</text><!--class common::ResponseFuture--><rect fill="#00CCFF" height="73.6094" id="common::ResponseFuture" style="stroke: #A80036; stroke-width: 1.5;" width="135" x="208.5" y="43"/><rect fill="#00CCFF" height="32" style="stroke: #A80036; stroke-width: 1.5;" width="135" x="208.5" y="43"/><ellipse cx="223.5" cy="59" fill="#ADD1B2" rx="11" ry="11" style="stroke: #A80036; stroke-width: 1.0;"/><path d="M226.8438,64.4219 Q225.9844,64.8906 225.2656,65.0625 Q224.5625,65.2344 223.7656,65.2344 Q221.2031,65.2344 219.7969,63.4531 Q218.4063,61.6563 218.4063,58.4688 Q218.4063,55.3125 219.8125,53.5 Q221.2188,51.6875 223.7656,51.6875 Q224.5625,51.6875 225.2656,51.875 Q225.9844,52.0469 226.8438,52.5156 L226.8438,55.1719 Q225.7188,54.2344 225.0625,54 Q224.4063,53.75 223.7656,53.75 Q222.3125,53.75 221.5781,54.8906 Q220.8438,56.0156 220.8438,58.4688 Q220.8438,60.9219 221.5781,62.0625 Q222.3125,63.1875 223.7656,63.1875 Q224.4219,63.1875 225.0625,62.9531 Q225.7188,62.7031 226.8438,61.7656 L226.8438,64.4219 Z "/><text fill="#000000" font-family="sans-serif" font-size="12" lengthAdjust="spacingAndGlyphs" textLength="103" x="237.5" y="63.1543">ResponseFuture</text><line style="stroke: #A80036; stroke-width: 1.5;" x1="209.5" x2="342.5" y1="75" y2="75"/><line style="stroke: #A80036; stroke-width: 1.5;" x1="209.5" x2="342.5" y1="83" y2="83"/><ellipse cx="219.5" cy="94.9023" fill="#84BE84" rx="3" ry="3" style="stroke: #038048; stroke-width: 1.0;"/><text fill="#000000" font-family="sans-serif" font-size="11" lengthAdjust="spacingAndGlyphs" textLength="45" x="228.5" y="97.2104">isValid()</text><ellipse cx="219.5" cy="107.707" fill="#84BE84" rx="3" ry="3" style="stroke: #038048; stroke-width: 1.0;"/><text fill="#000000" font-family="sans-serif" font-size="11" lengthAdjust="spacingAndGlyphs" textLength="93" x="228.5" y="110.0151">waitForPayload()</text><!--class std::promise--><rect fill="#FEFECE" height="48" id="std::promise" style="stroke: #A80036; stroke-width: 1.5;" width="174" x="375" y="303"/><ellipse cx="390" cy="319" fill="#ADD1B2" rx="11" ry="11" style="stroke: #A80036; stroke-width: 1.0;"/><path d="M393.3438,324.4219 Q392.4844,324.8906 391.7656,325.0625 Q391.0625,325.2344 390.2656,325.2344 Q387.7031,325.2344 386.2969,323.4531 Q384.9063,321.6563 384.9063,318.4688 Q384.9063,315.3125 386.3125,313.5 Q387.7188,311.6875 390.2656,311.6875 Q391.0625,311.6875 391.7656,311.875 Q392.4844,312.0469 393.3438,312.5156 L393.3438,315.1719 Q392.2188,314.2344 391.5625,314 Q390.9063,313.75 390.2656,313.75 Q388.8125,313.75 388.0781,314.8906 Q387.3438,316.0156 387.3438,318.4688 Q387.3438,320.9219 388.0781,322.0625 Q388.8125,323.1875 390.2656,323.1875 Q390.9219,323.1875 391.5625,322.9531 Q392.2188,322.7031 393.3438,321.7656 L393.3438,324.4219 Z "/><text fill="#000000" font-family="sans-serif" font-size="12" lengthAdjust="spacingAndGlyphs" textLength="50" x="404" y="323.1543">promise</text><rect fill="#FFFFFF" height="15.9688" style="stroke: #000000; stroke-width: 1.0; stroke-dasharray: 2.0,2.0;" width="90" x="462" y="300"/><text fill="#000000" font-family="sans-serif" font-size="12" font-style="italic" lengthAdjust="spacingAndGlyphs" textLength="88" x="463" y="312.1387">BinaryPayload</text><line style="stroke: #A80036; stroke-width: 1.5;" x1="376" x2="548" y1="335" y2="335"/><line style="stroke: #A80036; stroke-width: 1.5;" x1="376" x2="548" y1="343" y2="343"/><!--class std::future--><rect fill="#FEFECE" height="48" id="std::future" style="stroke: #A80036; stroke-width: 1.5;" width="162" x="554" y="303"/><ellipse cx="569" cy="319" fill="#ADD1B2" rx="11" ry="11" style="stroke: #A80036; stroke-width: 1.0;"/><path d="M572.3438,324.4219 Q571.4844,324.8906 570.7656,325.0625 Q570.0625,325.2344 569.2656,325.2344 Q566.7031,325.2344 565.2969,323.4531 Q563.9063,321.6563 563.9063,318.4688 Q563.9063,315.3125 565.3125,313.5 Q566.7188,311.6875 569.2656,311.6875 Q570.0625,311.6875 570.7656,311.875 Q571.4844,312.0469 572.3438,312.5156 L572.3438,315.1719 Q571.2188,314.2344 570.5625,314 Q569.9063,313.75 569.2656,313.75 Q567.8125,313.75 567.0781,314.8906 Q566.3438,316.0156 566.3438,318.4688 Q566.3438,320.9219 567.0781,322.0625 Q567.8125,323.1875 569.2656,323.1875 Q569.9219,323.1875 570.5625,322.9531 Q571.2188,322.7031 572.3438,321.7656 L572.3438,324.4219 Z "/><text fill="#000000" font-family="sans-serif" font-size="12" lengthAdjust="spacingAndGlyphs" textLength="38" x="583" y="323.1543">future</text><rect fill="#FFFFFF" height="15.9688" style="stroke: #000000; stroke-width: 1.0; stroke-dasharray: 2.0,2.0;" width="90" x="629" y="300"/><text fill="#000000" font-family="sans-serif" font-size="12" font-style="italic" lengthAdjust="spacingAndGlyphs" textLength="88" x="630" y="312.1387">BinaryPayload</text><line style="stroke: #A80036; stroke-width: 1.5;" x1="555" x2="715" y1="335" y2="335"/><line style="stroke: #A80036; stroke-width: 1.5;" x1="555" x2="715" y1="343" y2="343"/><!--link common::ResponsePromise to std::promise--><path d="M334.9049,229.2871 C366.7033,253.7343 404.6742,282.9269 430.7826,302.9995 " fill="none" id="common::ResponsePromise-std::promise" style="stroke: #A80036; stroke-width: 1.0;"/><polygon fill="#A80036" points="324.3838,221.1983,326.7025,228.0265,333.8972,228.5124,331.5785,221.6842,324.3838,221.1983" style="stroke: #A80036; stroke-width: 1.0;"/><text fill="#000000" font-family="sans-serif" font-size="13" lengthAdjust="spacingAndGlyphs" textLength="8" x="323.7349" y="240.7117">1</text><!--link common::ResponseFuture to std::future--><path d="M340.997,124.7194 C417.0221,177.0263 540.0882,261.6985 599.9963,302.9167 " fill="none" id="common::ResponseFuture-std::future" style="stroke: #A80036; stroke-width: 1.0;"/><polygon fill="#A80036" points="330.1346,117.2458,332.8103,123.9421,340.0207,124.0477,337.3449,117.3514,330.1346,117.2458" style="stroke: #A80036; stroke-width: 1.0;"/><text fill="#000000" font-family="sans-serif" font-size="13" lengthAdjust="spacingAndGlyphs" textLength="8" x="330.4381" y="136.7671">1</text><!--link common::ResponseFuture to common::ResponsePromise--><path d="M276,117.2526 C276,125.0191 276,133.2639 276,141.2122 " fill="none" id="common::ResponseFuture-common::ResponsePromise" style="stroke: #A80036; stroke-width: 1.0; stroke-dasharray: 7.0,7.0;"/><polygon fill="#A80036" points="276,146.6579,280,137.6579,276,141.6579,272,137.6579,276,146.6579" style="stroke: #A80036; stroke-width: 1.0;"/><text fill="#000000" font-family="sans-serif" font-size="13" lengthAdjust="spacingAndGlyphs" textLength="30" x="245" y="127.8751">uses</text><!--link common::ResponseFuture to common::BinaryPayload--><path d="M215.3011,117.3148 C204.4681,126.0283 194.0785,136.0152 186,147 C127.8451,226.0769 100.0614,340.4778 88.6854,401.4755 " fill="none" id="common::ResponseFuture-common::BinaryPayload" style="stroke: #A80036; stroke-width: 1.0; stroke-dasharray: 7.0,7.0;"/><polygon fill="#A80036" points="87.7646,406.4913,93.324,398.3615,88.6675,401.5735,85.4555,396.9169,87.7646,406.4913" style="stroke: #A80036; stroke-width: 1.0;"/><text fill="#000000" font-family="sans-serif" font-size="13" lengthAdjust="spacingAndGlyphs" textLength="30" x="132" y="264.0669">uses</text><!--link common::ResponsePromise to common::BinaryPayload--><path d="M258.4395,221.2273 C240.1119,258.1278 209.1725,315.3084 174,359 C161.5693,374.4415 146.2866,389.6288 131.7732,402.7749 " fill="none" id="common::ResponsePromise-common::BinaryPayload" style="stroke: #A80036; stroke-width: 1.0; stroke-dasharray: 7.0,7.0;"/><polygon fill="#A80036" points="127.7031,406.4272,137.0731,403.3936,131.4245,403.0879,131.7303,397.4393,127.7031,406.4272" style="stroke: #A80036; stroke-width: 1.0;"/><text fill="#000000" font-family="sans-serif" font-size="13" lengthAdjust="spacingAndGlyphs" textLength="30" x="243" y="264.0669">uses</text><!--link common::Request to common::BinaryPayload--><path d="M82,130.2454 C82,204.2152 82,340.7306 82,406.3599 " fill="none" id="common::Request-common::BinaryPayload" style="stroke: #A80036; stroke-width: 1.0;"/><polygon fill="#A80036" points="82,117.1926,78,123.1926,82,129.1926,86,123.1926,82,117.1926" style="stroke: #A80036; stroke-width: 1.0;"/><text fill="#000000" font-family="sans-serif" font-size="13" lengthAdjust="spacingAndGlyphs" textLength="8" x="73.3375" y="136.7051">1</text><!--link common::BinaryPayload to common::BinaryBuffer--><path d="M154.7947,443.5 C162.0592,443.5 169.3236,443.5 176.588,443.5 " fill="none" id="common::BinaryPayload-common::BinaryBuffer" style="stroke: #A80036; stroke-width: 1.0;"/><polygon fill="#A80036" points="141.7188,443.5,147.7188,447.5,153.7188,443.5,147.7188,439.5,141.7188,443.5" style="stroke: #A80036; stroke-width: 1.0;"/><text fill="#000000" font-family="sans-serif" font-size="13" lengthAdjust="spacingAndGlyphs" textLength="8" x="149.4845" y="439.6847">1</text><!--
@startuml
set namespaceSeparator ::
skinparam shadowing false

namespace common {
    class BinaryBuffer<BufferPool> {
        + resize()
        + reserve()
        + clear()
        + data()
        + isEmpty()
        + allocatedSize()
    }
    class BinaryPayload {
        + buffer()
        + mimeType()
    }

    class Request #33cc33 {
        + target()
        + payload()
    }
    class ResponsePromise #ff6600 {
        + setCancel(what)
        + setReady(payload)
    }
    class ResponseFuture #00ccff {
        + isValid()
        + waitForPayload()
    }
}

namespace std {
    class promise<BinaryPayload>
    class future<BinaryPayload>
}

common::ResponsePromise "1" *- - std::promise
common::ResponseFuture "1" *- - std::future
common::ResponseFuture .right.> common::ResponsePromise : uses

common::ResponseFuture .down.> common::BinaryPayload : uses
common::ResponsePromise .right.> common::BinaryPayload : uses


common::Request "1" *- -  common::BinaryPayload
common::BinaryPayload "1" *-right- common::BinaryBuffer
@enduml

PlantUML version 1.2018.09(Fri Jul 27 18:58:18 CEST 2018)
(GPL source distribution)
Java Runtime: OpenJDK Runtime Environment
JVM: OpenJDK 64-Bit Server VM
Java Version: 11.0.1+13-Ubuntu-3ubuntu3.18.10.1
Operating System: Linux
OS Version: 4.18.0-12-generic
Default Encoding: UTF-8
Language: en
Country: US
--></g></svg>