<?xml version="1.0" encoding="UTF-8" standalone="no"?><svg xmlns="http://www.w3.org/2000/svg" xmlns:xlink="http://www.w3.org/1999/xlink" contentScriptType="application/ecmascript" contentStyleType="text/css" height="1949px" preserveAspectRatio="none" style="width:982px;height:1949px;" version="1.1" viewBox="0 0 982 1949" width="982px" zoomAndPan="magnify"><defs/><g><!--cluster executionGraph--><polygon fill="#FFFFFF" points="14,16,132,16,139,40.3679,811,40.3679,811,1937,14,1937,14,16" style="stroke: #000000; stroke-width: 1.5;"/><line style="stroke: #000000; stroke-width: 1.5;" x1="14" x2="139" y1="40.3679" y2="40.3679"/><text fill="#000000" font-family="Fira Code" font-size="14" font-weight="bold" lengthAdjust="spacingAndGlyphs" textLength="112" x="18" y="31.8599">executionGraph</text><!--cluster executionGraph::userData--><polygon fill="#FFFFFF" points="22,281,92,281,99,305.3679,671,305.3679,671,918,22,918,22,281" style="stroke: #000000; stroke-width: 1.5;"/><line style="stroke: #000000; stroke-width: 1.5;" x1="22" x2="99" y1="305.3679" y2="305.3679"/><text fill="#000000" font-family="Fira Code" font-size="14" font-weight="bold" lengthAdjust="spacingAndGlyphs" textLength="64" x="26" y="296.8599">userData</text><!--class executionGraph::LogicNode--><rect fill="#FEFECE" height="188.9459" id="executionGraph::LogicNode" style="stroke: #008000; stroke-width: 3.0;" width="173" x="629.5" y="1309"/><ellipse cx="680.25" cy="1329.7441" fill="#ADD1B2" rx="11" ry="11" style="stroke: #008000; stroke-width: 1.0;"/><path d="M683.2188,1335.3847 Q682.6406,1335.6816 682,1335.8222 Q681.3594,1335.9785 680.6563,1335.9785 Q678.1563,1335.9785 676.8281,1334.3379 Q675.5156,1332.6816 675.5156,1329.5566 Q675.5156,1326.4316 676.8281,1324.7754 Q678.1563,1323.1191 680.6563,1323.1191 Q681.3594,1323.1191 682,1323.2754 Q682.6563,1323.4316 683.2188,1323.7285 L683.2188,1326.4472 Q682.5938,1325.8691 682,1325.6035 Q681.4063,1325.3222 680.7813,1325.3222 Q679.4375,1325.3222 678.75,1326.4004 Q678.0625,1327.4629 678.0625,1329.5566 Q678.0625,1331.6504 678.75,1332.7285 Q679.4375,1333.791 680.7813,1333.791 Q681.4063,1333.791 682,1333.5254 Q682.5938,1333.2441 683.2188,1332.666 L683.2188,1335.3847 Z "/><text fill="#000000" font-family="Fira Code" font-size="12" font-style="italic" lengthAdjust="spacingAndGlyphs" textLength="42" x="711.25" y="1325.8801">«Node»</text><text fill="#000000" font-family="Fira Code" font-size="12" lengthAdjust="spacingAndGlyphs" textLength="63" x="700.75" y="1341.6242">LogicNode</text><line style="stroke: #008000; stroke-width: 1.5;" x1="630.5" x2="801.5" y1="1350.4882" y2="1350.4882"/><ellipse cx="640.5" cy="1363.2043" fill="#84BE84" rx="3" ry="3" style="stroke: #038048; stroke-width: 1.0;"/><text fill="#000000" font-family="Fira Code" font-size="11" lengthAdjust="spacingAndGlyphs" textLength="28" x="649.5" y="1365.3784">id()</text><line style="stroke: #008000; stroke-width: 1.0;" x1="630.5" x2="801.5" y1="1372.9204" y2="1372.9204"/><ellipse cx="640.5" cy="1385.6365" fill="#84BE84" rx="3" ry="3" style="stroke: #038048; stroke-width: 1.0;"/><text fill="#000000" font-family="Fira Code" font-size="11" lengthAdjust="spacingAndGlyphs" textLength="126" x="649.5" y="1387.8106">virtual init() = 0</text><ellipse cx="640.5" cy="1400.0687" fill="#84BE84" rx="3" ry="3" style="stroke: #038048; stroke-width: 1.0;"/><text fill="#000000" font-family="Fira Code" font-size="11" lengthAdjust="spacingAndGlyphs" textLength="133" x="649.5" y="1402.2428">virtual reset() = 0</text><ellipse cx="640.5" cy="1414.5009" fill="#84BE84" rx="3" ry="3" style="stroke: #038048; stroke-width: 1.0;"/><text fill="#000000" font-family="Fira Code" font-size="11" lengthAdjust="spacingAndGlyphs" textLength="147" x="649.5" y="1416.675">virtual compute() = 0</text><line style="stroke: #008000; stroke-width: 1.0;" x1="630.5" x2="801.5" y1="1424.217" y2="1424.217"/><ellipse cx="640.5" cy="1436.9331" fill="#84BE84" rx="3" ry="3" style="stroke: #038048; stroke-width: 1.0;"/><text fill="#000000" font-family="Fira Code" font-size="11" lengthAdjust="spacingAndGlyphs" textLength="133" x="649.5" y="1439.1072">registerInputs(...)</text><ellipse cx="640.5" cy="1451.3653" fill="#84BE84" rx="3" ry="3" style="stroke: #038048; stroke-width: 1.0;"/><text fill="#000000" font-family="Fira Code" font-size="11" lengthAdjust="spacingAndGlyphs" textLength="140" x="649.5" y="1453.5394">registerOutputs(...)</text><line style="stroke: #008000; stroke-width: 1.0;" x1="630.5" x2="801.5" y1="1461.0815" y2="1461.0815"/><rect fill="none" height="6" style="stroke: #C82930; stroke-width: 1.0;" width="6" x="637.5" y="1470.7976"/><text fill="#000000" font-family="Fira Code" font-size="11" lengthAdjust="spacingAndGlyphs" textLength="56" x="649.5" y="1475.9716">m_inputs</text><rect fill="none" height="6" style="stroke: #C82930; stroke-width: 1.0;" width="6" x="637.5" y="1485.2298"/><text fill="#000000" font-family="Fira Code" font-size="11" lengthAdjust="spacingAndGlyphs" textLength="63" x="649.5" y="1490.4038">m_outputs</text><!--class executionGraph::LogicSocketInput--><rect fill="#FEFECE" height="128.161" id="executionGraph::LogicSocketInput" style="stroke: #A80036; stroke-width: 1.5;" width="250" x="344" y="1339.5"/><ellipse cx="392.75" cy="1355.5" fill="#ADD1B2" rx="11" ry="11" style="stroke: #A80036; stroke-width: 1.0;"/><path d="M395.7188,1361.1406 Q395.1406,1361.4375 394.5,1361.5781 Q393.8594,1361.7344 393.1563,1361.7344 Q390.6563,1361.7344 389.3281,1360.0938 Q388.0156,1358.4375 388.0156,1355.3125 Q388.0156,1352.1875 389.3281,1350.5313 Q390.6563,1348.875 393.1563,1348.875 Q393.8594,1348.875 394.5,1349.0313 Q395.1563,1349.1875 395.7188,1349.4844 L395.7188,1352.2031 Q395.0938,1351.625 394.5,1351.3594 Q393.9063,1351.0781 393.2813,1351.0781 Q391.9375,1351.0781 391.25,1352.1563 Q390.5625,1353.2188 390.5625,1355.3125 Q390.5625,1357.4063 391.25,1358.4844 Q391.9375,1359.5469 393.2813,1359.5469 Q393.9063,1359.5469 394.5,1359.2813 Q395.0938,1359 395.7188,1358.4219 L395.7188,1361.1406 Z "/><text fill="#000000" font-family="Fira Code" font-size="12" lengthAdjust="spacingAndGlyphs" textLength="112" x="413.25" y="1359.508">LogicSocketInput</text><rect fill="#FFFFFF" height="17.7441" style="stroke: #000000; stroke-width: 1.0; stroke-dasharray: 2.0,2.0;" width="30" x="567" y="1336.5"/><text fill="#000000" font-family="Fira Code" font-size="12" font-style="italic" lengthAdjust="spacingAndGlyphs" textLength="28" x="568" y="1349.3801">Data</text><line style="stroke: #A80036; stroke-width: 1.5;" x1="345" x2="593" y1="1371.5" y2="1371.5"/><ellipse cx="355" cy="1384.2161" fill="#84BE84" rx="3" ry="3" style="stroke: #038048; stroke-width: 1.0;"/><text fill="#000000" font-family="Fira Code" font-size="11" lengthAdjust="spacingAndGlyphs" textLength="140" x="364" y="1386.3902">dataHandle() [const]</text><line style="stroke: #A80036; stroke-width: 1.0;" x1="345" x2="593" y1="1393.9322" y2="1393.9322"/><ellipse cx="355" cy="1406.6483" fill="#84BE84" rx="3" ry="3" style="stroke: #038048; stroke-width: 1.0;"/><text fill="#000000" font-family="Fira Code" font-size="11" lengthAdjust="spacingAndGlyphs" textLength="224" x="364" y="1408.8224">connect&lt;SocketData&gt;(SocketData&amp;)</text><ellipse cx="355" cy="1421.0805" fill="#84BE84" rx="3" ry="3" style="stroke: #038048; stroke-width: 1.0;"/><text fill="#000000" font-family="Fira Code" font-size="11" lengthAdjust="spacingAndGlyphs" textLength="147" x="364" y="1423.2546">disconnect() override</text><ellipse cx="355" cy="1435.5127" fill="#84BE84" rx="3" ry="3" style="stroke: #038048; stroke-width: 1.0;"/><text fill="#000000" font-family="Fira Code" font-size="11" lengthAdjust="spacingAndGlyphs" textLength="147" x="364" y="1437.6868">connections() [const]</text><line style="stroke: #A80036; stroke-width: 1.0;" x1="345" x2="593" y1="1445.2288" y2="1445.2288"/><rect fill="none" height="6" style="stroke: #C82930; stroke-width: 1.0;" width="6" x="352" y="1454.9449"/><text fill="#000000" font-family="Fira Code" font-size="11" lengthAdjust="spacingAndGlyphs" textLength="175" x="364" y="1460.119">Connections m_connections</text><!--class executionGraph::LogicSocketOutput--><rect fill="#FEFECE" height="128.161" id="executionGraph::LogicSocketOutput" style="stroke: #A80036; stroke-width: 1.5;" width="250" x="59" y="1339.5"/><ellipse cx="104.25" cy="1355.5" fill="#ADD1B2" rx="11" ry="11" style="stroke: #A80036; stroke-width: 1.0;"/><path d="M107.2188,1361.1406 Q106.6406,1361.4375 106,1361.5781 Q105.3594,1361.7344 104.6563,1361.7344 Q102.1563,1361.7344 100.8281,1360.0938 Q99.5156,1358.4375 99.5156,1355.3125 Q99.5156,1352.1875 100.8281,1350.5313 Q102.1563,1348.875 104.6563,1348.875 Q105.3594,1348.875 106,1349.0313 Q106.6563,1349.1875 107.2188,1349.4844 L107.2188,1352.2031 Q106.5938,1351.625 106,1351.3594 Q105.4063,1351.0781 104.7813,1351.0781 Q103.4375,1351.0781 102.75,1352.1563 Q102.0625,1353.2188 102.0625,1355.3125 Q102.0625,1357.4063 102.75,1358.4844 Q103.4375,1359.5469 104.7813,1359.5469 Q105.4063,1359.5469 106,1359.2813 Q106.5938,1359 107.2188,1358.4219 L107.2188,1361.1406 Z "/><text fill="#000000" font-family="Fira Code" font-size="12" lengthAdjust="spacingAndGlyphs" textLength="119" x="124.75" y="1359.508">LogicSocketOutput</text><rect fill="#FFFFFF" height="17.7441" style="stroke: #000000; stroke-width: 1.0; stroke-dasharray: 2.0,2.0;" width="30" x="282" y="1336.5"/><text fill="#000000" font-family="Fira Code" font-size="12" font-style="italic" lengthAdjust="spacingAndGlyphs" textLength="28" x="283" y="1349.3801">Data</text><line style="stroke: #A80036; stroke-width: 1.5;" x1="60" x2="308" y1="1371.5" y2="1371.5"/><ellipse cx="70" cy="1384.2161" fill="#84BE84" rx="3" ry="3" style="stroke: #038048; stroke-width: 1.0;"/><text fill="#000000" font-family="Fira Code" font-size="11" lengthAdjust="spacingAndGlyphs" textLength="140" x="79" y="1386.3902">dataHandle() [const]</text><line style="stroke: #A80036; stroke-width: 1.0;" x1="60" x2="308" y1="1393.9322" y2="1393.9322"/><ellipse cx="70" cy="1406.6483" fill="#84BE84" rx="3" ry="3" style="stroke: #038048; stroke-width: 1.0;"/><text fill="#000000" font-family="Fira Code" font-size="11" lengthAdjust="spacingAndGlyphs" textLength="224" x="79" y="1408.8224">connect&lt;SocketData&gt;(SocketData&amp;)</text><ellipse cx="70" cy="1421.0805" fill="#84BE84" rx="3" ry="3" style="stroke: #038048; stroke-width: 1.0;"/><text fill="#000000" font-family="Fira Code" font-size="11" lengthAdjust="spacingAndGlyphs" textLength="147" x="79" y="1423.2546">disconnect() override</text><ellipse cx="70" cy="1435.5127" fill="#84BE84" rx="3" ry="3" style="stroke: #038048; stroke-width: 1.0;"/><text fill="#000000" font-family="Fira Code" font-size="11" lengthAdjust="spacingAndGlyphs" textLength="147" x="79" y="1437.6868">connections() [const]</text><line style="stroke: #A80036; stroke-width: 1.0;" x1="60" x2="308" y1="1445.2288" y2="1445.2288"/><rect fill="none" height="6" style="stroke: #C82930; stroke-width: 1.0;" width="6" x="67" y="1454.9449"/><text fill="#000000" font-family="Fira Code" font-size="11" lengthAdjust="spacingAndGlyphs" textLength="175" x="79" y="1460.119">Connections m_connections</text><!--class executionGraph::LogicSocketBase--><rect fill="#FEFECE" height="134.5932" id="executionGraph::LogicSocketBase" style="stroke: #A80036; stroke-width: 1.5;" width="194" x="383" y="1033"/><ellipse cx="399.8" cy="1049" fill="#ADD1B2" rx="11" ry="11" style="stroke: #A80036; stroke-width: 1.0;"/><path d="M402.7688,1054.6406 Q402.1906,1054.9375 401.55,1055.0781 Q400.9094,1055.2344 400.2063,1055.2344 Q397.7063,1055.2344 396.3781,1053.5938 Q395.0656,1051.9375 395.0656,1048.8125 Q395.0656,1045.6875 396.3781,1044.0313 Q397.7063,1042.375 400.2063,1042.375 Q400.9094,1042.375 401.55,1042.5313 Q402.2063,1042.6875 402.7688,1042.9844 L402.7688,1045.7031 Q402.1438,1045.125 401.55,1044.8594 Q400.9563,1044.5781 400.3313,1044.5781 Q398.9875,1044.5781 398.3,1045.6563 Q397.6125,1046.7188 397.6125,1048.8125 Q397.6125,1050.9063 398.3,1051.9844 Q398.9875,1053.0469 400.3313,1053.0469 Q400.9563,1053.0469 401.55,1052.7813 Q402.1438,1052.5 402.7688,1051.9219 L402.7688,1054.6406 Z "/><text fill="#000000" font-family="Fira Code" font-size="12" lengthAdjust="spacingAndGlyphs" textLength="105" x="414.2" y="1053.008">LogicSocketBase</text><rect fill="#FFFFFF" height="17.7441" style="stroke: #000000; stroke-width: 1.0; stroke-dasharray: 2.0,2.0;" width="51" x="529" y="1030"/><text fill="#000000" font-family="Fira Code" font-size="12" font-style="italic" lengthAdjust="spacingAndGlyphs" textLength="49" x="530" y="1042.8801">IsInput</text><line style="stroke: #A80036; stroke-width: 1.5;" x1="384" x2="576" y1="1065" y2="1065"/><ellipse cx="394" cy="1077.7161" fill="#84BE84" rx="3" ry="3" style="stroke: #038048; stroke-width: 1.0;"/><text fill="#000000" font-family="Fira Code" font-size="11" lengthAdjust="spacingAndGlyphs" textLength="42" x="403" y="1079.8902">type()</text><ellipse cx="394" cy="1092.1483" fill="#84BE84" rx="3" ry="3" style="stroke: #038048; stroke-width: 1.0;"/><text fill="#000000" font-family="Fira Code" font-size="11" lengthAdjust="spacingAndGlyphs" textLength="49" x="403" y="1094.3224">index()</text><ellipse cx="394" cy="1106.5805" fill="#84BE84" rx="3" ry="3" style="stroke: #038048; stroke-width: 1.0;"/><text fill="#000000" font-family="Fira Code" font-size="11" lengthAdjust="spacingAndGlyphs" textLength="56" x="403" y="1108.7546">parent()</text><ellipse cx="394" cy="1121.0127" fill="#84BE84" rx="3" ry="3" style="stroke: #038048; stroke-width: 1.0;"/><text fill="#000000" font-family="Fira Code" font-size="11" lengthAdjust="spacingAndGlyphs" textLength="105" x="403" y="1123.1868">castToType&lt;T&gt;()</text><line style="stroke: #A80036; stroke-width: 1.0;" x1="384" x2="576" y1="1130.7288" y2="1130.7288"/><ellipse cx="394" cy="1143.4449" fill="#84BE84" rx="3" ry="3" style="stroke: #038048; stroke-width: 1.0;"/><text fill="#000000" font-family="Fira Code" font-size="11" lengthAdjust="spacingAndGlyphs" textLength="168" x="403" y="1145.619">connect&lt;Socket&gt;(Socket&amp;)</text><ellipse cx="394" cy="1157.8771" fill="#84BE84" rx="3" ry="3" style="stroke: #038048; stroke-width: 1.0;"/><text fill="#000000" font-family="Fira Code" font-size="11" lengthAdjust="spacingAndGlyphs" textLength="168" x="403" y="1160.0512">virtual disconnect() = 0</text><!--class executionGraph::LogicSocketConnections--><rect fill="#FEFECE" height="137.6492" id="executionGraph::LogicSocketConnections" style="stroke: #0000FF; stroke-width: 3.0;" width="330" x="22" y="1791"/><ellipse cx="37" cy="1811.7441" fill="#ADD1B2" rx="11" ry="11" style="stroke: #0000FF; stroke-width: 1.0;"/><path d="M39.9688,1817.3847 Q39.3906,1817.6816 38.75,1817.8222 Q38.1094,1817.9785 37.4063,1817.9785 Q34.9063,1817.9785 33.5781,1816.3379 Q32.2656,1814.6816 32.2656,1811.5566 Q32.2656,1808.4316 33.5781,1806.7754 Q34.9063,1805.1191 37.4063,1805.1191 Q38.1094,1805.1191 38.75,1805.2754 Q39.4063,1805.4316 39.9688,1805.7285 L39.9688,1808.4472 Q39.3438,1807.8691 38.75,1807.6035 Q38.1563,1807.3222 37.5313,1807.3222 Q36.1875,1807.3222 35.5,1808.4004 Q34.8125,1809.4629 34.8125,1811.5566 Q34.8125,1813.6504 35.5,1814.7285 Q36.1875,1815.791 37.5313,1815.791 Q38.1563,1815.791 38.75,1815.5254 Q39.3438,1815.2441 39.9688,1814.666 L39.9688,1817.3847 Z "/><text fill="#000000" font-family="Fira Code" font-size="12" font-style="italic" lengthAdjust="spacingAndGlyphs" textLength="91" x="82.5" y="1807.8801">«Connections»</text><text fill="#000000" font-family="Fira Code" font-size="12" lengthAdjust="spacingAndGlyphs" textLength="154" x="51" y="1823.6242">LogicSocketConnections</text><rect fill="#FFFFFF" height="17.7441" style="stroke: #000000; stroke-width: 1.0; stroke-dasharray: 2.0,2.0;" width="142" x="213" y="1788"/><text fill="#000000" font-family="Fira Code" font-size="12" font-style="italic" lengthAdjust="spacingAndGlyphs" textLength="140" x="214" y="1800.8801">Traits, ParentSocket</text><line style="stroke: #0000FF; stroke-width: 1.5;" x1="23" x2="351" y1="1832.4882" y2="1832.4882"/><text fill="#000000" font-family="Fira Code" font-size="11" lengthAdjust="spacingAndGlyphs" textLength="245" x="28" y="1847.3784">Connection for input/output sockets</text><line style="stroke: #0000FF; stroke-width: 1.0;" x1="23" x2="351" y1="1854.9204" y2="1854.9204"/><ellipse cx="33" cy="1867.6365" fill="#84BE84" rx="3" ry="3" style="stroke: #038048; stroke-width: 1.0;"/><text fill="#000000" font-family="Fira Code" font-size="11" lengthAdjust="spacingAndGlyphs" textLength="140" x="42" y="1869.8106">connect(SocketData&amp;)</text><ellipse cx="33" cy="1882.0687" fill="#84BE84" rx="3" ry="3" style="stroke: #038048; stroke-width: 1.0;"/><text fill="#000000" font-family="Fira Code" font-size="11" lengthAdjust="spacingAndGlyphs" textLength="161" x="42" y="1884.2428">disconnect(SocketData&amp;)</text><line style="stroke: #0000FF; stroke-width: 1.0;" x1="23" x2="351" y1="1891.7848" y2="1891.7848"/><rect fill="none" height="6" style="stroke: #C82930; stroke-width: 1.0;" width="6" x="30" y="1901.5009"/><text fill="#000000" font-family="Fira Code" font-size="11" lengthAdjust="spacingAndGlyphs" textLength="252" x="42" y="1906.675">SocketDataConnections* m_connections</text><rect fill="none" height="6" style="stroke: #C82930; stroke-width: 1.0;" width="6" x="30" y="1915.9331"/><text fill="#000000" font-family="Fira Code" font-size="11" lengthAdjust="spacingAndGlyphs" textLength="112" x="42" y="1921.1072">Parent* m_parent</text><!--class executionGraph::LogicSocketDataBase--><rect fill="#FEFECE" height="134.5932" id="executionGraph::LogicSocketDataBase" style="stroke: #A80036; stroke-width: 1.5;" width="292" x="354" y="45"/><ellipse cx="429.25" cy="61" fill="#ADD1B2" rx="11" ry="11" style="stroke: #A80036; stroke-width: 1.0;"/><path d="M432.2188,66.6406 Q431.6406,66.9375 431,67.0781 Q430.3594,67.2344 429.6563,67.2344 Q427.1563,67.2344 425.8281,65.5938 Q424.5156,63.9375 424.5156,60.8125 Q424.5156,57.6875 425.8281,56.0313 Q427.1563,54.375 429.6563,54.375 Q430.3594,54.375 431,54.5313 Q431.6563,54.6875 432.2188,54.9844 L432.2188,57.7031 Q431.5938,57.125 431,56.8594 Q430.4063,56.5781 429.7813,56.5781 Q428.4375,56.5781 427.75,57.6563 Q427.0625,58.7188 427.0625,60.8125 Q427.0625,62.9063 427.75,63.9844 Q428.4375,65.0469 429.7813,65.0469 Q430.4063,65.0469 431,64.7813 Q431.5938,64.5 432.2188,63.9219 L432.2188,66.6406 Z "/><text fill="#000000" font-family="Fira Code" font-size="12" lengthAdjust="spacingAndGlyphs" textLength="133" x="449.75" y="65.008">LogicSocketDataBase</text><line style="stroke: #A80036; stroke-width: 1.5;" x1="355" x2="645" y1="77" y2="77"/><ellipse cx="365" cy="89.7161" fill="#84BE84" rx="3" ry="3" style="stroke: #038048; stroke-width: 1.0;"/><text fill="#000000" font-family="Fira Code" font-size="11" lengthAdjust="spacingAndGlyphs" textLength="238" x="374" y="91.8902">virtual connect(InSocketBase&amp;) = 0</text><ellipse cx="365" cy="104.1483" fill="#84BE84" rx="3" ry="3" style="stroke: #038048; stroke-width: 1.0;"/><text fill="#000000" font-family="Fira Code" font-size="11" lengthAdjust="spacingAndGlyphs" textLength="259" x="374" y="106.3224">virtual disconnect(InSocketBase&amp;) = 0</text><ellipse cx="365" cy="118.5805" fill="#84BE84" rx="3" ry="3" style="stroke: #038048; stroke-width: 1.0;"/><text fill="#000000" font-family="Fira Code" font-size="11" lengthAdjust="spacingAndGlyphs" textLength="245" x="374" y="120.7546">virtual connect(OutSocketBase&amp;) = 0</text><ellipse cx="365" cy="133.0127" fill="#84BE84" rx="3" ry="3" style="stroke: #038048; stroke-width: 1.0;"/><text fill="#000000" font-family="Fira Code" font-size="11" lengthAdjust="spacingAndGlyphs" textLength="266" x="374" y="135.1868">virtual disconnect(OutSocketBase&amp;) = 0</text><line style="stroke: #A80036; stroke-width: 1.0;" x1="355" x2="645" y1="142.7288" y2="142.7288"/><ellipse cx="365" cy="155.4449" fill="#84BE84" rx="3" ry="3" style="stroke: #038048; stroke-width: 1.0;"/><text fill="#000000" font-family="Fira Code" font-size="11" lengthAdjust="spacingAndGlyphs" textLength="42" x="374" y="157.619">type()</text><ellipse cx="365" cy="169.8771" fill="#84BE84" rx="3" ry="3" style="stroke: #038048; stroke-width: 1.0;"/><text fill="#000000" font-family="Fira Code" font-size="11" lengthAdjust="spacingAndGlyphs" textLength="28" x="374" y="172.0512">id()</text><!--class executionGraph::userData::LogicSocketDataConnections--><rect fill="#FEFECE" height="166.5137" id="executionGraph::userData::LogicSocketDataConnections" style="stroke: #0000FF; stroke-width: 3.0;" width="358" x="301" y="743"/><ellipse cx="316" cy="763.7441" fill="#ADD1B2" rx="11" ry="11" style="stroke: #0000FF; stroke-width: 1.0;"/><path d="M318.9688,769.3847 Q318.3906,769.6816 317.75,769.8222 Q317.1094,769.9785 316.4063,769.9785 Q313.9063,769.9785 312.5781,768.3379 Q311.2656,766.6816 311.2656,763.5566 Q311.2656,760.4316 312.5781,758.7754 Q313.9063,757.1191 316.4063,757.1191 Q317.1094,757.1191 317.75,757.2754 Q318.4063,757.4316 318.9688,757.7285 L318.9688,760.4472 Q318.3438,759.8691 317.75,759.6035 Q317.1563,759.3222 316.5313,759.3222 Q315.1875,759.3222 314.5,760.4004 Q313.8125,761.4629 313.8125,763.5566 Q313.8125,765.6504 314.5,766.7285 Q315.1875,767.791 316.5313,767.791 Q317.1563,767.791 317.75,767.5254 Q318.3438,767.2441 318.9688,766.666 L318.9688,769.3847 Z "/><text fill="#000000" font-family="Fira Code" font-size="12" font-style="italic" lengthAdjust="spacingAndGlyphs" textLength="91" x="375.5" y="759.8801">«Connections»</text><text fill="#000000" font-family="Fira Code" font-size="12" lengthAdjust="spacingAndGlyphs" textLength="182" x="330" y="775.6242">LogicSocketDataConnections</text><rect fill="#FFFFFF" height="17.7441" style="stroke: #000000; stroke-width: 1.0; stroke-dasharray: 2.0,2.0;" width="142" x="520" y="740"/><text fill="#000000" font-family="Fira Code" font-size="12" font-style="italic" lengthAdjust="spacingAndGlyphs" textLength="140" x="521" y="752.8801">Traits, ParentSocket</text><line style="stroke: #0000FF; stroke-width: 1.5;" x1="302" x2="658" y1="784.4882" y2="784.4882"/><text fill="#000000" font-family="Fira Code" font-size="11" lengthAdjust="spacingAndGlyphs" textLength="189" x="307" y="799.3784">Connection for data sockets</text><line style="stroke: #0000FF; stroke-width: 1.0;" x1="302" x2="658" y1="806.9204" y2="806.9204"/><ellipse cx="312" cy="819.6365" fill="#84BE84" rx="3" ry="3" style="stroke: #038048; stroke-width: 1.0;"/><text fill="#000000" font-family="Fira Code" font-size="11" lengthAdjust="spacingAndGlyphs" textLength="126" x="321" y="821.8106">connect(InSocket&amp;)</text><ellipse cx="312" cy="834.0687" fill="#84BE84" rx="3" ry="3" style="stroke: #038048; stroke-width: 1.0;"/><text fill="#000000" font-family="Fira Code" font-size="11" lengthAdjust="spacingAndGlyphs" textLength="147" x="321" y="836.2428">disconnect(InSocket&amp;)</text><ellipse cx="312" cy="848.5009" fill="#84BE84" rx="3" ry="3" style="stroke: #038048; stroke-width: 1.0;"/><text fill="#000000" font-family="Fira Code" font-size="11" lengthAdjust="spacingAndGlyphs" textLength="133" x="321" y="850.675">connect(OutSocket&amp;)</text><ellipse cx="312" cy="862.9331" fill="#84BE84" rx="3" ry="3" style="stroke: #038048; stroke-width: 1.0;"/><text fill="#000000" font-family="Fira Code" font-size="11" lengthAdjust="spacingAndGlyphs" textLength="154" x="321" y="865.1072">disconnect(OutSocket&amp;)</text><line style="stroke: #0000FF; stroke-width: 1.0;" x1="302" x2="658" y1="872.6492" y2="872.6492"/><rect fill="none" height="6" style="stroke: #C82930; stroke-width: 1.0;" width="6" x="309" y="882.3653"/><text fill="#000000" font-family="Fira Code" font-size="11" lengthAdjust="spacingAndGlyphs" textLength="56" x="321" y="887.5394">m_inputs</text><rect fill="none" height="6" style="stroke: #C82930; stroke-width: 1.0;" width="6" x="309" y="896.7976"/><text fill="#000000" font-family="Fira Code" font-size="11" lengthAdjust="spacingAndGlyphs" textLength="63" x="321" y="901.9716">m_outputs</text><!--class executionGraph::userData::LogicSocketData--><rect fill="#FEFECE" height="185.8898" id="executionGraph::userData::LogicSocketData" style="stroke: #A80036; stroke-width: 1.5;" width="327" x="336.5" y="310"/><ellipse cx="427.25" cy="326" fill="#ADD1B2" rx="11" ry="11" style="stroke: #A80036; stroke-width: 1.0;"/><path d="M430.2188,331.6406 Q429.6406,331.9375 429,332.0781 Q428.3594,332.2344 427.6563,332.2344 Q425.1563,332.2344 423.8281,330.5938 Q422.5156,328.9375 422.5156,325.8125 Q422.5156,322.6875 423.8281,321.0313 Q425.1563,319.375 427.6563,319.375 Q428.3594,319.375 429,319.5313 Q429.6563,319.6875 430.2188,319.9844 L430.2188,322.7031 Q429.5938,322.125 429,321.8594 Q428.4063,321.5781 427.7813,321.5781 Q426.4375,321.5781 425.75,322.6563 Q425.0625,323.7188 425.0625,325.8125 Q425.0625,327.9063 425.75,328.9844 Q426.4375,330.0469 427.7813,330.0469 Q428.4063,330.0469 429,329.7813 Q429.5938,329.5 430.2188,328.9219 L430.2188,331.6406 Z "/><text fill="#000000" font-family="Fira Code" font-size="12" lengthAdjust="spacingAndGlyphs" textLength="105" x="447.75" y="330.008">LogicSocketData</text><rect fill="#FFFFFF" height="17.7441" style="stroke: #000000; stroke-width: 1.0; stroke-dasharray: 2.0,2.0;" width="30" x="636.5" y="307"/><text fill="#000000" font-family="Fira Code" font-size="12" font-style="italic" lengthAdjust="spacingAndGlyphs" textLength="28" x="637.5" y="319.8801">Data</text><line style="stroke: #A80036; stroke-width: 1.5;" x1="337.5" x2="662.5" y1="342" y2="342"/><ellipse cx="347.5" cy="354.7161" fill="#84BE84" rx="3" ry="3" style="stroke: #038048; stroke-width: 1.0;"/><text fill="#000000" font-family="Fira Code" font-size="11" lengthAdjust="spacingAndGlyphs" textLength="140" x="356.5" y="356.8902">dataHandle() [const]</text><ellipse cx="347.5" cy="369.1483" fill="#84BE84" rx="3" ry="3" style="stroke: #038048; stroke-width: 1.0;"/><text fill="#000000" font-family="Fira Code" font-size="11" lengthAdjust="spacingAndGlyphs" textLength="119" x="356.5" y="371.3224">dataHandleConst()</text><line style="stroke: #A80036; stroke-width: 1.0;" x1="337.5" x2="662.5" y1="378.8644" y2="378.8644"/><ellipse cx="347.5" cy="391.5805" fill="#84BE84" rx="3" ry="3" style="stroke: #038048; stroke-width: 1.0;"/><text fill="#000000" font-family="Fira Code" font-size="11" lengthAdjust="spacingAndGlyphs" textLength="273" x="356.5" y="393.7546">virtual connect(InSocketBase&amp;) override</text><ellipse cx="347.5" cy="406.0127" fill="#84BE84" rx="3" ry="3" style="stroke: #038048; stroke-width: 1.0;"/><text fill="#000000" font-family="Fira Code" font-size="11" lengthAdjust="spacingAndGlyphs" textLength="294" x="356.5" y="408.1868">virtual disconnect(InSocketBase&amp;) override</text><ellipse cx="347.5" cy="420.4449" fill="#84BE84" rx="3" ry="3" style="stroke: #038048; stroke-width: 1.0;"/><text fill="#000000" font-family="Fira Code" font-size="11" lengthAdjust="spacingAndGlyphs" textLength="280" x="356.5" y="422.619">virtual connect(OutSocketBase&amp;) override</text><ellipse cx="347.5" cy="434.8771" fill="#84BE84" rx="3" ry="3" style="stroke: #038048; stroke-width: 1.0;"/><text fill="#000000" font-family="Fira Code" font-size="11" lengthAdjust="spacingAndGlyphs" textLength="301" x="356.5" y="437.0512">virtual disconnect(OutSocketBase&amp;) override</text><ellipse cx="347.5" cy="449.3093" fill="#84BE84" rx="3" ry="3" style="stroke: #038048; stroke-width: 1.0;"/><text fill="#000000" font-family="Fira Code" font-size="11" lengthAdjust="spacingAndGlyphs" textLength="147" x="356.5" y="451.4834">connections() [const]</text><line style="stroke: #A80036; stroke-width: 1.0;" x1="337.5" x2="662.5" y1="459.0254" y2="459.0254"/><rect fill="none" height="6" style="stroke: #C82930; stroke-width: 1.0;" width="6" x="344.5" y="468.7415"/><text fill="#000000" font-family="Fira Code" font-size="11" lengthAdjust="spacingAndGlyphs" textLength="77" x="356.5" y="473.9156">Data m_data</text><rect fill="none" height="6" style="stroke: #C82930; stroke-width: 1.0;" width="6" x="344.5" y="483.1737"/><text fill="#000000" font-family="Fira Code" font-size="11" lengthAdjust="spacingAndGlyphs" textLength="175" x="356.5" y="488.3478">Connections m_connections</text><!--class executionGraph::userData::LogicSocketDataRef--><rect fill="#FEFECE" height="76.8644" id="executionGraph::userData::LogicSocketDataRef" style="stroke: #A80036; stroke-width: 1.5;" width="271" x="30.5" y="364.5"/><ellipse cx="72.5" cy="380.5" fill="#ADD1B2" rx="11" ry="11" style="stroke: #A80036; stroke-width: 1.0;"/><path d="M75.4688,386.1406 Q74.8906,386.4375 74.25,386.5781 Q73.6094,386.7344 72.9063,386.7344 Q70.4063,386.7344 69.0781,385.0938 Q67.7656,383.4375 67.7656,380.3125 Q67.7656,377.1875 69.0781,375.5313 Q70.4063,373.875 72.9063,373.875 Q73.6094,373.875 74.25,374.0313 Q74.9063,374.1875 75.4688,374.4844 L75.4688,377.2031 Q74.8438,376.625 74.25,376.3594 Q73.6563,376.0781 73.0313,376.0781 Q71.6875,376.0781 71,377.1563 Q70.3125,378.2188 70.3125,380.3125 Q70.3125,382.4063 71,383.4844 Q71.6875,384.5469 73.0313,384.5469 Q73.6563,384.5469 74.25,384.2813 Q74.8438,384 75.4688,383.4219 L75.4688,386.1406 Z "/><text fill="#000000" font-family="Fira Code" font-size="12" lengthAdjust="spacingAndGlyphs" textLength="126" x="92.5" y="384.508">LogicSocketDataRef</text><rect fill="#FFFFFF" height="17.7441" style="stroke: #000000; stroke-width: 1.0; stroke-dasharray: 2.0,2.0;" width="51" x="253.5" y="361.5"/><text fill="#000000" font-family="Fira Code" font-size="12" font-style="italic" lengthAdjust="spacingAndGlyphs" textLength="49" x="254.5" y="374.3801">Args...</text><line style="stroke: #A80036; stroke-width: 1.5;" x1="31.5" x2="300.5" y1="396.5" y2="396.5"/><ellipse cx="41.5" cy="409.2161" fill="#84BE84" rx="3" ry="3" style="stroke: #038048; stroke-width: 1.0;"/><text fill="#000000" font-family="Fira Code" font-size="11" lengthAdjust="spacingAndGlyphs" textLength="168" x="50.5" y="411.3902">setReference(socketData)</text><line style="stroke: #A80036; stroke-width: 1.0;" x1="31.5" x2="300.5" y1="418.9322" y2="418.9322"/><rect fill="none" height="6" style="stroke: #C82930; stroke-width: 1.0;" width="6" x="38.5" y="428.6483"/><text fill="#000000" font-family="Fira Code" font-size="11" lengthAdjust="spacingAndGlyphs" textLength="245" x="50.5" y="433.8224">LogicSocketData&lt;Args&gt;* m_socketData</text><!--class DummyNode--><rect fill="#FEFECE" height="171.4576" id="DummyNode" style="stroke: #A80036; stroke-width: 1.5;" width="152" x="819" y="1559"/><ellipse cx="859.65" cy="1575" fill="#ADD1B2" rx="11" ry="11" style="stroke: #A80036; stroke-width: 1.0;"/><path d="M862.6188,1580.6406 Q862.0406,1580.9375 861.4,1581.0781 Q860.7594,1581.2344 860.0563,1581.2344 Q857.5563,1581.2344 856.2281,1579.5938 Q854.9156,1577.9375 854.9156,1574.8125 Q854.9156,1571.6875 856.2281,1570.0313 Q857.5563,1568.375 860.0563,1568.375 Q860.7594,1568.375 861.4,1568.5313 Q862.0563,1568.6875 862.6188,1568.9844 L862.6188,1571.7031 Q861.9938,1571.125 861.4,1570.8594 Q860.8063,1570.5781 860.1813,1570.5781 Q858.8375,1570.5781 858.15,1571.6563 Q857.4625,1572.7188 857.4625,1574.8125 Q857.4625,1576.9063 858.15,1577.9844 Q858.8375,1579.0469 860.1813,1579.0469 Q860.8063,1579.0469 861.4,1578.7813 Q861.9938,1578.5 862.6188,1577.9219 L862.6188,1580.6406 Z "/><text fill="#000000" font-family="Fira Code" font-size="12" lengthAdjust="spacingAndGlyphs" textLength="63" x="879.35" y="1579.008">DummyNode</text><line style="stroke: #A80036; stroke-width: 1.5;" x1="820" x2="970" y1="1591" y2="1591"/><ellipse cx="830" cy="1622.1483" fill="none" rx="3" ry="3" style="stroke: #038048; stroke-width: 1.0;"/><text fill="#000000" font-family="Fira Code" font-size="11" lengthAdjust="spacingAndGlyphs" textLength="49" x="839" y="1624.3224">inDecls</text><ellipse cx="830" cy="1636.5805" fill="none" rx="3" ry="3" style="stroke: #038048; stroke-width: 1.0;"/><text fill="#000000" font-family="Fira Code" font-size="11" lengthAdjust="spacingAndGlyphs" textLength="56" x="839" y="1638.7546">outDecls</text><line style="stroke: #A80036; stroke-width: 1.0;" x1="820" x2="828.5" y1="1606.2161" y2="1606.2161"/><text fill="#000000" font-family="Fira Code" font-size="11" lengthAdjust="spacingAndGlyphs" textLength="133" x="828.5" y="1609.3902">In/Out Declerations</text><line style="stroke: #A80036; stroke-width: 1.0;" x1="961.5" x2="970" y1="1606.2161" y2="1606.2161"/><line style="stroke: #A80036; stroke-width: 1.0;" x1="820" x2="970" y1="1646.2966" y2="1646.2966"/><ellipse cx="830" cy="1659.0127" fill="#84BE84" rx="3" ry="3" style="stroke: #038048; stroke-width: 1.0;"/><text fill="#000000" font-family="Fira Code" font-size="11" lengthAdjust="spacingAndGlyphs" textLength="98" x="839" y="1661.1868">socket&lt;decl&gt;()</text><ellipse cx="830" cy="1673.4449" fill="#84BE84" rx="3" ry="3" style="stroke: #038048; stroke-width: 1.0;"/><text fill="#000000" font-family="Fira Code" font-size="11" lengthAdjust="spacingAndGlyphs" textLength="126" x="839" y="1675.619">dataHandle&lt;decl&gt;()</text><rect fill="none" height="6" style="stroke: #C82930; stroke-width: 1.0;" width="6" x="827" y="1703.3093"/><text fill="#000000" font-family="Fira Code" font-size="11" lengthAdjust="spacingAndGlyphs" textLength="77" x="839" y="1708.4834">m_inSockets</text><rect fill="none" height="6" style="stroke: #C82930; stroke-width: 1.0;" width="6" x="827" y="1717.7415"/><text fill="#000000" font-family="Fira Code" font-size="11" lengthAdjust="spacingAndGlyphs" textLength="84" x="839" y="1722.9156">m_outSockets</text><line style="stroke: #A80036; stroke-width: 1.0;" x1="820" x2="870.5" y1="1690.3771" y2="1690.3771"/><text fill="#000000" font-family="Fira Code" font-size="11" lengthAdjust="spacingAndGlyphs" textLength="49" x="870.5" y="1693.5512">Sockets</text><line style="stroke: #A80036; stroke-width: 1.0;" x1="919.5" x2="970" y1="1690.3771" y2="1690.3771"/><!--link executionGraph::LogicNode to DummyNode--><path d="M798.2205,1514.1992 C809.354,1529.1889 820.6387,1544.3823 831.3794,1558.8432 " fill="none" id="executionGraph::LogicNode-DummyNode" style="stroke: #A80036; stroke-width: 1.0;"/><polygon fill="none" points="792.5375,1518.2875,786.2318,1498.0579,803.7766,1509.9398,792.5375,1518.2875" style="stroke: #A80036; stroke-width: 1.0;"/><!--link executionGraph::LogicSocketBase to executionGraph::LogicSocketInput--><path d="M476.8191,1188.1186 C475.0638,1236.4696 472.9227,1295.4478 471.3251,1339.4545 " fill="none" id="executionGraph::LogicSocketBase-executionGraph::LogicSocketInput" style="stroke: #A80036; stroke-width: 1.0;"/><polygon fill="none" points="469.824,1187.8548,477.5451,1168.122,483.8148,1188.3628,469.824,1187.8548" style="stroke: #A80036; stroke-width: 1.0;"/><!--link executionGraph::LogicSocketBase to executionGraph::LogicSocketOutput--><path d="M399.7365,1182.6616 C351.5653,1231.972 291.1872,1293.7779 246.5659,1339.4545 " fill="none" id="executionGraph::LogicSocketBase-executionGraph::LogicSocketOutput" style="stroke: #A80036; stroke-width: 1.0;"/><polygon fill="none" points="394.957,1177.5369,413.9402,1168.122,404.9716,1187.32,394.957,1177.5369" style="stroke: #A80036; stroke-width: 1.0;"/><!--link executionGraph::LogicSocketBase to executionGraph::LogicNode--><path d="M521.8454,1168.122 C549.7447,1206.4714 587.3107,1255.2913 622.0306,1298.5165 " fill="none" id="executionGraph::LogicSocketBase-executionGraph::LogicNode" style="stroke: #A80036; stroke-width: 1.0;"/><polygon fill="#FFFFFF" points="630.3196,1308.7963,629.6672,1301.6148,622.7871,1299.4549,623.4396,1306.6364,630.3196,1308.7963" style="stroke: #A80036; stroke-width: 1.0;"/><text fill="#000000" font-family="Fira Code" font-size="13" lengthAdjust="spacingAndGlyphs" textLength="8" x="615.4534" y="1296.769">*</text><!--link executionGraph::LogicSocketBase to executionGraph::LogicNode--><path d="M552.5612,1178.298 C585.3482,1218.0851 623.5388,1266.8386 654.8562,1308.7963 " fill="none" id="executionGraph::LogicSocketBase-executionGraph::LogicNode" style="stroke: #A80036; stroke-width: 1.0;"/><polygon fill="#FFFFFF" points="544.1299,1168.122,544.8778,1175.2942,551.786,1177.3624,551.0381,1170.1901,544.1299,1168.122" style="stroke: #A80036; stroke-width: 1.0;"/><text fill="#000000" font-family="Fira Code" font-size="13" lengthAdjust="spacingAndGlyphs" textLength="8" x="542.0489" y="1188.508">1</text><!--link executionGraph::LogicSocketInput to DummyNode--><path d="M557.442,1467.6558 C574.9947,1478.7289 593.6744,1489.4189 612,1498 C693.318,1536.0778 731.3136,1511.8687 807.3587,1554.6711 " fill="none" id="executionGraph::LogicSocketInput-DummyNode" style="stroke: #A80036; stroke-width: 1.0;"/><polygon fill="#A80036" points="818.8643,1561.4878,815.7412,1554.9881,808.5402,1555.3711,811.6634,1561.8708,818.8643,1561.4878" style="stroke: #A80036; stroke-width: 1.0;"/><text fill="#000000" font-family="Fira Code" font-size="13" lengthAdjust="spacingAndGlyphs" textLength="8" x="802.9759" y="1567.0032">*</text><!--link executionGraph::LogicSocketOutput to DummyNode--><path d="M267.1284,1467.5391 C285.9631,1479.3955 306.4855,1490.4149 327,1498 C425.702,1534.4946 696.5066,1511.2411 806.7612,1555.587 " fill="none" id="executionGraph::LogicSocketOutput-DummyNode" style="stroke: #A80036; stroke-width: 1.0;"/><polygon fill="#A80036" points="818.7742,1561.0227,814.9568,1554.9049,807.8414,1556.0757,811.6588,1562.1935,818.7742,1561.0227" style="stroke: #A80036; stroke-width: 1.0;"/><text fill="#000000" font-family="Fira Code" font-size="13" lengthAdjust="spacingAndGlyphs" textLength="8" x="802.877" y="1547.8189">*</text><!--link executionGraph::LogicSocketInput to executionGraph::LogicSocketConnections--><path d="M422.3527,1479.0124 C368.8093,1565.6882 281.7188,1706.6697 229.8333,1790.6617 " fill="none" id="executionGraph::LogicSocketInput-executionGraph::LogicSocketConnections" style="stroke: #A80036; stroke-width: 1.0;"/><polygon fill="#A80036" points="429.1944,1467.9371,422.638,1470.9394,422.8877,1478.1462,429.4441,1475.1439,429.1944,1467.9371" style="stroke: #A80036; stroke-width: 1.0;"/><text fill="#000000" font-family="Fira Code" font-size="13" lengthAdjust="spacingAndGlyphs" textLength="8" x="416.6769" y="1488.3233">1</text><!--link executionGraph::LogicSocketOutput to executionGraph::LogicSocketConnections--><path d="M184.5103,1481.1437 C185.0809,1567.9838 185.9969,1707.3547 186.5443,1790.6617 " fill="none" id="executionGraph::LogicSocketOutput-executionGraph::LogicSocketConnections" style="stroke: #A80036; stroke-width: 1.0;"/><polygon fill="#A80036" points="184.4235,1467.9371,180.463,1473.9633,184.5024,1479.9368,188.4628,1473.9107,184.4235,1467.9371" style="stroke: #A80036; stroke-width: 1.0;"/><text fill="#000000" font-family="Fira Code" font-size="13" lengthAdjust="spacingAndGlyphs" textLength="8" x="176.0547" y="1488.3233">1</text><!--link executionGraph::LogicSocketDataBase to executionGraph::userData::LogicSocketData--><path d="M500,200.4655 C500,235.0305 500,274.7492 500,309.8056 " fill="none" id="executionGraph::LogicSocketDataBase-executionGraph::userData::LogicSocketData" style="stroke: #A80036; stroke-width: 1.0;"/><polygon fill="none" points="493.0001,200.2428,500,180.2427,507.0001,200.2427,493.0001,200.2428" style="stroke: #A80036; stroke-width: 1.0;"/><!--link executionGraph::userData::LogicSocketDataConnections to executionGraph::LogicSocketBase--><path d="M480,923.3361 C480,959.5593 480,999.8917 480,1032.9125 " fill="none" id="executionGraph::userData::LogicSocketDataConnections-executionGraph::LogicSocketBase" style="stroke: #A80036; stroke-width: 1.0;"/><polygon fill="#FFFFFF" points="480,910.1979,476,916.1979,480,922.1979,484,916.1979,480,910.1979" style="stroke: #A80036; stroke-width: 1.0;"/><text fill="#000000" font-family="Fira Code" font-size="13" lengthAdjust="spacingAndGlyphs" textLength="8" x="471.6813" y="930.4365">*</text><!--link executionGraph::userData::LogicSocketDataRef to executionGraph::userData::LogicSocketData--><path d="M314.8839,403 C321.9759,403 329.0678,403 336.1598,403 " fill="none" id="executionGraph::userData::LogicSocketDataRef-executionGraph::userData::LogicSocketData" style="stroke: #A80036; stroke-width: 1.0;"/><polygon fill="#FFFFFF" points="301.6875,403,307.6875,407,313.6875,403,307.6875,399,301.6875,403" style="stroke: #A80036; stroke-width: 1.0;"/><text fill="#000000" font-family="Fira Code" font-size="13" lengthAdjust="spacingAndGlyphs" textLength="8" x="309.3267" y="398.4104">1</text><!--link executionGraph::userData::LogicSocketData to executionGraph::userData::LogicSocketDataConnections--><path d="M495.6498,509.5242 C495.255,525.5979 495,541.9849 495,557.5 C495,557.5 495,557.5 495,681.5 C495,701.3667 493.5896,722.6837 491.6337,742.6935 " fill="none" id="executionGraph::userData::LogicSocketData-executionGraph::userData::LogicSocketDataConnections" style="stroke: #A80036; stroke-width: 1.0;"/><polygon fill="#A80036" points="496.0118,496.122,491.8512,502.0118,495.6877,508.1176,499.8483,502.2279,496.0118,496.122" style="stroke: #A80036; stroke-width: 1.0;"/><text fill="#000000" font-family="Fira Code" font-size="13" lengthAdjust="spacingAndGlyphs" textLength="8" x="487.4002" y="516.7788">1</text><!--link executionGraph::LogicSocketConnections to executionGraph::userData::LogicSocketDataConnections--><path d="M144.1051,1778.9463 C108.7761,1707.3214 61.4488,1598.8604 42,1498 C26.0953,1415.5194 36.3376,1392.8089 42,1309 C45.3409,1259.5512 57,1248.0615 57,1198.5 C57,971.5 57,971.5 57,971.5 C57,916.7207 185.5489,878.2725 300.9165,854.797 " fill="none" id="executionGraph::LogicSocketConnections-executionGraph::userData::LogicSocketDataConnections" style="stroke: #A80036; stroke-width: 1.0;"/><polygon fill="#A80036" points="150.1084,1790.9986,151.0136,1783.8445,144.758,1780.2574,143.8528,1787.4114,150.1084,1790.9986" style="stroke: #A80036; stroke-width: 1.0;"/><text fill="#000000" font-family="Fira Code" font-size="13" lengthAdjust="spacingAndGlyphs" textLength="96" x="57" y="1242.87">design-error</text><text fill="#000000" font-family="Fira Code" font-size="13" lengthAdjust="spacingAndGlyphs" textLength="8" x="137.8915" y="1778.8973">1</text><!--
@startuml core
set namespaceSeparator ::
skinparam shadowing false
skinparam defaultFontName "Fira Code"

skinparam class{
    BorderColor<< Connections >> Blue
    BorderThickness<< Connections >> 3

    BorderColor<< Node >> Green
    BorderThickness<< Node >> 3
}

class DummyNode{
    - -  In/Out Declerations - -
    + inDecls
    + outDecls
    - -
    + socket<decl>()
    + dataHandle<decl>()
    - - Sockets - -
    - m_inSockets
    - m_outSockets
}

namespace executionGraph{

    class LogicNode <<Node>> {
        + id()
        - -
        + virtual init() = 0
        + virtual reset() = 0
        + virtual compute() = 0
        - -
        + registerInputs(...)
        + registerOutputs(...)
        - -
        - m_inputs
        - m_outputs
    }

    class LogicSocketInput<Data> {
        + dataHandle() [const]
        - -
        + connect<SocketData>(SocketData&)
        + disconnect() override
        + connections() [const]
        - -
        - Connections m_connections
    }

    class LogicSocketOutput<Data> {
        + dataHandle() [const]
        - -
        + connect<SocketData>(SocketData&)
        + disconnect() override
        + connections() [const]
        - -
        - Connections m_connections
    }

    class LogicSocketBase<IsInput> {
        + type()
        + index()
        + parent()
        + castToType<T>()
        - -
        + connect<Socket>(Socket&)
        + virtual disconnect() = 0
    }

    class LogicSocketConnections<Traits, ParentSocket> << Connections >>{
        Connection for input/output sockets
        - -
        + connect(SocketData&)
        + disconnect(SocketData&)
        - -
        - SocketDataConnections* m_connections
        - Parent* m_parent
    }

    namespace userData{
        class LogicSocketDataConnections<Traits, ParentSocket> << Connections >> {
            Connection for data sockets
            - -
            + connect(InSocket&)
            + disconnect(InSocket&)
            + connect(OutSocket&)
            + disconnect(OutSocket&)
            - -
            - m_inputs
            - m_outputs
        }

        class LogicSocketData<Data>{
            + dataHandle() [const]
            + dataHandleConst()
            - -
            + virtual connect(InSocketBase&) override
            + virtual disconnect(InSocketBase&) override
            + virtual connect(OutSocketBase&) override
            + virtual disconnect(OutSocketBase&) override
            + connections() [const]
            - -
            - Data m_data
            - Connections m_connections
        }


        class LogicSocketDataRef<Args...>{
            + setReference(socketData)
            - -
            - LogicSocketData<Args>* m_socketData
        }

    }

    class LogicSocketDataBase{
        + virtual connect(InSocketBase&) = 0
        + virtual disconnect(InSocketBase&) = 0
        + virtual connect(OutSocketBase&) = 0
        + virtual disconnect(OutSocketBase&) = 0
        - -
        + type()
        + id()
    }
}

DummyNode -up-|> executionGraph::LogicNode

executionGraph::LogicSocketInput -up-|> executionGraph::LogicSocketBase
executionGraph::LogicSocketOutput -up-|> executionGraph::LogicSocketBase

executionGraph::LogicNode "*" o-up- executionGraph::LogicSocketBase 



DummyNode "*" *-up- executionGraph::LogicSocketInput
DummyNode "*" *-up- executionGraph::LogicSocketOutput

executionGraph::LogicSocketInput "1" *- - executionGraph::LogicSocketConnections
executionGraph::LogicSocketOutput "1" *- - executionGraph::LogicSocketConnections

executionGraph::LogicSocketBase "1" o-down- executionGraph::LogicNode

executionGraph::userData::LogicSocketData -up-|> executionGraph::LogicSocketDataBase
executionGraph::userData::LogicSocketDataConnections "*" o-down- executionGraph::LogicSocketBase
executionGraph::userData::LogicSocketData -right-o "1" executionGraph::userData::LogicSocketDataRef
executionGraph::userData::LogicSocketData "1" *-down- executionGraph::userData::LogicSocketDataConnections

executionGraph::LogicSocketConnections "1" *- - executionGraph::userData::LogicSocketDataConnections : design-error

@enduml

PlantUML version 1.2018.13(Mon Nov 26 18:11:51 CET 2018)
(GPL source distribution)
Java Runtime: OpenJDK Runtime Environment
JVM: OpenJDK 64-Bit Server VM
Java Version: 11.0.6+10-post-Ubuntu-1ubuntu119.10.1
Operating System: Linux
OS Version: 5.3.0-45-generic
Default Encoding: UTF-8
Language: en
Country: US
--></g></svg>