<?xml version="1.0" encoding="UTF-8" standalone="no"?><svg xmlns="http://www.w3.org/2000/svg" xmlns:xlink="http://www.w3.org/1999/xlink" contentScriptType="application/ecmascript" contentStyleType="text/css" height="1040px" preserveAspectRatio="none" style="width:1091px;height:1040px;" version="1.1" viewBox="0 0 1091 1040" width="1091px" zoomAndPan="magnify"><defs/><g><!--cluster executionGraph--><polygon fill="#FFFFFF" points="14,16.5,132,16.5,139,40.8679,931,40.8679,931,1028,14,1028,14,16.5" style="stroke: #000000; stroke-width: 1.5;"/><line style="stroke: #000000; stroke-width: 1.5;" x1="14" x2="139" y1="40.8679" y2="40.8679"/><text fill="#000000" font-family="Fira Code" font-size="14" font-weight="bold" lengthAdjust="spacingAndGlyphs" textLength="112" x="18" y="32.3599">executionGraph</text><!--class executionGraph::LogicNode--><rect fill="#FEFECE" height="163.4576" id="executionGraph::LogicNode" style="stroke: #A80036; stroke-width: 1.5;" width="166" x="757" y="499.5"/><ellipse cx="804.25" cy="515.5" fill="#ADD1B2" rx="11" ry="11" style="stroke: #A80036; stroke-width: 1.0;"/><path d="M807.2188,521.1406 Q806.6406,521.4375 806,521.5781 Q805.3594,521.7344 804.6563,521.7344 Q802.1563,521.7344 800.8281,520.0938 Q799.5156,518.4375 799.5156,515.3125 Q799.5156,512.1875 800.8281,510.5313 Q802.1563,508.875 804.6563,508.875 Q805.3594,508.875 806,509.0313 Q806.6563,509.1875 807.2188,509.4844 L807.2188,512.2031 Q806.5938,511.625 806,511.3594 Q805.4063,511.0781 804.7813,511.0781 Q803.4375,511.0781 802.75,512.1563 Q802.0625,513.2188 802.0625,515.3125 Q802.0625,517.4063 802.75,518.4844 Q803.4375,519.5469 804.7813,519.5469 Q805.4063,519.5469 806,519.2813 Q806.5938,519 807.2188,518.4219 L807.2188,521.1406 Z "/><text fill="#000000" font-family="Fira Code" font-size="12" lengthAdjust="spacingAndGlyphs" textLength="63" x="824.75" y="519.508">LogicNode</text><line style="stroke: #A80036; stroke-width: 1.5;" x1="758" x2="922" y1="531.5" y2="531.5"/><ellipse cx="768" cy="544.2161" fill="#84BE84" rx="3" ry="3" style="stroke: #038048; stroke-width: 1.0;"/><text fill="#000000" font-family="Fira Code" font-size="11" lengthAdjust="spacingAndGlyphs" textLength="42" x="777" y="546.3902">init()</text><ellipse cx="768" cy="558.6483" fill="#84BE84" rx="3" ry="3" style="stroke: #038048; stroke-width: 1.0;"/><text fill="#000000" font-family="Fira Code" font-size="11" lengthAdjust="spacingAndGlyphs" textLength="49" x="777" y="560.8224">reset()</text><ellipse cx="768" cy="573.0805" fill="#84BE84" rx="3" ry="3" style="stroke: #038048; stroke-width: 1.0;"/><text fill="#000000" font-family="Fira Code" font-size="11" lengthAdjust="spacingAndGlyphs" textLength="63" x="777" y="575.2546">compute()</text><text fill="#000000" font-family="Fira Code" font-size="11" lengthAdjust="spacingAndGlyphs" textLength="0" x="784" y="589.6868"/><ellipse cx="768" cy="601.9449" fill="#84BE84" rx="3" ry="3" style="stroke: #038048; stroke-width: 1.0;"/><text fill="#000000" font-family="Fira Code" font-size="11" lengthAdjust="spacingAndGlyphs" textLength="133" x="777" y="604.119">registerInputs(...)</text><ellipse cx="768" cy="616.3771" fill="#84BE84" rx="3" ry="3" style="stroke: #038048; stroke-width: 1.0;"/><text fill="#000000" font-family="Fira Code" font-size="11" lengthAdjust="spacingAndGlyphs" textLength="140" x="777" y="618.5512">registerOutputs(...)</text><line style="stroke: #A80036; stroke-width: 1.0;" x1="758" x2="922" y1="626.0932" y2="626.0932"/><rect fill="none" height="6" style="stroke: #C82930; stroke-width: 1.0;" width="6" x="765" y="635.8093"/><text fill="#000000" font-family="Fira Code" font-size="11" lengthAdjust="spacingAndGlyphs" textLength="56" x="777" y="640.9834">m_inputs</text><rect fill="none" height="6" style="stroke: #C82930; stroke-width: 1.0;" width="6" x="765" y="650.2415"/><text fill="#000000" font-family="Fira Code" font-size="11" lengthAdjust="spacingAndGlyphs" textLength="63" x="777" y="655.4156">m_outputs</text><!--class executionGraph::LogicSocketInput--><rect fill="#FEFECE" height="105.7288" id="executionGraph::LogicSocketInput" style="stroke: #A80036; stroke-width: 1.5;" width="201" x="572.5" y="722.5"/><ellipse cx="598.75" cy="738.5" fill="#ADD1B2" rx="11" ry="11" style="stroke: #A80036; stroke-width: 1.0;"/><path d="M601.7188,744.1406 Q601.1406,744.4375 600.5,744.5781 Q599.8594,744.7344 599.1563,744.7344 Q596.6563,744.7344 595.3281,743.0938 Q594.0156,741.4375 594.0156,738.3125 Q594.0156,735.1875 595.3281,733.5313 Q596.6563,731.875 599.1563,731.875 Q599.8594,731.875 600.5,732.0313 Q601.1563,732.1875 601.7188,732.4844 L601.7188,735.2031 Q601.0938,734.625 600.5,734.3594 Q599.9063,734.0781 599.2813,734.0781 Q597.9375,734.0781 597.25,735.1563 Q596.5625,736.2188 596.5625,738.3125 Q596.5625,740.4063 597.25,741.4844 Q597.9375,742.5469 599.2813,742.5469 Q599.9063,742.5469 600.5,742.2813 Q601.0938,742 601.7188,741.4219 L601.7188,744.1406 Z "/><text fill="#000000" font-family="Fira Code" font-size="12" lengthAdjust="spacingAndGlyphs" textLength="112" x="615.25" y="742.508">LogicSocketInput</text><rect fill="#FFFFFF" height="17.7441" style="stroke: #000000; stroke-width: 1.0; stroke-dasharray: 2.0,2.0;" width="30" x="746.5" y="719.5"/><text fill="#000000" font-family="Fira Code" font-size="12" font-style="italic" lengthAdjust="spacingAndGlyphs" textLength="28" x="747.5" y="732.3801">Data</text><line style="stroke: #A80036; stroke-width: 1.5;" x1="573.5" x2="772.5" y1="754.5" y2="754.5"/><ellipse cx="583.5" cy="767.2161" fill="#84BE84" rx="3" ry="3" style="stroke: #038048; stroke-width: 1.0;"/><text fill="#000000" font-family="Fira Code" font-size="11" lengthAdjust="spacingAndGlyphs" textLength="140" x="592.5" y="769.3902">dataHandle() [const]</text><text fill="#000000" font-family="Fira Code" font-size="11" lengthAdjust="spacingAndGlyphs" textLength="0" x="599.5" y="783.8224"/><ellipse cx="583.5" cy="796.0805" fill="#84BE84" rx="3" ry="3" style="stroke: #038048; stroke-width: 1.0;"/><text fill="#000000" font-family="Fira Code" font-size="11" lengthAdjust="spacingAndGlyphs" textLength="147" x="592.5" y="798.2546">connections() [const]</text><line style="stroke: #A80036; stroke-width: 1.0;" x1="573.5" x2="772.5" y1="805.7966" y2="805.7966"/><rect fill="none" height="6" style="stroke: #C82930; stroke-width: 1.0;" width="6" x="580.5" y="815.5127"/><text fill="#000000" font-family="Fira Code" font-size="11" lengthAdjust="spacingAndGlyphs" textLength="175" x="592.5" y="820.6868">Connections m_connections</text><!--class executionGraph::LogicSocketOutput--><rect fill="#FEFECE" height="105.7288" id="executionGraph::LogicSocketOutput" style="stroke: #A80036; stroke-width: 1.5;" width="201" x="336.5" y="722.5"/><ellipse cx="359.6" cy="738.5" fill="#ADD1B2" rx="11" ry="11" style="stroke: #A80036; stroke-width: 1.0;"/><path d="M362.5688,744.1406 Q361.9906,744.4375 361.35,744.5781 Q360.7094,744.7344 360.0063,744.7344 Q357.5063,744.7344 356.1781,743.0938 Q354.8656,741.4375 354.8656,738.3125 Q354.8656,735.1875 356.1781,733.5313 Q357.5063,731.875 360.0063,731.875 Q360.7094,731.875 361.35,732.0313 Q362.0063,732.1875 362.5688,732.4844 L362.5688,735.2031 Q361.9438,734.625 361.35,734.3594 Q360.7563,734.0781 360.1313,734.0781 Q358.7875,734.0781 358.1,735.1563 Q357.4125,736.2188 357.4125,738.3125 Q357.4125,740.4063 358.1,741.4844 Q358.7875,742.5469 360.1313,742.5469 Q360.7563,742.5469 361.35,742.2813 Q361.9438,742 362.5688,741.4219 L362.5688,744.1406 Z "/><text fill="#000000" font-family="Fira Code" font-size="12" lengthAdjust="spacingAndGlyphs" textLength="119" x="375.4" y="742.508">LogicSocketOutput</text><rect fill="#FFFFFF" height="17.7441" style="stroke: #000000; stroke-width: 1.0; stroke-dasharray: 2.0,2.0;" width="30" x="510.5" y="719.5"/><text fill="#000000" font-family="Fira Code" font-size="12" font-style="italic" lengthAdjust="spacingAndGlyphs" textLength="28" x="511.5" y="732.3801">Data</text><line style="stroke: #A80036; stroke-width: 1.5;" x1="337.5" x2="536.5" y1="754.5" y2="754.5"/><ellipse cx="347.5" cy="767.2161" fill="#84BE84" rx="3" ry="3" style="stroke: #038048; stroke-width: 1.0;"/><text fill="#000000" font-family="Fira Code" font-size="11" lengthAdjust="spacingAndGlyphs" textLength="140" x="356.5" y="769.3902">dataHandle() [const]</text><text fill="#000000" font-family="Fira Code" font-size="11" lengthAdjust="spacingAndGlyphs" textLength="0" x="363.5" y="783.8224"/><ellipse cx="347.5" cy="796.0805" fill="#84BE84" rx="3" ry="3" style="stroke: #038048; stroke-width: 1.0;"/><text fill="#000000" font-family="Fira Code" font-size="11" lengthAdjust="spacingAndGlyphs" textLength="147" x="356.5" y="798.2546">connections() [const]</text><line style="stroke: #A80036; stroke-width: 1.0;" x1="337.5" x2="536.5" y1="805.7966" y2="805.7966"/><rect fill="none" height="6" style="stroke: #C82930; stroke-width: 1.0;" width="6" x="344.5" y="815.5127"/><text fill="#000000" font-family="Fira Code" font-size="11" lengthAdjust="spacingAndGlyphs" textLength="175" x="356.5" y="820.6868">Connections m_connections</text><!--class executionGraph::LogicSocketBase--><rect fill="#FEFECE" height="91.2966" id="executionGraph::LogicSocketBase" style="stroke: #A80036; stroke-width: 1.5;" width="137" x="465.5" y="348.5"/><ellipse cx="480.5" cy="364.5" fill="#ADD1B2" rx="11" ry="11" style="stroke: #A80036; stroke-width: 1.0;"/><path d="M483.4688,370.1406 Q482.8906,370.4375 482.25,370.5781 Q481.6094,370.7344 480.9063,370.7344 Q478.4063,370.7344 477.0781,369.0938 Q475.7656,367.4375 475.7656,364.3125 Q475.7656,361.1875 477.0781,359.5313 Q478.4063,357.875 480.9063,357.875 Q481.6094,357.875 482.25,358.0313 Q482.9063,358.1875 483.4688,358.4844 L483.4688,361.2031 Q482.8438,360.625 482.25,360.3594 Q481.6563,360.0781 481.0313,360.0781 Q479.6875,360.0781 479,361.1563 Q478.3125,362.2188 478.3125,364.3125 Q478.3125,366.4063 479,367.4844 Q479.6875,368.5469 481.0313,368.5469 Q481.6563,368.5469 482.25,368.2813 Q482.8438,368 483.4688,367.4219 L483.4688,370.1406 Z "/><text fill="#000000" font-family="Fira Code" font-size="12" lengthAdjust="spacingAndGlyphs" textLength="105" x="494.5" y="368.508">LogicSocketBase</text><line style="stroke: #A80036; stroke-width: 1.5;" x1="466.5" x2="601.5" y1="380.5" y2="380.5"/><line style="stroke: #A80036; stroke-width: 1.5;" x1="466.5" x2="601.5" y1="388.5" y2="388.5"/><ellipse cx="476.5" cy="401.2161" fill="#84BE84" rx="3" ry="3" style="stroke: #038048; stroke-width: 1.0;"/><text fill="#000000" font-family="Fira Code" font-size="11" lengthAdjust="spacingAndGlyphs" textLength="42" x="485.5" y="403.3902">type()</text><ellipse cx="476.5" cy="415.6483" fill="#84BE84" rx="3" ry="3" style="stroke: #038048; stroke-width: 1.0;"/><text fill="#000000" font-family="Fira Code" font-size="11" lengthAdjust="spacingAndGlyphs" textLength="49" x="485.5" y="417.8224">index()</text><ellipse cx="476.5" cy="430.0805" fill="#84BE84" rx="3" ry="3" style="stroke: #038048; stroke-width: 1.0;"/><text fill="#000000" font-family="Fira Code" font-size="11" lengthAdjust="spacingAndGlyphs" textLength="56" x="485.5" y="432.2546">parent()</text><!--class executionGraph::LogicSocketInputBase--><rect fill="#FEFECE" height="62.4322" id="executionGraph::LogicSocketInputBase" style="stroke: #A80036; stroke-width: 1.5;" width="292" x="430" y="550"/><ellipse cx="501.75" cy="566" fill="#ADD1B2" rx="11" ry="11" style="stroke: #A80036; stroke-width: 1.0;"/><path d="M504.7188,571.6406 Q504.1406,571.9375 503.5,572.0781 Q502.8594,572.2344 502.1563,572.2344 Q499.6563,572.2344 498.3281,570.5938 Q497.0156,568.9375 497.0156,565.8125 Q497.0156,562.6875 498.3281,561.0313 Q499.6563,559.375 502.1563,559.375 Q502.8594,559.375 503.5,559.5313 Q504.1563,559.6875 504.7188,559.9844 L504.7188,562.7031 Q504.0938,562.125 503.5,561.8594 Q502.9063,561.5781 502.2813,561.5781 Q500.9375,561.5781 500.25,562.6563 Q499.5625,563.7188 499.5625,565.8125 Q499.5625,567.9063 500.25,568.9844 Q500.9375,570.0469 502.2813,570.0469 Q502.9063,570.0469 503.5,569.7813 Q504.0938,569.5 504.7188,568.9219 L504.7188,571.6406 Z "/><text fill="#000000" font-family="Fira Code" font-size="12" lengthAdjust="spacingAndGlyphs" textLength="140" x="522.25" y="570.008">LogicSocketInputBase</text><line style="stroke: #A80036; stroke-width: 1.5;" x1="431" x2="721" y1="582" y2="582"/><line style="stroke: #A80036; stroke-width: 1.5;" x1="431" x2="721" y1="590" y2="590"/><ellipse cx="441" cy="602.7161" fill="#84BE84" rx="3" ry="3" style="stroke: #038048; stroke-width: 1.0;"/><text fill="#000000" font-family="Fira Code" font-size="11" lengthAdjust="spacingAndGlyphs" textLength="266" x="450" y="604.8902">castToType&lt;T&gt;() -&gt; LogicSocketInput&lt;T&gt;</text><!--class executionGraph::LogicSocketOutputBase--><rect fill="#FEFECE" height="62.4322" id="executionGraph::LogicSocketOutputBase" style="stroke: #A80036; stroke-width: 1.5;" width="299" x="95.5" y="550"/><ellipse cx="167.25" cy="566" fill="#ADD1B2" rx="11" ry="11" style="stroke: #A80036; stroke-width: 1.0;"/><path d="M170.2188,571.6406 Q169.6406,571.9375 169,572.0781 Q168.3594,572.2344 167.6563,572.2344 Q165.1563,572.2344 163.8281,570.5938 Q162.5156,568.9375 162.5156,565.8125 Q162.5156,562.6875 163.8281,561.0313 Q165.1563,559.375 167.6563,559.375 Q168.3594,559.375 169,559.5313 Q169.6563,559.6875 170.2188,559.9844 L170.2188,562.7031 Q169.5938,562.125 169,561.8594 Q168.4063,561.5781 167.7813,561.5781 Q166.4375,561.5781 165.75,562.6563 Q165.0625,563.7188 165.0625,565.8125 Q165.0625,567.9063 165.75,568.9844 Q166.4375,570.0469 167.7813,570.0469 Q168.4063,570.0469 169,569.7813 Q169.5938,569.5 170.2188,568.9219 L170.2188,571.6406 Z "/><text fill="#000000" font-family="Fira Code" font-size="12" lengthAdjust="spacingAndGlyphs" textLength="147" x="187.75" y="570.008">LogicSocketOutputBase</text><line style="stroke: #A80036; stroke-width: 1.5;" x1="96.5" x2="393.5" y1="582" y2="582"/><line style="stroke: #A80036; stroke-width: 1.5;" x1="96.5" x2="393.5" y1="590" y2="590"/><ellipse cx="106.5" cy="602.7161" fill="#84BE84" rx="3" ry="3" style="stroke: #038048; stroke-width: 1.0;"/><text fill="#000000" font-family="Fira Code" font-size="11" lengthAdjust="spacingAndGlyphs" textLength="273" x="115.5" y="604.8902">castToType&lt;T&gt;() -&gt; LogicSocketOutput&lt;T&gt;</text><!--class executionGraph::LogicSocketConnections--><rect fill="#FEFECE" height="128.161" id="executionGraph::LogicSocketConnections" style="stroke: #A80036; stroke-width: 1.5;" width="330" x="390" y="892"/><ellipse cx="405" cy="908" fill="#ADD1B2" rx="11" ry="11" style="stroke: #A80036; stroke-width: 1.0;"/><path d="M407.9688,913.6406 Q407.3906,913.9375 406.75,914.0781 Q406.1094,914.2344 405.4063,914.2344 Q402.9063,914.2344 401.5781,912.5938 Q400.2656,910.9375 400.2656,907.8125 Q400.2656,904.6875 401.5781,903.0313 Q402.9063,901.375 405.4063,901.375 Q406.1094,901.375 406.75,901.5313 Q407.4063,901.6875 407.9688,901.9844 L407.9688,904.7031 Q407.3438,904.125 406.75,903.8594 Q406.1563,903.5781 405.5313,903.5781 Q404.1875,903.5781 403.5,904.6563 Q402.8125,905.7188 402.8125,907.8125 Q402.8125,909.9063 403.5,910.9844 Q404.1875,912.0469 405.5313,912.0469 Q406.1563,912.0469 406.75,911.7813 Q407.3438,911.5 407.9688,910.9219 L407.9688,913.6406 Z "/><text fill="#000000" font-family="Fira Code" font-size="12" lengthAdjust="spacingAndGlyphs" textLength="154" x="419" y="912.008">LogicSocketConnections</text><rect fill="#FFFFFF" height="17.7441" style="stroke: #000000; stroke-width: 1.0; stroke-dasharray: 2.0,2.0;" width="142" x="581" y="889"/><text fill="#000000" font-family="Fira Code" font-size="12" font-style="italic" lengthAdjust="spacingAndGlyphs" textLength="140" x="582" y="901.8801">Traits, ParentSocket</text><line style="stroke: #A80036; stroke-width: 1.5;" x1="391" x2="719" y1="924" y2="924"/><text fill="#000000" font-family="Fira Code" font-size="11" lengthAdjust="spacingAndGlyphs" textLength="245" x="396" y="938.8902">Connection for input/output sockets</text><line style="stroke: #A80036; stroke-width: 1.0;" x1="391" x2="719" y1="946.4322" y2="946.4322"/><ellipse cx="401" cy="959.1483" fill="#84BE84" rx="3" ry="3" style="stroke: #038048; stroke-width: 1.0;"/><text fill="#000000" font-family="Fira Code" font-size="11" lengthAdjust="spacingAndGlyphs" textLength="133" x="410" y="961.3224">connect(socketData)</text><ellipse cx="401" cy="973.5805" fill="#84BE84" rx="3" ry="3" style="stroke: #038048; stroke-width: 1.0;"/><text fill="#000000" font-family="Fira Code" font-size="11" lengthAdjust="spacingAndGlyphs" textLength="154" x="410" y="975.7546">disconnect(socketData)</text><line style="stroke: #A80036; stroke-width: 1.0;" x1="391" x2="719" y1="983.2966" y2="983.2966"/><text fill="#000000" font-family="Fira Code" font-size="11" lengthAdjust="spacingAndGlyphs" textLength="252" x="396" y="998.1868">SocketDataConnections* m_connections</text><text fill="#000000" font-family="Fira Code" font-size="11" lengthAdjust="spacingAndGlyphs" textLength="112" x="396" y="1012.619">Parent* m_parent</text><!--class executionGraph::LogicSocketDataConnections--><rect fill="#FEFECE" height="128.161" id="executionGraph::LogicSocketDataConnections" style="stroke: #A80036; stroke-width: 1.5;" width="358" x="565" y="157"/><ellipse cx="580" cy="173" fill="#ADD1B2" rx="11" ry="11" style="stroke: #A80036; stroke-width: 1.0;"/><path d="M582.9688,178.6406 Q582.3906,178.9375 581.75,179.0781 Q581.1094,179.2344 580.4063,179.2344 Q577.9063,179.2344 576.5781,177.5938 Q575.2656,175.9375 575.2656,172.8125 Q575.2656,169.6875 576.5781,168.0313 Q577.9063,166.375 580.4063,166.375 Q581.1094,166.375 581.75,166.5313 Q582.4063,166.6875 582.9688,166.9844 L582.9688,169.7031 Q582.3438,169.125 581.75,168.8594 Q581.1563,168.5781 580.5313,168.5781 Q579.1875,168.5781 578.5,169.6563 Q577.8125,170.7188 577.8125,172.8125 Q577.8125,174.9063 578.5,175.9844 Q579.1875,177.0469 580.5313,177.0469 Q581.1563,177.0469 581.75,176.7813 Q582.3438,176.5 582.9688,175.9219 L582.9688,178.6406 Z "/><text fill="#000000" font-family="Fira Code" font-size="12" lengthAdjust="spacingAndGlyphs" textLength="182" x="594" y="177.008">LogicSocketDataConnections</text><rect fill="#FFFFFF" height="17.7441" style="stroke: #000000; stroke-width: 1.0; stroke-dasharray: 2.0,2.0;" width="142" x="784" y="154"/><text fill="#000000" font-family="Fira Code" font-size="12" font-style="italic" lengthAdjust="spacingAndGlyphs" textLength="140" x="785" y="166.8801">Traits, ParentSocket</text><line style="stroke: #A80036; stroke-width: 1.5;" x1="566" x2="922" y1="189" y2="189"/><text fill="#000000" font-family="Fira Code" font-size="11" lengthAdjust="spacingAndGlyphs" textLength="189" x="571" y="203.8902">Connection for data sockets</text><line style="stroke: #A80036; stroke-width: 1.0;" x1="566" x2="922" y1="211.4322" y2="211.4322"/><ellipse cx="576" cy="224.1483" fill="#84BE84" rx="3" ry="3" style="stroke: #038048; stroke-width: 1.0;"/><text fill="#000000" font-family="Fira Code" font-size="11" lengthAdjust="spacingAndGlyphs" textLength="105" x="585" y="226.3224">connect(socket)</text><ellipse cx="576" cy="238.5805" fill="#84BE84" rx="3" ry="3" style="stroke: #038048; stroke-width: 1.0;"/><text fill="#000000" font-family="Fira Code" font-size="11" lengthAdjust="spacingAndGlyphs" textLength="126" x="585" y="240.7546">disconnect(socket)</text><line style="stroke: #A80036; stroke-width: 1.0;" x1="566" x2="922" y1="248.2966" y2="248.2966"/><text fill="#000000" font-family="Fira Code" font-size="11" lengthAdjust="spacingAndGlyphs" textLength="56" x="571" y="263.1868">m_inputs</text><text fill="#000000" font-family="Fira Code" font-size="11" lengthAdjust="spacingAndGlyphs" textLength="63" x="571" y="277.619">m_outputs</text><!--class executionGraph::LogicSocketData--><rect fill="#FEFECE" height="134.5932" id="executionGraph::LogicSocketData" style="stroke: #A80036; stroke-width: 1.5;" width="201" x="328.5" y="153.5"/><ellipse cx="357.9" cy="169.5" fill="#ADD1B2" rx="11" ry="11" style="stroke: #A80036; stroke-width: 1.0;"/><path d="M360.8688,175.1406 Q360.2906,175.4375 359.65,175.5781 Q359.0094,175.7344 358.3063,175.7344 Q355.8063,175.7344 354.4781,174.0938 Q353.1656,172.4375 353.1656,169.3125 Q353.1656,166.1875 354.4781,164.5313 Q355.8063,162.875 358.3063,162.875 Q359.0094,162.875 359.65,163.0313 Q360.3063,163.1875 360.8688,163.4844 L360.8688,166.2031 Q360.2438,165.625 359.65,165.3594 Q359.0563,165.0781 358.4313,165.0781 Q357.0875,165.0781 356.4,166.1563 Q355.7125,167.2188 355.7125,169.3125 Q355.7125,171.4063 356.4,172.4844 Q357.0875,173.5469 358.4313,173.5469 Q359.0563,173.5469 359.65,173.2813 Q360.2438,173 360.8688,172.4219 L360.8688,175.1406 Z "/><text fill="#000000" font-family="Fira Code" font-size="12" lengthAdjust="spacingAndGlyphs" textLength="105" x="375.1" y="173.508">LogicSocketData</text><rect fill="#FFFFFF" height="17.7441" style="stroke: #000000; stroke-width: 1.0; stroke-dasharray: 2.0,2.0;" width="30" x="502.5" y="150.5"/><text fill="#000000" font-family="Fira Code" font-size="12" font-style="italic" lengthAdjust="spacingAndGlyphs" textLength="28" x="503.5" y="163.3801">Data</text><line style="stroke: #A80036; stroke-width: 1.5;" x1="329.5" x2="528.5" y1="185.5" y2="185.5"/><ellipse cx="339.5" cy="198.2161" fill="#84BE84" rx="3" ry="3" style="stroke: #038048; stroke-width: 1.0;"/><text fill="#000000" font-family="Fira Code" font-size="11" lengthAdjust="spacingAndGlyphs" textLength="140" x="348.5" y="200.3902">dataHandle() [const]</text><ellipse cx="339.5" cy="212.6483" fill="#84BE84" rx="3" ry="3" style="stroke: #038048; stroke-width: 1.0;"/><text fill="#000000" font-family="Fira Code" font-size="11" lengthAdjust="spacingAndGlyphs" textLength="119" x="348.5" y="214.8224">dataHandleConst()</text><text fill="#000000" font-family="Fira Code" font-size="11" lengthAdjust="spacingAndGlyphs" textLength="0" x="355.5" y="229.2546"/><ellipse cx="339.5" cy="241.5127" fill="#84BE84" rx="3" ry="3" style="stroke: #038048; stroke-width: 1.0;"/><text fill="#000000" font-family="Fira Code" font-size="11" lengthAdjust="spacingAndGlyphs" textLength="147" x="348.5" y="243.6868">connections() [const]</text><line style="stroke: #A80036; stroke-width: 1.0;" x1="329.5" x2="528.5" y1="251.2288" y2="251.2288"/><rect fill="none" height="6" style="stroke: #C82930; stroke-width: 1.0;" width="6" x="336.5" y="260.9449"/><text fill="#000000" font-family="Fira Code" font-size="11" lengthAdjust="spacingAndGlyphs" textLength="77" x="348.5" y="266.119">Data m_data</text><rect fill="none" height="6" style="stroke: #C82930; stroke-width: 1.0;" width="6" x="336.5" y="275.3771"/><text fill="#000000" font-family="Fira Code" font-size="11" lengthAdjust="spacingAndGlyphs" textLength="175" x="348.5" y="280.5512">Connections m_connections</text><!--class executionGraph::LogicSocketDataRef--><rect fill="#FEFECE" height="76.8644" id="executionGraph::LogicSocketDataRef" style="stroke: #A80036; stroke-width: 1.5;" width="271" x="22.5" y="182.5"/><ellipse cx="64.5" cy="198.5" fill="#ADD1B2" rx="11" ry="11" style="stroke: #A80036; stroke-width: 1.0;"/><path d="M67.4688,204.1406 Q66.8906,204.4375 66.25,204.5781 Q65.6094,204.7344 64.9063,204.7344 Q62.4063,204.7344 61.0781,203.0938 Q59.7656,201.4375 59.7656,198.3125 Q59.7656,195.1875 61.0781,193.5313 Q62.4063,191.875 64.9063,191.875 Q65.6094,191.875 66.25,192.0313 Q66.9063,192.1875 67.4688,192.4844 L67.4688,195.2031 Q66.8438,194.625 66.25,194.3594 Q65.6563,194.0781 65.0313,194.0781 Q63.6875,194.0781 63,195.1563 Q62.3125,196.2188 62.3125,198.3125 Q62.3125,200.4063 63,201.4844 Q63.6875,202.5469 65.0313,202.5469 Q65.6563,202.5469 66.25,202.2813 Q66.8438,202 67.4688,201.4219 L67.4688,204.1406 Z "/><text fill="#000000" font-family="Fira Code" font-size="12" lengthAdjust="spacingAndGlyphs" textLength="126" x="84.5" y="202.508">LogicSocketDataRef</text><rect fill="#FFFFFF" height="17.7441" style="stroke: #000000; stroke-width: 1.0; stroke-dasharray: 2.0,2.0;" width="51" x="245.5" y="179.5"/><text fill="#000000" font-family="Fira Code" font-size="12" font-style="italic" lengthAdjust="spacingAndGlyphs" textLength="49" x="246.5" y="192.3801">Args...</text><line style="stroke: #A80036; stroke-width: 1.5;" x1="23.5" x2="292.5" y1="214.5" y2="214.5"/><ellipse cx="33.5" cy="227.2161" fill="#84BE84" rx="3" ry="3" style="stroke: #038048; stroke-width: 1.0;"/><text fill="#000000" font-family="Fira Code" font-size="11" lengthAdjust="spacingAndGlyphs" textLength="168" x="42.5" y="229.3902">setReference(socketData)</text><line style="stroke: #A80036; stroke-width: 1.0;" x1="23.5" x2="292.5" y1="236.9322" y2="236.9322"/><rect fill="none" height="6" style="stroke: #C82930; stroke-width: 1.0;" width="6" x="30.5" y="246.6483"/><text fill="#000000" font-family="Fira Code" font-size="11" lengthAdjust="spacingAndGlyphs" textLength="245" x="42.5" y="251.8224">LogicSocketData&lt;Args&gt;* m_socketData</text><!--class executionGraph::LogicSocketDataBase--><rect fill="#FEFECE" height="48" id="executionGraph::LogicSocketDataBase" style="stroke: #A80036; stroke-width: 1.5;" width="165" x="346.5" y="45.5"/><ellipse cx="361.5" cy="61.5" fill="#ADD1B2" rx="11" ry="11" style="stroke: #A80036; stroke-width: 1.0;"/><path d="M364.4688,67.1406 Q363.8906,67.4375 363.25,67.5781 Q362.6094,67.7344 361.9063,67.7344 Q359.4063,67.7344 358.0781,66.0938 Q356.7656,64.4375 356.7656,61.3125 Q356.7656,58.1875 358.0781,56.5313 Q359.4063,54.875 361.9063,54.875 Q362.6094,54.875 363.25,55.0313 Q363.9063,55.1875 364.4688,55.4844 L364.4688,58.2031 Q363.8438,57.625 363.25,57.3594 Q362.6563,57.0781 362.0313,57.0781 Q360.6875,57.0781 360,58.1563 Q359.3125,59.2188 359.3125,61.3125 Q359.3125,63.4063 360,64.4844 Q360.6875,65.5469 362.0313,65.5469 Q362.6563,65.5469 363.25,65.2813 Q363.8438,65 364.4688,64.4219 L364.4688,67.1406 Z "/><text fill="#000000" font-family="Fira Code" font-size="12" lengthAdjust="spacingAndGlyphs" textLength="133" x="375.5" y="65.508">LogicSocketDataBase</text><line style="stroke: #A80036; stroke-width: 1.5;" x1="347.5" x2="510.5" y1="77.5" y2="77.5"/><line style="stroke: #A80036; stroke-width: 1.5;" x1="347.5" x2="510.5" y1="85.5" y2="85.5"/><!--class DummyNode--><rect fill="#FEFECE" height="134.5932" id="DummyNode" style="stroke: #A80036; stroke-width: 1.5;" width="141" x="939.5" y="888.5"/><ellipse cx="975.2" cy="904.5" fill="#ADD1B2" rx="11" ry="11" style="stroke: #A80036; stroke-width: 1.0;"/><path d="M978.1688,910.1406 Q977.5906,910.4375 976.95,910.5781 Q976.3094,910.7344 975.6063,910.7344 Q973.1063,910.7344 971.7781,909.0938 Q970.4656,907.4375 970.4656,904.3125 Q970.4656,901.1875 971.7781,899.5313 Q973.1063,897.875 975.6063,897.875 Q976.3094,897.875 976.95,898.0313 Q977.6063,898.1875 978.1688,898.4844 L978.1688,901.2031 Q977.5438,900.625 976.95,900.3594 Q976.3563,900.0781 975.7313,900.0781 Q974.3875,900.0781 973.7,901.1563 Q973.0125,902.2188 973.0125,904.3125 Q973.0125,906.4063 973.7,907.4844 Q974.3875,908.5469 975.7313,908.5469 Q976.3563,908.5469 976.95,908.2813 Q977.5438,908 978.1688,907.4219 L978.1688,910.1406 Z "/><text fill="#000000" font-family="Fira Code" font-size="12" lengthAdjust="spacingAndGlyphs" textLength="63" x="993.8" y="908.508">DummyNode</text><line style="stroke: #A80036; stroke-width: 1.5;" x1="940.5" x2="1079.5" y1="920.5" y2="920.5"/><ellipse cx="950.5" cy="951.6483" fill="none" rx="3" ry="3" style="stroke: #038048; stroke-width: 1.0;"/><text fill="#000000" font-family="Fira Code" font-size="11" lengthAdjust="spacingAndGlyphs" textLength="49" x="959.5" y="953.8224">inDecls</text><ellipse cx="950.5" cy="966.0805" fill="none" rx="3" ry="3" style="stroke: #038048; stroke-width: 1.0;"/><text fill="#000000" font-family="Fira Code" font-size="11" lengthAdjust="spacingAndGlyphs" textLength="56" x="959.5" y="968.2546">outDecls</text><line style="stroke: #A80036; stroke-width: 1.0;" x1="940.5" x2="943.5" y1="935.7161" y2="935.7161"/><text fill="#000000" font-family="Fira Code" font-size="11" lengthAdjust="spacingAndGlyphs" textLength="133" x="943.5" y="938.8902">In/Out Declerations</text><line style="stroke: #A80036; stroke-width: 1.0;" x1="1076.5" x2="1079.5" y1="935.7161" y2="935.7161"/><rect fill="none" height="6" style="stroke: #C82930; stroke-width: 1.0;" width="6" x="947.5" y="995.9449"/><text fill="#000000" font-family="Fira Code" font-size="11" lengthAdjust="spacingAndGlyphs" textLength="77" x="959.5" y="1001.119">m_inSockets</text><rect fill="none" height="6" style="stroke: #C82930; stroke-width: 1.0;" width="6" x="947.5" y="1010.3771"/><text fill="#000000" font-family="Fira Code" font-size="11" lengthAdjust="spacingAndGlyphs" textLength="84" x="959.5" y="1015.5512">m_outSockets</text><line style="stroke: #A80036; stroke-width: 1.0;" x1="940.5" x2="985.5" y1="983.0127" y2="983.0127"/><text fill="#000000" font-family="Fira Code" font-size="11" lengthAdjust="spacingAndGlyphs" textLength="49" x="985.5" y="986.1868">Sockets</text><line style="stroke: #A80036; stroke-width: 1.0;" x1="1034.5" x2="1079.5" y1="983.0127" y2="983.0127"/><!--link executionGraph::LogicNode to DummyNode--><path d="M885.4403,681.236 C915.1645,746.804 953.1956,830.6961 979.3713,888.4367 " fill="none" id="executionGraph::LogicNode-DummyNode" style="stroke: #A80036; stroke-width: 1.0;"/><polygon fill="none" points="878.9795,683.9378,877.0972,662.832,891.7304,678.1574,878.9795,683.9378" style="stroke: #A80036; stroke-width: 1.0;"/><!--link executionGraph::LogicSocketInputBase to executionGraph::LogicSocketInput--><path d="M600.6303,630.3875 C614.6323,658.4637 632.1702,693.6299 646.4743,722.3118 " fill="none" id="executionGraph::LogicSocketInputBase-executionGraph::LogicSocketInput" style="stroke: #A80036; stroke-width: 1.0;"/><polygon fill="none" points="594.2464,633.2716,591.5847,612.2498,606.7749,627.0235,594.2464,633.2716" style="stroke: #A80036; stroke-width: 1.0;"/><!--link executionGraph::LogicSocketOutputBase to executionGraph::LogicSocketOutput--><path d="M290.1955,626.784 C318.4519,655.4083 354.9571,692.3888 384.4955,722.3118 " fill="none" id="executionGraph::LogicSocketOutputBase-executionGraph::LogicSocketOutput" style="stroke: #A80036; stroke-width: 1.0;"/><polygon fill="none" points="284.9168,631.4008,275.8481,612.2498,294.8802,621.5655,284.9168,631.4008" style="stroke: #A80036; stroke-width: 1.0;"/><!--link executionGraph::LogicSocketBase to executionGraph::LogicSocketInputBase--><path d="M548.7272,459.5712 C555.6063,490.1996 563.4742,525.2305 568.9857,549.7695 " fill="none" id="executionGraph::LogicSocketBase-executionGraph::LogicSocketInputBase" style="stroke: #A80036; stroke-width: 1.0;"/><polygon fill="none" points="541.8274,460.7932,544.2744,439.7453,555.4871,457.7252,541.8274,460.7932" style="stroke: #A80036; stroke-width: 1.0;"/><!--link executionGraph::LogicSocketBase to executionGraph::LogicSocketOutputBase--><path d="M448.0961,449.5849 C397.4024,482.3867 335.1248,522.6839 293,549.9412 " fill="none" id="executionGraph::LogicSocketBase-executionGraph::LogicSocketOutputBase" style="stroke: #A80036; stroke-width: 1.0;"/><polygon fill="none" points="444.5503,443.5417,465.1445,438.5536,452.1558,455.2956,444.5503,443.5417" style="stroke: #A80036; stroke-width: 1.0;"/><!--link executionGraph::LogicSocketBase to executionGraph::LogicSocketData--><!--link executionGraph::LogicSocketData to executionGraph::LogicSocketBase--><!--link executionGraph::LogicSocketInput to DummyNode--><path d="M773.7437,809.6882 C820.9839,827.7857 877.3491,852.4036 928.0122,883.5573 " fill="none" id="executionGraph::LogicSocketInput-DummyNode" style="stroke: #A80036; stroke-width: 1.0;"/><polygon fill="#A80036" points="939.0666,890.5206,936.1219,883.9381,928.9132,884.1246,931.8579,890.7071,939.0666,890.5206" style="stroke: #A80036; stroke-width: 1.0;"/><text fill="#000000" font-family="Fira Code" font-size="13" lengthAdjust="spacingAndGlyphs" textLength="8" x="923.3391" y="897.5385">*</text><!--link executionGraph::LogicSocketOutput to DummyNode--><path d="M537.7154,822.8221 C543.5082,824.8893 549.2958,826.8029 555,828.5 C715.1311,876.141 778.2614,817.4035 927.4394,884.6299 " fill="none" id="executionGraph::LogicSocketOutput-DummyNode" style="stroke: #A80036; stroke-width: 1.0;"/><polygon fill="#A80036" points="939.277,890.1446,935.5274,883.985,928.3994,885.0772,932.1491,891.2367,939.277,890.1446" style="stroke: #A80036; stroke-width: 1.0;"/><text fill="#000000" font-family="Fira Code" font-size="13" lengthAdjust="spacingAndGlyphs" textLength="8" x="923.5712" y="878.3706">*</text><!--link executionGraph::LogicSocketBase to executionGraph::LogicNode--><path d="M614.6251,430.4066 C653.583,449.2103 700.3659,473.6142 740,499.5 C745.6255,503.1741 751.3058,507.1063 756.9508,511.1857 " fill="none" id="executionGraph::LogicSocketBase-executionGraph::LogicNode" style="stroke: #A80036; stroke-width: 1.0;"/><polygon fill="#FFFFFF" points="602.8025,424.7553,606.4908,430.9518,613.6292,429.9305,609.9409,423.734,602.8025,424.7553" style="stroke: #A80036; stroke-width: 1.0;"/><text fill="#000000" font-family="Fira Code" font-size="13" lengthAdjust="spacingAndGlyphs" textLength="8" x="610.3103" y="422.908">1</text><!--link executionGraph::LogicSocketDataBase to executionGraph::LogicSocketData--><path d="M429,113.8988 C429,126.2393 429,139.9277 429,153.2796 " fill="none" id="executionGraph::LogicSocketDataBase-executionGraph::LogicSocketData" style="stroke: #A80036; stroke-width: 1.0;"/><polygon fill="none" points="422.0001,113.5057,429,93.5056,436.0001,113.5056,422.0001,113.5057" style="stroke: #A80036; stroke-width: 1.0;"/><!--link executionGraph::LogicSocketData to executionGraph::LogicSocketInputBase--><path d="M423.9033,301.8992 C424.1705,344.4616 429.2888,396.5717 448,439.5 C467.3906,483.9869 506.5065,523.8967 536.4213,549.8991 " fill="none" id="executionGraph::LogicSocketData-executionGraph::LogicSocketInputBase" style="stroke: #A80036; stroke-width: 1.0;"/><polygon fill="#FFFFFF" points="423.9711,288.7289,419.9402,294.7082,423.9093,300.7287,427.9401,294.7494,423.9711,288.7289" style="stroke: #A80036; stroke-width: 1.0;"/><text fill="#000000" font-family="Fira Code" font-size="13" lengthAdjust="spacingAndGlyphs" textLength="8" x="415.1105" y="308.8865">*</text><!--link executionGraph::LogicSocketData to executionGraph::LogicSocketOutputBase--><path d="M388.3699,300.4936 C348.2437,379.0015 288.9294,495.0513 260.847,549.995 " fill="none" id="executionGraph::LogicSocketData-executionGraph::LogicSocketOutputBase" style="stroke: #A80036; stroke-width: 1.0;"/><polygon fill="#FFFFFF" points="394.391,288.7132,388.0986,292.2353,388.9296,299.3984,395.222,295.8763,394.391,288.7132" style="stroke: #A80036; stroke-width: 1.0;"/><text fill="#000000" font-family="Fira Code" font-size="13" lengthAdjust="spacingAndGlyphs" textLength="8" x="382.7111" y="308.8693">*</text><!--link executionGraph::LogicSocketDataRef to executionGraph::LogicSocketData--><path d="M306.6001,221 C313.8779,221 321.1558,221 328.4336,221 " fill="none" id="executionGraph::LogicSocketDataRef-executionGraph::LogicSocketData" style="stroke: #A80036; stroke-width: 1.0;"/><polygon fill="#FFFFFF" points="293.5,221,299.5,225,305.5,221,299.5,217,293.5,221" style="stroke: #A80036; stroke-width: 1.0;"/><text fill="#000000" font-family="Fira Code" font-size="13" lengthAdjust="spacingAndGlyphs" textLength="8" x="301.5648" y="216.3841">1</text><!--link executionGraph::LogicSocketInput to executionGraph::LogicSocketConnections--><path d="M631.1081,839.5803 C620.0435,856.5056 608.1,874.7749 597.0282,891.7111 " fill="none" id="executionGraph::LogicSocketInput-executionGraph::LogicSocketConnections" style="stroke: #A80036; stroke-width: 1.0;"/><polygon fill="#A80036" points="638.2343,828.6797,631.6031,831.513,631.668,838.7238,638.2992,835.8905,638.2343,828.6797" style="stroke: #A80036; stroke-width: 1.0;"/><text fill="#000000" font-family="Fira Code" font-size="13" lengthAdjust="spacingAndGlyphs" textLength="8" x="625.5097" y="849.0869">1</text><!--link executionGraph::LogicSocketOutput to executionGraph::LogicSocketConnections--><path d="M478.8919,839.5803 C489.9565,856.5056 501.9,874.7749 512.9718,891.7111 " fill="none" id="executionGraph::LogicSocketOutput-executionGraph::LogicSocketConnections" style="stroke: #A80036; stroke-width: 1.0;"/><polygon fill="#A80036" points="471.7657,828.6797,471.7008,835.8905,478.332,838.7238,478.3969,831.513,471.7657,828.6797" style="stroke: #A80036; stroke-width: 1.0;"/><text fill="#000000" font-family="Fira Code" font-size="13" lengthAdjust="spacingAndGlyphs" textLength="8" x="467.5153" y="849.0869">1</text><!--link executionGraph::LogicSocketData to executionGraph::LogicSocketDataConnections--><path d="M542.782,221 C550.1104,221 557.4389,221 564.7673,221 " fill="none" id="executionGraph::LogicSocketData-executionGraph::LogicSocketDataConnections" style="stroke: #A80036; stroke-width: 1.0;"/><polygon fill="#A80036" points="529.5908,221,535.5908,225,541.5908,221,535.5908,217,529.5908,221" style="stroke: #A80036; stroke-width: 1.0;"/><text fill="#000000" font-family="Fira Code" font-size="13" lengthAdjust="spacingAndGlyphs" textLength="8" x="537.5985" y="216.2369">1</text><!--
@startuml core
set namespaceSeparator ::
skinparam shadowing false
skinparam defaultFontName "Fira Code"

class DummyNode{
    - -  In/Out Declerations - -
    + inDecls
    + outDecls
    - - Sockets - -
    - m_inSockets
    - m_outSockets
}

namespace executionGraph{

    class LogicNode{
        + init()
        + reset()
        + compute()

        + registerInputs(...)
        + registerOutputs(...)
        - -
        - m_inputs
        - m_outputs
    }

    class LogicSocketInput<Data> {
        + dataHandle() [const]

        + connections() [const]
        - -
        - Connections m_connections
    }

    class LogicSocketOutput<Data> {
        + dataHandle() [const]

        + connections() [const]
        - -
        - Connections m_connections
    }

    class LogicSocketBase {
        + type()
        + index()
        + parent()
    }

    class LogicSocketInputBase {
        + castToType<T>() -> LogicSocketInput<T>
    }

    class LogicSocketOutputBase {
        + castToType<T>() -> LogicSocketOutput<T>
    }

    class LogicSocketConnections<Traits, ParentSocket>{
        Connection for input/output sockets
        - -
        + connect(socketData)
        + disconnect(socketData)
        - -
        SocketDataConnections* m_connections
        Parent* m_parent
    }

    class LogicSocketDataConnections<Traits, ParentSocket>{
        Connection for data sockets
        - -
        + connect(socket)
        + disconnect(socket)
        - -
        m_inputs
        m_outputs
    }

    class LogicSocketData<Data>{
        + dataHandle() [const]
        + dataHandleConst()

        + connections() [const]
        - -
        - Data m_data
        - Connections m_connections
    } 

    class LogicSocketDataRef<Args...>{
        + setReference(socketData)
        - -
        - LogicSocketData<Args>* m_socketData
    } 

    class LogicSocketDataBase{

    }
}

DummyNode -up-|> executionGraph::LogicNode

executionGraph::LogicSocketInput -up-|> executionGraph::LogicSocketInputBase
executionGraph::LogicSocketOutput -up-|> executionGraph::LogicSocketOutputBase

executionGraph::LogicSocketInputBase -up-|> executionGraph::LogicSocketBase
executionGraph::LogicSocketOutputBase -up-|> executionGraph::LogicSocketBase
executionGraph::LogicSocketBase -[hidden]-> executionGraph::LogicSocketData
executionGraph::LogicSocketBase -up[hidden]-> executionGraph::LogicSocketData


DummyNode "*" *-up- executionGraph::LogicSocketInput
DummyNode "*" *-up- executionGraph::LogicSocketOutput

executionGraph::LogicSocketBase "1" o-down- executionGraph::LogicNode

executionGraph::LogicSocketData -up-|>  executionGraph::LogicSocketDataBase

executionGraph::LogicSocketData "*" o-down- executionGraph::LogicSocketInputBase
executionGraph::LogicSocketData "*" o-down- executionGraph::LogicSocketOutputBase

executionGraph::LogicSocketData -right-o "1" executionGraph::LogicSocketDataRef


executionGraph::LogicSocketInput "1" *- - executionGraph::LogicSocketConnections
executionGraph::LogicSocketOutput "1" *- - executionGraph::LogicSocketConnections

executionGraph::LogicSocketData "1" *-right- executionGraph::LogicSocketDataConnections
@enduml

PlantUML version 1.2018.13(Mon Nov 26 18:11:51 CET 2018)
(GPL source distribution)
Java Runtime: OpenJDK Runtime Environment
JVM: OpenJDK 64-Bit Server VM
Java Version: 11.0.6+10-post-Ubuntu-1ubuntu119.10.1
Operating System: Linux
OS Version: 5.3.0-45-generic
Default Encoding: UTF-8
Language: en
Country: US
--></g></svg>