<?xml version="1.0" encoding="UTF-8" standalone="no"?><svg xmlns="http://www.w3.org/2000/svg" xmlns:xlink="http://www.w3.org/1999/xlink" contentScriptType="application/ecmascript" contentStyleType="text/css" height="1691px" preserveAspectRatio="none" style="width:866px;height:1691px;" version="1.1" viewBox="0 0 866 1691" width="866px" zoomAndPan="magnify"><defs/><g><!--cluster executionGraph--><polygon fill="#FFFFFF" points="14,16,132,16,139,40.3679,706,40.3679,706,1679,14,1679,14,16" style="stroke: #000000; stroke-width: 1.5;"/><line style="stroke: #000000; stroke-width: 1.5;" x1="14" x2="139" y1="40.3679" y2="40.3679"/><text fill="#000000" font-family="Fira Code" font-size="14" font-weight="bold" lengthAdjust="spacingAndGlyphs" textLength="112" x="18" y="31.8599">executionGraph</text><!--cluster executionGraph::userData--><polygon fill="#FFFFFF" points="40,194,110,194,117,218.3679,564,218.3679,564,751,40,751,40,194" style="stroke: #000000; stroke-width: 1.5;"/><line style="stroke: #000000; stroke-width: 1.5;" x1="40" x2="117" y1="218.3679" y2="218.3679"/><text fill="#000000" font-family="Fira Code" font-size="14" font-weight="bold" lengthAdjust="spacingAndGlyphs" textLength="64" x="44" y="209.8599">userData</text><!--class executionGraph::LogicNode--><rect fill="#FEFECE" height="163.4576" id="executionGraph::LogicNode" style="stroke: #A80036; stroke-width: 1.5;" width="166" x="532" y="1113"/><ellipse cx="579.25" cy="1129" fill="#ADD1B2" rx="11" ry="11" style="stroke: #A80036; stroke-width: 1.0;"/><path d="M582.2188,1134.6406 Q581.6406,1134.9375 581,1135.0781 Q580.3594,1135.2344 579.6563,1135.2344 Q577.1563,1135.2344 575.8281,1133.5938 Q574.5156,1131.9375 574.5156,1128.8125 Q574.5156,1125.6875 575.8281,1124.0313 Q577.1563,1122.375 579.6563,1122.375 Q580.3594,1122.375 581,1122.5313 Q581.6563,1122.6875 582.2188,1122.9844 L582.2188,1125.7031 Q581.5938,1125.125 581,1124.8594 Q580.4063,1124.5781 579.7813,1124.5781 Q578.4375,1124.5781 577.75,1125.6563 Q577.0625,1126.7188 577.0625,1128.8125 Q577.0625,1130.9063 577.75,1131.9844 Q578.4375,1133.0469 579.7813,1133.0469 Q580.4063,1133.0469 581,1132.7813 Q581.5938,1132.5 582.2188,1131.9219 L582.2188,1134.6406 Z "/><text fill="#000000" font-family="Fira Code" font-size="12" lengthAdjust="spacingAndGlyphs" textLength="63" x="599.75" y="1133.008">LogicNode</text><line style="stroke: #A80036; stroke-width: 1.5;" x1="533" x2="697" y1="1145" y2="1145"/><ellipse cx="543" cy="1157.7161" fill="#84BE84" rx="3" ry="3" style="stroke: #038048; stroke-width: 1.0;"/><text fill="#000000" font-family="Fira Code" font-size="11" lengthAdjust="spacingAndGlyphs" textLength="42" x="552" y="1159.8902">init()</text><ellipse cx="543" cy="1172.1483" fill="#84BE84" rx="3" ry="3" style="stroke: #038048; stroke-width: 1.0;"/><text fill="#000000" font-family="Fira Code" font-size="11" lengthAdjust="spacingAndGlyphs" textLength="49" x="552" y="1174.3224">reset()</text><ellipse cx="543" cy="1186.5805" fill="#84BE84" rx="3" ry="3" style="stroke: #038048; stroke-width: 1.0;"/><text fill="#000000" font-family="Fira Code" font-size="11" lengthAdjust="spacingAndGlyphs" textLength="63" x="552" y="1188.7546">compute()</text><text fill="#000000" font-family="Fira Code" font-size="11" lengthAdjust="spacingAndGlyphs" textLength="0" x="559" y="1203.1868"/><ellipse cx="543" cy="1215.4449" fill="#84BE84" rx="3" ry="3" style="stroke: #038048; stroke-width: 1.0;"/><text fill="#000000" font-family="Fira Code" font-size="11" lengthAdjust="spacingAndGlyphs" textLength="133" x="552" y="1217.619">registerInputs(...)</text><ellipse cx="543" cy="1229.8771" fill="#84BE84" rx="3" ry="3" style="stroke: #038048; stroke-width: 1.0;"/><text fill="#000000" font-family="Fira Code" font-size="11" lengthAdjust="spacingAndGlyphs" textLength="140" x="552" y="1232.0512">registerOutputs(...)</text><line style="stroke: #A80036; stroke-width: 1.0;" x1="533" x2="697" y1="1239.5932" y2="1239.5932"/><rect fill="none" height="6" style="stroke: #C82930; stroke-width: 1.0;" width="6" x="540" y="1249.3093"/><text fill="#000000" font-family="Fira Code" font-size="11" lengthAdjust="spacingAndGlyphs" textLength="56" x="552" y="1254.4834">m_inputs</text><rect fill="none" height="6" style="stroke: #C82930; stroke-width: 1.0;" width="6" x="540" y="1263.7415"/><text fill="#000000" font-family="Fira Code" font-size="11" lengthAdjust="spacingAndGlyphs" textLength="63" x="552" y="1268.9156">m_outputs</text><!--class executionGraph::LogicSocketInput--><rect fill="#FEFECE" height="105.7288" id="executionGraph::LogicSocketInput" style="stroke: #A80036; stroke-width: 1.5;" width="201" x="295.5" y="1141.5"/><ellipse cx="321.75" cy="1157.5" fill="#ADD1B2" rx="11" ry="11" style="stroke: #A80036; stroke-width: 1.0;"/><path d="M324.7188,1163.1406 Q324.1406,1163.4375 323.5,1163.5781 Q322.8594,1163.7344 322.1563,1163.7344 Q319.6563,1163.7344 318.3281,1162.0938 Q317.0156,1160.4375 317.0156,1157.3125 Q317.0156,1154.1875 318.3281,1152.5313 Q319.6563,1150.875 322.1563,1150.875 Q322.8594,1150.875 323.5,1151.0313 Q324.1563,1151.1875 324.7188,1151.4844 L324.7188,1154.2031 Q324.0938,1153.625 323.5,1153.3594 Q322.9063,1153.0781 322.2813,1153.0781 Q320.9375,1153.0781 320.25,1154.1563 Q319.5625,1155.2188 319.5625,1157.3125 Q319.5625,1159.4063 320.25,1160.4844 Q320.9375,1161.5469 322.2813,1161.5469 Q322.9063,1161.5469 323.5,1161.2813 Q324.0938,1161 324.7188,1160.4219 L324.7188,1163.1406 Z "/><text fill="#000000" font-family="Fira Code" font-size="12" lengthAdjust="spacingAndGlyphs" textLength="112" x="338.25" y="1161.508">LogicSocketInput</text><rect fill="#FFFFFF" height="17.7441" style="stroke: #000000; stroke-width: 1.0; stroke-dasharray: 2.0,2.0;" width="30" x="469.5" y="1138.5"/><text fill="#000000" font-family="Fira Code" font-size="12" font-style="italic" lengthAdjust="spacingAndGlyphs" textLength="28" x="470.5" y="1151.3801">Data</text><line style="stroke: #A80036; stroke-width: 1.5;" x1="296.5" x2="495.5" y1="1173.5" y2="1173.5"/><ellipse cx="306.5" cy="1186.2161" fill="#84BE84" rx="3" ry="3" style="stroke: #038048; stroke-width: 1.0;"/><text fill="#000000" font-family="Fira Code" font-size="11" lengthAdjust="spacingAndGlyphs" textLength="140" x="315.5" y="1188.3902">dataHandle() [const]</text><text fill="#000000" font-family="Fira Code" font-size="11" lengthAdjust="spacingAndGlyphs" textLength="0" x="322.5" y="1202.8224"/><ellipse cx="306.5" cy="1215.0805" fill="#84BE84" rx="3" ry="3" style="stroke: #038048; stroke-width: 1.0;"/><text fill="#000000" font-family="Fira Code" font-size="11" lengthAdjust="spacingAndGlyphs" textLength="147" x="315.5" y="1217.2546">connections() [const]</text><line style="stroke: #A80036; stroke-width: 1.0;" x1="296.5" x2="495.5" y1="1224.7966" y2="1224.7966"/><rect fill="none" height="6" style="stroke: #C82930; stroke-width: 1.0;" width="6" x="303.5" y="1234.5127"/><text fill="#000000" font-family="Fira Code" font-size="11" lengthAdjust="spacingAndGlyphs" textLength="175" x="315.5" y="1239.6868">Connections m_connections</text><!--class executionGraph::LogicSocketOutput--><rect fill="#FEFECE" height="105.7288" id="executionGraph::LogicSocketOutput" style="stroke: #A80036; stroke-width: 1.5;" width="201" x="59.5" y="1141.5"/><ellipse cx="82.6" cy="1157.5" fill="#ADD1B2" rx="11" ry="11" style="stroke: #A80036; stroke-width: 1.0;"/><path d="M85.5688,1163.1406 Q84.9906,1163.4375 84.35,1163.5781 Q83.7094,1163.7344 83.0063,1163.7344 Q80.5063,1163.7344 79.1781,1162.0938 Q77.8656,1160.4375 77.8656,1157.3125 Q77.8656,1154.1875 79.1781,1152.5313 Q80.5063,1150.875 83.0063,1150.875 Q83.7094,1150.875 84.35,1151.0313 Q85.0063,1151.1875 85.5688,1151.4844 L85.5688,1154.2031 Q84.9438,1153.625 84.35,1153.3594 Q83.7563,1153.0781 83.1313,1153.0781 Q81.7875,1153.0781 81.1,1154.1563 Q80.4125,1155.2188 80.4125,1157.3125 Q80.4125,1159.4063 81.1,1160.4844 Q81.7875,1161.5469 83.1313,1161.5469 Q83.7563,1161.5469 84.35,1161.2813 Q84.9438,1161 85.5688,1160.4219 L85.5688,1163.1406 Z "/><text fill="#000000" font-family="Fira Code" font-size="12" lengthAdjust="spacingAndGlyphs" textLength="119" x="98.4" y="1161.508">LogicSocketOutput</text><rect fill="#FFFFFF" height="17.7441" style="stroke: #000000; stroke-width: 1.0; stroke-dasharray: 2.0,2.0;" width="30" x="233.5" y="1138.5"/><text fill="#000000" font-family="Fira Code" font-size="12" font-style="italic" lengthAdjust="spacingAndGlyphs" textLength="28" x="234.5" y="1151.3801">Data</text><line style="stroke: #A80036; stroke-width: 1.5;" x1="60.5" x2="259.5" y1="1173.5" y2="1173.5"/><ellipse cx="70.5" cy="1186.2161" fill="#84BE84" rx="3" ry="3" style="stroke: #038048; stroke-width: 1.0;"/><text fill="#000000" font-family="Fira Code" font-size="11" lengthAdjust="spacingAndGlyphs" textLength="140" x="79.5" y="1188.3902">dataHandle() [const]</text><text fill="#000000" font-family="Fira Code" font-size="11" lengthAdjust="spacingAndGlyphs" textLength="0" x="86.5" y="1202.8224"/><ellipse cx="70.5" cy="1215.0805" fill="#84BE84" rx="3" ry="3" style="stroke: #038048; stroke-width: 1.0;"/><text fill="#000000" font-family="Fira Code" font-size="11" lengthAdjust="spacingAndGlyphs" textLength="147" x="79.5" y="1217.2546">connections() [const]</text><line style="stroke: #A80036; stroke-width: 1.0;" x1="60.5" x2="259.5" y1="1224.7966" y2="1224.7966"/><rect fill="none" height="6" style="stroke: #C82930; stroke-width: 1.0;" width="6" x="67.5" y="1234.5127"/><text fill="#000000" font-family="Fira Code" font-size="11" lengthAdjust="spacingAndGlyphs" textLength="175" x="79.5" y="1239.6868">Connections m_connections</text><!--class executionGraph::LogicSocketBase--><rect fill="#FEFECE" height="105.7288" id="executionGraph::LogicSocketBase" style="stroke: #A80036; stroke-width: 1.5;" width="190" x="301" y="866"/><ellipse cx="316" cy="882" fill="#ADD1B2" rx="11" ry="11" style="stroke: #A80036; stroke-width: 1.0;"/><path d="M318.9688,887.6406 Q318.3906,887.9375 317.75,888.0781 Q317.1094,888.2344 316.4063,888.2344 Q313.9063,888.2344 312.5781,886.5938 Q311.2656,884.9375 311.2656,881.8125 Q311.2656,878.6875 312.5781,877.0313 Q313.9063,875.375 316.4063,875.375 Q317.1094,875.375 317.75,875.5313 Q318.4063,875.6875 318.9688,875.9844 L318.9688,878.7031 Q318.3438,878.125 317.75,877.8594 Q317.1563,877.5781 316.5313,877.5781 Q315.1875,877.5781 314.5,878.6563 Q313.8125,879.7188 313.8125,881.8125 Q313.8125,883.9063 314.5,884.9844 Q315.1875,886.0469 316.5313,886.0469 Q317.1563,886.0469 317.75,885.7813 Q318.3438,885.5 318.9688,884.9219 L318.9688,887.6406 Z "/><text fill="#000000" font-family="Fira Code" font-size="12" lengthAdjust="spacingAndGlyphs" textLength="105" x="330" y="886.008">LogicSocketBase</text><rect fill="#FFFFFF" height="17.7441" style="stroke: #000000; stroke-width: 1.0; stroke-dasharray: 2.0,2.0;" width="51" x="443" y="863"/><text fill="#000000" font-family="Fira Code" font-size="12" font-style="italic" lengthAdjust="spacingAndGlyphs" textLength="49" x="444" y="875.8801">IsInput</text><line style="stroke: #A80036; stroke-width: 1.5;" x1="302" x2="490" y1="898" y2="898"/><line style="stroke: #A80036; stroke-width: 1.5;" x1="302" x2="490" y1="906" y2="906"/><ellipse cx="312" cy="918.7161" fill="#84BE84" rx="3" ry="3" style="stroke: #038048; stroke-width: 1.0;"/><text fill="#000000" font-family="Fira Code" font-size="11" lengthAdjust="spacingAndGlyphs" textLength="42" x="321" y="920.8902">type()</text><ellipse cx="312" cy="933.1483" fill="#84BE84" rx="3" ry="3" style="stroke: #038048; stroke-width: 1.0;"/><text fill="#000000" font-family="Fira Code" font-size="11" lengthAdjust="spacingAndGlyphs" textLength="49" x="321" y="935.3224">index()</text><ellipse cx="312" cy="947.5805" fill="#84BE84" rx="3" ry="3" style="stroke: #038048; stroke-width: 1.0;"/><text fill="#000000" font-family="Fira Code" font-size="11" lengthAdjust="spacingAndGlyphs" textLength="56" x="321" y="949.7546">parent()</text><ellipse cx="312" cy="962.0127" fill="#84BE84" rx="3" ry="3" style="stroke: #038048; stroke-width: 1.0;"/><text fill="#000000" font-family="Fira Code" font-size="11" lengthAdjust="spacingAndGlyphs" textLength="105" x="321" y="964.1868">castToType&lt;T&gt;()</text><!--class executionGraph::LogicSocketConnections--><rect fill="#FEFECE" height="137.6492" id="executionGraph::LogicSocketConnections" style="stroke: #0000FF; stroke-width: 3.0;" width="330" x="22" y="1533"/><ellipse cx="37" cy="1553.7441" fill="#ADD1B2" rx="11" ry="11" style="stroke: #0000FF; stroke-width: 1.0;"/><path d="M39.9688,1559.3847 Q39.3906,1559.6816 38.75,1559.8222 Q38.1094,1559.9785 37.4063,1559.9785 Q34.9063,1559.9785 33.5781,1558.3379 Q32.2656,1556.6816 32.2656,1553.5566 Q32.2656,1550.4316 33.5781,1548.7754 Q34.9063,1547.1191 37.4063,1547.1191 Q38.1094,1547.1191 38.75,1547.2754 Q39.4063,1547.4316 39.9688,1547.7285 L39.9688,1550.4472 Q39.3438,1549.8691 38.75,1549.6035 Q38.1563,1549.3222 37.5313,1549.3222 Q36.1875,1549.3222 35.5,1550.4004 Q34.8125,1551.4629 34.8125,1553.5566 Q34.8125,1555.6504 35.5,1556.7285 Q36.1875,1557.791 37.5313,1557.791 Q38.1563,1557.791 38.75,1557.5254 Q39.3438,1557.2441 39.9688,1556.666 L39.9688,1559.3847 Z "/><text fill="#000000" font-family="Fira Code" font-size="12" font-style="italic" lengthAdjust="spacingAndGlyphs" textLength="91" x="82.5" y="1549.8801">«Connections»</text><text fill="#000000" font-family="Fira Code" font-size="12" lengthAdjust="spacingAndGlyphs" textLength="154" x="51" y="1565.6242">LogicSocketConnections</text><rect fill="#FFFFFF" height="17.7441" style="stroke: #000000; stroke-width: 1.0; stroke-dasharray: 2.0,2.0;" width="142" x="213" y="1530"/><text fill="#000000" font-family="Fira Code" font-size="12" font-style="italic" lengthAdjust="spacingAndGlyphs" textLength="140" x="214" y="1542.8801">Traits, ParentSocket</text><line style="stroke: #0000FF; stroke-width: 1.5;" x1="23" x2="351" y1="1574.4882" y2="1574.4882"/><text fill="#000000" font-family="Fira Code" font-size="11" lengthAdjust="spacingAndGlyphs" textLength="245" x="28" y="1589.3784">Connection for input/output sockets</text><line style="stroke: #0000FF; stroke-width: 1.0;" x1="23" x2="351" y1="1596.9204" y2="1596.9204"/><ellipse cx="33" cy="1609.6365" fill="#84BE84" rx="3" ry="3" style="stroke: #038048; stroke-width: 1.0;"/><text fill="#000000" font-family="Fira Code" font-size="11" lengthAdjust="spacingAndGlyphs" textLength="133" x="42" y="1611.8106">connect(socketData)</text><ellipse cx="33" cy="1624.0687" fill="#84BE84" rx="3" ry="3" style="stroke: #038048; stroke-width: 1.0;"/><text fill="#000000" font-family="Fira Code" font-size="11" lengthAdjust="spacingAndGlyphs" textLength="154" x="42" y="1626.2428">disconnect(socketData)</text><line style="stroke: #0000FF; stroke-width: 1.0;" x1="23" x2="351" y1="1633.7848" y2="1633.7848"/><text fill="#000000" font-family="Fira Code" font-size="11" lengthAdjust="spacingAndGlyphs" textLength="252" x="28" y="1648.675">SocketDataConnections* m_connections</text><text fill="#000000" font-family="Fira Code" font-size="11" lengthAdjust="spacingAndGlyphs" textLength="112" x="28" y="1663.1072">Parent* m_parent</text><!--class executionGraph::LogicSocketDataBase--><rect fill="#FEFECE" height="48" id="executionGraph::LogicSocketDataBase" style="stroke: #A80036; stroke-width: 1.5;" width="165" x="372.5" y="45"/><ellipse cx="387.5" cy="61" fill="#ADD1B2" rx="11" ry="11" style="stroke: #A80036; stroke-width: 1.0;"/><path d="M390.4688,66.6406 Q389.8906,66.9375 389.25,67.0781 Q388.6094,67.2344 387.9063,67.2344 Q385.4063,67.2344 384.0781,65.5938 Q382.7656,63.9375 382.7656,60.8125 Q382.7656,57.6875 384.0781,56.0313 Q385.4063,54.375 387.9063,54.375 Q388.6094,54.375 389.25,54.5313 Q389.9063,54.6875 390.4688,54.9844 L390.4688,57.7031 Q389.8438,57.125 389.25,56.8594 Q388.6563,56.5781 388.0313,56.5781 Q386.6875,56.5781 386,57.6563 Q385.3125,58.7188 385.3125,60.8125 Q385.3125,62.9063 386,63.9844 Q386.6875,65.0469 388.0313,65.0469 Q388.6563,65.0469 389.25,64.7813 Q389.8438,64.5 390.4688,63.9219 L390.4688,66.6406 Z "/><text fill="#000000" font-family="Fira Code" font-size="12" lengthAdjust="spacingAndGlyphs" textLength="133" x="401.5" y="65.008">LogicSocketDataBase</text><line style="stroke: #A80036; stroke-width: 1.5;" x1="373.5" x2="536.5" y1="77" y2="77"/><line style="stroke: #A80036; stroke-width: 1.5;" x1="373.5" x2="536.5" y1="85" y2="85"/><!--class executionGraph::userData::LogicSocketDataConnections--><rect fill="#FEFECE" height="137.6492" id="executionGraph::userData::LogicSocketDataConnections" style="stroke: #0000FF; stroke-width: 3.0;" width="358" x="198" y="605"/><ellipse cx="213" cy="625.7441" fill="#ADD1B2" rx="11" ry="11" style="stroke: #0000FF; stroke-width: 1.0;"/><path d="M215.9688,631.3847 Q215.3906,631.6816 214.75,631.8222 Q214.1094,631.9785 213.4063,631.9785 Q210.9063,631.9785 209.5781,630.3379 Q208.2656,628.6816 208.2656,625.5566 Q208.2656,622.4316 209.5781,620.7754 Q210.9063,619.1191 213.4063,619.1191 Q214.1094,619.1191 214.75,619.2754 Q215.4063,619.4316 215.9688,619.7285 L215.9688,622.4472 Q215.3438,621.8691 214.75,621.6035 Q214.1563,621.3222 213.5313,621.3222 Q212.1875,621.3222 211.5,622.4004 Q210.8125,623.4629 210.8125,625.5566 Q210.8125,627.6504 211.5,628.7285 Q212.1875,629.791 213.5313,629.791 Q214.1563,629.791 214.75,629.5254 Q215.3438,629.2441 215.9688,628.666 L215.9688,631.3847 Z "/><text fill="#000000" font-family="Fira Code" font-size="12" font-style="italic" lengthAdjust="spacingAndGlyphs" textLength="91" x="272.5" y="621.8801">«Connections»</text><text fill="#000000" font-family="Fira Code" font-size="12" lengthAdjust="spacingAndGlyphs" textLength="182" x="227" y="637.6242">LogicSocketDataConnections</text><rect fill="#FFFFFF" height="17.7441" style="stroke: #000000; stroke-width: 1.0; stroke-dasharray: 2.0,2.0;" width="142" x="417" y="602"/><text fill="#000000" font-family="Fira Code" font-size="12" font-style="italic" lengthAdjust="spacingAndGlyphs" textLength="140" x="418" y="614.8801">Traits, ParentSocket</text><line style="stroke: #0000FF; stroke-width: 1.5;" x1="199" x2="555" y1="646.4882" y2="646.4882"/><text fill="#000000" font-family="Fira Code" font-size="11" lengthAdjust="spacingAndGlyphs" textLength="189" x="204" y="661.3784">Connection for data sockets</text><line style="stroke: #0000FF; stroke-width: 1.0;" x1="199" x2="555" y1="668.9204" y2="668.9204"/><ellipse cx="209" cy="681.6365" fill="#84BE84" rx="3" ry="3" style="stroke: #038048; stroke-width: 1.0;"/><text fill="#000000" font-family="Fira Code" font-size="11" lengthAdjust="spacingAndGlyphs" textLength="105" x="218" y="683.8106">connect(socket)</text><ellipse cx="209" cy="696.0687" fill="#84BE84" rx="3" ry="3" style="stroke: #038048; stroke-width: 1.0;"/><text fill="#000000" font-family="Fira Code" font-size="11" lengthAdjust="spacingAndGlyphs" textLength="126" x="218" y="698.2428">disconnect(socket)</text><line style="stroke: #0000FF; stroke-width: 1.0;" x1="199" x2="555" y1="705.7848" y2="705.7848"/><text fill="#000000" font-family="Fira Code" font-size="11" lengthAdjust="spacingAndGlyphs" textLength="56" x="204" y="720.675">m_inputs</text><text fill="#000000" font-family="Fira Code" font-size="11" lengthAdjust="spacingAndGlyphs" textLength="63" x="204" y="735.1072">m_outputs</text><!--class executionGraph::userData::LogicSocketData--><rect fill="#FEFECE" height="134.5932" id="executionGraph::userData::LogicSocketData" style="stroke: #A80036; stroke-width: 1.5;" width="201" x="354.5" y="223"/><ellipse cx="383.9" cy="239" fill="#ADD1B2" rx="11" ry="11" style="stroke: #A80036; stroke-width: 1.0;"/><path d="M386.8688,244.6406 Q386.2906,244.9375 385.65,245.0781 Q385.0094,245.2344 384.3063,245.2344 Q381.8063,245.2344 380.4781,243.5938 Q379.1656,241.9375 379.1656,238.8125 Q379.1656,235.6875 380.4781,234.0313 Q381.8063,232.375 384.3063,232.375 Q385.0094,232.375 385.65,232.5313 Q386.3063,232.6875 386.8688,232.9844 L386.8688,235.7031 Q386.2438,235.125 385.65,234.8594 Q385.0563,234.5781 384.4313,234.5781 Q383.0875,234.5781 382.4,235.6563 Q381.7125,236.7188 381.7125,238.8125 Q381.7125,240.9063 382.4,241.9844 Q383.0875,243.0469 384.4313,243.0469 Q385.0563,243.0469 385.65,242.7813 Q386.2438,242.5 386.8688,241.9219 L386.8688,244.6406 Z "/><text fill="#000000" font-family="Fira Code" font-size="12" lengthAdjust="spacingAndGlyphs" textLength="105" x="401.1" y="243.008">LogicSocketData</text><rect fill="#FFFFFF" height="17.7441" style="stroke: #000000; stroke-width: 1.0; stroke-dasharray: 2.0,2.0;" width="30" x="528.5" y="220"/><text fill="#000000" font-family="Fira Code" font-size="12" font-style="italic" lengthAdjust="spacingAndGlyphs" textLength="28" x="529.5" y="232.8801">Data</text><line style="stroke: #A80036; stroke-width: 1.5;" x1="355.5" x2="554.5" y1="255" y2="255"/><ellipse cx="365.5" cy="267.7161" fill="#84BE84" rx="3" ry="3" style="stroke: #038048; stroke-width: 1.0;"/><text fill="#000000" font-family="Fira Code" font-size="11" lengthAdjust="spacingAndGlyphs" textLength="140" x="374.5" y="269.8902">dataHandle() [const]</text><ellipse cx="365.5" cy="282.1483" fill="#84BE84" rx="3" ry="3" style="stroke: #038048; stroke-width: 1.0;"/><text fill="#000000" font-family="Fira Code" font-size="11" lengthAdjust="spacingAndGlyphs" textLength="119" x="374.5" y="284.3224">dataHandleConst()</text><text fill="#000000" font-family="Fira Code" font-size="11" lengthAdjust="spacingAndGlyphs" textLength="0" x="381.5" y="298.7546"/><ellipse cx="365.5" cy="311.0127" fill="#84BE84" rx="3" ry="3" style="stroke: #038048; stroke-width: 1.0;"/><text fill="#000000" font-family="Fira Code" font-size="11" lengthAdjust="spacingAndGlyphs" textLength="147" x="374.5" y="313.1868">connections() [const]</text><line style="stroke: #A80036; stroke-width: 1.0;" x1="355.5" x2="554.5" y1="320.7288" y2="320.7288"/><rect fill="none" height="6" style="stroke: #C82930; stroke-width: 1.0;" width="6" x="362.5" y="330.4449"/><text fill="#000000" font-family="Fira Code" font-size="11" lengthAdjust="spacingAndGlyphs" textLength="77" x="374.5" y="335.619">Data m_data</text><rect fill="none" height="6" style="stroke: #C82930; stroke-width: 1.0;" width="6" x="362.5" y="344.8771"/><text fill="#000000" font-family="Fira Code" font-size="11" lengthAdjust="spacingAndGlyphs" textLength="175" x="374.5" y="350.0512">Connections m_connections</text><!--class executionGraph::userData::LogicSocketDataRef--><rect fill="#FEFECE" height="76.8644" id="executionGraph::userData::LogicSocketDataRef" style="stroke: #A80036; stroke-width: 1.5;" width="271" x="48.5" y="252"/><ellipse cx="90.5" cy="268" fill="#ADD1B2" rx="11" ry="11" style="stroke: #A80036; stroke-width: 1.0;"/><path d="M93.4688,273.6406 Q92.8906,273.9375 92.25,274.0781 Q91.6094,274.2344 90.9063,274.2344 Q88.4063,274.2344 87.0781,272.5938 Q85.7656,270.9375 85.7656,267.8125 Q85.7656,264.6875 87.0781,263.0313 Q88.4063,261.375 90.9063,261.375 Q91.6094,261.375 92.25,261.5313 Q92.9063,261.6875 93.4688,261.9844 L93.4688,264.7031 Q92.8438,264.125 92.25,263.8594 Q91.6563,263.5781 91.0313,263.5781 Q89.6875,263.5781 89,264.6563 Q88.3125,265.7188 88.3125,267.8125 Q88.3125,269.9063 89,270.9844 Q89.6875,272.0469 91.0313,272.0469 Q91.6563,272.0469 92.25,271.7813 Q92.8438,271.5 93.4688,270.9219 L93.4688,273.6406 Z "/><text fill="#000000" font-family="Fira Code" font-size="12" lengthAdjust="spacingAndGlyphs" textLength="126" x="110.5" y="272.008">LogicSocketDataRef</text><rect fill="#FFFFFF" height="17.7441" style="stroke: #000000; stroke-width: 1.0; stroke-dasharray: 2.0,2.0;" width="51" x="271.5" y="249"/><text fill="#000000" font-family="Fira Code" font-size="12" font-style="italic" lengthAdjust="spacingAndGlyphs" textLength="49" x="272.5" y="261.8801">Args...</text><line style="stroke: #A80036; stroke-width: 1.5;" x1="49.5" x2="318.5" y1="284" y2="284"/><ellipse cx="59.5" cy="296.7161" fill="#84BE84" rx="3" ry="3" style="stroke: #038048; stroke-width: 1.0;"/><text fill="#000000" font-family="Fira Code" font-size="11" lengthAdjust="spacingAndGlyphs" textLength="168" x="68.5" y="298.8902">setReference(socketData)</text><line style="stroke: #A80036; stroke-width: 1.0;" x1="49.5" x2="318.5" y1="306.4322" y2="306.4322"/><rect fill="none" height="6" style="stroke: #C82930; stroke-width: 1.0;" width="6" x="56.5" y="316.1483"/><text fill="#000000" font-family="Fira Code" font-size="11" lengthAdjust="spacingAndGlyphs" textLength="245" x="68.5" y="321.3224">LogicSocketData&lt;Args&gt;* m_socketData</text><!--class DummyNode--><rect fill="#FEFECE" height="134.5932" id="DummyNode" style="stroke: #A80036; stroke-width: 1.5;" width="141" x="714.5" y="1337"/><ellipse cx="750.2" cy="1353" fill="#ADD1B2" rx="11" ry="11" style="stroke: #A80036; stroke-width: 1.0;"/><path d="M753.1688,1358.6406 Q752.5906,1358.9375 751.95,1359.0781 Q751.3094,1359.2344 750.6063,1359.2344 Q748.1063,1359.2344 746.7781,1357.5938 Q745.4656,1355.9375 745.4656,1352.8125 Q745.4656,1349.6875 746.7781,1348.0313 Q748.1063,1346.375 750.6063,1346.375 Q751.3094,1346.375 751.95,1346.5313 Q752.6063,1346.6875 753.1688,1346.9844 L753.1688,1349.7031 Q752.5438,1349.125 751.95,1348.8594 Q751.3563,1348.5781 750.7313,1348.5781 Q749.3875,1348.5781 748.7,1349.6563 Q748.0125,1350.7188 748.0125,1352.8125 Q748.0125,1354.9063 748.7,1355.9844 Q749.3875,1357.0469 750.7313,1357.0469 Q751.3563,1357.0469 751.95,1356.7813 Q752.5438,1356.5 753.1688,1355.9219 L753.1688,1358.6406 Z "/><text fill="#000000" font-family="Fira Code" font-size="12" lengthAdjust="spacingAndGlyphs" textLength="63" x="768.8" y="1357.008">DummyNode</text><line style="stroke: #A80036; stroke-width: 1.5;" x1="715.5" x2="854.5" y1="1369" y2="1369"/><ellipse cx="725.5" cy="1400.1483" fill="none" rx="3" ry="3" style="stroke: #038048; stroke-width: 1.0;"/><text fill="#000000" font-family="Fira Code" font-size="11" lengthAdjust="spacingAndGlyphs" textLength="49" x="734.5" y="1402.3224">inDecls</text><ellipse cx="725.5" cy="1414.5805" fill="none" rx="3" ry="3" style="stroke: #038048; stroke-width: 1.0;"/><text fill="#000000" font-family="Fira Code" font-size="11" lengthAdjust="spacingAndGlyphs" textLength="56" x="734.5" y="1416.7546">outDecls</text><line style="stroke: #A80036; stroke-width: 1.0;" x1="715.5" x2="718.5" y1="1384.2161" y2="1384.2161"/><text fill="#000000" font-family="Fira Code" font-size="11" lengthAdjust="spacingAndGlyphs" textLength="133" x="718.5" y="1387.3902">In/Out Declerations</text><line style="stroke: #A80036; stroke-width: 1.0;" x1="851.5" x2="854.5" y1="1384.2161" y2="1384.2161"/><rect fill="none" height="6" style="stroke: #C82930; stroke-width: 1.0;" width="6" x="722.5" y="1444.4449"/><text fill="#000000" font-family="Fira Code" font-size="11" lengthAdjust="spacingAndGlyphs" textLength="77" x="734.5" y="1449.619">m_inSockets</text><rect fill="none" height="6" style="stroke: #C82930; stroke-width: 1.0;" width="6" x="722.5" y="1458.8771"/><text fill="#000000" font-family="Fira Code" font-size="11" lengthAdjust="spacingAndGlyphs" textLength="84" x="734.5" y="1464.0512">m_outSockets</text><line style="stroke: #A80036; stroke-width: 1.0;" x1="715.5" x2="760.5" y1="1431.5127" y2="1431.5127"/><text fill="#000000" font-family="Fira Code" font-size="11" lengthAdjust="spacingAndGlyphs" textLength="49" x="760.5" y="1434.6868">Sockets</text><line style="stroke: #A80036; stroke-width: 1.0;" x1="809.5" x2="854.5" y1="1431.5127" y2="1431.5127"/><!--link executionGraph::LogicNode to DummyNode--><path d="M693.9081,1291.9747 C706.1908,1307.1475 718.6441,1322.5309 730.2349,1336.849 " fill="none" id="executionGraph::LogicNode-DummyNode" style="stroke: #A80036; stroke-width: 1.0;"/><polygon fill="none" points="688.3565,1296.2421,681.2132,1276.2928,699.2379,1287.4333,688.3565,1296.2421" style="stroke: #A80036; stroke-width: 1.0;"/><!--link executionGraph::LogicSocketBase to executionGraph::LogicSocketInput--><path d="M396,992.2871 C396,1039.0955 396,1098.7261 396,1141.0746 " fill="none" id="executionGraph::LogicSocketBase-executionGraph::LogicSocketInput" style="stroke: #A80036; stroke-width: 1.0;"/><polygon fill="none" points="389.0001,992.1192,396,972.1192,403.0001,992.1191,389.0001,992.1192" style="stroke: #A80036; stroke-width: 1.0;"/><!--link executionGraph::LogicSocketBase to executionGraph::LogicSocketOutput--><path d="M337.2368,987.5985 C296.5837,1035.0559 243.2651,1097.2986 205.7655,1141.0746 " fill="none" id="executionGraph::LogicSocketBase-executionGraph::LogicSocketOutput" style="stroke: #A80036; stroke-width: 1.0;"/><polygon fill="none" points="332.1693,982.7543,350.4968,972.1192,342.8017,991.8622,332.1693,982.7543" style="stroke: #A80036; stroke-width: 1.0;"/><!--link executionGraph::LogicSocketBase to executionGraph::LogicNode--><path d="M427.9158,972.1192 C454.7938,1009.0321 494.0617,1059.1827 529.7776,1102.5161 " fill="none" id="executionGraph::LogicSocketBase-executionGraph::LogicNode" style="stroke: #A80036; stroke-width: 1.0;"/><polygon fill="#FFFFFF" points="538.2907,1112.7963,537.5446,1105.6239,530.637,1103.554,531.3831,1110.7264,538.2907,1112.7963" style="stroke: #A80036; stroke-width: 1.0;"/><text fill="#000000" font-family="Fira Code" font-size="13" lengthAdjust="spacingAndGlyphs" textLength="8" x="523.3547" y="1100.8972">*</text><!--link executionGraph::LogicSocketBase to executionGraph::LogicNode--><path d="M457.8253,982.2293 C490.8858,1021.0007 530.9599,1071.0402 562.5056,1112.7963 " fill="none" id="executionGraph::LogicSocketBase-executionGraph::LogicNode" style="stroke: #A80036; stroke-width: 1.0;"/><polygon fill="#FFFFFF" points="449.1414,972.1192,450.0165,979.277,456.9603,981.2222,456.0852,974.0644,449.1414,972.1192" style="stroke: #A80036; stroke-width: 1.0;"/><text fill="#000000" font-family="Fira Code" font-size="13" lengthAdjust="spacingAndGlyphs" textLength="8" x="447.1305" y="992.519">1</text><!--link executionGraph::LogicSocketInput to DummyNode--><path d="M466.2701,1247.6813 C481.8039,1257.9793 498.5491,1268.0307 515,1276 C593.0967,1313.8322 628.348,1293.8266 702.4326,1332.4411 " fill="none" id="executionGraph::LogicSocketInput-DummyNode" style="stroke: #A80036; stroke-width: 1.0;"/><polygon fill="#A80036" points="714.16,1338.8671,710.8203,1332.476,703.6363,1333.1007,706.976,1339.4918,714.16,1338.8671" style="stroke: #A80036; stroke-width: 1.0;"/><text fill="#000000" font-family="Fira Code" font-size="13" lengthAdjust="spacingAndGlyphs" textLength="8" x="698.4421" y="1345.8691">*</text><!--link executionGraph::LogicSocketOutput to DummyNode--><path d="M225.5742,1247.6694 C241.8887,1258.6129 259.9097,1268.9376 278,1276 C364.8063,1309.8888 602.4664,1296.8369 702.2633,1333.6188 " fill="none" id="executionGraph::LogicSocketOutput-DummyNode" style="stroke: #A80036; stroke-width: 1.0;"/><polygon fill="#A80036" points="714.289,1338.6193,710.2847,1332.6222,703.2088,1334.0118,707.2131,1340.009,714.289,1338.6193" style="stroke: #A80036; stroke-width: 1.0;"/><text fill="#000000" font-family="Fira Code" font-size="13" lengthAdjust="spacingAndGlyphs" textLength="8" x="698.5844" y="1326.8427">*</text><!--link executionGraph::LogicSocketInput to executionGraph::LogicSocketConnections--><path d="M362.5104,1259.7968 C324.1925,1334.5075 261.7025,1456.3481 222.5446,1532.6965 " fill="none" id="executionGraph::LogicSocketInput-executionGraph::LogicSocketConnections" style="stroke: #A80036; stroke-width: 1.0;"/><polygon fill="#A80036" points="368.6769,1247.7735,362.3795,1251.2868,363.2005,1258.451,369.4979,1254.9377,368.6769,1247.7735" style="stroke: #A80036; stroke-width: 1.0;"/><text fill="#000000" font-family="Fira Code" font-size="13" lengthAdjust="spacingAndGlyphs" textLength="8" x="356.8594" y="1268.1921">1</text><!--link executionGraph::LogicSocketOutput to executionGraph::LogicSocketConnections--><path d="M164.4186,1261.1886 C169.3763,1336.013 177.3807,1456.8203 182.4081,1532.6965 " fill="none" id="executionGraph::LogicSocketOutput-executionGraph::LogicSocketConnections" style="stroke: #A80036; stroke-width: 1.0;"/><polygon fill="#A80036" points="163.5298,1247.7735,159.9353,1254.0249,164.3232,1259.7472,167.9178,1253.4959,163.5298,1247.7735" style="stroke: #A80036; stroke-width: 1.0;"/><text fill="#000000" font-family="Fira Code" font-size="13" lengthAdjust="spacingAndGlyphs" textLength="8" x="155.4725" y="1268.1921">1</text><!--link executionGraph::LogicSocketDataBase to executionGraph::userData::LogicSocketData--><path d="M455,113.2076 C455,144.4909 455,187.0312 455,222.5999 " fill="none" id="executionGraph::LogicSocketDataBase-executionGraph::userData::LogicSocketData" style="stroke: #A80036; stroke-width: 1.0;"/><polygon fill="none" points="448.0001,113.1261,455,93.126,462.0001,113.126,448.0001,113.1261" style="stroke: #A80036; stroke-width: 1.0;"/><!--link executionGraph::userData::LogicSocketDataConnections to executionGraph::LogicSocketBase--><path d="M383.3813,756.2856 C386.1864,792.4565 389.3995,833.8889 391.8814,865.8923 " fill="none" id="executionGraph::userData::LogicSocketDataConnections-executionGraph::LogicSocketBase" style="stroke: #A80036; stroke-width: 1.0;"/><polygon fill="#FFFFFF" points="382.3685,743.2248,378.8445,749.5162,383.2965,755.1889,386.8205,748.8975,382.3685,743.2248" style="stroke: #A80036; stroke-width: 1.0;"/><text fill="#000000" font-family="Fira Code" font-size="13" lengthAdjust="spacingAndGlyphs" textLength="8" x="374.4989" y="763.5223">*</text><!--link executionGraph::userData::LogicSocketDataRef to executionGraph::userData::LogicSocketData--><path d="M333.0104,290.5 C340.1289,290.5 347.2474,290.5 354.3659,290.5 " fill="none" id="executionGraph::userData::LogicSocketDataRef-executionGraph::userData::LogicSocketData" style="stroke: #A80036; stroke-width: 1.0;"/><polygon fill="#FFFFFF" points="319.7646,290.5,325.7646,294.5,331.7646,290.5,325.7646,286.5,319.7646,290.5" style="stroke: #A80036; stroke-width: 1.0;"/><text fill="#000000" font-family="Fira Code" font-size="13" lengthAdjust="spacingAndGlyphs" textLength="8" x="327.408" y="285.9104">1</text><!--link executionGraph::userData::LogicSocketData to executionGraph::userData::LogicSocketDataConnections--><path d="M422.9093,370.8388 C418.8044,386.7146 416,403.4384 416,419.5 C416,419.5 416,419.5 416,543.5 C416,563.8359 411.5987,585.236 405.7532,604.6904 " fill="none" id="executionGraph::userData::LogicSocketData-executionGraph::userData::LogicSocketDataConnections" style="stroke: #A80036; stroke-width: 1.0;"/><polygon fill="#A80036" points="426.4513,358.3174,420.9691,363.002,423.1848,369.8643,428.667,365.1797,426.4513,358.3174" style="stroke: #A80036; stroke-width: 1.0;"/><text fill="#000000" font-family="Fira Code" font-size="13" lengthAdjust="spacingAndGlyphs" textLength="8" x="415.349" y="378.4835">1</text><!--link executionGraph::LogicSocketConnections to executionGraph::userData::LogicSocketDataConnections--><path d="M139.5337,1521.1154 C104.827,1457.0473 60.6851,1363.9867 42,1276 C26.9511,1205.1359 37.1165,1185.2797 42,1113 C45.3409,1063.5512 57,1052.0615 57,1002.5 C57,804.5 57,804.5 57,804.5 C57,769.1763 124.7005,738.7386 197.8223,716.1653 " fill="none" id="executionGraph::LogicSocketConnections-executionGraph::userData::LogicSocketDataConnections" style="stroke: #A80036; stroke-width: 1.0;"/><polygon fill="#A80036" points="145.8961,1532.7332,146.5224,1525.5493,140.132,1522.2082,139.5057,1529.3921,145.8961,1532.7332" style="stroke: #A80036; stroke-width: 1.0;"/><text fill="#000000" font-family="Fira Code" font-size="13" lengthAdjust="spacingAndGlyphs" textLength="96" x="57" y="1046.87">design-error</text><text fill="#000000" font-family="Fira Code" font-size="13" lengthAdjust="spacingAndGlyphs" textLength="8" x="133.2448" y="1520.6045">1</text><!--
@startuml core
set namespaceSeparator ::
skinparam shadowing false
skinparam defaultFontName "Fira Code"

skinparam class{
    BorderColor<< Connections >> Blue
    BorderThickness<< Connections >> 3
}

class DummyNode{
    - -  In/Out Declerations - -
    + inDecls
    + outDecls
    - - Sockets - -
    - m_inSockets
    - m_outSockets
}

namespace executionGraph{

    class LogicNode{
        + init()
        + reset()
        + compute()

        + registerInputs(...)
        + registerOutputs(...)
        - -
        - m_inputs
        - m_outputs
    }

    class LogicSocketInput<Data> {
        + dataHandle() [const]

        + connections() [const]
        - -
        - Connections m_connections
    }

    class LogicSocketOutput<Data> {
        + dataHandle() [const]

        + connections() [const]
        - -
        - Connections m_connections
    }

    class LogicSocketBase<IsInput> {
        + type()
        + index()
        + parent()
        + castToType<T>()
    }

    class LogicSocketConnections<Traits, ParentSocket> << Connections >>{
        Connection for input/output sockets
        - -
        + connect(socketData)
        + disconnect(socketData)
        - -
        SocketDataConnections* m_connections
        Parent* m_parent
    }

    namespace userData{
        class LogicSocketDataConnections<Traits, ParentSocket> << Connections >> {
            Connection for data sockets
            - -
            + connect(socket)
            + disconnect(socket)
            - -
            m_inputs
            m_outputs
        }

        class LogicSocketData<Data>{
            + dataHandle() [const]
            + dataHandleConst()

            + connections() [const]
            - -
            - Data m_data
            - Connections m_connections
        }


        class LogicSocketDataRef<Args...>{
            + setReference(socketData)
            - -
            - LogicSocketData<Args>* m_socketData
        }

    }

    class LogicSocketDataBase{

    }
}

DummyNode -up-|> executionGraph::LogicNode

executionGraph::LogicSocketInput -up-|> executionGraph::LogicSocketBase
executionGraph::LogicSocketOutput -up-|> executionGraph::LogicSocketBase

executionGraph::LogicNode "*" o-up- executionGraph::LogicSocketBase 



DummyNode "*" *-up- executionGraph::LogicSocketInput
DummyNode "*" *-up- executionGraph::LogicSocketOutput

executionGraph::LogicSocketInput "1" *- - executionGraph::LogicSocketConnections
executionGraph::LogicSocketOutput "1" *- - executionGraph::LogicSocketConnections

executionGraph::LogicSocketBase "1" o-down- executionGraph::LogicNode

executionGraph::userData::LogicSocketData -up-|> executionGraph::LogicSocketDataBase
executionGraph::userData::LogicSocketDataConnections "*" o-down- executionGraph::LogicSocketBase
executionGraph::userData::LogicSocketData -right-o "1" executionGraph::userData::LogicSocketDataRef
executionGraph::userData::LogicSocketData "1" *-down- executionGraph::userData::LogicSocketDataConnections

executionGraph::LogicSocketConnections "1" *- - executionGraph::userData::LogicSocketDataConnections : design-error

@enduml

PlantUML version 1.2018.13(Mon Nov 26 18:11:51 CET 2018)
(GPL source distribution)
Java Runtime: OpenJDK Runtime Environment
JVM: OpenJDK 64-Bit Server VM
Java Version: 11.0.6+10-post-Ubuntu-1ubuntu119.10.1
Operating System: Linux
OS Version: 5.3.0-45-generic
Default Encoding: UTF-8
Language: en
Country: US
--></g></svg>