<?xml version="1.0" encoding="UTF-8" standalone="no"?><svg xmlns="http://www.w3.org/2000/svg" xmlns:xlink="http://www.w3.org/1999/xlink" contentScriptType="application/ecmascript" contentStyleType="text/css" height="1647px" preserveAspectRatio="none" style="width:892px;height:1647px;" version="1.1" viewBox="0 0 892 1647" width="892px" zoomAndPan="magnify"><defs/><g><!--cluster executionGraph--><polygon fill="#FFFFFF" points="14.9629,16,132.9629,16,139.9629,40.3679,731.9629,40.3679,731.9629,1635,14.9629,1635,14.9629,16" style="stroke: #000000; stroke-width: 1.5;"/><line style="stroke: #000000; stroke-width: 1.5;" x1="14.9629" x2="139.9629" y1="40.3679" y2="40.3679"/><text fill="#000000" font-family="Fira Code" font-size="14" font-weight="bold" lengthAdjust="spacingAndGlyphs" textLength="112" x="18.9629" y="31.8599">executionGraph</text><!--cluster executionGraph::userData--><polygon fill="#FFFFFF" points="22.9629,194,92.9629,194,99.9629,218.3679,546.9629,218.3679,546.9629,751,22.9629,751,22.9629,194" style="stroke: #000000; stroke-width: 1.5;"/><line style="stroke: #000000; stroke-width: 1.5;" x1="22.9629" x2="99.9629" y1="218.3679" y2="218.3679"/><text fill="#000000" font-family="Fira Code" font-size="14" font-weight="bold" lengthAdjust="spacingAndGlyphs" textLength="64" x="26.9629" y="209.8599">userData</text><!--class executionGraph::LogicNode--><rect fill="#FEFECE" height="163.4576" id="executionGraph::LogicNode" style="stroke: #A80036; stroke-width: 1.5;" width="166" x="557.9629" y="1069"/><ellipse cx="605.2129" cy="1085" fill="#ADD1B2" rx="11" ry="11" style="stroke: #A80036; stroke-width: 1.0;"/><path d="M608.1817,1090.6406 Q607.6035,1090.9375 606.9629,1091.0781 Q606.3223,1091.2344 605.6192,1091.2344 Q603.1192,1091.2344 601.791,1089.5938 Q600.4785,1087.9375 600.4785,1084.8125 Q600.4785,1081.6875 601.791,1080.0313 Q603.1192,1078.375 605.6192,1078.375 Q606.3223,1078.375 606.9629,1078.5313 Q607.6192,1078.6875 608.1817,1078.9844 L608.1817,1081.7031 Q607.5567,1081.125 606.9629,1080.8594 Q606.3692,1080.5781 605.7442,1080.5781 Q604.4004,1080.5781 603.7129,1081.6563 Q603.0254,1082.7188 603.0254,1084.8125 Q603.0254,1086.9063 603.7129,1087.9844 Q604.4004,1089.0469 605.7442,1089.0469 Q606.3692,1089.0469 606.9629,1088.7813 Q607.5567,1088.5 608.1817,1087.9219 L608.1817,1090.6406 Z "/><text fill="#000000" font-family="Fira Code" font-size="12" lengthAdjust="spacingAndGlyphs" textLength="63" x="625.7129" y="1089.008">LogicNode</text><line style="stroke: #A80036; stroke-width: 1.5;" x1="558.9629" x2="722.9629" y1="1101" y2="1101"/><ellipse cx="568.9629" cy="1113.7161" fill="#84BE84" rx="3" ry="3" style="stroke: #038048; stroke-width: 1.0;"/><text fill="#000000" font-family="Fira Code" font-size="11" lengthAdjust="spacingAndGlyphs" textLength="42" x="577.9629" y="1115.8902">init()</text><ellipse cx="568.9629" cy="1128.1483" fill="#84BE84" rx="3" ry="3" style="stroke: #038048; stroke-width: 1.0;"/><text fill="#000000" font-family="Fira Code" font-size="11" lengthAdjust="spacingAndGlyphs" textLength="49" x="577.9629" y="1130.3224">reset()</text><ellipse cx="568.9629" cy="1142.5805" fill="#84BE84" rx="3" ry="3" style="stroke: #038048; stroke-width: 1.0;"/><text fill="#000000" font-family="Fira Code" font-size="11" lengthAdjust="spacingAndGlyphs" textLength="63" x="577.9629" y="1144.7546">compute()</text><text fill="#000000" font-family="Fira Code" font-size="11" lengthAdjust="spacingAndGlyphs" textLength="0" x="584.9629" y="1159.1868"/><ellipse cx="568.9629" cy="1171.4449" fill="#84BE84" rx="3" ry="3" style="stroke: #038048; stroke-width: 1.0;"/><text fill="#000000" font-family="Fira Code" font-size="11" lengthAdjust="spacingAndGlyphs" textLength="133" x="577.9629" y="1173.619">registerInputs(...)</text><ellipse cx="568.9629" cy="1185.8771" fill="#84BE84" rx="3" ry="3" style="stroke: #038048; stroke-width: 1.0;"/><text fill="#000000" font-family="Fira Code" font-size="11" lengthAdjust="spacingAndGlyphs" textLength="140" x="577.9629" y="1188.0512">registerOutputs(...)</text><line style="stroke: #A80036; stroke-width: 1.0;" x1="558.9629" x2="722.9629" y1="1195.5932" y2="1195.5932"/><rect fill="none" height="6" style="stroke: #C82930; stroke-width: 1.0;" width="6" x="565.9629" y="1205.3093"/><text fill="#000000" font-family="Fira Code" font-size="11" lengthAdjust="spacingAndGlyphs" textLength="56" x="577.9629" y="1210.4834">m_inputs</text><rect fill="none" height="6" style="stroke: #C82930; stroke-width: 1.0;" width="6" x="565.9629" y="1219.7415"/><text fill="#000000" font-family="Fira Code" font-size="11" lengthAdjust="spacingAndGlyphs" textLength="63" x="577.9629" y="1224.9156">m_outputs</text><!--class executionGraph::LogicSocketInput--><rect fill="#FEFECE" height="105.7288" id="executionGraph::LogicSocketInput" style="stroke: #A80036; stroke-width: 1.5;" width="201" x="321.4629" y="1097.5"/><ellipse cx="347.7129" cy="1113.5" fill="#ADD1B2" rx="11" ry="11" style="stroke: #A80036; stroke-width: 1.0;"/><path d="M350.6817,1119.1406 Q350.1035,1119.4375 349.4629,1119.5781 Q348.8223,1119.7344 348.1192,1119.7344 Q345.6192,1119.7344 344.291,1118.0938 Q342.9785,1116.4375 342.9785,1113.3125 Q342.9785,1110.1875 344.291,1108.5313 Q345.6192,1106.875 348.1192,1106.875 Q348.8223,1106.875 349.4629,1107.0313 Q350.1192,1107.1875 350.6817,1107.4844 L350.6817,1110.2031 Q350.0567,1109.625 349.4629,1109.3594 Q348.8692,1109.0781 348.2442,1109.0781 Q346.9004,1109.0781 346.2129,1110.1563 Q345.5254,1111.2188 345.5254,1113.3125 Q345.5254,1115.4063 346.2129,1116.4844 Q346.9004,1117.5469 348.2442,1117.5469 Q348.8692,1117.5469 349.4629,1117.2813 Q350.0567,1117 350.6817,1116.4219 L350.6817,1119.1406 Z "/><text fill="#000000" font-family="Fira Code" font-size="12" lengthAdjust="spacingAndGlyphs" textLength="112" x="364.2129" y="1117.508">LogicSocketInput</text><rect fill="#FFFFFF" height="17.7441" style="stroke: #000000; stroke-width: 1.0; stroke-dasharray: 2.0,2.0;" width="30" x="495.4629" y="1094.5"/><text fill="#000000" font-family="Fira Code" font-size="12" font-style="italic" lengthAdjust="spacingAndGlyphs" textLength="28" x="496.4629" y="1107.3801">Data</text><line style="stroke: #A80036; stroke-width: 1.5;" x1="322.4629" x2="521.4629" y1="1129.5" y2="1129.5"/><ellipse cx="332.4629" cy="1142.2161" fill="#84BE84" rx="3" ry="3" style="stroke: #038048; stroke-width: 1.0;"/><text fill="#000000" font-family="Fira Code" font-size="11" lengthAdjust="spacingAndGlyphs" textLength="140" x="341.4629" y="1144.3902">dataHandle() [const]</text><text fill="#000000" font-family="Fira Code" font-size="11" lengthAdjust="spacingAndGlyphs" textLength="0" x="348.4629" y="1158.8224"/><ellipse cx="332.4629" cy="1171.0805" fill="#84BE84" rx="3" ry="3" style="stroke: #038048; stroke-width: 1.0;"/><text fill="#000000" font-family="Fira Code" font-size="11" lengthAdjust="spacingAndGlyphs" textLength="147" x="341.4629" y="1173.2546">connections() [const]</text><line style="stroke: #A80036; stroke-width: 1.0;" x1="322.4629" x2="521.4629" y1="1180.7966" y2="1180.7966"/><rect fill="none" height="6" style="stroke: #C82930; stroke-width: 1.0;" width="6" x="329.4629" y="1190.5127"/><text fill="#000000" font-family="Fira Code" font-size="11" lengthAdjust="spacingAndGlyphs" textLength="175" x="341.4629" y="1195.6868">Connections m_connections</text><!--class executionGraph::LogicSocketOutput--><rect fill="#FEFECE" height="105.7288" id="executionGraph::LogicSocketOutput" style="stroke: #A80036; stroke-width: 1.5;" width="201" x="85.4629" y="1097.5"/><ellipse cx="108.5629" cy="1113.5" fill="#ADD1B2" rx="11" ry="11" style="stroke: #A80036; stroke-width: 1.0;"/><path d="M111.5317,1119.1406 Q110.9535,1119.4375 110.3129,1119.5781 Q109.6723,1119.7344 108.9692,1119.7344 Q106.4692,1119.7344 105.141,1118.0938 Q103.8285,1116.4375 103.8285,1113.3125 Q103.8285,1110.1875 105.141,1108.5313 Q106.4692,1106.875 108.9692,1106.875 Q109.6723,1106.875 110.3129,1107.0313 Q110.9692,1107.1875 111.5317,1107.4844 L111.5317,1110.2031 Q110.9067,1109.625 110.3129,1109.3594 Q109.7192,1109.0781 109.0942,1109.0781 Q107.7504,1109.0781 107.0629,1110.1563 Q106.3754,1111.2188 106.3754,1113.3125 Q106.3754,1115.4063 107.0629,1116.4844 Q107.7504,1117.5469 109.0942,1117.5469 Q109.7192,1117.5469 110.3129,1117.2813 Q110.9067,1117 111.5317,1116.4219 L111.5317,1119.1406 Z "/><text fill="#000000" font-family="Fira Code" font-size="12" lengthAdjust="spacingAndGlyphs" textLength="119" x="124.3629" y="1117.508">LogicSocketOutput</text><rect fill="#FFFFFF" height="17.7441" style="stroke: #000000; stroke-width: 1.0; stroke-dasharray: 2.0,2.0;" width="30" x="259.4629" y="1094.5"/><text fill="#000000" font-family="Fira Code" font-size="12" font-style="italic" lengthAdjust="spacingAndGlyphs" textLength="28" x="260.4629" y="1107.3801">Data</text><line style="stroke: #A80036; stroke-width: 1.5;" x1="86.4629" x2="285.4629" y1="1129.5" y2="1129.5"/><ellipse cx="96.4629" cy="1142.2161" fill="#84BE84" rx="3" ry="3" style="stroke: #038048; stroke-width: 1.0;"/><text fill="#000000" font-family="Fira Code" font-size="11" lengthAdjust="spacingAndGlyphs" textLength="140" x="105.4629" y="1144.3902">dataHandle() [const]</text><text fill="#000000" font-family="Fira Code" font-size="11" lengthAdjust="spacingAndGlyphs" textLength="0" x="112.4629" y="1158.8224"/><ellipse cx="96.4629" cy="1171.0805" fill="#84BE84" rx="3" ry="3" style="stroke: #038048; stroke-width: 1.0;"/><text fill="#000000" font-family="Fira Code" font-size="11" lengthAdjust="spacingAndGlyphs" textLength="147" x="105.4629" y="1173.2546">connections() [const]</text><line style="stroke: #A80036; stroke-width: 1.0;" x1="86.4629" x2="285.4629" y1="1180.7966" y2="1180.7966"/><rect fill="none" height="6" style="stroke: #C82930; stroke-width: 1.0;" width="6" x="93.4629" y="1190.5127"/><text fill="#000000" font-family="Fira Code" font-size="11" lengthAdjust="spacingAndGlyphs" textLength="175" x="105.4629" y="1195.6868">Connections m_connections</text><!--class executionGraph::LogicSocketBase--><rect fill="#FEFECE" height="91.2966" id="executionGraph::LogicSocketBase" style="stroke: #A80036; stroke-width: 1.5;" width="137" x="555.4629" y="628.5"/><ellipse cx="570.4629" cy="644.5" fill="#ADD1B2" rx="11" ry="11" style="stroke: #A80036; stroke-width: 1.0;"/><path d="M573.4317,650.1406 Q572.8535,650.4375 572.2129,650.5781 Q571.5723,650.7344 570.8692,650.7344 Q568.3692,650.7344 567.041,649.0938 Q565.7285,647.4375 565.7285,644.3125 Q565.7285,641.1875 567.041,639.5313 Q568.3692,637.875 570.8692,637.875 Q571.5723,637.875 572.2129,638.0313 Q572.8692,638.1875 573.4317,638.4844 L573.4317,641.2031 Q572.8067,640.625 572.2129,640.3594 Q571.6192,640.0781 570.9942,640.0781 Q569.6504,640.0781 568.9629,641.1563 Q568.2754,642.2188 568.2754,644.3125 Q568.2754,646.4063 568.9629,647.4844 Q569.6504,648.5469 570.9942,648.5469 Q571.6192,648.5469 572.2129,648.2813 Q572.8067,648 573.4317,647.4219 L573.4317,650.1406 Z "/><text fill="#000000" font-family="Fira Code" font-size="12" lengthAdjust="spacingAndGlyphs" textLength="105" x="584.4629" y="648.508">LogicSocketBase</text><line style="stroke: #A80036; stroke-width: 1.5;" x1="556.4629" x2="691.4629" y1="660.5" y2="660.5"/><line style="stroke: #A80036; stroke-width: 1.5;" x1="556.4629" x2="691.4629" y1="668.5" y2="668.5"/><ellipse cx="566.4629" cy="681.2161" fill="#84BE84" rx="3" ry="3" style="stroke: #038048; stroke-width: 1.0;"/><text fill="#000000" font-family="Fira Code" font-size="11" lengthAdjust="spacingAndGlyphs" textLength="42" x="575.4629" y="683.3902">type()</text><ellipse cx="566.4629" cy="695.6483" fill="#84BE84" rx="3" ry="3" style="stroke: #038048; stroke-width: 1.0;"/><text fill="#000000" font-family="Fira Code" font-size="11" lengthAdjust="spacingAndGlyphs" textLength="49" x="575.4629" y="697.8224">index()</text><ellipse cx="566.4629" cy="710.0805" fill="#84BE84" rx="3" ry="3" style="stroke: #038048; stroke-width: 1.0;"/><text fill="#000000" font-family="Fira Code" font-size="11" lengthAdjust="spacingAndGlyphs" textLength="56" x="575.4629" y="712.2546">parent()</text><!--class executionGraph::LogicSocketInputBase--><rect fill="#FEFECE" height="62.4322" id="executionGraph::LogicSocketInputBase" style="stroke: #A80036; stroke-width: 1.5;" width="292" x="394.9629" y="866"/><ellipse cx="466.7129" cy="882" fill="#ADD1B2" rx="11" ry="11" style="stroke: #A80036; stroke-width: 1.0;"/><path d="M469.6817,887.6406 Q469.1035,887.9375 468.4629,888.0781 Q467.8223,888.2344 467.1192,888.2344 Q464.6192,888.2344 463.291,886.5938 Q461.9785,884.9375 461.9785,881.8125 Q461.9785,878.6875 463.291,877.0313 Q464.6192,875.375 467.1192,875.375 Q467.8223,875.375 468.4629,875.5313 Q469.1192,875.6875 469.6817,875.9844 L469.6817,878.7031 Q469.0567,878.125 468.4629,877.8594 Q467.8692,877.5781 467.2442,877.5781 Q465.9004,877.5781 465.2129,878.6563 Q464.5254,879.7188 464.5254,881.8125 Q464.5254,883.9063 465.2129,884.9844 Q465.9004,886.0469 467.2442,886.0469 Q467.8692,886.0469 468.4629,885.7813 Q469.0567,885.5 469.6817,884.9219 L469.6817,887.6406 Z "/><text fill="#000000" font-family="Fira Code" font-size="12" lengthAdjust="spacingAndGlyphs" textLength="140" x="487.2129" y="886.008">LogicSocketInputBase</text><line style="stroke: #A80036; stroke-width: 1.5;" x1="395.9629" x2="685.9629" y1="898" y2="898"/><line style="stroke: #A80036; stroke-width: 1.5;" x1="395.9629" x2="685.9629" y1="906" y2="906"/><ellipse cx="405.9629" cy="918.7161" fill="#84BE84" rx="3" ry="3" style="stroke: #038048; stroke-width: 1.0;"/><text fill="#000000" font-family="Fira Code" font-size="11" lengthAdjust="spacingAndGlyphs" textLength="266" x="414.9629" y="920.8902">castToType&lt;T&gt;() -&gt; LogicSocketInput&lt;T&gt;</text><!--class executionGraph::LogicSocketOutputBase--><rect fill="#FEFECE" height="62.4322" id="executionGraph::LogicSocketOutputBase" style="stroke: #A80036; stroke-width: 1.5;" width="299" x="60.4629" y="866"/><ellipse cx="132.2129" cy="882" fill="#ADD1B2" rx="11" ry="11" style="stroke: #A80036; stroke-width: 1.0;"/><path d="M135.1817,887.6406 Q134.6035,887.9375 133.9629,888.0781 Q133.3223,888.2344 132.6192,888.2344 Q130.1192,888.2344 128.791,886.5938 Q127.4785,884.9375 127.4785,881.8125 Q127.4785,878.6875 128.791,877.0313 Q130.1192,875.375 132.6192,875.375 Q133.3223,875.375 133.9629,875.5313 Q134.6192,875.6875 135.1817,875.9844 L135.1817,878.7031 Q134.5567,878.125 133.9629,877.8594 Q133.3692,877.5781 132.7442,877.5781 Q131.4004,877.5781 130.7129,878.6563 Q130.0254,879.7188 130.0254,881.8125 Q130.0254,883.9063 130.7129,884.9844 Q131.4004,886.0469 132.7442,886.0469 Q133.3692,886.0469 133.9629,885.7813 Q134.5567,885.5 135.1817,884.9219 L135.1817,887.6406 Z "/><text fill="#000000" font-family="Fira Code" font-size="12" lengthAdjust="spacingAndGlyphs" textLength="147" x="152.7129" y="886.008">LogicSocketOutputBase</text><line style="stroke: #A80036; stroke-width: 1.5;" x1="61.4629" x2="358.4629" y1="898" y2="898"/><line style="stroke: #A80036; stroke-width: 1.5;" x1="61.4629" x2="358.4629" y1="906" y2="906"/><ellipse cx="71.4629" cy="918.7161" fill="#84BE84" rx="3" ry="3" style="stroke: #038048; stroke-width: 1.0;"/><text fill="#000000" font-family="Fira Code" font-size="11" lengthAdjust="spacingAndGlyphs" textLength="273" x="80.4629" y="920.8902">castToType&lt;T&gt;() -&gt; LogicSocketOutput&lt;T&gt;</text><!--class executionGraph::LogicSocketConnections--><rect fill="#FEFECE" height="137.6492" id="executionGraph::LogicSocketConnections" style="stroke: #0000FF; stroke-width: 3.0;" width="330" x="22.9629" y="1489"/><ellipse cx="37.9629" cy="1509.7441" fill="#ADD1B2" rx="11" ry="11" style="stroke: #0000FF; stroke-width: 1.0;"/><path d="M40.9317,1515.3847 Q40.3535,1515.6816 39.7129,1515.8222 Q39.0723,1515.9785 38.3692,1515.9785 Q35.8692,1515.9785 34.541,1514.3379 Q33.2285,1512.6816 33.2285,1509.5566 Q33.2285,1506.4316 34.541,1504.7754 Q35.8692,1503.1191 38.3692,1503.1191 Q39.0723,1503.1191 39.7129,1503.2754 Q40.3692,1503.4316 40.9317,1503.7285 L40.9317,1506.4472 Q40.3067,1505.8691 39.7129,1505.6035 Q39.1192,1505.3222 38.4942,1505.3222 Q37.1504,1505.3222 36.4629,1506.4004 Q35.7754,1507.4629 35.7754,1509.5566 Q35.7754,1511.6504 36.4629,1512.7285 Q37.1504,1513.791 38.4942,1513.791 Q39.1192,1513.791 39.7129,1513.5254 Q40.3067,1513.2441 40.9317,1512.666 L40.9317,1515.3847 Z "/><text fill="#000000" font-family="Fira Code" font-size="12" font-style="italic" lengthAdjust="spacingAndGlyphs" textLength="91" x="83.4629" y="1505.8801">«Connections»</text><text fill="#000000" font-family="Fira Code" font-size="12" lengthAdjust="spacingAndGlyphs" textLength="154" x="51.9629" y="1521.6242">LogicSocketConnections</text><rect fill="#FFFFFF" height="17.7441" style="stroke: #000000; stroke-width: 1.0; stroke-dasharray: 2.0,2.0;" width="142" x="213.9629" y="1486"/><text fill="#000000" font-family="Fira Code" font-size="12" font-style="italic" lengthAdjust="spacingAndGlyphs" textLength="140" x="214.9629" y="1498.8801">Traits, ParentSocket</text><line style="stroke: #0000FF; stroke-width: 1.5;" x1="23.9629" x2="351.9629" y1="1530.4882" y2="1530.4882"/><text fill="#000000" font-family="Fira Code" font-size="11" lengthAdjust="spacingAndGlyphs" textLength="245" x="28.9629" y="1545.3784">Connection for input/output sockets</text><line style="stroke: #0000FF; stroke-width: 1.0;" x1="23.9629" x2="351.9629" y1="1552.9204" y2="1552.9204"/><ellipse cx="33.9629" cy="1565.6365" fill="#84BE84" rx="3" ry="3" style="stroke: #038048; stroke-width: 1.0;"/><text fill="#000000" font-family="Fira Code" font-size="11" lengthAdjust="spacingAndGlyphs" textLength="133" x="42.9629" y="1567.8106">connect(socketData)</text><ellipse cx="33.9629" cy="1580.0687" fill="#84BE84" rx="3" ry="3" style="stroke: #038048; stroke-width: 1.0;"/><text fill="#000000" font-family="Fira Code" font-size="11" lengthAdjust="spacingAndGlyphs" textLength="154" x="42.9629" y="1582.2428">disconnect(socketData)</text><line style="stroke: #0000FF; stroke-width: 1.0;" x1="23.9629" x2="351.9629" y1="1589.7848" y2="1589.7848"/><text fill="#000000" font-family="Fira Code" font-size="11" lengthAdjust="spacingAndGlyphs" textLength="252" x="28.9629" y="1604.675">SocketDataConnections* m_connections</text><text fill="#000000" font-family="Fira Code" font-size="11" lengthAdjust="spacingAndGlyphs" textLength="112" x="28.9629" y="1619.1072">Parent* m_parent</text><!--class executionGraph::LogicSocketDataBase--><rect fill="#FEFECE" height="48" id="executionGraph::LogicSocketDataBase" style="stroke: #A80036; stroke-width: 1.5;" width="165" x="355.4629" y="45"/><ellipse cx="370.4629" cy="61" fill="#ADD1B2" rx="11" ry="11" style="stroke: #A80036; stroke-width: 1.0;"/><path d="M373.4317,66.6406 Q372.8535,66.9375 372.2129,67.0781 Q371.5723,67.2344 370.8692,67.2344 Q368.3692,67.2344 367.041,65.5938 Q365.7285,63.9375 365.7285,60.8125 Q365.7285,57.6875 367.041,56.0313 Q368.3692,54.375 370.8692,54.375 Q371.5723,54.375 372.2129,54.5313 Q372.8692,54.6875 373.4317,54.9844 L373.4317,57.7031 Q372.8067,57.125 372.2129,56.8594 Q371.6192,56.5781 370.9942,56.5781 Q369.6504,56.5781 368.9629,57.6563 Q368.2754,58.7188 368.2754,60.8125 Q368.2754,62.9063 368.9629,63.9844 Q369.6504,65.0469 370.9942,65.0469 Q371.6192,65.0469 372.2129,64.7813 Q372.8067,64.5 373.4317,63.9219 L373.4317,66.6406 Z "/><text fill="#000000" font-family="Fira Code" font-size="12" lengthAdjust="spacingAndGlyphs" textLength="133" x="384.4629" y="65.008">LogicSocketDataBase</text><line style="stroke: #A80036; stroke-width: 1.5;" x1="356.4629" x2="519.4629" y1="77" y2="77"/><line style="stroke: #A80036; stroke-width: 1.5;" x1="356.4629" x2="519.4629" y1="85" y2="85"/><!--class executionGraph::userData::LogicSocketDataConnections--><rect fill="#FEFECE" height="137.6492" id="executionGraph::userData::LogicSocketDataConnections" style="stroke: #0000FF; stroke-width: 3.0;" width="358" x="99.9629" y="605"/><ellipse cx="114.9629" cy="625.7441" fill="#ADD1B2" rx="11" ry="11" style="stroke: #0000FF; stroke-width: 1.0;"/><path d="M117.9317,631.3847 Q117.3535,631.6816 116.7129,631.8222 Q116.0723,631.9785 115.3692,631.9785 Q112.8692,631.9785 111.541,630.3379 Q110.2285,628.6816 110.2285,625.5566 Q110.2285,622.4316 111.541,620.7754 Q112.8692,619.1191 115.3692,619.1191 Q116.0723,619.1191 116.7129,619.2754 Q117.3692,619.4316 117.9317,619.7285 L117.9317,622.4472 Q117.3067,621.8691 116.7129,621.6035 Q116.1192,621.3222 115.4942,621.3222 Q114.1504,621.3222 113.4629,622.4004 Q112.7754,623.4629 112.7754,625.5566 Q112.7754,627.6504 113.4629,628.7285 Q114.1504,629.791 115.4942,629.791 Q116.1192,629.791 116.7129,629.5254 Q117.3067,629.2441 117.9317,628.666 L117.9317,631.3847 Z "/><text fill="#000000" font-family="Fira Code" font-size="12" font-style="italic" lengthAdjust="spacingAndGlyphs" textLength="91" x="174.4629" y="621.8801">«Connections»</text><text fill="#000000" font-family="Fira Code" font-size="12" lengthAdjust="spacingAndGlyphs" textLength="182" x="128.9629" y="637.6242">LogicSocketDataConnections</text><rect fill="#FFFFFF" height="17.7441" style="stroke: #000000; stroke-width: 1.0; stroke-dasharray: 2.0,2.0;" width="142" x="318.9629" y="602"/><text fill="#000000" font-family="Fira Code" font-size="12" font-style="italic" lengthAdjust="spacingAndGlyphs" textLength="140" x="319.9629" y="614.8801">Traits, ParentSocket</text><line style="stroke: #0000FF; stroke-width: 1.5;" x1="100.9629" x2="456.9629" y1="646.4882" y2="646.4882"/><text fill="#000000" font-family="Fira Code" font-size="11" lengthAdjust="spacingAndGlyphs" textLength="189" x="105.9629" y="661.3784">Connection for data sockets</text><line style="stroke: #0000FF; stroke-width: 1.0;" x1="100.9629" x2="456.9629" y1="668.9204" y2="668.9204"/><ellipse cx="110.9629" cy="681.6365" fill="#84BE84" rx="3" ry="3" style="stroke: #038048; stroke-width: 1.0;"/><text fill="#000000" font-family="Fira Code" font-size="11" lengthAdjust="spacingAndGlyphs" textLength="105" x="119.9629" y="683.8106">connect(socket)</text><ellipse cx="110.9629" cy="696.0687" fill="#84BE84" rx="3" ry="3" style="stroke: #038048; stroke-width: 1.0;"/><text fill="#000000" font-family="Fira Code" font-size="11" lengthAdjust="spacingAndGlyphs" textLength="126" x="119.9629" y="698.2428">disconnect(socket)</text><line style="stroke: #0000FF; stroke-width: 1.0;" x1="100.9629" x2="456.9629" y1="705.7848" y2="705.7848"/><text fill="#000000" font-family="Fira Code" font-size="11" lengthAdjust="spacingAndGlyphs" textLength="56" x="105.9629" y="720.675">m_inputs</text><text fill="#000000" font-family="Fira Code" font-size="11" lengthAdjust="spacingAndGlyphs" textLength="63" x="105.9629" y="735.1072">m_outputs</text><!--class executionGraph::userData::LogicSocketData--><rect fill="#FEFECE" height="134.5932" id="executionGraph::userData::LogicSocketData" style="stroke: #A80036; stroke-width: 1.5;" width="201" x="337.4629" y="223"/><ellipse cx="366.8629" cy="239" fill="#ADD1B2" rx="11" ry="11" style="stroke: #A80036; stroke-width: 1.0;"/><path d="M369.8316,244.6406 Q369.2535,244.9375 368.6129,245.0781 Q367.9723,245.2344 367.2691,245.2344 Q364.7691,245.2344 363.441,243.5938 Q362.1285,241.9375 362.1285,238.8125 Q362.1285,235.6875 363.441,234.0313 Q364.7691,232.375 367.2691,232.375 Q367.9723,232.375 368.6129,232.5313 Q369.2691,232.6875 369.8316,232.9844 L369.8316,235.7031 Q369.2066,235.125 368.6129,234.8594 Q368.0191,234.5781 367.3941,234.5781 Q366.0504,234.5781 365.3629,235.6563 Q364.6754,236.7188 364.6754,238.8125 Q364.6754,240.9063 365.3629,241.9844 Q366.0504,243.0469 367.3941,243.0469 Q368.0191,243.0469 368.6129,242.7813 Q369.2066,242.5 369.8316,241.9219 L369.8316,244.6406 Z "/><text fill="#000000" font-family="Fira Code" font-size="12" lengthAdjust="spacingAndGlyphs" textLength="105" x="384.0629" y="243.008">LogicSocketData</text><rect fill="#FFFFFF" height="17.7441" style="stroke: #000000; stroke-width: 1.0; stroke-dasharray: 2.0,2.0;" width="30" x="511.4629" y="220"/><text fill="#000000" font-family="Fira Code" font-size="12" font-style="italic" lengthAdjust="spacingAndGlyphs" textLength="28" x="512.4629" y="232.8801">Data</text><line style="stroke: #A80036; stroke-width: 1.5;" x1="338.4629" x2="537.4629" y1="255" y2="255"/><ellipse cx="348.4629" cy="267.7161" fill="#84BE84" rx="3" ry="3" style="stroke: #038048; stroke-width: 1.0;"/><text fill="#000000" font-family="Fira Code" font-size="11" lengthAdjust="spacingAndGlyphs" textLength="140" x="357.4629" y="269.8902">dataHandle() [const]</text><ellipse cx="348.4629" cy="282.1483" fill="#84BE84" rx="3" ry="3" style="stroke: #038048; stroke-width: 1.0;"/><text fill="#000000" font-family="Fira Code" font-size="11" lengthAdjust="spacingAndGlyphs" textLength="119" x="357.4629" y="284.3224">dataHandleConst()</text><text fill="#000000" font-family="Fira Code" font-size="11" lengthAdjust="spacingAndGlyphs" textLength="0" x="364.4629" y="298.7546"/><ellipse cx="348.4629" cy="311.0127" fill="#84BE84" rx="3" ry="3" style="stroke: #038048; stroke-width: 1.0;"/><text fill="#000000" font-family="Fira Code" font-size="11" lengthAdjust="spacingAndGlyphs" textLength="147" x="357.4629" y="313.1868">connections() [const]</text><line style="stroke: #A80036; stroke-width: 1.0;" x1="338.4629" x2="537.4629" y1="320.7288" y2="320.7288"/><rect fill="none" height="6" style="stroke: #C82930; stroke-width: 1.0;" width="6" x="345.4629" y="330.4449"/><text fill="#000000" font-family="Fira Code" font-size="11" lengthAdjust="spacingAndGlyphs" textLength="77" x="357.4629" y="335.619">Data m_data</text><rect fill="none" height="6" style="stroke: #C82930; stroke-width: 1.0;" width="6" x="345.4629" y="344.8771"/><text fill="#000000" font-family="Fira Code" font-size="11" lengthAdjust="spacingAndGlyphs" textLength="175" x="357.4629" y="350.0512">Connections m_connections</text><!--class executionGraph::userData::LogicSocketDataRef--><rect fill="#FEFECE" height="76.8644" id="executionGraph::userData::LogicSocketDataRef" style="stroke: #A80036; stroke-width: 1.5;" width="271" x="31.4629" y="252"/><ellipse cx="73.4629" cy="268" fill="#ADD1B2" rx="11" ry="11" style="stroke: #A80036; stroke-width: 1.0;"/><path d="M76.4317,273.6406 Q75.8535,273.9375 75.2129,274.0781 Q74.5723,274.2344 73.8692,274.2344 Q71.3692,274.2344 70.041,272.5938 Q68.7285,270.9375 68.7285,267.8125 Q68.7285,264.6875 70.041,263.0313 Q71.3692,261.375 73.8692,261.375 Q74.5723,261.375 75.2129,261.5313 Q75.8692,261.6875 76.4317,261.9844 L76.4317,264.7031 Q75.8067,264.125 75.2129,263.8594 Q74.6192,263.5781 73.9942,263.5781 Q72.6504,263.5781 71.9629,264.6563 Q71.2754,265.7188 71.2754,267.8125 Q71.2754,269.9063 71.9629,270.9844 Q72.6504,272.0469 73.9942,272.0469 Q74.6192,272.0469 75.2129,271.7813 Q75.8067,271.5 76.4317,270.9219 L76.4317,273.6406 Z "/><text fill="#000000" font-family="Fira Code" font-size="12" lengthAdjust="spacingAndGlyphs" textLength="126" x="93.4629" y="272.008">LogicSocketDataRef</text><rect fill="#FFFFFF" height="17.7441" style="stroke: #000000; stroke-width: 1.0; stroke-dasharray: 2.0,2.0;" width="51" x="254.4629" y="249"/><text fill="#000000" font-family="Fira Code" font-size="12" font-style="italic" lengthAdjust="spacingAndGlyphs" textLength="49" x="255.4629" y="261.8801">Args...</text><line style="stroke: #A80036; stroke-width: 1.5;" x1="32.4629" x2="301.4629" y1="284" y2="284"/><ellipse cx="42.4629" cy="296.7161" fill="#84BE84" rx="3" ry="3" style="stroke: #038048; stroke-width: 1.0;"/><text fill="#000000" font-family="Fira Code" font-size="11" lengthAdjust="spacingAndGlyphs" textLength="168" x="51.4629" y="298.8902">setReference(socketData)</text><line style="stroke: #A80036; stroke-width: 1.0;" x1="32.4629" x2="301.4629" y1="306.4322" y2="306.4322"/><rect fill="none" height="6" style="stroke: #C82930; stroke-width: 1.0;" width="6" x="39.4629" y="316.1483"/><text fill="#000000" font-family="Fira Code" font-size="11" lengthAdjust="spacingAndGlyphs" textLength="245" x="51.4629" y="321.3224">LogicSocketData&lt;Args&gt;* m_socketData</text><!--class DummyNode--><rect fill="#FEFECE" height="134.5932" id="DummyNode" style="stroke: #A80036; stroke-width: 1.5;" width="141" x="740.4629" y="1293"/><ellipse cx="776.1629" cy="1309" fill="#ADD1B2" rx="11" ry="11" style="stroke: #A80036; stroke-width: 1.0;"/><path d="M779.1317,1314.6406 Q778.5535,1314.9375 777.9129,1315.0781 Q777.2723,1315.2344 776.5692,1315.2344 Q774.0692,1315.2344 772.741,1313.5938 Q771.4285,1311.9375 771.4285,1308.8125 Q771.4285,1305.6875 772.741,1304.0313 Q774.0692,1302.375 776.5692,1302.375 Q777.2723,1302.375 777.9129,1302.5313 Q778.5692,1302.6875 779.1317,1302.9844 L779.1317,1305.7031 Q778.5067,1305.125 777.9129,1304.8594 Q777.3192,1304.5781 776.6942,1304.5781 Q775.3504,1304.5781 774.6629,1305.6563 Q773.9754,1306.7188 773.9754,1308.8125 Q773.9754,1310.9063 774.6629,1311.9844 Q775.3504,1313.0469 776.6942,1313.0469 Q777.3192,1313.0469 777.9129,1312.7813 Q778.5067,1312.5 779.1317,1311.9219 L779.1317,1314.6406 Z "/><text fill="#000000" font-family="Fira Code" font-size="12" lengthAdjust="spacingAndGlyphs" textLength="63" x="794.7629" y="1313.008">DummyNode</text><line style="stroke: #A80036; stroke-width: 1.5;" x1="741.4629" x2="880.4629" y1="1325" y2="1325"/><ellipse cx="751.4629" cy="1356.1483" fill="none" rx="3" ry="3" style="stroke: #038048; stroke-width: 1.0;"/><text fill="#000000" font-family="Fira Code" font-size="11" lengthAdjust="spacingAndGlyphs" textLength="49" x="760.4629" y="1358.3224">inDecls</text><ellipse cx="751.4629" cy="1370.5805" fill="none" rx="3" ry="3" style="stroke: #038048; stroke-width: 1.0;"/><text fill="#000000" font-family="Fira Code" font-size="11" lengthAdjust="spacingAndGlyphs" textLength="56" x="760.4629" y="1372.7546">outDecls</text><line style="stroke: #A80036; stroke-width: 1.0;" x1="741.4629" x2="744.4629" y1="1340.2161" y2="1340.2161"/><text fill="#000000" font-family="Fira Code" font-size="11" lengthAdjust="spacingAndGlyphs" textLength="133" x="744.4629" y="1343.3902">In/Out Declerations</text><line style="stroke: #A80036; stroke-width: 1.0;" x1="877.4629" x2="880.4629" y1="1340.2161" y2="1340.2161"/><rect fill="none" height="6" style="stroke: #C82930; stroke-width: 1.0;" width="6" x="748.4629" y="1400.4449"/><text fill="#000000" font-family="Fira Code" font-size="11" lengthAdjust="spacingAndGlyphs" textLength="77" x="760.4629" y="1405.619">m_inSockets</text><rect fill="none" height="6" style="stroke: #C82930; stroke-width: 1.0;" width="6" x="748.4629" y="1414.8771"/><text fill="#000000" font-family="Fira Code" font-size="11" lengthAdjust="spacingAndGlyphs" textLength="84" x="760.4629" y="1420.0512">m_outSockets</text><line style="stroke: #A80036; stroke-width: 1.0;" x1="741.4629" x2="786.4629" y1="1387.5127" y2="1387.5127"/><text fill="#000000" font-family="Fira Code" font-size="11" lengthAdjust="spacingAndGlyphs" textLength="49" x="786.4629" y="1390.6868">Sockets</text><line style="stroke: #A80036; stroke-width: 1.0;" x1="835.4629" x2="880.4629" y1="1387.5127" y2="1387.5127"/><!--link executionGraph::LogicNode to DummyNode--><path d="M719.871,1247.9747 C732.1538,1263.1475 744.607,1278.5309 756.1978,1292.849 " fill="none" id="executionGraph::LogicNode-DummyNode" style="stroke: #A80036; stroke-width: 1.0;"/><polygon fill="none" points="714.3194,1252.2421,707.1762,1232.2928,725.2009,1243.4333,714.3194,1252.2421" style="stroke: #A80036; stroke-width: 1.0;"/><!--link executionGraph::LogicSocketInputBase to executionGraph::LogicSocketInput--><path d="M517.8456,946.2457 C497.4391,989.7167 467.7655,1052.9289 446.8458,1097.4932 " fill="none" id="executionGraph::LogicSocketInputBase-executionGraph::LogicSocketInput" style="stroke: #A80036; stroke-width: 1.0;"/><polygon fill="none" points="511.5358,943.214,526.3712,928.0841,524.209,949.1631,511.5358,943.214" style="stroke: #A80036; stroke-width: 1.0;"/><!--link executionGraph::LogicSocketOutputBase to executionGraph::LogicSocketOutput--><path d="M205.1331,948.0148 C201.024,991.4179 195.1435,1053.5298 190.9813,1097.4932 " fill="none" id="executionGraph::LogicSocketOutputBase-executionGraph::LogicSocketOutput" style="stroke: #A80036; stroke-width: 1.0;"/><polygon fill="none" points="198.1661,947.3352,207.0201,928.0841,212.1038,948.6548,198.1661,947.3352" style="stroke: #A80036; stroke-width: 1.0;"/><!--link executionGraph::LogicSocketBase to executionGraph::LogicSocketInputBase--><path d="M599.9223,738.591 C584.3677,780.3823 564.8111,832.926 552.5959,865.7451 " fill="none" id="executionGraph::LogicSocketBase-executionGraph::LogicSocketInputBase" style="stroke: #A80036; stroke-width: 1.0;"/><polygon fill="none" points="593.4296,735.9675,606.9664,719.6655,606.5502,740.8511,593.4296,735.9675" style="stroke: #A80036; stroke-width: 1.0;"/><!--link executionGraph::LogicSocketBase to executionGraph::LogicSocketOutputBase--><path d="M572.8166,733.9462 C566.1576,740.1238 559.1433,745.9686 551.9629,751 C478.2081,802.6817 383.281,841.3917 312.157,865.9207 " fill="none" id="executionGraph::LogicSocketBase-executionGraph::LogicSocketOutputBase" style="stroke: #A80036; stroke-width: 1.0;"/><polygon fill="none" points="568.0767,728.7872,587.1818,719.6222,577.9621,738.7009,568.0767,728.7872" style="stroke: #A80036; stroke-width: 1.0;"/><!--link executionGraph::LogicSocketInputBase to executionGraph::LogicNode--><path d="M558.0435,940.2993 C570.6156,972.1694 588.1853,1016.7086 603.9173,1056.5893 " fill="none" id="executionGraph::LogicSocketInputBase-executionGraph::LogicNode" style="stroke: #A80036; stroke-width: 1.0;"/><polygon fill="#FFFFFF" points="608.7331,1068.7973,610.2522,1061.748,604.3295,1057.6345,602.8104,1064.6838,608.7331,1068.7973" style="stroke: #A80036; stroke-width: 1.0;"/><polygon fill="#A80036" points="553.2249,928.0841,552.8066,937.9241,555.0597,932.7353,560.2485,934.9884,553.2249,928.0841" style="stroke: #A80036; stroke-width: 1.0;"/><line style="stroke: #A80036; stroke-width: 1.0;" x1="555.0597" x2="557.9954" y1="932.7353" y2="940.1772"/><text fill="#000000" font-family="Fira Code" font-size="13" lengthAdjust="spacingAndGlyphs" textLength="8" x="597.6196" y="1056.8983">*</text><!--link executionGraph::LogicSocketOutputBase to executionGraph::LogicNode--><path d="M291.1494,933.7459 C359.5324,965.9908 458.8893,1015.9164 539.9629,1069 C542.3752,1070.5794 544.7987,1072.2046 547.2262,1073.867 " fill="none" id="executionGraph::LogicSocketOutputBase-executionGraph::LogicNode" style="stroke: #A80036; stroke-width: 1.0;"/><polygon fill="#FFFFFF" points="557.8736,1081.368,555.2723,1074.6424,548.0635,1074.4569,550.6649,1081.1825,557.8736,1081.368" style="stroke: #A80036; stroke-width: 1.0;"/><polygon fill="#A80036" points="279.1777,928.1322,285.6282,935.5748,283.7047,930.2549,289.0245,928.3315,279.1777,928.1322" style="stroke: #A80036; stroke-width: 1.0;"/><line style="stroke: #A80036; stroke-width: 1.0;" x1="283.7047" x2="290.9479" y1="930.2549" y2="933.6515"/><text fill="#000000" font-family="Fira Code" font-size="13" lengthAdjust="spacingAndGlyphs" textLength="8" x="541.8451" y="1070.0628">*</text><!--link executionGraph::LogicSocketInput to DummyNode--><path d="M492.233,1203.6813 C507.7669,1213.9793 524.512,1224.0307 540.9629,1232 C619.0597,1269.8322 654.3109,1249.8266 728.3955,1288.4411 " fill="none" id="executionGraph::LogicSocketInput-DummyNode" style="stroke: #A80036; stroke-width: 1.0;"/><polygon fill="#A80036" points="740.1229,1294.8671,736.7832,1288.476,729.5992,1289.1007,732.9389,1295.4918,740.1229,1294.8671" style="stroke: #A80036; stroke-width: 1.0;"/><text fill="#000000" font-family="Fira Code" font-size="13" lengthAdjust="spacingAndGlyphs" textLength="8" x="724.405" y="1301.8691">*</text><!--link executionGraph::LogicSocketOutput to DummyNode--><path d="M251.5371,1203.6694 C267.8516,1214.6129 285.8726,1224.9376 303.9629,1232 C390.7692,1265.8888 628.4294,1252.8369 728.2262,1289.6188 " fill="none" id="executionGraph::LogicSocketOutput-DummyNode" style="stroke: #A80036; stroke-width: 1.0;"/><polygon fill="#A80036" points="740.252,1294.6193,736.2477,1288.6222,729.1717,1290.0119,733.1761,1296.009,740.252,1294.6193" style="stroke: #A80036; stroke-width: 1.0;"/><text fill="#000000" font-family="Fira Code" font-size="13" lengthAdjust="spacingAndGlyphs" textLength="8" x="724.5474" y="1282.8427">*</text><!--link executionGraph::LogicSocketInput to executionGraph::LogicSocketConnections--><path d="M384.7324,1215.3353 C341.8546,1290.0049 271.6915,1412.1907 227.7593,1488.6965 " fill="none" id="executionGraph::LogicSocketInput-executionGraph::LogicSocketConnections" style="stroke: #A80036; stroke-width: 1.0;"/><polygon fill="#A80036" points="391.3715,1203.7735,384.9149,1206.9848,385.3959,1214.1799,391.8525,1210.9685,391.3715,1203.7735" style="stroke: #A80036; stroke-width: 1.0;"/><text fill="#000000" font-family="Fira Code" font-size="13" lengthAdjust="spacingAndGlyphs" textLength="8" x="379.1557" y="1224.1921">1</text><!--link executionGraph::LogicSocketOutput to executionGraph::LogicSocketConnections--><path d="M186.2902,1217.1886 C186.6575,1292.013 187.2504,1412.8203 187.6228,1488.6965 " fill="none" id="executionGraph::LogicSocketOutput-executionGraph::LogicSocketConnections" style="stroke: #A80036; stroke-width: 1.0;"/><polygon fill="#A80036" points="186.2244,1203.7735,182.2539,1209.7931,186.2833,1215.7734,190.2538,1209.7538,186.2244,1203.7735" style="stroke: #A80036; stroke-width: 1.0;"/><text fill="#000000" font-family="Fira Code" font-size="13" lengthAdjust="spacingAndGlyphs" textLength="8" x="177.7688" y="1224.1921">1</text><!--link executionGraph::LogicSocketBase to executionGraph::LogicNode--><path d="M690.0823,729.3776 C708.2035,750.5322 722.9629,776.3903 722.9629,804.5 C722.9629,804.5 722.9629,804.5 722.9629,998.5 C722.9629,1022.937 714.652,1047.2201 703.3219,1068.9705 " fill="none" id="executionGraph::LogicSocketBase-executionGraph::LogicNode" style="stroke: #A80036; stroke-width: 1.0;"/><polygon fill="#FFFFFF" points="681.265,719.6904,682.3456,726.8201,689.3425,728.5648,688.2619,721.4351,681.265,719.6904" style="stroke: #A80036; stroke-width: 1.0;"/><text fill="#000000" font-family="Fira Code" font-size="13" lengthAdjust="spacingAndGlyphs" textLength="8" x="681.0937" y="740.502">1</text><!--link executionGraph::LogicSocketDataBase to executionGraph::userData::LogicSocketData--><path d="M437.9629,113.2076 C437.9629,144.4909 437.9629,187.0312 437.9629,222.5999 " fill="none" id="executionGraph::LogicSocketDataBase-executionGraph::userData::LogicSocketData" style="stroke: #A80036; stroke-width: 1.0;"/><polygon fill="none" points="430.963,113.1261,437.9629,93.126,444.963,113.126,430.963,113.1261" style="stroke: #A80036; stroke-width: 1.0;"/><!--link executionGraph::userData::LogicSocketDataConnections to executionGraph::LogicSocketInputBase--><path d="M370.099,751.57 C416.2546,790.8551 469.7078,836.3515 504.3633,865.8484 " fill="none" id="executionGraph::userData::LogicSocketDataConnections-executionGraph::LogicSocketInputBase" style="stroke: #A80036; stroke-width: 1.0;"/><polygon fill="#FFFFFF" points="360.0671,743.0314,362.0435,749.9664,369.2051,750.8093,367.2288,743.8744,360.0671,743.0314" style="stroke: #A80036; stroke-width: 1.0;"/><text fill="#000000" font-family="Fira Code" font-size="13" lengthAdjust="spacingAndGlyphs" textLength="8" x="359.657" y="763.5534">*</text><!--link executionGraph::userData::LogicSocketDataConnections to executionGraph::LogicSocketOutputBase--><path d="M253.6548,755.7929 C241.8088,794.0777 228.4033,837.4028 219.6018,865.8484 " fill="none" id="executionGraph::userData::LogicSocketDataConnections-executionGraph::LogicSocketOutputBase" style="stroke: #A80036; stroke-width: 1.0;"/><polygon fill="#FFFFFF" points="257.6034,743.0314,252.0085,747.5809,254.0562,754.4951,259.651,749.9457,257.6034,743.0314" style="stroke: #A80036; stroke-width: 1.0;"/><text fill="#000000" font-family="Fira Code" font-size="13" lengthAdjust="spacingAndGlyphs" textLength="8" x="247.1071" y="763.5534">*</text><!--link executionGraph::userData::LogicSocketDataRef to executionGraph::userData::LogicSocketData--><path d="M315.9734,290.5 C323.0919,290.5 330.2103,290.5 337.3288,290.5 " fill="none" id="executionGraph::userData::LogicSocketDataRef-executionGraph::userData::LogicSocketData" style="stroke: #A80036; stroke-width: 1.0;"/><polygon fill="#FFFFFF" points="302.7276,290.5,308.7276,294.5,314.7276,290.5,308.7276,286.5,302.7276,290.5" style="stroke: #A80036; stroke-width: 1.0;"/><text fill="#000000" font-family="Fira Code" font-size="13" lengthAdjust="spacingAndGlyphs" textLength="8" x="310.371" y="285.9104">1</text><!--link executionGraph::userData::LogicSocketData to executionGraph::userData::LogicSocketDataConnections--><path d="M381.479,369.9246 C374.612,385.6496 369.9629,402.5535 369.9629,419.5 C369.9629,419.5 369.9629,419.5 369.9629,543.5 C369.9629,565.4584 361.187,586.364 349.0857,604.7529 " fill="none" id="executionGraph::userData::LogicSocketData-executionGraph::userData::LogicSocketDataConnections" style="stroke: #A80036; stroke-width: 1.0;"/><polygon fill="#A80036" points="387.1222,358.1482,380.9221,361.8305,381.9365,368.9699,388.1366,365.2876,387.1222,358.1482" style="stroke: #A80036; stroke-width: 1.0;"/><text fill="#000000" font-family="Fira Code" font-size="13" lengthAdjust="spacingAndGlyphs" textLength="8" x="373.7238" y="378.5368">1</text><!--link executionGraph::LogicSocketConnections to executionGraph::userData::LogicSocketDataConnections--><path d="M139.2425,1477.0867 C65.7396,1343.7352 -55.0348,1072.0597 42.9629,866 C66.8387,815.7964 110.9734,774.4197 154.6731,743.0978 " fill="none" id="executionGraph::LogicSocketConnections-executionGraph::userData::LogicSocketDataConnections" style="stroke: #A80036; stroke-width: 1.0;"/><polygon fill="#A80036" points="145.7612,1488.7772,146.3327,1481.5888,139.9171,1478.2965,139.3456,1485.4849,145.7612,1488.7772" style="stroke: #A80036; stroke-width: 1.0;"/><text fill="#000000" font-family="Fira Code" font-size="13" lengthAdjust="spacingAndGlyphs" textLength="96" x="10.9629" y="1002.87">design-error</text><text fill="#000000" font-family="Fira Code" font-size="13" lengthAdjust="spacingAndGlyphs" textLength="8" x="132.9966" y="1476.653">1</text><!--
@startuml core
set namespaceSeparator ::
skinparam shadowing false
skinparam defaultFontName "Fira Code"

skinparam class{
    BorderColor<< Connections >> Blue
    BorderThickness<< Connections >> 3
}

class DummyNode{
    - -  In/Out Declerations - -
    + inDecls
    + outDecls
    - - Sockets - -
    - m_inSockets
    - m_outSockets
}

namespace executionGraph{

    class LogicNode{
        + init()
        + reset()
        + compute()

        + registerInputs(...)
        + registerOutputs(...)
        - -
        - m_inputs
        - m_outputs
    }

    class LogicSocketInput<Data> {
        + dataHandle() [const]

        + connections() [const]
        - -
        - Connections m_connections
    }

    class LogicSocketOutput<Data> {
        + dataHandle() [const]

        + connections() [const]
        - -
        - Connections m_connections
    }

    class LogicSocketBase {
        + type()
        + index()
        + parent()
    }

    class LogicSocketInputBase {
        + castToType<T>() -> LogicSocketInput<T>
    }

    class LogicSocketOutputBase {
        + castToType<T>() -> LogicSocketOutput<T>
    }

    class LogicSocketConnections<Traits, ParentSocket> << Connections >>{
        Connection for input/output sockets
        - -
        + connect(socketData)
        + disconnect(socketData)
        - -
        SocketDataConnections* m_connections
        Parent* m_parent
    }

    namespace userData{
        class LogicSocketDataConnections<Traits, ParentSocket> << Connections >> {
            Connection for data sockets
            - -
            + connect(socket)
            + disconnect(socket)
            - -
            m_inputs
            m_outputs
        }

        class LogicSocketData<Data>{
            + dataHandle() [const]
            + dataHandleConst()

            + connections() [const]
            - -
            - Data m_data
            - Connections m_connections
        }


        class LogicSocketDataRef<Args...>{
            + setReference(socketData)
            - -
            - LogicSocketData<Args>* m_socketData
        }

    }

    class LogicSocketDataBase{

    }
}

DummyNode -up-|> executionGraph::LogicNode

executionGraph::LogicSocketInput -up-|> executionGraph::LogicSocketInputBase
executionGraph::LogicSocketOutput -up-|> executionGraph::LogicSocketOutputBase

executionGraph::LogicSocketInputBase -up-|> executionGraph::LogicSocketBase
executionGraph::LogicSocketOutputBase -up-|> executionGraph::LogicSocketBase
executionGraph::LogicNode "*" o-up-> executionGraph::LogicSocketInputBase 
executionGraph::LogicNode "*" o-up-> executionGraph::LogicSocketOutputBase 



DummyNode "*" *-up- executionGraph::LogicSocketInput
DummyNode "*" *-up- executionGraph::LogicSocketOutput

executionGraph::LogicSocketInput "1" *- - executionGraph::LogicSocketConnections
executionGraph::LogicSocketOutput "1" *- - executionGraph::LogicSocketConnections

executionGraph::LogicSocketBase "1" o-down- executionGraph::LogicNode

executionGraph::userData::LogicSocketData -up-|> executionGraph::LogicSocketDataBase
executionGraph::userData::LogicSocketDataConnections "*" o-down- executionGraph::LogicSocketInputBase
executionGraph::userData::LogicSocketDataConnections "*" o-down- executionGraph::LogicSocketOutputBase
executionGraph::userData::LogicSocketData -right-o "1" executionGraph::userData::LogicSocketDataRef
executionGraph::userData::LogicSocketData "1" *-down- executionGraph::userData::LogicSocketDataConnections

executionGraph::LogicSocketConnections "1" *- - executionGraph::userData::LogicSocketDataConnections : design-error

@enduml

PlantUML version 1.2018.13(Mon Nov 26 18:11:51 CET 2018)
(GPL source distribution)
Java Runtime: OpenJDK Runtime Environment
JVM: OpenJDK 64-Bit Server VM
Java Version: 11.0.6+10-post-Ubuntu-1ubuntu119.10.1
Operating System: Linux
OS Version: 5.3.0-45-generic
Default Encoding: UTF-8
Language: en
Country: US
--></g></svg>