<?xml version="1.0" encoding="UTF-8" standalone="no"?><svg xmlns="http://www.w3.org/2000/svg" xmlns:xlink="http://www.w3.org/1999/xlink" contentScriptType="application/ecmascript" contentStyleType="text/css" height="1134px" preserveAspectRatio="none" style="width:880px;height:1134px;" version="1.1" viewBox="0 0 880 1134" width="880px" zoomAndPan="magnify"><defs/><g><!--cluster executionGraph--><polygon fill="#FFFFFF" points="14,16,132,16,139,40.3679,858,40.3679,858,937,14,937,14,16" style="stroke: #000000; stroke-width: 1.5;"/><line style="stroke: #000000; stroke-width: 1.5;" x1="14" x2="139" y1="40.3679" y2="40.3679"/><text fill="#000000" font-family="Fira Code" font-size="14" font-weight="bold" lengthAdjust="spacingAndGlyphs" textLength="112" x="18" y="31.8599">executionGraph</text><!--class executionGraph::LogicNode--><rect fill="#FEFECE" height="163.4576" id="executionGraph::LogicNode" style="stroke: #A80036; stroke-width: 1.5;" width="166" x="684" y="571"/><ellipse cx="731.25" cy="587" fill="#ADD1B2" rx="11" ry="11" style="stroke: #A80036; stroke-width: 1.0;"/><path d="M734.2188,592.6406 Q733.6406,592.9375 733,593.0781 Q732.3594,593.2344 731.6563,593.2344 Q729.1563,593.2344 727.8281,591.5938 Q726.5156,589.9375 726.5156,586.8125 Q726.5156,583.6875 727.8281,582.0313 Q729.1563,580.375 731.6563,580.375 Q732.3594,580.375 733,580.5313 Q733.6563,580.6875 734.2188,580.9844 L734.2188,583.7031 Q733.5938,583.125 733,582.8594 Q732.4063,582.5781 731.7813,582.5781 Q730.4375,582.5781 729.75,583.6563 Q729.0625,584.7188 729.0625,586.8125 Q729.0625,588.9063 729.75,589.9844 Q730.4375,591.0469 731.7813,591.0469 Q732.4063,591.0469 733,590.7813 Q733.5938,590.5 734.2188,589.9219 L734.2188,592.6406 Z "/><text fill="#000000" font-family="Fira Code" font-size="12" lengthAdjust="spacingAndGlyphs" textLength="63" x="751.75" y="591.008">LogicNode</text><line style="stroke: #A80036; stroke-width: 1.5;" x1="685" x2="849" y1="603" y2="603"/><ellipse cx="695" cy="615.7161" fill="#84BE84" rx="3" ry="3" style="stroke: #038048; stroke-width: 1.0;"/><text fill="#000000" font-family="Fira Code" font-size="11" lengthAdjust="spacingAndGlyphs" textLength="42" x="704" y="617.8902">init()</text><ellipse cx="695" cy="630.1483" fill="#84BE84" rx="3" ry="3" style="stroke: #038048; stroke-width: 1.0;"/><text fill="#000000" font-family="Fira Code" font-size="11" lengthAdjust="spacingAndGlyphs" textLength="49" x="704" y="632.3224">reset()</text><ellipse cx="695" cy="644.5805" fill="#84BE84" rx="3" ry="3" style="stroke: #038048; stroke-width: 1.0;"/><text fill="#000000" font-family="Fira Code" font-size="11" lengthAdjust="spacingAndGlyphs" textLength="63" x="704" y="646.7546">compute()</text><text fill="#000000" font-family="Fira Code" font-size="11" lengthAdjust="spacingAndGlyphs" textLength="0" x="711" y="661.1868"/><ellipse cx="695" cy="673.4449" fill="#84BE84" rx="3" ry="3" style="stroke: #038048; stroke-width: 1.0;"/><text fill="#000000" font-family="Fira Code" font-size="11" lengthAdjust="spacingAndGlyphs" textLength="133" x="704" y="675.619">registerInputs(...)</text><ellipse cx="695" cy="687.8771" fill="#84BE84" rx="3" ry="3" style="stroke: #038048; stroke-width: 1.0;"/><text fill="#000000" font-family="Fira Code" font-size="11" lengthAdjust="spacingAndGlyphs" textLength="140" x="704" y="690.0512">registerOutputs(...)</text><line style="stroke: #A80036; stroke-width: 1.0;" x1="685" x2="849" y1="697.5932" y2="697.5932"/><rect fill="none" height="6" style="stroke: #C82930; stroke-width: 1.0;" width="6" x="692" y="707.3093"/><text fill="#000000" font-family="Fira Code" font-size="11" lengthAdjust="spacingAndGlyphs" textLength="56" x="704" y="712.4834">m_inputs</text><rect fill="none" height="6" style="stroke: #C82930; stroke-width: 1.0;" width="6" x="692" y="721.7415"/><text fill="#000000" font-family="Fira Code" font-size="11" lengthAdjust="spacingAndGlyphs" textLength="63" x="704" y="726.9156">m_outputs</text><!--class executionGraph::LogicSocketInput--><rect fill="#FEFECE" height="134.5932" id="executionGraph::LogicSocketInput" style="stroke: #A80036; stroke-width: 1.5;" width="201" x="402.5" y="794"/><ellipse cx="428.75" cy="810" fill="#ADD1B2" rx="11" ry="11" style="stroke: #A80036; stroke-width: 1.0;"/><path d="M431.7188,815.6406 Q431.1406,815.9375 430.5,816.0781 Q429.8594,816.2344 429.1563,816.2344 Q426.6563,816.2344 425.3281,814.5938 Q424.0156,812.9375 424.0156,809.8125 Q424.0156,806.6875 425.3281,805.0313 Q426.6563,803.375 429.1563,803.375 Q429.8594,803.375 430.5,803.5313 Q431.1563,803.6875 431.7188,803.9844 L431.7188,806.7031 Q431.0938,806.125 430.5,805.8594 Q429.9063,805.5781 429.2813,805.5781 Q427.9375,805.5781 427.25,806.6563 Q426.5625,807.7188 426.5625,809.8125 Q426.5625,811.9063 427.25,812.9844 Q427.9375,814.0469 429.2813,814.0469 Q429.9063,814.0469 430.5,813.7813 Q431.0938,813.5 431.7188,812.9219 L431.7188,815.6406 Z "/><text fill="#000000" font-family="Fira Code" font-size="12" lengthAdjust="spacingAndGlyphs" textLength="112" x="445.25" y="814.008">LogicSocketInput</text><rect fill="#FFFFFF" height="17.7441" style="stroke: #000000; stroke-width: 1.0; stroke-dasharray: 2.0,2.0;" width="30" x="576.5" y="791"/><text fill="#000000" font-family="Fira Code" font-size="12" font-style="italic" lengthAdjust="spacingAndGlyphs" textLength="28" x="577.5" y="803.8801">Data</text><line style="stroke: #A80036; stroke-width: 1.5;" x1="403.5" x2="602.5" y1="826" y2="826"/><ellipse cx="413.5" cy="838.7161" fill="#84BE84" rx="3" ry="3" style="stroke: #038048; stroke-width: 1.0;"/><text fill="#000000" font-family="Fira Code" font-size="11" lengthAdjust="spacingAndGlyphs" textLength="140" x="422.5" y="840.8902">dataHandle() [const]</text><ellipse cx="413.5" cy="853.1483" fill="#84BE84" rx="3" ry="3" style="stroke: #038048; stroke-width: 1.0;"/><text fill="#000000" font-family="Fira Code" font-size="11" lengthAdjust="spacingAndGlyphs" textLength="84" x="422.5" y="855.3224">connect(...)</text><ellipse cx="413.5" cy="867.5805" fill="#84BE84" rx="3" ry="3" style="stroke: #038048; stroke-width: 1.0;"/><text fill="#000000" font-family="Fira Code" font-size="11" lengthAdjust="spacingAndGlyphs" textLength="84" x="422.5" y="869.7546">disconnect()</text><text fill="#000000" font-family="Fira Code" font-size="11" lengthAdjust="spacingAndGlyphs" textLength="0" x="429.5" y="884.1868"/><ellipse cx="413.5" cy="896.4449" fill="#84BE84" rx="3" ry="3" style="stroke: #038048; stroke-width: 1.0;"/><text fill="#000000" font-family="Fira Code" font-size="11" lengthAdjust="spacingAndGlyphs" textLength="147" x="422.5" y="898.619">connections() [const]</text><line style="stroke: #A80036; stroke-width: 1.0;" x1="403.5" x2="602.5" y1="906.161" y2="906.161"/><rect fill="none" height="6" style="stroke: #C82930; stroke-width: 1.0;" width="6" x="410.5" y="915.8771"/><text fill="#000000" font-family="Fira Code" font-size="11" lengthAdjust="spacingAndGlyphs" textLength="175" x="422.5" y="921.0512">Connections m_connections</text><!--class executionGraph::LogicSocketOutput--><rect fill="#FEFECE" height="134.5932" id="executionGraph::LogicSocketOutput" style="stroke: #A80036; stroke-width: 1.5;" width="201" x="118.5" y="794"/><ellipse cx="141.6" cy="810" fill="#ADD1B2" rx="11" ry="11" style="stroke: #A80036; stroke-width: 1.0;"/><path d="M144.5688,815.6406 Q143.9906,815.9375 143.35,816.0781 Q142.7094,816.2344 142.0063,816.2344 Q139.5063,816.2344 138.1781,814.5938 Q136.8656,812.9375 136.8656,809.8125 Q136.8656,806.6875 138.1781,805.0313 Q139.5063,803.375 142.0063,803.375 Q142.7094,803.375 143.35,803.5313 Q144.0063,803.6875 144.5688,803.9844 L144.5688,806.7031 Q143.9438,806.125 143.35,805.8594 Q142.7563,805.5781 142.1313,805.5781 Q140.7875,805.5781 140.1,806.6563 Q139.4125,807.7188 139.4125,809.8125 Q139.4125,811.9063 140.1,812.9844 Q140.7875,814.0469 142.1313,814.0469 Q142.7563,814.0469 143.35,813.7813 Q143.9438,813.5 144.5688,812.9219 L144.5688,815.6406 Z "/><text fill="#000000" font-family="Fira Code" font-size="12" lengthAdjust="spacingAndGlyphs" textLength="119" x="157.4" y="814.008">LogicSocketOutput</text><rect fill="#FFFFFF" height="17.7441" style="stroke: #000000; stroke-width: 1.0; stroke-dasharray: 2.0,2.0;" width="30" x="292.5" y="791"/><text fill="#000000" font-family="Fira Code" font-size="12" font-style="italic" lengthAdjust="spacingAndGlyphs" textLength="28" x="293.5" y="803.8801">Data</text><line style="stroke: #A80036; stroke-width: 1.5;" x1="119.5" x2="318.5" y1="826" y2="826"/><ellipse cx="129.5" cy="838.7161" fill="#84BE84" rx="3" ry="3" style="stroke: #038048; stroke-width: 1.0;"/><text fill="#000000" font-family="Fira Code" font-size="11" lengthAdjust="spacingAndGlyphs" textLength="140" x="138.5" y="840.8902">dataHandle() [const]</text><ellipse cx="129.5" cy="853.1483" fill="#84BE84" rx="3" ry="3" style="stroke: #038048; stroke-width: 1.0;"/><text fill="#000000" font-family="Fira Code" font-size="11" lengthAdjust="spacingAndGlyphs" textLength="84" x="138.5" y="855.3224">connect(...)</text><ellipse cx="129.5" cy="867.5805" fill="#84BE84" rx="3" ry="3" style="stroke: #038048; stroke-width: 1.0;"/><text fill="#000000" font-family="Fira Code" font-size="11" lengthAdjust="spacingAndGlyphs" textLength="84" x="138.5" y="869.7546">disconnect()</text><text fill="#000000" font-family="Fira Code" font-size="11" lengthAdjust="spacingAndGlyphs" textLength="0" x="145.5" y="884.1868"/><ellipse cx="129.5" cy="896.4449" fill="#84BE84" rx="3" ry="3" style="stroke: #038048; stroke-width: 1.0;"/><text fill="#000000" font-family="Fira Code" font-size="11" lengthAdjust="spacingAndGlyphs" textLength="147" x="138.5" y="898.619">connections() [const]</text><line style="stroke: #A80036; stroke-width: 1.0;" x1="119.5" x2="318.5" y1="906.161" y2="906.161"/><rect fill="none" height="6" style="stroke: #C82930; stroke-width: 1.0;" width="6" x="126.5" y="915.8771"/><text fill="#000000" font-family="Fira Code" font-size="11" lengthAdjust="spacingAndGlyphs" textLength="175" x="138.5" y="921.0512">Connections m_connections</text><!--class executionGraph::LogicSocketBase--><rect fill="#FEFECE" height="91.2966" id="executionGraph::LogicSocketBase" style="stroke: #A80036; stroke-width: 1.5;" width="137" x="434.5" y="420"/><ellipse cx="449.5" cy="436" fill="#ADD1B2" rx="11" ry="11" style="stroke: #A80036; stroke-width: 1.0;"/><path d="M452.4688,441.6406 Q451.8906,441.9375 451.25,442.0781 Q450.6094,442.2344 449.9063,442.2344 Q447.4063,442.2344 446.0781,440.5938 Q444.7656,438.9375 444.7656,435.8125 Q444.7656,432.6875 446.0781,431.0313 Q447.4063,429.375 449.9063,429.375 Q450.6094,429.375 451.25,429.5313 Q451.9063,429.6875 452.4688,429.9844 L452.4688,432.7031 Q451.8438,432.125 451.25,431.8594 Q450.6563,431.5781 450.0313,431.5781 Q448.6875,431.5781 448,432.6563 Q447.3125,433.7188 447.3125,435.8125 Q447.3125,437.9063 448,438.9844 Q448.6875,440.0469 450.0313,440.0469 Q450.6563,440.0469 451.25,439.7813 Q451.8438,439.5 452.4688,438.9219 L452.4688,441.6406 Z "/><text fill="#000000" font-family="Fira Code" font-size="12" lengthAdjust="spacingAndGlyphs" textLength="105" x="463.5" y="440.008">LogicSocketBase</text><line style="stroke: #A80036; stroke-width: 1.5;" x1="435.5" x2="570.5" y1="452" y2="452"/><line style="stroke: #A80036; stroke-width: 1.5;" x1="435.5" x2="570.5" y1="460" y2="460"/><ellipse cx="445.5" cy="472.7161" fill="#84BE84" rx="3" ry="3" style="stroke: #038048; stroke-width: 1.0;"/><text fill="#000000" font-family="Fira Code" font-size="11" lengthAdjust="spacingAndGlyphs" textLength="42" x="454.5" y="474.8902">type()</text><ellipse cx="445.5" cy="487.1483" fill="#84BE84" rx="3" ry="3" style="stroke: #038048; stroke-width: 1.0;"/><text fill="#000000" font-family="Fira Code" font-size="11" lengthAdjust="spacingAndGlyphs" textLength="49" x="454.5" y="489.3224">index()</text><ellipse cx="445.5" cy="501.5805" fill="#84BE84" rx="3" ry="3" style="stroke: #038048; stroke-width: 1.0;"/><text fill="#000000" font-family="Fira Code" font-size="11" lengthAdjust="spacingAndGlyphs" textLength="56" x="454.5" y="503.7546">parent()</text><!--class executionGraph::LogicSocketInputBase--><rect fill="#FEFECE" height="62.4322" id="executionGraph::LogicSocketInputBase" style="stroke: #A80036; stroke-width: 1.5;" width="292" x="357" y="621.5"/><ellipse cx="428.75" cy="637.5" fill="#ADD1B2" rx="11" ry="11" style="stroke: #A80036; stroke-width: 1.0;"/><path d="M431.7188,643.1406 Q431.1406,643.4375 430.5,643.5781 Q429.8594,643.7344 429.1563,643.7344 Q426.6563,643.7344 425.3281,642.0938 Q424.0156,640.4375 424.0156,637.3125 Q424.0156,634.1875 425.3281,632.5313 Q426.6563,630.875 429.1563,630.875 Q429.8594,630.875 430.5,631.0313 Q431.1563,631.1875 431.7188,631.4844 L431.7188,634.2031 Q431.0938,633.625 430.5,633.3594 Q429.9063,633.0781 429.2813,633.0781 Q427.9375,633.0781 427.25,634.1563 Q426.5625,635.2188 426.5625,637.3125 Q426.5625,639.4063 427.25,640.4844 Q427.9375,641.5469 429.2813,641.5469 Q429.9063,641.5469 430.5,641.2813 Q431.0938,641 431.7188,640.4219 L431.7188,643.1406 Z "/><text fill="#000000" font-family="Fira Code" font-size="12" lengthAdjust="spacingAndGlyphs" textLength="140" x="449.25" y="641.508">LogicSocketInputBase</text><line style="stroke: #A80036; stroke-width: 1.5;" x1="358" x2="648" y1="653.5" y2="653.5"/><line style="stroke: #A80036; stroke-width: 1.5;" x1="358" x2="648" y1="661.5" y2="661.5"/><ellipse cx="368" cy="674.2161" fill="#84BE84" rx="3" ry="3" style="stroke: #038048; stroke-width: 1.0;"/><text fill="#000000" font-family="Fira Code" font-size="11" lengthAdjust="spacingAndGlyphs" textLength="266" x="377" y="676.3902">castToType&lt;T&gt;() -&gt; LogicSocketInput&lt;T&gt;</text><!--class executionGraph::LogicSocketOutputBase--><rect fill="#FEFECE" height="62.4322" id="executionGraph::LogicSocketOutputBase" style="stroke: #A80036; stroke-width: 1.5;" width="299" x="22.5" y="621.5"/><ellipse cx="94.25" cy="637.5" fill="#ADD1B2" rx="11" ry="11" style="stroke: #A80036; stroke-width: 1.0;"/><path d="M97.2188,643.1406 Q96.6406,643.4375 96,643.5781 Q95.3594,643.7344 94.6563,643.7344 Q92.1563,643.7344 90.8281,642.0938 Q89.5156,640.4375 89.5156,637.3125 Q89.5156,634.1875 90.8281,632.5313 Q92.1563,630.875 94.6563,630.875 Q95.3594,630.875 96,631.0313 Q96.6563,631.1875 97.2188,631.4844 L97.2188,634.2031 Q96.5938,633.625 96,633.3594 Q95.4063,633.0781 94.7813,633.0781 Q93.4375,633.0781 92.75,634.1563 Q92.0625,635.2188 92.0625,637.3125 Q92.0625,639.4063 92.75,640.4844 Q93.4375,641.5469 94.7813,641.5469 Q95.4063,641.5469 96,641.2813 Q96.5938,641 97.2188,640.4219 L97.2188,643.1406 Z "/><text fill="#000000" font-family="Fira Code" font-size="12" lengthAdjust="spacingAndGlyphs" textLength="147" x="114.75" y="641.508">LogicSocketOutputBase</text><line style="stroke: #A80036; stroke-width: 1.5;" x1="23.5" x2="320.5" y1="653.5" y2="653.5"/><line style="stroke: #A80036; stroke-width: 1.5;" x1="23.5" x2="320.5" y1="661.5" y2="661.5"/><ellipse cx="33.5" cy="674.2161" fill="#84BE84" rx="3" ry="3" style="stroke: #038048; stroke-width: 1.0;"/><text fill="#000000" font-family="Fira Code" font-size="11" lengthAdjust="spacingAndGlyphs" textLength="273" x="42.5" y="676.3902">castToType&lt;T&gt;() -&gt; LogicSocketOutput&lt;T&gt;</text><!--class executionGraph::LogicSocketData--><rect fill="#FEFECE" height="206.7543" id="executionGraph::LogicSocketData" style="stroke: #A80036; stroke-width: 1.5;" width="201" x="365.5" y="153"/><ellipse cx="394.9" cy="169" fill="#ADD1B2" rx="11" ry="11" style="stroke: #A80036; stroke-width: 1.0;"/><path d="M397.8688,174.6406 Q397.2906,174.9375 396.65,175.0781 Q396.0094,175.2344 395.3063,175.2344 Q392.8063,175.2344 391.4781,173.5938 Q390.1656,171.9375 390.1656,168.8125 Q390.1656,165.6875 391.4781,164.0313 Q392.8063,162.375 395.3063,162.375 Q396.0094,162.375 396.65,162.5313 Q397.3063,162.6875 397.8688,162.9844 L397.8688,165.7031 Q397.2438,165.125 396.65,164.8594 Q396.0563,164.5781 395.4313,164.5781 Q394.0875,164.5781 393.4,165.6563 Q392.7125,166.7188 392.7125,168.8125 Q392.7125,170.9063 393.4,171.9844 Q394.0875,173.0469 395.4313,173.0469 Q396.0563,173.0469 396.65,172.7813 Q397.2438,172.5 397.8688,171.9219 L397.8688,174.6406 Z "/><text fill="#000000" font-family="Fira Code" font-size="12" lengthAdjust="spacingAndGlyphs" textLength="105" x="412.1" y="173.008">LogicSocketData</text><rect fill="#FFFFFF" height="17.7441" style="stroke: #000000; stroke-width: 1.0; stroke-dasharray: 2.0,2.0;" width="30" x="539.5" y="150"/><text fill="#000000" font-family="Fira Code" font-size="12" font-style="italic" lengthAdjust="spacingAndGlyphs" textLength="28" x="540.5" y="162.8801">Data</text><line style="stroke: #A80036; stroke-width: 1.5;" x1="366.5" x2="565.5" y1="185" y2="185"/><ellipse cx="376.5" cy="197.7161" fill="#84BE84" rx="3" ry="3" style="stroke: #038048; stroke-width: 1.0;"/><text fill="#000000" font-family="Fira Code" font-size="11" lengthAdjust="spacingAndGlyphs" textLength="140" x="385.5" y="199.8902">dataHandle() [const]</text><ellipse cx="376.5" cy="212.1483" fill="#84BE84" rx="3" ry="3" style="stroke: #038048; stroke-width: 1.0;"/><text fill="#000000" font-family="Fira Code" font-size="11" lengthAdjust="spacingAndGlyphs" textLength="119" x="385.5" y="214.3224">dataHandleConst()</text><text fill="#000000" font-family="Fira Code" font-size="11" lengthAdjust="spacingAndGlyphs" textLength="0" x="392.5" y="228.7546"/><ellipse cx="376.5" cy="241.0127" fill="#84BE84" rx="3" ry="3" style="stroke: #038048; stroke-width: 1.0;"/><text fill="#000000" font-family="Fira Code" font-size="11" lengthAdjust="spacingAndGlyphs" textLength="140" x="385.5" y="243.1868">connect(inputSocket)</text><ellipse cx="376.5" cy="255.4449" fill="#84BE84" rx="3" ry="3" style="stroke: #038048; stroke-width: 1.0;"/><text fill="#000000" font-family="Fira Code" font-size="11" lengthAdjust="spacingAndGlyphs" textLength="161" x="385.5" y="257.619">disconnect(inputSocket)</text><ellipse cx="376.5" cy="269.8771" fill="#84BE84" rx="3" ry="3" style="stroke: #038048; stroke-width: 1.0;"/><text fill="#000000" font-family="Fira Code" font-size="11" lengthAdjust="spacingAndGlyphs" textLength="147" x="385.5" y="272.0512">connect(outputSocket)</text><ellipse cx="376.5" cy="284.3093" fill="#84BE84" rx="3" ry="3" style="stroke: #038048; stroke-width: 1.0;"/><text fill="#000000" font-family="Fira Code" font-size="11" lengthAdjust="spacingAndGlyphs" textLength="168" x="385.5" y="286.4834">disconnect(outputSocket)</text><text fill="#000000" font-family="Fira Code" font-size="11" lengthAdjust="spacingAndGlyphs" textLength="0" x="392.5" y="300.9156"/><ellipse cx="376.5" cy="313.1737" fill="#84BE84" rx="3" ry="3" style="stroke: #038048; stroke-width: 1.0;"/><text fill="#000000" font-family="Fira Code" font-size="11" lengthAdjust="spacingAndGlyphs" textLength="147" x="385.5" y="315.3478">connections() [const]</text><line style="stroke: #A80036; stroke-width: 1.0;" x1="366.5" x2="565.5" y1="322.8898" y2="322.8898"/><rect fill="none" height="6" style="stroke: #C82930; stroke-width: 1.0;" width="6" x="373.5" y="332.6059"/><text fill="#000000" font-family="Fira Code" font-size="11" lengthAdjust="spacingAndGlyphs" textLength="77" x="385.5" y="337.78">Data m_data</text><rect fill="none" height="6" style="stroke: #C82930; stroke-width: 1.0;" width="6" x="373.5" y="347.0382"/><text fill="#000000" font-family="Fira Code" font-size="11" lengthAdjust="spacingAndGlyphs" textLength="175" x="385.5" y="352.2122">Connections m_connections</text><!--class executionGraph::LogicSocketDataRef--><rect fill="#FEFECE" height="76.8644" id="executionGraph::LogicSocketDataRef" style="stroke: #A80036; stroke-width: 1.5;" width="271" x="59.5" y="218"/><ellipse cx="101.5" cy="234" fill="#ADD1B2" rx="11" ry="11" style="stroke: #A80036; stroke-width: 1.0;"/><path d="M104.4688,239.6406 Q103.8906,239.9375 103.25,240.0781 Q102.6094,240.2344 101.9063,240.2344 Q99.4063,240.2344 98.0781,238.5938 Q96.7656,236.9375 96.7656,233.8125 Q96.7656,230.6875 98.0781,229.0313 Q99.4063,227.375 101.9063,227.375 Q102.6094,227.375 103.25,227.5313 Q103.9063,227.6875 104.4688,227.9844 L104.4688,230.7031 Q103.8438,230.125 103.25,229.8594 Q102.6563,229.5781 102.0313,229.5781 Q100.6875,229.5781 100,230.6563 Q99.3125,231.7188 99.3125,233.8125 Q99.3125,235.9063 100,236.9844 Q100.6875,238.0469 102.0313,238.0469 Q102.6563,238.0469 103.25,237.7813 Q103.8438,237.5 104.4688,236.9219 L104.4688,239.6406 Z "/><text fill="#000000" font-family="Fira Code" font-size="12" lengthAdjust="spacingAndGlyphs" textLength="126" x="121.5" y="238.008">LogicSocketDataRef</text><rect fill="#FFFFFF" height="17.7441" style="stroke: #000000; stroke-width: 1.0; stroke-dasharray: 2.0,2.0;" width="51" x="282.5" y="215"/><text fill="#000000" font-family="Fira Code" font-size="12" font-style="italic" lengthAdjust="spacingAndGlyphs" textLength="49" x="283.5" y="227.8801">Args...</text><line style="stroke: #A80036; stroke-width: 1.5;" x1="60.5" x2="329.5" y1="250" y2="250"/><ellipse cx="70.5" cy="262.7161" fill="#84BE84" rx="3" ry="3" style="stroke: #038048; stroke-width: 1.0;"/><text fill="#000000" font-family="Fira Code" font-size="11" lengthAdjust="spacingAndGlyphs" textLength="168" x="79.5" y="264.8902">setReference(socketData)</text><line style="stroke: #A80036; stroke-width: 1.0;" x1="60.5" x2="329.5" y1="272.4322" y2="272.4322"/><rect fill="none" height="6" style="stroke: #C82930; stroke-width: 1.0;" width="6" x="67.5" y="282.1483"/><text fill="#000000" font-family="Fira Code" font-size="11" lengthAdjust="spacingAndGlyphs" textLength="245" x="79.5" y="287.3224">LogicSocketData&lt;Args&gt;* m_socketData</text><!--class executionGraph::LogicSocketDataBase--><rect fill="#FEFECE" height="48" id="executionGraph::LogicSocketDataBase" style="stroke: #A80036; stroke-width: 1.5;" width="165" x="383.5" y="45"/><ellipse cx="398.5" cy="61" fill="#ADD1B2" rx="11" ry="11" style="stroke: #A80036; stroke-width: 1.0;"/><path d="M401.4688,66.6406 Q400.8906,66.9375 400.25,67.0781 Q399.6094,67.2344 398.9063,67.2344 Q396.4063,67.2344 395.0781,65.5938 Q393.7656,63.9375 393.7656,60.8125 Q393.7656,57.6875 395.0781,56.0313 Q396.4063,54.375 398.9063,54.375 Q399.6094,54.375 400.25,54.5313 Q400.9063,54.6875 401.4688,54.9844 L401.4688,57.7031 Q400.8438,57.125 400.25,56.8594 Q399.6563,56.5781 399.0313,56.5781 Q397.6875,56.5781 397,57.6563 Q396.3125,58.7188 396.3125,60.8125 Q396.3125,62.9063 397,63.9844 Q397.6875,65.0469 399.0313,65.0469 Q399.6563,65.0469 400.25,64.7813 Q400.8438,64.5 401.4688,63.9219 L401.4688,66.6406 Z "/><text fill="#000000" font-family="Fira Code" font-size="12" lengthAdjust="spacingAndGlyphs" textLength="133" x="412.5" y="65.008">LogicSocketDataBase</text><line style="stroke: #A80036; stroke-width: 1.5;" x1="384.5" x2="547.5" y1="77" y2="77"/><line style="stroke: #A80036; stroke-width: 1.5;" x1="384.5" x2="547.5" y1="85" y2="85"/><!--class DummyNode--><rect fill="#FEFECE" height="134.5932" id="DummyNode" style="stroke: #A80036; stroke-width: 1.5;" width="141" x="432.5" y="989"/><ellipse cx="468.2" cy="1005" fill="#ADD1B2" rx="11" ry="11" style="stroke: #A80036; stroke-width: 1.0;"/><path d="M471.1688,1010.6406 Q470.5906,1010.9375 469.95,1011.0781 Q469.3094,1011.2344 468.6063,1011.2344 Q466.1063,1011.2344 464.7781,1009.5938 Q463.4656,1007.9375 463.4656,1004.8125 Q463.4656,1001.6875 464.7781,1000.0313 Q466.1063,998.375 468.6063,998.375 Q469.3094,998.375 469.95,998.5313 Q470.6063,998.6875 471.1688,998.9844 L471.1688,1001.7031 Q470.5438,1001.125 469.95,1000.8594 Q469.3563,1000.5781 468.7313,1000.5781 Q467.3875,1000.5781 466.7,1001.6563 Q466.0125,1002.7188 466.0125,1004.8125 Q466.0125,1006.9063 466.7,1007.9844 Q467.3875,1009.0469 468.7313,1009.0469 Q469.3563,1009.0469 469.95,1008.7813 Q470.5438,1008.5 471.1688,1007.9219 L471.1688,1010.6406 Z "/><text fill="#000000" font-family="Fira Code" font-size="12" lengthAdjust="spacingAndGlyphs" textLength="63" x="486.8" y="1009.008">DummyNode</text><line style="stroke: #A80036; stroke-width: 1.5;" x1="433.5" x2="572.5" y1="1021" y2="1021"/><ellipse cx="443.5" cy="1052.1483" fill="none" rx="3" ry="3" style="stroke: #038048; stroke-width: 1.0;"/><text fill="#000000" font-family="Fira Code" font-size="11" lengthAdjust="spacingAndGlyphs" textLength="49" x="452.5" y="1054.3224">inDecls</text><ellipse cx="443.5" cy="1066.5805" fill="none" rx="3" ry="3" style="stroke: #038048; stroke-width: 1.0;"/><text fill="#000000" font-family="Fira Code" font-size="11" lengthAdjust="spacingAndGlyphs" textLength="56" x="452.5" y="1068.7546">outDecls</text><line style="stroke: #A80036; stroke-width: 1.0;" x1="433.5" x2="436.5" y1="1036.2161" y2="1036.2161"/><text fill="#000000" font-family="Fira Code" font-size="11" lengthAdjust="spacingAndGlyphs" textLength="133" x="436.5" y="1039.3902">In/Out Declerations</text><line style="stroke: #A80036; stroke-width: 1.0;" x1="569.5" x2="572.5" y1="1036.2161" y2="1036.2161"/><rect fill="none" height="6" style="stroke: #C82930; stroke-width: 1.0;" width="6" x="440.5" y="1096.4449"/><text fill="#000000" font-family="Fira Code" font-size="11" lengthAdjust="spacingAndGlyphs" textLength="77" x="452.5" y="1101.619">m_inSockets</text><rect fill="none" height="6" style="stroke: #C82930; stroke-width: 1.0;" width="6" x="440.5" y="1110.8771"/><text fill="#000000" font-family="Fira Code" font-size="11" lengthAdjust="spacingAndGlyphs" textLength="84" x="452.5" y="1116.0512">m_outSockets</text><line style="stroke: #A80036; stroke-width: 1.0;" x1="433.5" x2="478.5" y1="1083.5127" y2="1083.5127"/><text fill="#000000" font-family="Fira Code" font-size="11" lengthAdjust="spacingAndGlyphs" textLength="49" x="478.5" y="1086.6868">Sockets</text><line style="stroke: #A80036; stroke-width: 1.0;" x1="527.5" x2="572.5" y1="1083.5127" y2="1083.5127"/><!--link executionGraph::LogicNode to DummyNode--><path d="M724.8886,752.371 C698.8311,808.9746 662.4768,879.7064 621,937 C607.1511,956.13 590.2526,975.1178 573.6209,992.1382 " fill="none" id="executionGraph::LogicNode-DummyNode" style="stroke: #A80036; stroke-width: 1.0;"/><polygon fill="none" points="718.5192,749.4672,733.1516,734.141,731.2704,755.247,718.5192,749.4672" style="stroke: #A80036; stroke-width: 1.0;"/><!--link executionGraph::LogicSocketInputBase to executionGraph::LogicSocketInput--><path d="M503,703.8935 C503,730.9487 503,764.4723 503,793.6369 " fill="none" id="executionGraph::LogicSocketInputBase-executionGraph::LogicSocketInput" style="stroke: #A80036; stroke-width: 1.0;"/><polygon fill="none" points="496.0001,703.7894,503,683.7894,510.0001,703.7894,496.0001,703.7894" style="stroke: #A80036; stroke-width: 1.0;"/><!--link executionGraph::LogicSocketOutputBase to executionGraph::LogicSocketOutput--><path d="M183.4671,703.4922 C189.5669,730.6167 197.1479,764.3279 203.7389,793.6369 " fill="none" id="executionGraph::LogicSocketOutputBase-executionGraph::LogicSocketOutput" style="stroke: #A80036; stroke-width: 1.0;"/><polygon fill="none" points="176.595,704.8379,179.0364,683.7894,190.2539,701.7663,176.595,704.8379" style="stroke: #A80036; stroke-width: 1.0;"/><!--link executionGraph::LogicSocketBase to executionGraph::LogicSocketInputBase--><path d="M503,531.5112 C503,562.0346 503,596.8479 503,621.2695 " fill="none" id="executionGraph::LogicSocketBase-executionGraph::LogicSocketInputBase" style="stroke: #A80036; stroke-width: 1.0;"/><polygon fill="none" points="496.0001,531.2454,503,511.2453,510.0001,531.2453,496.0001,531.2454" style="stroke: #A80036; stroke-width: 1.0;"/><!--link executionGraph::LogicSocketBase to executionGraph::LogicSocketOutputBase--><path d="M416.845,514.1737 C356.9056,548.0367 278.7765,592.1761 227.0804,621.3821 " fill="none" id="executionGraph::LogicSocketBase-executionGraph::LogicSocketOutputBase" style="stroke: #A80036; stroke-width: 1.0;"/><polygon fill="none" points="413.5602,507.9896,434.4166,504.2465,420.4466,520.1789,413.5602,507.9896" style="stroke: #A80036; stroke-width: 1.0;"/><!--link executionGraph::LogicSocketBase to executionGraph::LogicSocketData--><!--link executionGraph::LogicSocketData to executionGraph::LogicSocketBase--><!--link executionGraph::LogicSocketInput to DummyNode--><path d="M503,929.1543 C503,944.1282 503,960.1415 503,975.5831 " fill="none" id="executionGraph::LogicSocketInput-DummyNode" style="stroke: #A80036; stroke-width: 1.0;"/><polygon fill="#A80036" points="503,988.9653,507,982.9653,503,976.9653,499,982.9653,503,988.9653" style="stroke: #A80036; stroke-width: 1.0;"/><text fill="#000000" font-family="Fira Code" font-size="13" lengthAdjust="spacingAndGlyphs" textLength="8" x="494.5875" y="977.0181">*</text><!--link executionGraph::LogicSocketOutput to DummyNode--><path d="M317.5324,929.1543 C351.5013,952.478 389.1429,978.3235 421.5897,1000.6021 " fill="none" id="executionGraph::LogicSocketOutput-DummyNode" style="stroke: #A80036; stroke-width: 1.0;"/><polygon fill="#A80036" points="432.3815,1008.0119,429.6993,1001.3182,422.4889,1001.2195,425.1711,1007.9132,432.3815,1008.0119" style="stroke: #A80036; stroke-width: 1.0;"/><text fill="#000000" font-family="Fira Code" font-size="13" lengthAdjust="spacingAndGlyphs" textLength="8" x="416.6865" y="998.0289">*</text><!--link executionGraph::LogicSocketBase to executionGraph::LogicNode--><path d="M582.6157,514.189 C609.8215,531.4877 640.1479,551.5148 667,571 C672.5287,575.0119 678.1595,579.2247 683.7896,583.5336 " fill="none" id="executionGraph::LogicSocketBase-executionGraph::LogicNode" style="stroke: #A80036; stroke-width: 1.0;"/><polygon fill="#A80036" points="571.5656,507.2028,574.4995,513.7901,581.7085,513.6154,578.7746,507.0281,571.5656,507.2028" style="stroke: #A80036; stroke-width: 1.0;"/><text fill="#000000" font-family="Fira Code" font-size="13" lengthAdjust="spacingAndGlyphs" textLength="8" x="579.5025" y="506.6912">1</text><!--link executionGraph::LogicSocketDataBase to executionGraph::LogicSocketData--><path d="M466,113.3869 C466,125.3613 466,138.8389 466,152.6117 " fill="none" id="executionGraph::LogicSocketDataBase-executionGraph::LogicSocketData" style="stroke: #A80036; stroke-width: 1.0;"/><polygon fill="none" points="459.0001,113.1285,466,93.1285,473.0001,113.1285,459.0001,113.1285" style="stroke: #A80036; stroke-width: 1.0;"/><!--link executionGraph::LogicSocketData to executionGraph::LogicSocketInputBase--><path d="M420.9717,372.9275 C409.9766,416.6043 404.5202,466.4377 417,511 C428.6675,552.6618 456.3395,594.243 477.1657,621.4394 " fill="none" id="executionGraph::LogicSocketData-executionGraph::LogicSocketInputBase" style="stroke: #A80036; stroke-width: 1.0;"/><polygon fill="#A80036" points="424.3778,360.1842,418.9641,364.9478,421.2792,371.7772,426.6928,367.0136,424.3778,360.1842" style="stroke: #A80036; stroke-width: 1.0;"/><text fill="#000000" font-family="Fira Code" font-size="13" lengthAdjust="spacingAndGlyphs" textLength="8" x="413.3126" y="380.6017">*</text><!--link executionGraph::LogicSocketData to executionGraph::LogicSocketOutputBase--><path d="M381.285,370.6059 C317.6854,456.2706 235.0019,567.6403 195.2909,621.1286 " fill="none" id="executionGraph::LogicSocketData-executionGraph::LogicSocketOutputBase" style="stroke: #A80036; stroke-width: 1.0;"/><polygon fill="#A80036" points="389.139,360.0271,382.3508,362.4602,381.9858,369.662,388.7741,367.229,389.139,360.0271" style="stroke: #A80036; stroke-width: 1.0;"/><text fill="#000000" font-family="Fira Code" font-size="13" lengthAdjust="spacingAndGlyphs" textLength="8" x="375.4535" y="380.7846">*</text><!--link executionGraph::LogicSocketDataRef to executionGraph::LogicSocketData--><path d="M344.0104,256.5 C351.1289,256.5 358.2474,256.5 365.3659,256.5 " fill="none" id="executionGraph::LogicSocketDataRef-executionGraph::LogicSocketData" style="stroke: #A80036; stroke-width: 1.0;"/><polygon fill="#A80036" points="330.7646,256.5,336.7646,260.5,342.7646,256.5,336.7646,252.5,330.7646,256.5" style="stroke: #A80036; stroke-width: 1.0;"/><text fill="#000000" font-family="Fira Code" font-size="13" lengthAdjust="spacingAndGlyphs" textLength="8" x="338.408" y="251.9104">1</text><!--
@startuml core
set namespaceSeparator ::
skinparam shadowing false
skinparam defaultFontName "Fira Code"

class DummyNode{
    - -  In/Out Declerations - -
    + inDecls
    + outDecls
    - - Sockets - -
    - m_inSockets
    - m_outSockets
}

namespace executionGraph{

    class LogicNode{
        + init()
        + reset()
        + compute()

        + registerInputs(...)
        + registerOutputs(...)
        - -
        - m_inputs
        - m_outputs
    }

    class LogicSocketInput<Data> {
        + dataHandle() [const]
        + connect(...)
        + disconnect()

        + connections() [const]
        - -
        - Connections m_connections
    }

    class LogicSocketOutput<Data> {
        + dataHandle() [const]
        + connect(...)
        + disconnect()

        + connections() [const]
        - -
        - Connections m_connections
    }

    class LogicSocketBase {
        + type()
        + index()
        + parent()
    }

    class LogicSocketInputBase {
        + castToType<T>() -> LogicSocketInput<T>
    }

    class LogicSocketOutputBase {
        + castToType<T>() -> LogicSocketOutput<T>
    }

    class LogicSocketData<Data>{
        + dataHandle() [const]
        + dataHandleConst()

        + connect(inputSocket)
        + disconnect(inputSocket)
        + connect(outputSocket)
        + disconnect(outputSocket)

        + connections() [const]
        - -
        - Data m_data
        - Connections m_connections
    } 

    class LogicSocketDataRef<Args...>{
        + setReference(socketData)
        - -
        - LogicSocketData<Args>* m_socketData
    } 

    class LogicSocketDataBase{

    }
}

DummyNode -up-|> executionGraph::LogicNode

executionGraph::LogicSocketInput -up-|> executionGraph::LogicSocketInputBase
executionGraph::LogicSocketOutput -up-|> executionGraph::LogicSocketOutputBase

executionGraph::LogicSocketInputBase -up-|> executionGraph::LogicSocketBase
executionGraph::LogicSocketOutputBase -up-|> executionGraph::LogicSocketBase
executionGraph::LogicSocketBase -[hidden]-> executionGraph::LogicSocketData
executionGraph::LogicSocketBase -up[hidden]-> executionGraph::LogicSocketData


DummyNode "*" *-up- executionGraph::LogicSocketInput
DummyNode "*" *-up- executionGraph::LogicSocketOutput

executionGraph::LogicSocketBase "1" *-down- executionGraph::LogicNode

executionGraph::LogicSocketData -up-|>  executionGraph::LogicSocketDataBase

executionGraph::LogicSocketData "*" *-down- executionGraph::LogicSocketInputBase
executionGraph::LogicSocketData "*" *-down- executionGraph::LogicSocketOutputBase

executionGraph::LogicSocketData -right-* "1" executionGraph::LogicSocketDataRef

@enduml

PlantUML version 1.2018.13(Mon Nov 26 18:11:51 CET 2018)
(GPL source distribution)
Java Runtime: OpenJDK Runtime Environment
JVM: OpenJDK 64-Bit Server VM
Java Version: 11.0.6+10-post-Ubuntu-1ubuntu119.10.1
Operating System: Linux
OS Version: 5.3.0-45-generic
Default Encoding: UTF-8
Language: en
Country: US
--></g></svg>