<?xml version="1.0" encoding="UTF-8" standalone="no"?><svg xmlns="http://www.w3.org/2000/svg" xmlns:xlink="http://www.w3.org/1999/xlink" contentScriptType="application/ecmascript" contentStyleType="text/css" height="1695px" preserveAspectRatio="none" style="width:962px;height:1695px;" version="1.1" viewBox="0 0 962 1695" width="962px" zoomAndPan="magnify"><defs/><g><!--cluster executionGraph--><polygon fill="#FFFFFF" points="14,16,132,16,139,40.3679,802,40.3679,802,1683,14,1683,14,16" style="stroke: #000000; stroke-width: 1.5;"/><line style="stroke: #000000; stroke-width: 1.5;" x1="14" x2="139" y1="40.3679" y2="40.3679"/><text fill="#000000" font-family="Fira Code" font-size="14" font-weight="bold" lengthAdjust="spacingAndGlyphs" textLength="112" x="18" y="31.8599">executionGraph</text><!--cluster executionGraph::userData--><polygon fill="#FFFFFF" points="22,194,92,194,99,218.3679,546,218.3679,546,848.5,22,848.5,22,194" style="stroke: #000000; stroke-width: 1.5;"/><line style="stroke: #000000; stroke-width: 1.5;" x1="22" x2="99" y1="218.3679" y2="218.3679"/><text fill="#000000" font-family="Fira Code" font-size="14" font-weight="bold" lengthAdjust="spacingAndGlyphs" textLength="64" x="26" y="209.8599">userData</text><!--class executionGraph::LogicNode--><rect fill="#FEFECE" height="163.4576" id="executionGraph::LogicNode" style="stroke: #A80036; stroke-width: 1.5;" width="166" x="628" y="695"/><ellipse cx="675.25" cy="711" fill="#ADD1B2" rx="11" ry="11" style="stroke: #A80036; stroke-width: 1.0;"/><path d="M678.2188,716.6406 Q677.6406,716.9375 677,717.0781 Q676.3594,717.2344 675.6563,717.2344 Q673.1563,717.2344 671.8281,715.5938 Q670.5156,713.9375 670.5156,710.8125 Q670.5156,707.6875 671.8281,706.0313 Q673.1563,704.375 675.6563,704.375 Q676.3594,704.375 677,704.5313 Q677.6563,704.6875 678.2188,704.9844 L678.2188,707.7031 Q677.5938,707.125 677,706.8594 Q676.4063,706.5781 675.7813,706.5781 Q674.4375,706.5781 673.75,707.6563 Q673.0625,708.7188 673.0625,710.8125 Q673.0625,712.9063 673.75,713.9844 Q674.4375,715.0469 675.7813,715.0469 Q676.4063,715.0469 677,714.7813 Q677.5938,714.5 678.2188,713.9219 L678.2188,716.6406 Z "/><text fill="#000000" font-family="Fira Code" font-size="12" lengthAdjust="spacingAndGlyphs" textLength="63" x="695.75" y="715.008">LogicNode</text><line style="stroke: #A80036; stroke-width: 1.5;" x1="629" x2="793" y1="727" y2="727"/><ellipse cx="639" cy="739.7161" fill="#84BE84" rx="3" ry="3" style="stroke: #038048; stroke-width: 1.0;"/><text fill="#000000" font-family="Fira Code" font-size="11" lengthAdjust="spacingAndGlyphs" textLength="42" x="648" y="741.8902">init()</text><ellipse cx="639" cy="754.1483" fill="#84BE84" rx="3" ry="3" style="stroke: #038048; stroke-width: 1.0;"/><text fill="#000000" font-family="Fira Code" font-size="11" lengthAdjust="spacingAndGlyphs" textLength="49" x="648" y="756.3224">reset()</text><ellipse cx="639" cy="768.5805" fill="#84BE84" rx="3" ry="3" style="stroke: #038048; stroke-width: 1.0;"/><text fill="#000000" font-family="Fira Code" font-size="11" lengthAdjust="spacingAndGlyphs" textLength="63" x="648" y="770.7546">compute()</text><text fill="#000000" font-family="Fira Code" font-size="11" lengthAdjust="spacingAndGlyphs" textLength="0" x="655" y="785.1868"/><ellipse cx="639" cy="797.4449" fill="#84BE84" rx="3" ry="3" style="stroke: #038048; stroke-width: 1.0;"/><text fill="#000000" font-family="Fira Code" font-size="11" lengthAdjust="spacingAndGlyphs" textLength="133" x="648" y="799.619">registerInputs(...)</text><ellipse cx="639" cy="811.8771" fill="#84BE84" rx="3" ry="3" style="stroke: #038048; stroke-width: 1.0;"/><text fill="#000000" font-family="Fira Code" font-size="11" lengthAdjust="spacingAndGlyphs" textLength="140" x="648" y="814.0512">registerOutputs(...)</text><line style="stroke: #A80036; stroke-width: 1.0;" x1="629" x2="793" y1="821.5932" y2="821.5932"/><rect fill="none" height="6" style="stroke: #C82930; stroke-width: 1.0;" width="6" x="636" y="831.3093"/><text fill="#000000" font-family="Fira Code" font-size="11" lengthAdjust="spacingAndGlyphs" textLength="56" x="648" y="836.4834">m_inputs</text><rect fill="none" height="6" style="stroke: #C82930; stroke-width: 1.0;" width="6" x="636" y="845.7415"/><text fill="#000000" font-family="Fira Code" font-size="11" lengthAdjust="spacingAndGlyphs" textLength="63" x="648" y="850.9156">m_outputs</text><!--class executionGraph::LogicSocketInput--><rect fill="#FEFECE" height="105.7288" id="executionGraph::LogicSocketInput" style="stroke: #A80036; stroke-width: 1.5;" width="201" x="547.5" y="1184"/><ellipse cx="573.75" cy="1200" fill="#ADD1B2" rx="11" ry="11" style="stroke: #A80036; stroke-width: 1.0;"/><path d="M576.7188,1205.6406 Q576.1406,1205.9375 575.5,1206.0781 Q574.8594,1206.2344 574.1563,1206.2344 Q571.6563,1206.2344 570.3281,1204.5938 Q569.0156,1202.9375 569.0156,1199.8125 Q569.0156,1196.6875 570.3281,1195.0313 Q571.6563,1193.375 574.1563,1193.375 Q574.8594,1193.375 575.5,1193.5313 Q576.1563,1193.6875 576.7188,1193.9844 L576.7188,1196.7031 Q576.0938,1196.125 575.5,1195.8594 Q574.9063,1195.5781 574.2813,1195.5781 Q572.9375,1195.5781 572.25,1196.6563 Q571.5625,1197.7188 571.5625,1199.8125 Q571.5625,1201.9063 572.25,1202.9844 Q572.9375,1204.0469 574.2813,1204.0469 Q574.9063,1204.0469 575.5,1203.7813 Q576.0938,1203.5 576.7188,1202.9219 L576.7188,1205.6406 Z "/><text fill="#000000" font-family="Fira Code" font-size="12" lengthAdjust="spacingAndGlyphs" textLength="112" x="590.25" y="1204.008">LogicSocketInput</text><rect fill="#FFFFFF" height="17.7441" style="stroke: #000000; stroke-width: 1.0; stroke-dasharray: 2.0,2.0;" width="30" x="721.5" y="1181"/><text fill="#000000" font-family="Fira Code" font-size="12" font-style="italic" lengthAdjust="spacingAndGlyphs" textLength="28" x="722.5" y="1193.8801">Data</text><line style="stroke: #A80036; stroke-width: 1.5;" x1="548.5" x2="747.5" y1="1216" y2="1216"/><ellipse cx="558.5" cy="1228.7161" fill="#84BE84" rx="3" ry="3" style="stroke: #038048; stroke-width: 1.0;"/><text fill="#000000" font-family="Fira Code" font-size="11" lengthAdjust="spacingAndGlyphs" textLength="140" x="567.5" y="1230.8902">dataHandle() [const]</text><text fill="#000000" font-family="Fira Code" font-size="11" lengthAdjust="spacingAndGlyphs" textLength="0" x="574.5" y="1245.3224"/><ellipse cx="558.5" cy="1257.5805" fill="#84BE84" rx="3" ry="3" style="stroke: #038048; stroke-width: 1.0;"/><text fill="#000000" font-family="Fira Code" font-size="11" lengthAdjust="spacingAndGlyphs" textLength="147" x="567.5" y="1259.7546">connections() [const]</text><line style="stroke: #A80036; stroke-width: 1.0;" x1="548.5" x2="747.5" y1="1267.2966" y2="1267.2966"/><rect fill="none" height="6" style="stroke: #C82930; stroke-width: 1.0;" width="6" x="555.5" y="1277.0127"/><text fill="#000000" font-family="Fira Code" font-size="11" lengthAdjust="spacingAndGlyphs" textLength="175" x="567.5" y="1282.1868">Connections m_connections</text><!--class executionGraph::LogicSocketOutput--><rect fill="#FEFECE" height="105.7288" id="executionGraph::LogicSocketOutput" style="stroke: #A80036; stroke-width: 1.5;" width="201" x="264.5" y="1184"/><ellipse cx="287.6" cy="1200" fill="#ADD1B2" rx="11" ry="11" style="stroke: #A80036; stroke-width: 1.0;"/><path d="M290.5688,1205.6406 Q289.9906,1205.9375 289.35,1206.0781 Q288.7094,1206.2344 288.0063,1206.2344 Q285.5063,1206.2344 284.1781,1204.5938 Q282.8656,1202.9375 282.8656,1199.8125 Q282.8656,1196.6875 284.1781,1195.0313 Q285.5063,1193.375 288.0063,1193.375 Q288.7094,1193.375 289.35,1193.5313 Q290.0063,1193.6875 290.5688,1193.9844 L290.5688,1196.7031 Q289.9438,1196.125 289.35,1195.8594 Q288.7563,1195.5781 288.1313,1195.5781 Q286.7875,1195.5781 286.1,1196.6563 Q285.4125,1197.7188 285.4125,1199.8125 Q285.4125,1201.9063 286.1,1202.9844 Q286.7875,1204.0469 288.1313,1204.0469 Q288.7563,1204.0469 289.35,1203.7813 Q289.9438,1203.5 290.5688,1202.9219 L290.5688,1205.6406 Z "/><text fill="#000000" font-family="Fira Code" font-size="12" lengthAdjust="spacingAndGlyphs" textLength="119" x="303.4" y="1204.008">LogicSocketOutput</text><rect fill="#FFFFFF" height="17.7441" style="stroke: #000000; stroke-width: 1.0; stroke-dasharray: 2.0,2.0;" width="30" x="438.5" y="1181"/><text fill="#000000" font-family="Fira Code" font-size="12" font-style="italic" lengthAdjust="spacingAndGlyphs" textLength="28" x="439.5" y="1193.8801">Data</text><line style="stroke: #A80036; stroke-width: 1.5;" x1="265.5" x2="464.5" y1="1216" y2="1216"/><ellipse cx="275.5" cy="1228.7161" fill="#84BE84" rx="3" ry="3" style="stroke: #038048; stroke-width: 1.0;"/><text fill="#000000" font-family="Fira Code" font-size="11" lengthAdjust="spacingAndGlyphs" textLength="140" x="284.5" y="1230.8902">dataHandle() [const]</text><text fill="#000000" font-family="Fira Code" font-size="11" lengthAdjust="spacingAndGlyphs" textLength="0" x="291.5" y="1245.3224"/><ellipse cx="275.5" cy="1257.5805" fill="#84BE84" rx="3" ry="3" style="stroke: #038048; stroke-width: 1.0;"/><text fill="#000000" font-family="Fira Code" font-size="11" lengthAdjust="spacingAndGlyphs" textLength="147" x="284.5" y="1259.7546">connections() [const]</text><line style="stroke: #A80036; stroke-width: 1.0;" x1="265.5" x2="464.5" y1="1267.2966" y2="1267.2966"/><rect fill="none" height="6" style="stroke: #C82930; stroke-width: 1.0;" width="6" x="272.5" y="1277.0127"/><text fill="#000000" font-family="Fira Code" font-size="11" lengthAdjust="spacingAndGlyphs" textLength="175" x="284.5" y="1282.1868">Connections m_connections</text><!--class executionGraph::LogicSocketBase--><rect fill="#FEFECE" height="91.2966" id="executionGraph::LogicSocketBase" style="stroke: #A80036; stroke-width: 1.5;" width="137" x="554.5" y="481"/><ellipse cx="569.5" cy="497" fill="#ADD1B2" rx="11" ry="11" style="stroke: #A80036; stroke-width: 1.0;"/><path d="M572.4688,502.6406 Q571.8906,502.9375 571.25,503.0781 Q570.6094,503.2344 569.9063,503.2344 Q567.4063,503.2344 566.0781,501.5938 Q564.7656,499.9375 564.7656,496.8125 Q564.7656,493.6875 566.0781,492.0313 Q567.4063,490.375 569.9063,490.375 Q570.6094,490.375 571.25,490.5313 Q571.9063,490.6875 572.4688,490.9844 L572.4688,493.7031 Q571.8438,493.125 571.25,492.8594 Q570.6563,492.5781 570.0313,492.5781 Q568.6875,492.5781 568,493.6563 Q567.3125,494.7188 567.3125,496.8125 Q567.3125,498.9063 568,499.9844 Q568.6875,501.0469 570.0313,501.0469 Q570.6563,501.0469 571.25,500.7813 Q571.8438,500.5 572.4688,499.9219 L572.4688,502.6406 Z "/><text fill="#000000" font-family="Fira Code" font-size="12" lengthAdjust="spacingAndGlyphs" textLength="105" x="583.5" y="501.008">LogicSocketBase</text><line style="stroke: #A80036; stroke-width: 1.5;" x1="555.5" x2="690.5" y1="513" y2="513"/><line style="stroke: #A80036; stroke-width: 1.5;" x1="555.5" x2="690.5" y1="521" y2="521"/><ellipse cx="565.5" cy="533.7161" fill="#84BE84" rx="3" ry="3" style="stroke: #038048; stroke-width: 1.0;"/><text fill="#000000" font-family="Fira Code" font-size="11" lengthAdjust="spacingAndGlyphs" textLength="42" x="574.5" y="535.8902">type()</text><ellipse cx="565.5" cy="548.1483" fill="#84BE84" rx="3" ry="3" style="stroke: #038048; stroke-width: 1.0;"/><text fill="#000000" font-family="Fira Code" font-size="11" lengthAdjust="spacingAndGlyphs" textLength="49" x="574.5" y="550.3224">index()</text><ellipse cx="565.5" cy="562.5805" fill="#84BE84" rx="3" ry="3" style="stroke: #038048; stroke-width: 1.0;"/><text fill="#000000" font-family="Fira Code" font-size="11" lengthAdjust="spacingAndGlyphs" textLength="56" x="574.5" y="564.7546">parent()</text><!--class executionGraph::LogicSocketInputBase--><rect fill="#FEFECE" height="62.4322" id="executionGraph::LogicSocketInputBase" style="stroke: #A80036; stroke-width: 1.5;" width="292" x="502" y="981"/><ellipse cx="573.75" cy="997" fill="#ADD1B2" rx="11" ry="11" style="stroke: #A80036; stroke-width: 1.0;"/><path d="M576.7188,1002.6406 Q576.1406,1002.9375 575.5,1003.0781 Q574.8594,1003.2344 574.1563,1003.2344 Q571.6563,1003.2344 570.3281,1001.5938 Q569.0156,999.9375 569.0156,996.8125 Q569.0156,993.6875 570.3281,992.0313 Q571.6563,990.375 574.1563,990.375 Q574.8594,990.375 575.5,990.5313 Q576.1563,990.6875 576.7188,990.9844 L576.7188,993.7031 Q576.0938,993.125 575.5,992.8594 Q574.9063,992.5781 574.2813,992.5781 Q572.9375,992.5781 572.25,993.6563 Q571.5625,994.7188 571.5625,996.8125 Q571.5625,998.9063 572.25,999.9844 Q572.9375,1001.0469 574.2813,1001.0469 Q574.9063,1001.0469 575.5,1000.7813 Q576.0938,1000.5 576.7188,999.9219 L576.7188,1002.6406 Z "/><text fill="#000000" font-family="Fira Code" font-size="12" lengthAdjust="spacingAndGlyphs" textLength="140" x="594.25" y="1001.008">LogicSocketInputBase</text><line style="stroke: #A80036; stroke-width: 1.5;" x1="503" x2="793" y1="1013" y2="1013"/><line style="stroke: #A80036; stroke-width: 1.5;" x1="503" x2="793" y1="1021" y2="1021"/><ellipse cx="513" cy="1033.7161" fill="#84BE84" rx="3" ry="3" style="stroke: #038048; stroke-width: 1.0;"/><text fill="#000000" font-family="Fira Code" font-size="11" lengthAdjust="spacingAndGlyphs" textLength="266" x="522" y="1035.8902">castToType&lt;T&gt;() -&gt; LogicSocketInput&lt;T&gt;</text><!--class executionGraph::LogicSocketOutputBase--><rect fill="#FEFECE" height="62.4322" id="executionGraph::LogicSocketOutputBase" style="stroke: #A80036; stroke-width: 1.5;" width="299" x="167.5" y="981"/><ellipse cx="239.25" cy="997" fill="#ADD1B2" rx="11" ry="11" style="stroke: #A80036; stroke-width: 1.0;"/><path d="M242.2188,1002.6406 Q241.6406,1002.9375 241,1003.0781 Q240.3594,1003.2344 239.6563,1003.2344 Q237.1563,1003.2344 235.8281,1001.5938 Q234.5156,999.9375 234.5156,996.8125 Q234.5156,993.6875 235.8281,992.0313 Q237.1563,990.375 239.6563,990.375 Q240.3594,990.375 241,990.5313 Q241.6563,990.6875 242.2188,990.9844 L242.2188,993.7031 Q241.5938,993.125 241,992.8594 Q240.4063,992.5781 239.7813,992.5781 Q238.4375,992.5781 237.75,993.6563 Q237.0625,994.7188 237.0625,996.8125 Q237.0625,998.9063 237.75,999.9844 Q238.4375,1001.0469 239.7813,1001.0469 Q240.4063,1001.0469 241,1000.7813 Q241.5938,1000.5 242.2188,999.9219 L242.2188,1002.6406 Z "/><text fill="#000000" font-family="Fira Code" font-size="12" lengthAdjust="spacingAndGlyphs" textLength="147" x="259.75" y="1001.008">LogicSocketOutputBase</text><line style="stroke: #A80036; stroke-width: 1.5;" x1="168.5" x2="465.5" y1="1013" y2="1013"/><line style="stroke: #A80036; stroke-width: 1.5;" x1="168.5" x2="465.5" y1="1021" y2="1021"/><ellipse cx="178.5" cy="1033.7161" fill="#84BE84" rx="3" ry="3" style="stroke: #038048; stroke-width: 1.0;"/><text fill="#000000" font-family="Fira Code" font-size="11" lengthAdjust="spacingAndGlyphs" textLength="273" x="187.5" y="1035.8902">castToType&lt;T&gt;() -&gt; LogicSocketOutput&lt;T&gt;</text><!--class executionGraph::LogicSocketConnections--><rect fill="#FEFECE" height="128.161" id="executionGraph::LogicSocketConnections" style="stroke: #A80036; stroke-width: 1.5;" width="330" x="200" y="1547"/><ellipse cx="215" cy="1563" fill="#ADD1B2" rx="11" ry="11" style="stroke: #A80036; stroke-width: 1.0;"/><path d="M217.9688,1568.6406 Q217.3906,1568.9375 216.75,1569.0781 Q216.1094,1569.2344 215.4063,1569.2344 Q212.9063,1569.2344 211.5781,1567.5938 Q210.2656,1565.9375 210.2656,1562.8125 Q210.2656,1559.6875 211.5781,1558.0313 Q212.9063,1556.375 215.4063,1556.375 Q216.1094,1556.375 216.75,1556.5313 Q217.4063,1556.6875 217.9688,1556.9844 L217.9688,1559.7031 Q217.3438,1559.125 216.75,1558.8594 Q216.1563,1558.5781 215.5313,1558.5781 Q214.1875,1558.5781 213.5,1559.6563 Q212.8125,1560.7188 212.8125,1562.8125 Q212.8125,1564.9063 213.5,1565.9844 Q214.1875,1567.0469 215.5313,1567.0469 Q216.1563,1567.0469 216.75,1566.7813 Q217.3438,1566.5 217.9688,1565.9219 L217.9688,1568.6406 Z "/><text fill="#000000" font-family="Fira Code" font-size="12" lengthAdjust="spacingAndGlyphs" textLength="154" x="229" y="1567.008">LogicSocketConnections</text><rect fill="#FFFFFF" height="17.7441" style="stroke: #000000; stroke-width: 1.0; stroke-dasharray: 2.0,2.0;" width="142" x="391" y="1544"/><text fill="#000000" font-family="Fira Code" font-size="12" font-style="italic" lengthAdjust="spacingAndGlyphs" textLength="140" x="392" y="1556.8801">Traits, ParentSocket</text><line style="stroke: #A80036; stroke-width: 1.5;" x1="201" x2="529" y1="1579" y2="1579"/><text fill="#000000" font-family="Fira Code" font-size="11" lengthAdjust="spacingAndGlyphs" textLength="245" x="206" y="1593.8902">Connection for input/output sockets</text><line style="stroke: #A80036; stroke-width: 1.0;" x1="201" x2="529" y1="1601.4322" y2="1601.4322"/><ellipse cx="211" cy="1614.1483" fill="#84BE84" rx="3" ry="3" style="stroke: #038048; stroke-width: 1.0;"/><text fill="#000000" font-family="Fira Code" font-size="11" lengthAdjust="spacingAndGlyphs" textLength="133" x="220" y="1616.3224">connect(socketData)</text><ellipse cx="211" cy="1628.5805" fill="#84BE84" rx="3" ry="3" style="stroke: #038048; stroke-width: 1.0;"/><text fill="#000000" font-family="Fira Code" font-size="11" lengthAdjust="spacingAndGlyphs" textLength="154" x="220" y="1630.7546">disconnect(socketData)</text><line style="stroke: #A80036; stroke-width: 1.0;" x1="201" x2="529" y1="1638.2966" y2="1638.2966"/><text fill="#000000" font-family="Fira Code" font-size="11" lengthAdjust="spacingAndGlyphs" textLength="252" x="206" y="1653.1868">SocketDataConnections* m_connections</text><text fill="#000000" font-family="Fira Code" font-size="11" lengthAdjust="spacingAndGlyphs" textLength="112" x="206" y="1667.619">Parent* m_parent</text><!--class executionGraph::LogicSocketDataBase--><rect fill="#FEFECE" height="48" id="executionGraph::LogicSocketDataBase" style="stroke: #A80036; stroke-width: 1.5;" width="165" x="354.5" y="45"/><ellipse cx="369.5" cy="61" fill="#ADD1B2" rx="11" ry="11" style="stroke: #A80036; stroke-width: 1.0;"/><path d="M372.4688,66.6406 Q371.8906,66.9375 371.25,67.0781 Q370.6094,67.2344 369.9063,67.2344 Q367.4063,67.2344 366.0781,65.5938 Q364.7656,63.9375 364.7656,60.8125 Q364.7656,57.6875 366.0781,56.0313 Q367.4063,54.375 369.9063,54.375 Q370.6094,54.375 371.25,54.5313 Q371.9063,54.6875 372.4688,54.9844 L372.4688,57.7031 Q371.8438,57.125 371.25,56.8594 Q370.6563,56.5781 370.0313,56.5781 Q368.6875,56.5781 368,57.6563 Q367.3125,58.7188 367.3125,60.8125 Q367.3125,62.9063 368,63.9844 Q368.6875,65.0469 370.0313,65.0469 Q370.6563,65.0469 371.25,64.7813 Q371.8438,64.5 372.4688,63.9219 L372.4688,66.6406 Z "/><text fill="#000000" font-family="Fira Code" font-size="12" lengthAdjust="spacingAndGlyphs" textLength="133" x="383.5" y="65.008">LogicSocketDataBase</text><line style="stroke: #A80036; stroke-width: 1.5;" x1="355.5" x2="518.5" y1="77" y2="77"/><line style="stroke: #A80036; stroke-width: 1.5;" x1="355.5" x2="518.5" y1="85" y2="85"/><!--class executionGraph::userData::LogicSocketDataConnections--><rect fill="#FEFECE" height="128.161" id="executionGraph::userData::LogicSocketDataConnections" style="stroke: #A80036; stroke-width: 1.5;" width="358" x="150" y="712.5"/><ellipse cx="165" cy="728.5" fill="#ADD1B2" rx="11" ry="11" style="stroke: #A80036; stroke-width: 1.0;"/><path d="M167.9688,734.1406 Q167.3906,734.4375 166.75,734.5781 Q166.1094,734.7344 165.4063,734.7344 Q162.9063,734.7344 161.5781,733.0938 Q160.2656,731.4375 160.2656,728.3125 Q160.2656,725.1875 161.5781,723.5313 Q162.9063,721.875 165.4063,721.875 Q166.1094,721.875 166.75,722.0313 Q167.4063,722.1875 167.9688,722.4844 L167.9688,725.2031 Q167.3438,724.625 166.75,724.3594 Q166.1563,724.0781 165.5313,724.0781 Q164.1875,724.0781 163.5,725.1563 Q162.8125,726.2188 162.8125,728.3125 Q162.8125,730.4063 163.5,731.4844 Q164.1875,732.5469 165.5313,732.5469 Q166.1563,732.5469 166.75,732.2813 Q167.3438,732 167.9688,731.4219 L167.9688,734.1406 Z "/><text fill="#000000" font-family="Fira Code" font-size="12" lengthAdjust="spacingAndGlyphs" textLength="182" x="179" y="732.508">LogicSocketDataConnections</text><rect fill="#FFFFFF" height="17.7441" style="stroke: #000000; stroke-width: 1.0; stroke-dasharray: 2.0,2.0;" width="142" x="369" y="709.5"/><text fill="#000000" font-family="Fira Code" font-size="12" font-style="italic" lengthAdjust="spacingAndGlyphs" textLength="140" x="370" y="722.3801">Traits, ParentSocket</text><line style="stroke: #A80036; stroke-width: 1.5;" x1="151" x2="507" y1="744.5" y2="744.5"/><text fill="#000000" font-family="Fira Code" font-size="11" lengthAdjust="spacingAndGlyphs" textLength="189" x="156" y="759.3902">Connection for data sockets</text><line style="stroke: #A80036; stroke-width: 1.0;" x1="151" x2="507" y1="766.9322" y2="766.9322"/><ellipse cx="161" cy="779.6483" fill="#84BE84" rx="3" ry="3" style="stroke: #038048; stroke-width: 1.0;"/><text fill="#000000" font-family="Fira Code" font-size="11" lengthAdjust="spacingAndGlyphs" textLength="105" x="170" y="781.8224">connect(socket)</text><ellipse cx="161" cy="794.0805" fill="#84BE84" rx="3" ry="3" style="stroke: #038048; stroke-width: 1.0;"/><text fill="#000000" font-family="Fira Code" font-size="11" lengthAdjust="spacingAndGlyphs" textLength="126" x="170" y="796.2546">disconnect(socket)</text><line style="stroke: #A80036; stroke-width: 1.0;" x1="151" x2="507" y1="803.7966" y2="803.7966"/><text fill="#000000" font-family="Fira Code" font-size="11" lengthAdjust="spacingAndGlyphs" textLength="56" x="156" y="818.6868">m_inputs</text><text fill="#000000" font-family="Fira Code" font-size="11" lengthAdjust="spacingAndGlyphs" textLength="63" x="156" y="833.119">m_outputs</text><!--class executionGraph::userData::LogicSocketData--><rect fill="#FEFECE" height="134.5932" id="executionGraph::userData::LogicSocketData" style="stroke: #A80036; stroke-width: 1.5;" width="201" x="336.5" y="223"/><ellipse cx="365.9" cy="239" fill="#ADD1B2" rx="11" ry="11" style="stroke: #A80036; stroke-width: 1.0;"/><path d="M368.8688,244.6406 Q368.2906,244.9375 367.65,245.0781 Q367.0094,245.2344 366.3063,245.2344 Q363.8063,245.2344 362.4781,243.5938 Q361.1656,241.9375 361.1656,238.8125 Q361.1656,235.6875 362.4781,234.0313 Q363.8063,232.375 366.3063,232.375 Q367.0094,232.375 367.65,232.5313 Q368.3063,232.6875 368.8688,232.9844 L368.8688,235.7031 Q368.2438,235.125 367.65,234.8594 Q367.0563,234.5781 366.4313,234.5781 Q365.0875,234.5781 364.4,235.6563 Q363.7125,236.7188 363.7125,238.8125 Q363.7125,240.9063 364.4,241.9844 Q365.0875,243.0469 366.4313,243.0469 Q367.0563,243.0469 367.65,242.7813 Q368.2438,242.5 368.8688,241.9219 L368.8688,244.6406 Z "/><text fill="#000000" font-family="Fira Code" font-size="12" lengthAdjust="spacingAndGlyphs" textLength="105" x="383.1" y="243.008">LogicSocketData</text><rect fill="#FFFFFF" height="17.7441" style="stroke: #000000; stroke-width: 1.0; stroke-dasharray: 2.0,2.0;" width="30" x="510.5" y="220"/><text fill="#000000" font-family="Fira Code" font-size="12" font-style="italic" lengthAdjust="spacingAndGlyphs" textLength="28" x="511.5" y="232.8801">Data</text><line style="stroke: #A80036; stroke-width: 1.5;" x1="337.5" x2="536.5" y1="255" y2="255"/><ellipse cx="347.5" cy="267.7161" fill="#84BE84" rx="3" ry="3" style="stroke: #038048; stroke-width: 1.0;"/><text fill="#000000" font-family="Fira Code" font-size="11" lengthAdjust="spacingAndGlyphs" textLength="140" x="356.5" y="269.8902">dataHandle() [const]</text><ellipse cx="347.5" cy="282.1483" fill="#84BE84" rx="3" ry="3" style="stroke: #038048; stroke-width: 1.0;"/><text fill="#000000" font-family="Fira Code" font-size="11" lengthAdjust="spacingAndGlyphs" textLength="119" x="356.5" y="284.3224">dataHandleConst()</text><text fill="#000000" font-family="Fira Code" font-size="11" lengthAdjust="spacingAndGlyphs" textLength="0" x="363.5" y="298.7546"/><ellipse cx="347.5" cy="311.0127" fill="#84BE84" rx="3" ry="3" style="stroke: #038048; stroke-width: 1.0;"/><text fill="#000000" font-family="Fira Code" font-size="11" lengthAdjust="spacingAndGlyphs" textLength="147" x="356.5" y="313.1868">connections() [const]</text><line style="stroke: #A80036; stroke-width: 1.0;" x1="337.5" x2="536.5" y1="320.7288" y2="320.7288"/><rect fill="none" height="6" style="stroke: #C82930; stroke-width: 1.0;" width="6" x="344.5" y="330.4449"/><text fill="#000000" font-family="Fira Code" font-size="11" lengthAdjust="spacingAndGlyphs" textLength="77" x="356.5" y="335.619">Data m_data</text><rect fill="none" height="6" style="stroke: #C82930; stroke-width: 1.0;" width="6" x="344.5" y="344.8771"/><text fill="#000000" font-family="Fira Code" font-size="11" lengthAdjust="spacingAndGlyphs" textLength="175" x="356.5" y="350.0512">Connections m_connections</text><!--class executionGraph::userData::LogicSocketDataRef--><rect fill="#FEFECE" height="76.8644" id="executionGraph::userData::LogicSocketDataRef" style="stroke: #A80036; stroke-width: 1.5;" width="271" x="30.5" y="252"/><ellipse cx="72.5" cy="268" fill="#ADD1B2" rx="11" ry="11" style="stroke: #A80036; stroke-width: 1.0;"/><path d="M75.4688,273.6406 Q74.8906,273.9375 74.25,274.0781 Q73.6094,274.2344 72.9063,274.2344 Q70.4063,274.2344 69.0781,272.5938 Q67.7656,270.9375 67.7656,267.8125 Q67.7656,264.6875 69.0781,263.0313 Q70.4063,261.375 72.9063,261.375 Q73.6094,261.375 74.25,261.5313 Q74.9063,261.6875 75.4688,261.9844 L75.4688,264.7031 Q74.8438,264.125 74.25,263.8594 Q73.6563,263.5781 73.0313,263.5781 Q71.6875,263.5781 71,264.6563 Q70.3125,265.7188 70.3125,267.8125 Q70.3125,269.9063 71,270.9844 Q71.6875,272.0469 73.0313,272.0469 Q73.6563,272.0469 74.25,271.7813 Q74.8438,271.5 75.4688,270.9219 L75.4688,273.6406 Z "/><text fill="#000000" font-family="Fira Code" font-size="12" lengthAdjust="spacingAndGlyphs" textLength="126" x="92.5" y="272.008">LogicSocketDataRef</text><rect fill="#FFFFFF" height="17.7441" style="stroke: #000000; stroke-width: 1.0; stroke-dasharray: 2.0,2.0;" width="51" x="253.5" y="249"/><text fill="#000000" font-family="Fira Code" font-size="12" font-style="italic" lengthAdjust="spacingAndGlyphs" textLength="49" x="254.5" y="261.8801">Args...</text><line style="stroke: #A80036; stroke-width: 1.5;" x1="31.5" x2="300.5" y1="284" y2="284"/><ellipse cx="41.5" cy="296.7161" fill="#84BE84" rx="3" ry="3" style="stroke: #038048; stroke-width: 1.0;"/><text fill="#000000" font-family="Fira Code" font-size="11" lengthAdjust="spacingAndGlyphs" textLength="168" x="50.5" y="298.8902">setReference(socketData)</text><line style="stroke: #A80036; stroke-width: 1.0;" x1="31.5" x2="300.5" y1="306.4322" y2="306.4322"/><rect fill="none" height="6" style="stroke: #C82930; stroke-width: 1.0;" width="6" x="38.5" y="316.1483"/><text fill="#000000" font-family="Fira Code" font-size="11" lengthAdjust="spacingAndGlyphs" textLength="245" x="50.5" y="321.3224">LogicSocketData&lt;Args&gt;* m_socketData</text><!--class DummyNode--><rect fill="#FEFECE" height="134.5932" id="DummyNode" style="stroke: #A80036; stroke-width: 1.5;" width="141" x="810.5" y="1351"/><ellipse cx="846.2" cy="1367" fill="#ADD1B2" rx="11" ry="11" style="stroke: #A80036; stroke-width: 1.0;"/><path d="M849.1688,1372.6406 Q848.5906,1372.9375 847.95,1373.0781 Q847.3094,1373.2344 846.6063,1373.2344 Q844.1063,1373.2344 842.7781,1371.5938 Q841.4656,1369.9375 841.4656,1366.8125 Q841.4656,1363.6875 842.7781,1362.0313 Q844.1063,1360.375 846.6063,1360.375 Q847.3094,1360.375 847.95,1360.5313 Q848.6063,1360.6875 849.1688,1360.9844 L849.1688,1363.7031 Q848.5438,1363.125 847.95,1362.8594 Q847.3563,1362.5781 846.7313,1362.5781 Q845.3875,1362.5781 844.7,1363.6563 Q844.0125,1364.7188 844.0125,1366.8125 Q844.0125,1368.9063 844.7,1369.9844 Q845.3875,1371.0469 846.7313,1371.0469 Q847.3563,1371.0469 847.95,1370.7813 Q848.5438,1370.5 849.1688,1369.9219 L849.1688,1372.6406 Z "/><text fill="#000000" font-family="Fira Code" font-size="12" lengthAdjust="spacingAndGlyphs" textLength="63" x="864.8" y="1371.008">DummyNode</text><line style="stroke: #A80036; stroke-width: 1.5;" x1="811.5" x2="950.5" y1="1383" y2="1383"/><ellipse cx="821.5" cy="1414.1483" fill="none" rx="3" ry="3" style="stroke: #038048; stroke-width: 1.0;"/><text fill="#000000" font-family="Fira Code" font-size="11" lengthAdjust="spacingAndGlyphs" textLength="49" x="830.5" y="1416.3224">inDecls</text><ellipse cx="821.5" cy="1428.5805" fill="none" rx="3" ry="3" style="stroke: #038048; stroke-width: 1.0;"/><text fill="#000000" font-family="Fira Code" font-size="11" lengthAdjust="spacingAndGlyphs" textLength="56" x="830.5" y="1430.7546">outDecls</text><line style="stroke: #A80036; stroke-width: 1.0;" x1="811.5" x2="814.5" y1="1398.2161" y2="1398.2161"/><text fill="#000000" font-family="Fira Code" font-size="11" lengthAdjust="spacingAndGlyphs" textLength="133" x="814.5" y="1401.3902">In/Out Declerations</text><line style="stroke: #A80036; stroke-width: 1.0;" x1="947.5" x2="950.5" y1="1398.2161" y2="1398.2161"/><rect fill="none" height="6" style="stroke: #C82930; stroke-width: 1.0;" width="6" x="818.5" y="1458.4449"/><text fill="#000000" font-family="Fira Code" font-size="11" lengthAdjust="spacingAndGlyphs" textLength="77" x="830.5" y="1463.619">m_inSockets</text><rect fill="none" height="6" style="stroke: #C82930; stroke-width: 1.0;" width="6" x="818.5" y="1472.8771"/><text fill="#000000" font-family="Fira Code" font-size="11" lengthAdjust="spacingAndGlyphs" textLength="84" x="830.5" y="1478.0512">m_outSockets</text><line style="stroke: #A80036; stroke-width: 1.0;" x1="811.5" x2="856.5" y1="1445.5127" y2="1445.5127"/><text fill="#000000" font-family="Fira Code" font-size="11" lengthAdjust="spacingAndGlyphs" textLength="49" x="856.5" y="1448.6868">Sockets</text><line style="stroke: #A80036; stroke-width: 1.0;" x1="905.5" x2="950.5" y1="1445.5127" y2="1445.5127"/><!--link executionGraph::LogicNode to DummyNode--><path d="M810.7699,829.4463 C839.8669,852.3747 864,882.534 864,919.5 C864,919.5 864,919.5 864,1237 C864,1274.8198 867.7043,1316.88 871.6546,1350.9808 " fill="none" id="executionGraph::LogicNode-DummyNode" style="stroke: #A80036; stroke-width: 1.0;"/><polygon fill="none" points="806.3064,834.8566,794.2159,817.4549,814.5194,823.5188,806.3064,834.8566" style="stroke: #A80036; stroke-width: 1.0;"/><!--link executionGraph::LogicSocketInputBase to executionGraph::LogicSocketInput--><path d="M648,1063.4553 C648,1099.5015 648,1147.5404 648,1183.9364 " fill="none" id="executionGraph::LogicSocketInputBase-executionGraph::LogicSocketInput" style="stroke: #A80036; stroke-width: 1.0;"/><polygon fill="none" points="641.0001,1063.2853,648,1043.2853,655.0001,1063.2853,641.0001,1063.2853" style="stroke: #A80036; stroke-width: 1.0;"/><!--link executionGraph::LogicSocketOutputBase to executionGraph::LogicSocketOutput--><path d="M327.869,1062.9484 C335.5707,1099.0501 345.8788,1147.3695 353.6798,1183.9364 " fill="none" id="executionGraph::LogicSocketOutputBase-executionGraph::LogicSocketOutput" style="stroke: #A80036; stroke-width: 1.0;"/><polygon fill="none" points="321.0011,1064.3056,323.6742,1043.2853,334.693,1061.3846,321.0011,1064.3056" style="stroke: #A80036; stroke-width: 1.0;"/><!--link executionGraph::LogicSocketBase to executionGraph::LogicSocketInputBase--><path d="M597.9611,591.3508 C594.4447,605.0631 592,619.5961 592,633.5 C592,633.5 592,633.5 592,919.5 C592,942.215 604.5106,964.122 617.7054,980.9103 " fill="none" id="executionGraph::LogicSocketBase-executionGraph::LogicSocketInputBase" style="stroke: #A80036; stroke-width: 1.0;"/><polygon fill="none" points="591.3018,589.1864,603.7198,572.0168,604.7192,593.1829,591.3018,589.1864" style="stroke: #A80036; stroke-width: 1.0;"/><!--link executionGraph::LogicSocketBase to executionGraph::LogicSocketOutputBase--><path d="M567.5441,589.3421 C560.1172,603.0142 555,618.0429 555,633.5 C555,633.5 555,633.5 555,919.5 C555,944.4913 508.8332,965.4118 457.166,980.9995 " fill="none" id="executionGraph::LogicSocketBase-executionGraph::LogicSocketOutputBase" style="stroke: #A80036; stroke-width: 1.0;"/><polygon fill="none" points="561.7766,585.3661,578.4017,572.2282,573.5982,592.8662,561.7766,585.3661" style="stroke: #A80036; stroke-width: 1.0;"/><!--link executionGraph::LogicSocketBase to executionGraph::userData::LogicSocketData--><!--link executionGraph::userData::LogicSocketData to executionGraph::LogicSocketBase--><!--link executionGraph::LogicSocketInput to DummyNode--><path d="M725.7819,1290.0175 C748.9887,1306.4699 774.4622,1325.1563 800.0603,1345.48 " fill="none" id="executionGraph::LogicSocketInput-DummyNode" style="stroke: #A80036; stroke-width: 1.0;"/><polygon fill="#A80036" points="810.2559,1353.6587,808.0786,1346.7841,800.8955,1346.1499,803.0727,1353.0244,810.2559,1353.6587" style="stroke: #A80036; stroke-width: 1.0;"/><text fill="#000000" font-family="Fira Code" font-size="13" lengthAdjust="spacingAndGlyphs" textLength="8" x="794.5479" y="1360.7424">*</text><!--link executionGraph::LogicSocketOutput to DummyNode--><path d="M465.7743,1271.0275 C486.8849,1277.6883 509.0864,1284.3518 530,1290 C647.4221,1321.7125 691.9291,1295.0201 798.3447,1346.7631 " fill="none" id="executionGraph::LogicSocketOutput-DummyNode" style="stroke: #A80036; stroke-width: 1.0;"/><polygon fill="#A80036" points="810.2303,1352.7382,806.6663,1346.4694,799.5089,1347.3482,803.0729,1353.617,810.2303,1352.7382" style="stroke: #A80036; stroke-width: 1.0;"/><text fill="#000000" font-family="Fira Code" font-size="13" lengthAdjust="spacingAndGlyphs" textLength="8" x="794.5197" y="1340.9738">*</text><!--link executionGraph::LogicSocketInput to executionGraph::LogicSocketConnections--><path d="M599.6883,1300.8465 C547.7658,1369.4649 465.6996,1477.92 413.6475,1546.7096 " fill="none" id="executionGraph::LogicSocketInput-executionGraph::LogicSocketConnections" style="stroke: #A80036; stroke-width: 1.0;"/><polygon fill="#A80036" points="607.7535,1290.1879,600.9433,1292.5588,600.5126,1299.7571,607.3228,1297.3861,607.7535,1290.1879" style="stroke: #A80036; stroke-width: 1.0;"/><text fill="#000000" font-family="Fira Code" font-size="13" lengthAdjust="spacingAndGlyphs" textLength="8" x="594.361" y="1310.5961">1</text><!--link executionGraph::LogicSocketOutput to executionGraph::LogicSocketConnections--><path d="M365,1303.406 C365,1372.1368 365,1478.7692 365,1546.7096 " fill="none" id="executionGraph::LogicSocketOutput-executionGraph::LogicSocketConnections" style="stroke: #A80036; stroke-width: 1.0;"/><polygon fill="#A80036" points="365,1290.1879,361,1296.1879,365,1302.1879,369,1296.1879,365,1290.1879" style="stroke: #A80036; stroke-width: 1.0;"/><text fill="#000000" font-family="Fira Code" font-size="13" lengthAdjust="spacingAndGlyphs" textLength="8" x="356.5125" y="1310.5961">1</text><!--link executionGraph::LogicSocketBase to executionGraph::LogicNode--><path d="M643.4584,584.6205 C654.9935,617.3905 669.588,658.8522 682.2566,694.8427 " fill="none" id="executionGraph::LogicSocketBase-executionGraph::LogicNode" style="stroke: #A80036; stroke-width: 1.0;"/><polygon fill="#FFFFFF" points="639.0382,572.0632,637.2573,579.0509,643.0226,583.3824,644.8035,576.3947,639.0382,572.0632" style="stroke: #A80036; stroke-width: 1.0;"/><text fill="#000000" font-family="Fira Code" font-size="13" lengthAdjust="spacingAndGlyphs" textLength="8" x="632.8815" y="593.1932">1</text><!--link executionGraph::LogicSocketDataBase to executionGraph::userData::LogicSocketData--><path d="M437,113.2076 C437,144.4909 437,187.0312 437,222.5999 " fill="none" id="executionGraph::LogicSocketDataBase-executionGraph::userData::LogicSocketData" style="stroke: #A80036; stroke-width: 1.0;"/><polygon fill="none" points="430.0001,113.1261,437,93.126,444.0001,113.126,430.0001,113.1261" style="stroke: #A80036; stroke-width: 1.0;"/><!--link executionGraph::userData::LogicSocketDataConnections to executionGraph::LogicSocketInputBase--><path d="M426.386,848.3947 C486.3358,892.6523 560.1603,947.1528 605.6483,980.7341 " fill="none" id="executionGraph::userData::LogicSocketDataConnections-executionGraph::LogicSocketInputBase" style="stroke: #A80036; stroke-width: 1.0;"/><polygon fill="#FFFFFF" points="415.7468,840.5403,418.1982,847.322,425.401,847.6675,422.9496,840.8858,415.7468,840.5403" style="stroke: #A80036; stroke-width: 1.0;"/><text fill="#000000" font-family="Fira Code" font-size="13" lengthAdjust="spacingAndGlyphs" textLength="8" x="416.7972" y="861.3387">*</text><!--link executionGraph::userData::LogicSocketDataConnections to executionGraph::LogicSocketOutputBase--><path d="M325.0681,853.6633 C322.8646,896.9078 320.237,948.4738 318.5932,980.7341 " fill="none" id="executionGraph::userData::LogicSocketDataConnections-executionGraph::LogicSocketOutputBase" style="stroke: #A80036; stroke-width: 1.0;"/><polygon fill="#FFFFFF" points="325.7368,840.5403,321.4366,846.3289,325.126,852.5247,329.4262,846.7361,325.7368,840.5403" style="stroke: #A80036; stroke-width: 1.0;"/><text fill="#000000" font-family="Fira Code" font-size="13" lengthAdjust="spacingAndGlyphs" textLength="8" x="316.9424" y="861.3387">*</text><!--link executionGraph::userData::LogicSocketDataRef to executionGraph::userData::LogicSocketData--><path d="M315.0104,290.5 C322.1289,290.5 329.2474,290.5 336.3659,290.5 " fill="none" id="executionGraph::userData::LogicSocketDataRef-executionGraph::userData::LogicSocketData" style="stroke: #A80036; stroke-width: 1.0;"/><polygon fill="#FFFFFF" points="301.7646,290.5,307.7646,294.5,313.7646,290.5,307.7646,286.5,301.7646,290.5" style="stroke: #A80036; stroke-width: 1.0;"/><text fill="#000000" font-family="Fira Code" font-size="13" lengthAdjust="spacingAndGlyphs" textLength="8" x="309.408" y="285.9104">1</text><!--link executionGraph::userData::LogicSocketData to executionGraph::userData::LogicSocketDataConnections--><path d="M377.6827,369.5749 C374.4377,375.6444 371.4921,381.8182 369,388 C363.6999,401.1471 364,405.3247 364,419.5 C364,419.5 364,419.5 364,633.5 C364,659.6982 358.3891,687.842 351.6603,712.1736 " fill="none" id="executionGraph::userData::LogicSocketData-executionGraph::userData::LogicSocketDataConnections" style="stroke: #A80036; stroke-width: 1.0;"/><polygon fill="#A80036" points="384.2517,358.0568,377.8046,361.2871,378.3068,368.4807,384.7539,365.2504,384.2517,358.0568" style="stroke: #A80036; stroke-width: 1.0;"/><text fill="#000000" font-family="Fira Code" font-size="13" lengthAdjust="spacingAndGlyphs" textLength="8" x="370.6655" y="378.4364">1</text><!--link executionGraph::LogicSocketConnections to executionGraph::userData::LogicSocketDataConnections--><path d="M206.3624,1539.5453 C164.6143,1509.5448 131,1469.5413 131,1418.5 C131,919.5 131,919.5 131,919.5 C131,886.8499 148.9129,860.9038 173.9631,840.5826 " fill="none" id="executionGraph::LogicSocketConnections-executionGraph::userData::LogicSocketDataConnections" style="stroke: #A80036; stroke-width: 1.0;"/><polygon fill="#A80036" points="217.1361,1546.9576,214.4603,1540.2613,207.2499,1540.1558,209.9258,1546.8521,217.1361,1546.9576" style="stroke: #A80036; stroke-width: 1.0;"/><text fill="#000000" font-family="Fira Code" font-size="13" lengthAdjust="spacingAndGlyphs" textLength="96" x="132" y="1117.87">design-error</text><text fill="#000000" font-family="Fira Code" font-size="13" lengthAdjust="spacingAndGlyphs" textLength="8" x="192.526" y="1534.8875">1</text><!--
@startuml core
set namespaceSeparator ::
skinparam shadowing false
skinparam defaultFontName "Fira Code"

class DummyNode{
    - -  In/Out Declerations - -
    + inDecls
    + outDecls
    - - Sockets - -
    - m_inSockets
    - m_outSockets
}

namespace executionGraph{

    class LogicNode{
        + init()
        + reset()
        + compute()

        + registerInputs(...)
        + registerOutputs(...)
        - -
        - m_inputs
        - m_outputs
    }

    class LogicSocketInput<Data> {
        + dataHandle() [const]

        + connections() [const]
        - -
        - Connections m_connections
    }

    class LogicSocketOutput<Data> {
        + dataHandle() [const]

        + connections() [const]
        - -
        - Connections m_connections
    }

    class LogicSocketBase {
        + type()
        + index()
        + parent()
    }

    class LogicSocketInputBase {
        + castToType<T>() -> LogicSocketInput<T>
    }

    class LogicSocketOutputBase {
        + castToType<T>() -> LogicSocketOutput<T>
    }

    class LogicSocketConnections<Traits, ParentSocket>{
        Connection for input/output sockets
        - -
        + connect(socketData)
        + disconnect(socketData)
        - -
        SocketDataConnections* m_connections
        Parent* m_parent
    }

    namespace userData{
        class LogicSocketDataConnections<Traits, ParentSocket>{
            Connection for data sockets
            - -
            + connect(socket)
            + disconnect(socket)
            - -
            m_inputs
            m_outputs
        }

        class LogicSocketData<Data>{
            + dataHandle() [const]
            + dataHandleConst()

            + connections() [const]
            - -
            - Data m_data
            - Connections m_connections
        }


        class LogicSocketDataRef<Args...>{
            + setReference(socketData)
            - -
            - LogicSocketData<Args>* m_socketData
        }

    }

    class LogicSocketDataBase{

    }
}

DummyNode -up-|> executionGraph::LogicNode

executionGraph::LogicSocketInput -up-|> executionGraph::LogicSocketInputBase
executionGraph::LogicSocketOutput -up-|> executionGraph::LogicSocketOutputBase

executionGraph::LogicSocketInputBase -up-|> executionGraph::LogicSocketBase
executionGraph::LogicSocketOutputBase -up-|> executionGraph::LogicSocketBase
executionGraph::LogicSocketBase -[hidden]-> executionGraph::userData::LogicSocketData
executionGraph::LogicSocketBase -up[hidden]-> executionGraph::userData::LogicSocketData


DummyNode "*" *-up- executionGraph::LogicSocketInput
DummyNode "*" *-up- executionGraph::LogicSocketOutput

executionGraph::LogicSocketInput "1" *- - executionGraph::LogicSocketConnections
executionGraph::LogicSocketOutput "1" *- - executionGraph::LogicSocketConnections

executionGraph::LogicSocketBase "1" o-down- executionGraph::LogicNode

executionGraph::userData::LogicSocketData -up-|> executionGraph::LogicSocketDataBase
executionGraph::userData::LogicSocketDataConnections "*" o-down- executionGraph::LogicSocketInputBase
executionGraph::userData::LogicSocketDataConnections "*" o-down- executionGraph::LogicSocketOutputBase
executionGraph::userData::LogicSocketData -right-o "1" executionGraph::userData::LogicSocketDataRef
executionGraph::userData::LogicSocketData "1" *-down- executionGraph::userData::LogicSocketDataConnections

executionGraph::LogicSocketConnections "1" *- - executionGraph::userData::LogicSocketDataConnections : design-error

@enduml

PlantUML version 1.2018.13(Mon Nov 26 18:11:51 CET 2018)
(GPL source distribution)
Java Runtime: OpenJDK Runtime Environment
JVM: OpenJDK 64-Bit Server VM
Java Version: 11.0.6+10-post-Ubuntu-1ubuntu119.10.1
Operating System: Linux
OS Version: 5.3.0-45-generic
Default Encoding: UTF-8
Language: en
Country: US
--></g></svg>