<?xml version="1.0" encoding="UTF-8" standalone="no"?><svg xmlns="http://www.w3.org/2000/svg" xmlns:xlink="http://www.w3.org/1999/xlink" contentScriptType="application/ecmascript" contentStyleType="text/css" height="1167px" preserveAspectRatio="none" style="width:1681px;height:1167px;" version="1.1" viewBox="0 0 1681 1167" width="1681px" zoomAndPan="magnify"><defs/><g><!--cluster cefapp--><polygon fill="#FFFFFF" points="298,16,357,16,364,38.2969,975,38.2969,975,1046,298,1046,298,16" style="stroke: #000000; stroke-width: 1.5;"/><line style="stroke: #000000; stroke-width: 1.5;" x1="298" x2="364" y1="38.2969" y2="38.2969"/><text fill="#000000" font-family="sans-serif" font-size="14" font-weight="bold" lengthAdjust="spacingAndGlyphs" textLength="53" x="302" y="30.9951">cefapp</text><!--cluster backend--><polygon fill="#FFFFFF" points="1156,172,1229,172,1236,194.2969,1659,194.2969,1659,1155,1156,1155,1156,172" style="stroke: #000000; stroke-width: 1.5;"/><line style="stroke: #000000; stroke-width: 1.5;" x1="1156" x2="1236" y1="194.2969" y2="194.2969"/><text fill="#000000" font-family="sans-serif" font-size="14" font-weight="bold" lengthAdjust="spacingAndGlyphs" textLength="67" x="1160" y="186.9951">backend</text><!--cluster executionGraph--><polygon fill="#FFFFFF" points="994,335.5,1124,335.5,1131,357.7969,1148,357.7969,1148,418.5,994,418.5,994,335.5" style="stroke: #000000; stroke-width: 1.5;"/><line style="stroke: #000000; stroke-width: 1.5;" x1="994" x2="1131" y1="357.7969" y2="357.7969"/><text fill="#000000" font-family="sans-serif" font-size="14" font-weight="bold" lengthAdjust="spacingAndGlyphs" textLength="124" x="998" y="350.4951">executionGraph</text><!--class cefapp::App--><rect fill="#FEFECE" height="73.6094" id="cefapp::App" style="stroke: #A80036; stroke-width: 1.5;" width="145" x="650.5" y="43"/><ellipse cx="706.75" cy="59" fill="#ADD1B2" rx="11" ry="11" style="stroke: #A80036; stroke-width: 1.0;"/><path d="M710.0938,64.4219 Q709.2344,64.8906 708.5156,65.0625 Q707.8125,65.2344 707.0156,65.2344 Q704.4531,65.2344 703.0469,63.4531 Q701.6563,61.6563 701.6563,58.4688 Q701.6563,55.3125 703.0625,53.5 Q704.4688,51.6875 707.0156,51.6875 Q707.8125,51.6875 708.5156,51.875 Q709.2344,52.0469 710.0938,52.5156 L710.0938,55.1719 Q708.9688,54.2344 708.3125,54 Q707.6563,53.75 707.0156,53.75 Q705.5625,53.75 704.8281,54.8906 Q704.0938,56.0156 704.0938,58.4688 Q704.0938,60.9219 704.8281,62.0625 Q705.5625,63.1875 707.0156,63.1875 Q707.6719,63.1875 708.3125,62.9531 Q708.9688,62.7031 710.0938,61.7656 L710.0938,64.4219 Z "/><text fill="#000000" font-family="sans-serif" font-size="12" lengthAdjust="spacingAndGlyphs" textLength="24" x="727.25" y="63.1543">App</text><line style="stroke: #A80036; stroke-width: 1.5;" x1="651.5" x2="794.5" y1="75" y2="75"/><rect fill="none" height="6" style="stroke: #C82930; stroke-width: 1.0;" width="6" x="658.5" y="83.9023"/><text fill="#000000" font-family="sans-serif" font-size="11" lengthAdjust="spacingAndGlyphs" textLength="82" x="670.5" y="89.2104">m_appHandler</text><line style="stroke: #A80036; stroke-width: 1.5;" x1="651.5" x2="794.5" y1="95.8047" y2="95.8047"/><ellipse cx="661.5" cy="107.707" fill="#84BE84" rx="3" ry="3" style="stroke: #038048; stroke-width: 1.0;"/><text fill="#000000" font-family="sans-serif" font-size="11" lengthAdjust="spacingAndGlyphs" textLength="119" x="670.5" y="110.0151">OnContextInitialized()</text><!--class cefapp::AppHandler--><rect fill="#D3D3D3" height="99.2188" id="cefapp::AppHandler" style="stroke: #A80036; stroke-width: 1.5;" width="148" x="306" y="337"/><rect fill="#D3D3D3" height="32" style="stroke: #A80036; stroke-width: 1.5;" width="148" x="306" y="337"/><ellipse cx="340.35" cy="353" fill="#ADD1B2" rx="11" ry="11" style="stroke: #A80036; stroke-width: 1.0;"/><path d="M343.6938,358.4219 Q342.8344,358.8906 342.1156,359.0625 Q341.4125,359.2344 340.6156,359.2344 Q338.0531,359.2344 336.6469,357.4531 Q335.2563,355.6563 335.2563,352.4688 Q335.2563,349.3125 336.6625,347.5 Q338.0688,345.6875 340.6156,345.6875 Q341.4125,345.6875 342.1156,345.875 Q342.8344,346.0469 343.6938,346.5156 L343.6938,349.1719 Q342.5688,348.2344 341.9125,348 Q341.2563,347.75 340.6156,347.75 Q339.1625,347.75 338.4281,348.8906 Q337.6938,350.0156 337.6938,352.4688 Q337.6938,354.9219 338.4281,356.0625 Q339.1625,357.1875 340.6156,357.1875 Q341.2719,357.1875 341.9125,356.9531 Q342.5688,356.7031 343.6938,355.7656 L343.6938,358.4219 Z "/><text fill="#000000" font-family="sans-serif" font-size="12" lengthAdjust="spacingAndGlyphs" textLength="73" x="358.65" y="357.1543">AppHandler</text><line style="stroke: #A80036; stroke-width: 1.5;" x1="307" x2="453" y1="369" y2="369"/><rect fill="none" height="6" style="stroke: #C82930; stroke-width: 1.0;" width="6" x="314" y="377.9023"/><text fill="#000000" font-family="sans-serif" font-size="11" lengthAdjust="spacingAndGlyphs" textLength="52" x="326" y="383.2104">m_router</text><rect fill="none" height="6" style="stroke: #C82930; stroke-width: 1.0;" width="6" x="314" y="390.707"/><text fill="#000000" font-family="sans-serif" font-size="11" lengthAdjust="spacingAndGlyphs" textLength="122" x="326" y="396.0151">m_requestDispatcher</text><line style="stroke: #A80036; stroke-width: 1.5;" x1="307" x2="453" y1="402.6094" y2="402.6094"/><ellipse cx="317" cy="414.5117" fill="#84BE84" rx="3" ry="3" style="stroke: #038048; stroke-width: 1.0;"/><text fill="#000000" font-family="sans-serif" font-size="11" lengthAdjust="spacingAndGlyphs" textLength="96" x="326" y="416.8198">OnAfterCreated()</text><ellipse cx="317" cy="427.3164" fill="#84BE84" rx="3" ry="3" style="stroke: #038048; stroke-width: 1.0;"/><text fill="#000000" font-family="sans-serif" font-size="11" lengthAdjust="spacingAndGlyphs" textLength="101" x="326" y="429.6245">OnBeforeCloses()</text><!--class cefapp::BackendRequestDispatcher--><rect fill="#FEFECE" height="150.4375" id="cefapp::BackendRequestDispatcher" style="stroke: #A80036; stroke-width: 1.5;" width="207" x="720.5" y="888"/><ellipse cx="735.95" cy="904" fill="#ADD1B2" rx="11" ry="11" style="stroke: #A80036; stroke-width: 1.0;"/><path d="M739.2938,909.4219 Q738.4344,909.8906 737.7156,910.0625 Q737.0125,910.2344 736.2156,910.2344 Q733.6531,910.2344 732.2469,908.4531 Q730.8563,906.6563 730.8563,903.4688 Q730.8563,900.3125 732.2625,898.5 Q733.6688,896.6875 736.2156,896.6875 Q737.0125,896.6875 737.7156,896.875 Q738.4344,897.0469 739.2938,897.5156 L739.2938,900.1719 Q738.1688,899.2344 737.5125,899 Q736.8563,898.75 736.2156,898.75 Q734.7625,898.75 734.0281,899.8906 Q733.2938,901.0156 733.2938,903.4688 Q733.2938,905.9219 734.0281,907.0625 Q734.7625,908.1875 736.2156,908.1875 Q736.8719,908.1875 737.5125,907.9531 Q738.1688,907.7031 739.2938,906.7656 L739.2938,909.4219 Z "/><text fill="#000000" font-family="sans-serif" font-size="12" lengthAdjust="spacingAndGlyphs" textLength="174" x="750.05" y="908.1543">BackendRequestDispatcher</text><line style="stroke: #A80036; stroke-width: 1.5;" x1="721.5" x2="926.5" y1="920" y2="920"/><rect fill="none" height="6" style="stroke: #C82930; stroke-width: 1.0;" width="6" x="728.5" y="928.9023"/><text fill="#000000" font-family="sans-serif" font-size="11" lengthAdjust="spacingAndGlyphs" textLength="111" x="740.5" y="934.2104">m_generalHandlers</text><rect fill="none" height="6" style="stroke: #C82930; stroke-width: 1.0;" width="6" x="728.5" y="941.707"/><text fill="#000000" font-family="sans-serif" font-size="11" lengthAdjust="spacingAndGlyphs" textLength="111" x="740.5" y="947.0151">m_specificHandlers</text><rect fill="none" height="6" style="stroke: #C82930; stroke-width: 1.0;" width="6" x="728.5" y="954.5117"/><text fill="#000000" font-family="sans-serif" font-size="11" lengthAdjust="spacingAndGlyphs" textLength="83" x="740.5" y="959.8198">m_handlerMap</text><line style="stroke: #A80036; stroke-width: 1.5;" x1="721.5" x2="926.5" y1="966.4141" y2="966.4141"/><ellipse cx="731.5" cy="978.3164" fill="#84BE84" rx="3" ry="3" style="stroke: #038048; stroke-width: 1.0;"/><text fill="#000000" font-family="sans-serif" font-size="11" lengthAdjust="spacingAndGlyphs" textLength="85" x="740.5" y="980.6245">addHandler(...)</text><ellipse cx="731.5" cy="991.1211" fill="#84BE84" rx="3" ry="3" style="stroke: #038048; stroke-width: 1.0;"/><text fill="#000000" font-family="sans-serif" font-size="11" lengthAdjust="spacingAndGlyphs" textLength="107" x="740.5" y="993.4292">removeHandler(...)</text><ellipse cx="731.5" cy="1003.9258" fill="#84BE84" rx="3" ry="3" style="stroke: #038048; stroke-width: 1.0;"/><text fill="#000000" font-family="sans-serif" font-size="11" lengthAdjust="spacingAndGlyphs" textLength="181" x="740.5" y="1006.2339">addRequest(request, response)</text><ellipse cx="731.5" cy="1016.7305" fill="#84BE84" rx="3" ry="3" style="stroke: #038048; stroke-width: 1.0;"/><text fill="#000000" font-family="sans-serif" font-size="11" lengthAdjust="spacingAndGlyphs" textLength="35" x="740.5" y="1019.0386">start()</text><ellipse cx="731.5" cy="1029.5352" fill="#84BE84" rx="3" ry="3" style="stroke: #038048; stroke-width: 1.0;"/><text fill="#000000" font-family="sans-serif" font-size="11" lengthAdjust="spacingAndGlyphs" textLength="33" x="740.5" y="1031.8433">stop()</text><!--class cefapp::BackendRequestDispatcherAdapterCef--><rect fill="#FEFECE" height="60.8047" id="cefapp::BackendRequestDispatcherAdapterCef" style="stroke: #A80036; stroke-width: 1.5;" width="276" x="349" y="625"/><ellipse cx="364" cy="641" fill="#ADD1B2" rx="11" ry="11" style="stroke: #A80036; stroke-width: 1.0;"/><path d="M367.3438,646.4219 Q366.4844,646.8906 365.7656,647.0625 Q365.0625,647.2344 364.2656,647.2344 Q361.7031,647.2344 360.2969,645.4531 Q358.9063,643.6563 358.9063,640.4688 Q358.9063,637.3125 360.3125,635.5 Q361.7188,633.6875 364.2656,633.6875 Q365.0625,633.6875 365.7656,633.875 Q366.4844,634.0469 367.3438,634.5156 L367.3438,637.1719 Q366.2188,636.2344 365.5625,636 Q364.9063,635.75 364.2656,635.75 Q362.8125,635.75 362.0781,636.8906 Q361.3438,638.0156 361.3438,640.4688 Q361.3438,642.9219 362.0781,644.0625 Q362.8125,645.1875 364.2656,645.1875 Q364.9219,645.1875 365.5625,644.9531 Q366.2188,644.7031 367.3438,643.7656 L367.3438,646.4219 Z "/><text fill="#000000" font-family="sans-serif" font-size="12" lengthAdjust="spacingAndGlyphs" textLength="244" x="378" y="645.1543">BackendRequestDispatcherAdapterCef</text><line style="stroke: #A80036; stroke-width: 1.5;" x1="350" x2="624" y1="657" y2="657"/><rect fill="none" height="6" style="stroke: #C82930; stroke-width: 1.0;" width="6" x="357" y="665.9023"/><text fill="#000000" font-family="sans-serif" font-size="11" lengthAdjust="spacingAndGlyphs" textLength="77" x="369" y="671.2104">m_dispatcher</text><line style="stroke: #A80036; stroke-width: 1.5;" x1="350" x2="624" y1="677.8047" y2="677.8047"/><!--class cefapp::ClientSchemeHandlerFactory--><rect fill="#FEFECE" height="60.8047" id="cefapp::ClientSchemeHandlerFactory" style="stroke: #A80036; stroke-width: 1.5;" width="212" x="489" y="356"/><ellipse cx="504" cy="372" fill="#ADD1B2" rx="11" ry="11" style="stroke: #A80036; stroke-width: 1.0;"/><path d="M507.3438,377.4219 Q506.4844,377.8906 505.7656,378.0625 Q505.0625,378.2344 504.2656,378.2344 Q501.7031,378.2344 500.2969,376.4531 Q498.9063,374.6563 498.9063,371.4688 Q498.9063,368.3125 500.3125,366.5 Q501.7188,364.6875 504.2656,364.6875 Q505.0625,364.6875 505.7656,364.875 Q506.4844,365.0469 507.3438,365.5156 L507.3438,368.1719 Q506.2188,367.2344 505.5625,367 Q504.9063,366.75 504.2656,366.75 Q502.8125,366.75 502.0781,367.8906 Q501.3438,369.0156 501.3438,371.4688 Q501.3438,373.9219 502.0781,375.0625 Q502.8125,376.1875 504.2656,376.1875 Q504.9219,376.1875 505.5625,375.9531 Q506.2188,375.7031 507.3438,374.7656 L507.3438,377.4219 Z "/><text fill="#000000" font-family="sans-serif" font-size="12" lengthAdjust="spacingAndGlyphs" textLength="180" x="518" y="376.1543">ClientSchemeHandlerFactory</text><line style="stroke: #A80036; stroke-width: 1.5;" x1="490" x2="700" y1="388" y2="388"/><line style="stroke: #A80036; stroke-width: 1.5;" x1="490" x2="700" y1="396" y2="396"/><ellipse cx="500" cy="407.9023" fill="#84BE84" rx="3" ry="3" style="stroke: #038048; stroke-width: 1.0;"/><text fill="#000000" font-family="sans-serif" font-size="11" lengthAdjust="spacingAndGlyphs" textLength="58" x="509" y="410.2104">Create(...)</text><!--class cefapp::BackendSchemeHandlerFactory--><rect fill="#FEFECE" height="73.6094" id="cefapp::BackendSchemeHandlerFactory" style="stroke: #A80036; stroke-width: 1.5;" width="231" x="736.5" y="349.5"/><ellipse cx="751.5" cy="365.5" fill="#ADD1B2" rx="11" ry="11" style="stroke: #A80036; stroke-width: 1.0;"/><path d="M754.8438,370.9219 Q753.9844,371.3906 753.2656,371.5625 Q752.5625,371.7344 751.7656,371.7344 Q749.2031,371.7344 747.7969,369.9531 Q746.4063,368.1563 746.4063,364.9688 Q746.4063,361.8125 747.8125,360 Q749.2188,358.1875 751.7656,358.1875 Q752.5625,358.1875 753.2656,358.375 Q753.9844,358.5469 754.8438,359.0156 L754.8438,361.6719 Q753.7188,360.7344 753.0625,360.5 Q752.4063,360.25 751.7656,360.25 Q750.3125,360.25 749.5781,361.3906 Q748.8438,362.5156 748.8438,364.9688 Q748.8438,367.4219 749.5781,368.5625 Q750.3125,369.6875 751.7656,369.6875 Q752.4219,369.6875 753.0625,369.4531 Q753.7188,369.2031 754.8438,368.2656 L754.8438,370.9219 Z "/><text fill="#000000" font-family="sans-serif" font-size="12" lengthAdjust="spacingAndGlyphs" textLength="199" x="765.5" y="369.6543">BackendSchemeHandlerFactory</text><line style="stroke: #A80036; stroke-width: 1.5;" x1="737.5" x2="966.5" y1="381.5" y2="381.5"/><rect fill="none" height="6" style="stroke: #C82930; stroke-width: 1.0;" width="6" x="744.5" y="390.4023"/><text fill="#000000" font-family="sans-serif" font-size="11" lengthAdjust="spacingAndGlyphs" textLength="77" x="756.5" y="395.7104">m_dispatcher</text><line style="stroke: #A80036; stroke-width: 1.5;" x1="737.5" x2="966.5" y1="402.3047" y2="402.3047"/><ellipse cx="747.5" cy="414.207" fill="#84BE84" rx="3" ry="3" style="stroke: #038048; stroke-width: 1.0;"/><text fill="#000000" font-family="sans-serif" font-size="11" lengthAdjust="spacingAndGlyphs" textLength="58" x="756.5" y="416.5151">Create(...)</text><!--class cefapp::BackendResourceHandler--><rect fill="#FEFECE" height="60.8047" id="cefapp::BackendResourceHandler" style="stroke: #A80036; stroke-width: 1.5;" width="194" x="660" y="625"/><ellipse cx="675" cy="641" fill="#ADD1B2" rx="11" ry="11" style="stroke: #A80036; stroke-width: 1.0;"/><path d="M678.3438,646.4219 Q677.4844,646.8906 676.7656,647.0625 Q676.0625,647.2344 675.2656,647.2344 Q672.7031,647.2344 671.2969,645.4531 Q669.9063,643.6563 669.9063,640.4688 Q669.9063,637.3125 671.3125,635.5 Q672.7188,633.6875 675.2656,633.6875 Q676.0625,633.6875 676.7656,633.875 Q677.4844,634.0469 678.3438,634.5156 L678.3438,637.1719 Q677.2188,636.2344 676.5625,636 Q675.9063,635.75 675.2656,635.75 Q673.8125,635.75 673.0781,636.8906 Q672.3438,638.0156 672.3438,640.4688 Q672.3438,642.9219 673.0781,644.0625 Q673.8125,645.1875 675.2656,645.1875 Q675.9219,645.1875 676.5625,644.9531 Q677.2188,644.7031 678.3438,643.7656 L678.3438,646.4219 Z "/><text fill="#000000" font-family="sans-serif" font-size="12" lengthAdjust="spacingAndGlyphs" textLength="162" x="689" y="645.1543">BackendResourceHandler</text><line style="stroke: #A80036; stroke-width: 1.5;" x1="661" x2="853" y1="657" y2="657"/><rect fill="none" height="6" style="stroke: #C82930; stroke-width: 1.0;" width="6" x="668" y="665.9023"/><text fill="#000000" font-family="sans-serif" font-size="11" lengthAdjust="spacingAndGlyphs" textLength="77" x="680" y="671.2104">m_dispatcher</text><line style="stroke: #A80036; stroke-width: 1.5;" x1="661" x2="853" y1="677.8047" y2="677.8047"/><!--class backend::BackendFactory--><rect fill="#FEFECE" height="60.8047" id="backend::BackendFactory" style="stroke: #A80036; stroke-width: 1.5;" width="150" x="1179" y="199"/><ellipse cx="1202.1" cy="215" fill="#ADD1B2" rx="11" ry="11" style="stroke: #A80036; stroke-width: 1.0;"/><path d="M1205.4438,220.4219 Q1204.5844,220.8906 1203.8656,221.0625 Q1203.1625,221.2344 1202.3656,221.2344 Q1199.8031,221.2344 1198.3969,219.4531 Q1197.0063,217.6563 1197.0063,214.4688 Q1197.0063,211.3125 1198.4125,209.5 Q1199.8188,207.6875 1202.3656,207.6875 Q1203.1625,207.6875 1203.8656,207.875 Q1204.5844,208.0469 1205.4438,208.5156 L1205.4438,211.1719 Q1204.3188,210.2344 1203.6625,210 Q1203.0063,209.75 1202.3656,209.75 Q1200.9125,209.75 1200.1781,210.8906 Q1199.4438,212.0156 1199.4438,214.4688 Q1199.4438,216.9219 1200.1781,218.0625 Q1200.9125,219.1875 1202.3656,219.1875 Q1203.0219,219.1875 1203.6625,218.9531 Q1204.3188,218.7031 1205.4438,217.7656 L1205.4438,220.4219 Z "/><text fill="#000000" font-family="sans-serif" font-size="12" lengthAdjust="spacingAndGlyphs" textLength="100" x="1217.9" y="219.1543">BackendFactory</text><line style="stroke: #A80036; stroke-width: 1.5;" x1="1180" x2="1328" y1="231" y2="231"/><line style="stroke: #A80036; stroke-width: 1.5;" x1="1180" x2="1328" y1="239" y2="239"/><ellipse cx="1190" cy="250.9023" fill="#84BE84" rx="3" ry="3" style="stroke: #038048; stroke-width: 1.0;"/><text fill="#000000" font-family="sans-serif" font-size="11" lengthAdjust="spacingAndGlyphs" text-decoration="underline" textLength="124" x="1199" y="253.2104">BackendData Create()</text><line style="stroke: #000000; stroke-width: 1.0;" x1="1199" x2="1323" y1="255.2104" y2="255.2104"/><!--class backend::BackendRequestHandler--><rect fill="#D3D3D3" height="60.8047" id="backend::BackendRequestHandler" style="stroke: #A80036; stroke-width: 1.5;" width="267" x="1164.5" y="766"/><rect fill="#D3D3D3" height="32" style="stroke: #A80036; stroke-width: 1.5;" width="267" x="1164.5" y="766"/><ellipse cx="1216.25" cy="782" fill="#ADD1B2" rx="11" ry="11" style="stroke: #A80036; stroke-width: 1.0;"/><path d="M1219.5938,787.4219 Q1218.7344,787.8906 1218.0156,788.0625 Q1217.3125,788.2344 1216.5156,788.2344 Q1213.9531,788.2344 1212.5469,786.4531 Q1211.1563,784.6563 1211.1563,781.4688 Q1211.1563,778.3125 1212.5625,776.5 Q1213.9688,774.6875 1216.5156,774.6875 Q1217.3125,774.6875 1218.0156,774.875 Q1218.7344,775.0469 1219.5938,775.5156 L1219.5938,778.1719 Q1218.4688,777.2344 1217.8125,777 Q1217.1563,776.75 1216.5156,776.75 Q1215.0625,776.75 1214.3281,777.8906 Q1213.5938,779.0156 1213.5938,781.4688 Q1213.5938,783.9219 1214.3281,785.0625 Q1215.0625,786.1875 1216.5156,786.1875 Q1217.1719,786.1875 1217.8125,785.9531 Q1218.4688,785.7031 1219.5938,784.7656 L1219.5938,787.4219 Z "/><text fill="#000000" font-family="sans-serif" font-size="12" lengthAdjust="spacingAndGlyphs" textLength="155" x="1236.75" y="786.1543">BackendRequestHandler</text><line style="stroke: #A80036; stroke-width: 1.5;" x1="1165.5" x2="1430.5" y1="798" y2="798"/><line style="stroke: #A80036; stroke-width: 1.5;" x1="1165.5" x2="1430.5" y1="806" y2="806"/><ellipse cx="1175.5" cy="817.9023" fill="#84BE84" rx="3" ry="3" style="stroke: #038048; stroke-width: 1.0;"/><text fill="#000000" font-family="sans-serif" font-size="11" font-style="italic" lengthAdjust="spacingAndGlyphs" textLength="241" x="1184.5" y="820.2104">handleRequest(request, responsePromise)</text><!--class backend::Backend--><rect fill="#D3D3D3" height="48" id="backend::Backend" style="stroke: #A80036; stroke-width: 1.5;" width="86" x="1516" y="1099"/><rect fill="#D3D3D3" height="32" style="stroke: #A80036; stroke-width: 1.5;" width="86" x="1516" y="1099"/><ellipse cx="1531" cy="1115" fill="#ADD1B2" rx="11" ry="11" style="stroke: #A80036; stroke-width: 1.0;"/><path d="M1534.3438,1120.4219 Q1533.4844,1120.8906 1532.7656,1121.0625 Q1532.0625,1121.2344 1531.2656,1121.2344 Q1528.7031,1121.2344 1527.2969,1119.4531 Q1525.9063,1117.6563 1525.9063,1114.4688 Q1525.9063,1111.3125 1527.3125,1109.5 Q1528.7188,1107.6875 1531.2656,1107.6875 Q1532.0625,1107.6875 1532.7656,1107.875 Q1533.4844,1108.0469 1534.3438,1108.5156 L1534.3438,1111.1719 Q1533.2188,1110.2344 1532.5625,1110 Q1531.9063,1109.75 1531.2656,1109.75 Q1529.8125,1109.75 1529.0781,1110.8906 Q1528.3438,1112.0156 1528.3438,1114.4688 Q1528.3438,1116.9219 1529.0781,1118.0625 Q1529.8125,1119.1875 1531.2656,1119.1875 Q1531.9219,1119.1875 1532.5625,1118.9531 Q1533.2188,1118.7031 1534.3438,1117.7656 L1534.3438,1120.4219 Z "/><text fill="#000000" font-family="sans-serif" font-size="12" lengthAdjust="spacingAndGlyphs" textLength="54" x="1545" y="1119.1543">Backend</text><line style="stroke: #A80036; stroke-width: 1.5;" x1="1517" x2="1601" y1="1131" y2="1131"/><line style="stroke: #A80036; stroke-width: 1.5;" x1="1517" x2="1601" y1="1139" y2="1139"/><!--class backend::DummyRequestHandler--><rect fill="#FEFECE" height="48" id="backend::DummyRequestHandler" style="stroke: #A80036; stroke-width: 1.5;" width="178" x="1209" y="497"/><ellipse cx="1224" cy="513" fill="#ADD1B2" rx="11" ry="11" style="stroke: #A80036; stroke-width: 1.0;"/><path d="M1227.3438,518.4219 Q1226.4844,518.8906 1225.7656,519.0625 Q1225.0625,519.2344 1224.2656,519.2344 Q1221.7031,519.2344 1220.2969,517.4531 Q1218.9063,515.6563 1218.9063,512.4688 Q1218.9063,509.3125 1220.3125,507.5 Q1221.7188,505.6875 1224.2656,505.6875 Q1225.0625,505.6875 1225.7656,505.875 Q1226.4844,506.0469 1227.3438,506.5156 L1227.3438,509.1719 Q1226.2188,508.2344 1225.5625,508 Q1224.9063,507.75 1224.2656,507.75 Q1222.8125,507.75 1222.0781,508.8906 Q1221.3438,510.0156 1221.3438,512.4688 Q1221.3438,514.9219 1222.0781,516.0625 Q1222.8125,517.1875 1224.2656,517.1875 Q1224.9219,517.1875 1225.5625,516.9531 Q1226.2188,516.7031 1227.3438,515.7656 L1227.3438,518.4219 Z "/><text fill="#000000" font-family="sans-serif" font-size="12" lengthAdjust="spacingAndGlyphs" textLength="146" x="1238" y="517.1543">DummyRequestHandler</text><line style="stroke: #A80036; stroke-width: 1.5;" x1="1210" x2="1386" y1="529" y2="529"/><line style="stroke: #A80036; stroke-width: 1.5;" x1="1210" x2="1386" y1="537" y2="537"/><!--class backend::ExecutionGraphBackend--><rect fill="#FEFECE" height="48" id="backend::ExecutionGraphBackend" style="stroke: #A80036; stroke-width: 1.5;" width="185" x="1466.5" y="772.5"/><ellipse cx="1481.5" cy="788.5" fill="#ADD1B2" rx="11" ry="11" style="stroke: #A80036; stroke-width: 1.0;"/><path d="M1484.8438,793.9219 Q1483.9844,794.3906 1483.2656,794.5625 Q1482.5625,794.7344 1481.7656,794.7344 Q1479.2031,794.7344 1477.7969,792.9531 Q1476.4063,791.1563 1476.4063,787.9688 Q1476.4063,784.8125 1477.8125,783 Q1479.2188,781.1875 1481.7656,781.1875 Q1482.5625,781.1875 1483.2656,781.375 Q1483.9844,781.5469 1484.8438,782.0156 L1484.8438,784.6719 Q1483.7188,783.7344 1483.0625,783.5 Q1482.4063,783.25 1481.7656,783.25 Q1480.3125,783.25 1479.5781,784.3906 Q1478.8438,785.5156 1478.8438,787.9688 Q1478.8438,790.4219 1479.5781,791.5625 Q1480.3125,792.6875 1481.7656,792.6875 Q1482.4219,792.6875 1483.0625,792.4531 Q1483.7188,792.2031 1484.8438,791.2656 L1484.8438,793.9219 Z "/><text fill="#000000" font-family="sans-serif" font-size="12" lengthAdjust="spacingAndGlyphs" textLength="153" x="1495.5" y="792.6543">ExecutionGraphBackend</text><line style="stroke: #A80036; stroke-width: 1.5;" x1="1467.5" x2="1650.5" y1="804.5" y2="804.5"/><line style="stroke: #A80036; stroke-width: 1.5;" x1="1467.5" x2="1650.5" y1="812.5" y2="812.5"/><!--class executionGraph::StaticFactory--><rect fill="#FEFECE" height="48" id="executionGraph::StaticFactory" style="stroke: #A80036; stroke-width: 1.5;" width="137" x="1002.5" y="362.5"/><ellipse cx="1017.5" cy="378.5" fill="#ADD1B2" rx="11" ry="11" style="stroke: #A80036; stroke-width: 1.0;"/><path d="M1020.8438,383.9219 Q1019.9844,384.3906 1019.2656,384.5625 Q1018.5625,384.7344 1017.7656,384.7344 Q1015.2031,384.7344 1013.7969,382.9531 Q1012.4063,381.1563 1012.4063,377.9688 Q1012.4063,374.8125 1013.8125,373 Q1015.2188,371.1875 1017.7656,371.1875 Q1018.5625,371.1875 1019.2656,371.375 Q1019.9844,371.5469 1020.8438,372.0156 L1020.8438,374.6719 Q1019.7188,373.7344 1019.0625,373.5 Q1018.4063,373.25 1017.7656,373.25 Q1016.3125,373.25 1015.5781,374.3906 Q1014.8438,375.5156 1014.8438,377.9688 Q1014.8438,380.4219 1015.5781,381.5625 Q1016.3125,382.6875 1017.7656,382.6875 Q1018.4219,382.6875 1019.0625,382.4531 Q1019.7188,382.2031 1020.8438,381.2656 L1020.8438,383.9219 Z "/><text fill="#000000" font-family="sans-serif" font-size="12" lengthAdjust="spacingAndGlyphs" textLength="82" x="1031.5" y="382.6543">StaticFactory</text><rect fill="#FFFFFF" height="15.9688" style="stroke: #000000; stroke-width: 1.0; stroke-dasharray: 2.0,2.0;" width="21" x="1121.5" y="359.5"/><text fill="#000000" font-family="sans-serif" font-size="12" font-style="italic" lengthAdjust="spacingAndGlyphs" textLength="19" x="1122.5" y="371.6387">T...</text><line style="stroke: #A80036; stroke-width: 1.5;" x1="1003.5" x2="1138.5" y1="394.5" y2="394.5"/><line style="stroke: #A80036; stroke-width: 1.5;" x1="1003.5" x2="1138.5" y1="402.5" y2="402.5"/><!--class CefMessageRouterBrowserSide--><rect fill="#FEFECE" height="48" id="CefMessageRouterBrowserSide" style="stroke: #A80036; stroke-width: 1.5;" width="227" x="43.5" y="362.5"/><ellipse cx="58.5" cy="378.5" fill="#ADD1B2" rx="11" ry="11" style="stroke: #A80036; stroke-width: 1.0;"/><path d="M61.8438,383.9219 Q60.9844,384.3906 60.2656,384.5625 Q59.5625,384.7344 58.7656,384.7344 Q56.2031,384.7344 54.7969,382.9531 Q53.4063,381.1563 53.4063,377.9688 Q53.4063,374.8125 54.8125,373 Q56.2188,371.1875 58.7656,371.1875 Q59.5625,371.1875 60.2656,371.375 Q60.9844,371.5469 61.8438,372.0156 L61.8438,374.6719 Q60.7188,373.7344 60.0625,373.5 Q59.4063,373.25 58.7656,373.25 Q57.3125,373.25 56.5781,374.3906 Q55.8438,375.5156 55.8438,377.9688 Q55.8438,380.4219 56.5781,381.5625 Q57.3125,382.6875 58.7656,382.6875 Q59.4219,382.6875 60.0625,382.4531 Q60.7188,382.2031 61.8438,381.2656 L61.8438,383.9219 Z "/><text fill="#000000" font-family="sans-serif" font-size="12" lengthAdjust="spacingAndGlyphs" textLength="195" x="72.5" y="382.6543">CefMessageRouterBrowserSide</text><line style="stroke: #A80036; stroke-width: 1.5;" x1="44.5" x2="269.5" y1="394.5" y2="394.5"/><line style="stroke: #A80036; stroke-width: 1.5;" x1="44.5" x2="269.5" y1="402.5" y2="402.5"/><!--class Handler--><rect fill="#FEFECE" height="48" id="Handler" style="stroke: #A80036; stroke-width: 1.5;" width="284" x="6" y="772.5"/><ellipse cx="21" cy="788.5" fill="#ADD1B2" rx="11" ry="11" style="stroke: #A80036; stroke-width: 1.0;"/><path d="M24.3438,793.9219 Q23.4844,794.3906 22.7656,794.5625 Q22.0625,794.7344 21.2656,794.7344 Q18.7031,794.7344 17.2969,792.9531 Q15.9063,791.1563 15.9063,787.9688 Q15.9063,784.8125 17.3125,783 Q18.7188,781.1875 21.2656,781.1875 Q22.0625,781.1875 22.7656,781.375 Q23.4844,781.5469 24.3438,782.0156 L24.3438,784.6719 Q23.2188,783.7344 22.5625,783.5 Q21.9063,783.25 21.2656,783.25 Q19.8125,783.25 19.0781,784.3906 Q18.3438,785.5156 18.3438,787.9688 Q18.3438,790.4219 19.0781,791.5625 Q19.8125,792.6875 21.2656,792.6875 Q21.9219,792.6875 22.5625,792.4531 Q23.2188,792.2031 24.3438,791.2656 L24.3438,793.9219 Z "/><text fill="#000000" font-family="sans-serif" font-size="12" lengthAdjust="spacingAndGlyphs" textLength="252" x="35" y="792.6543">CefMessageRouterBrowserSide::Handler</text><line style="stroke: #A80036; stroke-width: 1.5;" x1="7" x2="289" y1="804.5" y2="804.5"/><line style="stroke: #A80036; stroke-width: 1.5;" x1="7" x2="289" y1="812.5" y2="812.5"/><!--class CefResourceHandler--><rect fill="#FEFECE" height="99.2188" id="CefResourceHandler" style="stroke: #A80036; stroke-width: 1.5;" width="168" x="75" y="606"/><ellipse cx="93.6" cy="622" fill="#ADD1B2" rx="11" ry="11" style="stroke: #A80036; stroke-width: 1.0;"/><path d="M96.9438,627.4219 Q96.0844,627.8906 95.3656,628.0625 Q94.6625,628.2344 93.8656,628.2344 Q91.3031,628.2344 89.8969,626.4531 Q88.5063,624.6563 88.5063,621.4688 Q88.5063,618.3125 89.9125,616.5 Q91.3188,614.6875 93.8656,614.6875 Q94.6625,614.6875 95.3656,614.875 Q96.0844,615.0469 96.9438,615.5156 L96.9438,618.1719 Q95.8188,617.2344 95.1625,617 Q94.5063,616.75 93.8656,616.75 Q92.4125,616.75 91.6781,617.8906 Q90.9438,619.0156 90.9438,621.4688 Q90.9438,623.9219 91.6781,625.0625 Q92.4125,626.1875 93.8656,626.1875 Q94.5219,626.1875 95.1625,625.9531 Q95.8188,625.7031 96.9438,624.7656 L96.9438,627.4219 Z "/><text fill="#000000" font-family="sans-serif" font-size="12" lengthAdjust="spacingAndGlyphs" textLength="128" x="108.4" y="626.1543">CefResourceHandler</text><line style="stroke: #A80036; stroke-width: 1.5;" x1="76" x2="242" y1="638" y2="638"/><line style="stroke: #A80036; stroke-width: 1.5;" x1="76" x2="242" y1="646" y2="646"/><ellipse cx="86" cy="657.9023" fill="#84BE84" rx="3" ry="3" style="stroke: #038048; stroke-width: 1.0;"/><text fill="#000000" font-family="sans-serif" font-size="11" font-style="italic" lengthAdjust="spacingAndGlyphs" textLength="58" x="95" y="660.2104">Cancel(...)</text><ellipse cx="86" cy="670.707" fill="#84BE84" rx="3" ry="3" style="stroke: #038048; stroke-width: 1.0;"/><text fill="#000000" font-family="sans-serif" font-size="11" font-style="italic" lengthAdjust="spacingAndGlyphs" textLength="142" x="95" y="673.0151">GetResponseHeaders(...)</text><ellipse cx="86" cy="683.5117" fill="#84BE84" rx="3" ry="3" style="stroke: #038048; stroke-width: 1.0;"/><text fill="#000000" font-family="sans-serif" font-size="11" font-style="italic" lengthAdjust="spacingAndGlyphs" textLength="110" x="95" y="685.8198">ProcessRequest(...)</text><ellipse cx="86" cy="696.3164" fill="#84BE84" rx="3" ry="3" style="stroke: #038048; stroke-width: 1.0;"/><text fill="#000000" font-family="sans-serif" font-size="11" font-style="italic" lengthAdjust="spacingAndGlyphs" textLength="104" x="95" y="698.6245">ReadResponse(...)</text><!--link cefapp::App to cefapp::AppHandler--><path d="M664.2837,117.0935 C640.4736,133.0242 613.1805,152.4525 590,172 C529.9357,222.6507 467.7848,288.0362 426.8364,333.235 " fill="none" id="cefapp::App-cefapp::AppHandler" style="stroke: #A80036; stroke-width: 1.0; stroke-dasharray: 7.0,7.0;"/><polygon fill="#A80036" points="423.4337,336.9983,432.4368,333.0054,426.7871,333.2896,426.5029,327.6399,423.4337,336.9983" style="stroke: #A80036; stroke-width: 1.0;"/><text fill="#000000" font-family="sans-serif" font-size="13" lengthAdjust="spacingAndGlyphs" textLength="48" x="591" y="234.0669">creates</text><!--link cefapp::App to cefapp::ClientSchemeHandlerFactory--><path d="M707.4327,117.2765 C682.5481,176.8634 634.1377,292.7836 609.7678,351.138 " fill="none" id="cefapp::App-cefapp::ClientSchemeHandlerFactory" style="stroke: #A80036; stroke-width: 1.0; stroke-dasharray: 7.0,7.0;"/><polygon fill="#A80036" points="607.7706,355.9205,614.93,349.1571,609.6974,351.3067,607.5479,346.0742,607.7706,355.9205" style="stroke: #A80036; stroke-width: 1.0;"/><text fill="#000000" font-family="sans-serif" font-size="13" lengthAdjust="spacingAndGlyphs" textLength="56" x="684" y="234.0669">registers</text><!--link cefapp::App to cefapp::BackendSchemeHandlerFactory--><path d="M738.689,117.2765 C762.8536,174.691 809.0306,284.406 834.3363,344.5315 " fill="none" id="cefapp::App-cefapp::BackendSchemeHandlerFactory" style="stroke: #A80036; stroke-width: 1.0; stroke-dasharray: 7.0,7.0;"/><polygon fill="#A80036" points="836.42,349.4825,836.6153,339.6356,834.4803,344.8741,829.2418,342.7391,836.42,349.4825" style="stroke: #A80036; stroke-width: 1.0;"/><text fill="#000000" font-family="sans-serif" font-size="13" lengthAdjust="spacingAndGlyphs" textLength="56" x="799" y="234.0669">registers</text><!--link cefapp::App to backend::BackendFactory--><path d="M795.7199,100.4739 C894.6983,128.3407 1071.2315,178.0426 1173.9025,206.949 " fill="none" id="cefapp::App-backend::BackendFactory" style="stroke: #A80036; stroke-width: 1.0; stroke-dasharray: 7.0,7.0;"/><polygon fill="#A80036" points="1178.7352,208.3096,1171.1562,202.0201,1173.9223,206.9545,1168.9879,209.7206,1178.7352,208.3096" style="stroke: #A80036; stroke-width: 1.0;"/><text fill="#000000" font-family="sans-serif" font-size="13" lengthAdjust="spacingAndGlyphs" textLength="30" x="1021" y="160.0669">uses</text><!--link cefapp::BackendSchemeHandlerFactory to cefapp::BackendResourceHandler--><path d="M838.8904,423.6209 C820.5472,475.5612 787.4562,569.2608 769.4657,620.2025 " fill="none" id="cefapp::BackendSchemeHandlerFactory-cefapp::BackendResourceHandler" style="stroke: #A80036; stroke-width: 1.0; stroke-dasharray: 7.0,7.0;"/><polygon fill="#A80036" points="767.7728,624.996,774.5417,617.8418,769.4379,620.2814,766.9983,615.1776,767.7728,624.996" style="stroke: #A80036; stroke-width: 1.0;"/><text fill="#000000" font-family="sans-serif" font-size="13" lengthAdjust="spacingAndGlyphs" textLength="48" x="813" y="525.5669">creates</text><!--link cefapp::BackendResourceHandler to cefapp::BackendRequestDispatcher--><path d="M766.49,699.0547 C777.1699,748.0707 794.7105,828.5744 807.6167,887.8078 " fill="none" id="cefapp::BackendResourceHandler-cefapp::BackendRequestDispatcher" style="stroke: #A80036; stroke-width: 1.0;"/><polygon fill="#A80036" points="763.6692,686.1085,761.0382,692.8225,766.2239,697.8334,768.8548,691.1194,763.6692,686.1085" style="stroke: #A80036; stroke-width: 1.0;"/><text fill="#000000" font-family="sans-serif" font-size="13" lengthAdjust="spacingAndGlyphs" textLength="30" x="794" y="801.0669">uses</text><text fill="#000000" font-family="sans-serif" font-size="13" lengthAdjust="spacingAndGlyphs" textLength="8" x="756.2197" y="706.0691">1</text><!--link cefapp::BackendRequestDispatcherAdapterCef to cefapp::BackendRequestDispatcher--><path d="M530.3377,695.044 C583.532,743.5818 674.8751,826.9291 741.5942,887.8078 " fill="none" id="cefapp::BackendRequestDispatcherAdapterCef-cefapp::BackendRequestDispatcher" style="stroke: #A80036; stroke-width: 1.0;"/><polygon fill="#A80036" points="520.5449,686.1085,522.2809,693.1075,529.4093,694.197,527.6732,687.1979,520.5449,686.1085" style="stroke: #A80036; stroke-width: 1.0;"/><text fill="#000000" font-family="sans-serif" font-size="13" lengthAdjust="spacingAndGlyphs" textLength="8" x="518.6385" y="706.0691">1</text><!--link cefapp::BackendRequestDispatcherAdapterCef to Handler--><path d="M428.5962,686.1065 C397.3794,701.9247 358.0492,721.0018 322,736 C296.5806,746.5757 268.5816,756.8799 242.6121,765.8994 " fill="none" id="cefapp::BackendRequestDispatcherAdapterCef-Handler" style="stroke: #A80036; stroke-width: 1.0;"/><polygon fill="none" points="244.8669,772.5263,223.6778,772.3769,240.3353,759.2799,244.8669,772.5263" style="stroke: #A80036; stroke-width: 1.0;"/><!--link cefapp::BackendSchemeHandlerFactory to cefapp::BackendRequestDispatcher--><path d="M873.0465,436.1529 C881.8175,461.1401 890,492.1752 890,521 C890,521 890,521 890,796.5 C890,827.7499 879.8282,860.1243 867.4711,887.9242 " fill="none" id="cefapp::BackendSchemeHandlerFactory-cefapp::BackendRequestDispatcher" style="stroke: #A80036; stroke-width: 1.0;"/><polygon fill="#A80036" points="868.4463,423.6812,866.7699,430.6947,872.5991,434.9397,874.2755,427.9262,868.4463,423.6812" style="stroke: #A80036; stroke-width: 1.0;"/><text fill="#000000" font-family="sans-serif" font-size="13" lengthAdjust="spacingAndGlyphs" textLength="8" x="862.5077" y="443.1918">1</text><!--link backend::BackendRequestHandler to cefapp::BackendRequestDispatcher--><path d="M1211.0611,827.0387 C1134.9727,853.7659 1023.829,892.8069 940.1393,922.2042 " fill="none" id="backend::BackendRequestHandler-cefapp::BackendRequestDispatcher" style="stroke: #A80036; stroke-width: 1.0;"/><polygon fill="#A80036" points="927.7375,926.5606,934.7241,928.346,939.0593,922.5836,932.0727,920.7982,927.7375,926.5606" style="stroke: #A80036; stroke-width: 1.0;"/><text fill="#000000" font-family="sans-serif" font-size="13" lengthAdjust="spacingAndGlyphs" textLength="23" x="935.48" y="920.6651">1..*</text><!--link Handler to cefapp::AppHandler--><path d="M186.9568,772.3961 C210.823,755.9347 240.4405,732.2213 260,705 C316.7304,626.0471 350.1071,517.0196 366.7158,449.1879 " fill="none" id="Handler-cefapp::AppHandler" style="stroke: #A80036; stroke-width: 1.0;"/><polygon fill="#A80036" points="369.8159,436.192,364.5329,441.1001,367.0315,447.8645,372.3145,442.9564,369.8159,436.192" style="stroke: #A80036; stroke-width: 1.0;"/><text fill="#000000" font-family="sans-serif" font-size="13" lengthAdjust="spacingAndGlyphs" textLength="8" x="359.8213" y="456.2955">1</text><!--link CefMessageRouterBrowserSide to cefapp::AppHandler--><path d="M270.6777,386.5 C277.973,386.5 285.2683,386.5 292.5635,386.5 " fill="none" id="CefMessageRouterBrowserSide-cefapp::AppHandler" style="stroke: #A80036; stroke-width: 1.0;"/><polygon fill="#A80036" points="305.695,386.5,299.695,382.5,293.695,386.5,299.695,390.5,305.695,386.5" style="stroke: #A80036; stroke-width: 1.0;"/><text fill="#000000" font-family="sans-serif" font-size="13" lengthAdjust="spacingAndGlyphs" textLength="8" x="289.9869" y="382.8244">1</text><!--link CefResourceHandler to cefapp::BackendResourceHandler--><path d="M251.6832,596.6807 C269.5803,587.9267 288.645,580.2557 307.5,575.5 C444.5414,540.9348 489.4112,537.3562 625.5,575.5 C659.9797,585.1642 694.3927,606.6301 719.3619,624.895 " fill="none" id="CefResourceHandler-cefapp::BackendResourceHandler" style="stroke: #A80036; stroke-width: 1.0;"/><polygon fill="none" points="254.8479,602.9248,233.8713,605.922,248.4003,590.4978,254.8479,602.9248" style="stroke: #A80036; stroke-width: 1.0;"/><!--link backend::ExecutionGraphBackend to backend::Backend--><path d="M1559,820.5083 C1559,874.9917 1559,1008.6754 1559,1078.6553 " fill="none" id="backend::ExecutionGraphBackend-backend::Backend" style="stroke: #A80036; stroke-width: 1.0;"/><polygon fill="none" points="1566.0001,1078.9565,1559,1098.9565,1552.0001,1078.9565,1566.0001,1078.9565" style="stroke: #A80036; stroke-width: 1.0;"/><!--link backend::DummyRequestHandler to backend::BackendRequestHandler--><path d="M1298,545.4488 C1298,590.2521 1298,686.3636 1298,745.8129 " fill="none" id="backend::DummyRequestHandler-backend::BackendRequestHandler" style="stroke: #A80036; stroke-width: 1.0;"/><polygon fill="none" points="1305.0001,745.8937,1298,765.8936,1291.0001,745.8936,1305.0001,745.8937" style="stroke: #A80036; stroke-width: 1.0;"/><!--link backend::BackendFactory to backend::ExecutionGraphBackend--><path d="M1329.1774,242.8982 C1404.0759,261.083 1508,301.6101 1508,386.5 C1508,386.5 1508,386.5 1508,655.5 C1508,696.3487 1527.1627,740.0982 1541.9956,767.8437 " fill="none" id="backend::BackendFactory-backend::ExecutionGraphBackend" style="stroke: #A80036; stroke-width: 1.0; stroke-dasharray: 7.0,7.0;"/><polygon fill="#A80036" points="1544.5219,772.4947,1543.741,762.6768,1542.1353,768.101,1536.7112,766.4953,1544.5219,772.4947" style="stroke: #A80036; stroke-width: 1.0;"/><text fill="#000000" font-family="sans-serif" font-size="13" lengthAdjust="spacingAndGlyphs" textLength="48" x="1509" y="525.5669">creates</text><!--link backend::BackendFactory to backend::DummyRequestHandler--><path d="M1258.6256,260.1447 C1267.1327,316.5042 1285.1559,435.9081 1293.5388,491.4443 " fill="none" id="backend::BackendFactory-backend::DummyRequestHandler" style="stroke: #A80036; stroke-width: 1.0; stroke-dasharray: 7.0,7.0;"/><polygon fill="#A80036" points="1294.3193,496.6151,1296.9312,487.1189,1293.573,491.6711,1289.0208,488.3129,1294.3193,496.6151" style="stroke: #A80036; stroke-width: 1.0;"/><text fill="#000000" font-family="sans-serif" font-size="13" lengthAdjust="spacingAndGlyphs" textLength="48" x="1285" y="391.0669">creates</text><!--link backend::DummyRequestHandler to backend::ExecutionGraphBackend--><path d="M1328.897,554.6598 C1368.1013,597.2278 1437.9698,672.6187 1499,736 C1510.5945,748.0412 1523.6436,761.2401 1534.6041,772.2285 " fill="none" id="backend::DummyRequestHandler-backend::ExecutionGraphBackend" style="stroke: #A80036; stroke-width: 1.0;"/><polygon fill="#A80036" points="1320.0797,545.0779,1321.1991,552.2016,1328.2053,553.9082,1327.0859,546.7845,1320.0797,545.0779" style="stroke: #A80036; stroke-width: 1.0;"/><text fill="#000000" font-family="sans-serif" font-size="13" lengthAdjust="spacingAndGlyphs" textLength="8" x="1316.7126" y="565.2536">1</text><!--link backend::BackendFactory to executionGraph::StaticFactory--><path d="M1218.2813,260.1439 C1184.797,288.8709 1135.1964,331.4244 1102.9821,359.0618 " fill="none" id="backend::BackendFactory-executionGraph::StaticFactory" style="stroke: #A80036; stroke-width: 1.0; stroke-dasharray: 7.0,7.0;"/><polygon fill="#A80036" points="1099.1419,362.3564,1108.5771,359.532,1102.9367,359.1007,1103.368,353.4603,1099.1419,362.3564" style="stroke: #A80036; stroke-width: 1.0;"/><text fill="#000000" font-family="sans-serif" font-size="13" lengthAdjust="spacingAndGlyphs" textLength="30" x="1179" y="303.0669">uses</text><!--
@startuml
set namespaceSeparator ::
skinparam shadowing false

class CefMessageRouterBrowserSide
class Handler as "CefMessageRouterBrowserSide::Handler"

class CefResourceHandler {
    + Cancel(...) {abstract} 
    + GetResponseHeaders(...) {abstract} 
    + ProcessRequest(...) {abstract} 
    + ReadResponse(...) {abstract}
}

namespace cefapp{
    class App{
        + OnContextInitialized()
        - m_appHandler
    }
    class AppHandler #D3D3D3{
        + OnAfterCreated()
        + OnBeforeCloses()
        - m_router
        - m_requestDispatcher
    }

    class BackendRequestDispatcher {
        + addHandler(...)
        + removeHandler(...)
        + addRequest(request, response)
        + start()
        + stop()
        - m_generalHandlers
        - m_specificHandlers
        - m_handlerMap
    }
    class BackendRequestDispatcherAdapterCef {
        - m_dispatcher
    }

    class ClientSchemeHandlerFactory {
        + Create(...)
    }
    class BackendSchemeHandlerFactory {
        + Create(...)
        - m_dispatcher
    }
    class BackendResourceHandler {
        - m_dispatcher
    }
}

cefapp::App ..> cefapp::AppHandler : creates
cefapp::App ..> cefapp::ClientSchemeHandlerFactory : registers
cefapp::App ..> cefapp::BackendSchemeHandlerFactory : registers
cefapp::App .right.> backend::BackendFactory : uses

cefapp::BackendSchemeHandlerFactory ..> cefapp::BackendResourceHandler : creates
cefapp::BackendResourceHandler "1" *- - cefapp::BackendRequestDispatcher : uses

cefapp::BackendRequestDispatcherAdapterCef "1" *- - cefapp::BackendRequestDispatcher
cefapp::BackendRequestDispatcherAdapterCef -down-|> Handler
cefapp::BackendSchemeHandlerFactory "1" *- - cefapp::BackendRequestDispatcher
cefapp::BackendRequestDispatcher "1..*" *-up- backend::BackendRequestHandler

cefapp::AppHandler "1" *-left- Handler
cefapp::AppHandler "1" *-left- CefMessageRouterBrowserSide
cefapp::BackendResourceHandler -left-|> CefResourceHandler

namespace backend {
    class Backend #D3D3D3
    class BackendRequestHandler #D3D3D3 {
        + handleRequest(request, responsePromise) {abstract} 
    }

    class BackendFactory {
        + BackendData Create() {static}
    }

    class DummyRequestHandler
}

namespace executionGraph {
    class StaticFactory<T...>
}

backend::ExecutionGraphBackend - -|> backend::Backend
backend::DummyRequestHandler - -|> backend::BackendRequestHandler

backend::BackendFactory ..> backend::ExecutionGraphBackend : creates
backend::BackendFactory ..> backend::DummyRequestHandler : creates

backend::DummyRequestHandler "1" *- - backend::ExecutionGraphBackend

backend::BackendFactory ..> executionGraph::StaticFactory : uses
@enduml

PlantUML version 1.2018.09(Fri Jul 27 18:58:18 CEST 2018)
(GPL source distribution)
Java Runtime: OpenJDK Runtime Environment
JVM: OpenJDK 64-Bit Server VM
Java Version: 11.0.1+13-Ubuntu-3ubuntu3.18.10.1
Operating System: Linux
OS Version: 4.18.0-12-generic
Default Encoding: UTF-8
Language: en
Country: US
--></g></svg>