<?xml version="1.0" encoding="UTF-8" standalone="no"?><svg xmlns="http://www.w3.org/2000/svg" xmlns:xlink="http://www.w3.org/1999/xlink" contentScriptType="application/ecmascript" contentStyleType="text/css" height="492px" preserveAspectRatio="none" style="width:1061px;height:492px;" version="1.1" viewBox="0 0 1061 492" width="1061px" zoomAndPan="magnify"><defs/><g><!--cluster common--><polygon fill="#FFFFFF" points="14,168,87,168,94,190.2969,1023,190.2969,1023,366,14,366,14,168" style="stroke: #000000; stroke-width: 1.5;"/><line style="stroke: #000000; stroke-width: 1.5;" x1="14" x2="94" y1="190.2969" y2="190.2969"/><text fill="#000000" font-family="sans-serif" font-size="14" font-weight="bold" lengthAdjust="spacingAndGlyphs" textLength="67" x="18" y="182.9951">common</text><!--cluster cefapp--><polygon fill="#FFFFFF" points="377,16,436,16,443,38.2969,910,38.2969,910,137,377,137,377,16" style="stroke: #000000; stroke-width: 1.5;"/><line style="stroke: #000000; stroke-width: 1.5;" x1="377" x2="443" y1="38.2969" y2="38.2969"/><text fill="#000000" font-family="sans-serif" font-size="14" font-weight="bold" lengthAdjust="spacingAndGlyphs" textLength="53" x="381" y="30.9951">cefapp</text><!--cluster std--><polygon fill="#FFFFFF" points="652,397,683,397,690,419.2969,1039,419.2969,1039,480,652,480,652,397" style="stroke: #000000; stroke-width: 1.5;"/><line style="stroke: #000000; stroke-width: 1.5;" x1="652" x2="690" y1="419.2969" y2="419.2969"/><text fill="#000000" font-family="sans-serif" font-size="14" font-weight="bold" lengthAdjust="spacingAndGlyphs" textLength="25" x="656" y="411.9951">std</text><!--class common::BinaryBuffer--><rect fill="#FEFECE" height="86.4141" id="common::BinaryBuffer" style="stroke: #A80036; stroke-width: 1.5;" width="174" x="327" y="233.5"/><ellipse cx="342" cy="249.5" fill="#ADD1B2" rx="11" ry="11" style="stroke: #A80036; stroke-width: 1.0;"/><path d="M345.3438,254.9219 Q344.4844,255.3906 343.7656,255.5625 Q343.0625,255.7344 342.2656,255.7344 Q339.7031,255.7344 338.2969,253.9531 Q336.9063,252.1563 336.9063,248.9688 Q336.9063,245.8125 338.3125,244 Q339.7188,242.1875 342.2656,242.1875 Q343.0625,242.1875 343.7656,242.375 Q344.4844,242.5469 345.3438,243.0156 L345.3438,245.6719 Q344.2188,244.7344 343.5625,244.5 Q342.9063,244.25 342.2656,244.25 Q340.8125,244.25 340.0781,245.3906 Q339.3438,246.5156 339.3438,248.9688 Q339.3438,251.4219 340.0781,252.5625 Q340.8125,253.6875 342.2656,253.6875 Q342.9219,253.6875 343.5625,253.4531 Q344.2188,253.2031 345.3438,252.2656 L345.3438,254.9219 Z "/><text fill="#000000" font-family="sans-serif" font-size="12" lengthAdjust="spacingAndGlyphs" textLength="75" x="356" y="253.6543">BinaryBuffer</text><rect fill="#FFFFFF" height="15.9688" style="stroke: #000000; stroke-width: 1.0; stroke-dasharray: 2.0,2.0;" width="65" x="439" y="230.5"/><text fill="#000000" font-family="sans-serif" font-size="12" font-style="italic" lengthAdjust="spacingAndGlyphs" textLength="63" x="440" y="242.6387">BufferPool</text><line style="stroke: #A80036; stroke-width: 1.5;" x1="328" x2="500" y1="265.5" y2="265.5"/><rect fill="none" height="6" style="stroke: #C82930; stroke-width: 1.0;" width="6" x="335" y="274.4023"/><text fill="#000000" font-family="sans-serif" font-size="11" lengthAdjust="spacingAndGlyphs" textLength="66" x="347" y="279.7104">m_allocator</text><rect fill="none" height="6" style="stroke: #C82930; stroke-width: 1.0;" width="6" x="335" y="287.207"/><text fill="#000000" font-family="sans-serif" font-size="11" lengthAdjust="spacingAndGlyphs" textLength="42" x="347" y="292.5151">m_data</text><rect fill="none" height="6" style="stroke: #C82930; stroke-width: 1.0;" width="6" x="335" y="300.0117"/><text fill="#000000" font-family="sans-serif" font-size="11" lengthAdjust="spacingAndGlyphs" textLength="56" x="347" y="305.3198">m_nBytes</text><line style="stroke: #A80036; stroke-width: 1.5;" x1="328" x2="500" y1="311.9141" y2="311.9141"/><!--class common::BinaryPayload--><rect fill="#FEFECE" height="73.6094" id="common::BinaryPayload" style="stroke: #A80036; stroke-width: 1.5;" width="119" x="172.5" y="239.5"/><ellipse cx="187.5" cy="255.5" fill="#ADD1B2" rx="11" ry="11" style="stroke: #A80036; stroke-width: 1.0;"/><path d="M190.8438,260.9219 Q189.9844,261.3906 189.2656,261.5625 Q188.5625,261.7344 187.7656,261.7344 Q185.2031,261.7344 183.7969,259.9531 Q182.4063,258.1563 182.4063,254.9688 Q182.4063,251.8125 183.8125,250 Q185.2188,248.1875 187.7656,248.1875 Q188.5625,248.1875 189.2656,248.375 Q189.9844,248.5469 190.8438,249.0156 L190.8438,251.6719 Q189.7188,250.7344 189.0625,250.5 Q188.4063,250.25 187.7656,250.25 Q186.3125,250.25 185.5781,251.3906 Q184.8438,252.5156 184.8438,254.9688 Q184.8438,257.4219 185.5781,258.5625 Q186.3125,259.6875 187.7656,259.6875 Q188.4219,259.6875 189.0625,259.4531 Q189.7188,259.2031 190.8438,258.2656 L190.8438,260.9219 Z "/><text fill="#000000" font-family="sans-serif" font-size="12" lengthAdjust="spacingAndGlyphs" textLength="87" x="201.5" y="259.6543">BinaryPayload</text><line style="stroke: #A80036; stroke-width: 1.5;" x1="173.5" x2="290.5" y1="271.5" y2="271.5"/><rect fill="none" height="6" style="stroke: #C82930; stroke-width: 1.0;" width="6" x="180.5" y="280.4023"/><text fill="#000000" font-family="sans-serif" font-size="11" lengthAdjust="spacingAndGlyphs" textLength="51" x="192.5" y="285.7104">m_buffer</text><rect fill="none" height="6" style="stroke: #C82930; stroke-width: 1.0;" width="6" x="180.5" y="293.207"/><text fill="#000000" font-family="sans-serif" font-size="11" lengthAdjust="spacingAndGlyphs" textLength="59" x="192.5" y="298.5151">mimeType</text><line style="stroke: #A80036; stroke-width: 1.5;" x1="173.5" x2="290.5" y1="305.1094" y2="305.1094"/><!--class common::BufferPool--><rect fill="#FEFECE" height="48" id="common::BufferPool" style="stroke: #A80036; stroke-width: 1.5;" width="96" x="536" y="252.5"/><ellipse cx="551" cy="268.5" fill="#ADD1B2" rx="11" ry="11" style="stroke: #A80036; stroke-width: 1.0;"/><path d="M554.3438,273.9219 Q553.4844,274.3906 552.7656,274.5625 Q552.0625,274.7344 551.2656,274.7344 Q548.7031,274.7344 547.2969,272.9531 Q545.9063,271.1563 545.9063,267.9688 Q545.9063,264.8125 547.3125,263 Q548.7188,261.1875 551.2656,261.1875 Q552.0625,261.1875 552.7656,261.375 Q553.4844,261.5469 554.3438,262.0156 L554.3438,264.6719 Q553.2188,263.7344 552.5625,263.5 Q551.9063,263.25 551.2656,263.25 Q549.8125,263.25 549.0781,264.3906 Q548.3438,265.5156 548.3438,267.9688 Q548.3438,270.4219 549.0781,271.5625 Q549.8125,272.6875 551.2656,272.6875 Q551.9219,272.6875 552.5625,272.4531 Q553.2188,272.2031 554.3438,271.2656 L554.3438,273.9219 Z "/><text fill="#000000" font-family="sans-serif" font-size="12" lengthAdjust="spacingAndGlyphs" textLength="64" x="565" y="272.6543">BufferPool</text><line style="stroke: #A80036; stroke-width: 1.5;" x1="537" x2="631" y1="284.5" y2="284.5"/><line style="stroke: #A80036; stroke-width: 1.5;" x1="537" x2="631" y1="292.5" y2="292.5"/><!--class common::Request--><rect fill="#33CC33" height="99.2188" id="common::Request" style="stroke: #A80036; stroke-width: 1.5;" width="84" x="22" y="227"/><rect fill="#33CC33" height="32" style="stroke: #A80036; stroke-width: 1.5;" width="84" x="22" y="227"/><ellipse cx="37" cy="243" fill="#ADD1B2" rx="11" ry="11" style="stroke: #A80036; stroke-width: 1.0;"/><path d="M40.3438,248.4219 Q39.4844,248.8906 38.7656,249.0625 Q38.0625,249.2344 37.2656,249.2344 Q34.7031,249.2344 33.2969,247.4531 Q31.9063,245.6563 31.9063,242.4688 Q31.9063,239.3125 33.3125,237.5 Q34.7188,235.6875 37.2656,235.6875 Q38.0625,235.6875 38.7656,235.875 Q39.4844,236.0469 40.3438,236.5156 L40.3438,239.1719 Q39.2188,238.2344 38.5625,238 Q37.9063,237.75 37.2656,237.75 Q35.8125,237.75 35.0781,238.8906 Q34.3438,240.0156 34.3438,242.4688 Q34.3438,244.9219 35.0781,246.0625 Q35.8125,247.1875 37.2656,247.1875 Q37.9219,247.1875 38.5625,246.9531 Q39.2188,246.7031 40.3438,245.7656 L40.3438,248.4219 Z "/><text fill="#000000" font-family="sans-serif" font-size="12" lengthAdjust="spacingAndGlyphs" textLength="52" x="51" y="247.1543">Request</text><line style="stroke: #A80036; stroke-width: 1.5;" x1="23" x2="105" y1="259" y2="259"/><rect fill="none" height="6" style="stroke: #C82930; stroke-width: 1.0;" width="6" x="30" y="267.9023"/><text fill="#000000" font-family="sans-serif" font-size="11" lengthAdjust="spacingAndGlyphs" textLength="27" x="42" y="273.2104">m_id</text><rect fill="none" height="6" style="stroke: #C82930; stroke-width: 1.0;" width="6" x="30" y="280.707"/><text fill="#000000" font-family="sans-serif" font-size="11" lengthAdjust="spacingAndGlyphs" textLength="51" x="42" y="286.0151">m_target</text><line style="stroke: #A80036; stroke-width: 1.5;" x1="23" x2="105" y1="292.6094" y2="292.6094"/><ellipse cx="33" cy="304.5117" fill="#84BE84" rx="3" ry="3" style="stroke: #038048; stroke-width: 1.0;"/><text fill="#000000" font-family="sans-serif" font-size="11" lengthAdjust="spacingAndGlyphs" textLength="47" x="42" y="306.8198">getURL()</text><ellipse cx="33" cy="317.3164" fill="#84BE84" rx="3" ry="3" style="stroke: #038048; stroke-width: 1.0;"/><text fill="#000000" font-family="sans-serif" font-size="11" font-style="italic" lengthAdjust="spacingAndGlyphs" textLength="53" x="42" y="319.6245">payload()</text><!--class common::ResponsePromise--><rect fill="#FF6600" height="163.2422" id="common::ResponsePromise" style="stroke: #A80036; stroke-width: 1.5;" width="177" x="667.5" y="195"/><rect fill="#FF6600" height="32" style="stroke: #A80036; stroke-width: 1.5;" width="177" x="667.5" y="195"/><ellipse cx="697.35" cy="211" fill="#ADD1B2" rx="11" ry="11" style="stroke: #A80036; stroke-width: 1.0;"/><path d="M700.6938,216.4219 Q699.8344,216.8906 699.1156,217.0625 Q698.4125,217.2344 697.6156,217.2344 Q695.0531,217.2344 693.6469,215.4531 Q692.2563,213.6563 692.2563,210.4688 Q692.2563,207.3125 693.6625,205.5 Q695.0688,203.6875 697.6156,203.6875 Q698.4125,203.6875 699.1156,203.875 Q699.8344,204.0469 700.6938,204.5156 L700.6938,207.1719 Q699.5688,206.2344 698.9125,206 Q698.2563,205.75 697.6156,205.75 Q696.1625,205.75 695.4281,206.8906 Q694.6938,208.0156 694.6938,210.4688 Q694.6938,212.9219 695.4281,214.0625 Q696.1625,215.1875 697.6156,215.1875 Q698.2719,215.1875 698.9125,214.9531 Q699.5688,214.7031 700.6938,213.7656 L700.6938,216.4219 Z "/><text fill="#000000" font-family="sans-serif" font-size="12" lengthAdjust="spacingAndGlyphs" textLength="112" x="714.65" y="215.1543">ResponsePromise</text><line style="stroke: #A80036; stroke-width: 1.5;" x1="668.5" x2="843.5" y1="227" y2="227"/><rect fill="none" height="6" style="stroke: #C82930; stroke-width: 1.0;" width="6" x="675.5" y="235.9023"/><text fill="#000000" font-family="sans-serif" font-size="11" lengthAdjust="spacingAndGlyphs" textLength="108" x="687.5" y="241.2104">m_promisePayload</text><rect fill="none" height="6" style="stroke: #C82930; stroke-width: 1.0;" width="6" x="675.5" y="248.707"/><text fill="#000000" font-family="sans-serif" font-size="11" lengthAdjust="spacingAndGlyphs" textLength="71" x="687.5" y="254.0151">m_requestId</text><rect fill="none" height="6" style="stroke: #C82930; stroke-width: 1.0;" width="6" x="675.5" y="261.5117"/><text fill="#000000" font-family="sans-serif" font-size="11" lengthAdjust="spacingAndGlyphs" textLength="46" x="687.5" y="266.8198">m_state</text><rect fill="none" height="6" style="stroke: #C82930; stroke-width: 1.0;" width="6" x="675.5" y="274.3164"/><text fill="#000000" font-family="sans-serif" font-size="11" lengthAdjust="spacingAndGlyphs" textLength="143" x="687.5" y="279.6245">m_bCancelOnDestruction</text><line style="stroke: #A80036; stroke-width: 1.5;" x1="668.5" x2="843.5" y1="286.2188" y2="286.2188"/><ellipse cx="678.5" cy="298.1211" fill="#84BE84" rx="3" ry="3" style="stroke: #038048; stroke-width: 1.0;"/><text fill="#000000" font-family="sans-serif" font-size="11" lengthAdjust="spacingAndGlyphs" textLength="91" x="687.5" y="300.4292">setCancel(what)</text><ellipse cx="678.5" cy="310.9258" fill="#84BE84" rx="3" ry="3" style="stroke: #038048; stroke-width: 1.0;"/><text fill="#000000" font-family="sans-serif" font-size="11" lengthAdjust="spacingAndGlyphs" textLength="104" x="687.5" y="313.2339">setReady(payload)</text><polygon fill="#FFFF44" points="678.5,318.7305,682.5,322.7305,678.5,326.7305,674.5,322.7305" style="stroke: #B38D22; stroke-width: 1.0;"/><text fill="#000000" font-family="sans-serif" font-size="11" font-style="italic" lengthAdjust="spacingAndGlyphs" textLength="85" x="687.5" y="326.0386">setReadyImpl()</text><polygon fill="#FFFF44" points="678.5,331.5352,682.5,335.5352,678.5,339.5352,674.5,335.5352" style="stroke: #B38D22; stroke-width: 1.0;"/><text fill="#000000" font-family="sans-serif" font-size="11" font-style="italic" lengthAdjust="spacingAndGlyphs" textLength="99" x="687.5" y="338.8433">setCancleImpl(...)</text><polygon fill="#FFFF44" points="678.5,344.3398,682.5,348.3398,678.5,352.3398,674.5,348.3398" style="stroke: #B38D22; stroke-width: 1.0;"/><text fill="#000000" font-family="sans-serif" font-size="11" lengthAdjust="spacingAndGlyphs" textLength="151" x="687.5" y="351.6479">setResolveOnDestruction()</text><!--class common::ResponseFuture--><rect fill="#00CCFF" height="73.6094" id="common::ResponseFuture" style="stroke: #A80036; stroke-width: 1.5;" width="135" x="879.5" y="239.5"/><rect fill="#00CCFF" height="32" style="stroke: #A80036; stroke-width: 1.5;" width="135" x="879.5" y="239.5"/><ellipse cx="894.5" cy="255.5" fill="#ADD1B2" rx="11" ry="11" style="stroke: #A80036; stroke-width: 1.0;"/><path d="M897.8438,260.9219 Q896.9844,261.3906 896.2656,261.5625 Q895.5625,261.7344 894.7656,261.7344 Q892.2031,261.7344 890.7969,259.9531 Q889.4063,258.1563 889.4063,254.9688 Q889.4063,251.8125 890.8125,250 Q892.2188,248.1875 894.7656,248.1875 Q895.5625,248.1875 896.2656,248.375 Q896.9844,248.5469 897.8438,249.0156 L897.8438,251.6719 Q896.7188,250.7344 896.0625,250.5 Q895.4063,250.25 894.7656,250.25 Q893.3125,250.25 892.5781,251.3906 Q891.8438,252.5156 891.8438,254.9688 Q891.8438,257.4219 892.5781,258.5625 Q893.3125,259.6875 894.7656,259.6875 Q895.4219,259.6875 896.0625,259.4531 Q896.7188,259.2031 897.8438,258.2656 L897.8438,260.9219 Z "/><text fill="#000000" font-family="sans-serif" font-size="12" lengthAdjust="spacingAndGlyphs" textLength="103" x="908.5" y="259.6543">ResponseFuture</text><line style="stroke: #A80036; stroke-width: 1.5;" x1="880.5" x2="1013.5" y1="271.5" y2="271.5"/><rect fill="none" height="6" style="stroke: #C82930; stroke-width: 1.0;" width="6" x="887.5" y="280.4023"/><text fill="#000000" font-family="sans-serif" font-size="11" lengthAdjust="spacingAndGlyphs" textLength="71" x="899.5" y="285.7104">m_requestId</text><line style="stroke: #A80036; stroke-width: 1.5;" x1="880.5" x2="1013.5" y1="292.3047" y2="292.3047"/><ellipse cx="890.5" cy="304.207" fill="#84BE84" rx="3" ry="3" style="stroke: #038048; stroke-width: 1.0;"/><text fill="#000000" font-family="sans-serif" font-size="11" lengthAdjust="spacingAndGlyphs" textLength="62" x="899.5" y="306.5151">getFuture()</text><!--class cefapp::RequestCef--><rect fill="#33CC33" height="48" id="cefapp::RequestCef" style="stroke: #A80036; stroke-width: 1.5;" width="104" x="385" y="62"/><rect fill="#33CC33" height="32" style="stroke: #A80036; stroke-width: 1.5;" width="104" x="385" y="62"/><ellipse cx="400" cy="78" fill="#ADD1B2" rx="11" ry="11" style="stroke: #A80036; stroke-width: 1.0;"/><path d="M403.3438,83.4219 Q402.4844,83.8906 401.7656,84.0625 Q401.0625,84.2344 400.2656,84.2344 Q397.7031,84.2344 396.2969,82.4531 Q394.9063,80.6563 394.9063,77.4688 Q394.9063,74.3125 396.3125,72.5 Q397.7188,70.6875 400.2656,70.6875 Q401.0625,70.6875 401.7656,70.875 Q402.4844,71.0469 403.3438,71.5156 L403.3438,74.1719 Q402.2188,73.2344 401.5625,73 Q400.9063,72.75 400.2656,72.75 Q398.8125,72.75 398.0781,73.8906 Q397.3438,75.0156 397.3438,77.4688 Q397.3438,79.9219 398.0781,81.0625 Q398.8125,82.1875 400.2656,82.1875 Q400.9219,82.1875 401.5625,81.9531 Q402.2188,81.7031 403.3438,80.7656 L403.3438,83.4219 Z "/><text fill="#000000" font-family="sans-serif" font-size="12" lengthAdjust="spacingAndGlyphs" textLength="72" x="414" y="82.1543">RequestCef</text><line style="stroke: #A80036; stroke-width: 1.5;" x1="386" x2="488" y1="94" y2="94"/><line style="stroke: #A80036; stroke-width: 1.5;" x1="386" x2="488" y1="102" y2="102"/><!--class cefapp::ResponsePromiseCef--><rect fill="#FF6600" height="86.4141" id="cefapp::ResponsePromiseCef" style="stroke: #A80036; stroke-width: 1.5;" width="187" x="524.5" y="43"/><rect fill="#FF6600" height="32" style="stroke: #A80036; stroke-width: 1.5;" width="187" x="524.5" y="43"/><ellipse cx="549.85" cy="59" fill="#ADD1B2" rx="11" ry="11" style="stroke: #A80036; stroke-width: 1.0;"/><path d="M553.1938,64.4219 Q552.3344,64.8906 551.6156,65.0625 Q550.9125,65.2344 550.1156,65.2344 Q547.5531,65.2344 546.1469,63.4531 Q544.7563,61.6563 544.7563,58.4688 Q544.7563,55.3125 546.1625,53.5 Q547.5688,51.6875 550.1156,51.6875 Q550.9125,51.6875 551.6156,51.875 Q552.3344,52.0469 553.1938,52.5156 L553.1938,55.1719 Q552.0688,54.2344 551.4125,54 Q550.7563,53.75 550.1156,53.75 Q548.6625,53.75 547.9281,54.8906 Q547.1938,56.0156 547.1938,58.4688 Q547.1938,60.9219 547.9281,62.0625 Q548.6625,63.1875 550.1156,63.1875 Q550.7719,63.1875 551.4125,62.9531 Q552.0688,62.7031 553.1938,61.7656 L553.1938,64.4219 Z "/><text fill="#000000" font-family="sans-serif" font-size="12" lengthAdjust="spacingAndGlyphs" textLength="132" x="566.15" y="63.1543">ResponsePromiseCef</text><line style="stroke: #A80036; stroke-width: 1.5;" x1="525.5" x2="710.5" y1="75" y2="75"/><rect fill="none" height="6" style="stroke: #C82930; stroke-width: 1.0;" width="6" x="532.5" y="83.9023"/><text fill="#000000" font-family="sans-serif" font-size="11" lengthAdjust="spacingAndGlyphs" textLength="161" x="544.5" y="89.2104">m_cbResponseHeaderReady</text><line style="stroke: #A80036; stroke-width: 1.5;" x1="525.5" x2="710.5" y1="95.8047" y2="95.8047"/><polygon fill="#FFFF44" points="535.5,102.707,539.5,106.707,535.5,110.707,531.5,106.707" style="stroke: #B38D22; stroke-width: 1.0;"/><text fill="#000000" font-family="sans-serif" font-size="11" lengthAdjust="spacingAndGlyphs" textLength="84" x="544.5" y="110.0151">setReadyImpl()</text><polygon fill="#FFFF44" points="535.5,115.5117,539.5,119.5117,535.5,123.5117,531.5,119.5117" style="stroke: #B38D22; stroke-width: 1.0;"/><text fill="#000000" font-family="sans-serif" font-size="11" lengthAdjust="spacingAndGlyphs" textLength="100" x="544.5" y="122.8198">setCancleImpl(...)</text><!--class cefapp::ResponseFutureCef--><rect fill="#00CCFF" height="48" id="cefapp::ResponseFutureCef" style="stroke: #A80036; stroke-width: 1.5;" width="155" x="746.5" y="62"/><rect fill="#00CCFF" height="32" style="stroke: #A80036; stroke-width: 1.5;" width="155" x="746.5" y="62"/><ellipse cx="761.5" cy="78" fill="#ADD1B2" rx="11" ry="11" style="stroke: #A80036; stroke-width: 1.0;"/><path d="M764.8438,83.4219 Q763.9844,83.8906 763.2656,84.0625 Q762.5625,84.2344 761.7656,84.2344 Q759.2031,84.2344 757.7969,82.4531 Q756.4063,80.6563 756.4063,77.4688 Q756.4063,74.3125 757.8125,72.5 Q759.2188,70.6875 761.7656,70.6875 Q762.5625,70.6875 763.2656,70.875 Q763.9844,71.0469 764.8438,71.5156 L764.8438,74.1719 Q763.7188,73.2344 763.0625,73 Q762.4063,72.75 761.7656,72.75 Q760.3125,72.75 759.5781,73.8906 Q758.8438,75.0156 758.8438,77.4688 Q758.8438,79.9219 759.5781,81.0625 Q760.3125,82.1875 761.7656,82.1875 Q762.4219,82.1875 763.0625,81.9531 Q763.7188,81.7031 764.8438,80.7656 L764.8438,83.4219 Z "/><text fill="#000000" font-family="sans-serif" font-size="12" lengthAdjust="spacingAndGlyphs" textLength="123" x="775.5" y="82.1543">ResponseFutureCef</text><line style="stroke: #A80036; stroke-width: 1.5;" x1="747.5" x2="900.5" y1="94" y2="94"/><line style="stroke: #A80036; stroke-width: 1.5;" x1="747.5" x2="900.5" y1="102" y2="102"/><!--class std::promise--><rect fill="#FEFECE" height="48" id="std::promise" style="stroke: #A80036; stroke-width: 1.5;" width="174" x="660" y="424"/><ellipse cx="675" cy="440" fill="#ADD1B2" rx="11" ry="11" style="stroke: #A80036; stroke-width: 1.0;"/><path d="M678.3438,445.4219 Q677.4844,445.8906 676.7656,446.0625 Q676.0625,446.2344 675.2656,446.2344 Q672.7031,446.2344 671.2969,444.4531 Q669.9063,442.6563 669.9063,439.4688 Q669.9063,436.3125 671.3125,434.5 Q672.7188,432.6875 675.2656,432.6875 Q676.0625,432.6875 676.7656,432.875 Q677.4844,433.0469 678.3438,433.5156 L678.3438,436.1719 Q677.2188,435.2344 676.5625,435 Q675.9063,434.75 675.2656,434.75 Q673.8125,434.75 673.0781,435.8906 Q672.3438,437.0156 672.3438,439.4688 Q672.3438,441.9219 673.0781,443.0625 Q673.8125,444.1875 675.2656,444.1875 Q675.9219,444.1875 676.5625,443.9531 Q677.2188,443.7031 678.3438,442.7656 L678.3438,445.4219 Z "/><text fill="#000000" font-family="sans-serif" font-size="12" lengthAdjust="spacingAndGlyphs" textLength="50" x="689" y="444.1543">promise</text><rect fill="#FFFFFF" height="15.9688" style="stroke: #000000; stroke-width: 1.0; stroke-dasharray: 2.0,2.0;" width="90" x="747" y="421"/><text fill="#000000" font-family="sans-serif" font-size="12" font-style="italic" lengthAdjust="spacingAndGlyphs" textLength="88" x="748" y="433.1387">BinaryPayload</text><line style="stroke: #A80036; stroke-width: 1.5;" x1="661" x2="833" y1="456" y2="456"/><line style="stroke: #A80036; stroke-width: 1.5;" x1="661" x2="833" y1="464" y2="464"/><!--class std::future--><rect fill="#FEFECE" height="48" id="std::future" style="stroke: #A80036; stroke-width: 1.5;" width="162" x="869" y="424"/><ellipse cx="884" cy="440" fill="#ADD1B2" rx="11" ry="11" style="stroke: #A80036; stroke-width: 1.0;"/><path d="M887.3438,445.4219 Q886.4844,445.8906 885.7656,446.0625 Q885.0625,446.2344 884.2656,446.2344 Q881.7031,446.2344 880.2969,444.4531 Q878.9063,442.6563 878.9063,439.4688 Q878.9063,436.3125 880.3125,434.5 Q881.7188,432.6875 884.2656,432.6875 Q885.0625,432.6875 885.7656,432.875 Q886.4844,433.0469 887.3438,433.5156 L887.3438,436.1719 Q886.2188,435.2344 885.5625,435 Q884.9063,434.75 884.2656,434.75 Q882.8125,434.75 882.0781,435.8906 Q881.3438,437.0156 881.3438,439.4688 Q881.3438,441.9219 882.0781,443.0625 Q882.8125,444.1875 884.2656,444.1875 Q884.9219,444.1875 885.5625,443.9531 Q886.2188,443.7031 887.3438,442.7656 L887.3438,445.4219 Z "/><text fill="#000000" font-family="sans-serif" font-size="12" lengthAdjust="spacingAndGlyphs" textLength="38" x="898" y="444.1543">future</text><rect fill="#FFFFFF" height="15.9688" style="stroke: #000000; stroke-width: 1.0; stroke-dasharray: 2.0,2.0;" width="90" x="944" y="421"/><text fill="#000000" font-family="sans-serif" font-size="12" font-style="italic" lengthAdjust="spacingAndGlyphs" textLength="88" x="945" y="433.1387">BinaryPayload</text><line style="stroke: #A80036; stroke-width: 1.5;" x1="870" x2="1030" y1="456" y2="456"/><line style="stroke: #A80036; stroke-width: 1.5;" x1="870" x2="1030" y1="464" y2="464"/><!--link cefapp::RequestCef to common::Request--><path d="M384.8422,91.8968 C325.183,100.6381 226.5319,121.3454 155,168 C137.5481,179.3825 121.6779,195.1198 108.2549,211.0811 " fill="none" id="cefapp::RequestCef-common::Request" style="stroke: #A80036; stroke-width: 1.0;"/><polygon fill="none" points="113.5826,215.629,95.6796,226.9641,102.6064,206.9386,113.5826,215.629" style="stroke: #A80036; stroke-width: 1.0;"/><!--link cefapp::ResponsePromiseCef to common::ResponsePromise--><path d="M649.3143,129.2274 C660.036,144.0279 672.5088,161.2458 685.067,178.5816 " fill="none" id="cefapp::ResponsePromiseCef-common::ResponsePromise" style="stroke: #A80036; stroke-width: 1.0;"/><polygon fill="none" points="690.7623,174.5115,696.8265,194.8149,679.4245,182.7247,690.7623,174.5115" style="stroke: #A80036; stroke-width: 1.0;"/><!--link common::ResponsePromise to std::promise--><path d="M751.0179,371.4375 C749.9946,390.9369 749.0049,409.7951 748.2639,423.9165 " fill="none" id="common::ResponsePromise-std::promise" style="stroke: #A80036; stroke-width: 1.0;"/><polygon fill="#A80036" points="751.7109,358.2318,747.4019,364.0139,751.0819,370.2153,755.3909,364.4332,751.7109,358.2318" style="stroke: #A80036; stroke-width: 1.0;"/><text fill="#000000" font-family="sans-serif" font-size="13" lengthAdjust="spacingAndGlyphs" textLength="8" x="742.9727" y="378.241">1</text><!--link cefapp::ResponseFutureCef to common::ResponseFuture--><path d="M839.578,110.127 C857.6739,138.1534 888.0934,185.2667 911.9517,222.2178 " fill="none" id="cefapp::ResponseFutureCef-common::ResponseFuture" style="stroke: #A80036; stroke-width: 1.0;"/><polygon fill="none" points="917.9181,218.5536,922.886,239.1527,906.1567,226.1476,917.9181,218.5536" style="stroke: #A80036; stroke-width: 1.0;"/><!--link common::ResponseFuture to std::future--><path d="M947.8809,326.8567 C948.4399,358.817 949.1382,398.7332 949.5768,423.8047 " fill="none" id="common::ResponseFuture-std::future" style="stroke: #A80036; stroke-width: 1.0;"/><polygon fill="#A80036" points="947.651,313.7129,943.7566,319.782,947.8611,325.7111,951.7554,319.642,947.651,313.7129" style="stroke: #A80036; stroke-width: 1.0;"/><text fill="#000000" font-family="sans-serif" font-size="13" lengthAdjust="spacingAndGlyphs" textLength="8" x="939.0963" y="333.2287">1</text><!--link common::Request to common::BinaryPayload--><path d="M106.3935,276.5 C124.8532,276.5 146.8994,276.5 167.3319,276.5 " fill="none" id="common::Request-common::BinaryPayload" style="stroke: #A80036; stroke-width: 1.0; stroke-dasharray: 7.0,7.0;"/><polygon fill="#A80036" points="172.4887,276.5,163.4887,272.5,167.4887,276.5,163.4887,280.5,172.4887,276.5" style="stroke: #A80036; stroke-width: 1.0;"/><text fill="#000000" font-family="sans-serif" font-size="13" lengthAdjust="spacingAndGlyphs" textLength="30" x="124.25" y="269.5669">uses</text><!--link cefapp::RequestCef to common::BinaryPayload--><path d="M379.4691,116.8594 C356.4531,130.7466 330.5785,148.425 310,168 C287.8962,189.026 267.9196,217.0798 253.7171,239.3934 " fill="none" id="cefapp::RequestCef-common::BinaryPayload" style="stroke: #A80036; stroke-width: 1.0;"/><polygon fill="#A80036" points="390.8506,110.1544,383.6507,109.7535,380.5114,116.2454,387.7113,116.6463,390.8506,110.1544" style="stroke: #A80036; stroke-width: 1.0;"/><text fill="#000000" font-family="sans-serif" font-size="13" lengthAdjust="spacingAndGlyphs" textLength="8" x="370.6267" y="129.9532">1</text><!--link common::BinaryPayload to common::BinaryBuffer--><path d="M304.7947,276.5 C312.0592,276.5 319.3236,276.5 326.588,276.5 " fill="none" id="common::BinaryPayload-common::BinaryBuffer" style="stroke: #A80036; stroke-width: 1.0;"/><polygon fill="#A80036" points="291.7188,276.5,297.7188,280.5,303.7188,276.5,297.7188,272.5,291.7188,276.5" style="stroke: #A80036; stroke-width: 1.0;"/><text fill="#000000" font-family="sans-serif" font-size="13" lengthAdjust="spacingAndGlyphs" textLength="8" x="299.4845" y="272.6847">1</text><!--link common::BinaryBuffer to common::BufferPool--><path d="M514.5526,276.5 C521.6618,276.5 528.771,276.5 535.8801,276.5 " fill="none" id="common::BinaryBuffer-common::BufferPool" style="stroke: #A80036; stroke-width: 1.0;"/><polygon fill="#A80036" points="501.3242,276.5,507.3242,280.5,513.3242,276.5,507.3242,272.5,501.3242,276.5" style="stroke: #A80036; stroke-width: 1.0;"/><text fill="#000000" font-family="sans-serif" font-size="13" lengthAdjust="spacingAndGlyphs" textLength="8" x="508.887" y="272.9342">1</text><!--
@startuml
set namespaceSeparator ::
skinparam shadowing false

namespace common {
    class BinaryBuffer<BufferPool> {
        - m_allocator
        - m_data
        - m_nBytes
    }
    class BinaryPayload {
        - m_buffer
        - mimeType
    }

    class BufferPool
    class Request #33cc33 {
        + getURL()
        + payload() {abstract}
        - m_id
        - m_target
    }
    class ResponsePromise #ff6600 {
        + setCancel(what)
        + setReady(payload)
        # setReadyImpl() {abstract}
        # setCancleImpl(...) {abstract}
        # setResolveOnDestruction()
        - m_promisePayload
        - m_requestId
        - m_state
        - m_bCancelOnDestruction
    }
    class ResponseFuture #00ccff {
        + getFuture()
        - m_requestId
    }
}

namespace cefapp {
    class RequestCef #33cc33
    class ResponsePromiseCef #ff6600 {
        # setReadyImpl()
        # setCancleImpl(...)
        - m_cbResponseHeaderReady
    }
    class ResponseFutureCef #00ccff
}

namespace std {
    class promise<BinaryPayload>
    class future<BinaryPayload>
}

cefapp::RequestCef - -|> common::Request
cefapp::ResponsePromiseCef - -|> common::ResponsePromise
common::ResponsePromise "1" *- - std::promise
cefapp::ResponseFutureCef - -|> common::ResponseFuture
common::ResponseFuture "1" *- - std::future

common::Request .right.> common::BinaryPayload : uses
cefapp::RequestCef "1" *- -  common::BinaryPayload
common::BinaryPayload "1" *-right- common::BinaryBuffer
common::BinaryBuffer "1" *-right- common::BufferPool
@enduml

PlantUML version 1.2018.09(Fri Jul 27 18:58:18 CEST 2018)
(GPL source distribution)
Java Runtime: OpenJDK Runtime Environment
JVM: OpenJDK 64-Bit Server VM
Java Version: 11.0.1+13-Ubuntu-3ubuntu3.18.10.1
Operating System: Linux
OS Version: 4.18.0-12-generic
Default Encoding: UTF-8
Language: en
Country: US
--></g></svg>