<?xml version="1.0" encoding="UTF-8" standalone="no"?><svg xmlns="http://www.w3.org/2000/svg" xmlns:xlink="http://www.w3.org/1999/xlink" contentScriptType="application/ecmascript" contentStyleType="text/css" height="1324px" preserveAspectRatio="none" style="width:1772px;height:1324px;" version="1.1" viewBox="0 0 1772 1324" width="1772px" zoomAndPan="magnify"><defs/><g><!--cluster cefapp--><polygon fill="#FFFFFF" points="14,16,67,16,74,38.4883,649,38.4883,649,1019,14,1019,14,16" style="stroke: #000000; stroke-width: 1.5;"/><line style="stroke: #000000; stroke-width: 1.5;" x1="14" x2="74" y1="38.4883" y2="38.4883"/><text fill="#000000" font-family="sans-serif" font-size="14" font-weight="bold" lengthAdjust="spacingAndGlyphs" textLength="47" x="18" y="31.5352">cefapp</text><!--cluster backend--><polygon fill="#FFFFFF" points="1121,411,1186,411,1193,433.4883,1598,433.4883,1598,1312,1121,1312,1121,411" style="stroke: #000000; stroke-width: 1.5;"/><line style="stroke: #000000; stroke-width: 1.5;" x1="1121" x2="1193" y1="433.4883" y2="433.4883"/><text fill="#000000" font-family="sans-serif" font-size="14" font-weight="bold" lengthAdjust="spacingAndGlyphs" textLength="59" x="1125" y="426.5352">backend</text><!--cluster executionGraph--><polygon fill="#FFFFFF" points="1606,555.5,1723,555.5,1730,577.9883,1750,577.9883,1750,638.5,1606,638.5,1606,555.5" style="stroke: #000000; stroke-width: 1.5;"/><line style="stroke: #000000; stroke-width: 1.5;" x1="1606" x2="1730" y1="577.9883" y2="577.9883"/><text fill="#000000" font-family="sans-serif" font-size="14" font-weight="bold" lengthAdjust="spacingAndGlyphs" textLength="111" x="1610" y="571.0352">executionGraph</text><!--class cefapp::App--><rect fill="#FEFECE" height="73.9102" id="cefapp::App" style="stroke: #A80036; stroke-width: 1.5;" width="144" x="359" y="43"/><ellipse cx="414.75" cy="59" fill="#ADD1B2" rx="11" ry="11" style="stroke: #A80036; stroke-width: 1.0;"/><path d="M417.7231,64.6431 Q417.1421,64.9419 416.5029,65.0913 Q415.8638,65.2407 415.1582,65.2407 Q412.6514,65.2407 411.3315,63.5889 Q410.0117,61.937 410.0117,58.8159 Q410.0117,55.6865 411.3315,54.0347 Q412.6514,52.3828 415.1582,52.3828 Q415.8638,52.3828 416.5112,52.5322 Q417.1587,52.6816 417.7231,52.9805 L417.7231,55.7031 Q417.0923,55.1221 416.4988,54.8523 Q415.9053,54.5825 415.2744,54.5825 Q413.9297,54.5825 413.2449,55.6492 Q412.5601,56.7158 412.5601,58.8159 Q412.5601,60.9077 413.2449,61.9744 Q413.9297,63.041 415.2744,63.041 Q415.9053,63.041 416.4988,62.7712 Q417.0923,62.5015 417.7231,61.9204 Z "/><text fill="#000000" font-family="sans-serif" font-size="12" lengthAdjust="spacingAndGlyphs" textLength="24" x="435.25" y="63.5352">App</text><line style="stroke: #A80036; stroke-width: 1.5;" x1="360" x2="502" y1="75" y2="75"/><rect fill="none" height="6" style="stroke: #C82930; stroke-width: 1.0;" width="6" x="367" y="83.9775"/><text fill="#000000" font-family="sans-serif" font-size="11" lengthAdjust="spacingAndGlyphs" textLength="78" x="379" y="89.6348">m_appHandler</text><line style="stroke: #A80036; stroke-width: 1.5;" x1="360" x2="502" y1="95.9551" y2="95.9551"/><ellipse cx="370" cy="107.9326" fill="#84BE84" rx="3" ry="3" style="stroke: #038048; stroke-width: 1.0;"/><text fill="#000000" font-family="sans-serif" font-size="11" lengthAdjust="spacingAndGlyphs" textLength="118" x="379" y="110.5898">OnContextInitialized()</text><!--class cefapp::AppHandler--><rect fill="#D3D3D3" height="99.8203" id="cefapp::AppHandler" style="stroke: #A80036; stroke-width: 1.5;" width="141" x="269.5" y="272"/><rect fill="#D3D3D3" height="32" style="stroke: #A80036; stroke-width: 1.5;" width="141" x="269.5" y="272"/><ellipse cx="302.05" cy="288" fill="#ADD1B2" rx="11" ry="11" style="stroke: #A80036; stroke-width: 1.0;"/><path d="M305.0231,293.6431 Q304.4421,293.9419 303.8029,294.0913 Q303.1638,294.2407 302.4582,294.2407 Q299.9514,294.2407 298.6315,292.5889 Q297.3117,290.937 297.3117,287.8159 Q297.3117,284.6865 298.6315,283.0347 Q299.9514,281.3828 302.4582,281.3828 Q303.1638,281.3828 303.8112,281.5322 Q304.4587,281.6816 305.0231,281.9805 L305.0231,284.7031 Q304.3923,284.1221 303.7988,283.8523 Q303.2053,283.5825 302.5744,283.5825 Q301.2297,283.5825 300.5449,284.6492 Q299.8601,285.7158 299.8601,287.8159 Q299.8601,289.9077 300.5449,290.9744 Q301.2297,292.041 302.5744,292.041 Q303.2053,292.041 303.7988,291.7712 Q304.3923,291.5015 305.0231,290.9204 Z "/><text fill="#000000" font-family="sans-serif" font-size="12" lengthAdjust="spacingAndGlyphs" textLength="70" x="319.95" y="292.5352">AppHandler</text><line style="stroke: #A80036; stroke-width: 1.5;" x1="270.5" x2="409.5" y1="304" y2="304"/><rect fill="none" height="6" style="stroke: #C82930; stroke-width: 1.0;" width="6" x="277.5" y="312.9775"/><text fill="#000000" font-family="sans-serif" font-size="11" lengthAdjust="spacingAndGlyphs" textLength="50" x="289.5" y="318.6348">m_router</text><rect fill="none" height="6" style="stroke: #C82930; stroke-width: 1.0;" width="6" x="277.5" y="325.9326"/><text fill="#000000" font-family="sans-serif" font-size="11" lengthAdjust="spacingAndGlyphs" textLength="115" x="289.5" y="331.5898">m_requestDispatcher</text><line style="stroke: #A80036; stroke-width: 1.5;" x1="270.5" x2="409.5" y1="337.9102" y2="337.9102"/><ellipse cx="280.5" cy="349.8877" fill="#84BE84" rx="3" ry="3" style="stroke: #038048; stroke-width: 1.0;"/><text fill="#000000" font-family="sans-serif" font-size="11" lengthAdjust="spacingAndGlyphs" textLength="93" x="289.5" y="352.5449">OnAfterCreated()</text><ellipse cx="280.5" cy="362.8428" fill="#84BE84" rx="3" ry="3" style="stroke: #038048; stroke-width: 1.0;"/><text fill="#000000" font-family="sans-serif" font-size="11" lengthAdjust="spacingAndGlyphs" textLength="94" x="289.5" y="365.5">OnBeforeCloses()</text><!--class cefapp::BackendRequestDispatcher--><rect fill="#FEFECE" height="151.6406" id="cefapp::BackendRequestDispatcher" style="stroke: #A80036; stroke-width: 1.5;" width="194" x="289" y="859"/><ellipse cx="305.8" cy="875" fill="#ADD1B2" rx="11" ry="11" style="stroke: #A80036; stroke-width: 1.0;"/><path d="M308.7731,880.6431 Q308.1921,880.9419 307.5529,881.0913 Q306.9138,881.2407 306.2082,881.2407 Q303.7014,881.2407 302.3815,879.5889 Q301.0617,877.937 301.0617,874.8159 Q301.0617,871.6865 302.3815,870.0347 Q303.7014,868.3828 306.2082,868.3828 Q306.9138,868.3828 307.5612,868.5322 Q308.2087,868.6816 308.7731,868.9805 L308.7731,871.7031 Q308.1423,871.1221 307.5488,870.8523 Q306.9553,870.5825 306.3244,870.5825 Q304.9797,870.5825 304.2949,871.6492 Q303.6101,872.7158 303.6101,874.8159 Q303.6101,876.9077 304.2949,877.9744 Q304.9797,879.041 306.3244,879.041 Q306.9553,879.041 307.5488,878.7712 Q308.1423,878.5015 308.7731,877.9204 Z "/><text fill="#000000" font-family="sans-serif" font-size="12" lengthAdjust="spacingAndGlyphs" textLength="158" x="320.2" y="879.5352">BackendRequestDispatcher</text><line style="stroke: #A80036; stroke-width: 1.5;" x1="290" x2="482" y1="891" y2="891"/><rect fill="none" height="6" style="stroke: #C82930; stroke-width: 1.0;" width="6" x="297" y="899.9775"/><text fill="#000000" font-family="sans-serif" font-size="11" lengthAdjust="spacingAndGlyphs" textLength="104" x="309" y="905.6348">m_generalHandlers</text><rect fill="none" height="6" style="stroke: #C82930; stroke-width: 1.0;" width="6" x="297" y="912.9326"/><text fill="#000000" font-family="sans-serif" font-size="11" lengthAdjust="spacingAndGlyphs" textLength="105" x="309" y="918.5898">m_specificHandlers</text><rect fill="none" height="6" style="stroke: #C82930; stroke-width: 1.0;" width="6" x="297" y="925.8877"/><text fill="#000000" font-family="sans-serif" font-size="11" lengthAdjust="spacingAndGlyphs" textLength="79" x="309" y="931.5449">m_handlerMap</text><line style="stroke: #A80036; stroke-width: 1.5;" x1="290" x2="482" y1="937.8652" y2="937.8652"/><ellipse cx="300" cy="949.8428" fill="#84BE84" rx="3" ry="3" style="stroke: #038048; stroke-width: 1.0;"/><text fill="#000000" font-family="sans-serif" font-size="11" lengthAdjust="spacingAndGlyphs" textLength="79" x="309" y="952.5">addHandler(...)</text><ellipse cx="300" cy="962.7979" fill="#84BE84" rx="3" ry="3" style="stroke: #038048; stroke-width: 1.0;"/><text fill="#000000" font-family="sans-serif" font-size="11" lengthAdjust="spacingAndGlyphs" textLength="99" x="309" y="965.4551">removeHandler(...)</text><ellipse cx="300" cy="975.7529" fill="#84BE84" rx="3" ry="3" style="stroke: #038048; stroke-width: 1.0;"/><text fill="#000000" font-family="sans-serif" font-size="11" lengthAdjust="spacingAndGlyphs" textLength="168" x="309" y="978.4102">addRequest(request, response)</text><ellipse cx="300" cy="988.708" fill="#84BE84" rx="3" ry="3" style="stroke: #038048; stroke-width: 1.0;"/><text fill="#000000" font-family="sans-serif" font-size="11" lengthAdjust="spacingAndGlyphs" textLength="33" x="309" y="991.3652">start()</text><ellipse cx="300" cy="1001.6631" fill="#84BE84" rx="3" ry="3" style="stroke: #038048; stroke-width: 1.0;"/><text fill="#000000" font-family="sans-serif" font-size="11" lengthAdjust="spacingAndGlyphs" textLength="32" x="309" y="1004.3203">stop()</text><!--class cefapp::BackendRequestDispatcherAdapterCef--><rect fill="#FEFECE" height="60.9551" id="cefapp::BackendRequestDispatcherAdapterCef" style="stroke: #A80036; stroke-width: 1.5;" width="256" x="385" y="576"/><ellipse cx="400" cy="592" fill="#ADD1B2" rx="11" ry="11" style="stroke: #A80036; stroke-width: 1.0;"/><path d="M402.9731,597.6431 Q402.3921,597.9419 401.7529,598.0913 Q401.1138,598.2407 400.4082,598.2407 Q397.9014,598.2407 396.5815,596.5889 Q395.2617,594.937 395.2617,591.8159 Q395.2617,588.6865 396.5815,587.0347 Q397.9014,585.3828 400.4082,585.3828 Q401.1138,585.3828 401.7612,585.5322 Q402.4087,585.6816 402.9731,585.9805 L402.9731,588.7031 Q402.3423,588.1221 401.7488,587.8523 Q401.1553,587.5825 400.5244,587.5825 Q399.1797,587.5825 398.4949,588.6492 Q397.8101,589.7158 397.8101,591.8159 Q397.8101,593.9077 398.4949,594.9744 Q399.1797,596.041 400.5244,596.041 Q401.1553,596.041 401.7488,595.7712 Q402.3423,595.5015 402.9731,594.9204 Z "/><text fill="#000000" font-family="sans-serif" font-size="12" lengthAdjust="spacingAndGlyphs" textLength="224" x="414" y="596.5352">BackendRequestDispatcherAdapterCef</text><line style="stroke: #A80036; stroke-width: 1.5;" x1="386" x2="640" y1="608" y2="608"/><rect fill="none" height="6" style="stroke: #C82930; stroke-width: 1.0;" width="6" x="393" y="616.9775"/><text fill="#000000" font-family="sans-serif" font-size="11" lengthAdjust="spacingAndGlyphs" textLength="73" x="405" y="622.6348">m_dispatcher</text><line style="stroke: #A80036; stroke-width: 1.5;" x1="386" x2="640" y1="628.9551" y2="628.9551"/><!--class cefapp::ClientSchemeHandlerFactory--><rect fill="#FEFECE" height="60.9551" id="cefapp::ClientSchemeHandlerFactory" style="stroke: #A80036; stroke-width: 1.5;" width="195" x="445.5" y="291.5"/><ellipse cx="460.5" cy="307.5" fill="#ADD1B2" rx="11" ry="11" style="stroke: #A80036; stroke-width: 1.0;"/><path d="M463.4731,313.1431 Q462.8921,313.4419 462.2529,313.5913 Q461.6138,313.7407 460.9082,313.7407 Q458.4014,313.7407 457.0815,312.0889 Q455.7617,310.437 455.7617,307.3159 Q455.7617,304.1865 457.0815,302.5347 Q458.4014,300.8828 460.9082,300.8828 Q461.6138,300.8828 462.2612,301.0322 Q462.9087,301.1816 463.4731,301.4805 L463.4731,304.2031 Q462.8423,303.6221 462.2488,303.3523 Q461.6553,303.0825 461.0244,303.0825 Q459.6797,303.0825 458.9949,304.1492 Q458.3101,305.2158 458.3101,307.3159 Q458.3101,309.4077 458.9949,310.4744 Q459.6797,311.541 461.0244,311.541 Q461.6553,311.541 462.2488,311.2712 Q462.8423,311.0015 463.4731,310.4204 Z "/><text fill="#000000" font-family="sans-serif" font-size="12" lengthAdjust="spacingAndGlyphs" textLength="163" x="474.5" y="312.0352">ClientSchemeHandlerFactory</text><line style="stroke: #A80036; stroke-width: 1.5;" x1="446.5" x2="639.5" y1="323.5" y2="323.5"/><line style="stroke: #A80036; stroke-width: 1.5;" x1="446.5" x2="639.5" y1="331.5" y2="331.5"/><ellipse cx="456.5" cy="343.4775" fill="#84BE84" rx="3" ry="3" style="stroke: #038048; stroke-width: 1.0;"/><text fill="#000000" font-family="sans-serif" font-size="11" lengthAdjust="spacingAndGlyphs" textLength="52" x="465.5" y="346.1348">Create(...)</text><!--class cefapp::BackendSchemeHandlerFactory--><rect fill="#FEFECE" height="73.9102" id="cefapp::BackendSchemeHandlerFactory" style="stroke: #A80036; stroke-width: 1.5;" width="212" x="22" y="285"/><ellipse cx="37" cy="301" fill="#ADD1B2" rx="11" ry="11" style="stroke: #A80036; stroke-width: 1.0;"/><path d="M39.9731,306.6431 Q39.3921,306.9419 38.7529,307.0913 Q38.1138,307.2407 37.4082,307.2407 Q34.9014,307.2407 33.5815,305.5889 Q32.2617,303.937 32.2617,300.8159 Q32.2617,297.6865 33.5815,296.0347 Q34.9014,294.3828 37.4082,294.3828 Q38.1138,294.3828 38.7612,294.5322 Q39.4087,294.6816 39.9731,294.9805 L39.9731,297.7031 Q39.3423,297.1221 38.7488,296.8523 Q38.1553,296.5825 37.5244,296.5825 Q36.1797,296.5825 35.4949,297.6492 Q34.8101,298.7158 34.8101,300.8159 Q34.8101,302.9077 35.4949,303.9744 Q36.1797,305.041 37.5244,305.041 Q38.1553,305.041 38.7488,304.7712 Q39.3423,304.5015 39.9731,303.9204 Z "/><text fill="#000000" font-family="sans-serif" font-size="12" lengthAdjust="spacingAndGlyphs" textLength="180" x="51" y="305.5352">BackendSchemeHandlerFactory</text><line style="stroke: #A80036; stroke-width: 1.5;" x1="23" x2="233" y1="317" y2="317"/><rect fill="none" height="6" style="stroke: #C82930; stroke-width: 1.0;" width="6" x="30" y="325.9775"/><text fill="#000000" font-family="sans-serif" font-size="11" lengthAdjust="spacingAndGlyphs" textLength="73" x="42" y="331.6348">m_dispatcher</text><line style="stroke: #A80036; stroke-width: 1.5;" x1="23" x2="233" y1="337.9551" y2="337.9551"/><ellipse cx="33" cy="349.9326" fill="#84BE84" rx="3" ry="3" style="stroke: #038048; stroke-width: 1.0;"/><text fill="#000000" font-family="sans-serif" font-size="11" lengthAdjust="spacingAndGlyphs" textLength="52" x="42" y="352.5898">Create(...)</text><!--class cefapp::BackendResourceHandler--><rect fill="#FEFECE" height="60.9551" id="cefapp::BackendResourceHandler" style="stroke: #A80036; stroke-width: 1.5;" width="180" x="170" y="576"/><ellipse cx="185" cy="592" fill="#ADD1B2" rx="11" ry="11" style="stroke: #A80036; stroke-width: 1.0;"/><path d="M187.9731,597.6431 Q187.3921,597.9419 186.7529,598.0913 Q186.1138,598.2407 185.4082,598.2407 Q182.9014,598.2407 181.5815,596.5889 Q180.2617,594.937 180.2617,591.8159 Q180.2617,588.6865 181.5815,587.0347 Q182.9014,585.3828 185.4082,585.3828 Q186.1138,585.3828 186.7612,585.5322 Q187.4087,585.6816 187.9731,585.9805 L187.9731,588.7031 Q187.3423,588.1221 186.7488,587.8523 Q186.1553,587.5825 185.5244,587.5825 Q184.1797,587.5825 183.4949,588.6492 Q182.8101,589.7158 182.8101,591.8159 Q182.8101,593.9077 183.4949,594.9744 Q184.1797,596.041 185.5244,596.041 Q186.1553,596.041 186.7488,595.7712 Q187.3423,595.5015 187.9731,594.9204 Z "/><text fill="#000000" font-family="sans-serif" font-size="12" lengthAdjust="spacingAndGlyphs" textLength="148" x="199" y="596.5352">BackendResourceHandler</text><line style="stroke: #A80036; stroke-width: 1.5;" x1="171" x2="349" y1="608" y2="608"/><rect fill="none" height="6" style="stroke: #C82930; stroke-width: 1.0;" width="6" x="178" y="616.9775"/><text fill="#000000" font-family="sans-serif" font-size="11" lengthAdjust="spacingAndGlyphs" textLength="73" x="190" y="622.6348">m_dispatcher</text><line style="stroke: #A80036; stroke-width: 1.5;" x1="171" x2="349" y1="628.9551" y2="628.9551"/><!--class backend::BackendRequestHandler--><rect fill="#D3D3D3" height="60.9551" id="backend::BackendRequestHandler" style="stroke: #A80036; stroke-width: 1.5;" width="253" x="1129.5" y="1072"/><rect fill="#D3D3D3" height="32" style="stroke: #A80036; stroke-width: 1.5;" width="253" x="1129.5" y="1072"/><ellipse cx="1180.75" cy="1088" fill="#ADD1B2" rx="11" ry="11" style="stroke: #A80036; stroke-width: 1.0;"/><path d="M1183.7231,1093.6431 Q1183.1421,1093.9419 1182.5029,1094.0913 Q1181.8638,1094.2407 1181.1582,1094.2407 Q1178.6514,1094.2407 1177.3315,1092.5889 Q1176.0117,1090.937 1176.0117,1087.8159 Q1176.0117,1084.6865 1177.3315,1083.0347 Q1178.6514,1081.3828 1181.1582,1081.3828 Q1181.8638,1081.3828 1182.5112,1081.5322 Q1183.1587,1081.6816 1183.7231,1081.9805 L1183.7231,1084.7031 Q1183.0923,1084.1221 1182.4988,1083.8523 Q1181.9053,1083.5825 1181.2744,1083.5825 Q1179.9297,1083.5825 1179.2449,1084.6492 Q1178.5601,1085.7158 1178.5601,1087.8159 Q1178.5601,1089.9077 1179.2449,1090.9744 Q1179.9297,1092.041 1181.2744,1092.041 Q1181.9053,1092.041 1182.4988,1091.7712 Q1183.0923,1091.5015 1183.7231,1090.9204 Z "/><text fill="#000000" font-family="sans-serif" font-size="12" lengthAdjust="spacingAndGlyphs" textLength="142" x="1201.25" y="1092.5352">BackendRequestHandler</text><line style="stroke: #A80036; stroke-width: 1.5;" x1="1130.5" x2="1381.5" y1="1104" y2="1104"/><line style="stroke: #A80036; stroke-width: 1.5;" x1="1130.5" x2="1381.5" y1="1112" y2="1112"/><ellipse cx="1140.5" cy="1123.9775" fill="#84BE84" rx="3" ry="3" style="stroke: #038048; stroke-width: 1.0;"/><text fill="#000000" font-family="sans-serif" font-size="11" font-style="italic" lengthAdjust="spacingAndGlyphs" textLength="227" x="1149.5" y="1126.6348">handleRequest(request, responsePromise)</text><!--class backend::Backend--><rect fill="#D3D3D3" height="48" id="backend::Backend" style="stroke: #A80036; stroke-width: 1.5;" width="81" x="1463.5" y="1256"/><rect fill="#D3D3D3" height="32" style="stroke: #A80036; stroke-width: 1.5;" width="81" x="1463.5" y="1256"/><ellipse cx="1478.5" cy="1272" fill="#ADD1B2" rx="11" ry="11" style="stroke: #A80036; stroke-width: 1.0;"/><path d="M1481.4731,1277.6431 Q1480.8921,1277.9419 1480.2529,1278.0913 Q1479.6138,1278.2407 1478.9082,1278.2407 Q1476.4014,1278.2407 1475.0815,1276.5889 Q1473.7617,1274.937 1473.7617,1271.8159 Q1473.7617,1268.6865 1475.0815,1267.0347 Q1476.4014,1265.3828 1478.9082,1265.3828 Q1479.6138,1265.3828 1480.2612,1265.5322 Q1480.9087,1265.6816 1481.4731,1265.9805 L1481.4731,1268.7031 Q1480.8423,1268.1221 1480.2488,1267.8523 Q1479.6553,1267.5825 1479.0244,1267.5825 Q1477.6797,1267.5825 1476.9949,1268.6492 Q1476.3101,1269.7158 1476.3101,1271.8159 Q1476.3101,1273.9077 1476.9949,1274.9744 Q1477.6797,1276.041 1479.0244,1276.041 Q1479.6553,1276.041 1480.2488,1275.7712 Q1480.8423,1275.5015 1481.4731,1274.9204 Z "/><text fill="#000000" font-family="sans-serif" font-size="12" lengthAdjust="spacingAndGlyphs" textLength="49" x="1492.5" y="1276.5352">Backend</text><line style="stroke: #A80036; stroke-width: 1.5;" x1="1464.5" x2="1543.5" y1="1288" y2="1288"/><line style="stroke: #A80036; stroke-width: 1.5;" x1="1464.5" x2="1543.5" y1="1296" y2="1296"/><!--class backend::BackendFactory--><rect fill="#FEFECE" height="60.9551" id="backend::BackendFactory" style="stroke: #A80036; stroke-width: 1.5;" width="140" x="1369" y="438"/><ellipse cx="1392.1" cy="454" fill="#ADD1B2" rx="11" ry="11" style="stroke: #A80036; stroke-width: 1.0;"/><path d="M1395.0731,459.6431 Q1394.4921,459.9419 1393.8529,460.0913 Q1393.2138,460.2407 1392.5082,460.2407 Q1390.0014,460.2407 1388.6815,458.5889 Q1387.3617,456.937 1387.3617,453.8159 Q1387.3617,450.6865 1388.6815,449.0347 Q1390.0014,447.3828 1392.5082,447.3828 Q1393.2138,447.3828 1393.8612,447.5322 Q1394.5087,447.6816 1395.0731,447.9805 L1395.0731,450.7031 Q1394.4423,450.1221 1393.8488,449.8523 Q1393.2553,449.5825 1392.6244,449.5825 Q1391.2797,449.5825 1390.5949,450.6492 Q1389.9101,451.7158 1389.9101,453.8159 Q1389.9101,455.9077 1390.5949,456.9744 Q1391.2797,458.041 1392.6244,458.041 Q1393.2553,458.041 1393.8488,457.7712 Q1394.4423,457.5015 1395.0731,456.9204 Z "/><text fill="#000000" font-family="sans-serif" font-size="12" lengthAdjust="spacingAndGlyphs" textLength="90" x="1407.9" y="458.5352">BackendFactory</text><line style="stroke: #A80036; stroke-width: 1.5;" x1="1370" x2="1508" y1="470" y2="470"/><line style="stroke: #A80036; stroke-width: 1.5;" x1="1370" x2="1508" y1="478" y2="478"/><ellipse cx="1380" cy="489.9775" fill="#84BE84" rx="3" ry="3" style="stroke: #038048; stroke-width: 1.0;"/><text fill="#000000" font-family="sans-serif" font-size="11" lengthAdjust="spacingAndGlyphs" text-decoration="underline" textLength="114" x="1389" y="492.6348">BackendData Create()</text><line style="stroke: #000000; stroke-width: 1.0;" x1="1389" x2="1503" y1="494.6348" y2="494.6348"/><!--class backend::DummyBackendRequestHandler--><rect fill="#FEFECE" height="48" id="backend::DummyBackendRequestHandler" style="stroke: #A80036; stroke-width: 1.5;" width="218" x="1216" y="724"/><ellipse cx="1231" cy="740" fill="#ADD1B2" rx="11" ry="11" style="stroke: #A80036; stroke-width: 1.0;"/><path d="M1233.9731,745.6431 Q1233.3921,745.9419 1232.7529,746.0913 Q1232.1138,746.2407 1231.4082,746.2407 Q1228.9014,746.2407 1227.5815,744.5889 Q1226.2617,742.937 1226.2617,739.8159 Q1226.2617,736.6865 1227.5815,735.0347 Q1228.9014,733.3828 1231.4082,733.3828 Q1232.1138,733.3828 1232.7612,733.5322 Q1233.4087,733.6816 1233.9731,733.9805 L1233.9731,736.7031 Q1233.3423,736.1221 1232.7488,735.8523 Q1232.1553,735.5825 1231.5244,735.5825 Q1230.1797,735.5825 1229.4949,736.6492 Q1228.8101,737.7158 1228.8101,739.8159 Q1228.8101,741.9077 1229.4949,742.9744 Q1230.1797,744.041 1231.5244,744.041 Q1232.1553,744.041 1232.7488,743.7712 Q1233.3423,743.5015 1233.9731,742.9204 Z "/><text fill="#000000" font-family="sans-serif" font-size="12" lengthAdjust="spacingAndGlyphs" textLength="186" x="1245" y="744.5352">DummyBackendRequestHandler</text><line style="stroke: #A80036; stroke-width: 1.5;" x1="1217" x2="1433" y1="756" y2="756"/><line style="stroke: #A80036; stroke-width: 1.5;" x1="1217" x2="1433" y1="764" y2="764"/><!--class backend::ExecutionGraphBackend--><rect fill="#FEFECE" height="48" id="backend::ExecutionGraphBackend" style="stroke: #A80036; stroke-width: 1.5;" width="172" x="1418" y="1078.5"/><ellipse cx="1433" cy="1094.5" fill="#ADD1B2" rx="11" ry="11" style="stroke: #A80036; stroke-width: 1.0;"/><path d="M1435.9731,1100.1431 Q1435.3921,1100.4419 1434.7529,1100.5913 Q1434.1138,1100.7407 1433.4082,1100.7407 Q1430.9014,1100.7407 1429.5815,1099.0889 Q1428.2617,1097.437 1428.2617,1094.3159 Q1428.2617,1091.1865 1429.5815,1089.5347 Q1430.9014,1087.8828 1433.4082,1087.8828 Q1434.1138,1087.8828 1434.7612,1088.0322 Q1435.4087,1088.1816 1435.9731,1088.4805 L1435.9731,1091.2031 Q1435.3423,1090.6221 1434.7488,1090.3523 Q1434.1553,1090.0825 1433.5244,1090.0825 Q1432.1797,1090.0825 1431.4949,1091.1492 Q1430.8101,1092.2158 1430.8101,1094.3159 Q1430.8101,1096.4077 1431.4949,1097.4744 Q1432.1797,1098.541 1433.5244,1098.541 Q1434.1553,1098.541 1434.7488,1098.2712 Q1435.3423,1098.0015 1435.9731,1097.4204 Z "/><text fill="#000000" font-family="sans-serif" font-size="12" lengthAdjust="spacingAndGlyphs" textLength="140" x="1447" y="1099.0352">ExecutionGraphBackend</text><line style="stroke: #A80036; stroke-width: 1.5;" x1="1419" x2="1589" y1="1110.5" y2="1110.5"/><line style="stroke: #A80036; stroke-width: 1.5;" x1="1419" x2="1589" y1="1118.5" y2="1118.5"/><!--class executionGraph::StaticFactory--><rect fill="#FEFECE" height="48" id="executionGraph::StaticFactory" style="stroke: #A80036; stroke-width: 1.5;" width="127" x="1614.5" y="582.5"/><ellipse cx="1629.5" cy="598.5" fill="#ADD1B2" rx="11" ry="11" style="stroke: #A80036; stroke-width: 1.0;"/><path d="M1632.4731,604.1431 Q1631.8921,604.4419 1631.2529,604.5913 Q1630.6138,604.7407 1629.9082,604.7407 Q1627.4014,604.7407 1626.0815,603.0889 Q1624.7617,601.437 1624.7617,598.3159 Q1624.7617,595.1865 1626.0815,593.5347 Q1627.4014,591.8828 1629.9082,591.8828 Q1630.6138,591.8828 1631.2612,592.0322 Q1631.9087,592.1816 1632.4731,592.4805 L1632.4731,595.2031 Q1631.8423,594.6221 1631.2488,594.3523 Q1630.6553,594.0825 1630.0244,594.0825 Q1628.6797,594.0825 1627.9949,595.1492 Q1627.3101,596.2158 1627.3101,598.3159 Q1627.3101,600.4077 1627.9949,601.4744 Q1628.6797,602.541 1630.0244,602.541 Q1630.6553,602.541 1631.2488,602.2712 Q1631.8423,602.0015 1632.4731,601.4204 Z "/><text fill="#000000" font-family="sans-serif" font-size="12" lengthAdjust="spacingAndGlyphs" textLength="71" x="1643.5" y="603.0352">StaticFactory</text><rect fill="#FFFFFF" height="16.1328" style="stroke: #000000; stroke-width: 1.0; stroke-dasharray: 2.0,2.0;" width="22" x="1722.5" y="579.5"/><text fill="#000000" font-family="sans-serif" font-size="12" font-style="italic" lengthAdjust="spacingAndGlyphs" textLength="20" x="1723.5" y="592.1016">T...</text><line style="stroke: #A80036; stroke-width: 1.5;" x1="1615.5" x2="1740.5" y1="614.5" y2="614.5"/><line style="stroke: #A80036; stroke-width: 1.5;" x1="1615.5" x2="1740.5" y1="622.5" y2="622.5"/><!--class CefMessageRouterBrowserSide--><rect fill="#FEFECE" height="48" id="CefMessageRouterBrowserSide" style="stroke: #A80036; stroke-width: 1.5;" width="209" x="809.5" y="444.5"/><ellipse cx="824.5" cy="460.5" fill="#ADD1B2" rx="11" ry="11" style="stroke: #A80036; stroke-width: 1.0;"/><path d="M827.4731,466.1431 Q826.8921,466.4419 826.2529,466.5913 Q825.6138,466.7407 824.9082,466.7407 Q822.4014,466.7407 821.0815,465.0889 Q819.7617,463.437 819.7617,460.3159 Q819.7617,457.1865 821.0815,455.5347 Q822.4014,453.8828 824.9082,453.8828 Q825.6138,453.8828 826.2612,454.0322 Q826.9087,454.1816 827.4731,454.4805 L827.4731,457.2031 Q826.8423,456.6221 826.2488,456.3523 Q825.6553,456.0825 825.0244,456.0825 Q823.6797,456.0825 822.9949,457.1492 Q822.3101,458.2158 822.3101,460.3159 Q822.3101,462.4077 822.9949,463.4744 Q823.6797,464.541 825.0244,464.541 Q825.6553,464.541 826.2488,464.2712 Q826.8423,464.0015 827.4731,463.4204 Z "/><text fill="#000000" font-family="sans-serif" font-size="12" lengthAdjust="spacingAndGlyphs" textLength="177" x="838.5" y="465.0352">CefMessageRouterBrowserSide</text><line style="stroke: #A80036; stroke-width: 1.5;" x1="810.5" x2="1017.5" y1="476.5" y2="476.5"/><line style="stroke: #A80036; stroke-width: 1.5;" x1="810.5" x2="1017.5" y1="484.5" y2="484.5"/><!--class Handler--><rect fill="#FEFECE" height="48" id="Handler" style="stroke: #A80036; stroke-width: 1.5;" width="263" x="849.5" y="724"/><ellipse cx="864.5" cy="740" fill="#ADD1B2" rx="11" ry="11" style="stroke: #A80036; stroke-width: 1.0;"/><path d="M867.4731,745.6431 Q866.8921,745.9419 866.2529,746.0913 Q865.6138,746.2407 864.9082,746.2407 Q862.4014,746.2407 861.0815,744.5889 Q859.7617,742.937 859.7617,739.8159 Q859.7617,736.6865 861.0815,735.0347 Q862.4014,733.3828 864.9082,733.3828 Q865.6138,733.3828 866.2612,733.5322 Q866.9087,733.6816 867.4731,733.9805 L867.4731,736.7031 Q866.8423,736.1221 866.2488,735.8523 Q865.6553,735.5825 865.0244,735.5825 Q863.6797,735.5825 862.9949,736.6492 Q862.3101,737.7158 862.3101,739.8159 Q862.3101,741.9077 862.9949,742.9744 Q863.6797,744.041 865.0244,744.041 Q865.6553,744.041 866.2488,743.7712 Q866.8423,743.5015 867.4731,742.9204 Z "/><text fill="#000000" font-family="sans-serif" font-size="12" lengthAdjust="spacingAndGlyphs" textLength="231" x="878.5" y="744.5352">CefMessageRouterBrowserSide::Handler</text><line style="stroke: #A80036; stroke-width: 1.5;" x1="850.5" x2="1111.5" y1="756" y2="756"/><line style="stroke: #A80036; stroke-width: 1.5;" x1="850.5" x2="1111.5" y1="764" y2="764"/><!--class CefResourceHandler--><rect fill="#FEFECE" height="99.8203" id="CefResourceHandler" style="stroke: #A80036; stroke-width: 1.5;" width="157" x="657.5" y="698"/><ellipse cx="675.65" cy="714" fill="#ADD1B2" rx="11" ry="11" style="stroke: #A80036; stroke-width: 1.0;"/><path d="M678.6231,719.6431 Q678.0421,719.9419 677.4029,720.0913 Q676.7638,720.2407 676.0582,720.2407 Q673.5514,720.2407 672.2315,718.5889 Q670.9117,716.937 670.9117,713.8159 Q670.9117,710.6865 672.2315,709.0347 Q673.5514,707.3828 676.0582,707.3828 Q676.7638,707.3828 677.4112,707.5322 Q678.0587,707.6816 678.6231,707.9805 L678.6231,710.7031 Q677.9923,710.1221 677.3988,709.8523 Q676.8053,709.5825 676.1744,709.5825 Q674.8297,709.5825 674.1449,710.6492 Q673.4601,711.7158 673.4601,713.8159 Q673.4601,715.9077 674.1449,716.9744 Q674.8297,718.041 676.1744,718.041 Q676.8053,718.041 677.3988,717.7712 Q677.9923,717.5015 678.6231,716.9204 Z "/><text fill="#000000" font-family="sans-serif" font-size="12" lengthAdjust="spacingAndGlyphs" textLength="118" x="690.35" y="718.5352">CefResourceHandler</text><line style="stroke: #A80036; stroke-width: 1.5;" x1="658.5" x2="813.5" y1="730" y2="730"/><line style="stroke: #A80036; stroke-width: 1.5;" x1="658.5" x2="813.5" y1="738" y2="738"/><ellipse cx="668.5" cy="749.9775" fill="#84BE84" rx="3" ry="3" style="stroke: #038048; stroke-width: 1.0;"/><text fill="#000000" font-family="sans-serif" font-size="11" font-style="italic" lengthAdjust="spacingAndGlyphs" textLength="53" x="677.5" y="752.6348">Cancel(...)</text><ellipse cx="668.5" cy="762.9326" fill="#84BE84" rx="3" ry="3" style="stroke: #038048; stroke-width: 1.0;"/><text fill="#000000" font-family="sans-serif" font-size="11" font-style="italic" lengthAdjust="spacingAndGlyphs" textLength="131" x="677.5" y="765.5898">GetResponseHeaders(...)</text><ellipse cx="668.5" cy="775.8877" fill="#84BE84" rx="3" ry="3" style="stroke: #038048; stroke-width: 1.0;"/><text fill="#000000" font-family="sans-serif" font-size="11" font-style="italic" lengthAdjust="spacingAndGlyphs" textLength="102" x="677.5" y="778.5449">ProcessRequest(...)</text><ellipse cx="668.5" cy="788.8428" fill="#84BE84" rx="3" ry="3" style="stroke: #038048; stroke-width: 1.0;"/><text fill="#000000" font-family="sans-serif" font-size="11" font-style="italic" lengthAdjust="spacingAndGlyphs" textLength="95" x="677.5" y="791.5">ReadResponse(...)</text><!--link cefapp::App to cefapp::AppHandler--><path d="M417.08,117.018 C402.044,157.0039 377.9289,221.1341 360.6762,267.0149 " fill="none" id="cefapp::App-cefapp::AppHandler" style="stroke: #A80036; stroke-width: 1.0; stroke-dasharray: 7.0,7.0;"/><polygon fill="#A80036" points="358.8184,271.9555,365.7302,264.9393,360.5783,267.2755,358.2421,262.1235,358.8184,271.9555" style="stroke: #A80036; stroke-width: 1.0;"/><text fill="#000000" font-family="sans-serif" font-size="13" lengthAdjust="spacingAndGlyphs" textLength="45" x="394" y="191.5684">creates</text><!--link cefapp::App to cefapp::ClientSchemeHandlerFactory--><path d="M448.1323,117.018 C469.4601,163.1012 505.6298,241.2537 526.6075,286.5804 " fill="none" id="cefapp::App-cefapp::ClientSchemeHandlerFactory" style="stroke: #A80036; stroke-width: 1.0; stroke-dasharray: 7.0,7.0;"/><polygon fill="#A80036" points="528.7138,291.1316,528.5636,281.2839,526.6137,286.594,521.3035,284.6441,528.7138,291.1316" style="stroke: #A80036; stroke-width: 1.0;"/><text fill="#000000" font-family="sans-serif" font-size="13" lengthAdjust="spacingAndGlyphs" textLength="55" x="485" y="191.5684">registers</text><!--link cefapp::App to cefapp::BackendSchemeHandlerFactory--><path d="M384.651,117.018 C328.9593,161.4979 235.8601,235.8543 178.4171,281.7329 " fill="none" id="cefapp::App-cefapp::BackendSchemeHandlerFactory" style="stroke: #A80036; stroke-width: 1.0; stroke-dasharray: 7.0,7.0;"/><polygon fill="#A80036" points="174.3438,284.9861,183.8724,282.4948,178.2506,281.8657,178.8797,276.2439,174.3438,284.9861" style="stroke: #A80036; stroke-width: 1.0;"/><text fill="#000000" font-family="sans-serif" font-size="13" lengthAdjust="spacingAndGlyphs" textLength="55" x="308" y="191.5684">registers</text><!--link cefapp::BackendSchemeHandlerFactory to cefapp::BackendResourceHandler--><path d="M145.2567,359.1934 C170.8308,414.3133 218.466,516.9817 243.5605,571.068 " fill="none" id="cefapp::BackendSchemeHandlerFactory-cefapp::BackendResourceHandler" style="stroke: #A80036; stroke-width: 1.0; stroke-dasharray: 7.0,7.0;"/><polygon fill="#A80036" points="245.7699,575.8297,245.6104,565.9821,243.6655,571.2941,238.3535,569.3492,245.7699,575.8297" style="stroke: #A80036; stroke-width: 1.0;"/><text fill="#000000" font-family="sans-serif" font-size="13" lengthAdjust="spacingAndGlyphs" textLength="45" x="210" y="473.5684">creates</text><!--link cefapp::BackendResourceHandler to CefResourceHandler--><path d="M350.0086,633.7767 C356.0823,635.4296 362.1211,637.0202 368,638.5 C487.266,668.5202 528.8627,652.2402 638.3241,692.1263 " fill="none" id="cefapp::BackendResourceHandler-CefResourceHandler" style="stroke: #A80036; stroke-width: 1.0;"/><polygon fill="none" points="641.0555,685.6758,657.2614,699.3276,636.0793,698.7616,641.0555,685.6758" style="stroke: #A80036; stroke-width: 1.0;"/><!--link cefapp::BackendResourceHandler to cefapp::BackendRequestDispatcher--><path d="M276.465,649.4266 C296.8294,702.5196 331.8565,793.8401 356.8176,858.9172 " fill="none" id="cefapp::BackendResourceHandler-cefapp::BackendRequestDispatcher" style="stroke: #A80036; stroke-width: 1.0;"/><polygon fill="#A80036" points="271.7406,637.1095,270.1546,644.144,276.0381,648.3136,277.624,641.2791,271.7406,637.1095" style="stroke: #A80036; stroke-width: 1.0;"/><text fill="#000000" font-family="sans-serif" font-size="13" lengthAdjust="spacingAndGlyphs" textLength="29" x="333" y="753.0684">uses</text><text fill="#000000" font-family="sans-serif" font-size="13" lengthAdjust="spacingAndGlyphs" textLength="8" x="265.3371" y="657.5746">1</text><!--link cefapp::AppHandler to Handler--><path d="M421.8414,376.3907 C562.3975,469.8024 844.2223,657.0994 944.5255,723.7595 " fill="none" id="cefapp::AppHandler-Handler" style="stroke: #A80036; stroke-width: 1.0;"/><polygon fill="#A80036" points="410.7393,369.0124,413.5224,375.6648,420.7334,375.6545,417.9504,369.002,410.7393,369.0124" style="stroke: #A80036; stroke-width: 1.0;"/><text fill="#000000" font-family="sans-serif" font-size="13" lengthAdjust="spacingAndGlyphs" textLength="8" x="418.4468" y="387.2276">1</text><!--link cefapp::BackendRequestDispatcherAdapterCef to cefapp::BackendRequestDispatcher--><path d="M496.4043,649.4266 C475.8783,702.5196 440.5732,793.8401 415.414,858.9172 " fill="none" id="cefapp::BackendRequestDispatcherAdapterCef-cefapp::BackendRequestDispatcher" style="stroke: #A80036; stroke-width: 1.0;"/><polygon fill="#A80036" points="501.1662,637.1095,495.2718,641.2635,496.8391,648.3022,502.7335,644.1482,501.1662,637.1095" style="stroke: #A80036; stroke-width: 1.0;"/><text fill="#000000" font-family="sans-serif" font-size="13" lengthAdjust="spacingAndGlyphs" textLength="8" x="489.9005" y="657.5746">1</text><!--link cefapp::BackendRequestDispatcherAdapterCef to Handler--><path d="M624.0834,637.0551 C685.5634,654.2938 763.2307,676.6104 832,698 C851.6426,704.1095 872.6383,710.957 892.4865,717.5778 " fill="none" id="cefapp::BackendRequestDispatcherAdapterCef-Handler" style="stroke: #A80036; stroke-width: 1.0;"/><polygon fill="none" points="894.7403,710.9504,911.4697,723.9555,890.2817,724.2215,894.7403,710.9504" style="stroke: #A80036; stroke-width: 1.0;"/><!--link cefapp::BackendSchemeHandlerFactory to cefapp::BackendRequestDispatcher--><path d="M129.5369,372.2378 C130.2744,400.5142 131,436.4722 131,468.5 C131,468.5 131,468.5 131,748 C131,829.525 216.8051,879.392 288.868,906.8969 " fill="none" id="cefapp::BackendSchemeHandlerFactory-cefapp::BackendRequestDispatcher" style="stroke: #A80036; stroke-width: 1.0;"/><polygon fill="#A80036" points="129.1771,359.0246,125.342,365.1313,129.5039,371.0202,133.339,364.9135,129.1771,359.0246" style="stroke: #A80036; stroke-width: 1.0;"/><text fill="#000000" font-family="sans-serif" font-size="13" lengthAdjust="spacingAndGlyphs" textLength="8" x="120.6743" y="379.5596">1</text><!--link cefapp::BackendRequestDispatcher to backend::BackendRequestHandler--><path d="M496.0884,956.1952 C657.7298,987.3158 958.5419,1045.2308 1129.2064,1078.0886 " fill="none" id="cefapp::BackendRequestDispatcher-backend::BackendRequestHandler" style="stroke: #A80036; stroke-width: 1.0;"/><polygon fill="#A80036" points="483.2677,953.7268,488.4033,958.789,495.0513,955.9955,489.9157,950.9333,483.2677,953.7268" style="stroke: #A80036; stroke-width: 1.0;"/><text fill="#000000" font-family="sans-serif" font-size="13" lengthAdjust="spacingAndGlyphs" textLength="22" x="490.8803" y="952.1081">1..*</text><!--link cefapp::AppHandler to CefMessageRouterBrowserSide--><path d="M422.8361,370.2929 C424.5587,370.8968 426.281,371.4671 428,372 C578.8161,418.7553 630.0618,359.031 782,402 C815.4578,411.4621 850.4779,429.538 876.033,444.4583 " fill="none" id="cefapp::AppHandler-CefMessageRouterBrowserSide" style="stroke: #A80036; stroke-width: 1.0;"/><polygon fill="#A80036" points="410.6316,365.4889,414.7495,371.4086,421.7977,369.8842,417.6797,363.9645,410.6316,365.4889" style="stroke: #A80036; stroke-width: 1.0;"/><text fill="#000000" font-family="sans-serif" font-size="13" lengthAdjust="spacingAndGlyphs" textLength="8" x="418.328" y="366.7939">1</text><!--link cefapp::App to backend::BackendFactory--><path d="M503.0883,107.7841 C687.6618,178.9217 1175.9407,367.1126 1363.8377,439.5312 " fill="none" id="cefapp::App-backend::BackendFactory" style="stroke: #A80036; stroke-width: 1.0; stroke-dasharray: 7.0,7.0;"/><polygon fill="#A80036" points="1368.7647,441.4301,1361.8056,434.4609,1364.0993,439.6318,1358.9283,441.9255,1368.7647,441.4301" style="stroke: #A80036; stroke-width: 1.0;"/><text fill="#000000" font-family="sans-serif" font-size="13" lengthAdjust="spacingAndGlyphs" textLength="29" x="849" y="238.5684">uses</text><!--link backend::ExecutionGraphBackend to backend::Backend--><path d="M1504,1126.8084 C1504,1154.8244 1504,1201.4285 1504,1235.8907 " fill="none" id="backend::ExecutionGraphBackend-backend::Backend" style="stroke: #A80036; stroke-width: 1.0;"/><polygon fill="none" points="1511.0001,1235.9852,1504,1255.9851,1497.0001,1235.9851,1511.0001,1235.9852" style="stroke: #A80036; stroke-width: 1.0;"/><!--link backend::DummyBackendRequestHandler to backend::BackendRequestHandler--><path d="M1320.3116,772.0875 C1309.166,829.3503 1280.8936,974.6048 1265.8183,1052.0567 " fill="none" id="backend::DummyBackendRequestHandler-backend::BackendRequestHandler" style="stroke: #A80036; stroke-width: 1.0;"/><polygon fill="none" points="1272.6337,1053.6805,1261.9415,1071.9747,1258.8916,1051.0057,1272.6337,1053.6805" style="stroke: #A80036; stroke-width: 1.0;"/><!--link backend::BackendFactory to backend::ExecutionGraphBackend--><path d="M1463.0189,499.1869 C1481.535,525.9543 1504,566.6432 1504,606.5 C1504,606.5 1504,606.5 1504,935 C1504,983.4435 1504,1039.768 1504,1073.203 " fill="none" id="backend::BackendFactory-backend::ExecutionGraphBackend" style="stroke: #A80036; stroke-width: 1.0; stroke-dasharray: 7.0,7.0;"/><polygon fill="#A80036" points="1504,1078.3679,1508,1069.3679,1504,1073.3679,1500,1069.3679,1504,1078.3679" style="stroke: #A80036; stroke-width: 1.0;"/><text fill="#000000" font-family="sans-serif" font-size="13" lengthAdjust="spacingAndGlyphs" textLength="45" x="1505" y="753.0684">creates</text><!--link backend::BackendFactory to backend::DummyBackendRequestHandler--><path d="M1426.4739,499.2109 C1404.2964,553.5846 1358.4265,666.0464 1336.7875,719.0998 " fill="none" id="backend::BackendFactory-backend::DummyBackendRequestHandler" style="stroke: #A80036; stroke-width: 1.0; stroke-dasharray: 7.0,7.0;"/><polygon fill="#A80036" points="1334.8958,723.7379,1341.9987,716.9152,1336.7842,719.1082,1334.5912,713.8938,1334.8958,723.7379" style="stroke: #A80036; stroke-width: 1.0;"/><text fill="#000000" font-family="sans-serif" font-size="13" lengthAdjust="spacingAndGlyphs" textLength="45" x="1403" y="611.5684">creates</text><!--link backend::DummyBackendRequestHandler to backend::ExecutionGraphBackend--><path d="M1343.2364,784.1162 C1379.7555,856.4403 1460.9966,1017.334 1491.8206,1078.3793 " fill="none" id="backend::DummyBackendRequestHandler-backend::ExecutionGraphBackend" style="stroke: #A80036; stroke-width: 1.0;"/><polygon fill="#A80036" points="1337.1627,772.0875,1336.2965,779.2464,1342.5715,782.7994,1343.4377,775.6405,1337.1627,772.0875" style="stroke: #A80036; stroke-width: 1.0;"/><text fill="#000000" font-family="sans-serif" font-size="13" lengthAdjust="spacingAndGlyphs" textLength="8" x="1331.1524" y="792.3932">1</text><!--link backend::BackendFactory to executionGraph::StaticFactory--><path d="M1502.7671,499.1587 C1534.3798,514.9982 1572.7995,535.2229 1606,555.5 C1617.9923,562.8243 1630.6352,571.4481 1641.9226,579.4997 " fill="none" id="backend::BackendFactory-executionGraph::StaticFactory" style="stroke: #A80036; stroke-width: 1.0; stroke-dasharray: 7.0,7.0;"/><polygon fill="#A80036" points="1646.0161,582.4367,1641.0354,573.94,1641.9536,579.5219,1636.3718,580.44,1646.0161,582.4367" style="stroke: #A80036; stroke-width: 1.0;"/><text fill="#000000" font-family="sans-serif" font-size="13" lengthAdjust="spacingAndGlyphs" textLength="29" x="1589" y="542.5684">uses</text><!--
@startuml
set namespaceSeparator ::
skinparam shadowing false

class CefMessageRouterBrowserSide
class Handler as "CefMessageRouterBrowserSide::Handler"

class CefResourceHandler {
    + Cancel(...) {abstract} 
    + GetResponseHeaders(...) {abstract} 
    + ProcessRequest(...) {abstract} 
    + ReadResponse(...) {abstract}
}

namespace cefapp{
    class App{
        + OnContextInitialized()
        - m_appHandler
    }
    class AppHandler #D3D3D3{
        + OnAfterCreated()
        + OnBeforeCloses()
        - m_router
        - m_requestDispatcher
    }

    class BackendRequestDispatcher {
        + addHandler(...)
        + removeHandler(...)
        + addRequest(request, response)
        + start()
        + stop()
        - m_generalHandlers
        - m_specificHandlers
        - m_handlerMap
    }
    class BackendRequestDispatcherAdapterCef {
        - m_dispatcher
    }

    class ClientSchemeHandlerFactory {
        + Create(...)
    }
    class BackendSchemeHandlerFactory {
        + Create(...)
        - m_dispatcher
    }
    class BackendResourceHandler {
        - m_dispatcher
    }
}

cefapp::App ..> cefapp::AppHandler : creates
cefapp::App ..> cefapp::ClientSchemeHandlerFactory : registers
cefapp::App ..> cefapp::BackendSchemeHandlerFactory : registers
cefapp::BackendSchemeHandlerFactory ..> cefapp::BackendResourceHandler : creates
cefapp::BackendResourceHandler - -|> CefResourceHandler
cefapp::BackendResourceHandler "1" *- - cefapp::BackendRequestDispatcher : uses

cefapp::AppHandler "1" *-down- Handler
cefapp::BackendRequestDispatcherAdapterCef "1" *- - cefapp::BackendRequestDispatcher
cefapp::BackendRequestDispatcherAdapterCef -down-|> Handler
cefapp::BackendSchemeHandlerFactory "1" *- - cefapp::BackendRequestDispatcher
cefapp::BackendRequestDispatcher "1..*" *- - backend::BackendRequestHandler
cefapp::AppHandler "1" *- - CefMessageRouterBrowserSide

namespace backend {
    class Backend #D3D3D3
    class BackendRequestHandler #D3D3D3 {
        + handleRequest(request, responsePromise) {abstract} 
    }

    class BackendFactory {
        + BackendData Create() {static}
    }

    class DummyBackendRequestHandler
}

namespace executionGraph {
    class StaticFactory<T...>
}

cefapp::App ..> backend::BackendFactory : uses

backend::ExecutionGraphBackend - -|> backend::Backend
backend::DummyBackendRequestHandler - -|> backend::BackendRequestHandler

backend::BackendFactory ..> backend::ExecutionGraphBackend : creates
backend::BackendFactory ..> backend::DummyBackendRequestHandler : creates

backend::DummyBackendRequestHandler "1" *- - backend::ExecutionGraphBackend

backend::BackendFactory ..> executionGraph::StaticFactory : uses
@enduml

PlantUML version 1.2018.01(Sun Jan 28 19:08:22 CET 2018)
(GPL source distribution)
Java Runtime: Java(TM) SE Runtime Environment
JVM: Java HotSpot(TM) 64-Bit Server VM
Java Version: 9.0.4+11
Operating System: Mac OS X
OS Version: 10.11.6
Default Encoding: UTF-8
Language: de
Country: DE
--></g></svg>