<?xml version="1.0" encoding="UTF-8" standalone="no"?><svg xmlns="http://www.w3.org/2000/svg" xmlns:xlink="http://www.w3.org/1999/xlink" contentScriptType="application/ecmascript" contentStyleType="text/css" height="1331px" preserveAspectRatio="none" style="width:1250px;height:1331px;" version="1.1" viewBox="0 0 1250 1331" width="1250px" zoomAndPan="magnify"><defs/><g><!--cluster cefapp--><polygon fill="#FFFFFF" points="286.5,16,339.5,16,346.5,38.4883,667.5,38.4883,667.5,668,286.5,668,286.5,16" style="stroke: #000000; stroke-width: 1.5;"/><line style="stroke: #000000; stroke-width: 1.5;" x1="286.5" x2="346.5" y1="38.4883" y2="38.4883"/><text fill="#000000" font-family="sans-serif" font-size="14" font-weight="bold" lengthAdjust="spacingAndGlyphs" textLength="47" x="290.5" y="31.5352">cefapp</text><!--cluster backend--><polygon fill="#FFFFFF" points="675.5,411,740.5,411,747.5,433.4883,1076.5,433.4883,1076.5,1319,675.5,1319,675.5,411" style="stroke: #000000; stroke-width: 1.5;"/><line style="stroke: #000000; stroke-width: 1.5;" x1="675.5" x2="747.5" y1="433.4883" y2="433.4883"/><text fill="#000000" font-family="sans-serif" font-size="14" font-weight="bold" lengthAdjust="spacingAndGlyphs" textLength="59" x="679.5" y="426.5352">backend</text><!--cluster executionGraph--><polygon fill="#FFFFFF" points="1084.5,417.5,1201.5,417.5,1208.5,439.9883,1228.5,439.9883,1228.5,500.5,1084.5,500.5,1084.5,417.5" style="stroke: #000000; stroke-width: 1.5;"/><line style="stroke: #000000; stroke-width: 1.5;" x1="1084.5" x2="1208.5" y1="439.9883" y2="439.9883"/><text fill="#000000" font-family="sans-serif" font-size="14" font-weight="bold" lengthAdjust="spacingAndGlyphs" textLength="111" x="1088.5" y="433.0352">executionGraph</text><!--class cefapp::App--><rect fill="#FEFECE" height="60.9551" id="cefapp::App" style="stroke: #A80036; stroke-width: 1.5;" width="144" x="396.5" y="43"/><ellipse cx="452.25" cy="59" fill="#ADD1B2" rx="11" ry="11" style="stroke: #A80036; stroke-width: 1.0;"/><path d="M455.2231,64.6431 Q454.6421,64.9419 454.0029,65.0913 Q453.3638,65.2407 452.6582,65.2407 Q450.1514,65.2407 448.8315,63.5889 Q447.5117,61.937 447.5117,58.8159 Q447.5117,55.6865 448.8315,54.0347 Q450.1514,52.3828 452.6582,52.3828 Q453.3638,52.3828 454.0112,52.5322 Q454.6587,52.6816 455.2231,52.9805 L455.2231,55.7031 Q454.5923,55.1221 453.9988,54.8523 Q453.4053,54.5825 452.7744,54.5825 Q451.4297,54.5825 450.7449,55.6492 Q450.0601,56.7158 450.0601,58.8159 Q450.0601,60.9077 450.7449,61.9744 Q451.4297,63.041 452.7744,63.041 Q453.4053,63.041 453.9988,62.7712 Q454.5923,62.5015 455.2231,61.9204 Z "/><text fill="#000000" font-family="sans-serif" font-size="12" lengthAdjust="spacingAndGlyphs" textLength="24" x="472.75" y="63.5352">App</text><line style="stroke: #A80036; stroke-width: 1.5;" x1="397.5" x2="539.5" y1="75" y2="75"/><line style="stroke: #A80036; stroke-width: 1.5;" x1="397.5" x2="539.5" y1="83" y2="83"/><ellipse cx="407.5" cy="94.9775" fill="#84BE84" rx="3" ry="3" style="stroke: #038048; stroke-width: 1.0;"/><text fill="#000000" font-family="sans-serif" font-size="11" lengthAdjust="spacingAndGlyphs" textLength="118" x="416.5" y="97.6348">OnContextInitialized()</text><!--class cefapp::AppHandler--><rect fill="#D3D3D3" height="112.7754" id="cefapp::AppHandler" style="stroke: #A80036; stroke-width: 1.5;" width="147" x="295" y="243"/><rect fill="#D3D3D3" height="32" style="stroke: #A80036; stroke-width: 1.5;" width="147" x="295" y="243"/><ellipse cx="330.25" cy="259" fill="#ADD1B2" rx="11" ry="11" style="stroke: #A80036; stroke-width: 1.0;"/><path d="M333.2231,264.6431 Q332.6421,264.9419 332.0029,265.0913 Q331.3638,265.2407 330.6582,265.2407 Q328.1514,265.2407 326.8315,263.5889 Q325.5117,261.937 325.5117,258.8159 Q325.5117,255.6865 326.8315,254.0347 Q328.1514,252.3828 330.6582,252.3828 Q331.3638,252.3828 332.0112,252.5322 Q332.6587,252.6816 333.2231,252.9805 L333.2231,255.7031 Q332.5923,255.1221 331.9988,254.8523 Q331.4053,254.5825 330.7744,254.5825 Q329.4297,254.5825 328.7449,255.6492 Q328.0601,256.7158 328.0601,258.8159 Q328.0601,260.9077 328.7449,261.9744 Q329.4297,263.041 330.7744,263.041 Q331.4053,263.041 331.9988,262.7712 Q332.5923,262.5015 333.2231,261.9204 Z "/><text fill="#000000" font-family="sans-serif" font-size="12" lengthAdjust="spacingAndGlyphs" textLength="70" x="348.75" y="263.5352">AppHandler</text><line style="stroke: #A80036; stroke-width: 1.5;" x1="296" x2="441" y1="275" y2="275"/><rect fill="none" height="6" style="stroke: #C82930; stroke-width: 1.0;" width="6" x="303" y="283.9775"/><text fill="#000000" font-family="sans-serif" font-size="11" lengthAdjust="spacingAndGlyphs" textLength="50" x="315" y="289.6348">m_router</text><rect fill="none" height="6" style="stroke: #C82930; stroke-width: 1.0;" width="6" x="303" y="296.9326"/><text fill="#000000" font-family="sans-serif" font-size="11" lengthAdjust="spacingAndGlyphs" textLength="121" x="315" y="302.5898">m_messageDispatcher</text><line style="stroke: #A80036; stroke-width: 1.5;" x1="296" x2="441" y1="308.9102" y2="308.9102"/><ellipse cx="306" cy="320.8877" fill="#84BE84" rx="3" ry="3" style="stroke: #038048; stroke-width: 1.0;"/><text fill="#000000" font-family="sans-serif" font-size="11" lengthAdjust="spacingAndGlyphs" textLength="93" x="315" y="323.5449">OnAfterCreated()</text><ellipse cx="306" cy="333.8428" fill="#84BE84" rx="3" ry="3" style="stroke: #038048; stroke-width: 1.0;"/><text fill="#000000" font-family="sans-serif" font-size="11" lengthAdjust="spacingAndGlyphs" textLength="94" x="315" y="336.5">OnBeforeCloses()</text><rect fill="#F24D5C" height="6" style="stroke: #C82930; stroke-width: 1.0;" width="6" x="303" y="343.7979"/><text fill="#000000" font-family="sans-serif" font-size="11" lengthAdjust="spacingAndGlyphs" textLength="102" x="315" y="349.4551">initializeBackends()</text><!--class cefapp::MessageDispatcher--><rect fill="#FEFECE" height="99.8203" id="cefapp::MessageDispatcher" style="stroke: #A80036; stroke-width: 1.5;" width="205" x="304" y="560"/><ellipse cx="346.45" cy="576" fill="#ADD1B2" rx="11" ry="11" style="stroke: #A80036; stroke-width: 1.0;"/><path d="M349.4231,581.6431 Q348.8421,581.9419 348.2029,582.0913 Q347.5638,582.2407 346.8582,582.2407 Q344.3514,582.2407 343.0315,580.5889 Q341.7117,578.937 341.7117,575.8159 Q341.7117,572.6865 343.0315,571.0347 Q344.3514,569.3828 346.8582,569.3828 Q347.5638,569.3828 348.2112,569.5322 Q348.8587,569.6816 349.4231,569.9805 L349.4231,572.7031 Q348.7923,572.1221 348.1988,571.8523 Q347.6053,571.5825 346.9744,571.5825 Q345.6297,571.5825 344.9449,572.6492 Q344.2601,573.7158 344.2601,575.8159 Q344.2601,577.9077 344.9449,578.9744 Q345.6297,580.041 346.9744,580.041 Q347.6053,580.041 348.1988,579.7712 Q348.7923,579.5015 349.4231,578.9204 Z "/><text fill="#000000" font-family="sans-serif" font-size="12" lengthAdjust="spacingAndGlyphs" textLength="112" x="366.55" y="580.5352">MessageDispatcher</text><line style="stroke: #A80036; stroke-width: 1.5;" x1="305" x2="508" y1="592" y2="592"/><rect fill="none" height="6" style="stroke: #C82930; stroke-width: 1.0;" width="6" x="312" y="600.9775"/><text fill="#000000" font-family="sans-serif" font-size="11" lengthAdjust="spacingAndGlyphs" textLength="63" x="324" y="606.6348">m_handlers</text><rect fill="none" height="6" style="stroke: #C82930; stroke-width: 1.0;" width="6" x="312" y="613.9326"/><text fill="#000000" font-family="sans-serif" font-size="11" lengthAdjust="spacingAndGlyphs" textLength="79" x="324" y="619.5898">m_handlerMap</text><line style="stroke: #A80036; stroke-width: 1.5;" x1="305" x2="508" y1="625.9102" y2="625.9102"/><ellipse cx="315" cy="637.8877" fill="#84BE84" rx="3" ry="3" style="stroke: #038048; stroke-width: 1.0;"/><text fill="#000000" font-family="sans-serif" font-size="11" lengthAdjust="spacingAndGlyphs" textLength="159" x="324" y="640.5449">AddHandler(backendHandler)</text><ellipse cx="315" cy="650.8428" fill="#84BE84" rx="3" ry="3" style="stroke: #038048; stroke-width: 1.0;"/><text fill="#000000" font-family="sans-serif" font-size="11" lengthAdjust="spacingAndGlyphs" textLength="179" x="324" y="653.5">RemoveHandler(backendHandler)</text><!--class cefapp::FileSchemeHandlerFactory--><rect fill="#FEFECE" height="48" id="cefapp::FileSchemeHandlerFactory" style="stroke: #A80036; stroke-width: 1.5;" width="182" x="477.5" y="275.5"/><ellipse cx="492.5" cy="291.5" fill="#ADD1B2" rx="11" ry="11" style="stroke: #A80036; stroke-width: 1.0;"/><path d="M495.4731,297.1431 Q494.8921,297.4419 494.2529,297.5913 Q493.6138,297.7407 492.9082,297.7407 Q490.4014,297.7407 489.0815,296.0889 Q487.7617,294.437 487.7617,291.3159 Q487.7617,288.1865 489.0815,286.5347 Q490.4014,284.8828 492.9082,284.8828 Q493.6138,284.8828 494.2612,285.0322 Q494.9087,285.1816 495.4731,285.4805 L495.4731,288.2031 Q494.8423,287.6221 494.2488,287.3523 Q493.6553,287.0825 493.0244,287.0825 Q491.6797,287.0825 490.9949,288.1492 Q490.3101,289.2158 490.3101,291.3159 Q490.3101,293.4077 490.9949,294.4744 Q491.6797,295.541 493.0244,295.541 Q493.6553,295.541 494.2488,295.2712 Q494.8423,295.0015 495.4731,294.4204 Z "/><text fill="#000000" font-family="sans-serif" font-size="12" lengthAdjust="spacingAndGlyphs" textLength="150" x="506.5" y="296.0352">FileSchemeHandlerFactory</text><line style="stroke: #A80036; stroke-width: 1.5;" x1="478.5" x2="658.5" y1="307.5" y2="307.5"/><line style="stroke: #A80036; stroke-width: 1.5;" x1="478.5" x2="658.5" y1="315.5" y2="315.5"/><!--class backend::BackendMessageHandler--><rect fill="#D3D3D3" height="60.9551" id="backend::BackendMessageHandler" style="stroke: #A80036; stroke-width: 1.5;" width="177" x="684" y="1079"/><rect fill="#D3D3D3" height="32" style="stroke: #A80036; stroke-width: 1.5;" width="177" x="684" y="1079"/><ellipse cx="699" cy="1095" fill="#ADD1B2" rx="11" ry="11" style="stroke: #A80036; stroke-width: 1.0;"/><path d="M701.9731,1100.6431 Q701.3921,1100.9419 700.7529,1101.0913 Q700.1138,1101.2407 699.4082,1101.2407 Q696.9014,1101.2407 695.5815,1099.5889 Q694.2617,1097.937 694.2617,1094.8159 Q694.2617,1091.6865 695.5815,1090.0347 Q696.9014,1088.3828 699.4082,1088.3828 Q700.1138,1088.3828 700.7612,1088.5322 Q701.4087,1088.6816 701.9731,1088.9805 L701.9731,1091.7031 Q701.3423,1091.1221 700.7488,1090.8523 Q700.1553,1090.5825 699.5244,1090.5825 Q698.1797,1090.5825 697.4949,1091.6492 Q696.8101,1092.7158 696.8101,1094.8159 Q696.8101,1096.9077 697.4949,1097.9744 Q698.1797,1099.041 699.5244,1099.041 Q700.1553,1099.041 700.7488,1098.7712 Q701.3423,1098.5015 701.9731,1097.9204 Z "/><text fill="#000000" font-family="sans-serif" font-size="12" lengthAdjust="spacingAndGlyphs" textLength="145" x="713" y="1099.5352">BackendMessageHandler</text><line style="stroke: #A80036; stroke-width: 1.5;" x1="685" x2="860" y1="1111" y2="1111"/><line style="stroke: #A80036; stroke-width: 1.5;" x1="685" x2="860" y1="1119" y2="1119"/><ellipse cx="695" cy="1130.9775" fill="#84BE84" rx="3" ry="3" style="stroke: #038048; stroke-width: 1.0;"/><text fill="#000000" font-family="sans-serif" font-size="11" font-style="italic" lengthAdjust="spacingAndGlyphs" textLength="66" x="704" y="1133.6348">OnQuery(...)</text><!--class backend::Backend--><rect fill="#D3D3D3" height="48" id="backend::Backend" style="stroke: #A80036; stroke-width: 1.5;" width="81" x="942" y="1263"/><rect fill="#D3D3D3" height="32" style="stroke: #A80036; stroke-width: 1.5;" width="81" x="942" y="1263"/><ellipse cx="957" cy="1279" fill="#ADD1B2" rx="11" ry="11" style="stroke: #A80036; stroke-width: 1.0;"/><path d="M959.9731,1284.6431 Q959.3921,1284.9419 958.7529,1285.0913 Q958.1138,1285.2407 957.4082,1285.2407 Q954.9014,1285.2407 953.5815,1283.5889 Q952.2617,1281.937 952.2617,1278.8159 Q952.2617,1275.6865 953.5815,1274.0347 Q954.9014,1272.3828 957.4082,1272.3828 Q958.1138,1272.3828 958.7612,1272.5322 Q959.4087,1272.6816 959.9731,1272.9805 L959.9731,1275.7031 Q959.3423,1275.1221 958.7488,1274.8523 Q958.1553,1274.5825 957.5244,1274.5825 Q956.1797,1274.5825 955.4949,1275.6492 Q954.8101,1276.7158 954.8101,1278.8159 Q954.8101,1280.9077 955.4949,1281.9744 Q956.1797,1283.041 957.5244,1283.041 Q958.1553,1283.041 958.7488,1282.7712 Q959.3423,1282.5015 959.9731,1281.9204 Z "/><text fill="#000000" font-family="sans-serif" font-size="12" lengthAdjust="spacingAndGlyphs" textLength="49" x="971" y="1283.5352">Backend</text><line style="stroke: #A80036; stroke-width: 1.5;" x1="943" x2="1022" y1="1295" y2="1295"/><line style="stroke: #A80036; stroke-width: 1.5;" x1="943" x2="1022" y1="1303" y2="1303"/><!--class backend::BackendFactory--><rect fill="#FEFECE" height="60.9551" id="backend::BackendFactory" style="stroke: #A80036; stroke-width: 1.5;" width="140" x="843.5" y="438"/><ellipse cx="866.6" cy="454" fill="#ADD1B2" rx="11" ry="11" style="stroke: #A80036; stroke-width: 1.0;"/><path d="M869.5731,459.6431 Q868.9921,459.9419 868.3529,460.0913 Q867.7138,460.2407 867.0082,460.2407 Q864.5014,460.2407 863.1815,458.5889 Q861.8617,456.937 861.8617,453.8159 Q861.8617,450.6865 863.1815,449.0347 Q864.5014,447.3828 867.0082,447.3828 Q867.7138,447.3828 868.3612,447.5322 Q869.0087,447.6816 869.5731,447.9805 L869.5731,450.7031 Q868.9423,450.1221 868.3488,449.8523 Q867.7553,449.5825 867.1244,449.5825 Q865.7797,449.5825 865.0949,450.6492 Q864.4101,451.7158 864.4101,453.8159 Q864.4101,455.9077 865.0949,456.9744 Q865.7797,458.041 867.1244,458.041 Q867.7553,458.041 868.3488,457.7712 Q868.9423,457.5015 869.5731,456.9204 Z "/><text fill="#000000" font-family="sans-serif" font-size="12" lengthAdjust="spacingAndGlyphs" textLength="90" x="882.4" y="458.5352">BackendFactory</text><line style="stroke: #A80036; stroke-width: 1.5;" x1="844.5" x2="982.5" y1="470" y2="470"/><line style="stroke: #A80036; stroke-width: 1.5;" x1="844.5" x2="982.5" y1="478" y2="478"/><ellipse cx="854.5" cy="489.9775" fill="#84BE84" rx="3" ry="3" style="stroke: #038048; stroke-width: 1.0;"/><text fill="#000000" font-family="sans-serif" font-size="11" lengthAdjust="spacingAndGlyphs" text-decoration="underline" textLength="114" x="863.5" y="492.6348">BackendData Create()</text><line style="stroke: #000000; stroke-width: 1.0;" x1="863.5" x2="977.5" y1="494.6348" y2="494.6348"/><!--class backend::CreatorExecutionGraphBackend--><rect fill="#FEFECE" height="48" id="backend::CreatorExecutionGraphBackend" style="stroke: #A80036; stroke-width: 1.5;" width="215" x="806" y="721"/><ellipse cx="821" cy="737" fill="#ADD1B2" rx="11" ry="11" style="stroke: #A80036; stroke-width: 1.0;"/><path d="M823.9731,742.6431 Q823.3921,742.9419 822.7529,743.0913 Q822.1138,743.2407 821.4082,743.2407 Q818.9014,743.2407 817.5815,741.5889 Q816.2617,739.937 816.2617,736.8159 Q816.2617,733.6865 817.5815,732.0347 Q818.9014,730.3828 821.4082,730.3828 Q822.1138,730.3828 822.7612,730.5322 Q823.4087,730.6816 823.9731,730.9805 L823.9731,733.7031 Q823.3423,733.1221 822.7488,732.8523 Q822.1553,732.5825 821.5244,732.5825 Q820.1797,732.5825 819.4949,733.6492 Q818.8101,734.7158 818.8101,736.8159 Q818.8101,738.9077 819.4949,739.9744 Q820.1797,741.041 821.5244,741.041 Q822.1553,741.041 822.7488,740.7712 Q823.3423,740.5015 823.9731,739.9204 Z "/><text fill="#000000" font-family="sans-serif" font-size="12" lengthAdjust="spacingAndGlyphs" textLength="183" x="835" y="741.5352">CreatorExecutionGraphBackend</text><line style="stroke: #A80036; stroke-width: 1.5;" x1="807" x2="1020" y1="753" y2="753"/><line style="stroke: #A80036; stroke-width: 1.5;" x1="807" x2="1020" y1="761" y2="761"/><!--class backend::DummyBackendMsgHandler--><rect fill="#FEFECE" height="48" id="backend::DummyBackendMsgHandler" style="stroke: #A80036; stroke-width: 1.5;" width="194" x="718.5" y="908"/><ellipse cx="733.5" cy="924" fill="#ADD1B2" rx="11" ry="11" style="stroke: #A80036; stroke-width: 1.0;"/><path d="M736.4731,929.6431 Q735.8921,929.9419 735.2529,930.0913 Q734.6138,930.2407 733.9082,930.2407 Q731.4014,930.2407 730.0815,928.5889 Q728.7617,926.937 728.7617,923.8159 Q728.7617,920.6865 730.0815,919.0347 Q731.4014,917.3828 733.9082,917.3828 Q734.6138,917.3828 735.2612,917.5322 Q735.9087,917.6816 736.4731,917.9805 L736.4731,920.7031 Q735.8423,920.1221 735.2488,919.8523 Q734.6553,919.5825 734.0244,919.5825 Q732.6797,919.5825 731.9949,920.6492 Q731.3101,921.7158 731.3101,923.8159 Q731.3101,925.9077 731.9949,926.9744 Q732.6797,928.041 734.0244,928.041 Q734.6553,928.041 735.2488,927.7712 Q735.8423,927.5015 736.4731,926.9204 Z "/><text fill="#000000" font-family="sans-serif" font-size="12" lengthAdjust="spacingAndGlyphs" textLength="162" x="747.5" y="928.5352">DummyBackendMsgHandler</text><line style="stroke: #A80036; stroke-width: 1.5;" x1="719.5" x2="911.5" y1="940" y2="940"/><line style="stroke: #A80036; stroke-width: 1.5;" x1="719.5" x2="911.5" y1="948" y2="948"/><!--class backend::ExecutionGraphBackend--><rect fill="#FEFECE" height="48" id="backend::ExecutionGraphBackend" style="stroke: #A80036; stroke-width: 1.5;" width="172" x="896.5" y="1085.5"/><ellipse cx="911.5" cy="1101.5" fill="#ADD1B2" rx="11" ry="11" style="stroke: #A80036; stroke-width: 1.0;"/><path d="M914.4731,1107.1431 Q913.8921,1107.4419 913.2529,1107.5913 Q912.6138,1107.7407 911.9082,1107.7407 Q909.4014,1107.7407 908.0815,1106.0889 Q906.7617,1104.437 906.7617,1101.3159 Q906.7617,1098.1865 908.0815,1096.5347 Q909.4014,1094.8828 911.9082,1094.8828 Q912.6138,1094.8828 913.2612,1095.0322 Q913.9087,1095.1816 914.4731,1095.4805 L914.4731,1098.2031 Q913.8423,1097.6221 913.2488,1097.3523 Q912.6553,1097.0825 912.0244,1097.0825 Q910.6797,1097.0825 909.9949,1098.1492 Q909.3101,1099.2158 909.3101,1101.3159 Q909.3101,1103.4077 909.9949,1104.4744 Q910.6797,1105.541 912.0244,1105.541 Q912.6553,1105.541 913.2488,1105.2712 Q913.8423,1105.0015 914.4731,1104.4204 Z "/><text fill="#000000" font-family="sans-serif" font-size="12" lengthAdjust="spacingAndGlyphs" textLength="140" x="925.5" y="1106.0352">ExecutionGraphBackend</text><line style="stroke: #A80036; stroke-width: 1.5;" x1="897.5" x2="1067.5" y1="1117.5" y2="1117.5"/><line style="stroke: #A80036; stroke-width: 1.5;" x1="897.5" x2="1067.5" y1="1125.5" y2="1125.5"/><!--class executionGraph::StaticFactory--><rect fill="#FEFECE" height="48" id="executionGraph::StaticFactory" style="stroke: #A80036; stroke-width: 1.5;" width="127" x="1093" y="444.5"/><ellipse cx="1108" cy="460.5" fill="#ADD1B2" rx="11" ry="11" style="stroke: #A80036; stroke-width: 1.0;"/><path d="M1110.9731,466.1431 Q1110.3921,466.4419 1109.7529,466.5913 Q1109.1138,466.7407 1108.4082,466.7407 Q1105.9014,466.7407 1104.5815,465.0889 Q1103.2617,463.437 1103.2617,460.3159 Q1103.2617,457.1865 1104.5815,455.5347 Q1105.9014,453.8828 1108.4082,453.8828 Q1109.1138,453.8828 1109.7612,454.0322 Q1110.4087,454.1816 1110.9731,454.4805 L1110.9731,457.2031 Q1110.3423,456.6221 1109.7488,456.3523 Q1109.1553,456.0825 1108.5244,456.0825 Q1107.1797,456.0825 1106.4949,457.1492 Q1105.8101,458.2158 1105.8101,460.3159 Q1105.8101,462.4077 1106.4949,463.4744 Q1107.1797,464.541 1108.5244,464.541 Q1109.1553,464.541 1109.7488,464.2712 Q1110.3423,464.0015 1110.9731,463.4204 Z "/><text fill="#000000" font-family="sans-serif" font-size="12" lengthAdjust="spacingAndGlyphs" textLength="71" x="1122" y="465.0352">StaticFactory</text><rect fill="#FFFFFF" height="16.1328" style="stroke: #000000; stroke-width: 1.0; stroke-dasharray: 2.0,2.0;" width="22" x="1201" y="441.5"/><text fill="#000000" font-family="sans-serif" font-size="12" font-style="italic" lengthAdjust="spacingAndGlyphs" textLength="20" x="1202" y="454.1016">T...</text><line style="stroke: #A80036; stroke-width: 1.5;" x1="1094" x2="1219" y1="476.5" y2="476.5"/><line style="stroke: #A80036; stroke-width: 1.5;" x1="1094" x2="1219" y1="484.5" y2="484.5"/><!--class CefMessageRouterBrowserSide--><rect fill="#FEFECE" height="48" id="CefMessageRouterBrowserSide" style="stroke: #A80036; stroke-width: 1.5;" width="209" x="51" y="275.5"/><ellipse cx="66" cy="291.5" fill="#ADD1B2" rx="11" ry="11" style="stroke: #A80036; stroke-width: 1.0;"/><path d="M68.9731,297.1431 Q68.3921,297.4419 67.7529,297.5913 Q67.1138,297.7407 66.4082,297.7407 Q63.9014,297.7407 62.5815,296.0889 Q61.2617,294.437 61.2617,291.3159 Q61.2617,288.1865 62.5815,286.5347 Q63.9014,284.8828 66.4082,284.8828 Q67.1138,284.8828 67.7612,285.0322 Q68.4087,285.1816 68.9731,285.4805 L68.9731,288.2031 Q68.3423,287.6221 67.7488,287.3523 Q67.1553,287.0825 66.5244,287.0825 Q65.1797,287.0825 64.4949,288.1492 Q63.8101,289.2158 63.8101,291.3159 Q63.8101,293.4077 64.4949,294.4744 Q65.1797,295.541 66.5244,295.541 Q67.1553,295.541 67.7488,295.2712 Q68.3423,295.0015 68.9731,294.4204 Z "/><text fill="#000000" font-family="sans-serif" font-size="12" lengthAdjust="spacingAndGlyphs" textLength="177" x="80" y="296.0352">CefMessageRouterBrowserSide</text><line style="stroke: #A80036; stroke-width: 1.5;" x1="52" x2="259" y1="307.5" y2="307.5"/><line style="stroke: #A80036; stroke-width: 1.5;" x1="52" x2="259" y1="315.5" y2="315.5"/><!--class Handler--><rect fill="#FEFECE" height="48" id="Handler" style="stroke: #A80036; stroke-width: 1.5;" width="263" x="6" y="586"/><ellipse cx="21" cy="602" fill="#ADD1B2" rx="11" ry="11" style="stroke: #A80036; stroke-width: 1.0;"/><path d="M23.9731,607.6431 Q23.3921,607.9419 22.7529,608.0913 Q22.1138,608.2407 21.4082,608.2407 Q18.9014,608.2407 17.5815,606.5889 Q16.2617,604.937 16.2617,601.8159 Q16.2617,598.6865 17.5815,597.0347 Q18.9014,595.3828 21.4082,595.3828 Q22.1138,595.3828 22.7612,595.5322 Q23.4087,595.6816 23.9731,595.9805 L23.9731,598.7031 Q23.3423,598.1221 22.7488,597.8523 Q22.1553,597.5825 21.5244,597.5825 Q20.1797,597.5825 19.4949,598.6492 Q18.8101,599.7158 18.8101,601.8159 Q18.8101,603.9077 19.4949,604.9744 Q20.1797,606.041 21.5244,606.041 Q22.1553,606.041 22.7488,605.7712 Q23.3423,605.5015 23.9731,604.9204 Z "/><text fill="#000000" font-family="sans-serif" font-size="12" lengthAdjust="spacingAndGlyphs" textLength="231" x="35" y="606.5352">CefMessageRouterBrowserSide::Handler</text><line style="stroke: #A80036; stroke-width: 1.5;" x1="7" x2="268" y1="618" y2="618"/><line style="stroke: #A80036; stroke-width: 1.5;" x1="7" x2="268" y1="626" y2="626"/><!--link cefapp::App to cefapp::AppHandler--><path d="M454.8051,104.4505 C439.6316,138.7426 414.7799,194.9075 395.6315,238.1828 " fill="none" id="cefapp::App-cefapp::AppHandler" style="stroke: #A80036; stroke-width: 1.0; stroke-dasharray: 7.0,7.0;"/><polygon fill="#A80036" points="393.5618,242.8603,400.8615,236.2487,395.5851,238.2879,393.5458,233.0115,393.5618,242.8603" style="stroke: #A80036; stroke-width: 1.0;"/><text fill="#000000" font-family="sans-serif" font-size="13" lengthAdjust="spacingAndGlyphs" textLength="45" x="428.5" y="178.5684">creates</text><!--link cefapp::App to cefapp::FileSchemeHandlerFactory--><path d="M482.1949,104.4505 C501.6127,148.3347 536.8803,228.0395 555.7615,270.711 " fill="none" id="cefapp::App-cefapp::FileSchemeHandlerFactory" style="stroke: #A80036; stroke-width: 1.0;"/><polygon fill="#A80036" points="557.8697,275.4754,557.8857,265.6266,555.8464,270.903,550.57,268.8638,557.8697,275.4754" style="stroke: #A80036; stroke-width: 1.0;"/><text fill="#000000" font-family="sans-serif" font-size="13" lengthAdjust="spacingAndGlyphs" textLength="55" x="516.5" y="178.5684">registers</text><!--link CefMessageRouterBrowserSide to cefapp::AppHandler--><path d="M260.3359,299.5 C267.4637,299.5 274.5914,299.5 281.7192,299.5 " fill="none" id="CefMessageRouterBrowserSide-cefapp::AppHandler" style="stroke: #A80036; stroke-width: 1.0;"/><polygon fill="#FFFFFF" points="294.9822,299.5,288.9822,295.5,282.9822,299.5,288.9822,303.5,294.9822,299.5" style="stroke: #A80036; stroke-width: 1.0;"/><text fill="#000000" font-family="sans-serif" font-size="13" lengthAdjust="spacingAndGlyphs" textLength="8" x="278.9882" y="296.3225">1</text><!--link cefapp::AppHandler to cefapp::MessageDispatcher--><path d="M377.0287,369.1883 C384.1223,427.1507 394.0477,508.2513 400.3753,559.9545 " fill="none" id="cefapp::AppHandler-cefapp::MessageDispatcher" style="stroke: #A80036; stroke-width: 1.0;"/><polygon fill="#A80036" points="375.4256,356.0894,372.1841,362.5309,376.8834,368.0005,380.1249,361.559,375.4256,356.0894" style="stroke: #A80036; stroke-width: 1.0;"/><text fill="#000000" font-family="sans-serif" font-size="13" lengthAdjust="spacingAndGlyphs" textLength="8" x="367.7822" y="376.5013">1</text><!--link Handler to cefapp::MessageDispatcher--><path d="M289.2777,610 C294.1833,610 299.0889,610 303.9944,610 " fill="none" id="Handler-cefapp::MessageDispatcher" style="stroke: #A80036; stroke-width: 1.0;"/><polygon fill="none" points="289.1104,616.9999,269.1104,610,289.1103,602.9999,289.1104,616.9999" style="stroke: #A80036; stroke-width: 1.0;"/><!--link cefapp::MessageDispatcher to backend::BackendMessageHandler--><path d="M498.1676,669.1678 C519.1893,689.898 535.5,715.4906 535.5,745 C535.5,745 535.5,745 535.5,1017.5 C535.5,1050.5477 616.5965,1076.4127 683.9129,1092.1899 " fill="none" id="cefapp::MessageDispatcher-backend::BackendMessageHandler" style="stroke: #A80036; stroke-width: 1.0;"/><polygon fill="#A80036" points="488.5631,660.2873,490.2529,667.2976,497.3739,668.4341,495.6841,661.4238,488.5631,660.2873" style="stroke: #A80036; stroke-width: 1.0;"/><text fill="#000000" font-family="sans-serif" font-size="13" lengthAdjust="spacingAndGlyphs" textLength="22" x="475.6681" y="680.2911">1..*</text><!--link cefapp::AppHandler to backend::BackendFactory--><path d="M442.0259,347.3146 C448.1601,350.4806 454.3637,353.4267 460.5,356 C469.3219,359.6995 711.729,419.1824 838.2314,450.1186 " fill="none" id="cefapp::AppHandler-backend::BackendFactory" style="stroke: #A80036; stroke-width: 1.0; stroke-dasharray: 7.0,7.0;"/><polygon fill="#A80036" points="843.4241,451.3884,835.6319,445.365,838.5672,450.2007,833.7315,453.136,843.4241,451.3884" style="stroke: #A80036; stroke-width: 1.0;"/><text fill="#000000" font-family="sans-serif" font-size="13" lengthAdjust="spacingAndGlyphs" textLength="29" x="638.5" y="399.5684">uses</text><!--link backend::ExecutionGraphBackend to backend::Backend--><path d="M982.5,1133.8084 C982.5,1161.8244 982.5,1208.4285 982.5,1242.8907 " fill="none" id="backend::ExecutionGraphBackend-backend::Backend" style="stroke: #A80036; stroke-width: 1.0;"/><polygon fill="none" points="989.5001,1242.9852,982.5,1262.9851,975.5001,1242.9851,989.5001,1242.9852" style="stroke: #A80036; stroke-width: 1.0;"/><!--link backend::DummyBackendMsgHandler to backend::BackendMessageHandler--><path d="M809.6112,956.3084 C803.2111,982.7274 792.8067,1025.6757 784.6406,1059.3846 " fill="none" id="backend::DummyBackendMsgHandler-backend::BackendMessageHandler" style="stroke: #A80036; stroke-width: 1.0;"/><polygon fill="none" points="791.4133,1061.1592,779.9011,1078.9488,777.8069,1057.8629,791.4133,1061.1592" style="stroke: #A80036; stroke-width: 1.0;"/><!--link backend::BackendFactory to backend::CreatorExecutionGraphBackend--><path d="M913.5,499.1468 C913.5,552.7061 913.5,662.6527 913.5,715.439 " fill="none" id="backend::BackendFactory-backend::CreatorExecutionGraphBackend" style="stroke: #A80036; stroke-width: 1.0; stroke-dasharray: 7.0,7.0;"/><polygon fill="#A80036" points="913.5,720.6708,917.5,711.6708,913.5,715.6708,909.5,711.6708,913.5,720.6708" style="stroke: #A80036; stroke-width: 1.0;"/><text fill="#000000" font-family="sans-serif" font-size="13" lengthAdjust="spacingAndGlyphs" textLength="29" x="914.5" y="615.0684">uses</text><!--link backend::CreatorExecutionGraphBackend to backend::ExecutionGraphBackend--><path d="M944.7698,769.287 C963.0264,786.3897 982.5,811.0631 982.5,838.5 C982.5,838.5 982.5,838.5 982.5,1017.5 C982.5,1038.3437 982.5,1061.8439 982.5,1079.8756 " fill="none" id="backend::CreatorExecutionGraphBackend-backend::ExecutionGraphBackend" style="stroke: #A80036; stroke-width: 1.0; stroke-dasharray: 7.0,7.0;"/><polygon fill="#A80036" points="982.5,1085.2871,986.5,1076.2871,982.5,1080.2871,978.5,1076.2871,982.5,1085.2871" style="stroke: #A80036; stroke-width: 1.0;"/><text fill="#000000" font-family="sans-serif" font-size="13" lengthAdjust="spacingAndGlyphs" textLength="76" x="983.5" y="937.0684">instanciates</text><!--link backend::CreatorExecutionGraphBackend to backend::DummyBackendMsgHandler--><path d="M900.8888,769.0642 C882.9296,803.3333 850.0296,866.1118 830.7324,902.9342 " fill="none" id="backend::CreatorExecutionGraphBackend-backend::DummyBackendMsgHandler" style="stroke: #A80036; stroke-width: 1.0; stroke-dasharray: 7.0,7.0;"/><polygon fill="#A80036" points="828.218,907.732,835.9385,901.617,830.5389,903.3033,828.8526,897.9036,828.218,907.732" style="stroke: #A80036; stroke-width: 1.0;"/><text fill="#000000" font-family="sans-serif" font-size="13" lengthAdjust="spacingAndGlyphs" textLength="76" x="868.5" y="843.5684">instanciates</text><!--link backend::DummyBackendMsgHandler to backend::ExecutionGraphBackend--><path d="M847.5761,966.0929 C880.514,1001.1017 930.9343,1054.6922 959.9057,1085.4851 " fill="none" id="backend::DummyBackendMsgHandler-backend::ExecutionGraphBackend" style="stroke: #A80036; stroke-width: 1.0;"/><polygon fill="#A80036" points="838.3705,956.3084,839.5686,963.4193,846.5933,965.0483,845.3952,957.9374,838.3705,956.3084" style="stroke: #A80036; stroke-width: 1.0;"/><text fill="#000000" font-family="sans-serif" font-size="13" lengthAdjust="spacingAndGlyphs" textLength="8" x="834.9702" y="976.6679">1</text><!--link backend::BackendFactory to executionGraph::StaticFactory--><path d="M983.7422,468.5 C1018.3679,468.5 1052.9936,468.5 1087.6194,468.5 " fill="none" id="backend::BackendFactory-executionGraph::StaticFactory" style="stroke: #A80036; stroke-width: 1.0; stroke-dasharray: 7.0,7.0;"/><polygon fill="#A80036" points="1092.7281,468.5,1083.7281,464.5,1087.7281,468.5,1083.7281,472.5,1092.7281,468.5" style="stroke: #A80036; stroke-width: 1.0;"/><!--
@startuml
set namespaceSeparator ::
skinparam shadowing false

class CefMessageRouterBrowserSide
class Handler as "CefMessageRouterBrowserSide::Handler"

namespace cefapp{
    class App{
        + OnContextInitialized()
    }
    class AppHandler #D3D3D3{
        + OnAfterCreated()
        + OnBeforeCloses()
        - m_router
        - m_messageDispatcher
        - initializeBackends()
    }

    class MessageDispatcher {
        + AddHandler(backendHandler)
        + RemoveHandler(backendHandler)
        - m_handlers
        - m_handlerMap
    }
    class FileSchemeHandlerFactory
}


cefapp::App ..> cefapp::AppHandler : creates
cefapp::App - -> cefapp::FileSchemeHandlerFactory : registers

cefapp::AppHandler "1" o-left- CefMessageRouterBrowserSide
cefapp::AppHandler "1" *- - cefapp::MessageDispatcher
cefapp::MessageDispatcher -left-|> Handler
cefapp::MessageDispatcher "1..*" *- - - backend::BackendMessageHandler

namespace backend {
    class Backend #D3D3D3
    class BackendMessageHandler #D3D3D3{
        + OnQuery(...) {abstract} 
    }

    class BackendFactory {
        + BackendData Create() {static}
    }

    class CreatorExecutionGraphBackend

    class DummyBackendMsgHandler
}

namespace executionGraph {
    class StaticFactory<T...>
}

cefapp::AppHandler ..> backend::BackendFactory : uses

backend::ExecutionGraphBackend - -|> backend::Backend
backend::DummyBackendMsgHandler - -|> backend::BackendMessageHandler

backend::BackendFactory ..> backend::CreatorExecutionGraphBackend : uses

backend::CreatorExecutionGraphBackend ..> backend::ExecutionGraphBackend : instanciates
backend::CreatorExecutionGraphBackend ..> backend::DummyBackendMsgHandler : instanciates

backend::DummyBackendMsgHandler "1" *- - backend::ExecutionGraphBackend

backend::BackendFactory .right.> executionGraph::StaticFactory

@enduml

PlantUML version 1.2017.20(Mon Dec 11 17:57:05 CET 2017)
(GPL source distribution)
Java Runtime: Java(TM) SE Runtime Environment
JVM: Java HotSpot(TM) 64-Bit Server VM
Java Version: 9.0.4+11
Operating System: Mac OS X
OS Version: 10.11.6
Default Encoding: UTF-8
Language: de
Country: DE
--></g></svg>