<?xml version="1.0" encoding="UTF-8" standalone="no"?><svg xmlns="http://www.w3.org/2000/svg" xmlns:xlink="http://www.w3.org/1999/xlink" contentScriptType="application/ecmascript" contentStyleType="text/css" height="986px" preserveAspectRatio="none" style="width:1350px;height:986px;" version="1.1" viewBox="0 0 1350 986" width="1350px" zoomAndPan="magnify"><defs/><g><!--cluster cefapp--><polygon fill="#FFFFFF" points="28.5,16,81.5,16,88.5,38.4883,669.5,38.4883,669.5,497,28.5,497,28.5,16" style="stroke: #000000; stroke-width: 1.5;"/><line style="stroke: #000000; stroke-width: 1.5;" x1="28.5" x2="88.5" y1="38.4883" y2="38.4883"/><text fill="#000000" font-family="sans-serif" font-size="14" font-weight="bold" lengthAdjust="spacingAndGlyphs" textLength="47" x="32.5" y="31.5352">cefapp</text><!--cluster backend--><polygon fill="#FFFFFF" points="740.5,211,805.5,211,812.5,233.4883,1141.5,233.4883,1141.5,974,740.5,974,740.5,211" style="stroke: #000000; stroke-width: 1.5;"/><line style="stroke: #000000; stroke-width: 1.5;" x1="740.5" x2="812.5" y1="233.4883" y2="233.4883"/><text fill="#000000" font-family="sans-serif" font-size="14" font-weight="bold" lengthAdjust="spacingAndGlyphs" textLength="59" x="744.5" y="226.5352">backend</text><!--cluster executionGraph--><polygon fill="#FFFFFF" points="1149.5,381.5,1266.5,381.5,1273.5,403.9883,1293.5,403.9883,1293.5,464.5,1149.5,464.5,1149.5,381.5" style="stroke: #000000; stroke-width: 1.5;"/><line style="stroke: #000000; stroke-width: 1.5;" x1="1149.5" x2="1273.5" y1="403.9883" y2="403.9883"/><text fill="#000000" font-family="sans-serif" font-size="14" font-weight="bold" lengthAdjust="spacingAndGlyphs" textLength="111" x="1153.5" y="397.0352">executionGraph</text><!--class cefapp::App--><rect fill="#FEFECE" height="86.8652" id="cefapp::App" style="stroke: #A80036; stroke-width: 1.5;" width="147" x="237" y="56"/><ellipse cx="294.25" cy="72" fill="#ADD1B2" rx="11" ry="11" style="stroke: #A80036; stroke-width: 1.0;"/><path d="M297.2231,77.6431 Q296.6421,77.9419 296.0029,78.0913 Q295.3638,78.2407 294.6582,78.2407 Q292.1514,78.2407 290.8315,76.5889 Q289.5117,74.937 289.5117,71.8159 Q289.5117,68.6865 290.8315,67.0347 Q292.1514,65.3828 294.6582,65.3828 Q295.3638,65.3828 296.0112,65.5322 Q296.6587,65.6816 297.2231,65.9805 L297.2231,68.7031 Q296.5923,68.1221 295.9988,67.8523 Q295.4053,67.5825 294.7744,67.5825 Q293.4297,67.5825 292.7449,68.6492 Q292.0601,69.7158 292.0601,71.8159 Q292.0601,73.9077 292.7449,74.9744 Q293.4297,76.041 294.7744,76.041 Q295.4053,76.041 295.9988,75.7712 Q296.5923,75.5015 297.2231,74.9204 Z "/><text fill="#000000" font-family="sans-serif" font-size="12" lengthAdjust="spacingAndGlyphs" textLength="24" x="314.75" y="76.5352">App</text><line style="stroke: #A80036; stroke-width: 1.5;" x1="238" x2="383" y1="88" y2="88"/><rect fill="none" height="6" style="stroke: #C82930; stroke-width: 1.0;" width="6" x="245" y="96.9775"/><text fill="#000000" font-family="sans-serif" font-size="11" lengthAdjust="spacingAndGlyphs" textLength="78" x="257" y="102.6348">m_appHandler</text><rect fill="none" height="6" style="stroke: #C82930; stroke-width: 1.0;" width="6" x="245" y="109.9326"/><text fill="#000000" font-family="sans-serif" font-size="11" lengthAdjust="spacingAndGlyphs" textLength="121" x="257" y="115.5898">m_messageDispatcher</text><line style="stroke: #A80036; stroke-width: 1.5;" x1="238" x2="383" y1="121.9102" y2="121.9102"/><ellipse cx="248" cy="133.8877" fill="#84BE84" rx="3" ry="3" style="stroke: #038048; stroke-width: 1.0;"/><text fill="#000000" font-family="sans-serif" font-size="11" lengthAdjust="spacingAndGlyphs" textLength="118" x="257" y="136.5449">OnContextInitialized()</text><!--class cefapp::AppHandler--><rect fill="#D3D3D3" height="112.7754" id="cefapp::AppHandler" style="stroke: #A80036; stroke-width: 1.5;" width="147" x="37" y="376"/><rect fill="#D3D3D3" height="32" style="stroke: #A80036; stroke-width: 1.5;" width="147" x="37" y="376"/><ellipse cx="72.25" cy="392" fill="#ADD1B2" rx="11" ry="11" style="stroke: #A80036; stroke-width: 1.0;"/><path d="M75.2231,397.6431 Q74.6421,397.9419 74.0029,398.0913 Q73.3638,398.2407 72.6582,398.2407 Q70.1514,398.2407 68.8315,396.5889 Q67.5117,394.937 67.5117,391.8159 Q67.5117,388.6865 68.8315,387.0347 Q70.1514,385.3828 72.6582,385.3828 Q73.3638,385.3828 74.0112,385.5322 Q74.6587,385.6816 75.2231,385.9805 L75.2231,388.7031 Q74.5923,388.1221 73.9988,387.8523 Q73.4053,387.5825 72.7744,387.5825 Q71.4297,387.5825 70.7449,388.6492 Q70.0601,389.7158 70.0601,391.8159 Q70.0601,393.9077 70.7449,394.9744 Q71.4297,396.041 72.7744,396.041 Q73.4053,396.041 73.9988,395.7712 Q74.5923,395.5015 75.2231,394.9204 Z "/><text fill="#000000" font-family="sans-serif" font-size="12" lengthAdjust="spacingAndGlyphs" textLength="70" x="90.75" y="396.5352">AppHandler</text><line style="stroke: #A80036; stroke-width: 1.5;" x1="38" x2="183" y1="408" y2="408"/><rect fill="none" height="6" style="stroke: #C82930; stroke-width: 1.0;" width="6" x="45" y="416.9775"/><text fill="#000000" font-family="sans-serif" font-size="11" lengthAdjust="spacingAndGlyphs" textLength="50" x="57" y="422.6348">m_router</text><rect fill="none" height="6" style="stroke: #C82930; stroke-width: 1.0;" width="6" x="45" y="429.9326"/><text fill="#000000" font-family="sans-serif" font-size="11" lengthAdjust="spacingAndGlyphs" textLength="121" x="57" y="435.5898">m_messageDispatcher</text><line style="stroke: #A80036; stroke-width: 1.5;" x1="38" x2="183" y1="441.9102" y2="441.9102"/><ellipse cx="48" cy="453.8877" fill="#84BE84" rx="3" ry="3" style="stroke: #038048; stroke-width: 1.0;"/><text fill="#000000" font-family="sans-serif" font-size="11" lengthAdjust="spacingAndGlyphs" textLength="93" x="57" y="456.5449">OnAfterCreated()</text><ellipse cx="48" cy="466.8428" fill="#84BE84" rx="3" ry="3" style="stroke: #038048; stroke-width: 1.0;"/><text fill="#000000" font-family="sans-serif" font-size="11" lengthAdjust="spacingAndGlyphs" textLength="94" x="57" y="469.5">OnBeforeCloses()</text><rect fill="#F24D5C" height="6" style="stroke: #C82930; stroke-width: 1.0;" width="6" x="45" y="476.7979"/><text fill="#000000" font-family="sans-serif" font-size="11" lengthAdjust="spacingAndGlyphs" textLength="102" x="57" y="482.4551">initializeBackends()</text><!--class cefapp::MessageDispatcher--><rect fill="#FEFECE" height="112.7754" id="cefapp::MessageDispatcher" style="stroke: #A80036; stroke-width: 1.5;" width="242" x="419.5" y="43"/><ellipse cx="480.25" cy="59" fill="#ADD1B2" rx="11" ry="11" style="stroke: #A80036; stroke-width: 1.0;"/><path d="M483.2231,64.6431 Q482.6421,64.9419 482.0029,65.0913 Q481.3638,65.2407 480.6582,65.2407 Q478.1514,65.2407 476.8315,63.5889 Q475.5117,61.937 475.5117,58.8159 Q475.5117,55.6865 476.8315,54.0347 Q478.1514,52.3828 480.6582,52.3828 Q481.3638,52.3828 482.0112,52.5322 Q482.6587,52.6816 483.2231,52.9805 L483.2231,55.7031 Q482.5923,55.1221 481.9988,54.8523 Q481.4053,54.5825 480.7744,54.5825 Q479.4297,54.5825 478.7449,55.6492 Q478.0601,56.7158 478.0601,58.8159 Q478.0601,60.9077 478.7449,61.9744 Q479.4297,63.041 480.7744,63.041 Q481.4053,63.041 481.9988,62.7712 Q482.5923,62.5015 483.2231,61.9204 Z "/><text fill="#000000" font-family="sans-serif" font-size="12" lengthAdjust="spacingAndGlyphs" textLength="112" x="500.75" y="63.5352">MessageDispatcher</text><line style="stroke: #A80036; stroke-width: 1.5;" x1="420.5" x2="660.5" y1="75" y2="75"/><rect fill="none" height="6" style="stroke: #C82930; stroke-width: 1.0;" width="6" x="427.5" y="83.9775"/><text fill="#000000" font-family="sans-serif" font-size="11" lengthAdjust="spacingAndGlyphs" textLength="104" x="439.5" y="89.6348">m_generalHandlers</text><rect fill="none" height="6" style="stroke: #C82930; stroke-width: 1.0;" width="6" x="427.5" y="96.9326"/><text fill="#000000" font-family="sans-serif" font-size="11" lengthAdjust="spacingAndGlyphs" textLength="105" x="439.5" y="102.5898">m_specificHandlers</text><rect fill="none" height="6" style="stroke: #C82930; stroke-width: 1.0;" width="6" x="427.5" y="109.8877"/><text fill="#000000" font-family="sans-serif" font-size="11" lengthAdjust="spacingAndGlyphs" textLength="79" x="439.5" y="115.5449">m_handlerMap</text><line style="stroke: #A80036; stroke-width: 1.5;" x1="420.5" x2="660.5" y1="121.8652" y2="121.8652"/><ellipse cx="430.5" cy="133.8428" fill="#84BE84" rx="3" ry="3" style="stroke: #038048; stroke-width: 1.0;"/><text fill="#000000" font-family="sans-serif" font-size="11" lengthAdjust="spacingAndGlyphs" textLength="216" x="439.5" y="136.5">AddHandler(backendHandler, requestId)</text><ellipse cx="430.5" cy="146.7979" fill="#84BE84" rx="3" ry="3" style="stroke: #038048; stroke-width: 1.0;"/><text fill="#000000" font-family="sans-serif" font-size="11" lengthAdjust="spacingAndGlyphs" textLength="102" x="439.5" y="149.4551">RemoveHandler(id)</text><!--class cefapp::ClientSchemeHandlerFactory--><rect fill="#FEFECE" height="48" id="cefapp::ClientSchemeHandlerFactory" style="stroke: #A80036; stroke-width: 1.5;" width="195" x="219" y="408.5"/><ellipse cx="234" cy="424.5" fill="#ADD1B2" rx="11" ry="11" style="stroke: #A80036; stroke-width: 1.0;"/><path d="M236.9731,430.1431 Q236.3921,430.4419 235.7529,430.5913 Q235.1138,430.7407 234.4082,430.7407 Q231.9014,430.7407 230.5815,429.0889 Q229.2617,427.437 229.2617,424.3159 Q229.2617,421.1865 230.5815,419.5347 Q231.9014,417.8828 234.4082,417.8828 Q235.1138,417.8828 235.7612,418.0322 Q236.4087,418.1816 236.9731,418.4805 L236.9731,421.2031 Q236.3423,420.6221 235.7488,420.3523 Q235.1553,420.0825 234.5244,420.0825 Q233.1797,420.0825 232.4949,421.1492 Q231.8101,422.2158 231.8101,424.3159 Q231.8101,426.4077 232.4949,427.4744 Q233.1797,428.541 234.5244,428.541 Q235.1553,428.541 235.7488,428.2712 Q236.3423,428.0015 236.9731,427.4204 Z "/><text fill="#000000" font-family="sans-serif" font-size="12" lengthAdjust="spacingAndGlyphs" textLength="163" x="248" y="429.0352">ClientSchemeHandlerFactory</text><line style="stroke: #A80036; stroke-width: 1.5;" x1="220" x2="413" y1="440.5" y2="440.5"/><line style="stroke: #A80036; stroke-width: 1.5;" x1="220" x2="413" y1="448.5" y2="448.5"/><!--class cefapp::BackendSchemeHandlerFactory--><rect fill="#FEFECE" height="48" id="cefapp::BackendSchemeHandlerFactory" style="stroke: #A80036; stroke-width: 1.5;" width="212" x="449.5" y="408.5"/><ellipse cx="464.5" cy="424.5" fill="#ADD1B2" rx="11" ry="11" style="stroke: #A80036; stroke-width: 1.0;"/><path d="M467.4731,430.1431 Q466.8921,430.4419 466.2529,430.5913 Q465.6138,430.7407 464.9082,430.7407 Q462.4014,430.7407 461.0815,429.0889 Q459.7617,427.437 459.7617,424.3159 Q459.7617,421.1865 461.0815,419.5347 Q462.4014,417.8828 464.9082,417.8828 Q465.6138,417.8828 466.2612,418.0322 Q466.9087,418.1816 467.4731,418.4805 L467.4731,421.2031 Q466.8423,420.6221 466.2488,420.3523 Q465.6553,420.0825 465.0244,420.0825 Q463.6797,420.0825 462.9949,421.1492 Q462.3101,422.2158 462.3101,424.3159 Q462.3101,426.4077 462.9949,427.4744 Q463.6797,428.541 465.0244,428.541 Q465.6553,428.541 466.2488,428.2712 Q466.8423,428.0015 467.4731,427.4204 Z "/><text fill="#000000" font-family="sans-serif" font-size="12" lengthAdjust="spacingAndGlyphs" textLength="180" x="478.5" y="429.0352">BackendSchemeHandlerFactory</text><line style="stroke: #A80036; stroke-width: 1.5;" x1="450.5" x2="660.5" y1="440.5" y2="440.5"/><line style="stroke: #A80036; stroke-width: 1.5;" x1="450.5" x2="660.5" y1="448.5" y2="448.5"/><!--class backend::BackendMessageHandler--><rect fill="#D3D3D3" height="73.9102" id="backend::BackendMessageHandler" style="stroke: #A80036; stroke-width: 1.5;" width="177" x="956" y="721"/><rect fill="#D3D3D3" height="32" style="stroke: #A80036; stroke-width: 1.5;" width="177" x="956" y="721"/><ellipse cx="971" cy="737" fill="#ADD1B2" rx="11" ry="11" style="stroke: #A80036; stroke-width: 1.0;"/><path d="M973.9731,742.6431 Q973.3921,742.9419 972.7529,743.0913 Q972.1138,743.2407 971.4082,743.2407 Q968.9014,743.2407 967.5815,741.5889 Q966.2617,739.937 966.2617,736.8159 Q966.2617,733.6865 967.5815,732.0347 Q968.9014,730.3828 971.4082,730.3828 Q972.1138,730.3828 972.7612,730.5322 Q973.4087,730.6816 973.9731,730.9805 L973.9731,733.7031 Q973.3423,733.1221 972.7488,732.8523 Q972.1553,732.5825 971.5244,732.5825 Q970.1797,732.5825 969.4949,733.6492 Q968.8101,734.7158 968.8101,736.8159 Q968.8101,738.9077 969.4949,739.9744 Q970.1797,741.041 971.5244,741.041 Q972.1553,741.041 972.7488,740.7712 Q973.3423,740.5015 973.9731,739.9204 Z "/><text fill="#000000" font-family="sans-serif" font-size="12" lengthAdjust="spacingAndGlyphs" textLength="145" x="985" y="741.5352">BackendMessageHandler</text><line style="stroke: #A80036; stroke-width: 1.5;" x1="957" x2="1132" y1="753" y2="753"/><line style="stroke: #A80036; stroke-width: 1.5;" x1="957" x2="1132" y1="761" y2="761"/><ellipse cx="967" cy="772.9775" fill="#84BE84" rx="3" ry="3" style="stroke: #038048; stroke-width: 1.0;"/><text fill="#000000" font-family="sans-serif" font-size="11" font-style="italic" lengthAdjust="spacingAndGlyphs" textLength="66" x="976" y="775.6348">OnQuery(...)</text><ellipse cx="967" cy="785.9326" fill="#84BE84" rx="3" ry="3" style="stroke: #038048; stroke-width: 1.0;"/><text fill="#000000" font-family="sans-serif" font-size="11" font-style="italic" lengthAdjust="spacingAndGlyphs" textLength="76" x="976" y="788.5898">OnRequest(...)</text><!--class backend::Backend--><rect fill="#D3D3D3" height="48" id="backend::Backend" style="stroke: #A80036; stroke-width: 1.5;" width="81" x="794" y="918"/><rect fill="#D3D3D3" height="32" style="stroke: #A80036; stroke-width: 1.5;" width="81" x="794" y="918"/><ellipse cx="809" cy="934" fill="#ADD1B2" rx="11" ry="11" style="stroke: #A80036; stroke-width: 1.0;"/><path d="M811.9731,939.6431 Q811.3921,939.9419 810.7529,940.0913 Q810.1138,940.2407 809.4082,940.2407 Q806.9014,940.2407 805.5815,938.5889 Q804.2617,936.937 804.2617,933.8159 Q804.2617,930.6865 805.5815,929.0347 Q806.9014,927.3828 809.4082,927.3828 Q810.1138,927.3828 810.7612,927.5322 Q811.4087,927.6816 811.9731,927.9805 L811.9731,930.7031 Q811.3423,930.1221 810.7488,929.8523 Q810.1553,929.5825 809.5244,929.5825 Q808.1797,929.5825 807.4949,930.6492 Q806.8101,931.7158 806.8101,933.8159 Q806.8101,935.9077 807.4949,936.9744 Q808.1797,938.041 809.5244,938.041 Q810.1553,938.041 810.7488,937.7712 Q811.3423,937.5015 811.9731,936.9204 Z "/><text fill="#000000" font-family="sans-serif" font-size="12" lengthAdjust="spacingAndGlyphs" textLength="49" x="823" y="938.5352">Backend</text><line style="stroke: #A80036; stroke-width: 1.5;" x1="795" x2="874" y1="950" y2="950"/><line style="stroke: #A80036; stroke-width: 1.5;" x1="795" x2="874" y1="958" y2="958"/><!--class backend::BackendFactory--><rect fill="#FEFECE" height="60.9551" id="backend::BackendFactory" style="stroke: #A80036; stroke-width: 1.5;" width="140" x="872.5" y="238"/><ellipse cx="895.6" cy="254" fill="#ADD1B2" rx="11" ry="11" style="stroke: #A80036; stroke-width: 1.0;"/><path d="M898.5731,259.6431 Q897.9921,259.9419 897.3529,260.0913 Q896.7138,260.2407 896.0082,260.2407 Q893.5014,260.2407 892.1815,258.5889 Q890.8617,256.937 890.8617,253.8159 Q890.8617,250.6865 892.1815,249.0347 Q893.5014,247.3828 896.0082,247.3828 Q896.7138,247.3828 897.3612,247.5322 Q898.0087,247.6816 898.5731,247.9805 L898.5731,250.7031 Q897.9423,250.1221 897.3488,249.8523 Q896.7553,249.5825 896.1244,249.5825 Q894.7797,249.5825 894.0949,250.6492 Q893.4101,251.7158 893.4101,253.8159 Q893.4101,255.9077 894.0949,256.9744 Q894.7797,258.041 896.1244,258.041 Q896.7553,258.041 897.3488,257.7712 Q897.9423,257.5015 898.5731,256.9204 Z "/><text fill="#000000" font-family="sans-serif" font-size="12" lengthAdjust="spacingAndGlyphs" textLength="90" x="911.4" y="258.5352">BackendFactory</text><line style="stroke: #A80036; stroke-width: 1.5;" x1="873.5" x2="1011.5" y1="270" y2="270"/><line style="stroke: #A80036; stroke-width: 1.5;" x1="873.5" x2="1011.5" y1="278" y2="278"/><ellipse cx="883.5" cy="289.9775" fill="#84BE84" rx="3" ry="3" style="stroke: #038048; stroke-width: 1.0;"/><text fill="#000000" font-family="sans-serif" font-size="11" lengthAdjust="spacingAndGlyphs" text-decoration="underline" textLength="114" x="892.5" y="292.6348">BackendData Create()</text><line style="stroke: #000000; stroke-width: 1.0;" x1="892.5" x2="1006.5" y1="294.6348" y2="294.6348"/><!--class backend::DummyBackendMsgHandler--><rect fill="#FEFECE" height="48" id="backend::DummyBackendMsgHandler" style="stroke: #A80036; stroke-width: 1.5;" width="194" x="748.5" y="550"/><ellipse cx="763.5" cy="566" fill="#ADD1B2" rx="11" ry="11" style="stroke: #A80036; stroke-width: 1.0;"/><path d="M766.4731,571.6431 Q765.8921,571.9419 765.2529,572.0913 Q764.6138,572.2407 763.9082,572.2407 Q761.4014,572.2407 760.0815,570.5889 Q758.7617,568.937 758.7617,565.8159 Q758.7617,562.6865 760.0815,561.0347 Q761.4014,559.3828 763.9082,559.3828 Q764.6138,559.3828 765.2612,559.5322 Q765.9087,559.6816 766.4731,559.9805 L766.4731,562.7031 Q765.8423,562.1221 765.2488,561.8523 Q764.6553,561.5825 764.0244,561.5825 Q762.6797,561.5825 761.9949,562.6492 Q761.3101,563.7158 761.3101,565.8159 Q761.3101,567.9077 761.9949,568.9744 Q762.6797,570.041 764.0244,570.041 Q764.6553,570.041 765.2488,569.7712 Q765.8423,569.5015 766.4731,568.9204 Z "/><text fill="#000000" font-family="sans-serif" font-size="12" lengthAdjust="spacingAndGlyphs" textLength="162" x="777.5" y="570.5352">DummyBackendMsgHandler</text><line style="stroke: #A80036; stroke-width: 1.5;" x1="749.5" x2="941.5" y1="582" y2="582"/><line style="stroke: #A80036; stroke-width: 1.5;" x1="749.5" x2="941.5" y1="590" y2="590"/><!--class backend::ExecutionGraphBackend--><rect fill="#FEFECE" height="48" id="backend::ExecutionGraphBackend" style="stroke: #A80036; stroke-width: 1.5;" width="172" x="748.5" y="734"/><ellipse cx="763.5" cy="750" fill="#ADD1B2" rx="11" ry="11" style="stroke: #A80036; stroke-width: 1.0;"/><path d="M766.4731,755.6431 Q765.8921,755.9419 765.2529,756.0913 Q764.6138,756.2407 763.9082,756.2407 Q761.4014,756.2407 760.0815,754.5889 Q758.7617,752.937 758.7617,749.8159 Q758.7617,746.6865 760.0815,745.0347 Q761.4014,743.3828 763.9082,743.3828 Q764.6138,743.3828 765.2612,743.5322 Q765.9087,743.6816 766.4731,743.9805 L766.4731,746.7031 Q765.8423,746.1221 765.2488,745.8523 Q764.6553,745.5825 764.0244,745.5825 Q762.6797,745.5825 761.9949,746.6492 Q761.3101,747.7158 761.3101,749.8159 Q761.3101,751.9077 761.9949,752.9744 Q762.6797,754.041 764.0244,754.041 Q764.6553,754.041 765.2488,753.7712 Q765.8423,753.5015 766.4731,752.9204 Z "/><text fill="#000000" font-family="sans-serif" font-size="12" lengthAdjust="spacingAndGlyphs" textLength="140" x="777.5" y="754.5352">ExecutionGraphBackend</text><line style="stroke: #A80036; stroke-width: 1.5;" x1="749.5" x2="919.5" y1="766" y2="766"/><line style="stroke: #A80036; stroke-width: 1.5;" x1="749.5" x2="919.5" y1="774" y2="774"/><!--class executionGraph::StaticFactory--><rect fill="#FEFECE" height="48" id="executionGraph::StaticFactory" style="stroke: #A80036; stroke-width: 1.5;" width="127" x="1158" y="408.5"/><ellipse cx="1173" cy="424.5" fill="#ADD1B2" rx="11" ry="11" style="stroke: #A80036; stroke-width: 1.0;"/><path d="M1175.9731,430.1431 Q1175.3921,430.4419 1174.7529,430.5913 Q1174.1138,430.7407 1173.4082,430.7407 Q1170.9014,430.7407 1169.5815,429.0889 Q1168.2617,427.437 1168.2617,424.3159 Q1168.2617,421.1865 1169.5815,419.5347 Q1170.9014,417.8828 1173.4082,417.8828 Q1174.1138,417.8828 1174.7612,418.0322 Q1175.4087,418.1816 1175.9731,418.4805 L1175.9731,421.2031 Q1175.3423,420.6221 1174.7488,420.3523 Q1174.1553,420.0825 1173.5244,420.0825 Q1172.1797,420.0825 1171.4949,421.1492 Q1170.8101,422.2158 1170.8101,424.3159 Q1170.8101,426.4077 1171.4949,427.4744 Q1172.1797,428.541 1173.5244,428.541 Q1174.1553,428.541 1174.7488,428.2712 Q1175.3423,428.0015 1175.9731,427.4204 Z "/><text fill="#000000" font-family="sans-serif" font-size="12" lengthAdjust="spacingAndGlyphs" textLength="71" x="1187" y="429.0352">StaticFactory</text><rect fill="#FFFFFF" height="16.1328" style="stroke: #000000; stroke-width: 1.0; stroke-dasharray: 2.0,2.0;" width="22" x="1266" y="405.5"/><text fill="#000000" font-family="sans-serif" font-size="12" font-style="italic" lengthAdjust="spacingAndGlyphs" textLength="20" x="1267" y="418.1016">T...</text><line style="stroke: #A80036; stroke-width: 1.5;" x1="1159" x2="1284" y1="440.5" y2="440.5"/><line style="stroke: #A80036; stroke-width: 1.5;" x1="1159" x2="1284" y1="448.5" y2="448.5"/><!--class CefMessageRouterBrowserSide--><rect fill="#FEFECE" height="48" id="CefMessageRouterBrowserSide" style="stroke: #A80036; stroke-width: 1.5;" width="209" x="6" y="550"/><ellipse cx="21" cy="566" fill="#ADD1B2" rx="11" ry="11" style="stroke: #A80036; stroke-width: 1.0;"/><path d="M23.9731,571.6431 Q23.3921,571.9419 22.7529,572.0913 Q22.1138,572.2407 21.4082,572.2407 Q18.9014,572.2407 17.5815,570.5889 Q16.2617,568.937 16.2617,565.8159 Q16.2617,562.6865 17.5815,561.0347 Q18.9014,559.3828 21.4082,559.3828 Q22.1138,559.3828 22.7612,559.5322 Q23.4087,559.6816 23.9731,559.9805 L23.9731,562.7031 Q23.3423,562.1221 22.7488,561.8523 Q22.1553,561.5825 21.5244,561.5825 Q20.1797,561.5825 19.4949,562.6492 Q18.8101,563.7158 18.8101,565.8159 Q18.8101,567.9077 19.4949,568.9744 Q20.1797,570.041 21.5244,570.041 Q22.1553,570.041 22.7488,569.7712 Q23.3423,569.5015 23.9731,568.9204 Z "/><text fill="#000000" font-family="sans-serif" font-size="12" lengthAdjust="spacingAndGlyphs" textLength="177" x="35" y="570.5352">CefMessageRouterBrowserSide</text><line style="stroke: #A80036; stroke-width: 1.5;" x1="7" x2="214" y1="582" y2="582"/><line style="stroke: #A80036; stroke-width: 1.5;" x1="7" x2="214" y1="590" y2="590"/><!--class Handler--><rect fill="#FEFECE" height="48" id="Handler" style="stroke: #A80036; stroke-width: 1.5;" width="263" x="350" y="550"/><ellipse cx="365" cy="566" fill="#ADD1B2" rx="11" ry="11" style="stroke: #A80036; stroke-width: 1.0;"/><path d="M367.9731,571.6431 Q367.3921,571.9419 366.7529,572.0913 Q366.1138,572.2407 365.4082,572.2407 Q362.9014,572.2407 361.5815,570.5889 Q360.2617,568.937 360.2617,565.8159 Q360.2617,562.6865 361.5815,561.0347 Q362.9014,559.3828 365.4082,559.3828 Q366.1138,559.3828 366.7612,559.5322 Q367.4087,559.6816 367.9731,559.9805 L367.9731,562.7031 Q367.3423,562.1221 366.7488,561.8523 Q366.1553,561.5825 365.5244,561.5825 Q364.1797,561.5825 363.4949,562.6492 Q362.8101,563.7158 362.8101,565.8159 Q362.8101,567.9077 363.4949,568.9744 Q364.1797,570.041 365.5244,570.041 Q366.1553,570.041 366.7488,569.7712 Q367.3423,569.5015 367.9731,568.9204 Z "/><text fill="#000000" font-family="sans-serif" font-size="12" lengthAdjust="spacingAndGlyphs" textLength="231" x="379" y="570.5352">CefMessageRouterBrowserSide::Handler</text><line style="stroke: #A80036; stroke-width: 1.5;" x1="351" x2="612" y1="582" y2="582"/><line style="stroke: #A80036; stroke-width: 1.5;" x1="351" x2="612" y1="590" y2="590"/><!--link cefapp::App to cefapp::AppHandler--><path d="M284.3535,143.0339 C249.2819,201.4281 186.8274,305.4149 147.0975,371.5651 " fill="none" id="cefapp::App-cefapp::AppHandler" style="stroke: #A80036; stroke-width: 1.0; stroke-dasharray: 7.0,7.0;"/><polygon fill="#A80036" points="144.514,375.8667,152.577,370.2109,147.0884,371.5804,145.7189,366.0918,144.514,375.8667" style="stroke: #A80036; stroke-width: 1.0;"/><text fill="#000000" font-family="sans-serif" font-size="13" lengthAdjust="spacingAndGlyphs" textLength="45" x="244.5" y="273.5684">creates</text><!--link cefapp::App to cefapp::ClientSchemeHandlerFactory--><path d="M311.2844,143.0339 C312.527,211.9998 314.9155,344.5611 315.9735,403.2774 " fill="none" id="cefapp::App-cefapp::ClientSchemeHandlerFactory" style="stroke: #A80036; stroke-width: 1.0; stroke-dasharray: 7.0,7.0;"/><polygon fill="#A80036" points="316.0656,408.3882,319.9027,399.3175,315.9755,403.389,311.904,399.4618,316.0656,408.3882" style="stroke: #A80036; stroke-width: 1.0;"/><text fill="#000000" font-family="sans-serif" font-size="13" lengthAdjust="spacingAndGlyphs" textLength="55" x="315.5" y="273.5684">registers</text><!--link cefapp::App to cefapp::BackendSchemeHandlerFactory--><path d="M342.5295,143.0339 C393.5764,212.4161 491.9793,346.1637 534.7762,404.3325 " fill="none" id="cefapp::App-cefapp::BackendSchemeHandlerFactory" style="stroke: #A80036; stroke-width: 1.0; stroke-dasharray: 7.0,7.0;"/><polygon fill="#A80036" points="537.7601,408.3882,535.6484,398.7684,534.797,404.3608,529.2046,403.5094,537.7601,408.3882" style="stroke: #A80036; stroke-width: 1.0;"/><text fill="#000000" font-family="sans-serif" font-size="13" lengthAdjust="spacingAndGlyphs" textLength="55" x="454.5" y="273.5684">registers</text><!--link cefapp::AppHandler to Handler--><path d="M195.8114,494.1931 C197.7077,495.1649 199.6051,496.1022 201.5,497 C250.705,520.3143 308.2273,537.6615 358.2917,549.9269 " fill="none" id="cefapp::AppHandler-Handler" style="stroke: #A80036; stroke-width: 1.0;"/><polygon fill="#A80036" points="184.2074,487.8321,187.546,494.2238,194.7301,493.6004,191.3915,487.2087,184.2074,487.8321" style="stroke: #A80036; stroke-width: 1.0;"/><text fill="#000000" font-family="sans-serif" font-size="13" lengthAdjust="spacingAndGlyphs" textLength="8" x="192.221" y="490.3607">1</text><!--link cefapp::MessageDispatcher to Handler--><path d="M646.4621,156.1248 C655.9098,164.9571 664.248,174.8981 670.5,186 C738.3467,306.4776 756.4687,382.812 678.5,497 C667.1076,513.6845 629.1134,530.2519 589.4901,543.7203 " fill="none" id="cefapp::MessageDispatcher-Handler" style="stroke: #A80036; stroke-width: 1.0;"/><polygon fill="none" points="591.5147,550.4228,570.3299,549.9721,587.172,537.1134,591.5147,550.4228" style="stroke: #A80036; stroke-width: 1.0;"/><!--link cefapp::MessageDispatcher to backend::BackendMessageHandler--><path d="M674.6982,114.2801 C902.0469,141.1534 1338.5,201.4722 1338.5,268.5 C1338.5,268.5 1338.5,268.5 1338.5,659.5 C1338.5,703.3043 1219.6746,731.2227 1133.1084,745.7495 " fill="none" id="cefapp::MessageDispatcher-backend::BackendMessageHandler" style="stroke: #A80036; stroke-width: 1.0;"/><polygon fill="#A80036" points="661.699,112.753,667.1913,117.4257,673.617,114.1531,668.1247,109.4803,661.699,112.753" style="stroke: #A80036; stroke-width: 1.0;"/><text fill="#000000" font-family="sans-serif" font-size="13" lengthAdjust="spacingAndGlyphs" textLength="22" x="669.3418" y="110.6694">1..*</text><!--link cefapp::AppHandler to CefMessageRouterBrowserSide--><path d="M110.5,502.4749 C110.5,519.4796 110.5,536.5439 110.5,549.7381 " fill="none" id="cefapp::AppHandler-CefMessageRouterBrowserSide" style="stroke: #A80036; stroke-width: 1.0;"/><polygon fill="#A80036" points="110.5,489.2381,106.5,495.2381,110.5,501.2381,114.5,495.2381,110.5,489.2381" style="stroke: #A80036; stroke-width: 1.0;"/><text fill="#000000" font-family="sans-serif" font-size="13" lengthAdjust="spacingAndGlyphs" textLength="8" x="102.0375" y="509.2649">1</text><!--link cefapp::App to backend::BackendFactory--><path d="M374.3746,143.0471 C383.2365,147.9219 392.4197,152.4135 401.5,156 C459.6666,178.9742 616.2726,198.2578 677.5,211 C741.5723,224.3343 814.2018,240.1424 867.2012,251.8056 " fill="none" id="cefapp::App-backend::BackendFactory" style="stroke: #A80036; stroke-width: 1.0; stroke-dasharray: 7.0,7.0;"/><polygon fill="#A80036" points="872.2679,252.9211,864.3386,247.0794,867.3849,251.8459,862.6183,254.8923,872.2679,252.9211" style="stroke: #A80036; stroke-width: 1.0;"/><text fill="#000000" font-family="sans-serif" font-size="13" lengthAdjust="spacingAndGlyphs" textLength="29" x="632.5" y="199.5684">uses</text><!--link backend::ExecutionGraphBackend to backend::Backend--><path d="M834.5,782.0548 C834.5,811.3951 834.5,861.5665 834.5,897.9067 " fill="none" id="backend::ExecutionGraphBackend-backend::Backend" style="stroke: #A80036; stroke-width: 1.0;"/><polygon fill="none" points="841.5001,897.9393,834.5,917.9393,827.5001,897.9393,841.5001,897.9393" style="stroke: #A80036; stroke-width: 1.0;"/><!--link backend::DummyBackendMsgHandler to backend::BackendMessageHandler--><path d="M871.5158,598.0548 C901.3053,625.5988 950.95,671.5015 989.4341,707.0848 " fill="none" id="backend::DummyBackendMsgHandler-backend::BackendMessageHandler" style="stroke: #A80036; stroke-width: 1.0;"/><polygon fill="none" points="994.4278,702.1684,1004.3604,720.886,984.9233,712.4477,994.4278,702.1684" style="stroke: #A80036; stroke-width: 1.0;"/><!--link backend::BackendFactory to backend::ExecutionGraphBackend--><path d="M964.4564,299.1969 C984.9851,330.9657 1012.5,382.8135 1012.5,432.5 C1012.5,432.5 1012.5,432.5 1012.5,659.5 C1012.5,684.7336 957.0441,712.4858 908.0396,732.0834 " fill="none" id="backend::BackendFactory-backend::ExecutionGraphBackend" style="stroke: #A80036; stroke-width: 1.0; stroke-dasharray: 7.0,7.0;"/><polygon fill="#A80036" points="903.3194,733.9541,913.16,734.3565,907.9676,732.1118,910.2123,726.9194,903.3194,733.9541" style="stroke: #A80036; stroke-width: 1.0;"/><text fill="#000000" font-family="sans-serif" font-size="13" lengthAdjust="spacingAndGlyphs" textLength="76" x="1013.5" y="579.0684">instanciates</text><!--link backend::BackendFactory to backend::DummyBackendMsgHandler--><path d="M932.7551,299.1913 C914.0078,358.2358 873.1526,486.9087 854.7786,544.7773 " fill="none" id="backend::BackendFactory-backend::DummyBackendMsgHandler" style="stroke: #A80036; stroke-width: 1.0; stroke-dasharray: 7.0,7.0;"/><polygon fill="#A80036" points="853.1776,549.8195,859.7137,542.452,854.6907,545.054,852.0888,540.031,853.1776,549.8195" style="stroke: #A80036; stroke-width: 1.0;"/><text fill="#000000" font-family="sans-serif" font-size="13" lengthAdjust="spacingAndGlyphs" textLength="76" x="908.5" y="437.5684">instanciates</text><!--link backend::DummyBackendMsgHandler to backend::ExecutionGraphBackend--><path d="M843.2815,611.1098 C841.0917,647.739 837.8079,702.6676 835.9384,733.9393 " fill="none" id="backend::DummyBackendMsgHandler-backend::ExecutionGraphBackend" style="stroke: #A80036; stroke-width: 1.0;"/><polygon fill="#A80036" points="844.0619,598.0548,839.7109,603.8054,843.3457,610.0334,847.6967,604.2828,844.0619,598.0548" style="stroke: #A80036; stroke-width: 1.0;"/><text fill="#000000" font-family="sans-serif" font-size="13" lengthAdjust="spacingAndGlyphs" textLength="8" x="834.6684" y="618.7489">1</text><!--link backend::BackendFactory to executionGraph::StaticFactory--><path d="M1009.0491,299.1327 C1050.5237,319.1713 1104.3904,346.9478 1149.5,376 C1163.062,384.7344 1177.1909,395.427 1189.3041,405.151 " fill="none" id="backend::BackendFactory-executionGraph::StaticFactory" style="stroke: #A80036; stroke-width: 1.0; stroke-dasharray: 7.0,7.0;"/><polygon fill="#A80036" points="1193.3311,408.4073,1188.848,399.6379,1189.4432,405.2634,1183.8177,405.8586,1193.3311,408.4073" style="stroke: #A80036; stroke-width: 1.0;"/><text fill="#000000" font-family="sans-serif" font-size="13" lengthAdjust="spacingAndGlyphs" textLength="29" x="1095.5" y="342.5684">uses</text><!--
@startuml
set namespaceSeparator ::
skinparam shadowing false

class CefMessageRouterBrowserSide
class Handler as "CefMessageRouterBrowserSide::Handler"

namespace cefapp{
    class App{
        + OnContextInitialized()
        - m_appHandler
        - m_messageDispatcher
    }
    class AppHandler #D3D3D3{
        + OnAfterCreated()
        + OnBeforeCloses()
        - m_router
        - m_messageDispatcher
        - initializeBackends()
    }

    class MessageDispatcher {
        + AddHandler(backendHandler, requestId)
        + RemoveHandler(id)
        - m_generalHandlers
        - m_specificHandlers
        - m_handlerMap
    }
    class ClientSchemeHandlerFactory
    class BackendSchemeHandlerFactory
}

cefapp::App ..> cefapp::AppHandler : creates
cefapp::App ..> cefapp::ClientSchemeHandlerFactory : registers
cefapp::App ..> cefapp::BackendSchemeHandlerFactory : registers

cefapp::AppHandler "1" *-down- Handler
cefapp::MessageDispatcher -down-|> Handler
cefapp::MessageDispatcher "1..*" *- - - backend::BackendMessageHandler
cefapp::AppHandler "1" *-down- CefMessageRouterBrowserSide

namespace backend {
    class Backend #D3D3D3
    class BackendMessageHandler #D3D3D3 {
        + OnQuery(...) {abstract} 
        + OnRequest(...) {abstract}
    }

    class BackendFactory {
        + BackendData Create() {static}
    }

    class DummyBackendMsgHandler
}

namespace executionGraph {
    class StaticFactory<T...>
}

cefapp::App ..> backend::BackendFactory : uses

backend::ExecutionGraphBackend - -|> backend::Backend
backend::DummyBackendMsgHandler - -|> backend::BackendMessageHandler

backend::BackendFactory ..> backend::ExecutionGraphBackend : instanciates
backend::BackendFactory ..> backend::DummyBackendMsgHandler : instanciates

backend::DummyBackendMsgHandler "1" *- - backend::ExecutionGraphBackend

backend::BackendFactory ..> executionGraph::StaticFactory : uses
@enduml

PlantUML version 1.2018.01(Sun Jan 28 19:08:22 CET 2018)
(GPL source distribution)
Java Runtime: Java(TM) SE Runtime Environment
JVM: Java HotSpot(TM) 64-Bit Server VM
Java Version: 9.0.4+11
Operating System: Mac OS X
OS Version: 10.11.6
Default Encoding: UTF-8
Language: de
Country: DE
--></g></svg>