<?xml version="1.0" encoding="UTF-8" standalone="no"?><svg xmlns="http://www.w3.org/2000/svg" xmlns:xlink="http://www.w3.org/1999/xlink" contentScriptType="application/ecmascript" contentStyleType="text/css" height="1171px" preserveAspectRatio="none" style="width:1582px;height:1171px;" version="1.1" viewBox="0 0 1582 1171" width="1582px" zoomAndPan="magnify"><defs/><g><!--cluster cefapp--><polygon fill="#FFFFFF" points="277.5,16,330.5,16,337.5,38.4883,912.5,38.4883,912.5,1050,277.5,1050,277.5,16" style="stroke: #000000; stroke-width: 1.5;"/><line style="stroke: #000000; stroke-width: 1.5;" x1="277.5" x2="337.5" y1="38.4883" y2="38.4883"/><text fill="#000000" font-family="sans-serif" font-size="14" font-weight="bold" lengthAdjust="spacingAndGlyphs" textLength="47" x="281.5" y="31.5352">cefapp</text><!--cluster backend--><polygon fill="#FFFFFF" points="1083.5,172,1148.5,172,1155.5,194.4883,1560.5,194.4883,1560.5,1159,1083.5,1159,1083.5,172" style="stroke: #000000; stroke-width: 1.5;"/><line style="stroke: #000000; stroke-width: 1.5;" x1="1083.5" x2="1155.5" y1="194.4883" y2="194.4883"/><text fill="#000000" font-family="sans-serif" font-size="14" font-weight="bold" lengthAdjust="spacingAndGlyphs" textLength="59" x="1087.5" y="187.5352">backend</text><!--cluster executionGraph--><polygon fill="#FFFFFF" points="931.5,336,1048.5,336,1055.5,358.4883,1075.5,358.4883,1075.5,419,931.5,419,931.5,336" style="stroke: #000000; stroke-width: 1.5;"/><line style="stroke: #000000; stroke-width: 1.5;" x1="931.5" x2="1055.5" y1="358.4883" y2="358.4883"/><text fill="#000000" font-family="sans-serif" font-size="14" font-weight="bold" lengthAdjust="spacingAndGlyphs" textLength="111" x="935.5" y="351.5352">executionGraph</text><!--class cefapp::App--><rect fill="#FEFECE" height="73.9102" id="cefapp::App" style="stroke: #A80036; stroke-width: 1.5;" width="144" x="607.5" y="43"/><ellipse cx="663.25" cy="59" fill="#ADD1B2" rx="11" ry="11" style="stroke: #A80036; stroke-width: 1.0;"/><path d="M666.2231,64.6431 Q665.6421,64.9419 665.0029,65.0913 Q664.3638,65.2407 663.6582,65.2407 Q661.1514,65.2407 659.8315,63.5889 Q658.5117,61.937 658.5117,58.8159 Q658.5117,55.6865 659.8315,54.0347 Q661.1514,52.3828 663.6582,52.3828 Q664.3638,52.3828 665.0112,52.5322 Q665.6587,52.6816 666.2231,52.9805 L666.2231,55.7031 Q665.5923,55.1221 664.9988,54.8523 Q664.4053,54.5825 663.7744,54.5825 Q662.4297,54.5825 661.7449,55.6492 Q661.0601,56.7158 661.0601,58.8159 Q661.0601,60.9077 661.7449,61.9744 Q662.4297,63.041 663.7744,63.041 Q664.4053,63.041 664.9988,62.7712 Q665.5923,62.5015 666.2231,61.9204 Z "/><text fill="#000000" font-family="sans-serif" font-size="12" lengthAdjust="spacingAndGlyphs" textLength="24" x="683.75" y="63.5352">App</text><line style="stroke: #A80036; stroke-width: 1.5;" x1="608.5" x2="750.5" y1="75" y2="75"/><rect fill="none" height="6" style="stroke: #C82930; stroke-width: 1.0;" width="6" x="615.5" y="83.9775"/><text fill="#000000" font-family="sans-serif" font-size="11" lengthAdjust="spacingAndGlyphs" textLength="78" x="627.5" y="89.6348">m_appHandler</text><line style="stroke: #A80036; stroke-width: 1.5;" x1="608.5" x2="750.5" y1="95.9551" y2="95.9551"/><ellipse cx="618.5" cy="107.9326" fill="#84BE84" rx="3" ry="3" style="stroke: #038048; stroke-width: 1.0;"/><text fill="#000000" font-family="sans-serif" font-size="11" lengthAdjust="spacingAndGlyphs" textLength="118" x="627.5" y="110.5898">OnContextInitialized()</text><!--class cefapp::AppHandler--><rect fill="#D3D3D3" height="99.8203" id="cefapp::AppHandler" style="stroke: #A80036; stroke-width: 1.5;" width="141" x="286" y="337"/><rect fill="#D3D3D3" height="32" style="stroke: #A80036; stroke-width: 1.5;" width="141" x="286" y="337"/><ellipse cx="318.55" cy="353" fill="#ADD1B2" rx="11" ry="11" style="stroke: #A80036; stroke-width: 1.0;"/><path d="M321.5231,358.6431 Q320.9421,358.9419 320.3029,359.0913 Q319.6638,359.2407 318.9582,359.2407 Q316.4514,359.2407 315.1315,357.5889 Q313.8117,355.937 313.8117,352.8159 Q313.8117,349.6865 315.1315,348.0347 Q316.4514,346.3828 318.9582,346.3828 Q319.6638,346.3828 320.3112,346.5322 Q320.9587,346.6816 321.5231,346.9805 L321.5231,349.7031 Q320.8923,349.1221 320.2988,348.8523 Q319.7053,348.5825 319.0744,348.5825 Q317.7297,348.5825 317.0449,349.6492 Q316.3601,350.7158 316.3601,352.8159 Q316.3601,354.9077 317.0449,355.9744 Q317.7297,357.041 319.0744,357.041 Q319.7053,357.041 320.2988,356.7712 Q320.8923,356.5015 321.5231,355.9204 Z "/><text fill="#000000" font-family="sans-serif" font-size="12" lengthAdjust="spacingAndGlyphs" textLength="70" x="336.45" y="357.5352">AppHandler</text><line style="stroke: #A80036; stroke-width: 1.5;" x1="287" x2="426" y1="369" y2="369"/><rect fill="none" height="6" style="stroke: #C82930; stroke-width: 1.0;" width="6" x="294" y="377.9775"/><text fill="#000000" font-family="sans-serif" font-size="11" lengthAdjust="spacingAndGlyphs" textLength="50" x="306" y="383.6348">m_router</text><rect fill="none" height="6" style="stroke: #C82930; stroke-width: 1.0;" width="6" x="294" y="390.9326"/><text fill="#000000" font-family="sans-serif" font-size="11" lengthAdjust="spacingAndGlyphs" textLength="115" x="306" y="396.5898">m_requestDispatcher</text><line style="stroke: #A80036; stroke-width: 1.5;" x1="287" x2="426" y1="402.9102" y2="402.9102"/><ellipse cx="297" cy="414.8877" fill="#84BE84" rx="3" ry="3" style="stroke: #038048; stroke-width: 1.0;"/><text fill="#000000" font-family="sans-serif" font-size="11" lengthAdjust="spacingAndGlyphs" textLength="93" x="306" y="417.5449">OnAfterCreated()</text><ellipse cx="297" cy="427.8428" fill="#84BE84" rx="3" ry="3" style="stroke: #038048; stroke-width: 1.0;"/><text fill="#000000" font-family="sans-serif" font-size="11" lengthAdjust="spacingAndGlyphs" textLength="94" x="306" y="430.5">OnBeforeCloses()</text><!--class cefapp::BackendRequestDispatcher--><rect fill="#FEFECE" height="151.6406" id="cefapp::BackendRequestDispatcher" style="stroke: #A80036; stroke-width: 1.5;" width="194" x="674.5" y="890"/><ellipse cx="691.3" cy="906" fill="#ADD1B2" rx="11" ry="11" style="stroke: #A80036; stroke-width: 1.0;"/><path d="M694.2731,911.6431 Q693.6921,911.9419 693.0529,912.0913 Q692.4138,912.2407 691.7082,912.2407 Q689.2014,912.2407 687.8815,910.5889 Q686.5617,908.937 686.5617,905.8159 Q686.5617,902.6865 687.8815,901.0347 Q689.2014,899.3828 691.7082,899.3828 Q692.4138,899.3828 693.0612,899.5322 Q693.7087,899.6816 694.2731,899.9805 L694.2731,902.7031 Q693.6423,902.1221 693.0488,901.8523 Q692.4553,901.5825 691.8244,901.5825 Q690.4797,901.5825 689.7949,902.6492 Q689.1101,903.7158 689.1101,905.8159 Q689.1101,907.9077 689.7949,908.9744 Q690.4797,910.041 691.8244,910.041 Q692.4553,910.041 693.0488,909.7712 Q693.6423,909.5015 694.2731,908.9204 Z "/><text fill="#000000" font-family="sans-serif" font-size="12" lengthAdjust="spacingAndGlyphs" textLength="158" x="705.7" y="910.5352">BackendRequestDispatcher</text><line style="stroke: #A80036; stroke-width: 1.5;" x1="675.5" x2="867.5" y1="922" y2="922"/><rect fill="none" height="6" style="stroke: #C82930; stroke-width: 1.0;" width="6" x="682.5" y="930.9775"/><text fill="#000000" font-family="sans-serif" font-size="11" lengthAdjust="spacingAndGlyphs" textLength="104" x="694.5" y="936.6348">m_generalHandlers</text><rect fill="none" height="6" style="stroke: #C82930; stroke-width: 1.0;" width="6" x="682.5" y="943.9326"/><text fill="#000000" font-family="sans-serif" font-size="11" lengthAdjust="spacingAndGlyphs" textLength="105" x="694.5" y="949.5898">m_specificHandlers</text><rect fill="none" height="6" style="stroke: #C82930; stroke-width: 1.0;" width="6" x="682.5" y="956.8877"/><text fill="#000000" font-family="sans-serif" font-size="11" lengthAdjust="spacingAndGlyphs" textLength="79" x="694.5" y="962.5449">m_handlerMap</text><line style="stroke: #A80036; stroke-width: 1.5;" x1="675.5" x2="867.5" y1="968.8652" y2="968.8652"/><ellipse cx="685.5" cy="980.8428" fill="#84BE84" rx="3" ry="3" style="stroke: #038048; stroke-width: 1.0;"/><text fill="#000000" font-family="sans-serif" font-size="11" lengthAdjust="spacingAndGlyphs" textLength="79" x="694.5" y="983.5">addHandler(...)</text><ellipse cx="685.5" cy="993.7979" fill="#84BE84" rx="3" ry="3" style="stroke: #038048; stroke-width: 1.0;"/><text fill="#000000" font-family="sans-serif" font-size="11" lengthAdjust="spacingAndGlyphs" textLength="99" x="694.5" y="996.4551">removeHandler(...)</text><ellipse cx="685.5" cy="1006.7529" fill="#84BE84" rx="3" ry="3" style="stroke: #038048; stroke-width: 1.0;"/><text fill="#000000" font-family="sans-serif" font-size="11" lengthAdjust="spacingAndGlyphs" textLength="168" x="694.5" y="1009.4102">addRequest(request, response)</text><ellipse cx="685.5" cy="1019.708" fill="#84BE84" rx="3" ry="3" style="stroke: #038048; stroke-width: 1.0;"/><text fill="#000000" font-family="sans-serif" font-size="11" lengthAdjust="spacingAndGlyphs" textLength="33" x="694.5" y="1022.3652">start()</text><ellipse cx="685.5" cy="1032.6631" fill="#84BE84" rx="3" ry="3" style="stroke: #038048; stroke-width: 1.0;"/><text fill="#000000" font-family="sans-serif" font-size="11" lengthAdjust="spacingAndGlyphs" textLength="32" x="694.5" y="1035.3203">stop()</text><!--class cefapp::BackendRequestDispatcherAdapterCef--><rect fill="#FEFECE" height="60.9551" id="cefapp::BackendRequestDispatcherAdapterCef" style="stroke: #A80036; stroke-width: 1.5;" width="256" x="327.5" y="626.5"/><ellipse cx="342.5" cy="642.5" fill="#ADD1B2" rx="11" ry="11" style="stroke: #A80036; stroke-width: 1.0;"/><path d="M345.4731,648.1431 Q344.8921,648.4419 344.2529,648.5913 Q343.6138,648.7407 342.9082,648.7407 Q340.4014,648.7407 339.0815,647.0889 Q337.7617,645.437 337.7617,642.3159 Q337.7617,639.1865 339.0815,637.5347 Q340.4014,635.8828 342.9082,635.8828 Q343.6138,635.8828 344.2612,636.0322 Q344.9087,636.1816 345.4731,636.4805 L345.4731,639.2031 Q344.8423,638.6221 344.2488,638.3523 Q343.6553,638.0825 343.0244,638.0825 Q341.6797,638.0825 340.9949,639.1492 Q340.3101,640.2158 340.3101,642.3159 Q340.3101,644.4077 340.9949,645.4744 Q341.6797,646.541 343.0244,646.541 Q343.6553,646.541 344.2488,646.2712 Q344.8423,646.0015 345.4731,645.4204 Z "/><text fill="#000000" font-family="sans-serif" font-size="12" lengthAdjust="spacingAndGlyphs" textLength="224" x="356.5" y="647.0352">BackendRequestDispatcherAdapterCef</text><line style="stroke: #A80036; stroke-width: 1.5;" x1="328.5" x2="582.5" y1="658.5" y2="658.5"/><rect fill="none" height="6" style="stroke: #C82930; stroke-width: 1.0;" width="6" x="335.5" y="667.4775"/><text fill="#000000" font-family="sans-serif" font-size="11" lengthAdjust="spacingAndGlyphs" textLength="73" x="347.5" y="673.1348">m_dispatcher</text><line style="stroke: #A80036; stroke-width: 1.5;" x1="328.5" x2="582.5" y1="679.4551" y2="679.4551"/><!--class cefapp::ClientSchemeHandlerFactory--><rect fill="#FEFECE" height="60.9551" id="cefapp::ClientSchemeHandlerFactory" style="stroke: #A80036; stroke-width: 1.5;" width="195" x="462" y="356.5"/><ellipse cx="477" cy="372.5" fill="#ADD1B2" rx="11" ry="11" style="stroke: #A80036; stroke-width: 1.0;"/><path d="M479.9731,378.1431 Q479.3921,378.4419 478.7529,378.5913 Q478.1138,378.7407 477.4082,378.7407 Q474.9014,378.7407 473.5815,377.0889 Q472.2617,375.437 472.2617,372.3159 Q472.2617,369.1865 473.5815,367.5347 Q474.9014,365.8828 477.4082,365.8828 Q478.1138,365.8828 478.7612,366.0322 Q479.4087,366.1816 479.9731,366.4805 L479.9731,369.2031 Q479.3423,368.6221 478.7488,368.3523 Q478.1553,368.0825 477.5244,368.0825 Q476.1797,368.0825 475.4949,369.1492 Q474.8101,370.2158 474.8101,372.3159 Q474.8101,374.4077 475.4949,375.4744 Q476.1797,376.541 477.5244,376.541 Q478.1553,376.541 478.7488,376.2712 Q479.3423,376.0015 479.9731,375.4204 Z "/><text fill="#000000" font-family="sans-serif" font-size="12" lengthAdjust="spacingAndGlyphs" textLength="163" x="491" y="377.0352">ClientSchemeHandlerFactory</text><line style="stroke: #A80036; stroke-width: 1.5;" x1="463" x2="656" y1="388.5" y2="388.5"/><line style="stroke: #A80036; stroke-width: 1.5;" x1="463" x2="656" y1="396.5" y2="396.5"/><ellipse cx="473" cy="408.4775" fill="#84BE84" rx="3" ry="3" style="stroke: #038048; stroke-width: 1.0;"/><text fill="#000000" font-family="sans-serif" font-size="11" lengthAdjust="spacingAndGlyphs" textLength="52" x="482" y="411.1348">Create(...)</text><!--class cefapp::BackendSchemeHandlerFactory--><rect fill="#FEFECE" height="73.9102" id="cefapp::BackendSchemeHandlerFactory" style="stroke: #A80036; stroke-width: 1.5;" width="212" x="692.5" y="350"/><ellipse cx="707.5" cy="366" fill="#ADD1B2" rx="11" ry="11" style="stroke: #A80036; stroke-width: 1.0;"/><path d="M710.4731,371.6431 Q709.8921,371.9419 709.2529,372.0913 Q708.6138,372.2407 707.9082,372.2407 Q705.4014,372.2407 704.0815,370.5889 Q702.7617,368.937 702.7617,365.8159 Q702.7617,362.6865 704.0815,361.0347 Q705.4014,359.3828 707.9082,359.3828 Q708.6138,359.3828 709.2612,359.5322 Q709.9087,359.6816 710.4731,359.9805 L710.4731,362.7031 Q709.8423,362.1221 709.2488,361.8523 Q708.6553,361.5825 708.0244,361.5825 Q706.6797,361.5825 705.9949,362.6492 Q705.3101,363.7158 705.3101,365.8159 Q705.3101,367.9077 705.9949,368.9744 Q706.6797,370.041 708.0244,370.041 Q708.6553,370.041 709.2488,369.7712 Q709.8423,369.5015 710.4731,368.9204 Z "/><text fill="#000000" font-family="sans-serif" font-size="12" lengthAdjust="spacingAndGlyphs" textLength="180" x="721.5" y="370.5352">BackendSchemeHandlerFactory</text><line style="stroke: #A80036; stroke-width: 1.5;" x1="693.5" x2="903.5" y1="382" y2="382"/><rect fill="none" height="6" style="stroke: #C82930; stroke-width: 1.0;" width="6" x="700.5" y="390.9775"/><text fill="#000000" font-family="sans-serif" font-size="11" lengthAdjust="spacingAndGlyphs" textLength="73" x="712.5" y="396.6348">m_dispatcher</text><line style="stroke: #A80036; stroke-width: 1.5;" x1="693.5" x2="903.5" y1="402.9551" y2="402.9551"/><ellipse cx="703.5" cy="414.9326" fill="#84BE84" rx="3" ry="3" style="stroke: #038048; stroke-width: 1.0;"/><text fill="#000000" font-family="sans-serif" font-size="11" lengthAdjust="spacingAndGlyphs" textLength="52" x="712.5" y="417.5898">Create(...)</text><!--class cefapp::BackendResourceHandler--><rect fill="#FEFECE" height="60.9551" id="cefapp::BackendResourceHandler" style="stroke: #A80036; stroke-width: 1.5;" width="180" x="618.5" y="626.5"/><ellipse cx="633.5" cy="642.5" fill="#ADD1B2" rx="11" ry="11" style="stroke: #A80036; stroke-width: 1.0;"/><path d="M636.4731,648.1431 Q635.8921,648.4419 635.2529,648.5913 Q634.6138,648.7407 633.9082,648.7407 Q631.4014,648.7407 630.0815,647.0889 Q628.7617,645.437 628.7617,642.3159 Q628.7617,639.1865 630.0815,637.5347 Q631.4014,635.8828 633.9082,635.8828 Q634.6138,635.8828 635.2612,636.0322 Q635.9087,636.1816 636.4731,636.4805 L636.4731,639.2031 Q635.8423,638.6221 635.2488,638.3523 Q634.6553,638.0825 634.0244,638.0825 Q632.6797,638.0825 631.9949,639.1492 Q631.3101,640.2158 631.3101,642.3159 Q631.3101,644.4077 631.9949,645.4744 Q632.6797,646.541 634.0244,646.541 Q634.6553,646.541 635.2488,646.2712 Q635.8423,646.0015 636.4731,645.4204 Z "/><text fill="#000000" font-family="sans-serif" font-size="12" lengthAdjust="spacingAndGlyphs" textLength="148" x="647.5" y="647.0352">BackendResourceHandler</text><line style="stroke: #A80036; stroke-width: 1.5;" x1="619.5" x2="797.5" y1="658.5" y2="658.5"/><rect fill="none" height="6" style="stroke: #C82930; stroke-width: 1.0;" width="6" x="626.5" y="667.4775"/><text fill="#000000" font-family="sans-serif" font-size="11" lengthAdjust="spacingAndGlyphs" textLength="73" x="638.5" y="673.1348">m_dispatcher</text><line style="stroke: #A80036; stroke-width: 1.5;" x1="619.5" x2="797.5" y1="679.4551" y2="679.4551"/><!--class backend::BackendFactory--><rect fill="#FEFECE" height="60.9551" id="backend::BackendFactory" style="stroke: #A80036; stroke-width: 1.5;" width="140" x="1106.5" y="199"/><ellipse cx="1129.6" cy="215" fill="#ADD1B2" rx="11" ry="11" style="stroke: #A80036; stroke-width: 1.0;"/><path d="M1132.5731,220.6431 Q1131.9921,220.9419 1131.3529,221.0913 Q1130.7138,221.2407 1130.0082,221.2407 Q1127.5014,221.2407 1126.1815,219.5889 Q1124.8617,217.937 1124.8617,214.8159 Q1124.8617,211.6865 1126.1815,210.0347 Q1127.5014,208.3828 1130.0082,208.3828 Q1130.7138,208.3828 1131.3612,208.5322 Q1132.0087,208.6816 1132.5731,208.9805 L1132.5731,211.7031 Q1131.9423,211.1221 1131.3488,210.8523 Q1130.7553,210.5825 1130.1244,210.5825 Q1128.7797,210.5825 1128.0949,211.6492 Q1127.4101,212.7158 1127.4101,214.8159 Q1127.4101,216.9077 1128.0949,217.9744 Q1128.7797,219.041 1130.1244,219.041 Q1130.7553,219.041 1131.3488,218.7712 Q1131.9423,218.5015 1132.5731,217.9204 Z "/><text fill="#000000" font-family="sans-serif" font-size="12" lengthAdjust="spacingAndGlyphs" textLength="90" x="1145.4" y="219.5352">BackendFactory</text><line style="stroke: #A80036; stroke-width: 1.5;" x1="1107.5" x2="1245.5" y1="231" y2="231"/><line style="stroke: #A80036; stroke-width: 1.5;" x1="1107.5" x2="1245.5" y1="239" y2="239"/><ellipse cx="1117.5" cy="250.9775" fill="#84BE84" rx="3" ry="3" style="stroke: #038048; stroke-width: 1.0;"/><text fill="#000000" font-family="sans-serif" font-size="11" lengthAdjust="spacingAndGlyphs" text-decoration="underline" textLength="114" x="1126.5" y="253.6348">BackendData Create()</text><line style="stroke: #000000; stroke-width: 1.0;" x1="1126.5" x2="1240.5" y1="255.6348" y2="255.6348"/><!--class backend::BackendRequestHandler--><rect fill="#D3D3D3" height="60.9551" id="backend::BackendRequestHandler" style="stroke: #A80036; stroke-width: 1.5;" width="253" x="1092" y="768"/><rect fill="#D3D3D3" height="32" style="stroke: #A80036; stroke-width: 1.5;" width="253" x="1092" y="768"/><ellipse cx="1143.25" cy="784" fill="#ADD1B2" rx="11" ry="11" style="stroke: #A80036; stroke-width: 1.0;"/><path d="M1146.2231,789.6431 Q1145.6421,789.9419 1145.0029,790.0913 Q1144.3638,790.2407 1143.6582,790.2407 Q1141.1514,790.2407 1139.8315,788.5889 Q1138.5117,786.937 1138.5117,783.8159 Q1138.5117,780.6865 1139.8315,779.0347 Q1141.1514,777.3828 1143.6582,777.3828 Q1144.3638,777.3828 1145.0112,777.5322 Q1145.6587,777.6816 1146.2231,777.9805 L1146.2231,780.7031 Q1145.5923,780.1221 1144.9988,779.8523 Q1144.4053,779.5825 1143.7744,779.5825 Q1142.4297,779.5825 1141.7449,780.6492 Q1141.0601,781.7158 1141.0601,783.8159 Q1141.0601,785.9077 1141.7449,786.9744 Q1142.4297,788.041 1143.7744,788.041 Q1144.4053,788.041 1144.9988,787.7712 Q1145.5923,787.5015 1146.2231,786.9204 Z "/><text fill="#000000" font-family="sans-serif" font-size="12" lengthAdjust="spacingAndGlyphs" textLength="142" x="1163.75" y="788.5352">BackendRequestHandler</text><line style="stroke: #A80036; stroke-width: 1.5;" x1="1093" x2="1344" y1="800" y2="800"/><line style="stroke: #A80036; stroke-width: 1.5;" x1="1093" x2="1344" y1="808" y2="808"/><ellipse cx="1103" cy="819.9775" fill="#84BE84" rx="3" ry="3" style="stroke: #038048; stroke-width: 1.0;"/><text fill="#000000" font-family="sans-serif" font-size="11" font-style="italic" lengthAdjust="spacingAndGlyphs" textLength="227" x="1112" y="822.6348">handleRequest(request, responsePromise)</text><!--class backend::Backend--><rect fill="#D3D3D3" height="48" id="backend::Backend" style="stroke: #A80036; stroke-width: 1.5;" width="81" x="1426" y="1103"/><rect fill="#D3D3D3" height="32" style="stroke: #A80036; stroke-width: 1.5;" width="81" x="1426" y="1103"/><ellipse cx="1441" cy="1119" fill="#ADD1B2" rx="11" ry="11" style="stroke: #A80036; stroke-width: 1.0;"/><path d="M1443.9731,1124.6431 Q1443.3921,1124.9419 1442.7529,1125.0913 Q1442.1138,1125.2407 1441.4082,1125.2407 Q1438.9014,1125.2407 1437.5815,1123.5889 Q1436.2617,1121.937 1436.2617,1118.8159 Q1436.2617,1115.6865 1437.5815,1114.0347 Q1438.9014,1112.3828 1441.4082,1112.3828 Q1442.1138,1112.3828 1442.7612,1112.5322 Q1443.4087,1112.6816 1443.9731,1112.9805 L1443.9731,1115.7031 Q1443.3423,1115.1221 1442.7488,1114.8523 Q1442.1553,1114.5825 1441.5244,1114.5825 Q1440.1797,1114.5825 1439.4949,1115.6492 Q1438.8101,1116.7158 1438.8101,1118.8159 Q1438.8101,1120.9077 1439.4949,1121.9744 Q1440.1797,1123.041 1441.5244,1123.041 Q1442.1553,1123.041 1442.7488,1122.7712 Q1443.3423,1122.5015 1443.9731,1121.9204 Z "/><text fill="#000000" font-family="sans-serif" font-size="12" lengthAdjust="spacingAndGlyphs" textLength="49" x="1455" y="1123.5352">Backend</text><line style="stroke: #A80036; stroke-width: 1.5;" x1="1427" x2="1506" y1="1135" y2="1135"/><line style="stroke: #A80036; stroke-width: 1.5;" x1="1427" x2="1506" y1="1143" y2="1143"/><!--class backend::DummyRequestHandler--><rect fill="#FEFECE" height="48" id="backend::DummyRequestHandler" style="stroke: #A80036; stroke-width: 1.5;" width="169" x="1134" y="498"/><ellipse cx="1149" cy="514" fill="#ADD1B2" rx="11" ry="11" style="stroke: #A80036; stroke-width: 1.0;"/><path d="M1151.9731,519.6431 Q1151.3921,519.9419 1150.7529,520.0913 Q1150.1138,520.2407 1149.4082,520.2407 Q1146.9014,520.2407 1145.5815,518.5889 Q1144.2617,516.937 1144.2617,513.8159 Q1144.2617,510.6865 1145.5815,509.0347 Q1146.9014,507.3828 1149.4082,507.3828 Q1150.1138,507.3828 1150.7612,507.5322 Q1151.4087,507.6816 1151.9731,507.9805 L1151.9731,510.7031 Q1151.3423,510.1221 1150.7488,509.8523 Q1150.1553,509.5825 1149.5244,509.5825 Q1148.1797,509.5825 1147.4949,510.6492 Q1146.8101,511.7158 1146.8101,513.8159 Q1146.8101,515.9077 1147.4949,516.9744 Q1148.1797,518.041 1149.5244,518.041 Q1150.1553,518.041 1150.7488,517.7712 Q1151.3423,517.5015 1151.9731,516.9204 Z "/><text fill="#000000" font-family="sans-serif" font-size="12" lengthAdjust="spacingAndGlyphs" textLength="137" x="1163" y="518.5352">DummyRequestHandler</text><line style="stroke: #A80036; stroke-width: 1.5;" x1="1135" x2="1302" y1="530" y2="530"/><line style="stroke: #A80036; stroke-width: 1.5;" x1="1135" x2="1302" y1="538" y2="538"/><!--class backend::ExecutionGraphBackend--><rect fill="#FEFECE" height="48" id="backend::ExecutionGraphBackend" style="stroke: #A80036; stroke-width: 1.5;" width="172" x="1380.5" y="774.5"/><ellipse cx="1395.5" cy="790.5" fill="#ADD1B2" rx="11" ry="11" style="stroke: #A80036; stroke-width: 1.0;"/><path d="M1398.4731,796.1431 Q1397.8921,796.4419 1397.2529,796.5913 Q1396.6138,796.7407 1395.9082,796.7407 Q1393.4014,796.7407 1392.0815,795.0889 Q1390.7617,793.437 1390.7617,790.3159 Q1390.7617,787.1865 1392.0815,785.5347 Q1393.4014,783.8828 1395.9082,783.8828 Q1396.6138,783.8828 1397.2612,784.0322 Q1397.9087,784.1816 1398.4731,784.4805 L1398.4731,787.2031 Q1397.8423,786.6221 1397.2488,786.3523 Q1396.6553,786.0825 1396.0244,786.0825 Q1394.6797,786.0825 1393.9949,787.1492 Q1393.3101,788.2158 1393.3101,790.3159 Q1393.3101,792.4077 1393.9949,793.4744 Q1394.6797,794.541 1396.0244,794.541 Q1396.6553,794.541 1397.2488,794.2712 Q1397.8423,794.0015 1398.4731,793.4204 Z "/><text fill="#000000" font-family="sans-serif" font-size="12" lengthAdjust="spacingAndGlyphs" textLength="140" x="1409.5" y="795.0352">ExecutionGraphBackend</text><line style="stroke: #A80036; stroke-width: 1.5;" x1="1381.5" x2="1551.5" y1="806.5" y2="806.5"/><line style="stroke: #A80036; stroke-width: 1.5;" x1="1381.5" x2="1551.5" y1="814.5" y2="814.5"/><!--class executionGraph::StaticFactory--><rect fill="#FEFECE" height="48" id="executionGraph::StaticFactory" style="stroke: #A80036; stroke-width: 1.5;" width="127" x="940" y="363"/><ellipse cx="955" cy="379" fill="#ADD1B2" rx="11" ry="11" style="stroke: #A80036; stroke-width: 1.0;"/><path d="M957.9731,384.6431 Q957.3921,384.9419 956.7529,385.0913 Q956.1138,385.2407 955.4082,385.2407 Q952.9014,385.2407 951.5815,383.5889 Q950.2617,381.937 950.2617,378.8159 Q950.2617,375.6865 951.5815,374.0347 Q952.9014,372.3828 955.4082,372.3828 Q956.1138,372.3828 956.7612,372.5322 Q957.4087,372.6816 957.9731,372.9805 L957.9731,375.7031 Q957.3423,375.1221 956.7488,374.8523 Q956.1553,374.5825 955.5244,374.5825 Q954.1797,374.5825 953.4949,375.6492 Q952.8101,376.7158 952.8101,378.8159 Q952.8101,380.9077 953.4949,381.9744 Q954.1797,383.041 955.5244,383.041 Q956.1553,383.041 956.7488,382.7712 Q957.3423,382.5015 957.9731,381.9204 Z "/><text fill="#000000" font-family="sans-serif" font-size="12" lengthAdjust="spacingAndGlyphs" textLength="71" x="969" y="383.5352">StaticFactory</text><rect fill="#FFFFFF" height="16.1328" style="stroke: #000000; stroke-width: 1.0; stroke-dasharray: 2.0,2.0;" width="22" x="1048" y="360"/><text fill="#000000" font-family="sans-serif" font-size="12" font-style="italic" lengthAdjust="spacingAndGlyphs" textLength="20" x="1049" y="372.6016">T...</text><line style="stroke: #A80036; stroke-width: 1.5;" x1="941" x2="1066" y1="395" y2="395"/><line style="stroke: #A80036; stroke-width: 1.5;" x1="941" x2="1066" y1="403" y2="403"/><!--class CefMessageRouterBrowserSide--><rect fill="#FEFECE" height="48" id="CefMessageRouterBrowserSide" style="stroke: #A80036; stroke-width: 1.5;" width="209" x="42" y="363"/><ellipse cx="57" cy="379" fill="#ADD1B2" rx="11" ry="11" style="stroke: #A80036; stroke-width: 1.0;"/><path d="M59.9731,384.6431 Q59.3921,384.9419 58.7529,385.0913 Q58.1138,385.2407 57.4082,385.2407 Q54.9014,385.2407 53.5815,383.5889 Q52.2617,381.937 52.2617,378.8159 Q52.2617,375.6865 53.5815,374.0347 Q54.9014,372.3828 57.4082,372.3828 Q58.1138,372.3828 58.7612,372.5322 Q59.4087,372.6816 59.9731,372.9805 L59.9731,375.7031 Q59.3423,375.1221 58.7488,374.8523 Q58.1553,374.5825 57.5244,374.5825 Q56.1797,374.5825 55.4949,375.6492 Q54.8101,376.7158 54.8101,378.8159 Q54.8101,380.9077 55.4949,381.9744 Q56.1797,383.041 57.5244,383.041 Q58.1553,383.041 58.7488,382.7712 Q59.3423,382.5015 59.9731,381.9204 Z "/><text fill="#000000" font-family="sans-serif" font-size="12" lengthAdjust="spacingAndGlyphs" textLength="177" x="71" y="383.5352">CefMessageRouterBrowserSide</text><line style="stroke: #A80036; stroke-width: 1.5;" x1="43" x2="250" y1="395" y2="395"/><line style="stroke: #A80036; stroke-width: 1.5;" x1="43" x2="250" y1="403" y2="403"/><!--class Handler--><rect fill="#FEFECE" height="48" id="Handler" style="stroke: #A80036; stroke-width: 1.5;" width="263" x="6" y="774.5"/><ellipse cx="21" cy="790.5" fill="#ADD1B2" rx="11" ry="11" style="stroke: #A80036; stroke-width: 1.0;"/><path d="M23.9731,796.1431 Q23.3921,796.4419 22.7529,796.5913 Q22.1138,796.7407 21.4082,796.7407 Q18.9014,796.7407 17.5815,795.0889 Q16.2617,793.437 16.2617,790.3159 Q16.2617,787.1865 17.5815,785.5347 Q18.9014,783.8828 21.4082,783.8828 Q22.1138,783.8828 22.7612,784.0322 Q23.4087,784.1816 23.9731,784.4805 L23.9731,787.2031 Q23.3423,786.6221 22.7488,786.3523 Q22.1553,786.0825 21.5244,786.0825 Q20.1797,786.0825 19.4949,787.1492 Q18.8101,788.2158 18.8101,790.3159 Q18.8101,792.4077 19.4949,793.4744 Q20.1797,794.541 21.5244,794.541 Q22.1553,794.541 22.7488,794.2712 Q23.3423,794.0015 23.9731,793.4204 Z "/><text fill="#000000" font-family="sans-serif" font-size="12" lengthAdjust="spacingAndGlyphs" textLength="231" x="35" y="795.0352">CefMessageRouterBrowserSide::Handler</text><line style="stroke: #A80036; stroke-width: 1.5;" x1="7" x2="268" y1="806.5" y2="806.5"/><line style="stroke: #A80036; stroke-width: 1.5;" x1="7" x2="268" y1="814.5" y2="814.5"/><!--class CefResourceHandler--><rect fill="#FEFECE" height="99.8203" id="CefResourceHandler" style="stroke: #A80036; stroke-width: 1.5;" width="157" x="64" y="607"/><ellipse cx="82.15" cy="623" fill="#ADD1B2" rx="11" ry="11" style="stroke: #A80036; stroke-width: 1.0;"/><path d="M85.1231,628.6431 Q84.5421,628.9419 83.9029,629.0913 Q83.2638,629.2407 82.5582,629.2407 Q80.0514,629.2407 78.7315,627.5889 Q77.4117,625.937 77.4117,622.8159 Q77.4117,619.6865 78.7315,618.0347 Q80.0514,616.3828 82.5582,616.3828 Q83.2638,616.3828 83.9112,616.5322 Q84.5587,616.6816 85.1231,616.9805 L85.1231,619.7031 Q84.4923,619.1221 83.8988,618.8523 Q83.3053,618.5825 82.6744,618.5825 Q81.3297,618.5825 80.6449,619.6492 Q79.9601,620.7158 79.9601,622.8159 Q79.9601,624.9077 80.6449,625.9744 Q81.3297,627.041 82.6744,627.041 Q83.3053,627.041 83.8988,626.7712 Q84.4923,626.5015 85.1231,625.9204 Z "/><text fill="#000000" font-family="sans-serif" font-size="12" lengthAdjust="spacingAndGlyphs" textLength="118" x="96.85" y="627.5352">CefResourceHandler</text><line style="stroke: #A80036; stroke-width: 1.5;" x1="65" x2="220" y1="639" y2="639"/><line style="stroke: #A80036; stroke-width: 1.5;" x1="65" x2="220" y1="647" y2="647"/><ellipse cx="75" cy="658.9775" fill="#84BE84" rx="3" ry="3" style="stroke: #038048; stroke-width: 1.0;"/><text fill="#000000" font-family="sans-serif" font-size="11" font-style="italic" lengthAdjust="spacingAndGlyphs" textLength="53" x="84" y="661.6348">Cancel(...)</text><ellipse cx="75" cy="671.9326" fill="#84BE84" rx="3" ry="3" style="stroke: #038048; stroke-width: 1.0;"/><text fill="#000000" font-family="sans-serif" font-size="11" font-style="italic" lengthAdjust="spacingAndGlyphs" textLength="131" x="84" y="674.5898">GetResponseHeaders(...)</text><ellipse cx="75" cy="684.8877" fill="#84BE84" rx="3" ry="3" style="stroke: #038048; stroke-width: 1.0;"/><text fill="#000000" font-family="sans-serif" font-size="11" font-style="italic" lengthAdjust="spacingAndGlyphs" textLength="102" x="84" y="687.5449">ProcessRequest(...)</text><ellipse cx="75" cy="697.8428" fill="#84BE84" rx="3" ry="3" style="stroke: #038048; stroke-width: 1.0;"/><text fill="#000000" font-family="sans-serif" font-size="11" font-style="italic" lengthAdjust="spacingAndGlyphs" textLength="95" x="84" y="700.5">ReadResponse(...)</text><!--link cefapp::App to cefapp::AppHandler--><path d="M624.5154,117.0023 C602.0471,132.9945 576.2759,152.4924 554.5,172 C498.0001,222.6145 439.9703,287.4291 401.4629,332.6011 " fill="none" id="cefapp::App-cefapp::AppHandler" style="stroke: #A80036; stroke-width: 1.0; stroke-dasharray: 7.0,7.0;"/><polygon fill="#A80036" points="398.0302,336.6365,406.9084,332.3729,401.2699,332.828,400.8148,327.1895,398.0302,336.6365" style="stroke: #A80036; stroke-width: 1.0;"/><text fill="#000000" font-family="sans-serif" font-size="13" lengthAdjust="spacingAndGlyphs" textLength="45" x="555.5" y="234.5684">creates</text><!--link cefapp::App to cefapp::ClientSchemeHandlerFactory--><path d="M665.0252,117.0314 C641.7425,176.5963 596.2727,292.9231 573.3766,351.4991 " fill="none" id="cefapp::App-cefapp::ClientSchemeHandlerFactory" style="stroke: #A80036; stroke-width: 1.0; stroke-dasharray: 7.0,7.0;"/><polygon fill="#A80036" points="571.5001,356.2998,578.5021,349.3737,573.3204,351.6429,571.0511,346.4612,571.5001,356.2998" style="stroke: #A80036; stroke-width: 1.0;"/><text fill="#000000" font-family="sans-serif" font-size="13" lengthAdjust="spacingAndGlyphs" textLength="55" x="643.5" y="234.5684">registers</text><!--link cefapp::App to cefapp::BackendSchemeHandlerFactory--><path d="M693.8542,117.0314 C716.1011,174.4247 758.7751,284.5164 782.1686,344.8676 " fill="none" id="cefapp::App-cefapp::BackendSchemeHandlerFactory" style="stroke: #A80036; stroke-width: 1.0; stroke-dasharray: 7.0,7.0;"/><polygon fill="#A80036" points="784.0949,349.8373,784.5717,340,782.2878,345.1753,777.1125,342.8913,784.0949,349.8373" style="stroke: #A80036; stroke-width: 1.0;"/><text fill="#000000" font-family="sans-serif" font-size="13" lengthAdjust="spacingAndGlyphs" textLength="55" x="749.5" y="234.5684">registers</text><!--link cefapp::App to backend::BackendFactory--><path d="M751.5025,101.6587 C844.7974,129.7223 1006.6896,178.4202 1101.4505,206.9248 " fill="none" id="cefapp::App-backend::BackendFactory" style="stroke: #A80036; stroke-width: 1.0; stroke-dasharray: 7.0,7.0;"/><polygon fill="#A80036" points="1106.4719,208.4352,1099.0056,202.0123,1101.6838,206.9949,1096.7012,209.6732,1106.4719,208.4352" style="stroke: #A80036; stroke-width: 1.0;"/><text fill="#000000" font-family="sans-serif" font-size="13" lengthAdjust="spacingAndGlyphs" textLength="29" x="958.5" y="160.5684">uses</text><!--link cefapp::BackendSchemeHandlerFactory to cefapp::BackendResourceHandler--><path d="M786.0804,424.2589 C768.7026,476.3922 737.3533,570.4402 720.3096,621.5713 " fill="none" id="cefapp::BackendSchemeHandlerFactory-cefapp::BackendResourceHandler" style="stroke: #A80036; stroke-width: 1.0; stroke-dasharray: 7.0,7.0;"/><polygon fill="#A80036" points="718.7058,626.3826,725.3466,619.1094,720.2869,621.6392,717.7571,616.5795,718.7058,626.3826" style="stroke: #A80036; stroke-width: 1.0;"/><text fill="#000000" font-family="sans-serif" font-size="13" lengthAdjust="spacingAndGlyphs" textLength="45" x="761.5" y="527.0684">creates</text><!--link cefapp::BackendResourceHandler to cefapp::BackendRequestDispatcher--><path d="M717.4142,700.7219 C727.4198,749.7972 743.838,830.3243 755.9649,889.8038 " fill="none" id="cefapp::BackendResourceHandler-cefapp::BackendRequestDispatcher" style="stroke: #A80036; stroke-width: 1.0;"/><polygon fill="#A80036" points="714.771,687.7578,712.0503,694.436,717.1684,699.5159,719.889,692.8377,714.771,687.7578" style="stroke: #A80036; stroke-width: 1.0;"/><text fill="#000000" font-family="sans-serif" font-size="13" lengthAdjust="spacingAndGlyphs" textLength="29" x="743.5" y="803.5684">uses</text><text fill="#000000" font-family="sans-serif" font-size="13" lengthAdjust="spacingAndGlyphs" textLength="8" x="707.2394" y="708.2535">1</text><!--link cefapp::BackendRequestDispatcherAdapterCef to cefapp::BackendRequestDispatcher--><path d="M496.4162,697.0098 C546.1621,745.6538 631.191,828.7992 693.5777,889.8038 " fill="none" id="cefapp::BackendRequestDispatcherAdapterCef-cefapp::BackendRequestDispatcher" style="stroke: #A80036; stroke-width: 1.0;"/><polygon fill="#A80036" points="486.9546,687.7578,488.4479,694.8126,495.5344,696.1475,494.0411,689.0928,486.9546,687.7578" style="stroke: #A80036; stroke-width: 1.0;"/><text fill="#000000" font-family="sans-serif" font-size="13" lengthAdjust="spacingAndGlyphs" textLength="8" x="484.6171" y="708.2535">1</text><!--link cefapp::BackendRequestDispatcherAdapterCef to Handler--><path d="M401.0923,687.583 C371.7381,703.5321 334.6234,722.8237 300.5,738 C277.1052,748.4048 251.3183,758.5566 227.2929,767.4809 " fill="none" id="cefapp::BackendRequestDispatcherAdapterCef-Handler" style="stroke: #A80036; stroke-width: 1.0;"/><polygon fill="none" points="229.6697,774.065,208.482,774.3562,224.8637,760.9158,229.6697,774.065" style="stroke: #A80036; stroke-width: 1.0;"/><!--link cefapp::BackendSchemeHandlerFactory to cefapp::BackendRequestDispatcher--><path d="M818.3494,436.6685 C826.6925,461.8197 834.5,493.0817 834.5,522 C834.5,522 834.5,522 834.5,798.5 C834.5,829.5688 824.887,861.9235 813.1711,889.8189 " fill="none" id="cefapp::BackendSchemeHandlerFactory-cefapp::BackendRequestDispatcher" style="stroke: #A80036; stroke-width: 1.0;"/><polygon fill="#A80036" points="813.9762,424.1179,812.1732,431.1,817.9248,435.4497,819.7277,428.4676,813.9762,424.1179" style="stroke: #A80036; stroke-width: 1.0;"/><text fill="#000000" font-family="sans-serif" font-size="13" lengthAdjust="spacingAndGlyphs" textLength="8" x="807.9487" y="444.3894">1</text><!--link backend::BackendRequestHandler to cefapp::BackendRequestDispatcher--><path d="M1137.0331,829.0273 C1065.3243,855.898 960.3082,895.2497 881.217,924.8868 " fill="none" id="backend::BackendRequestHandler-cefapp::BackendRequestDispatcher" style="stroke: #A80036; stroke-width: 1.0;"/><polygon fill="#A80036" points="868.755,929.5566,875.7771,931.1969,879.992,925.3458,872.9699,923.7056,868.755,929.5566" style="stroke: #A80036; stroke-width: 1.0;"/><text fill="#000000" font-family="sans-serif" font-size="13" lengthAdjust="spacingAndGlyphs" textLength="22" x="876.3667" y="924.0587">1..*</text><!--link Handler to cefapp::AppHandler--><path d="M171.8803,774.2399 C193.5135,757.4681 220.6231,733.4703 238.5,707 C292.8698,626.4946 326.0159,517.7478 342.8112,450.0223 " fill="none" id="Handler-cefapp::AppHandler" style="stroke: #A80036; stroke-width: 1.0;"/><polygon fill="#A80036" points="345.9536,437.0447,340.6539,441.9348,343.1294,448.7076,348.4291,443.8176,345.9536,437.0447" style="stroke: #A80036; stroke-width: 1.0;"/><text fill="#000000" font-family="sans-serif" font-size="13" lengthAdjust="spacingAndGlyphs" textLength="8" x="335.9989" y="457.3786">1</text><!--link CefMessageRouterBrowserSide to cefapp::AppHandler--><path d="M251.0898,387 C258.2055,387 265.3212,387 272.4369,387 " fill="none" id="CefMessageRouterBrowserSide-cefapp::AppHandler" style="stroke: #A80036; stroke-width: 1.0;"/><polygon fill="#A80036" points="285.6776,387,279.6776,383,273.6776,387,279.6776,391,285.6776,387" style="stroke: #A80036; stroke-width: 1.0;"/><text fill="#000000" font-family="sans-serif" font-size="13" lengthAdjust="spacingAndGlyphs" textLength="8" x="269.9615" y="383.8202">1</text><!--link CefResourceHandler to cefapp::BackendResourceHandler--><path d="M233.3463,597.4045 C250.5364,588.7703 268.8396,581.2172 287,576.5 C414.7603,543.3139 457.3986,539.1357 584,576.5 C617.2034,586.2994 649.8837,608.0227 673.4253,626.4354 " fill="none" id="CefResourceHandler-cefapp::BackendResourceHandler" style="stroke: #A80036; stroke-width: 1.0;"/><polygon fill="none" points="236.4794,603.6669,215.5403,606.9162,229.8829,591.3183,236.4794,603.6669" style="stroke: #A80036; stroke-width: 1.0;"/><!--link backend::ExecutionGraphBackend to backend::Backend--><path d="M1466.5,822.6554 C1466.5,877.4725 1466.5,1011.9751 1466.5,1082.3837 " fill="none" id="backend::ExecutionGraphBackend-backend::Backend" style="stroke: #A80036; stroke-width: 1.0;"/><polygon fill="none" points="1473.5001,1082.8092,1466.5,1102.8092,1459.5001,1082.8092,1473.5001,1082.8092" style="stroke: #A80036; stroke-width: 1.0;"/><!--link backend::DummyRequestHandler to backend::BackendRequestHandler--><path d="M1218.5,546.0539 C1218.5,590.7546 1218.5,687.5157 1218.5,747.4126 " fill="none" id="backend::DummyRequestHandler-backend::BackendRequestHandler" style="stroke: #A80036; stroke-width: 1.0;"/><polygon fill="none" points="1225.5001,747.6473,1218.5,767.6472,1211.5001,747.6472,1225.5001,747.6473" style="stroke: #A80036; stroke-width: 1.0;"/><!--link backend::BackendFactory to backend::ExecutionGraphBackend--><path d="M1246.7857,243.6106 C1318.5528,262.5976 1419.5,304.0481 1419.5,387 C1419.5,387 1419.5,387 1419.5,657 C1419.5,697.6203 1437.1598,741.6092 1450.8293,769.5743 " fill="none" id="backend::BackendFactory-backend::ExecutionGraphBackend" style="stroke: #A80036; stroke-width: 1.0; stroke-dasharray: 7.0,7.0;"/><polygon fill="#A80036" points="1453.1574,774.2631,1452.7373,764.4232,1450.9337,769.7848,1445.5721,767.9812,1453.1574,774.2631" style="stroke: #A80036; stroke-width: 1.0;"/><text fill="#000000" font-family="sans-serif" font-size="13" lengthAdjust="spacingAndGlyphs" textLength="45" x="1420.5" y="527.0684">creates</text><!--link backend::BackendFactory to backend::DummyRequestHandler--><path d="M1180.9154,260.2498 C1189.0562,316.9447 1206.3263,437.2187 1214.3017,492.7617 " fill="none" id="backend::BackendFactory-backend::DummyRequestHandler" style="stroke: #A80036; stroke-width: 1.0; stroke-dasharray: 7.0,7.0;"/><polygon fill="#A80036" points="1215.0439,497.9305,1217.724,488.4533,1214.3332,492.9813,1209.8052,489.5904,1215.0439,497.9305" style="stroke: #A80036; stroke-width: 1.0;"/><text fill="#000000" font-family="sans-serif" font-size="13" lengthAdjust="spacingAndGlyphs" textLength="45" x="1206.5" y="392.0684">creates</text><!--link backend::DummyRequestHandler to backend::ExecutionGraphBackend--><path d="M1248.3323,555.9853 C1285.909,598.6947 1352.5764,674.1433 1410.5,738 C1421.4621,750.085 1433.7661,763.4041 1444.043,774.4618 " fill="none" id="backend::DummyRequestHandler-backend::ExecutionGraphBackend" style="stroke: #A80036; stroke-width: 1.0;"/><polygon fill="#A80036" points="1239.652,546.1134,1240.6101,553.2606,1247.5759,555.1251,1246.6179,547.9779,1239.652,546.1134" style="stroke: #A80036; stroke-width: 1.0;"/><text fill="#000000" font-family="sans-serif" font-size="13" lengthAdjust="spacingAndGlyphs" textLength="8" x="1235.8328" y="566.4254">1</text><!--link backend::BackendFactory to executionGraph::StaticFactory--><path d="M1142.7332,260.2415 C1111.2073,288.9428 1064.5694,331.4022 1034.1066,359.1356 " fill="none" id="backend::BackendFactory-executionGraph::StaticFactory" style="stroke: #A80036; stroke-width: 1.0; stroke-dasharray: 7.0,7.0;"/><polygon fill="#A80036" points="1030.1041,362.7795,1039.452,359.6785,1033.8014,359.4135,1034.0664,353.7628,1030.1041,362.7795" style="stroke: #A80036; stroke-width: 1.0;"/><text fill="#000000" font-family="sans-serif" font-size="13" lengthAdjust="spacingAndGlyphs" textLength="29" x="1105.5" y="303.5684">uses</text><!--
@startuml
set namespaceSeparator ::
skinparam shadowing false

class CefMessageRouterBrowserSide
class Handler as "CefMessageRouterBrowserSide::Handler"

class CefResourceHandler {
    + Cancel(...) {abstract} 
    + GetResponseHeaders(...) {abstract} 
    + ProcessRequest(...) {abstract} 
    + ReadResponse(...) {abstract}
}

namespace cefapp{
    class App{
        + OnContextInitialized()
        - m_appHandler
    }
    class AppHandler #D3D3D3{
        + OnAfterCreated()
        + OnBeforeCloses()
        - m_router
        - m_requestDispatcher
    }

    class BackendRequestDispatcher {
        + addHandler(...)
        + removeHandler(...)
        + addRequest(request, response)
        + start()
        + stop()
        - m_generalHandlers
        - m_specificHandlers
        - m_handlerMap
    }
    class BackendRequestDispatcherAdapterCef {
        - m_dispatcher
    }

    class ClientSchemeHandlerFactory {
        + Create(...)
    }
    class BackendSchemeHandlerFactory {
        + Create(...)
        - m_dispatcher
    }
    class BackendResourceHandler {
        - m_dispatcher
    }
}

cefapp::App ..> cefapp::AppHandler : creates
cefapp::App ..> cefapp::ClientSchemeHandlerFactory : registers
cefapp::App ..> cefapp::BackendSchemeHandlerFactory : registers
cefapp::App .right.> backend::BackendFactory : uses

cefapp::BackendSchemeHandlerFactory ..> cefapp::BackendResourceHandler : creates
cefapp::BackendResourceHandler "1" *- - cefapp::BackendRequestDispatcher : uses

cefapp::BackendRequestDispatcherAdapterCef "1" *- - cefapp::BackendRequestDispatcher
cefapp::BackendRequestDispatcherAdapterCef -down-|> Handler
cefapp::BackendSchemeHandlerFactory "1" *- - cefapp::BackendRequestDispatcher
cefapp::BackendRequestDispatcher "1..*" *-up- backend::BackendRequestHandler

cefapp::AppHandler "1" *-left- Handler
cefapp::AppHandler "1" *-left- CefMessageRouterBrowserSide
cefapp::BackendResourceHandler -left-|> CefResourceHandler

namespace backend {
    class Backend #D3D3D3
    class BackendRequestHandler #D3D3D3 {
        + handleRequest(request, responsePromise) {abstract} 
    }

    class BackendFactory {
        + BackendData Create() {static}
    }

    class DummyRequestHandler
}

namespace executionGraph {
    class StaticFactory<T...>
}

backend::ExecutionGraphBackend - -|> backend::Backend
backend::DummyRequestHandler - -|> backend::BackendRequestHandler

backend::BackendFactory ..> backend::ExecutionGraphBackend : creates
backend::BackendFactory ..> backend::DummyRequestHandler : creates

backend::DummyRequestHandler "1" *- - backend::ExecutionGraphBackend

backend::BackendFactory ..> executionGraph::StaticFactory : uses
@enduml

PlantUML version 1.2018.01(Sun Jan 28 19:08:22 CET 2018)
(GPL source distribution)
Java Runtime: Java(TM) SE Runtime Environment
JVM: Java HotSpot(TM) 64-Bit Server VM
Java Version: 9.0.4+11
Operating System: Mac OS X
OS Version: 10.11.6
Default Encoding: UTF-8
Language: de
Country: DE
--></g></svg>