<?xml version="1.0" encoding="UTF-8" standalone="no"?><svg xmlns="http://www.w3.org/2000/svg" xmlns:xlink="http://www.w3.org/1999/xlink" contentScriptType="application/ecmascript" contentStyleType="text/css" height="1158px" preserveAspectRatio="none" style="width:834px;height:1158px;" version="1.1" viewBox="0 0 834 1158" width="834px" zoomAndPan="magnify"><defs/><g><!--cluster cefapp--><polygon fill="#FFFFFF" points="378,16,431,16,438,38.4883,812,38.4883,812,364,378,364,378,16" style="stroke: #000000; stroke-width: 1.5;"/><line style="stroke: #000000; stroke-width: 1.5;" x1="378" x2="438" y1="38.4883" y2="38.4883"/><text fill="#000000" font-family="sans-serif" font-size="14" font-weight="bold" lengthAdjust="spacingAndGlyphs" textLength="47" x="382" y="31.5352">cefapp</text><!--cluster backend--><polygon fill="#FFFFFF" points="14,395,79,395,86,417.4883,464,417.4883,464,1146,14,1146,14,395" style="stroke: #000000; stroke-width: 1.5;"/><line style="stroke: #000000; stroke-width: 1.5;" x1="14" x2="86" y1="417.4883" y2="417.4883"/><text fill="#000000" font-family="sans-serif" font-size="14" font-weight="bold" lengthAdjust="spacingAndGlyphs" textLength="59" x="18" y="410.5352">backend</text><!--cluster executionGraph--><polygon fill="#FFFFFF" points="554,666.5,671,666.5,678,688.9883,698,688.9883,698,749.5,554,749.5,554,666.5" style="stroke: #000000; stroke-width: 1.5;"/><line style="stroke: #000000; stroke-width: 1.5;" x1="554" x2="678" y1="688.9883" y2="688.9883"/><text fill="#000000" font-family="sans-serif" font-size="14" font-weight="bold" lengthAdjust="spacingAndGlyphs" textLength="111" x="558" y="682.0352">executionGraph</text><!--class cefapp::App--><rect fill="#FEFECE" height="60.9551" id="cefapp::App" style="stroke: #A80036; stroke-width: 1.5;" width="144" x="386" y="43"/><ellipse cx="441.75" cy="59" fill="#ADD1B2" rx="11" ry="11" style="stroke: #A80036; stroke-width: 1.0;"/><path d="M444.7231,64.6431 Q444.1421,64.9419 443.5029,65.0913 Q442.8638,65.2407 442.1582,65.2407 Q439.6514,65.2407 438.3315,63.5889 Q437.0117,61.937 437.0117,58.8159 Q437.0117,55.6865 438.3315,54.0347 Q439.6514,52.3828 442.1582,52.3828 Q442.8638,52.3828 443.5112,52.5322 Q444.1587,52.6816 444.7231,52.9805 L444.7231,55.7031 Q444.0923,55.1221 443.4988,54.8523 Q442.9053,54.5825 442.2744,54.5825 Q440.9297,54.5825 440.2449,55.6492 Q439.5601,56.7158 439.5601,58.8159 Q439.5601,60.9077 440.2449,61.9744 Q440.9297,63.041 442.2744,63.041 Q442.9053,63.041 443.4988,62.7712 Q444.0923,62.5015 444.7231,61.9204 Z "/><text fill="#000000" font-family="sans-serif" font-size="12" lengthAdjust="spacingAndGlyphs" textLength="24" x="462.25" y="63.5352">App</text><line style="stroke: #A80036; stroke-width: 1.5;" x1="387" x2="529" y1="75" y2="75"/><line style="stroke: #A80036; stroke-width: 1.5;" x1="387" x2="529" y1="83" y2="83"/><ellipse cx="397" cy="94.9775" fill="#84BE84" rx="3" ry="3" style="stroke: #038048; stroke-width: 1.0;"/><text fill="#000000" font-family="sans-serif" font-size="11" lengthAdjust="spacingAndGlyphs" textLength="118" x="406" y="97.6348">OnContextInitialized()</text><!--class cefapp::AppHandler--><rect fill="#D3D3D3" height="112.7754" id="cefapp::AppHandler" style="stroke: #A80036; stroke-width: 1.5;" width="128" x="394" y="243"/><rect fill="#D3D3D3" height="32" style="stroke: #A80036; stroke-width: 1.5;" width="128" x="394" y="243"/><ellipse cx="420.7" cy="259" fill="#ADD1B2" rx="11" ry="11" style="stroke: #A80036; stroke-width: 1.0;"/><path d="M423.6731,264.6431 Q423.0921,264.9419 422.4529,265.0913 Q421.8138,265.2407 421.1082,265.2407 Q418.6014,265.2407 417.2815,263.5889 Q415.9617,261.937 415.9617,258.8159 Q415.9617,255.6865 417.2815,254.0347 Q418.6014,252.3828 421.1082,252.3828 Q421.8138,252.3828 422.4612,252.5322 Q423.1087,252.6816 423.6731,252.9805 L423.6731,255.7031 Q423.0423,255.1221 422.4488,254.8523 Q421.8553,254.5825 421.2244,254.5825 Q419.8797,254.5825 419.1949,255.6492 Q418.5101,256.7158 418.5101,258.8159 Q418.5101,260.9077 419.1949,261.9744 Q419.8797,263.041 421.2244,263.041 Q421.8553,263.041 422.4488,262.7712 Q423.0423,262.5015 423.6731,261.9204 Z "/><text fill="#000000" font-family="sans-serif" font-size="12" lengthAdjust="spacingAndGlyphs" textLength="70" x="437.3" y="263.5352">AppHandler</text><line style="stroke: #A80036; stroke-width: 1.5;" x1="395" x2="521" y1="275" y2="275"/><rect fill="none" height="6" style="stroke: #C82930; stroke-width: 1.0;" width="6" x="402" y="283.9775"/><text fill="#000000" font-family="sans-serif" font-size="11" lengthAdjust="spacingAndGlyphs" textLength="50" x="414" y="289.6348">m_router</text><rect fill="none" height="6" style="stroke: #C82930; stroke-width: 1.0;" width="6" x="402" y="296.9326"/><text fill="#000000" font-family="sans-serif" font-size="11" lengthAdjust="spacingAndGlyphs" textLength="102" x="414" y="302.5898">m_backendStorage</text><line style="stroke: #A80036; stroke-width: 1.5;" x1="395" x2="521" y1="308.9102" y2="308.9102"/><ellipse cx="405" cy="320.8877" fill="#84BE84" rx="3" ry="3" style="stroke: #038048; stroke-width: 1.0;"/><text fill="#000000" font-family="sans-serif" font-size="11" lengthAdjust="spacingAndGlyphs" textLength="93" x="414" y="323.5449">OnAfterCreated()</text><ellipse cx="405" cy="333.8428" fill="#84BE84" rx="3" ry="3" style="stroke: #038048; stroke-width: 1.0;"/><text fill="#000000" font-family="sans-serif" font-size="11" lengthAdjust="spacingAndGlyphs" textLength="94" x="414" y="336.5">OnBeforeCloses()</text><rect fill="#F24D5C" height="6" style="stroke: #C82930; stroke-width: 1.0;" width="6" x="402" y="343.7979"/><text fill="#000000" font-family="sans-serif" font-size="11" lengthAdjust="spacingAndGlyphs" textLength="102" x="414" y="349.4551">initializeBackends()</text><!--class cefapp::FileSchemeHandlerFactory--><rect fill="#FEFECE" height="48" id="cefapp::FileSchemeHandlerFactory" style="stroke: #A80036; stroke-width: 1.5;" width="182" x="622" y="49.5"/><ellipse cx="637" cy="65.5" fill="#ADD1B2" rx="11" ry="11" style="stroke: #A80036; stroke-width: 1.0;"/><path d="M639.9731,71.1431 Q639.3921,71.4419 638.7529,71.5913 Q638.1138,71.7407 637.4082,71.7407 Q634.9014,71.7407 633.5815,70.0889 Q632.2617,68.437 632.2617,65.3159 Q632.2617,62.1865 633.5815,60.5347 Q634.9014,58.8828 637.4082,58.8828 Q638.1138,58.8828 638.7612,59.0322 Q639.4087,59.1816 639.9731,59.4805 L639.9731,62.2031 Q639.3423,61.6221 638.7488,61.3523 Q638.1553,61.0825 637.5244,61.0825 Q636.1797,61.0825 635.4949,62.1492 Q634.8101,63.2158 634.8101,65.3159 Q634.8101,67.4077 635.4949,68.4744 Q636.1797,69.541 637.5244,69.541 Q638.1553,69.541 638.7488,69.2712 Q639.3423,69.0015 639.9731,68.4204 Z "/><text fill="#000000" font-family="sans-serif" font-size="12" lengthAdjust="spacingAndGlyphs" textLength="150" x="651" y="70.0352">FileSchemeHandlerFactory</text><line style="stroke: #A80036; stroke-width: 1.5;" x1="623" x2="803" y1="81.5" y2="81.5"/><line style="stroke: #A80036; stroke-width: 1.5;" x1="623" x2="803" y1="89.5" y2="89.5"/><!--class backend::BackendStorage--><rect fill="#FEFECE" height="125.7305" id="backend::BackendStorage" style="stroke: #A80036; stroke-width: 1.5;" width="221" x="234.5" y="422"/><ellipse cx="294.75" cy="438" fill="#ADD1B2" rx="11" ry="11" style="stroke: #A80036; stroke-width: 1.0;"/><path d="M297.7231,443.6431 Q297.1421,443.9419 296.5029,444.0913 Q295.8638,444.2407 295.1582,444.2407 Q292.6514,444.2407 291.3315,442.5889 Q290.0117,440.937 290.0117,437.8159 Q290.0117,434.6865 291.3315,433.0347 Q292.6514,431.3828 295.1582,431.3828 Q295.8638,431.3828 296.5112,431.5322 Q297.1587,431.6816 297.7231,431.9805 L297.7231,434.7031 Q297.0923,434.1221 296.4988,433.8523 Q295.9053,433.5825 295.2744,433.5825 Q293.9297,433.5825 293.2449,434.6492 Q292.5601,435.7158 292.5601,437.8159 Q292.5601,439.9077 293.2449,440.9744 Q293.9297,442.041 295.2744,442.041 Q295.9053,442.041 296.4988,441.7712 Q297.0923,441.5015 297.7231,440.9204 Z "/><text fill="#000000" font-family="sans-serif" font-size="12" lengthAdjust="spacingAndGlyphs" textLength="92" x="315.25" y="442.5352">BackendStorage</text><line style="stroke: #A80036; stroke-width: 1.5;" x1="235.5" x2="454.5" y1="454" y2="454"/><rect fill="none" height="6" style="stroke: #C82930; stroke-width: 1.0;" width="6" x="242.5" y="462.9775"/><text fill="#000000" font-family="sans-serif" font-size="11" lengthAdjust="spacingAndGlyphs" textLength="67" x="254.5" y="468.6348">m_backends</text><rect fill="none" height="6" style="stroke: #C82930; stroke-width: 1.0;" width="6" x="242.5" y="475.9326"/><text fill="#000000" font-family="sans-serif" font-size="11" lengthAdjust="spacingAndGlyphs" textLength="109" x="254.5" y="481.5898">m_backendHandlers</text><line style="stroke: #A80036; stroke-width: 1.5;" x1="235.5" x2="454.5" y1="487.9102" y2="487.9102"/><ellipse cx="245.5" cy="499.8877" fill="#84BE84" rx="3" ry="3" style="stroke: #038048; stroke-width: 1.0;"/><text fill="#000000" font-family="sans-serif" font-size="11" lengthAdjust="spacingAndGlyphs" textLength="141" x="254.5" y="502.5449">RegisterBackend(backend)</text><ellipse cx="245.5" cy="512.8428" fill="#84BE84" rx="3" ry="3" style="stroke: #038048; stroke-width: 1.0;"/><text fill="#000000" font-family="sans-serif" font-size="11" lengthAdjust="spacingAndGlyphs" textLength="80" x="254.5" y="515.5">GetBackend(id)</text><ellipse cx="245.5" cy="525.7979" fill="#84BE84" rx="3" ry="3" style="stroke: #038048; stroke-width: 1.0;"/><text fill="#000000" font-family="sans-serif" font-size="11" lengthAdjust="spacingAndGlyphs" textLength="182" x="254.5" y="528.4551">RegisterHandlersAtRouter(router)</text><ellipse cx="245.5" cy="538.7529" fill="#84BE84" rx="3" ry="3" style="stroke: #038048; stroke-width: 1.0;"/><text fill="#000000" font-family="sans-serif" font-size="11" lengthAdjust="spacingAndGlyphs" textLength="195" x="254.5" y="541.4102">UnregisterHandlersAtRouter(router)</text><!--class backend::Backend--><rect fill="#D3D3D3" height="48" id="backend::Backend" style="stroke: #A80036; stroke-width: 1.5;" width="81" x="374.5" y="693.5"/><rect fill="#D3D3D3" height="32" style="stroke: #A80036; stroke-width: 1.5;" width="81" x="374.5" y="693.5"/><ellipse cx="389.5" cy="709.5" fill="#ADD1B2" rx="11" ry="11" style="stroke: #A80036; stroke-width: 1.0;"/><path d="M392.4731,715.1431 Q391.8921,715.4419 391.2529,715.5913 Q390.6138,715.7407 389.9082,715.7407 Q387.4014,715.7407 386.0815,714.0889 Q384.7617,712.437 384.7617,709.3159 Q384.7617,706.1865 386.0815,704.5347 Q387.4014,702.8828 389.9082,702.8828 Q390.6138,702.8828 391.2612,703.0322 Q391.9087,703.1816 392.4731,703.4805 L392.4731,706.2031 Q391.8423,705.6221 391.2488,705.3523 Q390.6553,705.0825 390.0244,705.0825 Q388.6797,705.0825 387.9949,706.1492 Q387.3101,707.2158 387.3101,709.3159 Q387.3101,711.4077 387.9949,712.4744 Q388.6797,713.541 390.0244,713.541 Q390.6553,713.541 391.2488,713.2712 Q391.8423,713.0015 392.4731,712.4204 Z "/><text fill="#000000" font-family="sans-serif" font-size="12" lengthAdjust="spacingAndGlyphs" textLength="49" x="403.5" y="714.0352">Backend</text><line style="stroke: #A80036; stroke-width: 1.5;" x1="375.5" x2="454.5" y1="725.5" y2="725.5"/><line style="stroke: #A80036; stroke-width: 1.5;" x1="375.5" x2="454.5" y1="733.5" y2="733.5"/><!--class backend::BackendMessageHandler--><rect fill="#D3D3D3" height="73.9102" id="backend::BackendMessageHandler" style="stroke: #A80036; stroke-width: 1.5;" width="177" x="22.5" y="448"/><rect fill="#D3D3D3" height="32" style="stroke: #A80036; stroke-width: 1.5;" width="177" x="22.5" y="448"/><ellipse cx="37.5" cy="464" fill="#ADD1B2" rx="11" ry="11" style="stroke: #A80036; stroke-width: 1.0;"/><path d="M40.4731,469.6431 Q39.8921,469.9419 39.2529,470.0913 Q38.6138,470.2407 37.9082,470.2407 Q35.4014,470.2407 34.0815,468.5889 Q32.7617,466.937 32.7617,463.8159 Q32.7617,460.6865 34.0815,459.0347 Q35.4014,457.3828 37.9082,457.3828 Q38.6138,457.3828 39.2612,457.5322 Q39.9087,457.6816 40.4731,457.9805 L40.4731,460.7031 Q39.8423,460.1221 39.2488,459.8523 Q38.6553,459.5825 38.0244,459.5825 Q36.6797,459.5825 35.9949,460.6492 Q35.3101,461.7158 35.3101,463.8159 Q35.3101,465.9077 35.9949,466.9744 Q36.6797,468.041 38.0244,468.041 Q38.6553,468.041 39.2488,467.7712 Q39.8423,467.5015 40.4731,466.9204 Z "/><text fill="#000000" font-family="sans-serif" font-size="12" lengthAdjust="spacingAndGlyphs" textLength="145" x="51.5" y="468.5352">BackendMessageHandler</text><line style="stroke: #A80036; stroke-width: 1.5;" x1="23.5" x2="198.5" y1="480" y2="480"/><rect fill="none" height="6" style="stroke: #C82930; stroke-width: 1.0;" width="6" x="30.5" y="488.9775"/><text fill="#000000" font-family="sans-serif" font-size="11" lengthAdjust="spacingAndGlyphs" textLength="61" x="42.5" y="494.6348">m_backend</text><line style="stroke: #A80036; stroke-width: 1.5;" x1="23.5" x2="198.5" y1="500.9551" y2="500.9551"/><ellipse cx="33.5" cy="512.9326" fill="#84BE84" rx="3" ry="3" style="stroke: #038048; stroke-width: 1.0;"/><text fill="#000000" font-family="sans-serif" font-size="11" font-style="italic" lengthAdjust="spacingAndGlyphs" textLength="66" x="42.5" y="515.5898">OnQuery(...)</text><!--class backend::BackendMessageHandlerFactory--><rect fill="#FEFECE" height="60.9551" id="backend::BackendMessageHandlerFactory" style="stroke: #A80036; stroke-width: 1.5;" width="265" x="74.5" y="687"/><ellipse cx="110.65" cy="703" fill="#ADD1B2" rx="11" ry="11" style="stroke: #A80036; stroke-width: 1.0;"/><path d="M113.6231,708.6431 Q113.0421,708.9419 112.4029,709.0913 Q111.7638,709.2407 111.0582,709.2407 Q108.5514,709.2407 107.2315,707.5889 Q105.9117,705.937 105.9117,702.8159 Q105.9117,699.6865 107.2315,698.0347 Q108.5514,696.3828 111.0582,696.3828 Q111.7638,696.3828 112.4112,696.5322 Q113.0587,696.6816 113.6231,696.9805 L113.6231,699.7031 Q112.9923,699.1221 112.3988,698.8523 Q111.8053,698.5825 111.1744,698.5825 Q109.8297,698.5825 109.1449,699.6492 Q108.4601,700.7158 108.4601,702.8159 Q108.4601,704.9077 109.1449,705.9744 Q109.8297,707.041 111.1744,707.041 Q111.8053,707.041 112.3988,706.7712 Q112.9923,706.5015 113.6231,705.9204 Z "/><text fill="#000000" font-family="sans-serif" font-size="12" lengthAdjust="spacingAndGlyphs" textLength="186" x="129.35" y="707.5352">BackendMessageHandlerFactory</text><line style="stroke: #A80036; stroke-width: 1.5;" x1="75.5" x2="338.5" y1="719" y2="719"/><line style="stroke: #A80036; stroke-width: 1.5;" x1="75.5" x2="338.5" y1="727" y2="727"/><ellipse cx="85.5" cy="738.9775" fill="#84BE84" rx="3" ry="3" style="stroke: #038048; stroke-width: 1.0;"/><text fill="#000000" font-family="sans-serif" font-size="11" lengthAdjust="spacingAndGlyphs" text-decoration="underline" textLength="239" x="94.5" y="741.6348">std::optional&lt;HandlerList&gt; Create(rttr::type)</text><line style="stroke: #000000; stroke-width: 1.0;" x1="94.5" x2="333.5" y1="743.6348" y2="743.6348"/><!--class backend::CreatorExecutionGraphBackend--><rect fill="#FEFECE" height="48" id="backend::CreatorExecutionGraphBackend" style="stroke: #A80036; stroke-width: 1.5;" width="215" x="99.5" y="903"/><ellipse cx="114.5" cy="919" fill="#ADD1B2" rx="11" ry="11" style="stroke: #A80036; stroke-width: 1.0;"/><path d="M117.4731,924.6431 Q116.8921,924.9419 116.2529,925.0913 Q115.6138,925.2407 114.9082,925.2407 Q112.4014,925.2407 111.0815,923.5889 Q109.7617,921.937 109.7617,918.8159 Q109.7617,915.6865 111.0815,914.0347 Q112.4014,912.3828 114.9082,912.3828 Q115.6138,912.3828 116.2612,912.5322 Q116.9087,912.6816 117.4731,912.9805 L117.4731,915.7031 Q116.8423,915.1221 116.2488,914.8523 Q115.6553,914.5825 115.0244,914.5825 Q113.6797,914.5825 112.9949,915.6492 Q112.3101,916.7158 112.3101,918.8159 Q112.3101,920.9077 112.9949,921.9744 Q113.6797,923.041 115.0244,923.041 Q115.6553,923.041 116.2488,922.7712 Q116.8423,922.5015 117.4731,921.9204 Z "/><text fill="#000000" font-family="sans-serif" font-size="12" lengthAdjust="spacingAndGlyphs" textLength="183" x="128.5" y="923.5352">CreatorExecutionGraphBackend</text><line style="stroke: #A80036; stroke-width: 1.5;" x1="100.5" x2="313.5" y1="935" y2="935"/><line style="stroke: #A80036; stroke-width: 1.5;" x1="100.5" x2="313.5" y1="943" y2="943"/><!--class backend::DummyBackendMsgHandler--><rect fill="#FEFECE" height="48" id="backend::DummyBackendMsgHandler" style="stroke: #A80036; stroke-width: 1.5;" width="194" x="39" y="1090"/><ellipse cx="54" cy="1106" fill="#ADD1B2" rx="11" ry="11" style="stroke: #A80036; stroke-width: 1.0;"/><path d="M56.9731,1111.6431 Q56.3921,1111.9419 55.7529,1112.0913 Q55.1138,1112.2407 54.4082,1112.2407 Q51.9014,1112.2407 50.5815,1110.5889 Q49.2617,1108.937 49.2617,1105.8159 Q49.2617,1102.6865 50.5815,1101.0347 Q51.9014,1099.3828 54.4082,1099.3828 Q55.1138,1099.3828 55.7612,1099.5322 Q56.4087,1099.6816 56.9731,1099.9805 L56.9731,1102.7031 Q56.3423,1102.1221 55.7488,1101.8523 Q55.1553,1101.5825 54.5244,1101.5825 Q53.1797,1101.5825 52.4949,1102.6492 Q51.8101,1103.7158 51.8101,1105.8159 Q51.8101,1107.9077 52.4949,1108.9744 Q53.1797,1110.041 54.5244,1110.041 Q55.1553,1110.041 55.7488,1109.7712 Q56.3423,1109.5015 56.9731,1108.9204 Z "/><text fill="#000000" font-family="sans-serif" font-size="12" lengthAdjust="spacingAndGlyphs" textLength="162" x="68" y="1110.5352">DummyBackendMsgHandler</text><line style="stroke: #A80036; stroke-width: 1.5;" x1="40" x2="232" y1="1122" y2="1122"/><line style="stroke: #A80036; stroke-width: 1.5;" x1="40" x2="232" y1="1130" y2="1130"/><!--class backend::ExecutionGraphBackend--><rect fill="#FEFECE" height="48" id="backend::ExecutionGraphBackend" style="stroke: #A80036; stroke-width: 1.5;" width="172" x="284" y="1090"/><ellipse cx="299" cy="1106" fill="#ADD1B2" rx="11" ry="11" style="stroke: #A80036; stroke-width: 1.0;"/><path d="M301.9731,1111.6431 Q301.3921,1111.9419 300.7529,1112.0913 Q300.1138,1112.2407 299.4082,1112.2407 Q296.9014,1112.2407 295.5815,1110.5889 Q294.2617,1108.937 294.2617,1105.8159 Q294.2617,1102.6865 295.5815,1101.0347 Q296.9014,1099.3828 299.4082,1099.3828 Q300.1138,1099.3828 300.7612,1099.5322 Q301.4087,1099.6816 301.9731,1099.9805 L301.9731,1102.7031 Q301.3423,1102.1221 300.7488,1101.8523 Q300.1553,1101.5825 299.5244,1101.5825 Q298.1797,1101.5825 297.4949,1102.6492 Q296.8101,1103.7158 296.8101,1105.8159 Q296.8101,1107.9077 297.4949,1108.9744 Q298.1797,1110.041 299.5244,1110.041 Q300.1553,1110.041 300.7488,1109.7712 Q301.3423,1109.5015 301.9731,1108.9204 Z "/><text fill="#000000" font-family="sans-serif" font-size="12" lengthAdjust="spacingAndGlyphs" textLength="140" x="313" y="1110.5352">ExecutionGraphBackend</text><line style="stroke: #A80036; stroke-width: 1.5;" x1="285" x2="455" y1="1122" y2="1122"/><line style="stroke: #A80036; stroke-width: 1.5;" x1="285" x2="455" y1="1130" y2="1130"/><!--class executionGraph::StaticFactory--><rect fill="#FEFECE" height="48" id="executionGraph::StaticFactory" style="stroke: #A80036; stroke-width: 1.5;" width="127" x="562.5" y="693.5"/><ellipse cx="577.5" cy="709.5" fill="#ADD1B2" rx="11" ry="11" style="stroke: #A80036; stroke-width: 1.0;"/><path d="M580.4731,715.1431 Q579.8921,715.4419 579.2529,715.5913 Q578.6138,715.7407 577.9082,715.7407 Q575.4014,715.7407 574.0815,714.0889 Q572.7617,712.437 572.7617,709.3159 Q572.7617,706.1865 574.0815,704.5347 Q575.4014,702.8828 577.9082,702.8828 Q578.6138,702.8828 579.2612,703.0322 Q579.9087,703.1816 580.4731,703.4805 L580.4731,706.2031 Q579.8423,705.6221 579.2488,705.3523 Q578.6553,705.0825 578.0244,705.0825 Q576.6797,705.0825 575.9949,706.1492 Q575.3101,707.2158 575.3101,709.3159 Q575.3101,711.4077 575.9949,712.4744 Q576.6797,713.541 578.0244,713.541 Q578.6553,713.541 579.2488,713.2712 Q579.8423,713.0015 580.4731,712.4204 Z "/><text fill="#000000" font-family="sans-serif" font-size="12" lengthAdjust="spacingAndGlyphs" textLength="71" x="591.5" y="714.0352">StaticFactory</text><rect fill="#FFFFFF" height="16.1328" style="stroke: #000000; stroke-width: 1.0; stroke-dasharray: 2.0,2.0;" width="22" x="670.5" y="690.5"/><text fill="#000000" font-family="sans-serif" font-size="12" font-style="italic" lengthAdjust="spacingAndGlyphs" textLength="20" x="671.5" y="703.1016">T...</text><line style="stroke: #A80036; stroke-width: 1.5;" x1="563.5" x2="688.5" y1="725.5" y2="725.5"/><line style="stroke: #A80036; stroke-width: 1.5;" x1="563.5" x2="688.5" y1="733.5" y2="733.5"/><!--class CefMessageRouterBrowserSide--><rect fill="#FEFECE" height="48" id="CefMessageRouterBrowserSide" style="stroke: #A80036; stroke-width: 1.5;" width="209" x="149.5" y="275.5"/><ellipse cx="164.5" cy="291.5" fill="#ADD1B2" rx="11" ry="11" style="stroke: #A80036; stroke-width: 1.0;"/><path d="M167.4731,297.1431 Q166.8921,297.4419 166.2529,297.5913 Q165.6138,297.7407 164.9082,297.7407 Q162.4014,297.7407 161.0815,296.0889 Q159.7617,294.437 159.7617,291.3159 Q159.7617,288.1865 161.0815,286.5347 Q162.4014,284.8828 164.9082,284.8828 Q165.6138,284.8828 166.2612,285.0322 Q166.9087,285.1816 167.4731,285.4805 L167.4731,288.2031 Q166.8423,287.6221 166.2488,287.3523 Q165.6553,287.0825 165.0244,287.0825 Q163.6797,287.0825 162.9949,288.1492 Q162.3101,289.2158 162.3101,291.3159 Q162.3101,293.4077 162.9949,294.4744 Q163.6797,295.541 165.0244,295.541 Q165.6553,295.541 166.2488,295.2712 Q166.8423,295.0015 167.4731,294.4204 Z "/><text fill="#000000" font-family="sans-serif" font-size="12" lengthAdjust="spacingAndGlyphs" textLength="177" x="178.5" y="296.0352">CefMessageRouterBrowserSide</text><line style="stroke: #A80036; stroke-width: 1.5;" x1="150.5" x2="357.5" y1="307.5" y2="307.5"/><line style="stroke: #A80036; stroke-width: 1.5;" x1="150.5" x2="357.5" y1="315.5" y2="315.5"/><!--link cefapp::App to cefapp::AppHandler--><path d="M458,104.4505 C458,138.6038 458,194.4531 458,237.6566 " fill="none" id="cefapp::App-cefapp::AppHandler" style="stroke: #A80036; stroke-width: 1.0; stroke-dasharray: 7.0,7.0;"/><polygon fill="#A80036" points="458,242.8603,462,233.8603,458,237.8603,454,233.8603,458,242.8603" style="stroke: #A80036; stroke-width: 1.0;"/><text fill="#000000" font-family="sans-serif" font-size="13" lengthAdjust="spacingAndGlyphs" textLength="45" x="459" y="178.5684">creates</text><!--link cefapp::App to cefapp::FileSchemeHandlerFactory--><path d="M530.0503,73.5 C556.8094,73.5 587.6156,73.5 616.2267,73.5 " fill="none" id="cefapp::App-cefapp::FileSchemeHandlerFactory" style="stroke: #A80036; stroke-width: 1.0;"/><polygon fill="#A80036" points="621.542,73.5,612.542,69.5,616.542,73.5,612.542,77.5,621.542,73.5" style="stroke: #A80036; stroke-width: 1.0;"/><text fill="#000000" font-family="sans-serif" font-size="13" lengthAdjust="spacingAndGlyphs" textLength="55" x="548.5" y="67.0684">registers</text><!--link CefMessageRouterBrowserSide to cefapp::AppHandler--><path d="M358.7891,299.5 C366.0555,299.5 373.3219,299.5 380.5883,299.5 " fill="none" id="CefMessageRouterBrowserSide-cefapp::AppHandler" style="stroke: #A80036; stroke-width: 1.0;"/><polygon fill="#FFFFFF" points="393.6679,299.5,387.6679,295.5,381.6679,299.5,387.6679,303.5,393.6679,299.5" style="stroke: #A80036; stroke-width: 1.0;"/><text fill="#000000" font-family="sans-serif" font-size="13" lengthAdjust="spacingAndGlyphs" textLength="8" x="378.1941" y="296.2773">1</text><!--link cefapp::AppHandler to backend::BackendStorage--><path d="M416.6635,367.3576 C405.8073,385.1792 394.1443,404.325 383.4464,421.8867 " fill="none" id="cefapp::AppHandler-backend::BackendStorage" style="stroke: #A80036; stroke-width: 1.0;"/><polygon fill="#A80036" points="423.4823,356.1641,416.9447,359.2072,417.2393,366.4123,423.7769,363.3692,423.4823,356.1641" style="stroke: #A80036; stroke-width: 1.0;"/><text fill="#000000" font-family="sans-serif" font-size="13" lengthAdjust="spacingAndGlyphs" textLength="8" x="411.0287" y="376.1824">1</text><!--link backend::BackendStorage to backend::Backend--><path d="M367.8445,560.8763 C381.6506,606.7322 398.3379,662.1581 407.7033,693.2645 " fill="none" id="backend::BackendStorage-backend::Backend" style="stroke: #A80036; stroke-width: 1.0;"/><polygon fill="#A80036" points="364.0353,548.2245,361.9349,555.1229,367.4949,559.715,369.5952,552.8166,364.0353,548.2245" style="stroke: #A80036; stroke-width: 1.0;"/><text fill="#000000" font-family="sans-serif" font-size="13" lengthAdjust="spacingAndGlyphs" textLength="26" x="338.6577" y="568.1162">0...*</text><!--link backend::BackendStorage to backend::BackendMessageHandler--><path d="M221.0378,485 C213.9132,485 206.7886,485 199.6641,485 " fill="none" id="backend::BackendStorage-backend::BackendMessageHandler" style="stroke: #A80036; stroke-width: 1.0;"/><polygon fill="#A80036" points="234.2949,485,228.2949,481,222.2949,485,228.2949,489,234.2949,485" style="stroke: #A80036; stroke-width: 1.0;"/><text fill="#000000" font-family="sans-serif" font-size="13" lengthAdjust="spacingAndGlyphs" textLength="26" x="207.5679" y="481.5607">0...*</text><!--link backend::BackendMessageHandler to backend::Backend--><path d="M149.4396,532.1427 C175.9758,562.2452 213.4884,600.3043 253,626 C294.5833,653.043 314.6165,640.7291 357,666.5 C369.2589,673.9539 381.4026,684.0864 391.3858,693.3562 " fill="none" id="backend::BackendMessageHandler-backend::Backend" style="stroke: #A80036; stroke-width: 1.0;"/><polygon fill="#A80036" points="140.8742,522.2684,141.7842,529.4219,148.7373,531.3332,147.8274,524.1798,140.8742,522.2684" style="stroke: #A80036; stroke-width: 1.0;"/><text fill="#000000" font-family="sans-serif" font-size="13" lengthAdjust="spacingAndGlyphs" textLength="8" x="137.3213" y="542.5657">1</text><!--link backend::BackendStorage to backend::BackendMessageHandlerFactory--><path d="M307.4732,548.2245 C281.8845,591.3359 248.9462,646.8297 227.8961,682.2946 " fill="none" id="backend::BackendStorage-backend::BackendMessageHandlerFactory" style="stroke: #A80036; stroke-width: 1.0; stroke-dasharray: 7.0,7.0;"/><polygon fill="#A80036" points="225.1344,686.9474,233.168,681.2499,227.6866,682.6478,226.2886,677.1664,225.1344,686.9474" style="stroke: #A80036; stroke-width: 1.0;"/><text fill="#000000" font-family="sans-serif" font-size="13" lengthAdjust="spacingAndGlyphs" textLength="29" x="271" y="622.5684">uses</text><!--link cefapp::AppHandler to backend::ExecutionGraphBackend--><path d="M482.0066,356.0539 C495.2345,392.2446 509,440.5782 509,485 C509,485 509,485 509,1020.5 C509,1051.6954 484.5981,1073.1639 456.2426,1087.58 " fill="none" id="cefapp::AppHandler-backend::ExecutionGraphBackend" style="stroke: #A80036; stroke-width: 1.0; stroke-dasharray: 7.0,7.0;"/><polygon fill="#A80036" points="451.6609,1089.8335,461.5023,1089.4505,456.1475,1087.6267,457.9714,1082.2719,451.6609,1089.8335" style="stroke: #A80036; stroke-width: 1.0;"/><text fill="#000000" font-family="sans-serif" font-size="13" lengthAdjust="spacingAndGlyphs" textLength="76" x="510" y="791.5684">instanciates</text><!--link backend::Backend to backend::ExecutionGraphBackend--><path d="M402.1216,761.3004 C396.866,782.8475 392,809.3248 392,833.5 C392,833.5 392,833.5 392,1020.5 C392,1044.5133 385.0391,1071.0957 378.9482,1089.7589 " fill="none" id="backend::Backend-backend::ExecutionGraphBackend" style="stroke: #A80036; stroke-width: 1.0;"/><polygon fill="none" points="395.4381,759.195,407.3413,741.6646,408.9682,762.7917,395.4381,759.195" style="stroke: #A80036; stroke-width: 1.0;"/><!--link backend::BackendMessageHandler to backend::DummyBackendMsgHandler--><path d="M65.839,538.4788 C50.8911,561.34 38,589.246 38,617.5 C38,617.5 38,617.5 38,1020.5 C38,1050.5996 62.5,1073.9746 87,1089.8247 " fill="none" id="backend::BackendMessageHandler-backend::DummyBackendMsgHandler" style="stroke: #A80036; stroke-width: 1.0;"/><polygon fill="none" points="60.2083,534.3177,77.4912,522.0579,71.6259,542.4196,60.2083,534.3177" style="stroke: #A80036; stroke-width: 1.0;"/><!--link backend::BackendMessageHandlerFactory to backend::CreatorExecutionGraphBackend--><path d="M207,748.4124 C207,788.6074 207,858.3149 207,897.7012 " fill="none" id="backend::BackendMessageHandlerFactory-backend::CreatorExecutionGraphBackend" style="stroke: #A80036; stroke-width: 1.0; stroke-dasharray: 7.0,7.0;"/><polygon fill="#A80036" points="207,902.8175,211,893.8175,207,897.8175,203,893.8175,207,902.8175" style="stroke: #A80036; stroke-width: 1.0;"/><text fill="#000000" font-family="sans-serif" font-size="13" lengthAdjust="spacingAndGlyphs" textLength="29" x="208" y="838.5684">uses</text><!--link backend::CreatorExecutionGraphBackend to backend::ExecutionGraphBackend--><path d="M227.9757,951.0642 C258.0905,985.6131 313.4631,1049.1387 345.446,1085.8307 " fill="none" id="backend::CreatorExecutionGraphBackend-backend::ExecutionGraphBackend" style="stroke: #A80036; stroke-width: 1.0; stroke-dasharray: 7.0,7.0;"/><polygon fill="#A80036" points="348.8466,1089.732,345.9482,1080.3193,345.5612,1085.9629,339.9176,1085.5759,348.8466,1089.732" style="stroke: #A80036; stroke-width: 1.0;"/><text fill="#000000" font-family="sans-serif" font-size="13" lengthAdjust="spacingAndGlyphs" textLength="29" x="294" y="1025.5684">uses</text><!--link backend::CreatorExecutionGraphBackend to backend::DummyBackendMsgHandler--><path d="M197.8633,951.0642 C184.8521,985.3333 161.0164,1048.1118 147.0357,1084.9342 " fill="none" id="backend::CreatorExecutionGraphBackend-backend::DummyBackendMsgHandler" style="stroke: #A80036; stroke-width: 1.0; stroke-dasharray: 7.0,7.0;"/><polygon fill="#A80036" points="145.214,1089.732,152.1482,1082.738,146.9888,1085.0576,144.6692,1079.8982,145.214,1089.732" style="stroke: #A80036; stroke-width: 1.0;"/><text fill="#000000" font-family="sans-serif" font-size="13" lengthAdjust="spacingAndGlyphs" textLength="29" x="174" y="1025.5684">uses</text><!--link backend::BackendMessageHandlerFactory to executionGraph::StaticFactory--><path d="M267.8999,686.8324 C297.5077,673.5965 334.0944,659.6421 368.6667,653 C436.1728,640.0306 457.2785,633.9724 523.3333,653 C548.9082,660.367 574.2642,676.1907 593.379,690.3205 " fill="none" id="backend::BackendMessageHandlerFactory-executionGraph::StaticFactory" style="stroke: #A80036; stroke-width: 1.0; stroke-dasharray: 7.0,7.0;"/><polygon fill="#A80036" points="597.6063,693.493,592.8088,684.8916,593.6072,690.4919,588.0069,691.2903,597.6063,693.493" style="stroke: #A80036; stroke-width: 1.0;"/><!--
@startuml
set namespaceSeparator ::
skinparam shadowing false

namespace cefapp{
    class App{
        + OnContextInitialized()
    }
    class AppHandler #D3D3D3{
        + OnAfterCreated()
        + OnBeforeCloses()
        - m_router
        - m_backendStorage
        - initializeBackends()
    }
    class FileSchemeHandlerFactory
}

class CefMessageRouterBrowserSide

cefapp::App ..> cefapp::AppHandler : creates
cefapp::App -right-> cefapp::FileSchemeHandlerFactory : registers

cefapp::AppHandler "1" o-left- CefMessageRouterBrowserSide
cefapp::AppHandler "1" *-down- backend::BackendStorage

namespace backend {
    class Backend #D3D3D3
    class BackendMessageHandler #D3D3D3{
        - m_backend
        + OnQuery(...) {abstract} 
    }

    class BackendStorage {
        + RegisterBackend(backend)
        + GetBackend(id)
        + RegisterHandlersAtRouter(router)
        + UnregisterHandlersAtRouter(router)
        - m_backends
        - m_backendHandlers
    }

    class BackendMessageHandlerFactory {
        + std::optional<HandlerList> Create(rttr::type) {static}
    }

    class CreatorExecutionGraphBackend

    class DummyBackendMsgHandler
}

namespace executionGraph {
    class StaticFactory<T...>
}


backend::BackendStorage "0...*" *-right- backend::Backend
backend::BackendStorage "0...*" *-right- backend::BackendMessageHandler
backend::BackendMessageHandler "1" *- - backend::Backend
backend::BackendStorage .down.> backend::BackendMessageHandlerFactory : uses

cefapp::AppHandler .right.> backend::ExecutionGraphBackend : instanciates

backend::ExecutionGraphBackend -up-|> backend::Backend
backend::DummyBackendMsgHandler -up-|> backend::BackendMessageHandler

backend::BackendMessageHandlerFactory .down.> backend::CreatorExecutionGraphBackend : uses

backend::CreatorExecutionGraphBackend .down.> backend::ExecutionGraphBackend : uses
backend::CreatorExecutionGraphBackend .down.> backend::DummyBackendMsgHandler : uses

backend::BackendMessageHandlerFactory .right.> executionGraph::StaticFactory
@enduml

PlantUML version 1.2017.20(Mon Dec 11 17:57:05 CET 2017)
(GPL source distribution)
Java Runtime: Java(TM) SE Runtime Environment
JVM: Java HotSpot(TM) 64-Bit Server VM
Java Version: 9.0.4+11
Operating System: Mac OS X
OS Version: 10.11.6
Default Encoding: UTF-8
Language: de
Country: DE
--></g></svg>