<?xml version="1.0" encoding="UTF-8" standalone="no"?><svg xmlns="http://www.w3.org/2000/svg" xmlns:xlink="http://www.w3.org/1999/xlink" contentScriptType="application/ecmascript" contentStyleType="text/css" height="1038px" preserveAspectRatio="none" style="width:1346px;height:1038px;" version="1.1" viewBox="0 0 1346 1038" width="1346px" zoomAndPan="magnify"><defs/><g><!--cluster cefapp--><polygon fill="#FFFFFF" points="28.5,16,81.5,16,88.5,38.4883,669.5,38.4883,669.5,549,28.5,549,28.5,16" style="stroke: #000000; stroke-width: 1.5;"/><line style="stroke: #000000; stroke-width: 1.5;" x1="28.5" x2="88.5" y1="38.4883" y2="38.4883"/><text fill="#000000" font-family="sans-serif" font-size="14" font-weight="bold" lengthAdjust="spacingAndGlyphs" textLength="47" x="32.5" y="31.5352">cefapp</text><!--cluster backend--><polygon fill="#FFFFFF" points="740.5,263,805.5,263,812.5,285.4883,1137.5,285.4883,1137.5,1026,740.5,1026,740.5,263" style="stroke: #000000; stroke-width: 1.5;"/><line style="stroke: #000000; stroke-width: 1.5;" x1="740.5" x2="812.5" y1="285.4883" y2="285.4883"/><text fill="#000000" font-family="sans-serif" font-size="14" font-weight="bold" lengthAdjust="spacingAndGlyphs" textLength="59" x="744.5" y="278.5352">backend</text><!--cluster executionGraph--><polygon fill="#FFFFFF" points="1145.5,433.5,1262.5,433.5,1269.5,455.9883,1289.5,455.9883,1289.5,516.5,1145.5,516.5,1145.5,433.5" style="stroke: #000000; stroke-width: 1.5;"/><line style="stroke: #000000; stroke-width: 1.5;" x1="1145.5" x2="1269.5" y1="455.9883" y2="455.9883"/><text fill="#000000" font-family="sans-serif" font-size="14" font-weight="bold" lengthAdjust="spacingAndGlyphs" textLength="111" x="1149.5" y="449.0352">executionGraph</text><!--class cefapp::App--><rect fill="#FEFECE" height="86.8652" id="cefapp::App" style="stroke: #A80036; stroke-width: 1.5;" width="147" x="237" y="82"/><ellipse cx="294.25" cy="98" fill="#ADD1B2" rx="11" ry="11" style="stroke: #A80036; stroke-width: 1.0;"/><path d="M297.2231,103.6431 Q296.6421,103.9419 296.0029,104.0913 Q295.3638,104.2407 294.6582,104.2407 Q292.1514,104.2407 290.8315,102.5889 Q289.5117,100.937 289.5117,97.8159 Q289.5117,94.6865 290.8315,93.0347 Q292.1514,91.3828 294.6582,91.3828 Q295.3638,91.3828 296.0112,91.5322 Q296.6587,91.6816 297.2231,91.9805 L297.2231,94.7031 Q296.5923,94.1221 295.9988,93.8523 Q295.4053,93.5825 294.7744,93.5825 Q293.4297,93.5825 292.7449,94.6492 Q292.0601,95.7158 292.0601,97.8159 Q292.0601,99.9077 292.7449,100.9744 Q293.4297,102.041 294.7744,102.041 Q295.4053,102.041 295.9988,101.7712 Q296.5923,101.5015 297.2231,100.9204 Z "/><text fill="#000000" font-family="sans-serif" font-size="12" lengthAdjust="spacingAndGlyphs" textLength="24" x="314.75" y="102.5352">App</text><line style="stroke: #A80036; stroke-width: 1.5;" x1="238" x2="383" y1="114" y2="114"/><rect fill="none" height="6" style="stroke: #C82930; stroke-width: 1.0;" width="6" x="245" y="122.9775"/><text fill="#000000" font-family="sans-serif" font-size="11" lengthAdjust="spacingAndGlyphs" textLength="78" x="257" y="128.6348">m_appHandler</text><rect fill="none" height="6" style="stroke: #C82930; stroke-width: 1.0;" width="6" x="245" y="135.9326"/><text fill="#000000" font-family="sans-serif" font-size="11" lengthAdjust="spacingAndGlyphs" textLength="121" x="257" y="141.5898">m_messageDispatcher</text><line style="stroke: #A80036; stroke-width: 1.5;" x1="238" x2="383" y1="147.9102" y2="147.9102"/><ellipse cx="248" cy="159.8877" fill="#84BE84" rx="3" ry="3" style="stroke: #038048; stroke-width: 1.0;"/><text fill="#000000" font-family="sans-serif" font-size="11" lengthAdjust="spacingAndGlyphs" textLength="118" x="257" y="162.5449">OnContextInitialized()</text><!--class cefapp::AppHandler--><rect fill="#D3D3D3" height="112.7754" id="cefapp::AppHandler" style="stroke: #A80036; stroke-width: 1.5;" width="147" x="37" y="428"/><rect fill="#D3D3D3" height="32" style="stroke: #A80036; stroke-width: 1.5;" width="147" x="37" y="428"/><ellipse cx="72.25" cy="444" fill="#ADD1B2" rx="11" ry="11" style="stroke: #A80036; stroke-width: 1.0;"/><path d="M75.2231,449.6431 Q74.6421,449.9419 74.0029,450.0913 Q73.3638,450.2407 72.6582,450.2407 Q70.1514,450.2407 68.8315,448.5889 Q67.5117,446.937 67.5117,443.8159 Q67.5117,440.6865 68.8315,439.0347 Q70.1514,437.3828 72.6582,437.3828 Q73.3638,437.3828 74.0112,437.5322 Q74.6587,437.6816 75.2231,437.9805 L75.2231,440.7031 Q74.5923,440.1221 73.9988,439.8523 Q73.4053,439.5825 72.7744,439.5825 Q71.4297,439.5825 70.7449,440.6492 Q70.0601,441.7158 70.0601,443.8159 Q70.0601,445.9077 70.7449,446.9744 Q71.4297,448.041 72.7744,448.041 Q73.4053,448.041 73.9988,447.7712 Q74.5923,447.5015 75.2231,446.9204 Z "/><text fill="#000000" font-family="sans-serif" font-size="12" lengthAdjust="spacingAndGlyphs" textLength="70" x="90.75" y="448.5352">AppHandler</text><line style="stroke: #A80036; stroke-width: 1.5;" x1="38" x2="183" y1="460" y2="460"/><rect fill="none" height="6" style="stroke: #C82930; stroke-width: 1.0;" width="6" x="45" y="468.9775"/><text fill="#000000" font-family="sans-serif" font-size="11" lengthAdjust="spacingAndGlyphs" textLength="50" x="57" y="474.6348">m_router</text><rect fill="none" height="6" style="stroke: #C82930; stroke-width: 1.0;" width="6" x="45" y="481.9326"/><text fill="#000000" font-family="sans-serif" font-size="11" lengthAdjust="spacingAndGlyphs" textLength="121" x="57" y="487.5898">m_messageDispatcher</text><line style="stroke: #A80036; stroke-width: 1.5;" x1="38" x2="183" y1="493.9102" y2="493.9102"/><ellipse cx="48" cy="505.8877" fill="#84BE84" rx="3" ry="3" style="stroke: #038048; stroke-width: 1.0;"/><text fill="#000000" font-family="sans-serif" font-size="11" lengthAdjust="spacingAndGlyphs" textLength="93" x="57" y="508.5449">OnAfterCreated()</text><ellipse cx="48" cy="518.8428" fill="#84BE84" rx="3" ry="3" style="stroke: #038048; stroke-width: 1.0;"/><text fill="#000000" font-family="sans-serif" font-size="11" lengthAdjust="spacingAndGlyphs" textLength="94" x="57" y="521.5">OnBeforeCloses()</text><rect fill="#F24D5C" height="6" style="stroke: #C82930; stroke-width: 1.0;" width="6" x="45" y="528.7979"/><text fill="#000000" font-family="sans-serif" font-size="11" lengthAdjust="spacingAndGlyphs" textLength="102" x="57" y="534.4551">initializeBackends()</text><!--class cefapp::MessageDispatcher--><rect fill="#FEFECE" height="164.5957" id="cefapp::MessageDispatcher" style="stroke: #A80036; stroke-width: 1.5;" width="242" x="419.5" y="43"/><ellipse cx="480.25" cy="59" fill="#ADD1B2" rx="11" ry="11" style="stroke: #A80036; stroke-width: 1.0;"/><path d="M483.2231,64.6431 Q482.6421,64.9419 482.0029,65.0913 Q481.3638,65.2407 480.6582,65.2407 Q478.1514,65.2407 476.8315,63.5889 Q475.5117,61.937 475.5117,58.8159 Q475.5117,55.6865 476.8315,54.0347 Q478.1514,52.3828 480.6582,52.3828 Q481.3638,52.3828 482.0112,52.5322 Q482.6587,52.6816 483.2231,52.9805 L483.2231,55.7031 Q482.5923,55.1221 481.9988,54.8523 Q481.4053,54.5825 480.7744,54.5825 Q479.4297,54.5825 478.7449,55.6492 Q478.0601,56.7158 478.0601,58.8159 Q478.0601,60.9077 478.7449,61.9744 Q479.4297,63.041 480.7744,63.041 Q481.4053,63.041 481.9988,62.7712 Q482.5923,62.5015 483.2231,61.9204 Z "/><text fill="#000000" font-family="sans-serif" font-size="12" lengthAdjust="spacingAndGlyphs" textLength="112" x="500.75" y="63.5352">MessageDispatcher</text><line style="stroke: #A80036; stroke-width: 1.5;" x1="420.5" x2="660.5" y1="75" y2="75"/><rect fill="none" height="6" style="stroke: #C82930; stroke-width: 1.0;" width="6" x="427.5" y="83.9775"/><text fill="#000000" font-family="sans-serif" font-size="11" lengthAdjust="spacingAndGlyphs" textLength="104" x="439.5" y="89.6348">m_generalHandlers</text><rect fill="none" height="6" style="stroke: #C82930; stroke-width: 1.0;" width="6" x="427.5" y="96.9326"/><text fill="#000000" font-family="sans-serif" font-size="11" lengthAdjust="spacingAndGlyphs" textLength="105" x="439.5" y="102.5898">m_specificHandlers</text><rect fill="none" height="6" style="stroke: #C82930; stroke-width: 1.0;" width="6" x="427.5" y="109.8877"/><text fill="#000000" font-family="sans-serif" font-size="11" lengthAdjust="spacingAndGlyphs" textLength="79" x="439.5" y="115.5449">m_handlerMap</text><line style="stroke: #A80036; stroke-width: 1.5;" x1="420.5" x2="660.5" y1="121.8652" y2="121.8652"/><ellipse cx="430.5" cy="133.8428" fill="#84BE84" rx="3" ry="3" style="stroke: #038048; stroke-width: 1.0;"/><text fill="#000000" font-family="sans-serif" font-size="11" lengthAdjust="spacingAndGlyphs" textLength="216" x="439.5" y="136.5">AddHandler(backendHandler, requestId)</text><ellipse cx="430.5" cy="146.7979" fill="#84BE84" rx="3" ry="3" style="stroke: #038048; stroke-width: 1.0;"/><text fill="#000000" font-family="sans-serif" font-size="11" lengthAdjust="spacingAndGlyphs" textLength="102" x="439.5" y="149.4551">RemoveHandler(id)</text><ellipse cx="430.5" cy="159.7529" fill="#84BE84" rx="3" ry="3" style="stroke: #038048; stroke-width: 1.0;"/><text fill="#000000" font-family="sans-serif" font-size="11" lengthAdjust="spacingAndGlyphs" textLength="57" x="439.5" y="162.4102">OnQuery()</text><ellipse cx="430.5" cy="172.708" fill="#84BE84" rx="3" ry="3" style="stroke: #038048; stroke-width: 1.0;"/><text fill="#000000" font-family="sans-serif" font-size="11" lengthAdjust="spacingAndGlyphs" textLength="73" x="439.5" y="175.3652">AddRequest()</text><ellipse cx="430.5" cy="185.6631" fill="#84BE84" rx="3" ry="3" style="stroke: #038048; stroke-width: 1.0;"/><text fill="#000000" font-family="sans-serif" font-size="11" lengthAdjust="spacingAndGlyphs" textLength="121" x="439.5" y="188.3203">StartMessageHandler()</text><ellipse cx="430.5" cy="198.6182" fill="#84BE84" rx="3" ry="3" style="stroke: #038048; stroke-width: 1.0;"/><text fill="#000000" font-family="sans-serif" font-size="11" lengthAdjust="spacingAndGlyphs" textLength="120" x="439.5" y="201.2754">StopMessageHandler()</text><!--class cefapp::ClientSchemeHandlerFactory--><rect fill="#FEFECE" height="48" id="cefapp::ClientSchemeHandlerFactory" style="stroke: #A80036; stroke-width: 1.5;" width="195" x="219" y="460.5"/><ellipse cx="234" cy="476.5" fill="#ADD1B2" rx="11" ry="11" style="stroke: #A80036; stroke-width: 1.0;"/><path d="M236.9731,482.1431 Q236.3921,482.4419 235.7529,482.5913 Q235.1138,482.7407 234.4082,482.7407 Q231.9014,482.7407 230.5815,481.0889 Q229.2617,479.437 229.2617,476.3159 Q229.2617,473.1865 230.5815,471.5347 Q231.9014,469.8828 234.4082,469.8828 Q235.1138,469.8828 235.7612,470.0322 Q236.4087,470.1816 236.9731,470.4805 L236.9731,473.2031 Q236.3423,472.6221 235.7488,472.3523 Q235.1553,472.0825 234.5244,472.0825 Q233.1797,472.0825 232.4949,473.1492 Q231.8101,474.2158 231.8101,476.3159 Q231.8101,478.4077 232.4949,479.4744 Q233.1797,480.541 234.5244,480.541 Q235.1553,480.541 235.7488,480.2712 Q236.3423,480.0015 236.9731,479.4204 Z "/><text fill="#000000" font-family="sans-serif" font-size="12" lengthAdjust="spacingAndGlyphs" textLength="163" x="248" y="481.0352">ClientSchemeHandlerFactory</text><line style="stroke: #A80036; stroke-width: 1.5;" x1="220" x2="413" y1="492.5" y2="492.5"/><line style="stroke: #A80036; stroke-width: 1.5;" x1="220" x2="413" y1="500.5" y2="500.5"/><!--class cefapp::BackendSchemeHandlerFactory--><rect fill="#FEFECE" height="48" id="cefapp::BackendSchemeHandlerFactory" style="stroke: #A80036; stroke-width: 1.5;" width="212" x="449.5" y="460.5"/><ellipse cx="464.5" cy="476.5" fill="#ADD1B2" rx="11" ry="11" style="stroke: #A80036; stroke-width: 1.0;"/><path d="M467.4731,482.1431 Q466.8921,482.4419 466.2529,482.5913 Q465.6138,482.7407 464.9082,482.7407 Q462.4014,482.7407 461.0815,481.0889 Q459.7617,479.437 459.7617,476.3159 Q459.7617,473.1865 461.0815,471.5347 Q462.4014,469.8828 464.9082,469.8828 Q465.6138,469.8828 466.2612,470.0322 Q466.9087,470.1816 467.4731,470.4805 L467.4731,473.2031 Q466.8423,472.6221 466.2488,472.3523 Q465.6553,472.0825 465.0244,472.0825 Q463.6797,472.0825 462.9949,473.1492 Q462.3101,474.2158 462.3101,476.3159 Q462.3101,478.4077 462.9949,479.4744 Q463.6797,480.541 465.0244,480.541 Q465.6553,480.541 466.2488,480.2712 Q466.8423,480.0015 467.4731,479.4204 Z "/><text fill="#000000" font-family="sans-serif" font-size="12" lengthAdjust="spacingAndGlyphs" textLength="180" x="478.5" y="481.0352">BackendSchemeHandlerFactory</text><line style="stroke: #A80036; stroke-width: 1.5;" x1="450.5" x2="660.5" y1="492.5" y2="492.5"/><line style="stroke: #A80036; stroke-width: 1.5;" x1="450.5" x2="660.5" y1="500.5" y2="500.5"/><!--class backend::BackendRequestHandler--><rect fill="#D3D3D3" height="73.9102" id="backend::BackendRequestHandler" style="stroke: #A80036; stroke-width: 1.5;" width="174" x="955.5" y="773"/><rect fill="#D3D3D3" height="32" style="stroke: #A80036; stroke-width: 1.5;" width="174" x="955.5" y="773"/><ellipse cx="970.5" cy="789" fill="#ADD1B2" rx="11" ry="11" style="stroke: #A80036; stroke-width: 1.0;"/><path d="M973.4731,794.6431 Q972.8921,794.9419 972.2529,795.0913 Q971.6138,795.2407 970.9082,795.2407 Q968.4014,795.2407 967.0815,793.5889 Q965.7617,791.937 965.7617,788.8159 Q965.7617,785.6865 967.0815,784.0347 Q968.4014,782.3828 970.9082,782.3828 Q971.6138,782.3828 972.2612,782.5322 Q972.9087,782.6816 973.4731,782.9805 L973.4731,785.7031 Q972.8423,785.1221 972.2488,784.8523 Q971.6553,784.5825 971.0244,784.5825 Q969.6797,784.5825 968.9949,785.6492 Q968.3101,786.7158 968.3101,788.8159 Q968.3101,790.9077 968.9949,791.9744 Q969.6797,793.041 971.0244,793.041 Q971.6553,793.041 972.2488,792.7712 Q972.8423,792.5015 973.4731,791.9204 Z "/><text fill="#000000" font-family="sans-serif" font-size="12" lengthAdjust="spacingAndGlyphs" textLength="142" x="984.5" y="793.5352">BackendRequestHandler</text><line style="stroke: #A80036; stroke-width: 1.5;" x1="956.5" x2="1128.5" y1="805" y2="805"/><line style="stroke: #A80036; stroke-width: 1.5;" x1="956.5" x2="1128.5" y1="813" y2="813"/><ellipse cx="966.5" cy="824.9775" fill="#84BE84" rx="3" ry="3" style="stroke: #038048; stroke-width: 1.0;"/><text fill="#000000" font-family="sans-serif" font-size="11" font-style="italic" lengthAdjust="spacingAndGlyphs" textLength="66" x="975.5" y="827.6348">OnQuery(...)</text><ellipse cx="966.5" cy="837.9326" fill="#84BE84" rx="3" ry="3" style="stroke: #038048; stroke-width: 1.0;"/><text fill="#000000" font-family="sans-serif" font-size="11" font-style="italic" lengthAdjust="spacingAndGlyphs" textLength="76" x="975.5" y="840.5898">OnRequest(...)</text><!--class backend::Backend--><rect fill="#D3D3D3" height="48" id="backend::Backend" style="stroke: #A80036; stroke-width: 1.5;" width="81" x="794" y="970"/><rect fill="#D3D3D3" height="32" style="stroke: #A80036; stroke-width: 1.5;" width="81" x="794" y="970"/><ellipse cx="809" cy="986" fill="#ADD1B2" rx="11" ry="11" style="stroke: #A80036; stroke-width: 1.0;"/><path d="M811.9731,991.6431 Q811.3921,991.9419 810.7529,992.0913 Q810.1138,992.2407 809.4082,992.2407 Q806.9014,992.2407 805.5815,990.5889 Q804.2617,988.937 804.2617,985.8159 Q804.2617,982.6865 805.5815,981.0347 Q806.9014,979.3828 809.4082,979.3828 Q810.1138,979.3828 810.7612,979.5322 Q811.4087,979.6816 811.9731,979.9805 L811.9731,982.7031 Q811.3423,982.1221 810.7488,981.8523 Q810.1553,981.5825 809.5244,981.5825 Q808.1797,981.5825 807.4949,982.6492 Q806.8101,983.7158 806.8101,985.8159 Q806.8101,987.9077 807.4949,988.9744 Q808.1797,990.041 809.5244,990.041 Q810.1553,990.041 810.7488,989.7712 Q811.3423,989.5015 811.9731,988.9204 Z "/><text fill="#000000" font-family="sans-serif" font-size="12" lengthAdjust="spacingAndGlyphs" textLength="49" x="823" y="990.5352">Backend</text><line style="stroke: #A80036; stroke-width: 1.5;" x1="795" x2="874" y1="1002" y2="1002"/><line style="stroke: #A80036; stroke-width: 1.5;" x1="795" x2="874" y1="1010" y2="1010"/><!--class backend::BackendFactory--><rect fill="#FEFECE" height="60.9551" id="backend::BackendFactory" style="stroke: #A80036; stroke-width: 1.5;" width="140" x="893.5" y="290"/><ellipse cx="916.6" cy="306" fill="#ADD1B2" rx="11" ry="11" style="stroke: #A80036; stroke-width: 1.0;"/><path d="M919.5731,311.6431 Q918.9921,311.9419 918.3529,312.0913 Q917.7138,312.2407 917.0082,312.2407 Q914.5014,312.2407 913.1815,310.5889 Q911.8617,308.937 911.8617,305.8159 Q911.8617,302.6865 913.1815,301.0347 Q914.5014,299.3828 917.0082,299.3828 Q917.7138,299.3828 918.3612,299.5322 Q919.0087,299.6816 919.5731,299.9805 L919.5731,302.7031 Q918.9423,302.1221 918.3488,301.8523 Q917.7553,301.5825 917.1244,301.5825 Q915.7797,301.5825 915.0949,302.6492 Q914.4101,303.7158 914.4101,305.8159 Q914.4101,307.9077 915.0949,308.9744 Q915.7797,310.041 917.1244,310.041 Q917.7553,310.041 918.3488,309.7712 Q918.9423,309.5015 919.5731,308.9204 Z "/><text fill="#000000" font-family="sans-serif" font-size="12" lengthAdjust="spacingAndGlyphs" textLength="90" x="932.4" y="310.5352">BackendFactory</text><line style="stroke: #A80036; stroke-width: 1.5;" x1="894.5" x2="1032.5" y1="322" y2="322"/><line style="stroke: #A80036; stroke-width: 1.5;" x1="894.5" x2="1032.5" y1="330" y2="330"/><ellipse cx="904.5" cy="341.9775" fill="#84BE84" rx="3" ry="3" style="stroke: #038048; stroke-width: 1.0;"/><text fill="#000000" font-family="sans-serif" font-size="11" lengthAdjust="spacingAndGlyphs" text-decoration="underline" textLength="114" x="913.5" y="344.6348">BackendData Create()</text><line style="stroke: #000000; stroke-width: 1.0;" x1="913.5" x2="1027.5" y1="346.6348" y2="346.6348"/><!--class backend::DummyBackendRequestHandler--><rect fill="#FEFECE" height="48" id="backend::DummyBackendRequestHandler" style="stroke: #A80036; stroke-width: 1.5;" width="218" x="748.5" y="602"/><ellipse cx="763.5" cy="618" fill="#ADD1B2" rx="11" ry="11" style="stroke: #A80036; stroke-width: 1.0;"/><path d="M766.4731,623.6431 Q765.8921,623.9419 765.2529,624.0913 Q764.6138,624.2407 763.9082,624.2407 Q761.4014,624.2407 760.0815,622.5889 Q758.7617,620.937 758.7617,617.8159 Q758.7617,614.6865 760.0815,613.0347 Q761.4014,611.3828 763.9082,611.3828 Q764.6138,611.3828 765.2612,611.5322 Q765.9087,611.6816 766.4731,611.9805 L766.4731,614.7031 Q765.8423,614.1221 765.2488,613.8523 Q764.6553,613.5825 764.0244,613.5825 Q762.6797,613.5825 761.9949,614.6492 Q761.3101,615.7158 761.3101,617.8159 Q761.3101,619.9077 761.9949,620.9744 Q762.6797,622.041 764.0244,622.041 Q764.6553,622.041 765.2488,621.7712 Q765.8423,621.5015 766.4731,620.9204 Z "/><text fill="#000000" font-family="sans-serif" font-size="12" lengthAdjust="spacingAndGlyphs" textLength="186" x="777.5" y="622.5352">DummyBackendRequestHandler</text><line style="stroke: #A80036; stroke-width: 1.5;" x1="749.5" x2="965.5" y1="634" y2="634"/><line style="stroke: #A80036; stroke-width: 1.5;" x1="749.5" x2="965.5" y1="642" y2="642"/><!--class backend::ExecutionGraphBackend--><rect fill="#FEFECE" height="48" id="backend::ExecutionGraphBackend" style="stroke: #A80036; stroke-width: 1.5;" width="172" x="748.5" y="786"/><ellipse cx="763.5" cy="802" fill="#ADD1B2" rx="11" ry="11" style="stroke: #A80036; stroke-width: 1.0;"/><path d="M766.4731,807.6431 Q765.8921,807.9419 765.2529,808.0913 Q764.6138,808.2407 763.9082,808.2407 Q761.4014,808.2407 760.0815,806.5889 Q758.7617,804.937 758.7617,801.8159 Q758.7617,798.6865 760.0815,797.0347 Q761.4014,795.3828 763.9082,795.3828 Q764.6138,795.3828 765.2612,795.5322 Q765.9087,795.6816 766.4731,795.9805 L766.4731,798.7031 Q765.8423,798.1221 765.2488,797.8523 Q764.6553,797.5825 764.0244,797.5825 Q762.6797,797.5825 761.9949,798.6492 Q761.3101,799.7158 761.3101,801.8159 Q761.3101,803.9077 761.9949,804.9744 Q762.6797,806.041 764.0244,806.041 Q764.6553,806.041 765.2488,805.7712 Q765.8423,805.5015 766.4731,804.9204 Z "/><text fill="#000000" font-family="sans-serif" font-size="12" lengthAdjust="spacingAndGlyphs" textLength="140" x="777.5" y="806.5352">ExecutionGraphBackend</text><line style="stroke: #A80036; stroke-width: 1.5;" x1="749.5" x2="919.5" y1="818" y2="818"/><line style="stroke: #A80036; stroke-width: 1.5;" x1="749.5" x2="919.5" y1="826" y2="826"/><!--class executionGraph::StaticFactory--><rect fill="#FEFECE" height="48" id="executionGraph::StaticFactory" style="stroke: #A80036; stroke-width: 1.5;" width="127" x="1154" y="460.5"/><ellipse cx="1169" cy="476.5" fill="#ADD1B2" rx="11" ry="11" style="stroke: #A80036; stroke-width: 1.0;"/><path d="M1171.9731,482.1431 Q1171.3921,482.4419 1170.7529,482.5913 Q1170.1138,482.7407 1169.4082,482.7407 Q1166.9014,482.7407 1165.5815,481.0889 Q1164.2617,479.437 1164.2617,476.3159 Q1164.2617,473.1865 1165.5815,471.5347 Q1166.9014,469.8828 1169.4082,469.8828 Q1170.1138,469.8828 1170.7612,470.0322 Q1171.4087,470.1816 1171.9731,470.4805 L1171.9731,473.2031 Q1171.3423,472.6221 1170.7488,472.3523 Q1170.1553,472.0825 1169.5244,472.0825 Q1168.1797,472.0825 1167.4949,473.1492 Q1166.8101,474.2158 1166.8101,476.3159 Q1166.8101,478.4077 1167.4949,479.4744 Q1168.1797,480.541 1169.5244,480.541 Q1170.1553,480.541 1170.7488,480.2712 Q1171.3423,480.0015 1171.9731,479.4204 Z "/><text fill="#000000" font-family="sans-serif" font-size="12" lengthAdjust="spacingAndGlyphs" textLength="71" x="1183" y="481.0352">StaticFactory</text><rect fill="#FFFFFF" height="16.1328" style="stroke: #000000; stroke-width: 1.0; stroke-dasharray: 2.0,2.0;" width="22" x="1262" y="457.5"/><text fill="#000000" font-family="sans-serif" font-size="12" font-style="italic" lengthAdjust="spacingAndGlyphs" textLength="20" x="1263" y="470.1016">T...</text><line style="stroke: #A80036; stroke-width: 1.5;" x1="1155" x2="1280" y1="492.5" y2="492.5"/><line style="stroke: #A80036; stroke-width: 1.5;" x1="1155" x2="1280" y1="500.5" y2="500.5"/><!--class CefMessageRouterBrowserSide--><rect fill="#FEFECE" height="48" id="CefMessageRouterBrowserSide" style="stroke: #A80036; stroke-width: 1.5;" width="209" x="6" y="602"/><ellipse cx="21" cy="618" fill="#ADD1B2" rx="11" ry="11" style="stroke: #A80036; stroke-width: 1.0;"/><path d="M23.9731,623.6431 Q23.3921,623.9419 22.7529,624.0913 Q22.1138,624.2407 21.4082,624.2407 Q18.9014,624.2407 17.5815,622.5889 Q16.2617,620.937 16.2617,617.8159 Q16.2617,614.6865 17.5815,613.0347 Q18.9014,611.3828 21.4082,611.3828 Q22.1138,611.3828 22.7612,611.5322 Q23.4087,611.6816 23.9731,611.9805 L23.9731,614.7031 Q23.3423,614.1221 22.7488,613.8523 Q22.1553,613.5825 21.5244,613.5825 Q20.1797,613.5825 19.4949,614.6492 Q18.8101,615.7158 18.8101,617.8159 Q18.8101,619.9077 19.4949,620.9744 Q20.1797,622.041 21.5244,622.041 Q22.1553,622.041 22.7488,621.7712 Q23.3423,621.5015 23.9731,620.9204 Z "/><text fill="#000000" font-family="sans-serif" font-size="12" lengthAdjust="spacingAndGlyphs" textLength="177" x="35" y="622.5352">CefMessageRouterBrowserSide</text><line style="stroke: #A80036; stroke-width: 1.5;" x1="7" x2="214" y1="634" y2="634"/><line style="stroke: #A80036; stroke-width: 1.5;" x1="7" x2="214" y1="642" y2="642"/><!--class Handler--><rect fill="#FEFECE" height="48" id="Handler" style="stroke: #A80036; stroke-width: 1.5;" width="263" x="350" y="602"/><ellipse cx="365" cy="618" fill="#ADD1B2" rx="11" ry="11" style="stroke: #A80036; stroke-width: 1.0;"/><path d="M367.9731,623.6431 Q367.3921,623.9419 366.7529,624.0913 Q366.1138,624.2407 365.4082,624.2407 Q362.9014,624.2407 361.5815,622.5889 Q360.2617,620.937 360.2617,617.8159 Q360.2617,614.6865 361.5815,613.0347 Q362.9014,611.3828 365.4082,611.3828 Q366.1138,611.3828 366.7612,611.5322 Q367.4087,611.6816 367.9731,611.9805 L367.9731,614.7031 Q367.3423,614.1221 366.7488,613.8523 Q366.1553,613.5825 365.5244,613.5825 Q364.1797,613.5825 363.4949,614.6492 Q362.8101,615.7158 362.8101,617.8159 Q362.8101,619.9077 363.4949,620.9744 Q364.1797,622.041 365.5244,622.041 Q366.1553,622.041 366.7488,621.7712 Q367.3423,621.5015 367.9731,620.9204 Z "/><text fill="#000000" font-family="sans-serif" font-size="12" lengthAdjust="spacingAndGlyphs" textLength="231" x="379" y="622.5352">CefMessageRouterBrowserSide::Handler</text><line style="stroke: #A80036; stroke-width: 1.5;" x1="351" x2="612" y1="634" y2="634"/><line style="stroke: #A80036; stroke-width: 1.5;" x1="351" x2="612" y1="642" y2="642"/><!--link cefapp::App to cefapp::AppHandler--><path d="M286.176,169.1615 C250.7777,232.7015 184.9125,350.9296 144.6613,423.1804 " fill="none" id="cefapp::App-cefapp::AppHandler" style="stroke: #A80036; stroke-width: 1.0; stroke-dasharray: 7.0,7.0;"/><polygon fill="#A80036" points="142.0477,427.8719,149.9222,421.9565,144.4811,423.504,142.9336,418.063,142.0477,427.8719" style="stroke: #A80036; stroke-width: 1.0;"/><text fill="#000000" font-family="sans-serif" font-size="13" lengthAdjust="spacingAndGlyphs" textLength="45" x="235.5" y="325.5684">creates</text><!--link cefapp::App to cefapp::ClientSchemeHandlerFactory--><path d="M311.2297,169.1615 C312.4691,243.3172 314.9534,391.9608 316.0082,455.0738 " fill="none" id="cefapp::App-cefapp::ClientSchemeHandlerFactory" style="stroke: #A80036; stroke-width: 1.0; stroke-dasharray: 7.0,7.0;"/><polygon fill="#A80036" points="316.0937,460.1902,319.9427,451.1246,316.0101,455.1909,311.9438,451.2583,316.0937,460.1902" style="stroke: #A80036; stroke-width: 1.0;"/><text fill="#000000" font-family="sans-serif" font-size="13" lengthAdjust="spacingAndGlyphs" textLength="55" x="315.5" y="325.5684">registers</text><!--link cefapp::App to cefapp::BackendSchemeHandlerFactory--><path d="M340.2969,169.1615 C391.1077,243.615 493.1621,393.156 535.9342,455.83 " fill="none" id="cefapp::App-cefapp::BackendSchemeHandlerFactory" style="stroke: #A80036; stroke-width: 1.0; stroke-dasharray: 7.0,7.0;"/><polygon fill="#A80036" points="538.9098,460.1902,537.1403,450.5016,536.0912,456.0603,530.5325,455.0113,538.9098,460.1902" style="stroke: #A80036; stroke-width: 1.0;"/><text fill="#000000" font-family="sans-serif" font-size="13" lengthAdjust="spacingAndGlyphs" textLength="55" x="462.5" y="325.5684">registers</text><!--link cefapp::AppHandler to Handler--><path d="M195.8114,546.1931 C197.7077,547.1649 199.6051,548.1022 201.5,549 C250.705,572.3143 308.2273,589.6615 358.2917,601.9269 " fill="none" id="cefapp::AppHandler-Handler" style="stroke: #A80036; stroke-width: 1.0;"/><polygon fill="#A80036" points="184.2074,539.8321,187.546,546.2238,194.7301,545.6004,191.3915,539.2087,184.2074,539.8321" style="stroke: #A80036; stroke-width: 1.0;"/><text fill="#000000" font-family="sans-serif" font-size="13" lengthAdjust="spacingAndGlyphs" textLength="8" x="192.221" y="542.3607">1</text><!--link cefapp::MessageDispatcher to Handler--><path d="M645.4787,208.2993 C652.8719,217.6185 659.4033,227.5497 664.5,238 C725.1519,362.3602 756.5219,434.7341 678.5,549 C667.1076,565.6845 629.1134,582.2519 589.4901,595.7203 " fill="none" id="cefapp::MessageDispatcher-Handler" style="stroke: #A80036; stroke-width: 1.0;"/><polygon fill="none" points="591.5147,602.4228,570.3299,601.9721,587.172,589.1134,591.5147,602.4228" style="stroke: #A80036; stroke-width: 1.0;"/><!--link cefapp::MessageDispatcher to backend::BackendRequestHandler--><path d="M674.8035,130.9931 C901.2287,143.953 1334.5,186.2868 1334.5,320.5 C1334.5,320.5 1334.5,320.5 1334.5,711.5 C1334.5,755.1702 1215.7566,783.1994 1129.7141,797.7772 " fill="none" id="cefapp::MessageDispatcher-backend::BackendRequestHandler" style="stroke: #A80036; stroke-width: 1.0;"/><polygon fill="#A80036" points="661.5234,130.2531,667.2916,134.5807,673.5048,130.9207,667.7367,126.5931,661.5234,130.2531" style="stroke: #A80036; stroke-width: 1.0;"/><text fill="#000000" font-family="sans-serif" font-size="13" lengthAdjust="spacingAndGlyphs" textLength="22" x="669.5686" y="127.6759">1..*</text><!--link cefapp::AppHandler to CefMessageRouterBrowserSide--><path d="M110.5,554.4749 C110.5,571.4796 110.5,588.5439 110.5,601.7381 " fill="none" id="cefapp::AppHandler-CefMessageRouterBrowserSide" style="stroke: #A80036; stroke-width: 1.0;"/><polygon fill="#A80036" points="110.5,541.2381,106.5,547.2381,110.5,553.2381,114.5,547.2381,110.5,541.2381" style="stroke: #A80036; stroke-width: 1.0;"/><text fill="#000000" font-family="sans-serif" font-size="13" lengthAdjust="spacingAndGlyphs" textLength="8" x="102.0375" y="561.2649">1</text><!--link cefapp::App to backend::BackendFactory--><path d="M349.4747,169.3832 C364.4029,183.7207 382.4546,198.4076 401.5,208 C457.3548,236.1319 616.1771,250.7255 677.5,263 C748.9659,277.3048 830.4598,293.6969 888.1244,305.3094 " fill="none" id="cefapp::App-backend::BackendFactory" style="stroke: #A80036; stroke-width: 1.0; stroke-dasharray: 7.0,7.0;"/><polygon fill="#A80036" points="893.2795,306.3475,885.2465,300.6491,888.3779,305.3602,883.6669,308.4916,893.2795,306.3475" style="stroke: #A80036; stroke-width: 1.0;"/><text fill="#000000" font-family="sans-serif" font-size="13" lengthAdjust="spacingAndGlyphs" textLength="29" x="626.5" y="251.5684">uses</text><!--link backend::ExecutionGraphBackend to backend::Backend--><path d="M834.5,834.0548 C834.5,863.3951 834.5,913.5665 834.5,949.9067 " fill="none" id="backend::ExecutionGraphBackend-backend::Backend" style="stroke: #A80036; stroke-width: 1.0;"/><polygon fill="none" points="841.5001,949.9393,834.5,969.9393,827.5001,949.9393,841.5001,949.9393" style="stroke: #A80036; stroke-width: 1.0;"/><!--link backend::DummyBackendRequestHandler to backend::BackendRequestHandler--><path d="M881.6855,650.0548 C909.1951,677.4156 954.9182,722.8916 990.5928,758.3734 " fill="none" id="backend::DummyBackendRequestHandler-backend::BackendRequestHandler" style="stroke: #A80036; stroke-width: 1.0;"/><polygon fill="none" points="995.9401,753.819,1005.1842,772.886,986.0675,763.7453,995.9401,753.819" style="stroke: #A80036; stroke-width: 1.0;"/><!--link backend::BackendFactory to backend::ExecutionGraphBackend--><path d="M986.3974,351.0575 C1007.8059,382.7164 1036.5,434.4794 1036.5,484.5 C1036.5,484.5 1036.5,484.5 1036.5,711.5 C1036.5,726.7985 960.679,760.3236 901.9419,783.9996 " fill="none" id="backend::BackendFactory-backend::ExecutionGraphBackend" style="stroke: #A80036; stroke-width: 1.0; stroke-dasharray: 7.0,7.0;"/><polygon fill="#A80036" points="897.0307,785.9724,906.8731,786.3292,901.6703,784.1086,903.891,778.9058,897.0307,785.9724" style="stroke: #A80036; stroke-width: 1.0;"/><text fill="#000000" font-family="sans-serif" font-size="13" lengthAdjust="spacingAndGlyphs" textLength="76" x="1037.5" y="631.0684">instanciates</text><!--link backend::BackendFactory to backend::DummyBackendRequestHandler--><path d="M952.851,351.1913 C932.3642,410.2358 887.7183,538.9087 867.6395,596.7773 " fill="none" id="backend::BackendFactory-backend::DummyBackendRequestHandler" style="stroke: #A80036; stroke-width: 1.0; stroke-dasharray: 7.0,7.0;"/><polygon fill="#A80036" points="865.8899,601.8195,872.6193,594.6282,867.529,597.0958,865.0614,592.0056,865.8899,601.8195" style="stroke: #A80036; stroke-width: 1.0;"/><text fill="#000000" font-family="sans-serif" font-size="13" lengthAdjust="spacingAndGlyphs" textLength="76" x="926.5" y="489.5684">instanciates</text><!--link backend::DummyBackendRequestHandler to backend::ExecutionGraphBackend--><path d="M852.8613,663.1098 C848.2826,699.739 841.4166,754.6676 837.5076,785.9393 " fill="none" id="backend::DummyBackendRequestHandler-backend::ExecutionGraphBackend" style="stroke: #A80036; stroke-width: 1.0;"/><polygon fill="#A80036" points="854.4932,650.0548,849.7798,655.5123,853.0047,661.9621,857.7181,656.5046,854.4932,650.0548" style="stroke: #A80036; stroke-width: 1.0;"/><text fill="#000000" font-family="sans-serif" font-size="13" lengthAdjust="spacingAndGlyphs" textLength="8" x="844.6977" y="670.7489">1</text><!--link backend::BackendFactory to executionGraph::StaticFactory--><path d="M1019.6282,351.1126 C1056.2203,371.6834 1104.596,400.0497 1145.5,428 C1158.5831,436.9399 1172.3993,447.4887 1184.392,457.0362 " fill="none" id="backend::BackendFactory-executionGraph::StaticFactory" style="stroke: #A80036; stroke-width: 1.0; stroke-dasharray: 7.0,7.0;"/><polygon fill="#A80036" points="1188.3855,460.232,1183.8576,451.4857,1184.4815,457.108,1178.8592,457.732,1188.3855,460.232" style="stroke: #A80036; stroke-width: 1.0;"/><text fill="#000000" font-family="sans-serif" font-size="13" lengthAdjust="spacingAndGlyphs" textLength="29" x="1097.5" y="394.5684">uses</text><!--
@startuml
set namespaceSeparator ::
skinparam shadowing false

class CefMessageRouterBrowserSide
class Handler as "CefMessageRouterBrowserSide::Handler"

namespace cefapp{
    class App{
        + OnContextInitialized()
        - m_appHandler
        - m_messageDispatcher
    }
    class AppHandler #D3D3D3{
        + OnAfterCreated()
        + OnBeforeCloses()
        - m_router
        - m_messageDispatcher
        - initializeBackends()
    }

    class MessageDispatcher {
        + AddHandler(backendHandler, requestId)
        + RemoveHandler(id)
        + OnQuery()
        + AddRequest()
        + StartMessageHandler()
        + StopMessageHandler()
        - m_generalHandlers
        - m_specificHandlers
        - m_handlerMap
    }
    class ClientSchemeHandlerFactory
    class BackendSchemeHandlerFactory
}

cefapp::App ..> cefapp::AppHandler : creates
cefapp::App ..> cefapp::ClientSchemeHandlerFactory : registers
cefapp::App ..> cefapp::BackendSchemeHandlerFactory : registers

cefapp::AppHandler "1" *-down- Handler
cefapp::MessageDispatcher -down-|> Handler
cefapp::MessageDispatcher "1..*" *- - - backend::BackendRequestHandler
cefapp::AppHandler "1" *-down- CefMessageRouterBrowserSide

namespace backend {
    class Backend #D3D3D3
    class BackendRequestHandler #D3D3D3 {
        + OnQuery(...) {abstract} 
        + OnRequest(...) {abstract}
    }

    class BackendFactory {
        + BackendData Create() {static}
    }

    class DummyBackendRequestHandler
}

namespace executionGraph {
    class StaticFactory<T...>
}

cefapp::App ..> backend::BackendFactory : uses

backend::ExecutionGraphBackend - -|> backend::Backend
backend::DummyBackendRequestHandler - -|> backend::BackendRequestHandler

backend::BackendFactory ..> backend::ExecutionGraphBackend : instanciates
backend::BackendFactory ..> backend::DummyBackendRequestHandler : instanciates

backend::DummyBackendRequestHandler "1" *- - backend::ExecutionGraphBackend

backend::BackendFactory ..> executionGraph::StaticFactory : uses
@enduml

PlantUML version 1.2018.01(Sun Jan 28 19:08:22 CET 2018)
(GPL source distribution)
Java Runtime: Java(TM) SE Runtime Environment
JVM: Java HotSpot(TM) 64-Bit Server VM
Java Version: 9.0.4+11
Operating System: Mac OS X
OS Version: 10.11.6
Default Encoding: UTF-8
Language: de
Country: DE
--></g></svg>