<?xml version="1.0" encoding="UTF-8" standalone="no"?><svg xmlns="http://www.w3.org/2000/svg" xmlns:xlink="http://www.w3.org/1999/xlink" contentScriptType="application/ecmascript" contentStyleType="text/css" height="492px" preserveAspectRatio="none" style="width:1085px;height:492px;" version="1.1" viewBox="0 0 1085 492" width="1085px" zoomAndPan="magnify"><defs/><g><!--cluster common--><polygon fill="#FFFFFF" points="14,168,87,168,94,190.2969,1047,190.2969,1047,366,14,366,14,168" style="stroke: #000000; stroke-width: 1.5;"/><line style="stroke: #000000; stroke-width: 1.5;" x1="14" x2="94" y1="190.2969" y2="190.2969"/><text fill="#000000" font-family="sans-serif" font-size="14" font-weight="bold" lengthAdjust="spacingAndGlyphs" textLength="67" x="18" y="182.9951">common</text><!--cluster cefapp--><polygon fill="#FFFFFF" points="401,16,460,16,467,38.2969,934,38.2969,934,137,401,137,401,16" style="stroke: #000000; stroke-width: 1.5;"/><line style="stroke: #000000; stroke-width: 1.5;" x1="401" x2="467" y1="38.2969" y2="38.2969"/><text fill="#000000" font-family="sans-serif" font-size="14" font-weight="bold" lengthAdjust="spacingAndGlyphs" textLength="53" x="405" y="30.9951">cefapp</text><!--cluster std--><polygon fill="#FFFFFF" points="676,397,707,397,714,419.2969,1063,419.2969,1063,480,676,480,676,397" style="stroke: #000000; stroke-width: 1.5;"/><line style="stroke: #000000; stroke-width: 1.5;" x1="676" x2="714" y1="419.2969" y2="419.2969"/><text fill="#000000" font-family="sans-serif" font-size="14" font-weight="bold" lengthAdjust="spacingAndGlyphs" textLength="25" x="680" y="411.9951">std</text><!--class common::BinaryBuffer--><rect fill="#FEFECE" height="86.4141" id="common::BinaryBuffer" style="stroke: #A80036; stroke-width: 1.5;" width="174" x="351" y="233.5"/><ellipse cx="366" cy="249.5" fill="#ADD1B2" rx="11" ry="11" style="stroke: #A80036; stroke-width: 1.0;"/><path d="M369.3438,254.9219 Q368.4844,255.3906 367.7656,255.5625 Q367.0625,255.7344 366.2656,255.7344 Q363.7031,255.7344 362.2969,253.9531 Q360.9063,252.1563 360.9063,248.9688 Q360.9063,245.8125 362.3125,244 Q363.7188,242.1875 366.2656,242.1875 Q367.0625,242.1875 367.7656,242.375 Q368.4844,242.5469 369.3438,243.0156 L369.3438,245.6719 Q368.2188,244.7344 367.5625,244.5 Q366.9063,244.25 366.2656,244.25 Q364.8125,244.25 364.0781,245.3906 Q363.3438,246.5156 363.3438,248.9688 Q363.3438,251.4219 364.0781,252.5625 Q364.8125,253.6875 366.2656,253.6875 Q366.9219,253.6875 367.5625,253.4531 Q368.2188,253.2031 369.3438,252.2656 L369.3438,254.9219 Z "/><text fill="#000000" font-family="sans-serif" font-size="12" lengthAdjust="spacingAndGlyphs" textLength="75" x="380" y="253.6543">BinaryBuffer</text><rect fill="#FFFFFF" height="15.9688" style="stroke: #000000; stroke-width: 1.0; stroke-dasharray: 2.0,2.0;" width="65" x="463" y="230.5"/><text fill="#000000" font-family="sans-serif" font-size="12" font-style="italic" lengthAdjust="spacingAndGlyphs" textLength="63" x="464" y="242.6387">BufferPool</text><line style="stroke: #A80036; stroke-width: 1.5;" x1="352" x2="524" y1="265.5" y2="265.5"/><rect fill="none" height="6" style="stroke: #C82930; stroke-width: 1.0;" width="6" x="359" y="274.4023"/><text fill="#000000" font-family="sans-serif" font-size="11" lengthAdjust="spacingAndGlyphs" textLength="66" x="371" y="279.7104">m_allocator</text><rect fill="none" height="6" style="stroke: #C82930; stroke-width: 1.0;" width="6" x="359" y="287.207"/><text fill="#000000" font-family="sans-serif" font-size="11" lengthAdjust="spacingAndGlyphs" textLength="42" x="371" y="292.5151">m_data</text><rect fill="none" height="6" style="stroke: #C82930; stroke-width: 1.0;" width="6" x="359" y="300.0117"/><text fill="#000000" font-family="sans-serif" font-size="11" lengthAdjust="spacingAndGlyphs" textLength="56" x="371" y="305.3198">m_nBytes</text><line style="stroke: #A80036; stroke-width: 1.5;" x1="352" x2="524" y1="311.9141" y2="311.9141"/><!--class common::BinaryPayload--><rect fill="#FEFECE" height="73.6094" id="common::BinaryPayload" style="stroke: #A80036; stroke-width: 1.5;" width="119" x="196.5" y="239.5"/><ellipse cx="211.5" cy="255.5" fill="#ADD1B2" rx="11" ry="11" style="stroke: #A80036; stroke-width: 1.0;"/><path d="M214.8438,260.9219 Q213.9844,261.3906 213.2656,261.5625 Q212.5625,261.7344 211.7656,261.7344 Q209.2031,261.7344 207.7969,259.9531 Q206.4063,258.1563 206.4063,254.9688 Q206.4063,251.8125 207.8125,250 Q209.2188,248.1875 211.7656,248.1875 Q212.5625,248.1875 213.2656,248.375 Q213.9844,248.5469 214.8438,249.0156 L214.8438,251.6719 Q213.7188,250.7344 213.0625,250.5 Q212.4063,250.25 211.7656,250.25 Q210.3125,250.25 209.5781,251.3906 Q208.8438,252.5156 208.8438,254.9688 Q208.8438,257.4219 209.5781,258.5625 Q210.3125,259.6875 211.7656,259.6875 Q212.4219,259.6875 213.0625,259.4531 Q213.7188,259.2031 214.8438,258.2656 L214.8438,260.9219 Z "/><text fill="#000000" font-family="sans-serif" font-size="12" lengthAdjust="spacingAndGlyphs" textLength="87" x="225.5" y="259.6543">BinaryPayload</text><line style="stroke: #A80036; stroke-width: 1.5;" x1="197.5" x2="314.5" y1="271.5" y2="271.5"/><rect fill="none" height="6" style="stroke: #C82930; stroke-width: 1.0;" width="6" x="204.5" y="280.4023"/><text fill="#000000" font-family="sans-serif" font-size="11" lengthAdjust="spacingAndGlyphs" textLength="51" x="216.5" y="285.7104">m_buffer</text><rect fill="none" height="6" style="stroke: #C82930; stroke-width: 1.0;" width="6" x="204.5" y="293.207"/><text fill="#000000" font-family="sans-serif" font-size="11" lengthAdjust="spacingAndGlyphs" textLength="59" x="216.5" y="298.5151">mimeType</text><line style="stroke: #A80036; stroke-width: 1.5;" x1="197.5" x2="314.5" y1="305.1094" y2="305.1094"/><!--class common::BufferPool--><rect fill="#FEFECE" height="48" id="common::BufferPool" style="stroke: #A80036; stroke-width: 1.5;" width="96" x="560" y="252.5"/><ellipse cx="575" cy="268.5" fill="#ADD1B2" rx="11" ry="11" style="stroke: #A80036; stroke-width: 1.0;"/><path d="M578.3438,273.9219 Q577.4844,274.3906 576.7656,274.5625 Q576.0625,274.7344 575.2656,274.7344 Q572.7031,274.7344 571.2969,272.9531 Q569.9063,271.1563 569.9063,267.9688 Q569.9063,264.8125 571.3125,263 Q572.7188,261.1875 575.2656,261.1875 Q576.0625,261.1875 576.7656,261.375 Q577.4844,261.5469 578.3438,262.0156 L578.3438,264.6719 Q577.2188,263.7344 576.5625,263.5 Q575.9063,263.25 575.2656,263.25 Q573.8125,263.25 573.0781,264.3906 Q572.3438,265.5156 572.3438,267.9688 Q572.3438,270.4219 573.0781,271.5625 Q573.8125,272.6875 575.2656,272.6875 Q575.9219,272.6875 576.5625,272.4531 Q577.2188,272.2031 578.3438,271.2656 L578.3438,273.9219 Z "/><text fill="#000000" font-family="sans-serif" font-size="12" lengthAdjust="spacingAndGlyphs" textLength="64" x="589" y="272.6543">BufferPool</text><line style="stroke: #A80036; stroke-width: 1.5;" x1="561" x2="655" y1="284.5" y2="284.5"/><line style="stroke: #A80036; stroke-width: 1.5;" x1="561" x2="655" y1="292.5" y2="292.5"/><!--class common::Request--><rect fill="#33CC33" height="99.2188" id="common::Request" style="stroke: #A80036; stroke-width: 1.5;" width="108" x="22" y="227"/><rect fill="#33CC33" height="32" style="stroke: #A80036; stroke-width: 1.5;" width="108" x="22" y="227"/><ellipse cx="47.8" cy="243" fill="#ADD1B2" rx="11" ry="11" style="stroke: #A80036; stroke-width: 1.0;"/><path d="M51.1438,248.4219 Q50.2844,248.8906 49.5656,249.0625 Q48.8625,249.2344 48.0656,249.2344 Q45.5031,249.2344 44.0969,247.4531 Q42.7063,245.6563 42.7063,242.4688 Q42.7063,239.3125 44.1125,237.5 Q45.5188,235.6875 48.0656,235.6875 Q48.8625,235.6875 49.5656,235.875 Q50.2844,236.0469 51.1438,236.5156 L51.1438,239.1719 Q50.0188,238.2344 49.3625,238 Q48.7063,237.75 48.0656,237.75 Q46.6125,237.75 45.8781,238.8906 Q45.1438,240.0156 45.1438,242.4688 Q45.1438,244.9219 45.8781,246.0625 Q46.6125,247.1875 48.0656,247.1875 Q48.7219,247.1875 49.3625,246.9531 Q50.0188,246.7031 51.1438,245.7656 L51.1438,248.4219 Z "/><text fill="#000000" font-family="sans-serif" font-size="12" lengthAdjust="spacingAndGlyphs" textLength="52" x="64.2" y="247.1543">Request</text><line style="stroke: #A80036; stroke-width: 1.5;" x1="23" x2="129" y1="259" y2="259"/><rect fill="none" height="6" style="stroke: #C82930; stroke-width: 1.0;" width="6" x="30" y="267.9023"/><text fill="#000000" font-family="sans-serif" font-size="11" lengthAdjust="spacingAndGlyphs" textLength="27" x="42" y="273.2104">m_id</text><rect fill="none" height="6" style="stroke: #C82930; stroke-width: 1.0;" width="6" x="30" y="280.707"/><text fill="#000000" font-family="sans-serif" font-size="11" lengthAdjust="spacingAndGlyphs" textLength="82" x="42" y="286.0151">m_requestURL</text><line style="stroke: #A80036; stroke-width: 1.5;" x1="23" x2="129" y1="292.6094" y2="292.6094"/><ellipse cx="33" cy="304.5117" fill="#84BE84" rx="3" ry="3" style="stroke: #038048; stroke-width: 1.0;"/><text fill="#000000" font-family="sans-serif" font-size="11" lengthAdjust="spacingAndGlyphs" textLength="47" x="42" y="306.8198">getURL()</text><ellipse cx="33" cy="317.3164" fill="#84BE84" rx="3" ry="3" style="stroke: #038048; stroke-width: 1.0;"/><text fill="#000000" font-family="sans-serif" font-size="11" font-style="italic" lengthAdjust="spacingAndGlyphs" textLength="53" x="42" y="319.6245">payload()</text><!--class common::ResponsePromise--><rect fill="#FF6600" height="163.2422" id="common::ResponsePromise" style="stroke: #A80036; stroke-width: 1.5;" width="177" x="691.5" y="195"/><rect fill="#FF6600" height="32" style="stroke: #A80036; stroke-width: 1.5;" width="177" x="691.5" y="195"/><ellipse cx="721.35" cy="211" fill="#ADD1B2" rx="11" ry="11" style="stroke: #A80036; stroke-width: 1.0;"/><path d="M724.6938,216.4219 Q723.8344,216.8906 723.1156,217.0625 Q722.4125,217.2344 721.6156,217.2344 Q719.0531,217.2344 717.6469,215.4531 Q716.2563,213.6563 716.2563,210.4688 Q716.2563,207.3125 717.6625,205.5 Q719.0688,203.6875 721.6156,203.6875 Q722.4125,203.6875 723.1156,203.875 Q723.8344,204.0469 724.6938,204.5156 L724.6938,207.1719 Q723.5688,206.2344 722.9125,206 Q722.2563,205.75 721.6156,205.75 Q720.1625,205.75 719.4281,206.8906 Q718.6938,208.0156 718.6938,210.4688 Q718.6938,212.9219 719.4281,214.0625 Q720.1625,215.1875 721.6156,215.1875 Q722.2719,215.1875 722.9125,214.9531 Q723.5688,214.7031 724.6938,213.7656 L724.6938,216.4219 Z "/><text fill="#000000" font-family="sans-serif" font-size="12" lengthAdjust="spacingAndGlyphs" textLength="112" x="738.65" y="215.1543">ResponsePromise</text><line style="stroke: #A80036; stroke-width: 1.5;" x1="692.5" x2="867.5" y1="227" y2="227"/><rect fill="none" height="6" style="stroke: #C82930; stroke-width: 1.0;" width="6" x="699.5" y="235.9023"/><text fill="#000000" font-family="sans-serif" font-size="11" lengthAdjust="spacingAndGlyphs" textLength="108" x="711.5" y="241.2104">m_promisePayload</text><rect fill="none" height="6" style="stroke: #C82930; stroke-width: 1.0;" width="6" x="699.5" y="248.707"/><text fill="#000000" font-family="sans-serif" font-size="11" lengthAdjust="spacingAndGlyphs" textLength="71" x="711.5" y="254.0151">m_requestId</text><rect fill="none" height="6" style="stroke: #C82930; stroke-width: 1.0;" width="6" x="699.5" y="261.5117"/><text fill="#000000" font-family="sans-serif" font-size="11" lengthAdjust="spacingAndGlyphs" textLength="46" x="711.5" y="266.8198">m_state</text><rect fill="none" height="6" style="stroke: #C82930; stroke-width: 1.0;" width="6" x="699.5" y="274.3164"/><text fill="#000000" font-family="sans-serif" font-size="11" lengthAdjust="spacingAndGlyphs" textLength="143" x="711.5" y="279.6245">m_bCancelOnDestruction</text><line style="stroke: #A80036; stroke-width: 1.5;" x1="692.5" x2="867.5" y1="286.2188" y2="286.2188"/><ellipse cx="702.5" cy="298.1211" fill="#84BE84" rx="3" ry="3" style="stroke: #038048; stroke-width: 1.0;"/><text fill="#000000" font-family="sans-serif" font-size="11" lengthAdjust="spacingAndGlyphs" textLength="91" x="711.5" y="300.4292">setCancel(what)</text><ellipse cx="702.5" cy="310.9258" fill="#84BE84" rx="3" ry="3" style="stroke: #038048; stroke-width: 1.0;"/><text fill="#000000" font-family="sans-serif" font-size="11" lengthAdjust="spacingAndGlyphs" textLength="104" x="711.5" y="313.2339">setReady(payload)</text><polygon fill="#FFFF44" points="702.5,318.7305,706.5,322.7305,702.5,326.7305,698.5,322.7305" style="stroke: #B38D22; stroke-width: 1.0;"/><text fill="#000000" font-family="sans-serif" font-size="11" font-style="italic" lengthAdjust="spacingAndGlyphs" textLength="85" x="711.5" y="326.0386">setReadyImpl()</text><polygon fill="#FFFF44" points="702.5,331.5352,706.5,335.5352,702.5,339.5352,698.5,335.5352" style="stroke: #B38D22; stroke-width: 1.0;"/><text fill="#000000" font-family="sans-serif" font-size="11" font-style="italic" lengthAdjust="spacingAndGlyphs" textLength="99" x="711.5" y="338.8433">setCancleImpl(...)</text><polygon fill="#FFFF44" points="702.5,344.3398,706.5,348.3398,702.5,352.3398,698.5,348.3398" style="stroke: #B38D22; stroke-width: 1.0;"/><text fill="#000000" font-family="sans-serif" font-size="11" lengthAdjust="spacingAndGlyphs" textLength="151" x="711.5" y="351.6479">setResolveOnDestruction()</text><!--class common::ResponseFuture--><rect fill="#00CCFF" height="73.6094" id="common::ResponseFuture" style="stroke: #A80036; stroke-width: 1.5;" width="135" x="903.5" y="239.5"/><rect fill="#00CCFF" height="32" style="stroke: #A80036; stroke-width: 1.5;" width="135" x="903.5" y="239.5"/><ellipse cx="918.5" cy="255.5" fill="#ADD1B2" rx="11" ry="11" style="stroke: #A80036; stroke-width: 1.0;"/><path d="M921.8438,260.9219 Q920.9844,261.3906 920.2656,261.5625 Q919.5625,261.7344 918.7656,261.7344 Q916.2031,261.7344 914.7969,259.9531 Q913.4063,258.1563 913.4063,254.9688 Q913.4063,251.8125 914.8125,250 Q916.2188,248.1875 918.7656,248.1875 Q919.5625,248.1875 920.2656,248.375 Q920.9844,248.5469 921.8438,249.0156 L921.8438,251.6719 Q920.7188,250.7344 920.0625,250.5 Q919.4063,250.25 918.7656,250.25 Q917.3125,250.25 916.5781,251.3906 Q915.8438,252.5156 915.8438,254.9688 Q915.8438,257.4219 916.5781,258.5625 Q917.3125,259.6875 918.7656,259.6875 Q919.4219,259.6875 920.0625,259.4531 Q920.7188,259.2031 921.8438,258.2656 L921.8438,260.9219 Z "/><text fill="#000000" font-family="sans-serif" font-size="12" lengthAdjust="spacingAndGlyphs" textLength="103" x="932.5" y="259.6543">ResponseFuture</text><line style="stroke: #A80036; stroke-width: 1.5;" x1="904.5" x2="1037.5" y1="271.5" y2="271.5"/><rect fill="none" height="6" style="stroke: #C82930; stroke-width: 1.0;" width="6" x="911.5" y="280.4023"/><text fill="#000000" font-family="sans-serif" font-size="11" lengthAdjust="spacingAndGlyphs" textLength="71" x="923.5" y="285.7104">m_requestId</text><line style="stroke: #A80036; stroke-width: 1.5;" x1="904.5" x2="1037.5" y1="292.3047" y2="292.3047"/><ellipse cx="914.5" cy="304.207" fill="#84BE84" rx="3" ry="3" style="stroke: #038048; stroke-width: 1.0;"/><text fill="#000000" font-family="sans-serif" font-size="11" lengthAdjust="spacingAndGlyphs" textLength="62" x="923.5" y="306.5151">getFuture()</text><!--class cefapp::RequestCef--><rect fill="#33CC33" height="48" id="cefapp::RequestCef" style="stroke: #A80036; stroke-width: 1.5;" width="104" x="409" y="62"/><rect fill="#33CC33" height="32" style="stroke: #A80036; stroke-width: 1.5;" width="104" x="409" y="62"/><ellipse cx="424" cy="78" fill="#ADD1B2" rx="11" ry="11" style="stroke: #A80036; stroke-width: 1.0;"/><path d="M427.3438,83.4219 Q426.4844,83.8906 425.7656,84.0625 Q425.0625,84.2344 424.2656,84.2344 Q421.7031,84.2344 420.2969,82.4531 Q418.9063,80.6563 418.9063,77.4688 Q418.9063,74.3125 420.3125,72.5 Q421.7188,70.6875 424.2656,70.6875 Q425.0625,70.6875 425.7656,70.875 Q426.4844,71.0469 427.3438,71.5156 L427.3438,74.1719 Q426.2188,73.2344 425.5625,73 Q424.9063,72.75 424.2656,72.75 Q422.8125,72.75 422.0781,73.8906 Q421.3438,75.0156 421.3438,77.4688 Q421.3438,79.9219 422.0781,81.0625 Q422.8125,82.1875 424.2656,82.1875 Q424.9219,82.1875 425.5625,81.9531 Q426.2188,81.7031 427.3438,80.7656 L427.3438,83.4219 Z "/><text fill="#000000" font-family="sans-serif" font-size="12" lengthAdjust="spacingAndGlyphs" textLength="72" x="438" y="82.1543">RequestCef</text><line style="stroke: #A80036; stroke-width: 1.5;" x1="410" x2="512" y1="94" y2="94"/><line style="stroke: #A80036; stroke-width: 1.5;" x1="410" x2="512" y1="102" y2="102"/><!--class cefapp::ResponsePromiseCef--><rect fill="#FF6600" height="86.4141" id="cefapp::ResponsePromiseCef" style="stroke: #A80036; stroke-width: 1.5;" width="187" x="548.5" y="43"/><rect fill="#FF6600" height="32" style="stroke: #A80036; stroke-width: 1.5;" width="187" x="548.5" y="43"/><ellipse cx="573.85" cy="59" fill="#ADD1B2" rx="11" ry="11" style="stroke: #A80036; stroke-width: 1.0;"/><path d="M577.1938,64.4219 Q576.3344,64.8906 575.6156,65.0625 Q574.9125,65.2344 574.1156,65.2344 Q571.5531,65.2344 570.1469,63.4531 Q568.7563,61.6563 568.7563,58.4688 Q568.7563,55.3125 570.1625,53.5 Q571.5688,51.6875 574.1156,51.6875 Q574.9125,51.6875 575.6156,51.875 Q576.3344,52.0469 577.1938,52.5156 L577.1938,55.1719 Q576.0688,54.2344 575.4125,54 Q574.7563,53.75 574.1156,53.75 Q572.6625,53.75 571.9281,54.8906 Q571.1938,56.0156 571.1938,58.4688 Q571.1938,60.9219 571.9281,62.0625 Q572.6625,63.1875 574.1156,63.1875 Q574.7719,63.1875 575.4125,62.9531 Q576.0688,62.7031 577.1938,61.7656 L577.1938,64.4219 Z "/><text fill="#000000" font-family="sans-serif" font-size="12" lengthAdjust="spacingAndGlyphs" textLength="132" x="590.15" y="63.1543">ResponsePromiseCef</text><line style="stroke: #A80036; stroke-width: 1.5;" x1="549.5" x2="734.5" y1="75" y2="75"/><rect fill="none" height="6" style="stroke: #C82930; stroke-width: 1.0;" width="6" x="556.5" y="83.9023"/><text fill="#000000" font-family="sans-serif" font-size="11" lengthAdjust="spacingAndGlyphs" textLength="161" x="568.5" y="89.2104">m_cbResponseHeaderReady</text><line style="stroke: #A80036; stroke-width: 1.5;" x1="549.5" x2="734.5" y1="95.8047" y2="95.8047"/><polygon fill="#FFFF44" points="559.5,102.707,563.5,106.707,559.5,110.707,555.5,106.707" style="stroke: #B38D22; stroke-width: 1.0;"/><text fill="#000000" font-family="sans-serif" font-size="11" lengthAdjust="spacingAndGlyphs" textLength="84" x="568.5" y="110.0151">setReadyImpl()</text><polygon fill="#FFFF44" points="559.5,115.5117,563.5,119.5117,559.5,123.5117,555.5,119.5117" style="stroke: #B38D22; stroke-width: 1.0;"/><text fill="#000000" font-family="sans-serif" font-size="11" lengthAdjust="spacingAndGlyphs" textLength="100" x="568.5" y="122.8198">setCancleImpl(...)</text><!--class cefapp::ResponseFutureCef--><rect fill="#00CCFF" height="48" id="cefapp::ResponseFutureCef" style="stroke: #A80036; stroke-width: 1.5;" width="155" x="770.5" y="62"/><rect fill="#00CCFF" height="32" style="stroke: #A80036; stroke-width: 1.5;" width="155" x="770.5" y="62"/><ellipse cx="785.5" cy="78" fill="#ADD1B2" rx="11" ry="11" style="stroke: #A80036; stroke-width: 1.0;"/><path d="M788.8438,83.4219 Q787.9844,83.8906 787.2656,84.0625 Q786.5625,84.2344 785.7656,84.2344 Q783.2031,84.2344 781.7969,82.4531 Q780.4063,80.6563 780.4063,77.4688 Q780.4063,74.3125 781.8125,72.5 Q783.2188,70.6875 785.7656,70.6875 Q786.5625,70.6875 787.2656,70.875 Q787.9844,71.0469 788.8438,71.5156 L788.8438,74.1719 Q787.7188,73.2344 787.0625,73 Q786.4063,72.75 785.7656,72.75 Q784.3125,72.75 783.5781,73.8906 Q782.8438,75.0156 782.8438,77.4688 Q782.8438,79.9219 783.5781,81.0625 Q784.3125,82.1875 785.7656,82.1875 Q786.4219,82.1875 787.0625,81.9531 Q787.7188,81.7031 788.8438,80.7656 L788.8438,83.4219 Z "/><text fill="#000000" font-family="sans-serif" font-size="12" lengthAdjust="spacingAndGlyphs" textLength="123" x="799.5" y="82.1543">ResponseFutureCef</text><line style="stroke: #A80036; stroke-width: 1.5;" x1="771.5" x2="924.5" y1="94" y2="94"/><line style="stroke: #A80036; stroke-width: 1.5;" x1="771.5" x2="924.5" y1="102" y2="102"/><!--class std::promise--><rect fill="#FEFECE" height="48" id="std::promise" style="stroke: #A80036; stroke-width: 1.5;" width="174" x="684" y="424"/><ellipse cx="699" cy="440" fill="#ADD1B2" rx="11" ry="11" style="stroke: #A80036; stroke-width: 1.0;"/><path d="M702.3438,445.4219 Q701.4844,445.8906 700.7656,446.0625 Q700.0625,446.2344 699.2656,446.2344 Q696.7031,446.2344 695.2969,444.4531 Q693.9063,442.6563 693.9063,439.4688 Q693.9063,436.3125 695.3125,434.5 Q696.7188,432.6875 699.2656,432.6875 Q700.0625,432.6875 700.7656,432.875 Q701.4844,433.0469 702.3438,433.5156 L702.3438,436.1719 Q701.2188,435.2344 700.5625,435 Q699.9063,434.75 699.2656,434.75 Q697.8125,434.75 697.0781,435.8906 Q696.3438,437.0156 696.3438,439.4688 Q696.3438,441.9219 697.0781,443.0625 Q697.8125,444.1875 699.2656,444.1875 Q699.9219,444.1875 700.5625,443.9531 Q701.2188,443.7031 702.3438,442.7656 L702.3438,445.4219 Z "/><text fill="#000000" font-family="sans-serif" font-size="12" lengthAdjust="spacingAndGlyphs" textLength="50" x="713" y="444.1543">promise</text><rect fill="#FFFFFF" height="15.9688" style="stroke: #000000; stroke-width: 1.0; stroke-dasharray: 2.0,2.0;" width="90" x="771" y="421"/><text fill="#000000" font-family="sans-serif" font-size="12" font-style="italic" lengthAdjust="spacingAndGlyphs" textLength="88" x="772" y="433.1387">BinaryPayload</text><line style="stroke: #A80036; stroke-width: 1.5;" x1="685" x2="857" y1="456" y2="456"/><line style="stroke: #A80036; stroke-width: 1.5;" x1="685" x2="857" y1="464" y2="464"/><!--class std::future--><rect fill="#FEFECE" height="48" id="std::future" style="stroke: #A80036; stroke-width: 1.5;" width="162" x="893" y="424"/><ellipse cx="908" cy="440" fill="#ADD1B2" rx="11" ry="11" style="stroke: #A80036; stroke-width: 1.0;"/><path d="M911.3438,445.4219 Q910.4844,445.8906 909.7656,446.0625 Q909.0625,446.2344 908.2656,446.2344 Q905.7031,446.2344 904.2969,444.4531 Q902.9063,442.6563 902.9063,439.4688 Q902.9063,436.3125 904.3125,434.5 Q905.7188,432.6875 908.2656,432.6875 Q909.0625,432.6875 909.7656,432.875 Q910.4844,433.0469 911.3438,433.5156 L911.3438,436.1719 Q910.2188,435.2344 909.5625,435 Q908.9063,434.75 908.2656,434.75 Q906.8125,434.75 906.0781,435.8906 Q905.3438,437.0156 905.3438,439.4688 Q905.3438,441.9219 906.0781,443.0625 Q906.8125,444.1875 908.2656,444.1875 Q908.9219,444.1875 909.5625,443.9531 Q910.2188,443.7031 911.3438,442.7656 L911.3438,445.4219 Z "/><text fill="#000000" font-family="sans-serif" font-size="12" lengthAdjust="spacingAndGlyphs" textLength="38" x="922" y="444.1543">future</text><rect fill="#FFFFFF" height="15.9688" style="stroke: #000000; stroke-width: 1.0; stroke-dasharray: 2.0,2.0;" width="90" x="968" y="421"/><text fill="#000000" font-family="sans-serif" font-size="12" font-style="italic" lengthAdjust="spacingAndGlyphs" textLength="88" x="969" y="433.1387">BinaryPayload</text><line style="stroke: #A80036; stroke-width: 1.5;" x1="894" x2="1054" y1="456" y2="456"/><line style="stroke: #A80036; stroke-width: 1.5;" x1="894" x2="1054" y1="464" y2="464"/><!--link cefapp::RequestCef to common::Request--><path d="M408.8132,92.7783 C349.5652,102.3018 251.7147,123.6992 179,168 C160.0902,179.5206 142.352,195.4011 127.1023,211.4599 " fill="none" id="cefapp::RequestCef-common::Request" style="stroke: #A80036; stroke-width: 1.0;"/><polygon fill="none" points="131.8811,216.613,113.287,226.7746,121.4858,207.2354,131.8811,216.613" style="stroke: #A80036; stroke-width: 1.0;"/><!--link cefapp::ResponsePromiseCef to common::ResponsePromise--><path d="M673.3143,129.2274 C684.036,144.0279 696.5088,161.2458 709.067,178.5816 " fill="none" id="cefapp::ResponsePromiseCef-common::ResponsePromise" style="stroke: #A80036; stroke-width: 1.0;"/><polygon fill="none" points="714.7623,174.5115,720.8265,194.8149,703.4245,182.7247,714.7623,174.5115" style="stroke: #A80036; stroke-width: 1.0;"/><!--link common::ResponsePromise to std::promise--><path d="M775.0179,371.4375 C773.9946,390.9369 773.0049,409.7951 772.2639,423.9165 " fill="none" id="common::ResponsePromise-std::promise" style="stroke: #A80036; stroke-width: 1.0;"/><polygon fill="#A80036" points="775.7109,358.2318,771.4019,364.0139,775.0819,370.2153,779.3909,364.4332,775.7109,358.2318" style="stroke: #A80036; stroke-width: 1.0;"/><text fill="#000000" font-family="sans-serif" font-size="13" lengthAdjust="spacingAndGlyphs" textLength="8" x="766.9727" y="378.241">1</text><!--link cefapp::ResponseFutureCef to common::ResponseFuture--><path d="M863.578,110.127 C881.6739,138.1534 912.0934,185.2667 935.9517,222.2178 " fill="none" id="cefapp::ResponseFutureCef-common::ResponseFuture" style="stroke: #A80036; stroke-width: 1.0;"/><polygon fill="none" points="941.9181,218.5536,946.886,239.1527,930.1567,226.1476,941.9181,218.5536" style="stroke: #A80036; stroke-width: 1.0;"/><!--link common::ResponseFuture to std::future--><path d="M971.8809,326.8567 C972.4399,358.817 973.1382,398.7332 973.5768,423.8047 " fill="none" id="common::ResponseFuture-std::future" style="stroke: #A80036; stroke-width: 1.0;"/><polygon fill="#A80036" points="971.651,313.7129,967.7566,319.782,971.8611,325.7111,975.7554,319.642,971.651,313.7129" style="stroke: #A80036; stroke-width: 1.0;"/><text fill="#000000" font-family="sans-serif" font-size="13" lengthAdjust="spacingAndGlyphs" textLength="8" x="963.0963" y="333.2287">1</text><!--link common::Request to common::BinaryPayload--><path d="M130.0059,276.5 C149.2898,276.5 171.2132,276.5 191.3052,276.5 " fill="none" id="common::Request-common::BinaryPayload" style="stroke: #A80036; stroke-width: 1.0; stroke-dasharray: 7.0,7.0;"/><polygon fill="#A80036" points="196.3712,276.5,187.3712,272.5,191.3712,276.5,187.3712,280.5,196.3712,276.5" style="stroke: #A80036; stroke-width: 1.0;"/><text fill="#000000" font-family="sans-serif" font-size="13" lengthAdjust="spacingAndGlyphs" textLength="30" x="148.25" y="269.5669">uses</text><!--link cefapp::RequestCef to common::BinaryPayload--><path d="M403.4691,116.8594 C380.4531,130.7466 354.5785,148.425 334,168 C311.8962,189.026 291.9196,217.0798 277.7171,239.3934 " fill="none" id="cefapp::RequestCef-common::BinaryPayload" style="stroke: #A80036; stroke-width: 1.0;"/><polygon fill="#A80036" points="414.8506,110.1544,407.6507,109.7535,404.5114,116.2454,411.7113,116.6463,414.8506,110.1544" style="stroke: #A80036; stroke-width: 1.0;"/><text fill="#000000" font-family="sans-serif" font-size="13" lengthAdjust="spacingAndGlyphs" textLength="8" x="394.6267" y="129.9532">1</text><!--link common::BinaryPayload to common::BinaryBuffer--><path d="M328.7947,276.5 C336.0592,276.5 343.3236,276.5 350.588,276.5 " fill="none" id="common::BinaryPayload-common::BinaryBuffer" style="stroke: #A80036; stroke-width: 1.0;"/><polygon fill="#A80036" points="315.7188,276.5,321.7188,280.5,327.7188,276.5,321.7188,272.5,315.7188,276.5" style="stroke: #A80036; stroke-width: 1.0;"/><text fill="#000000" font-family="sans-serif" font-size="13" lengthAdjust="spacingAndGlyphs" textLength="8" x="323.4845" y="272.6847">1</text><!--link common::BinaryBuffer to common::BufferPool--><path d="M538.5526,276.5 C545.6618,276.5 552.771,276.5 559.8801,276.5 " fill="none" id="common::BinaryBuffer-common::BufferPool" style="stroke: #A80036; stroke-width: 1.0;"/><polygon fill="#A80036" points="525.3242,276.5,531.3242,280.5,537.3242,276.5,531.3242,272.5,525.3242,276.5" style="stroke: #A80036; stroke-width: 1.0;"/><text fill="#000000" font-family="sans-serif" font-size="13" lengthAdjust="spacingAndGlyphs" textLength="8" x="532.887" y="272.9342">1</text><!--
@startuml
set namespaceSeparator ::
skinparam shadowing false

namespace common {
    class BinaryBuffer<BufferPool> {
        - m_allocator
        - m_data
        - m_nBytes
    }
    class BinaryPayload {
        - m_buffer
        - mimeType
    }

    class BufferPool
    class Request #33cc33 {
        + getURL()
        + payload() {abstract}
        - m_id
        - m_requestURL
    }
    class ResponsePromise #ff6600 {
        + setCancel(what)
        + setReady(payload)
        # setReadyImpl() {abstract}
        # setCancleImpl(...) {abstract}
        # setResolveOnDestruction()
        - m_promisePayload
        - m_requestId
        - m_state
        - m_bCancelOnDestruction
    }
    class ResponseFuture #00ccff {
        + getFuture()
        - m_requestId
    }
}

namespace cefapp {
    class RequestCef #33cc33
    class ResponsePromiseCef #ff6600 {
        # setReadyImpl()
        # setCancleImpl(...)
        - m_cbResponseHeaderReady
    }
    class ResponseFutureCef #00ccff
}

namespace std {
    class promise<BinaryPayload>
    class future<BinaryPayload>
}

cefapp::RequestCef - -|> common::Request
cefapp::ResponsePromiseCef - -|> common::ResponsePromise
common::ResponsePromise "1" *- - std::promise
cefapp::ResponseFutureCef - -|> common::ResponseFuture
common::ResponseFuture "1" *- - std::future

common::Request .right.> common::BinaryPayload : uses
cefapp::RequestCef "1" *- -  common::BinaryPayload
common::BinaryPayload "1" *-right- common::BinaryBuffer
common::BinaryBuffer "1" *-right- common::BufferPool
@enduml

PlantUML version 1.2018.09(Fri Jul 27 18:58:18 CEST 2018)
(GPL source distribution)
Java Runtime: OpenJDK Runtime Environment
JVM: OpenJDK 64-Bit Server VM
Java Version: 11.0.1+13-Ubuntu-2ubuntu1
Operating System: Linux
OS Version: 4.18.0-12-generic
Default Encoding: UTF-8
Language: en
Country: US
--></g></svg>