<?xml version="1.0" encoding="UTF-8" standalone="no"?><svg xmlns="http://www.w3.org/2000/svg" xmlns:xlink="http://www.w3.org/1999/xlink" contentScriptType="application/ecmascript" contentStyleType="text/css" height="495px" preserveAspectRatio="none" style="width:1058px;height:495px;" version="1.1" viewBox="0 0 1058 495" width="1058px" zoomAndPan="magnify"><defs/><g><!--cluster common--><polygon fill="#FFFFFF" points="34,169,102,169,109,191.4883,1036,191.4883,1036,369,34,369,34,169" style="stroke: #000000; stroke-width: 1.5;"/><line style="stroke: #000000; stroke-width: 1.5;" x1="34" x2="109" y1="191.4883" y2="191.4883"/><text fill="#000000" font-family="sans-serif" font-size="14" font-weight="bold" lengthAdjust="spacingAndGlyphs" textLength="62" x="38" y="184.5352">common</text><!--cluster cefapp--><polygon fill="#FFFFFF" points="19,16,72,16,79,38.4883,555,38.4883,555,138,19,138,19,16" style="stroke: #000000; stroke-width: 1.5;"/><line style="stroke: #000000; stroke-width: 1.5;" x1="19" x2="79" y1="38.4883" y2="38.4883"/><text fill="#000000" font-family="sans-serif" font-size="14" font-weight="bold" lengthAdjust="spacingAndGlyphs" textLength="47" x="23" y="31.5352">cefapp</text><!--cluster std--><polygon fill="#FFFFFF" points="14,400,43,400,50,422.4883,379,422.4883,379,483,14,483,14,400" style="stroke: #000000; stroke-width: 1.5;"/><line style="stroke: #000000; stroke-width: 1.5;" x1="14" x2="50" y1="422.4883" y2="422.4883"/><text fill="#000000" font-family="sans-serif" font-size="14" font-weight="bold" lengthAdjust="spacingAndGlyphs" textLength="23" x="18" y="415.5352">std</text><!--class common::BinaryBuffer--><rect fill="#FEFECE" height="86.8652" id="common::BinaryBuffer" style="stroke: #A80036; stroke-width: 1.5;" width="163" x="739.5" y="235"/><ellipse cx="754.5" cy="251" fill="#ADD1B2" rx="11" ry="11" style="stroke: #A80036; stroke-width: 1.0;"/><path d="M757.4731,256.6431 Q756.8921,256.9419 756.2529,257.0913 Q755.6138,257.2407 754.9082,257.2407 Q752.4014,257.2407 751.0815,255.5889 Q749.7617,253.937 749.7617,250.8159 Q749.7617,247.6865 751.0815,246.0347 Q752.4014,244.3828 754.9082,244.3828 Q755.6138,244.3828 756.2612,244.5322 Q756.9087,244.6816 757.4731,244.9805 L757.4731,247.7031 Q756.8423,247.1221 756.2488,246.8523 Q755.6553,246.5825 755.0244,246.5825 Q753.6797,246.5825 752.9949,247.6492 Q752.3101,248.7158 752.3101,250.8159 Q752.3101,252.9077 752.9949,253.9744 Q753.6797,255.041 755.0244,255.041 Q755.6553,255.041 756.2488,254.7712 Q756.8423,254.5015 757.4731,253.9204 Z "/><text fill="#000000" font-family="sans-serif" font-size="12" lengthAdjust="spacingAndGlyphs" textLength="69" x="768.5" y="255.5352">BinaryBuffer</text><rect fill="#FFFFFF" height="16.1328" style="stroke: #000000; stroke-width: 1.0; stroke-dasharray: 2.0,2.0;" width="60" x="845.5" y="232"/><text fill="#000000" font-family="sans-serif" font-size="12" font-style="italic" lengthAdjust="spacingAndGlyphs" textLength="58" x="846.5" y="244.6016">BufferPool</text><line style="stroke: #A80036; stroke-width: 1.5;" x1="740.5" x2="901.5" y1="267" y2="267"/><rect fill="none" height="6" style="stroke: #C82930; stroke-width: 1.0;" width="6" x="747.5" y="275.9775"/><text fill="#000000" font-family="sans-serif" font-size="11" lengthAdjust="spacingAndGlyphs" textLength="63" x="759.5" y="281.6348">m_allocator</text><rect fill="none" height="6" style="stroke: #C82930; stroke-width: 1.0;" width="6" x="747.5" y="288.9326"/><text fill="#000000" font-family="sans-serif" font-size="11" lengthAdjust="spacingAndGlyphs" textLength="39" x="759.5" y="294.5898">m_data</text><rect fill="none" height="6" style="stroke: #C82930; stroke-width: 1.0;" width="6" x="747.5" y="301.8877"/><text fill="#000000" font-family="sans-serif" font-size="11" lengthAdjust="spacingAndGlyphs" textLength="51" x="759.5" y="307.5449">m_nBytes</text><line style="stroke: #A80036; stroke-width: 1.5;" x1="740.5" x2="901.5" y1="313.8652" y2="313.8652"/><!--class common::BinaryPayload--><rect fill="#FEFECE" height="73.9102" id="common::BinaryPayload" style="stroke: #A80036; stroke-width: 1.5;" width="112" x="592" y="241.5"/><ellipse cx="607" cy="257.5" fill="#ADD1B2" rx="11" ry="11" style="stroke: #A80036; stroke-width: 1.0;"/><path d="M609.9731,263.1431 Q609.3921,263.4419 608.7529,263.5913 Q608.1138,263.7407 607.4082,263.7407 Q604.9014,263.7407 603.5815,262.0889 Q602.2617,260.437 602.2617,257.3159 Q602.2617,254.1865 603.5815,252.5347 Q604.9014,250.8828 607.4082,250.8828 Q608.1138,250.8828 608.7612,251.0322 Q609.4087,251.1816 609.9731,251.4805 L609.9731,254.2031 Q609.3423,253.6221 608.7488,253.3523 Q608.1553,253.0825 607.5244,253.0825 Q606.1797,253.0825 605.4949,254.1492 Q604.8101,255.2158 604.8101,257.3159 Q604.8101,259.4077 605.4949,260.4744 Q606.1797,261.541 607.5244,261.541 Q608.1553,261.541 608.7488,261.2712 Q609.3423,261.0015 609.9731,260.4204 Z "/><text fill="#000000" font-family="sans-serif" font-size="12" lengthAdjust="spacingAndGlyphs" textLength="80" x="621" y="262.0352">BinaryPayload</text><line style="stroke: #A80036; stroke-width: 1.5;" x1="593" x2="703" y1="273.5" y2="273.5"/><rect fill="none" height="6" style="stroke: #C82930; stroke-width: 1.0;" width="6" x="600" y="282.4775"/><text fill="#000000" font-family="sans-serif" font-size="11" lengthAdjust="spacingAndGlyphs" textLength="49" x="612" y="288.1348">m_buffer</text><rect fill="none" height="6" style="stroke: #C82930; stroke-width: 1.0;" width="6" x="600" y="295.4326"/><text fill="#000000" font-family="sans-serif" font-size="11" lengthAdjust="spacingAndGlyphs" textLength="55" x="612" y="301.0898">mimeType</text><line style="stroke: #A80036; stroke-width: 1.5;" x1="593" x2="703" y1="307.4102" y2="307.4102"/><!--class common::BufferPool--><rect fill="#FEFECE" height="48" id="common::BufferPool" style="stroke: #A80036; stroke-width: 1.5;" width="90" x="938" y="254.5"/><ellipse cx="953" cy="270.5" fill="#ADD1B2" rx="11" ry="11" style="stroke: #A80036; stroke-width: 1.0;"/><path d="M955.9731,276.1431 Q955.3921,276.4419 954.7529,276.5913 Q954.1138,276.7407 953.4082,276.7407 Q950.9014,276.7407 949.5815,275.0889 Q948.2617,273.437 948.2617,270.3159 Q948.2617,267.1865 949.5815,265.5347 Q950.9014,263.8828 953.4082,263.8828 Q954.1138,263.8828 954.7612,264.0322 Q955.4087,264.1816 955.9731,264.4805 L955.9731,267.2031 Q955.3423,266.6221 954.7488,266.3523 Q954.1553,266.0825 953.5244,266.0825 Q952.1797,266.0825 951.4949,267.1492 Q950.8101,268.2158 950.8101,270.3159 Q950.8101,272.4077 951.4949,273.4744 Q952.1797,274.541 953.5244,274.541 Q954.1553,274.541 954.7488,274.2712 Q955.3423,274.0015 955.9731,273.4204 Z "/><text fill="#000000" font-family="sans-serif" font-size="12" lengthAdjust="spacingAndGlyphs" textLength="58" x="967" y="275.0352">BufferPool</text><line style="stroke: #A80036; stroke-width: 1.5;" x1="939" x2="1027" y1="286.5" y2="286.5"/><line style="stroke: #A80036; stroke-width: 1.5;" x1="939" x2="1027" y1="294.5" y2="294.5"/><!--class common::Request--><rect fill="#33CC33" height="99.8203" id="common::Request" style="stroke: #A80036; stroke-width: 1.5;" width="120" x="406" y="228.5"/><rect fill="#33CC33" height="32" style="stroke: #A80036; stroke-width: 1.5;" width="120" x="406" y="228.5"/><ellipse cx="439.45" cy="244.5" fill="#ADD1B2" rx="11" ry="11" style="stroke: #A80036; stroke-width: 1.0;"/><path d="M442.4231,250.1431 Q441.8421,250.4419 441.2029,250.5913 Q440.5638,250.7407 439.8582,250.7407 Q437.3514,250.7407 436.0315,249.0889 Q434.7117,247.437 434.7117,244.3159 Q434.7117,241.1865 436.0315,239.5347 Q437.3514,237.8828 439.8582,237.8828 Q440.5638,237.8828 441.2112,238.0322 Q441.8587,238.1816 442.4231,238.4805 L442.4231,241.2031 Q441.7923,240.6221 441.1988,240.3523 Q440.6053,240.0825 439.9744,240.0825 Q438.6297,240.0825 437.9449,241.1492 Q437.2601,242.2158 437.2601,244.3159 Q437.2601,246.4077 437.9449,247.4744 Q438.6297,248.541 439.9744,248.541 Q440.6053,248.541 441.1988,248.2712 Q441.7923,248.0015 442.4231,247.4204 Z "/><text fill="#000000" font-family="sans-serif" font-size="12" lengthAdjust="spacingAndGlyphs" textLength="47" x="457.55" y="249.0352">Request</text><line style="stroke: #A80036; stroke-width: 1.5;" x1="407" x2="525" y1="260.5" y2="260.5"/><rect fill="none" height="6" style="stroke: #C82930; stroke-width: 1.0;" width="6" x="414" y="269.4775"/><text fill="#000000" font-family="sans-serif" font-size="11" lengthAdjust="spacingAndGlyphs" textLength="26" x="426" y="275.1348">m_id</text><rect fill="none" height="6" style="stroke: #C82930; stroke-width: 1.0;" width="6" x="414" y="282.4326"/><text fill="#000000" font-family="sans-serif" font-size="11" lengthAdjust="spacingAndGlyphs" textLength="83" x="426" y="288.0898">m_requestType</text><line style="stroke: #A80036; stroke-width: 1.5;" x1="407" x2="525" y1="294.4102" y2="294.4102"/><ellipse cx="417" cy="306.3877" fill="#84BE84" rx="3" ry="3" style="stroke: #038048; stroke-width: 1.0;"/><text fill="#000000" font-family="sans-serif" font-size="11" lengthAdjust="spacingAndGlyphs" textLength="94" x="426" y="309.0449">getRequestType()</text><ellipse cx="417" cy="319.3428" fill="#84BE84" rx="3" ry="3" style="stroke: #038048; stroke-width: 1.0;"/><text fill="#000000" font-family="sans-serif" font-size="11" font-style="italic" lengthAdjust="spacingAndGlyphs" textLength="66" x="426" y="322">getPayload()</text><!--class common::ResponsePromise--><rect fill="#FF6600" height="164.5957" id="common::ResponsePromise" style="stroke: #A80036; stroke-width: 1.5;" width="170" x="201" y="196"/><rect fill="#FF6600" height="32" style="stroke: #A80036; stroke-width: 1.5;" width="170" x="201" y="196"/><ellipse cx="232.2" cy="212" fill="#ADD1B2" rx="11" ry="11" style="stroke: #A80036; stroke-width: 1.0;"/><path d="M235.1731,217.6431 Q234.5921,217.9419 233.9529,218.0913 Q233.3138,218.2407 232.6082,218.2407 Q230.1014,218.2407 228.7815,216.5889 Q227.4617,214.937 227.4617,211.8159 Q227.4617,208.6865 228.7815,207.0347 Q230.1014,205.3828 232.6082,205.3828 Q233.3138,205.3828 233.9612,205.5322 Q234.6087,205.6816 235.1731,205.9805 L235.1731,208.7031 Q234.5423,208.1221 233.9488,207.8523 Q233.3553,207.5825 232.7244,207.5825 Q231.3797,207.5825 230.6949,208.6492 Q230.0101,209.7158 230.0101,211.8159 Q230.0101,213.9077 230.6949,214.9744 Q231.3797,216.041 232.7244,216.041 Q233.3553,216.041 233.9488,215.7712 Q234.5423,215.5015 235.1731,214.9204 Z "/><text fill="#000000" font-family="sans-serif" font-size="12" lengthAdjust="spacingAndGlyphs" textLength="102" x="249.8" y="216.5352">ResponsePromise</text><line style="stroke: #A80036; stroke-width: 1.5;" x1="202" x2="370" y1="228" y2="228"/><rect fill="none" height="6" style="stroke: #C82930; stroke-width: 1.0;" width="6" x="209" y="236.9775"/><text fill="#000000" font-family="sans-serif" font-size="11" lengthAdjust="spacingAndGlyphs" textLength="101" x="221" y="242.6348">m_promisePayload</text><rect fill="none" height="6" style="stroke: #C82930; stroke-width: 1.0;" width="6" x="209" y="249.9326"/><text fill="#000000" font-family="sans-serif" font-size="11" lengthAdjust="spacingAndGlyphs" textLength="67" x="221" y="255.5898">m_requestId</text><rect fill="none" height="6" style="stroke: #C82930; stroke-width: 1.0;" width="6" x="209" y="262.8877"/><text fill="#000000" font-family="sans-serif" font-size="11" lengthAdjust="spacingAndGlyphs" textLength="42" x="221" y="268.5449">m_state</text><rect fill="none" height="6" style="stroke: #C82930; stroke-width: 1.0;" width="6" x="209" y="275.8428"/><text fill="#000000" font-family="sans-serif" font-size="11" lengthAdjust="spacingAndGlyphs" textLength="138" x="221" y="281.5">m_bCancelOnDestruction</text><line style="stroke: #A80036; stroke-width: 1.5;" x1="202" x2="370" y1="287.8203" y2="287.8203"/><ellipse cx="212" cy="299.7979" fill="#84BE84" rx="3" ry="3" style="stroke: #038048; stroke-width: 1.0;"/><text fill="#000000" font-family="sans-serif" font-size="11" lengthAdjust="spacingAndGlyphs" textLength="85" x="221" y="302.4551">setCancel(what)</text><ellipse cx="212" cy="312.7529" fill="#84BE84" rx="3" ry="3" style="stroke: #038048; stroke-width: 1.0;"/><text fill="#000000" font-family="sans-serif" font-size="11" lengthAdjust="spacingAndGlyphs" textLength="98" x="221" y="315.4102">setReady(payload)</text><polygon fill="#FFFF44" points="212,320.708,216,324.708,212,328.708,208,324.708" style="stroke: #B38D22; stroke-width: 1.0;"/><text fill="#000000" font-family="sans-serif" font-size="11" font-style="italic" lengthAdjust="spacingAndGlyphs" textLength="79" x="221" y="328.3652">setReadyImpl()</text><polygon fill="#FFFF44" points="212,333.6631,216,337.6631,212,341.6631,208,337.6631" style="stroke: #B38D22; stroke-width: 1.0;"/><text fill="#000000" font-family="sans-serif" font-size="11" font-style="italic" lengthAdjust="spacingAndGlyphs" textLength="92" x="221" y="341.3203">setCancleImpl(...)</text><polygon fill="#FFFF44" points="212,346.6182,216,350.6182,212,354.6182,208,350.6182" style="stroke: #B38D22; stroke-width: 1.0;"/><text fill="#000000" font-family="sans-serif" font-size="11" lengthAdjust="spacingAndGlyphs" textLength="144" x="221" y="354.2754">setResolveOnDestruction()</text><!--class common::ResponseFuture--><rect fill="#00CCFF" height="73.9102" id="common::ResponseFuture" style="stroke: #A80036; stroke-width: 1.5;" width="124" x="42" y="241.5"/><rect fill="#00CCFF" height="32" style="stroke: #A80036; stroke-width: 1.5;" width="124" x="42" y="241.5"/><ellipse cx="57" cy="257.5" fill="#ADD1B2" rx="11" ry="11" style="stroke: #A80036; stroke-width: 1.0;"/><path d="M59.9731,263.1431 Q59.3921,263.4419 58.7529,263.5913 Q58.1138,263.7407 57.4082,263.7407 Q54.9014,263.7407 53.5815,262.0889 Q52.2617,260.437 52.2617,257.3159 Q52.2617,254.1865 53.5815,252.5347 Q54.9014,250.8828 57.4082,250.8828 Q58.1138,250.8828 58.7612,251.0322 Q59.4087,251.1816 59.9731,251.4805 L59.9731,254.2031 Q59.3423,253.6221 58.7488,253.3523 Q58.1553,253.0825 57.5244,253.0825 Q56.1797,253.0825 55.4949,254.1492 Q54.8101,255.2158 54.8101,257.3159 Q54.8101,259.4077 55.4949,260.4744 Q56.1797,261.541 57.5244,261.541 Q58.1553,261.541 58.7488,261.2712 Q59.3423,261.0015 59.9731,260.4204 Z "/><text fill="#000000" font-family="sans-serif" font-size="12" lengthAdjust="spacingAndGlyphs" textLength="92" x="71" y="262.0352">ResponseFuture</text><line style="stroke: #A80036; stroke-width: 1.5;" x1="43" x2="165" y1="273.5" y2="273.5"/><rect fill="none" height="6" style="stroke: #C82930; stroke-width: 1.0;" width="6" x="50" y="282.4775"/><text fill="#000000" font-family="sans-serif" font-size="11" lengthAdjust="spacingAndGlyphs" textLength="67" x="62" y="288.1348">m_requestId</text><line style="stroke: #A80036; stroke-width: 1.5;" x1="43" x2="165" y1="294.4551" y2="294.4551"/><ellipse cx="53" cy="306.4326" fill="#84BE84" rx="3" ry="3" style="stroke: #038048; stroke-width: 1.0;"/><text fill="#000000" font-family="sans-serif" font-size="11" lengthAdjust="spacingAndGlyphs" textLength="60" x="62" y="309.0898">getFuture()</text><!--class cefapp::RequestCef--><rect fill="#33CC33" height="48" id="cefapp::RequestCef" style="stroke: #A80036; stroke-width: 1.5;" width="98" x="449" y="62.5"/><rect fill="#33CC33" height="32" style="stroke: #A80036; stroke-width: 1.5;" width="98" x="449" y="62.5"/><ellipse cx="464" cy="78.5" fill="#ADD1B2" rx="11" ry="11" style="stroke: #A80036; stroke-width: 1.0;"/><path d="M466.9731,84.1431 Q466.3921,84.4419 465.7529,84.5913 Q465.1138,84.7407 464.4082,84.7407 Q461.9014,84.7407 460.5815,83.0889 Q459.2617,81.437 459.2617,78.3159 Q459.2617,75.1865 460.5815,73.5347 Q461.9014,71.8828 464.4082,71.8828 Q465.1138,71.8828 465.7612,72.0322 Q466.4087,72.1816 466.9731,72.4805 L466.9731,75.2031 Q466.3423,74.6221 465.7488,74.3523 Q465.1553,74.0825 464.5244,74.0825 Q463.1797,74.0825 462.4949,75.1492 Q461.8101,76.2158 461.8101,78.3159 Q461.8101,80.4077 462.4949,81.4744 Q463.1797,82.541 464.5244,82.541 Q465.1553,82.541 465.7488,82.2712 Q466.3423,82.0015 466.9731,81.4204 Z "/><text fill="#000000" font-family="sans-serif" font-size="12" lengthAdjust="spacingAndGlyphs" textLength="66" x="478" y="83.0352">RequestCef</text><line style="stroke: #A80036; stroke-width: 1.5;" x1="450" x2="546" y1="94.5" y2="94.5"/><line style="stroke: #A80036; stroke-width: 1.5;" x1="450" x2="546" y1="102.5" y2="102.5"/><!--class cefapp::ResponsePromiseCef--><rect fill="#FF6600" height="86.8652" id="cefapp::ResponsePromiseCef" style="stroke: #A80036; stroke-width: 1.5;" width="177" x="236.5" y="43"/><rect fill="#FF6600" height="32" style="stroke: #A80036; stroke-width: 1.5;" width="177" x="236.5" y="43"/><ellipse cx="262.3" cy="59" fill="#ADD1B2" rx="11" ry="11" style="stroke: #A80036; stroke-width: 1.0;"/><path d="M265.2731,64.6431 Q264.6921,64.9419 264.0529,65.0913 Q263.4138,65.2407 262.7082,65.2407 Q260.2014,65.2407 258.8815,63.5889 Q257.5617,61.937 257.5617,58.8159 Q257.5617,55.6865 258.8815,54.0347 Q260.2014,52.3828 262.7082,52.3828 Q263.4138,52.3828 264.0612,52.5322 Q264.7087,52.6816 265.2731,52.9805 L265.2731,55.7031 Q264.6423,55.1221 264.0488,54.8523 Q263.4553,54.5825 262.8244,54.5825 Q261.4797,54.5825 260.7949,55.6492 Q260.1101,56.7158 260.1101,58.8159 Q260.1101,60.9077 260.7949,61.9744 Q261.4797,63.041 262.8244,63.041 Q263.4553,63.041 264.0488,62.7712 Q264.6423,62.5015 265.2731,61.9204 Z "/><text fill="#000000" font-family="sans-serif" font-size="12" lengthAdjust="spacingAndGlyphs" textLength="121" x="278.7" y="63.5352">ResponsePromiseCef</text><line style="stroke: #A80036; stroke-width: 1.5;" x1="237.5" x2="412.5" y1="75" y2="75"/><rect fill="none" height="6" style="stroke: #C82930; stroke-width: 1.0;" width="6" x="244.5" y="83.9775"/><text fill="#000000" font-family="sans-serif" font-size="11" lengthAdjust="spacingAndGlyphs" textLength="151" x="256.5" y="89.6348">m_cbResponseHeaderReady</text><line style="stroke: #A80036; stroke-width: 1.5;" x1="237.5" x2="412.5" y1="95.9551" y2="95.9551"/><polygon fill="#FFFF44" points="247.5,102.9326,251.5,106.9326,247.5,110.9326,243.5,106.9326" style="stroke: #B38D22; stroke-width: 1.0;"/><text fill="#000000" font-family="sans-serif" font-size="11" lengthAdjust="spacingAndGlyphs" textLength="79" x="256.5" y="110.5898">setReadyImpl()</text><polygon fill="#FFFF44" points="247.5,115.8877,251.5,119.8877,247.5,123.8877,243.5,119.8877" style="stroke: #B38D22; stroke-width: 1.0;"/><text fill="#000000" font-family="sans-serif" font-size="11" lengthAdjust="spacingAndGlyphs" textLength="92" x="256.5" y="123.5449">setCancleImpl(...)</text><!--class cefapp::ResponseFutureCef--><rect fill="#00CCFF" height="48" id="cefapp::ResponseFutureCef" style="stroke: #A80036; stroke-width: 1.5;" width="143" x="27.5" y="62.5"/><rect fill="#00CCFF" height="32" style="stroke: #A80036; stroke-width: 1.5;" width="143" x="27.5" y="62.5"/><ellipse cx="42.5" cy="78.5" fill="#ADD1B2" rx="11" ry="11" style="stroke: #A80036; stroke-width: 1.0;"/><path d="M45.4731,84.1431 Q44.8921,84.4419 44.2529,84.5913 Q43.6138,84.7407 42.9082,84.7407 Q40.4014,84.7407 39.0815,83.0889 Q37.7617,81.437 37.7617,78.3159 Q37.7617,75.1865 39.0815,73.5347 Q40.4014,71.8828 42.9082,71.8828 Q43.6138,71.8828 44.2612,72.0322 Q44.9087,72.1816 45.4731,72.4805 L45.4731,75.2031 Q44.8423,74.6221 44.2488,74.3523 Q43.6553,74.0825 43.0244,74.0825 Q41.6797,74.0825 40.9949,75.1492 Q40.3101,76.2158 40.3101,78.3159 Q40.3101,80.4077 40.9949,81.4744 Q41.6797,82.541 43.0244,82.541 Q43.6553,82.541 44.2488,82.2712 Q44.8423,82.0015 45.4731,81.4204 Z "/><text fill="#000000" font-family="sans-serif" font-size="12" lengthAdjust="spacingAndGlyphs" textLength="111" x="56.5" y="83.0352">ResponseFutureCef</text><line style="stroke: #A80036; stroke-width: 1.5;" x1="28.5" x2="169.5" y1="94.5" y2="94.5"/><line style="stroke: #A80036; stroke-width: 1.5;" x1="28.5" x2="169.5" y1="102.5" y2="102.5"/><!--class std::promise--><rect fill="#FEFECE" height="48" id="std::promise" style="stroke: #A80036; stroke-width: 1.5;" width="163" x="207.5" y="427"/><ellipse cx="222.5" cy="443" fill="#ADD1B2" rx="11" ry="11" style="stroke: #A80036; stroke-width: 1.0;"/><path d="M225.4731,448.6431 Q224.8921,448.9419 224.2529,449.0913 Q223.6138,449.2407 222.9082,449.2407 Q220.4014,449.2407 219.0815,447.5889 Q217.7617,445.937 217.7617,442.8159 Q217.7617,439.6865 219.0815,438.0347 Q220.4014,436.3828 222.9082,436.3828 Q223.6138,436.3828 224.2612,436.5322 Q224.9087,436.6816 225.4731,436.9805 L225.4731,439.7031 Q224.8423,439.1221 224.2488,438.8523 Q223.6553,438.5825 223.0244,438.5825 Q221.6797,438.5825 220.9949,439.6492 Q220.3101,440.7158 220.3101,442.8159 Q220.3101,444.9077 220.9949,445.9744 Q221.6797,447.041 223.0244,447.041 Q223.6553,447.041 224.2488,446.7712 Q224.8423,446.5015 225.4731,445.9204 Z "/><text fill="#000000" font-family="sans-serif" font-size="12" lengthAdjust="spacingAndGlyphs" textLength="47" x="236.5" y="447.5352">promise</text><rect fill="#FFFFFF" height="16.1328" style="stroke: #000000; stroke-width: 1.0; stroke-dasharray: 2.0,2.0;" width="82" x="291.5" y="424"/><text fill="#000000" font-family="sans-serif" font-size="12" font-style="italic" lengthAdjust="spacingAndGlyphs" textLength="80" x="292.5" y="436.6016">BinaryPayload</text><line style="stroke: #A80036; stroke-width: 1.5;" x1="208.5" x2="369.5" y1="459" y2="459"/><line style="stroke: #A80036; stroke-width: 1.5;" x1="208.5" x2="369.5" y1="467" y2="467"/><!--class std::future--><rect fill="#FEFECE" height="48" id="std::future" style="stroke: #A80036; stroke-width: 1.5;" width="150" x="22" y="427"/><ellipse cx="37" cy="443" fill="#ADD1B2" rx="11" ry="11" style="stroke: #A80036; stroke-width: 1.0;"/><path d="M39.9731,448.6431 Q39.3921,448.9419 38.7529,449.0913 Q38.1138,449.2407 37.4082,449.2407 Q34.9014,449.2407 33.5815,447.5889 Q32.2617,445.937 32.2617,442.8159 Q32.2617,439.6865 33.5815,438.0347 Q34.9014,436.3828 37.4082,436.3828 Q38.1138,436.3828 38.7612,436.5322 Q39.4087,436.6816 39.9731,436.9805 L39.9731,439.7031 Q39.3423,439.1221 38.7488,438.8523 Q38.1553,438.5825 37.5244,438.5825 Q36.1797,438.5825 35.4949,439.6492 Q34.8101,440.7158 34.8101,442.8159 Q34.8101,444.9077 35.4949,445.9744 Q36.1797,447.041 37.5244,447.041 Q38.1553,447.041 38.7488,446.7712 Q39.3423,446.5015 39.9731,445.9204 Z "/><text fill="#000000" font-family="sans-serif" font-size="12" lengthAdjust="spacingAndGlyphs" textLength="34" x="51" y="447.5352">future</text><rect fill="#FFFFFF" height="16.1328" style="stroke: #000000; stroke-width: 1.0; stroke-dasharray: 2.0,2.0;" width="82" x="93" y="424"/><text fill="#000000" font-family="sans-serif" font-size="12" font-style="italic" lengthAdjust="spacingAndGlyphs" textLength="80" x="94" y="436.6016">BinaryPayload</text><line style="stroke: #A80036; stroke-width: 1.5;" x1="23" x2="171" y1="459" y2="459"/><line style="stroke: #A80036; stroke-width: 1.5;" x1="23" x2="171" y1="467" y2="467"/><!--link cefapp::RequestCef to common::Request--><path d="M493.9472,110.8169 C489.8752,135.2487 483.4047,174.0718 477.7147,208.2115 " fill="none" id="cefapp::RequestCef-common::Request" style="stroke: #A80036; stroke-width: 1.0;"/><polygon fill="none" points="484.5831,209.5811,474.3903,228.1581,470.7736,207.2794,484.5831,209.5811" style="stroke: #A80036; stroke-width: 1.0;"/><!--link cefapp::ResponsePromiseCef to common::ResponsePromise--><path d="M316.1503,130.0678 C313.3383,143.9117 310.1,159.8541 306.8117,176.0425 " fill="none" id="cefapp::ResponsePromiseCef-common::ResponsePromise" style="stroke: #A80036; stroke-width: 1.0;"/><polygon fill="none" points="313.6424,177.5799,302.8012,195.7862,299.9226,174.793,313.6424,177.5799" style="stroke: #A80036; stroke-width: 1.0;"/><!--link common::ResponsePromise to std::promise--><path d="M287.6686,374.4436 C288.0082,393.9723 288.3362,412.8295 288.5816,426.9423 " fill="none" id="common::ResponsePromise-std::promise" style="stroke: #A80036; stroke-width: 1.0;"/><polygon fill="#A80036" points="287.4385,361.2133,283.5435,367.282,287.6472,373.2115,291.5423,367.1428,287.4385,361.2133" style="stroke: #A80036; stroke-width: 1.0;"/><text fill="#000000" font-family="sans-serif" font-size="13" lengthAdjust="spacingAndGlyphs" textLength="8" x="279.2264" y="381.282">1</text><!--link cefapp::ResponseFutureCef to common::ResponseFuture--><path d="M99.6333,110.8169 C100.351,138.38 101.5458,184.2597 102.5044,221.067 " fill="none" id="cefapp::ResponseFutureCef-common::ResponseFuture" style="stroke: #A80036; stroke-width: 1.0;"/><polygon fill="none" points="109.5059,221.0381,103.029,241.2136,95.5106,221.4027,109.5059,221.0381" style="stroke: #A80036; stroke-width: 1.0;"/><!--link common::ResponseFuture to std::future--><path d="M101.9603,328.7649 C100.6509,361.0318 99.0093,401.486 97.9822,426.796 " fill="none" id="common::ResponseFuture-std::future" style="stroke: #A80036; stroke-width: 1.0;"/><polygon fill="#A80036" points="102.4983,315.5056,98.2583,321.3385,102.0117,327.4957,106.2517,321.6629,102.4983,315.5056" style="stroke: #A80036; stroke-width: 1.0;"/><text fill="#000000" font-family="sans-serif" font-size="13" lengthAdjust="spacingAndGlyphs" textLength="8" x="93.5183" y="336.0372">1</text><!--link cefapp::ResponseFutureCef to cefapp::ResponsePromiseCef--><path d="M170.5078,86.5 C189.8207,86.5 211.0113,86.5 231.3411,86.5 " fill="none" id="cefapp::ResponseFutureCef-cefapp::ResponsePromiseCef" style="stroke: #A80036; stroke-width: 1.0; stroke-dasharray: 7.0,7.0;"/><polygon fill="#A80036" points="236.4895,86.5,227.4895,82.5,231.4895,86.5,227.4895,90.5,236.4895,86.5" style="stroke: #A80036; stroke-width: 1.0;"/><text fill="#000000" font-family="sans-serif" font-size="13" lengthAdjust="spacingAndGlyphs" textLength="29" x="189" y="80.0684">uses</text><!--link common::Request to common::BinaryPayload--><path d="M526.098,278.5 C545.4997,278.5 567.0279,278.5 586.5274,278.5 " fill="none" id="common::Request-common::BinaryPayload" style="stroke: #A80036; stroke-width: 1.0; stroke-dasharray: 7.0,7.0;"/><polygon fill="#A80036" points="591.97,278.5,582.97,274.5,586.97,278.5,582.97,282.5,591.97,278.5" style="stroke: #A80036; stroke-width: 1.0;"/><text fill="#000000" font-family="sans-serif" font-size="13" lengthAdjust="spacingAndGlyphs" textLength="29" x="544.5" y="272.0684">uses</text><!--link cefapp::RequestCef to common::BinaryPayload--><path d="M525.0761,121.1574 C551.5454,155.0381 591.7184,206.4595 618.87,241.2136 " fill="none" id="cefapp::RequestCef-common::BinaryPayload" style="stroke: #A80036; stroke-width: 1.0;"/><polygon fill="#A80036" points="516.9976,110.8169,517.5394,118.0076,524.3854,120.2732,523.8436,113.0824,516.9976,110.8169" style="stroke: #A80036; stroke-width: 1.0;"/><text fill="#000000" font-family="sans-serif" font-size="13" lengthAdjust="spacingAndGlyphs" textLength="28" x="490.2158" y="131.1785">0...1</text><!--link common::BinaryPayload to common::BinaryBuffer--><path d="M717.2765,278.5 C724.6024,278.5 731.9283,278.5 739.2542,278.5 " fill="none" id="common::BinaryPayload-common::BinaryBuffer" style="stroke: #A80036; stroke-width: 1.0;"/><polygon fill="#A80036" points="704.0898,278.5,710.0898,282.5,716.0898,278.5,710.0898,274.5,704.0898,278.5" style="stroke: #A80036; stroke-width: 1.0;"/><text fill="#000000" font-family="sans-serif" font-size="13" lengthAdjust="spacingAndGlyphs" textLength="8" x="712.1644" y="275.0874">1</text><!--link common::BinaryBuffer to common::BufferPool--><path d="M915.8181,278.5 C923.1432,278.5 930.4683,278.5 937.7935,278.5 " fill="none" id="common::BinaryBuffer-common::BufferPool" style="stroke: #A80036; stroke-width: 1.0;"/><polygon fill="#A80036" points="902.6328,278.5,908.6328,282.5,914.6328,278.5,908.6328,274.5,902.6328,278.5" style="stroke: #A80036; stroke-width: 1.0;"/><text fill="#000000" font-family="sans-serif" font-size="13" lengthAdjust="spacingAndGlyphs" textLength="8" x="910.5271" y="275.3975">1</text><!--
@startuml
set namespaceSeparator ::
skinparam shadowing false

namespace common {
    class BinaryBuffer<BufferPool> {
        - m_allocator
        - m_data
        - m_nBytes
    }
    class BinaryPayload {
        - m_buffer
        - mimeType
    }

    class BufferPool
    class Request #33cc33 {
        + getRequestType()
        + getPayload() {abstract}
        - m_id
        - m_requestType
    }
    class ResponsePromise #ff6600 {
        + setCancel(what)
        + setReady(payload)
        # setReadyImpl() {abstract}
        # setCancleImpl(...) {abstract}
        # setResolveOnDestruction()
        - m_promisePayload
        - m_requestId
        - m_state
        - m_bCancelOnDestruction
    }
    class ResponseFuture #00ccff {
        + getFuture()
        - m_requestId
    }
}

namespace cefapp {
    class RequestCef #33cc33
    class ResponsePromiseCef #ff6600 {
        # setReadyImpl()
        # setCancleImpl(...)
        - m_cbResponseHeaderReady
    }
    class ResponseFutureCef #00ccff
}

namespace std {
    class promise<BinaryPayload>
    class future<BinaryPayload>
}

cefapp::RequestCef - -|> common::Request
cefapp::ResponsePromiseCef - -|> common::ResponsePromise
common::ResponsePromise "1" *- - std::promise
cefapp::ResponseFutureCef - -|> common::ResponseFuture
common::ResponseFuture "1" *- - std::future
cefapp::ResponseFutureCef .right.> cefapp::ResponsePromiseCef : uses

common::Request .right.> common::BinaryPayload : uses
cefapp::RequestCef "0...1" *- -  common::BinaryPayload
common::BinaryPayload "1" *-right- common::BinaryBuffer
common::BinaryBuffer "1" *-right- common::BufferPool
@enduml

PlantUML version 1.2018.01(Sun Jan 28 19:08:22 CET 2018)
(GPL source distribution)
Java Runtime: Java(TM) SE Runtime Environment
JVM: Java HotSpot(TM) 64-Bit Server VM
Java Version: 9.0.4+11
Operating System: Mac OS X
OS Version: 10.11.6
Default Encoding: UTF-8
Language: de
Country: DE
--></g></svg>