<?xml version="1.0" encoding="UTF-8" standalone="no"?><svg xmlns="http://www.w3.org/2000/svg" xmlns:xlink="http://www.w3.org/1999/xlink" contentScriptType="application/ecmascript" contentStyleType="text/css" height="495px" preserveAspectRatio="none" style="width:1038px;height:495px;" version="1.1" viewBox="0 0 1038 495" width="1038px" zoomAndPan="magnify"><defs/><g><!--cluster common--><polygon fill="#FFFFFF" points="14,169,82,169,89,191.4883,1000,191.4883,1000,369,14,369,14,169" style="stroke: #000000; stroke-width: 1.5;"/><line style="stroke: #000000; stroke-width: 1.5;" x1="14" x2="89" y1="191.4883" y2="191.4883"/><text fill="#000000" font-family="sans-serif" font-size="14" font-weight="bold" lengthAdjust="spacingAndGlyphs" textLength="62" x="18" y="184.5352">common</text><!--cluster cefapp--><polygon fill="#FFFFFF" points="387,16,440,16,447,38.4883,892,38.4883,892,138,387,138,387,16" style="stroke: #000000; stroke-width: 1.5;"/><line style="stroke: #000000; stroke-width: 1.5;" x1="387" x2="447" y1="38.4883" y2="38.4883"/><text fill="#000000" font-family="sans-serif" font-size="14" font-weight="bold" lengthAdjust="spacingAndGlyphs" textLength="47" x="391" y="31.5352">cefapp</text><!--cluster std--><polygon fill="#FFFFFF" points="651,400,680,400,687,422.4883,1016,422.4883,1016,483,651,483,651,400" style="stroke: #000000; stroke-width: 1.5;"/><line style="stroke: #000000; stroke-width: 1.5;" x1="651" x2="687" y1="422.4883" y2="422.4883"/><text fill="#000000" font-family="sans-serif" font-size="14" font-weight="bold" lengthAdjust="spacingAndGlyphs" textLength="23" x="655" y="415.5352">std</text><!--class common::BinaryBuffer--><rect fill="#FEFECE" height="86.8652" id="common::BinaryBuffer" style="stroke: #A80036; stroke-width: 1.5;" width="163" x="339.5" y="235"/><ellipse cx="354.5" cy="251" fill="#ADD1B2" rx="11" ry="11" style="stroke: #A80036; stroke-width: 1.0;"/><path d="M357.4731,256.6431 Q356.8921,256.9419 356.2529,257.0913 Q355.6138,257.2407 354.9082,257.2407 Q352.4014,257.2407 351.0815,255.5889 Q349.7617,253.937 349.7617,250.8159 Q349.7617,247.6865 351.0815,246.0347 Q352.4014,244.3828 354.9082,244.3828 Q355.6138,244.3828 356.2612,244.5322 Q356.9087,244.6816 357.4731,244.9805 L357.4731,247.7031 Q356.8423,247.1221 356.2488,246.8523 Q355.6553,246.5825 355.0244,246.5825 Q353.6797,246.5825 352.9949,247.6492 Q352.3101,248.7158 352.3101,250.8159 Q352.3101,252.9077 352.9949,253.9744 Q353.6797,255.041 355.0244,255.041 Q355.6553,255.041 356.2488,254.7712 Q356.8423,254.5015 357.4731,253.9204 Z "/><text fill="#000000" font-family="sans-serif" font-size="12" lengthAdjust="spacingAndGlyphs" textLength="69" x="368.5" y="255.5352">BinaryBuffer</text><rect fill="#FFFFFF" height="16.1328" style="stroke: #000000; stroke-width: 1.0; stroke-dasharray: 2.0,2.0;" width="60" x="445.5" y="232"/><text fill="#000000" font-family="sans-serif" font-size="12" font-style="italic" lengthAdjust="spacingAndGlyphs" textLength="58" x="446.5" y="244.6016">BufferPool</text><line style="stroke: #A80036; stroke-width: 1.5;" x1="340.5" x2="501.5" y1="267" y2="267"/><rect fill="none" height="6" style="stroke: #C82930; stroke-width: 1.0;" width="6" x="347.5" y="275.9775"/><text fill="#000000" font-family="sans-serif" font-size="11" lengthAdjust="spacingAndGlyphs" textLength="63" x="359.5" y="281.6348">m_allocator</text><rect fill="none" height="6" style="stroke: #C82930; stroke-width: 1.0;" width="6" x="347.5" y="288.9326"/><text fill="#000000" font-family="sans-serif" font-size="11" lengthAdjust="spacingAndGlyphs" textLength="39" x="359.5" y="294.5898">m_data</text><rect fill="none" height="6" style="stroke: #C82930; stroke-width: 1.0;" width="6" x="347.5" y="301.8877"/><text fill="#000000" font-family="sans-serif" font-size="11" lengthAdjust="spacingAndGlyphs" textLength="51" x="359.5" y="307.5449">m_nBytes</text><line style="stroke: #A80036; stroke-width: 1.5;" x1="340.5" x2="501.5" y1="313.8652" y2="313.8652"/><!--class common::BinaryPayload--><rect fill="#FEFECE" height="73.9102" id="common::BinaryPayload" style="stroke: #A80036; stroke-width: 1.5;" width="112" x="192" y="241.5"/><ellipse cx="207" cy="257.5" fill="#ADD1B2" rx="11" ry="11" style="stroke: #A80036; stroke-width: 1.0;"/><path d="M209.9731,263.1431 Q209.3921,263.4419 208.7529,263.5913 Q208.1138,263.7407 207.4082,263.7407 Q204.9014,263.7407 203.5815,262.0889 Q202.2617,260.437 202.2617,257.3159 Q202.2617,254.1865 203.5815,252.5347 Q204.9014,250.8828 207.4082,250.8828 Q208.1138,250.8828 208.7612,251.0322 Q209.4087,251.1816 209.9731,251.4805 L209.9731,254.2031 Q209.3423,253.6221 208.7488,253.3523 Q208.1553,253.0825 207.5244,253.0825 Q206.1797,253.0825 205.4949,254.1492 Q204.8101,255.2158 204.8101,257.3159 Q204.8101,259.4077 205.4949,260.4744 Q206.1797,261.541 207.5244,261.541 Q208.1553,261.541 208.7488,261.2712 Q209.3423,261.0015 209.9731,260.4204 Z "/><text fill="#000000" font-family="sans-serif" font-size="12" lengthAdjust="spacingAndGlyphs" textLength="80" x="221" y="262.0352">BinaryPayload</text><line style="stroke: #A80036; stroke-width: 1.5;" x1="193" x2="303" y1="273.5" y2="273.5"/><rect fill="none" height="6" style="stroke: #C82930; stroke-width: 1.0;" width="6" x="200" y="282.4775"/><text fill="#000000" font-family="sans-serif" font-size="11" lengthAdjust="spacingAndGlyphs" textLength="49" x="212" y="288.1348">m_buffer</text><rect fill="none" height="6" style="stroke: #C82930; stroke-width: 1.0;" width="6" x="200" y="295.4326"/><text fill="#000000" font-family="sans-serif" font-size="11" lengthAdjust="spacingAndGlyphs" textLength="55" x="212" y="301.0898">mimeType</text><line style="stroke: #A80036; stroke-width: 1.5;" x1="193" x2="303" y1="307.4102" y2="307.4102"/><!--class common::BufferPool--><rect fill="#FEFECE" height="48" id="common::BufferPool" style="stroke: #A80036; stroke-width: 1.5;" width="90" x="538" y="254.5"/><ellipse cx="553" cy="270.5" fill="#ADD1B2" rx="11" ry="11" style="stroke: #A80036; stroke-width: 1.0;"/><path d="M555.9731,276.1431 Q555.3921,276.4419 554.7529,276.5913 Q554.1138,276.7407 553.4082,276.7407 Q550.9014,276.7407 549.5815,275.0889 Q548.2617,273.437 548.2617,270.3159 Q548.2617,267.1865 549.5815,265.5347 Q550.9014,263.8828 553.4082,263.8828 Q554.1138,263.8828 554.7612,264.0322 Q555.4087,264.1816 555.9731,264.4805 L555.9731,267.2031 Q555.3423,266.6221 554.7488,266.3523 Q554.1553,266.0825 553.5244,266.0825 Q552.1797,266.0825 551.4949,267.1492 Q550.8101,268.2158 550.8101,270.3159 Q550.8101,272.4077 551.4949,273.4744 Q552.1797,274.541 553.5244,274.541 Q554.1553,274.541 554.7488,274.2712 Q555.3423,274.0015 555.9731,273.4204 Z "/><text fill="#000000" font-family="sans-serif" font-size="12" lengthAdjust="spacingAndGlyphs" textLength="58" x="567" y="275.0352">BufferPool</text><line style="stroke: #A80036; stroke-width: 1.5;" x1="539" x2="627" y1="286.5" y2="286.5"/><line style="stroke: #A80036; stroke-width: 1.5;" x1="539" x2="627" y1="294.5" y2="294.5"/><!--class common::Request--><rect fill="#33CC33" height="99.8203" id="common::Request" style="stroke: #A80036; stroke-width: 1.5;" width="104" x="22" y="228.5"/><rect fill="#33CC33" height="32" style="stroke: #A80036; stroke-width: 1.5;" width="104" x="22" y="228.5"/><ellipse cx="48.25" cy="244.5" fill="#ADD1B2" rx="11" ry="11" style="stroke: #A80036; stroke-width: 1.0;"/><path d="M51.2231,250.1431 Q50.6421,250.4419 50.0029,250.5913 Q49.3638,250.7407 48.6582,250.7407 Q46.1514,250.7407 44.8315,249.0889 Q43.5117,247.437 43.5117,244.3159 Q43.5117,241.1865 44.8315,239.5347 Q46.1514,237.8828 48.6582,237.8828 Q49.3638,237.8828 50.0112,238.0322 Q50.6587,238.1816 51.2231,238.4805 L51.2231,241.2031 Q50.5923,240.6221 49.9988,240.3523 Q49.4053,240.0825 48.7744,240.0825 Q47.4297,240.0825 46.7449,241.1492 Q46.0601,242.2158 46.0601,244.3159 Q46.0601,246.4077 46.7449,247.4744 Q47.4297,248.541 48.7744,248.541 Q49.4053,248.541 49.9988,248.2712 Q50.5923,248.0015 51.2231,247.4204 Z "/><text fill="#000000" font-family="sans-serif" font-size="12" lengthAdjust="spacingAndGlyphs" textLength="47" x="64.75" y="249.0352">Request</text><line style="stroke: #A80036; stroke-width: 1.5;" x1="23" x2="125" y1="260.5" y2="260.5"/><rect fill="none" height="6" style="stroke: #C82930; stroke-width: 1.0;" width="6" x="30" y="269.4775"/><text fill="#000000" font-family="sans-serif" font-size="11" lengthAdjust="spacingAndGlyphs" textLength="26" x="42" y="275.1348">m_id</text><rect fill="none" height="6" style="stroke: #C82930; stroke-width: 1.0;" width="6" x="30" y="282.4326"/><text fill="#000000" font-family="sans-serif" font-size="11" lengthAdjust="spacingAndGlyphs" textLength="78" x="42" y="288.0898">m_requestURL</text><line style="stroke: #A80036; stroke-width: 1.5;" x1="23" x2="125" y1="294.4102" y2="294.4102"/><ellipse cx="33" cy="306.3877" fill="#84BE84" rx="3" ry="3" style="stroke: #038048; stroke-width: 1.0;"/><text fill="#000000" font-family="sans-serif" font-size="11" lengthAdjust="spacingAndGlyphs" textLength="46" x="42" y="309.0449">getURL()</text><ellipse cx="33" cy="319.3428" fill="#84BE84" rx="3" ry="3" style="stroke: #038048; stroke-width: 1.0;"/><text fill="#000000" font-family="sans-serif" font-size="11" font-style="italic" lengthAdjust="spacingAndGlyphs" textLength="66" x="42" y="322">getPayload()</text><!--class common::ResponsePromise--><rect fill="#FF6600" height="164.5957" id="common::ResponsePromise" style="stroke: #A80036; stroke-width: 1.5;" width="170" x="663" y="196"/><rect fill="#FF6600" height="32" style="stroke: #A80036; stroke-width: 1.5;" width="170" x="663" y="196"/><ellipse cx="694.2" cy="212" fill="#ADD1B2" rx="11" ry="11" style="stroke: #A80036; stroke-width: 1.0;"/><path d="M697.1731,217.6431 Q696.5921,217.9419 695.9529,218.0913 Q695.3138,218.2407 694.6082,218.2407 Q692.1014,218.2407 690.7815,216.5889 Q689.4617,214.937 689.4617,211.8159 Q689.4617,208.6865 690.7815,207.0347 Q692.1014,205.3828 694.6082,205.3828 Q695.3138,205.3828 695.9612,205.5322 Q696.6087,205.6816 697.1731,205.9805 L697.1731,208.7031 Q696.5423,208.1221 695.9488,207.8523 Q695.3553,207.5825 694.7244,207.5825 Q693.3797,207.5825 692.6949,208.6492 Q692.0101,209.7158 692.0101,211.8159 Q692.0101,213.9077 692.6949,214.9744 Q693.3797,216.041 694.7244,216.041 Q695.3553,216.041 695.9488,215.7712 Q696.5423,215.5015 697.1731,214.9204 Z "/><text fill="#000000" font-family="sans-serif" font-size="12" lengthAdjust="spacingAndGlyphs" textLength="102" x="711.8" y="216.5352">ResponsePromise</text><line style="stroke: #A80036; stroke-width: 1.5;" x1="664" x2="832" y1="228" y2="228"/><rect fill="none" height="6" style="stroke: #C82930; stroke-width: 1.0;" width="6" x="671" y="236.9775"/><text fill="#000000" font-family="sans-serif" font-size="11" lengthAdjust="spacingAndGlyphs" textLength="101" x="683" y="242.6348">m_promisePayload</text><rect fill="none" height="6" style="stroke: #C82930; stroke-width: 1.0;" width="6" x="671" y="249.9326"/><text fill="#000000" font-family="sans-serif" font-size="11" lengthAdjust="spacingAndGlyphs" textLength="67" x="683" y="255.5898">m_requestId</text><rect fill="none" height="6" style="stroke: #C82930; stroke-width: 1.0;" width="6" x="671" y="262.8877"/><text fill="#000000" font-family="sans-serif" font-size="11" lengthAdjust="spacingAndGlyphs" textLength="42" x="683" y="268.5449">m_state</text><rect fill="none" height="6" style="stroke: #C82930; stroke-width: 1.0;" width="6" x="671" y="275.8428"/><text fill="#000000" font-family="sans-serif" font-size="11" lengthAdjust="spacingAndGlyphs" textLength="138" x="683" y="281.5">m_bCancelOnDestruction</text><line style="stroke: #A80036; stroke-width: 1.5;" x1="664" x2="832" y1="287.8203" y2="287.8203"/><ellipse cx="674" cy="299.7979" fill="#84BE84" rx="3" ry="3" style="stroke: #038048; stroke-width: 1.0;"/><text fill="#000000" font-family="sans-serif" font-size="11" lengthAdjust="spacingAndGlyphs" textLength="85" x="683" y="302.4551">setCancel(what)</text><ellipse cx="674" cy="312.7529" fill="#84BE84" rx="3" ry="3" style="stroke: #038048; stroke-width: 1.0;"/><text fill="#000000" font-family="sans-serif" font-size="11" lengthAdjust="spacingAndGlyphs" textLength="98" x="683" y="315.4102">setReady(payload)</text><polygon fill="#FFFF44" points="674,320.708,678,324.708,674,328.708,670,324.708" style="stroke: #B38D22; stroke-width: 1.0;"/><text fill="#000000" font-family="sans-serif" font-size="11" font-style="italic" lengthAdjust="spacingAndGlyphs" textLength="79" x="683" y="328.3652">setReadyImpl()</text><polygon fill="#FFFF44" points="674,333.6631,678,337.6631,674,341.6631,670,337.6631" style="stroke: #B38D22; stroke-width: 1.0;"/><text fill="#000000" font-family="sans-serif" font-size="11" font-style="italic" lengthAdjust="spacingAndGlyphs" textLength="92" x="683" y="341.3203">setCancleImpl(...)</text><polygon fill="#FFFF44" points="674,346.6182,678,350.6182,674,354.6182,670,350.6182" style="stroke: #B38D22; stroke-width: 1.0;"/><text fill="#000000" font-family="sans-serif" font-size="11" lengthAdjust="spacingAndGlyphs" textLength="144" x="683" y="354.2754">setResolveOnDestruction()</text><!--class common::ResponseFuture--><rect fill="#00CCFF" height="73.9102" id="common::ResponseFuture" style="stroke: #A80036; stroke-width: 1.5;" width="124" x="868" y="241.5"/><rect fill="#00CCFF" height="32" style="stroke: #A80036; stroke-width: 1.5;" width="124" x="868" y="241.5"/><ellipse cx="883" cy="257.5" fill="#ADD1B2" rx="11" ry="11" style="stroke: #A80036; stroke-width: 1.0;"/><path d="M885.9731,263.1431 Q885.3921,263.4419 884.7529,263.5913 Q884.1138,263.7407 883.4082,263.7407 Q880.9014,263.7407 879.5815,262.0889 Q878.2617,260.437 878.2617,257.3159 Q878.2617,254.1865 879.5815,252.5347 Q880.9014,250.8828 883.4082,250.8828 Q884.1138,250.8828 884.7612,251.0322 Q885.4087,251.1816 885.9731,251.4805 L885.9731,254.2031 Q885.3423,253.6221 884.7488,253.3523 Q884.1553,253.0825 883.5244,253.0825 Q882.1797,253.0825 881.4949,254.1492 Q880.8101,255.2158 880.8101,257.3159 Q880.8101,259.4077 881.4949,260.4744 Q882.1797,261.541 883.5244,261.541 Q884.1553,261.541 884.7488,261.2712 Q885.3423,261.0015 885.9731,260.4204 Z "/><text fill="#000000" font-family="sans-serif" font-size="12" lengthAdjust="spacingAndGlyphs" textLength="92" x="897" y="262.0352">ResponseFuture</text><line style="stroke: #A80036; stroke-width: 1.5;" x1="869" x2="991" y1="273.5" y2="273.5"/><rect fill="none" height="6" style="stroke: #C82930; stroke-width: 1.0;" width="6" x="876" y="282.4775"/><text fill="#000000" font-family="sans-serif" font-size="11" lengthAdjust="spacingAndGlyphs" textLength="67" x="888" y="288.1348">m_requestId</text><line style="stroke: #A80036; stroke-width: 1.5;" x1="869" x2="991" y1="294.4551" y2="294.4551"/><ellipse cx="879" cy="306.4326" fill="#84BE84" rx="3" ry="3" style="stroke: #038048; stroke-width: 1.0;"/><text fill="#000000" font-family="sans-serif" font-size="11" lengthAdjust="spacingAndGlyphs" textLength="60" x="888" y="309.0898">getFuture()</text><!--class cefapp::RequestCef--><rect fill="#33CC33" height="48" id="cefapp::RequestCef" style="stroke: #A80036; stroke-width: 1.5;" width="98" x="395" y="62.5"/><rect fill="#33CC33" height="32" style="stroke: #A80036; stroke-width: 1.5;" width="98" x="395" y="62.5"/><ellipse cx="410" cy="78.5" fill="#ADD1B2" rx="11" ry="11" style="stroke: #A80036; stroke-width: 1.0;"/><path d="M412.9731,84.1431 Q412.3921,84.4419 411.7529,84.5913 Q411.1138,84.7407 410.4082,84.7407 Q407.9014,84.7407 406.5815,83.0889 Q405.2617,81.437 405.2617,78.3159 Q405.2617,75.1865 406.5815,73.5347 Q407.9014,71.8828 410.4082,71.8828 Q411.1138,71.8828 411.7612,72.0322 Q412.4087,72.1816 412.9731,72.4805 L412.9731,75.2031 Q412.3423,74.6221 411.7488,74.3523 Q411.1553,74.0825 410.5244,74.0825 Q409.1797,74.0825 408.4949,75.1492 Q407.8101,76.2158 407.8101,78.3159 Q407.8101,80.4077 408.4949,81.4744 Q409.1797,82.541 410.5244,82.541 Q411.1553,82.541 411.7488,82.2712 Q412.3423,82.0015 412.9731,81.4204 Z "/><text fill="#000000" font-family="sans-serif" font-size="12" lengthAdjust="spacingAndGlyphs" textLength="66" x="424" y="83.0352">RequestCef</text><line style="stroke: #A80036; stroke-width: 1.5;" x1="396" x2="492" y1="94.5" y2="94.5"/><line style="stroke: #A80036; stroke-width: 1.5;" x1="396" x2="492" y1="102.5" y2="102.5"/><!--class cefapp::ResponsePromiseCef--><rect fill="#FF6600" height="86.8652" id="cefapp::ResponsePromiseCef" style="stroke: #A80036; stroke-width: 1.5;" width="177" x="528.5" y="43"/><rect fill="#FF6600" height="32" style="stroke: #A80036; stroke-width: 1.5;" width="177" x="528.5" y="43"/><ellipse cx="554.3" cy="59" fill="#ADD1B2" rx="11" ry="11" style="stroke: #A80036; stroke-width: 1.0;"/><path d="M557.2731,64.6431 Q556.6921,64.9419 556.0529,65.0913 Q555.4138,65.2407 554.7082,65.2407 Q552.2014,65.2407 550.8815,63.5889 Q549.5617,61.937 549.5617,58.8159 Q549.5617,55.6865 550.8815,54.0347 Q552.2014,52.3828 554.7082,52.3828 Q555.4138,52.3828 556.0612,52.5322 Q556.7087,52.6816 557.2731,52.9805 L557.2731,55.7031 Q556.6423,55.1221 556.0488,54.8523 Q555.4553,54.5825 554.8244,54.5825 Q553.4797,54.5825 552.7949,55.6492 Q552.1101,56.7158 552.1101,58.8159 Q552.1101,60.9077 552.7949,61.9744 Q553.4797,63.041 554.8244,63.041 Q555.4553,63.041 556.0488,62.7712 Q556.6423,62.5015 557.2731,61.9204 Z "/><text fill="#000000" font-family="sans-serif" font-size="12" lengthAdjust="spacingAndGlyphs" textLength="121" x="570.7" y="63.5352">ResponsePromiseCef</text><line style="stroke: #A80036; stroke-width: 1.5;" x1="529.5" x2="704.5" y1="75" y2="75"/><rect fill="none" height="6" style="stroke: #C82930; stroke-width: 1.0;" width="6" x="536.5" y="83.9775"/><text fill="#000000" font-family="sans-serif" font-size="11" lengthAdjust="spacingAndGlyphs" textLength="151" x="548.5" y="89.6348">m_cbResponseHeaderReady</text><line style="stroke: #A80036; stroke-width: 1.5;" x1="529.5" x2="704.5" y1="95.9551" y2="95.9551"/><polygon fill="#FFFF44" points="539.5,102.9326,543.5,106.9326,539.5,110.9326,535.5,106.9326" style="stroke: #B38D22; stroke-width: 1.0;"/><text fill="#000000" font-family="sans-serif" font-size="11" lengthAdjust="spacingAndGlyphs" textLength="79" x="548.5" y="110.5898">setReadyImpl()</text><polygon fill="#FFFF44" points="539.5,115.8877,543.5,119.8877,539.5,123.8877,535.5,119.8877" style="stroke: #B38D22; stroke-width: 1.0;"/><text fill="#000000" font-family="sans-serif" font-size="11" lengthAdjust="spacingAndGlyphs" textLength="92" x="548.5" y="123.5449">setCancleImpl(...)</text><!--class cefapp::ResponseFutureCef--><rect fill="#00CCFF" height="48" id="cefapp::ResponseFutureCef" style="stroke: #A80036; stroke-width: 1.5;" width="143" x="740.5" y="62.5"/><rect fill="#00CCFF" height="32" style="stroke: #A80036; stroke-width: 1.5;" width="143" x="740.5" y="62.5"/><ellipse cx="755.5" cy="78.5" fill="#ADD1B2" rx="11" ry="11" style="stroke: #A80036; stroke-width: 1.0;"/><path d="M758.4731,84.1431 Q757.8921,84.4419 757.2529,84.5913 Q756.6138,84.7407 755.9082,84.7407 Q753.4014,84.7407 752.0815,83.0889 Q750.7617,81.437 750.7617,78.3159 Q750.7617,75.1865 752.0815,73.5347 Q753.4014,71.8828 755.9082,71.8828 Q756.6138,71.8828 757.2612,72.0322 Q757.9087,72.1816 758.4731,72.4805 L758.4731,75.2031 Q757.8423,74.6221 757.2488,74.3523 Q756.6553,74.0825 756.0244,74.0825 Q754.6797,74.0825 753.9949,75.1492 Q753.3101,76.2158 753.3101,78.3159 Q753.3101,80.4077 753.9949,81.4744 Q754.6797,82.541 756.0244,82.541 Q756.6553,82.541 757.2488,82.2712 Q757.8423,82.0015 758.4731,81.4204 Z "/><text fill="#000000" font-family="sans-serif" font-size="12" lengthAdjust="spacingAndGlyphs" textLength="111" x="769.5" y="83.0352">ResponseFutureCef</text><line style="stroke: #A80036; stroke-width: 1.5;" x1="741.5" x2="882.5" y1="94.5" y2="94.5"/><line style="stroke: #A80036; stroke-width: 1.5;" x1="741.5" x2="882.5" y1="102.5" y2="102.5"/><!--class std::promise--><rect fill="#FEFECE" height="48" id="std::promise" style="stroke: #A80036; stroke-width: 1.5;" width="163" x="659.5" y="427"/><ellipse cx="674.5" cy="443" fill="#ADD1B2" rx="11" ry="11" style="stroke: #A80036; stroke-width: 1.0;"/><path d="M677.4731,448.6431 Q676.8921,448.9419 676.2529,449.0913 Q675.6138,449.2407 674.9082,449.2407 Q672.4014,449.2407 671.0815,447.5889 Q669.7617,445.937 669.7617,442.8159 Q669.7617,439.6865 671.0815,438.0347 Q672.4014,436.3828 674.9082,436.3828 Q675.6138,436.3828 676.2612,436.5322 Q676.9087,436.6816 677.4731,436.9805 L677.4731,439.7031 Q676.8423,439.1221 676.2488,438.8523 Q675.6553,438.5825 675.0244,438.5825 Q673.6797,438.5825 672.9949,439.6492 Q672.3101,440.7158 672.3101,442.8159 Q672.3101,444.9077 672.9949,445.9744 Q673.6797,447.041 675.0244,447.041 Q675.6553,447.041 676.2488,446.7712 Q676.8423,446.5015 677.4731,445.9204 Z "/><text fill="#000000" font-family="sans-serif" font-size="12" lengthAdjust="spacingAndGlyphs" textLength="47" x="688.5" y="447.5352">promise</text><rect fill="#FFFFFF" height="16.1328" style="stroke: #000000; stroke-width: 1.0; stroke-dasharray: 2.0,2.0;" width="82" x="743.5" y="424"/><text fill="#000000" font-family="sans-serif" font-size="12" font-style="italic" lengthAdjust="spacingAndGlyphs" textLength="80" x="744.5" y="436.6016">BinaryPayload</text><line style="stroke: #A80036; stroke-width: 1.5;" x1="660.5" x2="821.5" y1="459" y2="459"/><line style="stroke: #A80036; stroke-width: 1.5;" x1="660.5" x2="821.5" y1="467" y2="467"/><!--class std::future--><rect fill="#FEFECE" height="48" id="std::future" style="stroke: #A80036; stroke-width: 1.5;" width="150" x="858" y="427"/><ellipse cx="873" cy="443" fill="#ADD1B2" rx="11" ry="11" style="stroke: #A80036; stroke-width: 1.0;"/><path d="M875.9731,448.6431 Q875.3921,448.9419 874.7529,449.0913 Q874.1138,449.2407 873.4082,449.2407 Q870.9014,449.2407 869.5815,447.5889 Q868.2617,445.937 868.2617,442.8159 Q868.2617,439.6865 869.5815,438.0347 Q870.9014,436.3828 873.4082,436.3828 Q874.1138,436.3828 874.7612,436.5322 Q875.4087,436.6816 875.9731,436.9805 L875.9731,439.7031 Q875.3423,439.1221 874.7488,438.8523 Q874.1553,438.5825 873.5244,438.5825 Q872.1797,438.5825 871.4949,439.6492 Q870.8101,440.7158 870.8101,442.8159 Q870.8101,444.9077 871.4949,445.9744 Q872.1797,447.041 873.5244,447.041 Q874.1553,447.041 874.7488,446.7712 Q875.3423,446.5015 875.9731,445.9204 Z "/><text fill="#000000" font-family="sans-serif" font-size="12" lengthAdjust="spacingAndGlyphs" textLength="34" x="887" y="447.5352">future</text><rect fill="#FFFFFF" height="16.1328" style="stroke: #000000; stroke-width: 1.0; stroke-dasharray: 2.0,2.0;" width="82" x="929" y="424"/><text fill="#000000" font-family="sans-serif" font-size="12" font-style="italic" lengthAdjust="spacingAndGlyphs" textLength="80" x="930" y="436.6016">BinaryPayload</text><line style="stroke: #A80036; stroke-width: 1.5;" x1="859" x2="1007" y1="459" y2="459"/><line style="stroke: #A80036; stroke-width: 1.5;" x1="859" x2="1007" y1="467" y2="467"/><!--link cefapp::RequestCef to common::Request--><path d="M394.8966,93.4483 C338.1343,103.225 243.6073,125.007 174,169 C155.3507,180.7867 137.9817,196.9519 123.1255,213.2437 " fill="none" id="cefapp::RequestCef-common::Request" style="stroke: #A80036; stroke-width: 1.0;"/><polygon fill="none" points="128.346,217.9083,109.9589,228.44,117.7651,208.7406,128.346,217.9083" style="stroke: #A80036; stroke-width: 1.0;"/><!--link cefapp::ResponsePromiseCef to common::ResponsePromise--><path d="M646.7259,130.0678 C656.7943,144.8245 668.4895,161.9655 680.2807,179.2472 " fill="none" id="cefapp::ResponsePromiseCef-common::ResponsePromise" style="stroke: #A80036; stroke-width: 1.0;"/><polygon fill="none" points="686.0753,175.32,691.5651,195.7862,674.5106,183.2105,686.0753,175.32" style="stroke: #A80036; stroke-width: 1.0;"/><!--link common::ResponsePromise to std::promise--><path d="M744.1066,374.4436 C743.3142,393.9723 742.5489,412.8295 741.9763,426.9423 " fill="none" id="common::ResponsePromise-std::promise" style="stroke: #A80036; stroke-width: 1.0;"/><polygon fill="#A80036" points="744.6435,361.2133,740.4035,367.0462,744.1569,373.2034,748.3969,367.3706,744.6435,361.2133" style="stroke: #A80036; stroke-width: 1.0;"/><text fill="#000000" font-family="sans-serif" font-size="13" lengthAdjust="spacingAndGlyphs" textLength="8" x="736.0343" y="381.282">1</text><!--link cefapp::ResponseFutureCef to common::ResponseFuture--><path d="M826.9448,110.8169 C844.3584,139.151 873.6677,186.8407 896.5875,224.1339 " fill="none" id="cefapp::ResponseFutureCef-common::ResponseFuture" style="stroke: #A80036; stroke-width: 1.0;"/><polygon fill="none" points="902.5761,220.5091,907.0844,241.2136,890.6486,227.8396,902.5761,220.5091" style="stroke: #A80036; stroke-width: 1.0;"/><!--link common::ResponseFuture to std::future--><path d="M930.8742,328.7649 C931.4353,361.0318 932.1389,401.486 932.5791,426.796 " fill="none" id="common::ResponseFuture-std::future" style="stroke: #A80036; stroke-width: 1.0;"/><polygon fill="#A80036" points="930.6436,315.5056,926.7486,321.5743,930.8523,327.5038,934.7474,321.4351,930.6436,315.5056" style="stroke: #A80036; stroke-width: 1.0;"/><text fill="#000000" font-family="sans-serif" font-size="13" lengthAdjust="spacingAndGlyphs" textLength="8" x="922.0457" y="336.0372">1</text><!--link common::Request to common::BinaryPayload--><path d="M126.2057,278.5 C145.2273,278.5 166.9056,278.5 186.6487,278.5 " fill="none" id="common::Request-common::BinaryPayload" style="stroke: #A80036; stroke-width: 1.0; stroke-dasharray: 7.0,7.0;"/><polygon fill="#A80036" points="191.8919,278.5,182.8919,274.5,186.8919,278.5,182.8919,282.5,191.8919,278.5" style="stroke: #A80036; stroke-width: 1.0;"/><text fill="#000000" font-family="sans-serif" font-size="13" lengthAdjust="spacingAndGlyphs" textLength="29" x="144.5" y="272.0684">uses</text><!--link cefapp::RequestCef to common::BinaryPayload--><path d="M388.7477,117.5351 C366.5507,131.5477 341.6272,149.367 322,169 C300.5873,190.4191 281.5821,218.8624 268.1947,241.3915 " fill="none" id="cefapp::RequestCef-common::BinaryPayload" style="stroke: #A80036; stroke-width: 1.0;"/><polygon fill="#A80036" points="400.0642,110.5649,392.8578,110.3057,389.8468,116.8582,397.0533,117.1173,400.0642,110.5649" style="stroke: #A80036; stroke-width: 1.0;"/><text fill="#000000" font-family="sans-serif" font-size="13" lengthAdjust="spacingAndGlyphs" textLength="28" x="358.6665" y="130.4685">0...1</text><!--link common::BinaryPayload to common::BinaryBuffer--><path d="M317.2765,278.5 C324.6024,278.5 331.9283,278.5 339.2542,278.5 " fill="none" id="common::BinaryPayload-common::BinaryBuffer" style="stroke: #A80036; stroke-width: 1.0;"/><polygon fill="#A80036" points="304.0898,278.5,310.0898,282.5,316.0898,278.5,310.0898,274.5,304.0898,278.5" style="stroke: #A80036; stroke-width: 1.0;"/><text fill="#000000" font-family="sans-serif" font-size="13" lengthAdjust="spacingAndGlyphs" textLength="8" x="312.1644" y="275.0874">1</text><!--link common::BinaryBuffer to common::BufferPool--><path d="M515.8181,278.5 C523.1432,278.5 530.4683,278.5 537.7935,278.5 " fill="none" id="common::BinaryBuffer-common::BufferPool" style="stroke: #A80036; stroke-width: 1.0;"/><polygon fill="#A80036" points="502.6328,278.5,508.6328,282.5,514.6328,278.5,508.6328,274.5,502.6328,278.5" style="stroke: #A80036; stroke-width: 1.0;"/><text fill="#000000" font-family="sans-serif" font-size="13" lengthAdjust="spacingAndGlyphs" textLength="8" x="510.5271" y="275.3975">1</text><!--
@startuml
set namespaceSeparator ::
skinparam shadowing false

namespace common {
    class BinaryBuffer<BufferPool> {
        - m_allocator
        - m_data
        - m_nBytes
    }
    class BinaryPayload {
        - m_buffer
        - mimeType
    }

    class BufferPool
    class Request #33cc33 {
        + getURL()
        + getPayload() {abstract}
        - m_id
        - m_requestURL
    }
    class ResponsePromise #ff6600 {
        + setCancel(what)
        + setReady(payload)
        # setReadyImpl() {abstract}
        # setCancleImpl(...) {abstract}
        # setResolveOnDestruction()
        - m_promisePayload
        - m_requestId
        - m_state
        - m_bCancelOnDestruction
    }
    class ResponseFuture #00ccff {
        + getFuture()
        - m_requestId
    }
}

namespace cefapp {
    class RequestCef #33cc33
    class ResponsePromiseCef #ff6600 {
        # setReadyImpl()
        # setCancleImpl(...)
        - m_cbResponseHeaderReady
    }
    class ResponseFutureCef #00ccff
}

namespace std {
    class promise<BinaryPayload>
    class future<BinaryPayload>
}

cefapp::RequestCef - -|> common::Request
cefapp::ResponsePromiseCef - -|> common::ResponsePromise
common::ResponsePromise "1" *- - std::promise
cefapp::ResponseFutureCef - -|> common::ResponseFuture
common::ResponseFuture "1" *- - std::future

common::Request .right.> common::BinaryPayload : uses
cefapp::RequestCef "0...1" *- -  common::BinaryPayload
common::BinaryPayload "1" *-right- common::BinaryBuffer
common::BinaryBuffer "1" *-right- common::BufferPool
@enduml

PlantUML version 1.2018.01(Sun Jan 28 19:08:22 CET 2018)
(GPL source distribution)
Java Runtime: Java(TM) SE Runtime Environment
JVM: Java HotSpot(TM) 64-Bit Server VM
Java Version: 9.0.4+11
Operating System: Mac OS X
OS Version: 10.11.6
Default Encoding: UTF-8
Language: de
Country: DE
--></g></svg>