<?xml version="1.0" encoding="UTF-8" standalone="no"?><svg xmlns="http://www.w3.org/2000/svg" xmlns:xlink="http://www.w3.org/1999/xlink" contentScriptType="application/ecmascript" contentStyleType="text/css" height="495px" preserveAspectRatio="none" style="width:1054px;height:495px;" version="1.1" viewBox="0 0 1054 495" width="1054px" zoomAndPan="magnify"><defs/><g><!--cluster common--><polygon fill="#FFFFFF" points="14,169,82,169,89,191.4883,1016,191.4883,1016,369,14,369,14,169" style="stroke: #000000; stroke-width: 1.5;"/><line style="stroke: #000000; stroke-width: 1.5;" x1="14" x2="89" y1="191.4883" y2="191.4883"/><text fill="#000000" font-family="sans-serif" font-size="14" font-weight="bold" lengthAdjust="spacingAndGlyphs" textLength="62" x="18" y="184.5352">common</text><!--cluster cefapp--><polygon fill="#FFFFFF" points="403,16,456,16,463,38.4883,908,38.4883,908,138,403,138,403,16" style="stroke: #000000; stroke-width: 1.5;"/><line style="stroke: #000000; stroke-width: 1.5;" x1="403" x2="463" y1="38.4883" y2="38.4883"/><text fill="#000000" font-family="sans-serif" font-size="14" font-weight="bold" lengthAdjust="spacingAndGlyphs" textLength="47" x="407" y="31.5352">cefapp</text><!--cluster std--><polygon fill="#FFFFFF" points="667,400,696,400,703,422.4883,1032,422.4883,1032,483,667,483,667,400" style="stroke: #000000; stroke-width: 1.5;"/><line style="stroke: #000000; stroke-width: 1.5;" x1="667" x2="703" y1="422.4883" y2="422.4883"/><text fill="#000000" font-family="sans-serif" font-size="14" font-weight="bold" lengthAdjust="spacingAndGlyphs" textLength="23" x="671" y="415.5352">std</text><!--class common::BinaryBuffer--><rect fill="#FEFECE" height="86.8652" id="common::BinaryBuffer" style="stroke: #A80036; stroke-width: 1.5;" width="163" x="355.5" y="235"/><ellipse cx="370.5" cy="251" fill="#ADD1B2" rx="11" ry="11" style="stroke: #A80036; stroke-width: 1.0;"/><path d="M373.4731,256.6431 Q372.8921,256.9419 372.2529,257.0913 Q371.6138,257.2407 370.9082,257.2407 Q368.4014,257.2407 367.0815,255.5889 Q365.7617,253.937 365.7617,250.8159 Q365.7617,247.6865 367.0815,246.0347 Q368.4014,244.3828 370.9082,244.3828 Q371.6138,244.3828 372.2612,244.5322 Q372.9087,244.6816 373.4731,244.9805 L373.4731,247.7031 Q372.8423,247.1221 372.2488,246.8523 Q371.6553,246.5825 371.0244,246.5825 Q369.6797,246.5825 368.9949,247.6492 Q368.3101,248.7158 368.3101,250.8159 Q368.3101,252.9077 368.9949,253.9744 Q369.6797,255.041 371.0244,255.041 Q371.6553,255.041 372.2488,254.7712 Q372.8423,254.5015 373.4731,253.9204 Z "/><text fill="#000000" font-family="sans-serif" font-size="12" lengthAdjust="spacingAndGlyphs" textLength="69" x="384.5" y="255.5352">BinaryBuffer</text><rect fill="#FFFFFF" height="16.1328" style="stroke: #000000; stroke-width: 1.0; stroke-dasharray: 2.0,2.0;" width="60" x="461.5" y="232"/><text fill="#000000" font-family="sans-serif" font-size="12" font-style="italic" lengthAdjust="spacingAndGlyphs" textLength="58" x="462.5" y="244.6016">BufferPool</text><line style="stroke: #A80036; stroke-width: 1.5;" x1="356.5" x2="517.5" y1="267" y2="267"/><rect fill="none" height="6" style="stroke: #C82930; stroke-width: 1.0;" width="6" x="363.5" y="275.9775"/><text fill="#000000" font-family="sans-serif" font-size="11" lengthAdjust="spacingAndGlyphs" textLength="63" x="375.5" y="281.6348">m_allocator</text><rect fill="none" height="6" style="stroke: #C82930; stroke-width: 1.0;" width="6" x="363.5" y="288.9326"/><text fill="#000000" font-family="sans-serif" font-size="11" lengthAdjust="spacingAndGlyphs" textLength="39" x="375.5" y="294.5898">m_data</text><rect fill="none" height="6" style="stroke: #C82930; stroke-width: 1.0;" width="6" x="363.5" y="301.8877"/><text fill="#000000" font-family="sans-serif" font-size="11" lengthAdjust="spacingAndGlyphs" textLength="51" x="375.5" y="307.5449">m_nBytes</text><line style="stroke: #A80036; stroke-width: 1.5;" x1="356.5" x2="517.5" y1="313.8652" y2="313.8652"/><!--class common::BinaryPayload--><rect fill="#FEFECE" height="73.9102" id="common::BinaryPayload" style="stroke: #A80036; stroke-width: 1.5;" width="112" x="208" y="241.5"/><ellipse cx="223" cy="257.5" fill="#ADD1B2" rx="11" ry="11" style="stroke: #A80036; stroke-width: 1.0;"/><path d="M225.9731,263.1431 Q225.3921,263.4419 224.7529,263.5913 Q224.1138,263.7407 223.4082,263.7407 Q220.9014,263.7407 219.5815,262.0889 Q218.2617,260.437 218.2617,257.3159 Q218.2617,254.1865 219.5815,252.5347 Q220.9014,250.8828 223.4082,250.8828 Q224.1138,250.8828 224.7612,251.0322 Q225.4087,251.1816 225.9731,251.4805 L225.9731,254.2031 Q225.3423,253.6221 224.7488,253.3523 Q224.1553,253.0825 223.5244,253.0825 Q222.1797,253.0825 221.4949,254.1492 Q220.8101,255.2158 220.8101,257.3159 Q220.8101,259.4077 221.4949,260.4744 Q222.1797,261.541 223.5244,261.541 Q224.1553,261.541 224.7488,261.2712 Q225.3423,261.0015 225.9731,260.4204 Z "/><text fill="#000000" font-family="sans-serif" font-size="12" lengthAdjust="spacingAndGlyphs" textLength="80" x="237" y="262.0352">BinaryPayload</text><line style="stroke: #A80036; stroke-width: 1.5;" x1="209" x2="319" y1="273.5" y2="273.5"/><rect fill="none" height="6" style="stroke: #C82930; stroke-width: 1.0;" width="6" x="216" y="282.4775"/><text fill="#000000" font-family="sans-serif" font-size="11" lengthAdjust="spacingAndGlyphs" textLength="49" x="228" y="288.1348">m_buffer</text><rect fill="none" height="6" style="stroke: #C82930; stroke-width: 1.0;" width="6" x="216" y="295.4326"/><text fill="#000000" font-family="sans-serif" font-size="11" lengthAdjust="spacingAndGlyphs" textLength="55" x="228" y="301.0898">mimeType</text><line style="stroke: #A80036; stroke-width: 1.5;" x1="209" x2="319" y1="307.4102" y2="307.4102"/><!--class common::BufferPool--><rect fill="#FEFECE" height="48" id="common::BufferPool" style="stroke: #A80036; stroke-width: 1.5;" width="90" x="554" y="254.5"/><ellipse cx="569" cy="270.5" fill="#ADD1B2" rx="11" ry="11" style="stroke: #A80036; stroke-width: 1.0;"/><path d="M571.9731,276.1431 Q571.3921,276.4419 570.7529,276.5913 Q570.1138,276.7407 569.4082,276.7407 Q566.9014,276.7407 565.5815,275.0889 Q564.2617,273.437 564.2617,270.3159 Q564.2617,267.1865 565.5815,265.5347 Q566.9014,263.8828 569.4082,263.8828 Q570.1138,263.8828 570.7612,264.0322 Q571.4087,264.1816 571.9731,264.4805 L571.9731,267.2031 Q571.3423,266.6221 570.7488,266.3523 Q570.1553,266.0825 569.5244,266.0825 Q568.1797,266.0825 567.4949,267.1492 Q566.8101,268.2158 566.8101,270.3159 Q566.8101,272.4077 567.4949,273.4744 Q568.1797,274.541 569.5244,274.541 Q570.1553,274.541 570.7488,274.2712 Q571.3423,274.0015 571.9731,273.4204 Z "/><text fill="#000000" font-family="sans-serif" font-size="12" lengthAdjust="spacingAndGlyphs" textLength="58" x="583" y="275.0352">BufferPool</text><line style="stroke: #A80036; stroke-width: 1.5;" x1="555" x2="643" y1="286.5" y2="286.5"/><line style="stroke: #A80036; stroke-width: 1.5;" x1="555" x2="643" y1="294.5" y2="294.5"/><!--class common::Request--><rect fill="#33CC33" height="99.8203" id="common::Request" style="stroke: #A80036; stroke-width: 1.5;" width="120" x="22" y="228.5"/><rect fill="#33CC33" height="32" style="stroke: #A80036; stroke-width: 1.5;" width="120" x="22" y="228.5"/><ellipse cx="55.45" cy="244.5" fill="#ADD1B2" rx="11" ry="11" style="stroke: #A80036; stroke-width: 1.0;"/><path d="M58.4231,250.1431 Q57.8421,250.4419 57.2029,250.5913 Q56.5638,250.7407 55.8582,250.7407 Q53.3514,250.7407 52.0315,249.0889 Q50.7117,247.437 50.7117,244.3159 Q50.7117,241.1865 52.0315,239.5347 Q53.3514,237.8828 55.8582,237.8828 Q56.5638,237.8828 57.2112,238.0322 Q57.8587,238.1816 58.4231,238.4805 L58.4231,241.2031 Q57.7923,240.6221 57.1988,240.3523 Q56.6053,240.0825 55.9744,240.0825 Q54.6297,240.0825 53.9449,241.1492 Q53.2601,242.2158 53.2601,244.3159 Q53.2601,246.4077 53.9449,247.4744 Q54.6297,248.541 55.9744,248.541 Q56.6053,248.541 57.1988,248.2712 Q57.7923,248.0015 58.4231,247.4204 Z "/><text fill="#000000" font-family="sans-serif" font-size="12" lengthAdjust="spacingAndGlyphs" textLength="47" x="73.55" y="249.0352">Request</text><line style="stroke: #A80036; stroke-width: 1.5;" x1="23" x2="141" y1="260.5" y2="260.5"/><rect fill="none" height="6" style="stroke: #C82930; stroke-width: 1.0;" width="6" x="30" y="269.4775"/><text fill="#000000" font-family="sans-serif" font-size="11" lengthAdjust="spacingAndGlyphs" textLength="26" x="42" y="275.1348">m_id</text><rect fill="none" height="6" style="stroke: #C82930; stroke-width: 1.0;" width="6" x="30" y="282.4326"/><text fill="#000000" font-family="sans-serif" font-size="11" lengthAdjust="spacingAndGlyphs" textLength="83" x="42" y="288.0898">m_requestType</text><line style="stroke: #A80036; stroke-width: 1.5;" x1="23" x2="141" y1="294.4102" y2="294.4102"/><ellipse cx="33" cy="306.3877" fill="#84BE84" rx="3" ry="3" style="stroke: #038048; stroke-width: 1.0;"/><text fill="#000000" font-family="sans-serif" font-size="11" lengthAdjust="spacingAndGlyphs" textLength="94" x="42" y="309.0449">getRequestType()</text><ellipse cx="33" cy="319.3428" fill="#84BE84" rx="3" ry="3" style="stroke: #038048; stroke-width: 1.0;"/><text fill="#000000" font-family="sans-serif" font-size="11" font-style="italic" lengthAdjust="spacingAndGlyphs" textLength="66" x="42" y="322">getPayload()</text><!--class common::ResponsePromise--><rect fill="#FF6600" height="164.5957" id="common::ResponsePromise" style="stroke: #A80036; stroke-width: 1.5;" width="170" x="679" y="196"/><rect fill="#FF6600" height="32" style="stroke: #A80036; stroke-width: 1.5;" width="170" x="679" y="196"/><ellipse cx="710.2" cy="212" fill="#ADD1B2" rx="11" ry="11" style="stroke: #A80036; stroke-width: 1.0;"/><path d="M713.1731,217.6431 Q712.5921,217.9419 711.9529,218.0913 Q711.3138,218.2407 710.6082,218.2407 Q708.1014,218.2407 706.7815,216.5889 Q705.4617,214.937 705.4617,211.8159 Q705.4617,208.6865 706.7815,207.0347 Q708.1014,205.3828 710.6082,205.3828 Q711.3138,205.3828 711.9612,205.5322 Q712.6087,205.6816 713.1731,205.9805 L713.1731,208.7031 Q712.5423,208.1221 711.9488,207.8523 Q711.3553,207.5825 710.7244,207.5825 Q709.3797,207.5825 708.6949,208.6492 Q708.0101,209.7158 708.0101,211.8159 Q708.0101,213.9077 708.6949,214.9744 Q709.3797,216.041 710.7244,216.041 Q711.3553,216.041 711.9488,215.7712 Q712.5423,215.5015 713.1731,214.9204 Z "/><text fill="#000000" font-family="sans-serif" font-size="12" lengthAdjust="spacingAndGlyphs" textLength="102" x="727.8" y="216.5352">ResponsePromise</text><line style="stroke: #A80036; stroke-width: 1.5;" x1="680" x2="848" y1="228" y2="228"/><rect fill="none" height="6" style="stroke: #C82930; stroke-width: 1.0;" width="6" x="687" y="236.9775"/><text fill="#000000" font-family="sans-serif" font-size="11" lengthAdjust="spacingAndGlyphs" textLength="101" x="699" y="242.6348">m_promisePayload</text><rect fill="none" height="6" style="stroke: #C82930; stroke-width: 1.0;" width="6" x="687" y="249.9326"/><text fill="#000000" font-family="sans-serif" font-size="11" lengthAdjust="spacingAndGlyphs" textLength="67" x="699" y="255.5898">m_requestId</text><rect fill="none" height="6" style="stroke: #C82930; stroke-width: 1.0;" width="6" x="687" y="262.8877"/><text fill="#000000" font-family="sans-serif" font-size="11" lengthAdjust="spacingAndGlyphs" textLength="42" x="699" y="268.5449">m_state</text><rect fill="none" height="6" style="stroke: #C82930; stroke-width: 1.0;" width="6" x="687" y="275.8428"/><text fill="#000000" font-family="sans-serif" font-size="11" lengthAdjust="spacingAndGlyphs" textLength="138" x="699" y="281.5">m_bCancelOnDestruction</text><line style="stroke: #A80036; stroke-width: 1.5;" x1="680" x2="848" y1="287.8203" y2="287.8203"/><ellipse cx="690" cy="299.7979" fill="#84BE84" rx="3" ry="3" style="stroke: #038048; stroke-width: 1.0;"/><text fill="#000000" font-family="sans-serif" font-size="11" lengthAdjust="spacingAndGlyphs" textLength="85" x="699" y="302.4551">setCancel(what)</text><ellipse cx="690" cy="312.7529" fill="#84BE84" rx="3" ry="3" style="stroke: #038048; stroke-width: 1.0;"/><text fill="#000000" font-family="sans-serif" font-size="11" lengthAdjust="spacingAndGlyphs" textLength="98" x="699" y="315.4102">setReady(payload)</text><polygon fill="#FFFF44" points="690,320.708,694,324.708,690,328.708,686,324.708" style="stroke: #B38D22; stroke-width: 1.0;"/><text fill="#000000" font-family="sans-serif" font-size="11" font-style="italic" lengthAdjust="spacingAndGlyphs" textLength="79" x="699" y="328.3652">setReadyImpl()</text><polygon fill="#FFFF44" points="690,333.6631,694,337.6631,690,341.6631,686,337.6631" style="stroke: #B38D22; stroke-width: 1.0;"/><text fill="#000000" font-family="sans-serif" font-size="11" font-style="italic" lengthAdjust="spacingAndGlyphs" textLength="92" x="699" y="341.3203">setCancleImpl(...)</text><polygon fill="#FFFF44" points="690,346.6182,694,350.6182,690,354.6182,686,350.6182" style="stroke: #B38D22; stroke-width: 1.0;"/><text fill="#000000" font-family="sans-serif" font-size="11" lengthAdjust="spacingAndGlyphs" textLength="144" x="699" y="354.2754">setResolveOnDestruction()</text><!--class common::ResponseFuture--><rect fill="#00CCFF" height="73.9102" id="common::ResponseFuture" style="stroke: #A80036; stroke-width: 1.5;" width="124" x="884" y="241.5"/><rect fill="#00CCFF" height="32" style="stroke: #A80036; stroke-width: 1.5;" width="124" x="884" y="241.5"/><ellipse cx="899" cy="257.5" fill="#ADD1B2" rx="11" ry="11" style="stroke: #A80036; stroke-width: 1.0;"/><path d="M901.9731,263.1431 Q901.3921,263.4419 900.7529,263.5913 Q900.1138,263.7407 899.4082,263.7407 Q896.9014,263.7407 895.5815,262.0889 Q894.2617,260.437 894.2617,257.3159 Q894.2617,254.1865 895.5815,252.5347 Q896.9014,250.8828 899.4082,250.8828 Q900.1138,250.8828 900.7612,251.0322 Q901.4087,251.1816 901.9731,251.4805 L901.9731,254.2031 Q901.3423,253.6221 900.7488,253.3523 Q900.1553,253.0825 899.5244,253.0825 Q898.1797,253.0825 897.4949,254.1492 Q896.8101,255.2158 896.8101,257.3159 Q896.8101,259.4077 897.4949,260.4744 Q898.1797,261.541 899.5244,261.541 Q900.1553,261.541 900.7488,261.2712 Q901.3423,261.0015 901.9731,260.4204 Z "/><text fill="#000000" font-family="sans-serif" font-size="12" lengthAdjust="spacingAndGlyphs" textLength="92" x="913" y="262.0352">ResponseFuture</text><line style="stroke: #A80036; stroke-width: 1.5;" x1="885" x2="1007" y1="273.5" y2="273.5"/><rect fill="none" height="6" style="stroke: #C82930; stroke-width: 1.0;" width="6" x="892" y="282.4775"/><text fill="#000000" font-family="sans-serif" font-size="11" lengthAdjust="spacingAndGlyphs" textLength="67" x="904" y="288.1348">m_requestId</text><line style="stroke: #A80036; stroke-width: 1.5;" x1="885" x2="1007" y1="294.4551" y2="294.4551"/><ellipse cx="895" cy="306.4326" fill="#84BE84" rx="3" ry="3" style="stroke: #038048; stroke-width: 1.0;"/><text fill="#000000" font-family="sans-serif" font-size="11" lengthAdjust="spacingAndGlyphs" textLength="60" x="904" y="309.0898">getFuture()</text><!--class cefapp::RequestCef--><rect fill="#33CC33" height="48" id="cefapp::RequestCef" style="stroke: #A80036; stroke-width: 1.5;" width="98" x="411" y="62.5"/><rect fill="#33CC33" height="32" style="stroke: #A80036; stroke-width: 1.5;" width="98" x="411" y="62.5"/><ellipse cx="426" cy="78.5" fill="#ADD1B2" rx="11" ry="11" style="stroke: #A80036; stroke-width: 1.0;"/><path d="M428.9731,84.1431 Q428.3921,84.4419 427.7529,84.5913 Q427.1138,84.7407 426.4082,84.7407 Q423.9014,84.7407 422.5815,83.0889 Q421.2617,81.437 421.2617,78.3159 Q421.2617,75.1865 422.5815,73.5347 Q423.9014,71.8828 426.4082,71.8828 Q427.1138,71.8828 427.7612,72.0322 Q428.4087,72.1816 428.9731,72.4805 L428.9731,75.2031 Q428.3423,74.6221 427.7488,74.3523 Q427.1553,74.0825 426.5244,74.0825 Q425.1797,74.0825 424.4949,75.1492 Q423.8101,76.2158 423.8101,78.3159 Q423.8101,80.4077 424.4949,81.4744 Q425.1797,82.541 426.5244,82.541 Q427.1553,82.541 427.7488,82.2712 Q428.3423,82.0015 428.9731,81.4204 Z "/><text fill="#000000" font-family="sans-serif" font-size="12" lengthAdjust="spacingAndGlyphs" textLength="66" x="440" y="83.0352">RequestCef</text><line style="stroke: #A80036; stroke-width: 1.5;" x1="412" x2="508" y1="94.5" y2="94.5"/><line style="stroke: #A80036; stroke-width: 1.5;" x1="412" x2="508" y1="102.5" y2="102.5"/><!--class cefapp::ResponsePromiseCef--><rect fill="#FF6600" height="86.8652" id="cefapp::ResponsePromiseCef" style="stroke: #A80036; stroke-width: 1.5;" width="177" x="544.5" y="43"/><rect fill="#FF6600" height="32" style="stroke: #A80036; stroke-width: 1.5;" width="177" x="544.5" y="43"/><ellipse cx="570.3" cy="59" fill="#ADD1B2" rx="11" ry="11" style="stroke: #A80036; stroke-width: 1.0;"/><path d="M573.2731,64.6431 Q572.6921,64.9419 572.0529,65.0913 Q571.4138,65.2407 570.7082,65.2407 Q568.2014,65.2407 566.8815,63.5889 Q565.5617,61.937 565.5617,58.8159 Q565.5617,55.6865 566.8815,54.0347 Q568.2014,52.3828 570.7082,52.3828 Q571.4138,52.3828 572.0612,52.5322 Q572.7087,52.6816 573.2731,52.9805 L573.2731,55.7031 Q572.6423,55.1221 572.0488,54.8523 Q571.4553,54.5825 570.8244,54.5825 Q569.4797,54.5825 568.7949,55.6492 Q568.1101,56.7158 568.1101,58.8159 Q568.1101,60.9077 568.7949,61.9744 Q569.4797,63.041 570.8244,63.041 Q571.4553,63.041 572.0488,62.7712 Q572.6423,62.5015 573.2731,61.9204 Z "/><text fill="#000000" font-family="sans-serif" font-size="12" lengthAdjust="spacingAndGlyphs" textLength="121" x="586.7" y="63.5352">ResponsePromiseCef</text><line style="stroke: #A80036; stroke-width: 1.5;" x1="545.5" x2="720.5" y1="75" y2="75"/><rect fill="none" height="6" style="stroke: #C82930; stroke-width: 1.0;" width="6" x="552.5" y="83.9775"/><text fill="#000000" font-family="sans-serif" font-size="11" lengthAdjust="spacingAndGlyphs" textLength="151" x="564.5" y="89.6348">m_cbResponseHeaderReady</text><line style="stroke: #A80036; stroke-width: 1.5;" x1="545.5" x2="720.5" y1="95.9551" y2="95.9551"/><polygon fill="#FFFF44" points="555.5,102.9326,559.5,106.9326,555.5,110.9326,551.5,106.9326" style="stroke: #B38D22; stroke-width: 1.0;"/><text fill="#000000" font-family="sans-serif" font-size="11" lengthAdjust="spacingAndGlyphs" textLength="79" x="564.5" y="110.5898">setReadyImpl()</text><polygon fill="#FFFF44" points="555.5,115.8877,559.5,119.8877,555.5,123.8877,551.5,119.8877" style="stroke: #B38D22; stroke-width: 1.0;"/><text fill="#000000" font-family="sans-serif" font-size="11" lengthAdjust="spacingAndGlyphs" textLength="92" x="564.5" y="123.5449">setCancleImpl(...)</text><!--class cefapp::ResponseFutureCef--><rect fill="#00CCFF" height="48" id="cefapp::ResponseFutureCef" style="stroke: #A80036; stroke-width: 1.5;" width="143" x="756.5" y="62.5"/><rect fill="#00CCFF" height="32" style="stroke: #A80036; stroke-width: 1.5;" width="143" x="756.5" y="62.5"/><ellipse cx="771.5" cy="78.5" fill="#ADD1B2" rx="11" ry="11" style="stroke: #A80036; stroke-width: 1.0;"/><path d="M774.4731,84.1431 Q773.8921,84.4419 773.2529,84.5913 Q772.6138,84.7407 771.9082,84.7407 Q769.4014,84.7407 768.0815,83.0889 Q766.7617,81.437 766.7617,78.3159 Q766.7617,75.1865 768.0815,73.5347 Q769.4014,71.8828 771.9082,71.8828 Q772.6138,71.8828 773.2612,72.0322 Q773.9087,72.1816 774.4731,72.4805 L774.4731,75.2031 Q773.8423,74.6221 773.2488,74.3523 Q772.6553,74.0825 772.0244,74.0825 Q770.6797,74.0825 769.9949,75.1492 Q769.3101,76.2158 769.3101,78.3159 Q769.3101,80.4077 769.9949,81.4744 Q770.6797,82.541 772.0244,82.541 Q772.6553,82.541 773.2488,82.2712 Q773.8423,82.0015 774.4731,81.4204 Z "/><text fill="#000000" font-family="sans-serif" font-size="12" lengthAdjust="spacingAndGlyphs" textLength="111" x="785.5" y="83.0352">ResponseFutureCef</text><line style="stroke: #A80036; stroke-width: 1.5;" x1="757.5" x2="898.5" y1="94.5" y2="94.5"/><line style="stroke: #A80036; stroke-width: 1.5;" x1="757.5" x2="898.5" y1="102.5" y2="102.5"/><!--class std::promise--><rect fill="#FEFECE" height="48" id="std::promise" style="stroke: #A80036; stroke-width: 1.5;" width="163" x="675.5" y="427"/><ellipse cx="690.5" cy="443" fill="#ADD1B2" rx="11" ry="11" style="stroke: #A80036; stroke-width: 1.0;"/><path d="M693.4731,448.6431 Q692.8921,448.9419 692.2529,449.0913 Q691.6138,449.2407 690.9082,449.2407 Q688.4014,449.2407 687.0815,447.5889 Q685.7617,445.937 685.7617,442.8159 Q685.7617,439.6865 687.0815,438.0347 Q688.4014,436.3828 690.9082,436.3828 Q691.6138,436.3828 692.2612,436.5322 Q692.9087,436.6816 693.4731,436.9805 L693.4731,439.7031 Q692.8423,439.1221 692.2488,438.8523 Q691.6553,438.5825 691.0244,438.5825 Q689.6797,438.5825 688.9949,439.6492 Q688.3101,440.7158 688.3101,442.8159 Q688.3101,444.9077 688.9949,445.9744 Q689.6797,447.041 691.0244,447.041 Q691.6553,447.041 692.2488,446.7712 Q692.8423,446.5015 693.4731,445.9204 Z "/><text fill="#000000" font-family="sans-serif" font-size="12" lengthAdjust="spacingAndGlyphs" textLength="47" x="704.5" y="447.5352">promise</text><rect fill="#FFFFFF" height="16.1328" style="stroke: #000000; stroke-width: 1.0; stroke-dasharray: 2.0,2.0;" width="82" x="759.5" y="424"/><text fill="#000000" font-family="sans-serif" font-size="12" font-style="italic" lengthAdjust="spacingAndGlyphs" textLength="80" x="760.5" y="436.6016">BinaryPayload</text><line style="stroke: #A80036; stroke-width: 1.5;" x1="676.5" x2="837.5" y1="459" y2="459"/><line style="stroke: #A80036; stroke-width: 1.5;" x1="676.5" x2="837.5" y1="467" y2="467"/><!--class std::future--><rect fill="#FEFECE" height="48" id="std::future" style="stroke: #A80036; stroke-width: 1.5;" width="150" x="874" y="427"/><ellipse cx="889" cy="443" fill="#ADD1B2" rx="11" ry="11" style="stroke: #A80036; stroke-width: 1.0;"/><path d="M891.9731,448.6431 Q891.3921,448.9419 890.7529,449.0913 Q890.1138,449.2407 889.4082,449.2407 Q886.9014,449.2407 885.5815,447.5889 Q884.2617,445.937 884.2617,442.8159 Q884.2617,439.6865 885.5815,438.0347 Q886.9014,436.3828 889.4082,436.3828 Q890.1138,436.3828 890.7612,436.5322 Q891.4087,436.6816 891.9731,436.9805 L891.9731,439.7031 Q891.3423,439.1221 890.7488,438.8523 Q890.1553,438.5825 889.5244,438.5825 Q888.1797,438.5825 887.4949,439.6492 Q886.8101,440.7158 886.8101,442.8159 Q886.8101,444.9077 887.4949,445.9744 Q888.1797,447.041 889.5244,447.041 Q890.1553,447.041 890.7488,446.7712 Q891.3423,446.5015 891.9731,445.9204 Z "/><text fill="#000000" font-family="sans-serif" font-size="12" lengthAdjust="spacingAndGlyphs" textLength="34" x="903" y="447.5352">future</text><rect fill="#FFFFFF" height="16.1328" style="stroke: #000000; stroke-width: 1.0; stroke-dasharray: 2.0,2.0;" width="82" x="945" y="424"/><text fill="#000000" font-family="sans-serif" font-size="12" font-style="italic" lengthAdjust="spacingAndGlyphs" textLength="80" x="946" y="436.6016">BinaryPayload</text><line style="stroke: #A80036; stroke-width: 1.5;" x1="875" x2="1023" y1="459" y2="459"/><line style="stroke: #A80036; stroke-width: 1.5;" x1="875" x2="1023" y1="467" y2="467"/><!--link cefapp::RequestCef to common::Request--><path d="M410.9392,93.9709 C354.426,104.2159 260.3347,126.4156 190,169 C170.4138,180.8585 151.8314,197.0585 135.7778,213.3611 " fill="none" id="cefapp::RequestCef-common::Request" style="stroke: #A80036; stroke-width: 1.0;"/><polygon fill="none" points="140.5888,218.4633,121.7894,228.24,130.3888,208.8737,140.5888,218.4633" style="stroke: #A80036; stroke-width: 1.0;"/><!--link cefapp::ResponsePromiseCef to common::ResponsePromise--><path d="M662.7259,130.0678 C672.7943,144.8245 684.4895,161.9655 696.2807,179.2472 " fill="none" id="cefapp::ResponsePromiseCef-common::ResponsePromise" style="stroke: #A80036; stroke-width: 1.0;"/><polygon fill="none" points="702.0753,175.32,707.5651,195.7862,690.5106,183.2105,702.0753,175.32" style="stroke: #A80036; stroke-width: 1.0;"/><!--link common::ResponsePromise to std::promise--><path d="M760.1066,374.4436 C759.3142,393.9723 758.5489,412.8295 757.9763,426.9423 " fill="none" id="common::ResponsePromise-std::promise" style="stroke: #A80036; stroke-width: 1.0;"/><polygon fill="#A80036" points="760.6435,361.2133,756.4035,367.0462,760.1569,373.2034,764.3969,367.3706,760.6435,361.2133" style="stroke: #A80036; stroke-width: 1.0;"/><text fill="#000000" font-family="sans-serif" font-size="13" lengthAdjust="spacingAndGlyphs" textLength="8" x="752.0343" y="381.282">1</text><!--link cefapp::ResponseFutureCef to common::ResponseFuture--><path d="M842.9448,110.8169 C860.3584,139.151 889.6677,186.8407 912.5875,224.1339 " fill="none" id="cefapp::ResponseFutureCef-common::ResponseFuture" style="stroke: #A80036; stroke-width: 1.0;"/><polygon fill="none" points="918.5761,220.5091,923.0844,241.2136,906.6486,227.8396,918.5761,220.5091" style="stroke: #A80036; stroke-width: 1.0;"/><!--link common::ResponseFuture to std::future--><path d="M946.8742,328.7649 C947.4353,361.0318 948.1389,401.486 948.5791,426.796 " fill="none" id="common::ResponseFuture-std::future" style="stroke: #A80036; stroke-width: 1.0;"/><polygon fill="#A80036" points="946.6436,315.5056,942.7486,321.5743,946.8523,327.5038,950.7474,321.4351,946.6436,315.5056" style="stroke: #A80036; stroke-width: 1.0;"/><text fill="#000000" font-family="sans-serif" font-size="13" lengthAdjust="spacingAndGlyphs" textLength="8" x="938.0457" y="336.0372">1</text><!--link common::Request to common::BinaryPayload--><path d="M142.098,278.5 C161.4997,278.5 183.0279,278.5 202.5274,278.5 " fill="none" id="common::Request-common::BinaryPayload" style="stroke: #A80036; stroke-width: 1.0; stroke-dasharray: 7.0,7.0;"/><polygon fill="#A80036" points="207.97,278.5,198.97,274.5,202.97,278.5,198.97,282.5,207.97,278.5" style="stroke: #A80036; stroke-width: 1.0;"/><text fill="#000000" font-family="sans-serif" font-size="13" lengthAdjust="spacingAndGlyphs" textLength="29" x="160.5" y="272.0684">uses</text><!--link cefapp::RequestCef to common::BinaryPayload--><path d="M404.7477,117.5351 C382.5507,131.5477 357.6272,149.367 338,169 C316.5873,190.4191 297.5821,218.8624 284.1947,241.3915 " fill="none" id="cefapp::RequestCef-common::BinaryPayload" style="stroke: #A80036; stroke-width: 1.0;"/><polygon fill="#A80036" points="416.0642,110.5649,408.8578,110.3057,405.8468,116.8582,413.0533,117.1173,416.0642,110.5649" style="stroke: #A80036; stroke-width: 1.0;"/><text fill="#000000" font-family="sans-serif" font-size="13" lengthAdjust="spacingAndGlyphs" textLength="28" x="374.6665" y="130.4685">0...1</text><!--link common::BinaryPayload to common::BinaryBuffer--><path d="M333.2765,278.5 C340.6024,278.5 347.9283,278.5 355.2542,278.5 " fill="none" id="common::BinaryPayload-common::BinaryBuffer" style="stroke: #A80036; stroke-width: 1.0;"/><polygon fill="#A80036" points="320.0898,278.5,326.0898,282.5,332.0898,278.5,326.0898,274.5,320.0898,278.5" style="stroke: #A80036; stroke-width: 1.0;"/><text fill="#000000" font-family="sans-serif" font-size="13" lengthAdjust="spacingAndGlyphs" textLength="8" x="328.1644" y="275.0874">1</text><!--link common::BinaryBuffer to common::BufferPool--><path d="M531.8181,278.5 C539.1432,278.5 546.4683,278.5 553.7935,278.5 " fill="none" id="common::BinaryBuffer-common::BufferPool" style="stroke: #A80036; stroke-width: 1.0;"/><polygon fill="#A80036" points="518.6328,278.5,524.6328,282.5,530.6328,278.5,524.6328,274.5,518.6328,278.5" style="stroke: #A80036; stroke-width: 1.0;"/><text fill="#000000" font-family="sans-serif" font-size="13" lengthAdjust="spacingAndGlyphs" textLength="8" x="526.5271" y="275.3975">1</text><!--
@startuml
set namespaceSeparator ::
skinparam shadowing false

namespace common {
    class BinaryBuffer<BufferPool> {
        - m_allocator
        - m_data
        - m_nBytes
    }
    class BinaryPayload {
        - m_buffer
        - mimeType
    }

    class BufferPool
    class Request #33cc33 {
        + getRequestType()
        + getPayload() {abstract}
        - m_id
        - m_requestType
    }
    class ResponsePromise #ff6600 {
        + setCancel(what)
        + setReady(payload)
        # setReadyImpl() {abstract}
        # setCancleImpl(...) {abstract}
        # setResolveOnDestruction()
        - m_promisePayload
        - m_requestId
        - m_state
        - m_bCancelOnDestruction
    }
    class ResponseFuture #00ccff {
        + getFuture()
        - m_requestId
    }
}

namespace cefapp {
    class RequestCef #33cc33
    class ResponsePromiseCef #ff6600 {
        # setReadyImpl()
        # setCancleImpl(...)
        - m_cbResponseHeaderReady
    }
    class ResponseFutureCef #00ccff
}

namespace std {
    class promise<BinaryPayload>
    class future<BinaryPayload>
}

cefapp::RequestCef - -|> common::Request
cefapp::ResponsePromiseCef - -|> common::ResponsePromise
common::ResponsePromise "1" *- - std::promise
cefapp::ResponseFutureCef - -|> common::ResponseFuture
common::ResponseFuture "1" *- - std::future

common::Request .right.> common::BinaryPayload : uses
cefapp::RequestCef "0...1" *- -  common::BinaryPayload
common::BinaryPayload "1" *-right- common::BinaryBuffer
common::BinaryBuffer "1" *-right- common::BufferPool
@enduml

PlantUML version 1.2018.01(Sun Jan 28 19:08:22 CET 2018)
(GPL source distribution)
Java Runtime: Java(TM) SE Runtime Environment
JVM: Java HotSpot(TM) 64-Bit Server VM
Java Version: 9.0.4+11
Operating System: Mac OS X
OS Version: 10.11.6
Default Encoding: UTF-8
Language: de
Country: DE
--></g></svg>