<?xml version="1.0" encoding="UTF-8" standalone="no"?><svg xmlns="http://www.w3.org/2000/svg" xmlns:xlink="http://www.w3.org/1999/xlink" contentScriptType="application/ecmascript" contentStyleType="text/css" height="495px" preserveAspectRatio="none" style="width:1049px;height:495px;" version="1.1" viewBox="0 0 1049 495" width="1049px" zoomAndPan="magnify"><defs/><g><!--cluster common--><polygon fill="#FFFFFF" points="14,169,82,169,89,191.4883,1011,191.4883,1011,369,14,369,14,169" style="stroke: #000000; stroke-width: 1.5;"/><line style="stroke: #000000; stroke-width: 1.5;" x1="14" x2="89" y1="191.4883" y2="191.4883"/><text fill="#000000" font-family="sans-serif" font-size="14" font-weight="bold" lengthAdjust="spacingAndGlyphs" textLength="62" x="18" y="184.5352">common</text><!--cluster cefapp--><polygon fill="#FFFFFF" points="398,16,451,16,458,38.4883,903,38.4883,903,138,398,138,398,16" style="stroke: #000000; stroke-width: 1.5;"/><line style="stroke: #000000; stroke-width: 1.5;" x1="398" x2="458" y1="38.4883" y2="38.4883"/><text fill="#000000" font-family="sans-serif" font-size="14" font-weight="bold" lengthAdjust="spacingAndGlyphs" textLength="47" x="402" y="31.5352">cefapp</text><!--cluster std--><polygon fill="#FFFFFF" points="662,400,691,400,698,422.4883,1027,422.4883,1027,483,662,483,662,400" style="stroke: #000000; stroke-width: 1.5;"/><line style="stroke: #000000; stroke-width: 1.5;" x1="662" x2="698" y1="422.4883" y2="422.4883"/><text fill="#000000" font-family="sans-serif" font-size="14" font-weight="bold" lengthAdjust="spacingAndGlyphs" textLength="23" x="666" y="415.5352">std</text><!--class common::BinaryBuffer--><rect fill="#FEFECE" height="86.8652" id="common::BinaryBuffer" style="stroke: #A80036; stroke-width: 1.5;" width="163" x="350.5" y="235"/><ellipse cx="365.5" cy="251" fill="#ADD1B2" rx="11" ry="11" style="stroke: #A80036; stroke-width: 1.0;"/><path d="M368.4731,256.6431 Q367.8921,256.9419 367.2529,257.0913 Q366.6138,257.2407 365.9082,257.2407 Q363.4014,257.2407 362.0815,255.5889 Q360.7617,253.937 360.7617,250.8159 Q360.7617,247.6865 362.0815,246.0347 Q363.4014,244.3828 365.9082,244.3828 Q366.6138,244.3828 367.2612,244.5322 Q367.9087,244.6816 368.4731,244.9805 L368.4731,247.7031 Q367.8423,247.1221 367.2488,246.8523 Q366.6553,246.5825 366.0244,246.5825 Q364.6797,246.5825 363.9949,247.6492 Q363.3101,248.7158 363.3101,250.8159 Q363.3101,252.9077 363.9949,253.9744 Q364.6797,255.041 366.0244,255.041 Q366.6553,255.041 367.2488,254.7712 Q367.8423,254.5015 368.4731,253.9204 Z "/><text fill="#000000" font-family="sans-serif" font-size="12" lengthAdjust="spacingAndGlyphs" textLength="69" x="379.5" y="255.5352">BinaryBuffer</text><rect fill="#FFFFFF" height="16.1328" style="stroke: #000000; stroke-width: 1.0; stroke-dasharray: 2.0,2.0;" width="60" x="456.5" y="232"/><text fill="#000000" font-family="sans-serif" font-size="12" font-style="italic" lengthAdjust="spacingAndGlyphs" textLength="58" x="457.5" y="244.6016">BufferPool</text><line style="stroke: #A80036; stroke-width: 1.5;" x1="351.5" x2="512.5" y1="267" y2="267"/><rect fill="none" height="6" style="stroke: #C82930; stroke-width: 1.0;" width="6" x="358.5" y="275.9775"/><text fill="#000000" font-family="sans-serif" font-size="11" lengthAdjust="spacingAndGlyphs" textLength="63" x="370.5" y="281.6348">m_allocator</text><rect fill="none" height="6" style="stroke: #C82930; stroke-width: 1.0;" width="6" x="358.5" y="288.9326"/><text fill="#000000" font-family="sans-serif" font-size="11" lengthAdjust="spacingAndGlyphs" textLength="39" x="370.5" y="294.5898">m_data</text><rect fill="none" height="6" style="stroke: #C82930; stroke-width: 1.0;" width="6" x="358.5" y="301.8877"/><text fill="#000000" font-family="sans-serif" font-size="11" lengthAdjust="spacingAndGlyphs" textLength="51" x="370.5" y="307.5449">m_nBytes</text><line style="stroke: #A80036; stroke-width: 1.5;" x1="351.5" x2="512.5" y1="313.8652" y2="313.8652"/><!--class common::BinaryPayload--><rect fill="#FEFECE" height="73.9102" id="common::BinaryPayload" style="stroke: #A80036; stroke-width: 1.5;" width="112" x="203" y="241.5"/><ellipse cx="218" cy="257.5" fill="#ADD1B2" rx="11" ry="11" style="stroke: #A80036; stroke-width: 1.0;"/><path d="M220.9731,263.1431 Q220.3921,263.4419 219.7529,263.5913 Q219.1138,263.7407 218.4082,263.7407 Q215.9014,263.7407 214.5815,262.0889 Q213.2617,260.437 213.2617,257.3159 Q213.2617,254.1865 214.5815,252.5347 Q215.9014,250.8828 218.4082,250.8828 Q219.1138,250.8828 219.7612,251.0322 Q220.4087,251.1816 220.9731,251.4805 L220.9731,254.2031 Q220.3423,253.6221 219.7488,253.3523 Q219.1553,253.0825 218.5244,253.0825 Q217.1797,253.0825 216.4949,254.1492 Q215.8101,255.2158 215.8101,257.3159 Q215.8101,259.4077 216.4949,260.4744 Q217.1797,261.541 218.5244,261.541 Q219.1553,261.541 219.7488,261.2712 Q220.3423,261.0015 220.9731,260.4204 Z "/><text fill="#000000" font-family="sans-serif" font-size="12" lengthAdjust="spacingAndGlyphs" textLength="80" x="232" y="262.0352">BinaryPayload</text><line style="stroke: #A80036; stroke-width: 1.5;" x1="204" x2="314" y1="273.5" y2="273.5"/><rect fill="none" height="6" style="stroke: #C82930; stroke-width: 1.0;" width="6" x="211" y="282.4775"/><text fill="#000000" font-family="sans-serif" font-size="11" lengthAdjust="spacingAndGlyphs" textLength="49" x="223" y="288.1348">m_buffer</text><rect fill="none" height="6" style="stroke: #C82930; stroke-width: 1.0;" width="6" x="211" y="295.4326"/><text fill="#000000" font-family="sans-serif" font-size="11" lengthAdjust="spacingAndGlyphs" textLength="55" x="223" y="301.0898">mimeType</text><line style="stroke: #A80036; stroke-width: 1.5;" x1="204" x2="314" y1="307.4102" y2="307.4102"/><!--class common::BufferPool--><rect fill="#FEFECE" height="48" id="common::BufferPool" style="stroke: #A80036; stroke-width: 1.5;" width="90" x="549" y="254.5"/><ellipse cx="564" cy="270.5" fill="#ADD1B2" rx="11" ry="11" style="stroke: #A80036; stroke-width: 1.0;"/><path d="M566.9731,276.1431 Q566.3921,276.4419 565.7529,276.5913 Q565.1138,276.7407 564.4082,276.7407 Q561.9014,276.7407 560.5815,275.0889 Q559.2617,273.437 559.2617,270.3159 Q559.2617,267.1865 560.5815,265.5347 Q561.9014,263.8828 564.4082,263.8828 Q565.1138,263.8828 565.7612,264.0322 Q566.4087,264.1816 566.9731,264.4805 L566.9731,267.2031 Q566.3423,266.6221 565.7488,266.3523 Q565.1553,266.0825 564.5244,266.0825 Q563.1797,266.0825 562.4949,267.1492 Q561.8101,268.2158 561.8101,270.3159 Q561.8101,272.4077 562.4949,273.4744 Q563.1797,274.541 564.5244,274.541 Q565.1553,274.541 565.7488,274.2712 Q566.3423,274.0015 566.9731,273.4204 Z "/><text fill="#000000" font-family="sans-serif" font-size="12" lengthAdjust="spacingAndGlyphs" textLength="58" x="578" y="275.0352">BufferPool</text><line style="stroke: #A80036; stroke-width: 1.5;" x1="550" x2="638" y1="286.5" y2="286.5"/><line style="stroke: #A80036; stroke-width: 1.5;" x1="550" x2="638" y1="294.5" y2="294.5"/><!--class common::Request--><rect fill="#33CC33" height="99.8203" id="common::Request" style="stroke: #A80036; stroke-width: 1.5;" width="115" x="22.5" y="228.5"/><rect fill="#33CC33" height="32" style="stroke: #A80036; stroke-width: 1.5;" width="115" x="22.5" y="228.5"/><ellipse cx="53.7" cy="244.5" fill="#ADD1B2" rx="11" ry="11" style="stroke: #A80036; stroke-width: 1.0;"/><path d="M56.6731,250.1431 Q56.0921,250.4419 55.4529,250.5913 Q54.8138,250.7407 54.1082,250.7407 Q51.6014,250.7407 50.2815,249.0889 Q48.9617,247.437 48.9617,244.3159 Q48.9617,241.1865 50.2815,239.5347 Q51.6014,237.8828 54.1082,237.8828 Q54.8138,237.8828 55.4612,238.0322 Q56.1087,238.1816 56.6731,238.4805 L56.6731,241.2031 Q56.0423,240.6221 55.4488,240.3523 Q54.8553,240.0825 54.2244,240.0825 Q52.8797,240.0825 52.1949,241.1492 Q51.5101,242.2158 51.5101,244.3159 Q51.5101,246.4077 52.1949,247.4744 Q52.8797,248.541 54.2244,248.541 Q54.8553,248.541 55.4488,248.2712 Q56.0423,248.0015 56.6731,247.4204 Z "/><text fill="#000000" font-family="sans-serif" font-size="12" lengthAdjust="spacingAndGlyphs" textLength="47" x="71.3" y="249.0352">Request</text><line style="stroke: #A80036; stroke-width: 1.5;" x1="23.5" x2="136.5" y1="260.5" y2="260.5"/><rect fill="none" height="6" style="stroke: #C82930; stroke-width: 1.0;" width="6" x="30.5" y="269.4775"/><text fill="#000000" font-family="sans-serif" font-size="11" lengthAdjust="spacingAndGlyphs" textLength="26" x="42.5" y="275.1348">m_id</text><rect fill="none" height="6" style="stroke: #C82930; stroke-width: 1.0;" width="6" x="30.5" y="282.4326"/><text fill="#000000" font-family="sans-serif" font-size="11" lengthAdjust="spacingAndGlyphs" textLength="78" x="42.5" y="288.0898">m_requestURL</text><line style="stroke: #A80036; stroke-width: 1.5;" x1="23.5" x2="136.5" y1="294.4102" y2="294.4102"/><ellipse cx="33.5" cy="306.3877" fill="#84BE84" rx="3" ry="3" style="stroke: #038048; stroke-width: 1.0;"/><text fill="#000000" font-family="sans-serif" font-size="11" lengthAdjust="spacingAndGlyphs" textLength="89" x="42.5" y="309.0449">getRequestURL()</text><ellipse cx="33.5" cy="319.3428" fill="#84BE84" rx="3" ry="3" style="stroke: #038048; stroke-width: 1.0;"/><text fill="#000000" font-family="sans-serif" font-size="11" font-style="italic" lengthAdjust="spacingAndGlyphs" textLength="66" x="42.5" y="322">getPayload()</text><!--class common::ResponsePromise--><rect fill="#FF6600" height="164.5957" id="common::ResponsePromise" style="stroke: #A80036; stroke-width: 1.5;" width="170" x="674" y="196"/><rect fill="#FF6600" height="32" style="stroke: #A80036; stroke-width: 1.5;" width="170" x="674" y="196"/><ellipse cx="705.2" cy="212" fill="#ADD1B2" rx="11" ry="11" style="stroke: #A80036; stroke-width: 1.0;"/><path d="M708.1731,217.6431 Q707.5921,217.9419 706.9529,218.0913 Q706.3138,218.2407 705.6082,218.2407 Q703.1014,218.2407 701.7815,216.5889 Q700.4617,214.937 700.4617,211.8159 Q700.4617,208.6865 701.7815,207.0347 Q703.1014,205.3828 705.6082,205.3828 Q706.3138,205.3828 706.9612,205.5322 Q707.6087,205.6816 708.1731,205.9805 L708.1731,208.7031 Q707.5423,208.1221 706.9488,207.8523 Q706.3553,207.5825 705.7244,207.5825 Q704.3797,207.5825 703.6949,208.6492 Q703.0101,209.7158 703.0101,211.8159 Q703.0101,213.9077 703.6949,214.9744 Q704.3797,216.041 705.7244,216.041 Q706.3553,216.041 706.9488,215.7712 Q707.5423,215.5015 708.1731,214.9204 Z "/><text fill="#000000" font-family="sans-serif" font-size="12" lengthAdjust="spacingAndGlyphs" textLength="102" x="722.8" y="216.5352">ResponsePromise</text><line style="stroke: #A80036; stroke-width: 1.5;" x1="675" x2="843" y1="228" y2="228"/><rect fill="none" height="6" style="stroke: #C82930; stroke-width: 1.0;" width="6" x="682" y="236.9775"/><text fill="#000000" font-family="sans-serif" font-size="11" lengthAdjust="spacingAndGlyphs" textLength="101" x="694" y="242.6348">m_promisePayload</text><rect fill="none" height="6" style="stroke: #C82930; stroke-width: 1.0;" width="6" x="682" y="249.9326"/><text fill="#000000" font-family="sans-serif" font-size="11" lengthAdjust="spacingAndGlyphs" textLength="67" x="694" y="255.5898">m_requestId</text><rect fill="none" height="6" style="stroke: #C82930; stroke-width: 1.0;" width="6" x="682" y="262.8877"/><text fill="#000000" font-family="sans-serif" font-size="11" lengthAdjust="spacingAndGlyphs" textLength="42" x="694" y="268.5449">m_state</text><rect fill="none" height="6" style="stroke: #C82930; stroke-width: 1.0;" width="6" x="682" y="275.8428"/><text fill="#000000" font-family="sans-serif" font-size="11" lengthAdjust="spacingAndGlyphs" textLength="138" x="694" y="281.5">m_bCancelOnDestruction</text><line style="stroke: #A80036; stroke-width: 1.5;" x1="675" x2="843" y1="287.8203" y2="287.8203"/><ellipse cx="685" cy="299.7979" fill="#84BE84" rx="3" ry="3" style="stroke: #038048; stroke-width: 1.0;"/><text fill="#000000" font-family="sans-serif" font-size="11" lengthAdjust="spacingAndGlyphs" textLength="85" x="694" y="302.4551">setCancel(what)</text><ellipse cx="685" cy="312.7529" fill="#84BE84" rx="3" ry="3" style="stroke: #038048; stroke-width: 1.0;"/><text fill="#000000" font-family="sans-serif" font-size="11" lengthAdjust="spacingAndGlyphs" textLength="98" x="694" y="315.4102">setReady(payload)</text><polygon fill="#FFFF44" points="685,320.708,689,324.708,685,328.708,681,324.708" style="stroke: #B38D22; stroke-width: 1.0;"/><text fill="#000000" font-family="sans-serif" font-size="11" font-style="italic" lengthAdjust="spacingAndGlyphs" textLength="79" x="694" y="328.3652">setReadyImpl()</text><polygon fill="#FFFF44" points="685,333.6631,689,337.6631,685,341.6631,681,337.6631" style="stroke: #B38D22; stroke-width: 1.0;"/><text fill="#000000" font-family="sans-serif" font-size="11" font-style="italic" lengthAdjust="spacingAndGlyphs" textLength="92" x="694" y="341.3203">setCancleImpl(...)</text><polygon fill="#FFFF44" points="685,346.6182,689,350.6182,685,354.6182,681,350.6182" style="stroke: #B38D22; stroke-width: 1.0;"/><text fill="#000000" font-family="sans-serif" font-size="11" lengthAdjust="spacingAndGlyphs" textLength="144" x="694" y="354.2754">setResolveOnDestruction()</text><!--class common::ResponseFuture--><rect fill="#00CCFF" height="73.9102" id="common::ResponseFuture" style="stroke: #A80036; stroke-width: 1.5;" width="124" x="879" y="241.5"/><rect fill="#00CCFF" height="32" style="stroke: #A80036; stroke-width: 1.5;" width="124" x="879" y="241.5"/><ellipse cx="894" cy="257.5" fill="#ADD1B2" rx="11" ry="11" style="stroke: #A80036; stroke-width: 1.0;"/><path d="M896.9731,263.1431 Q896.3921,263.4419 895.7529,263.5913 Q895.1138,263.7407 894.4082,263.7407 Q891.9014,263.7407 890.5815,262.0889 Q889.2617,260.437 889.2617,257.3159 Q889.2617,254.1865 890.5815,252.5347 Q891.9014,250.8828 894.4082,250.8828 Q895.1138,250.8828 895.7612,251.0322 Q896.4087,251.1816 896.9731,251.4805 L896.9731,254.2031 Q896.3423,253.6221 895.7488,253.3523 Q895.1553,253.0825 894.5244,253.0825 Q893.1797,253.0825 892.4949,254.1492 Q891.8101,255.2158 891.8101,257.3159 Q891.8101,259.4077 892.4949,260.4744 Q893.1797,261.541 894.5244,261.541 Q895.1553,261.541 895.7488,261.2712 Q896.3423,261.0015 896.9731,260.4204 Z "/><text fill="#000000" font-family="sans-serif" font-size="12" lengthAdjust="spacingAndGlyphs" textLength="92" x="908" y="262.0352">ResponseFuture</text><line style="stroke: #A80036; stroke-width: 1.5;" x1="880" x2="1002" y1="273.5" y2="273.5"/><rect fill="none" height="6" style="stroke: #C82930; stroke-width: 1.0;" width="6" x="887" y="282.4775"/><text fill="#000000" font-family="sans-serif" font-size="11" lengthAdjust="spacingAndGlyphs" textLength="67" x="899" y="288.1348">m_requestId</text><line style="stroke: #A80036; stroke-width: 1.5;" x1="880" x2="1002" y1="294.4551" y2="294.4551"/><ellipse cx="890" cy="306.4326" fill="#84BE84" rx="3" ry="3" style="stroke: #038048; stroke-width: 1.0;"/><text fill="#000000" font-family="sans-serif" font-size="11" lengthAdjust="spacingAndGlyphs" textLength="60" x="899" y="309.0898">getFuture()</text><!--class cefapp::RequestCef--><rect fill="#33CC33" height="48" id="cefapp::RequestCef" style="stroke: #A80036; stroke-width: 1.5;" width="98" x="406" y="62.5"/><rect fill="#33CC33" height="32" style="stroke: #A80036; stroke-width: 1.5;" width="98" x="406" y="62.5"/><ellipse cx="421" cy="78.5" fill="#ADD1B2" rx="11" ry="11" style="stroke: #A80036; stroke-width: 1.0;"/><path d="M423.9731,84.1431 Q423.3921,84.4419 422.7529,84.5913 Q422.1138,84.7407 421.4082,84.7407 Q418.9014,84.7407 417.5815,83.0889 Q416.2617,81.437 416.2617,78.3159 Q416.2617,75.1865 417.5815,73.5347 Q418.9014,71.8828 421.4082,71.8828 Q422.1138,71.8828 422.7612,72.0322 Q423.4087,72.1816 423.9731,72.4805 L423.9731,75.2031 Q423.3423,74.6221 422.7488,74.3523 Q422.1553,74.0825 421.5244,74.0825 Q420.1797,74.0825 419.4949,75.1492 Q418.8101,76.2158 418.8101,78.3159 Q418.8101,80.4077 419.4949,81.4744 Q420.1797,82.541 421.5244,82.541 Q422.1553,82.541 422.7488,82.2712 Q423.3423,82.0015 423.9731,81.4204 Z "/><text fill="#000000" font-family="sans-serif" font-size="12" lengthAdjust="spacingAndGlyphs" textLength="66" x="435" y="83.0352">RequestCef</text><line style="stroke: #A80036; stroke-width: 1.5;" x1="407" x2="503" y1="94.5" y2="94.5"/><line style="stroke: #A80036; stroke-width: 1.5;" x1="407" x2="503" y1="102.5" y2="102.5"/><!--class cefapp::ResponsePromiseCef--><rect fill="#FF6600" height="86.8652" id="cefapp::ResponsePromiseCef" style="stroke: #A80036; stroke-width: 1.5;" width="177" x="539.5" y="43"/><rect fill="#FF6600" height="32" style="stroke: #A80036; stroke-width: 1.5;" width="177" x="539.5" y="43"/><ellipse cx="565.3" cy="59" fill="#ADD1B2" rx="11" ry="11" style="stroke: #A80036; stroke-width: 1.0;"/><path d="M568.2731,64.6431 Q567.6921,64.9419 567.0529,65.0913 Q566.4138,65.2407 565.7082,65.2407 Q563.2014,65.2407 561.8815,63.5889 Q560.5617,61.937 560.5617,58.8159 Q560.5617,55.6865 561.8815,54.0347 Q563.2014,52.3828 565.7082,52.3828 Q566.4138,52.3828 567.0612,52.5322 Q567.7087,52.6816 568.2731,52.9805 L568.2731,55.7031 Q567.6423,55.1221 567.0488,54.8523 Q566.4553,54.5825 565.8244,54.5825 Q564.4797,54.5825 563.7949,55.6492 Q563.1101,56.7158 563.1101,58.8159 Q563.1101,60.9077 563.7949,61.9744 Q564.4797,63.041 565.8244,63.041 Q566.4553,63.041 567.0488,62.7712 Q567.6423,62.5015 568.2731,61.9204 Z "/><text fill="#000000" font-family="sans-serif" font-size="12" lengthAdjust="spacingAndGlyphs" textLength="121" x="581.7" y="63.5352">ResponsePromiseCef</text><line style="stroke: #A80036; stroke-width: 1.5;" x1="540.5" x2="715.5" y1="75" y2="75"/><rect fill="none" height="6" style="stroke: #C82930; stroke-width: 1.0;" width="6" x="547.5" y="83.9775"/><text fill="#000000" font-family="sans-serif" font-size="11" lengthAdjust="spacingAndGlyphs" textLength="151" x="559.5" y="89.6348">m_cbResponseHeaderReady</text><line style="stroke: #A80036; stroke-width: 1.5;" x1="540.5" x2="715.5" y1="95.9551" y2="95.9551"/><polygon fill="#FFFF44" points="550.5,102.9326,554.5,106.9326,550.5,110.9326,546.5,106.9326" style="stroke: #B38D22; stroke-width: 1.0;"/><text fill="#000000" font-family="sans-serif" font-size="11" lengthAdjust="spacingAndGlyphs" textLength="79" x="559.5" y="110.5898">setReadyImpl()</text><polygon fill="#FFFF44" points="550.5,115.8877,554.5,119.8877,550.5,123.8877,546.5,119.8877" style="stroke: #B38D22; stroke-width: 1.0;"/><text fill="#000000" font-family="sans-serif" font-size="11" lengthAdjust="spacingAndGlyphs" textLength="92" x="559.5" y="123.5449">setCancleImpl(...)</text><!--class cefapp::ResponseFutureCef--><rect fill="#00CCFF" height="48" id="cefapp::ResponseFutureCef" style="stroke: #A80036; stroke-width: 1.5;" width="143" x="751.5" y="62.5"/><rect fill="#00CCFF" height="32" style="stroke: #A80036; stroke-width: 1.5;" width="143" x="751.5" y="62.5"/><ellipse cx="766.5" cy="78.5" fill="#ADD1B2" rx="11" ry="11" style="stroke: #A80036; stroke-width: 1.0;"/><path d="M769.4731,84.1431 Q768.8921,84.4419 768.2529,84.5913 Q767.6138,84.7407 766.9082,84.7407 Q764.4014,84.7407 763.0815,83.0889 Q761.7617,81.437 761.7617,78.3159 Q761.7617,75.1865 763.0815,73.5347 Q764.4014,71.8828 766.9082,71.8828 Q767.6138,71.8828 768.2612,72.0322 Q768.9087,72.1816 769.4731,72.4805 L769.4731,75.2031 Q768.8423,74.6221 768.2488,74.3523 Q767.6553,74.0825 767.0244,74.0825 Q765.6797,74.0825 764.9949,75.1492 Q764.3101,76.2158 764.3101,78.3159 Q764.3101,80.4077 764.9949,81.4744 Q765.6797,82.541 767.0244,82.541 Q767.6553,82.541 768.2488,82.2712 Q768.8423,82.0015 769.4731,81.4204 Z "/><text fill="#000000" font-family="sans-serif" font-size="12" lengthAdjust="spacingAndGlyphs" textLength="111" x="780.5" y="83.0352">ResponseFutureCef</text><line style="stroke: #A80036; stroke-width: 1.5;" x1="752.5" x2="893.5" y1="94.5" y2="94.5"/><line style="stroke: #A80036; stroke-width: 1.5;" x1="752.5" x2="893.5" y1="102.5" y2="102.5"/><!--class std::promise--><rect fill="#FEFECE" height="48" id="std::promise" style="stroke: #A80036; stroke-width: 1.5;" width="163" x="670.5" y="427"/><ellipse cx="685.5" cy="443" fill="#ADD1B2" rx="11" ry="11" style="stroke: #A80036; stroke-width: 1.0;"/><path d="M688.4731,448.6431 Q687.8921,448.9419 687.2529,449.0913 Q686.6138,449.2407 685.9082,449.2407 Q683.4014,449.2407 682.0815,447.5889 Q680.7617,445.937 680.7617,442.8159 Q680.7617,439.6865 682.0815,438.0347 Q683.4014,436.3828 685.9082,436.3828 Q686.6138,436.3828 687.2612,436.5322 Q687.9087,436.6816 688.4731,436.9805 L688.4731,439.7031 Q687.8423,439.1221 687.2488,438.8523 Q686.6553,438.5825 686.0244,438.5825 Q684.6797,438.5825 683.9949,439.6492 Q683.3101,440.7158 683.3101,442.8159 Q683.3101,444.9077 683.9949,445.9744 Q684.6797,447.041 686.0244,447.041 Q686.6553,447.041 687.2488,446.7712 Q687.8423,446.5015 688.4731,445.9204 Z "/><text fill="#000000" font-family="sans-serif" font-size="12" lengthAdjust="spacingAndGlyphs" textLength="47" x="699.5" y="447.5352">promise</text><rect fill="#FFFFFF" height="16.1328" style="stroke: #000000; stroke-width: 1.0; stroke-dasharray: 2.0,2.0;" width="82" x="754.5" y="424"/><text fill="#000000" font-family="sans-serif" font-size="12" font-style="italic" lengthAdjust="spacingAndGlyphs" textLength="80" x="755.5" y="436.6016">BinaryPayload</text><line style="stroke: #A80036; stroke-width: 1.5;" x1="671.5" x2="832.5" y1="459" y2="459"/><line style="stroke: #A80036; stroke-width: 1.5;" x1="671.5" x2="832.5" y1="467" y2="467"/><!--class std::future--><rect fill="#FEFECE" height="48" id="std::future" style="stroke: #A80036; stroke-width: 1.5;" width="150" x="869" y="427"/><ellipse cx="884" cy="443" fill="#ADD1B2" rx="11" ry="11" style="stroke: #A80036; stroke-width: 1.0;"/><path d="M886.9731,448.6431 Q886.3921,448.9419 885.7529,449.0913 Q885.1138,449.2407 884.4082,449.2407 Q881.9014,449.2407 880.5815,447.5889 Q879.2617,445.937 879.2617,442.8159 Q879.2617,439.6865 880.5815,438.0347 Q881.9014,436.3828 884.4082,436.3828 Q885.1138,436.3828 885.7612,436.5322 Q886.4087,436.6816 886.9731,436.9805 L886.9731,439.7031 Q886.3423,439.1221 885.7488,438.8523 Q885.1553,438.5825 884.5244,438.5825 Q883.1797,438.5825 882.4949,439.6492 Q881.8101,440.7158 881.8101,442.8159 Q881.8101,444.9077 882.4949,445.9744 Q883.1797,447.041 884.5244,447.041 Q885.1553,447.041 885.7488,446.7712 Q886.3423,446.5015 886.9731,445.9204 Z "/><text fill="#000000" font-family="sans-serif" font-size="12" lengthAdjust="spacingAndGlyphs" textLength="34" x="898" y="447.5352">future</text><rect fill="#FFFFFF" height="16.1328" style="stroke: #000000; stroke-width: 1.0; stroke-dasharray: 2.0,2.0;" width="82" x="940" y="424"/><text fill="#000000" font-family="sans-serif" font-size="12" font-style="italic" lengthAdjust="spacingAndGlyphs" textLength="80" x="941" y="436.6016">BinaryPayload</text><line style="stroke: #A80036; stroke-width: 1.5;" x1="870" x2="1018" y1="459" y2="459"/><line style="stroke: #A80036; stroke-width: 1.5;" x1="870" x2="1018" y1="467" y2="467"/><!--link cefapp::RequestCef to common::Request--><path d="M405.8317,93.7947 C349.2181,103.8753 255.0332,125.9215 185,169 C165.6771,180.8858 147.4706,197.1692 131.8165,213.5455 " fill="none" id="cefapp::RequestCef-common::Request" style="stroke: #A80036; stroke-width: 1.0;"/><polygon fill="none" points="136.8447,218.4204,118.1992,228.4876,126.4971,208.9902,136.8447,218.4204" style="stroke: #A80036; stroke-width: 1.0;"/><!--link cefapp::ResponsePromiseCef to common::ResponsePromise--><path d="M657.7259,130.0678 C667.7943,144.8245 679.4895,161.9655 691.2807,179.2472 " fill="none" id="cefapp::ResponsePromiseCef-common::ResponsePromise" style="stroke: #A80036; stroke-width: 1.0;"/><polygon fill="none" points="697.0753,175.32,702.5651,195.7862,685.5106,183.2105,697.0753,175.32" style="stroke: #A80036; stroke-width: 1.0;"/><!--link common::ResponsePromise to std::promise--><path d="M755.1066,374.4436 C754.3142,393.9723 753.5489,412.8295 752.9763,426.9423 " fill="none" id="common::ResponsePromise-std::promise" style="stroke: #A80036; stroke-width: 1.0;"/><polygon fill="#A80036" points="755.6435,361.2133,751.4035,367.0462,755.1569,373.2034,759.3969,367.3706,755.6435,361.2133" style="stroke: #A80036; stroke-width: 1.0;"/><text fill="#000000" font-family="sans-serif" font-size="13" lengthAdjust="spacingAndGlyphs" textLength="8" x="747.0343" y="381.282">1</text><!--link cefapp::ResponseFutureCef to common::ResponseFuture--><path d="M837.9448,110.8169 C855.3584,139.151 884.6677,186.8407 907.5875,224.1339 " fill="none" id="cefapp::ResponseFutureCef-common::ResponseFuture" style="stroke: #A80036; stroke-width: 1.0;"/><polygon fill="none" points="913.5761,220.5091,918.0844,241.2136,901.6486,227.8396,913.5761,220.5091" style="stroke: #A80036; stroke-width: 1.0;"/><!--link common::ResponseFuture to std::future--><path d="M941.8742,328.7649 C942.4353,361.0318 943.1389,401.486 943.5791,426.796 " fill="none" id="common::ResponseFuture-std::future" style="stroke: #A80036; stroke-width: 1.0;"/><polygon fill="#A80036" points="941.6436,315.5056,937.7486,321.5743,941.8523,327.5038,945.7474,321.4351,941.6436,315.5056" style="stroke: #A80036; stroke-width: 1.0;"/><text fill="#000000" font-family="sans-serif" font-size="13" lengthAdjust="spacingAndGlyphs" textLength="8" x="933.0457" y="336.0372">1</text><!--link common::Request to common::BinaryPayload--><path d="M137.622,278.5 C156.6795,278.5 177.9551,278.5 197.3054,278.5 " fill="none" id="common::Request-common::BinaryPayload" style="stroke: #A80036; stroke-width: 1.0; stroke-dasharray: 7.0,7.0;"/><polygon fill="#A80036" points="202.7087,278.5,193.7087,274.5,197.7087,278.5,193.7087,282.5,202.7087,278.5" style="stroke: #A80036; stroke-width: 1.0;"/><text fill="#000000" font-family="sans-serif" font-size="13" lengthAdjust="spacingAndGlyphs" textLength="29" x="155.75" y="272.0684">uses</text><!--link cefapp::RequestCef to common::BinaryPayload--><path d="M399.7477,117.5351 C377.5507,131.5477 352.6272,149.367 333,169 C311.5873,190.4191 292.5821,218.8624 279.1947,241.3915 " fill="none" id="cefapp::RequestCef-common::BinaryPayload" style="stroke: #A80036; stroke-width: 1.0;"/><polygon fill="#A80036" points="411.0642,110.5649,403.8578,110.3057,400.8468,116.8582,408.0533,117.1173,411.0642,110.5649" style="stroke: #A80036; stroke-width: 1.0;"/><text fill="#000000" font-family="sans-serif" font-size="13" lengthAdjust="spacingAndGlyphs" textLength="28" x="369.6665" y="130.4685">0...1</text><!--link common::BinaryPayload to common::BinaryBuffer--><path d="M328.2765,278.5 C335.6024,278.5 342.9283,278.5 350.2542,278.5 " fill="none" id="common::BinaryPayload-common::BinaryBuffer" style="stroke: #A80036; stroke-width: 1.0;"/><polygon fill="#A80036" points="315.0898,278.5,321.0898,282.5,327.0898,278.5,321.0898,274.5,315.0898,278.5" style="stroke: #A80036; stroke-width: 1.0;"/><text fill="#000000" font-family="sans-serif" font-size="13" lengthAdjust="spacingAndGlyphs" textLength="8" x="323.1644" y="275.0874">1</text><!--link common::BinaryBuffer to common::BufferPool--><path d="M526.8181,278.5 C534.1432,278.5 541.4683,278.5 548.7935,278.5 " fill="none" id="common::BinaryBuffer-common::BufferPool" style="stroke: #A80036; stroke-width: 1.0;"/><polygon fill="#A80036" points="513.6328,278.5,519.6328,282.5,525.6328,278.5,519.6328,274.5,513.6328,278.5" style="stroke: #A80036; stroke-width: 1.0;"/><text fill="#000000" font-family="sans-serif" font-size="13" lengthAdjust="spacingAndGlyphs" textLength="8" x="521.5271" y="275.3975">1</text><!--
@startuml
set namespaceSeparator ::
skinparam shadowing false

namespace common {
    class BinaryBuffer<BufferPool> {
        - m_allocator
        - m_data
        - m_nBytes
    }
    class BinaryPayload {
        - m_buffer
        - mimeType
    }

    class BufferPool
    class Request #33cc33 {
        + getRequestURL()
        + getPayload() {abstract}
        - m_id
        - m_requestURL
    }
    class ResponsePromise #ff6600 {
        + setCancel(what)
        + setReady(payload)
        # setReadyImpl() {abstract}
        # setCancleImpl(...) {abstract}
        # setResolveOnDestruction()
        - m_promisePayload
        - m_requestId
        - m_state
        - m_bCancelOnDestruction
    }
    class ResponseFuture #00ccff {
        + getFuture()
        - m_requestId
    }
}

namespace cefapp {
    class RequestCef #33cc33
    class ResponsePromiseCef #ff6600 {
        # setReadyImpl()
        # setCancleImpl(...)
        - m_cbResponseHeaderReady
    }
    class ResponseFutureCef #00ccff
}

namespace std {
    class promise<BinaryPayload>
    class future<BinaryPayload>
}

cefapp::RequestCef - -|> common::Request
cefapp::ResponsePromiseCef - -|> common::ResponsePromise
common::ResponsePromise "1" *- - std::promise
cefapp::ResponseFutureCef - -|> common::ResponseFuture
common::ResponseFuture "1" *- - std::future

common::Request .right.> common::BinaryPayload : uses
cefapp::RequestCef "0...1" *- -  common::BinaryPayload
common::BinaryPayload "1" *-right- common::BinaryBuffer
common::BinaryBuffer "1" *-right- common::BufferPool
@enduml

PlantUML version 1.2018.01(Sun Jan 28 19:08:22 CET 2018)
(GPL source distribution)
Java Runtime: Java(TM) SE Runtime Environment
JVM: Java HotSpot(TM) 64-Bit Server VM
Java Version: 9.0.4+11
Operating System: Mac OS X
OS Version: 10.11.6
Default Encoding: UTF-8
Language: de
Country: DE
--></g></svg>